<?xml version="1.0" encoding="utf-8" standalone="no"?>
<!DOCTYPE svg PUBLIC "-//W3C//DTD SVG 1.1//EN"
  "http://www.w3.org/Graphics/SVG/1.1/DTD/svg11.dtd">
<svg xmlns:xlink="http://www.w3.org/1999/xlink" width="555.13605pt" height="345.581158pt" viewBox="0 0 555.13605 345.581158" xmlns="http://www.w3.org/2000/svg" version="1.1">
 <metadata>
  <rdf:RDF xmlns:dc="http://purl.org/dc/elements/1.1/" xmlns:cc="http://creativecommons.org/ns#" xmlns:rdf="http://www.w3.org/1999/02/22-rdf-syntax-ns#">
   <cc:Work>
    <dc:type rdf:resource="http://purl.org/dc/dcmitype/StillImage"/>
    <dc:date>2022-05-02T13:50:43.400794</dc:date>
    <dc:format>image/svg+xml</dc:format>
    <dc:creator>
     <cc:Agent>
      <dc:title>Matplotlib v3.5.1, https://matplotlib.org/</dc:title>
     </cc:Agent>
    </dc:creator>
   </cc:Work>
  </rdf:RDF>
 </metadata>
 <defs>
  <style type="text/css">*{stroke-linejoin: round; stroke-linecap: butt}</style>
 </defs>
 <g id="figure_1">
  <g id="patch_1">
   <path d="M 0 345.581158 
L 555.13605 345.581158 
L 555.13605 0 
L 0 0 
z
" style="fill: #ffffff"/>
  </g>
  <g id="axes_1">
   <g id="patch_2">
    <path d="M 43.78125 288.430125 
L 400.90125 288.430125 
L 400.90125 22.318125 
L 43.78125 22.318125 
z
" style="fill: #ffffff"/>
   </g>
   <g id="matplotlib.axis_1">
    <g id="xtick_1">
     <g id="line2d_1">
      <defs>
       <path id="m6b0f32bb82" d="M 0 0 
L 0 3.5 
" style="stroke: #000000; stroke-width: 0.8"/>
      </defs>
      <g>
       <use xlink:href="#m6b0f32bb82" x="60.013977" y="288.430125" style="stroke: #000000; stroke-width: 0.8"/>
      </g>
     </g>
     <g id="text_1">
      <!-- 2005-01 -->
      <g transform="translate(22.789156 322.901971)rotate(-30)scale(0.1 -0.1)">
       <defs>
        <path id="DejaVuSans-32" d="M 1228 531 
L 3431 531 
L 3431 0 
L 469 0 
L 469 531 
Q 828 903 1448 1529 
Q 2069 2156 2228 2338 
Q 2531 2678 2651 2914 
Q 2772 3150 2772 3378 
Q 2772 3750 2511 3984 
Q 2250 4219 1831 4219 
Q 1534 4219 1204 4116 
Q 875 4013 500 3803 
L 500 4441 
Q 881 4594 1212 4672 
Q 1544 4750 1819 4750 
Q 2544 4750 2975 4387 
Q 3406 4025 3406 3419 
Q 3406 3131 3298 2873 
Q 3191 2616 2906 2266 
Q 2828 2175 2409 1742 
Q 1991 1309 1228 531 
z
" transform="scale(0.015625)"/>
        <path id="DejaVuSans-30" d="M 2034 4250 
Q 1547 4250 1301 3770 
Q 1056 3291 1056 2328 
Q 1056 1369 1301 889 
Q 1547 409 2034 409 
Q 2525 409 2770 889 
Q 3016 1369 3016 2328 
Q 3016 3291 2770 3770 
Q 2525 4250 2034 4250 
z
M 2034 4750 
Q 2819 4750 3233 4129 
Q 3647 3509 3647 2328 
Q 3647 1150 3233 529 
Q 2819 -91 2034 -91 
Q 1250 -91 836 529 
Q 422 1150 422 2328 
Q 422 3509 836 4129 
Q 1250 4750 2034 4750 
z
" transform="scale(0.015625)"/>
        <path id="DejaVuSans-35" d="M 691 4666 
L 3169 4666 
L 3169 4134 
L 1269 4134 
L 1269 2991 
Q 1406 3038 1543 3061 
Q 1681 3084 1819 3084 
Q 2600 3084 3056 2656 
Q 3513 2228 3513 1497 
Q 3513 744 3044 326 
Q 2575 -91 1722 -91 
Q 1428 -91 1123 -41 
Q 819 9 494 109 
L 494 744 
Q 775 591 1075 516 
Q 1375 441 1709 441 
Q 2250 441 2565 725 
Q 2881 1009 2881 1497 
Q 2881 1984 2565 2268 
Q 2250 2553 1709 2553 
Q 1456 2553 1204 2497 
Q 953 2441 691 2322 
L 691 4666 
z
" transform="scale(0.015625)"/>
        <path id="DejaVuSans-2d" d="M 313 2009 
L 1997 2009 
L 1997 1497 
L 313 1497 
L 313 2009 
z
" transform="scale(0.015625)"/>
        <path id="DejaVuSans-31" d="M 794 531 
L 1825 531 
L 1825 4091 
L 703 3866 
L 703 4441 
L 1819 4666 
L 2450 4666 
L 2450 531 
L 3481 531 
L 3481 0 
L 794 0 
L 794 531 
z
" transform="scale(0.015625)"/>
       </defs>
       <use xlink:href="#DejaVuSans-32"/>
       <use xlink:href="#DejaVuSans-30" x="63.623047"/>
       <use xlink:href="#DejaVuSans-30" x="127.246094"/>
       <use xlink:href="#DejaVuSans-35" x="190.869141"/>
       <use xlink:href="#DejaVuSans-2d" x="254.492188"/>
       <use xlink:href="#DejaVuSans-30" x="290.576172"/>
       <use xlink:href="#DejaVuSans-31" x="354.199219"/>
      </g>
     </g>
    </g>
    <g id="xtick_2">
     <g id="line2d_2">
      <g>
       <use xlink:href="#m6b0f32bb82" x="100.042165" y="288.430125" style="stroke: #000000; stroke-width: 0.8"/>
      </g>
     </g>
     <g id="text_2">
      <!-- 2005-04 -->
      <g transform="translate(62.817344 322.901971)rotate(-30)scale(0.1 -0.1)">
       <defs>
        <path id="DejaVuSans-34" d="M 2419 4116 
L 825 1625 
L 2419 1625 
L 2419 4116 
z
M 2253 4666 
L 3047 4666 
L 3047 1625 
L 3713 1625 
L 3713 1100 
L 3047 1100 
L 3047 0 
L 2419 0 
L 2419 1100 
L 313 1100 
L 313 1709 
L 2253 4666 
z
" transform="scale(0.015625)"/>
       </defs>
       <use xlink:href="#DejaVuSans-32"/>
       <use xlink:href="#DejaVuSans-30" x="63.623047"/>
       <use xlink:href="#DejaVuSans-30" x="127.246094"/>
       <use xlink:href="#DejaVuSans-35" x="190.869141"/>
       <use xlink:href="#DejaVuSans-2d" x="254.492188"/>
       <use xlink:href="#DejaVuSans-30" x="290.576172"/>
       <use xlink:href="#DejaVuSans-34" x="354.199219"/>
      </g>
     </g>
    </g>
    <g id="xtick_3">
     <g id="line2d_3">
      <g>
       <use xlink:href="#m6b0f32bb82" x="140.51511" y="288.430125" style="stroke: #000000; stroke-width: 0.8"/>
      </g>
     </g>
     <g id="text_3">
      <!-- 2005-07 -->
      <g transform="translate(103.290289 322.901971)rotate(-30)scale(0.1 -0.1)">
       <defs>
        <path id="DejaVuSans-37" d="M 525 4666 
L 3525 4666 
L 3525 4397 
L 1831 0 
L 1172 0 
L 2766 4134 
L 525 4134 
L 525 4666 
z
" transform="scale(0.015625)"/>
       </defs>
       <use xlink:href="#DejaVuSans-32"/>
       <use xlink:href="#DejaVuSans-30" x="63.623047"/>
       <use xlink:href="#DejaVuSans-30" x="127.246094"/>
       <use xlink:href="#DejaVuSans-35" x="190.869141"/>
       <use xlink:href="#DejaVuSans-2d" x="254.492188"/>
       <use xlink:href="#DejaVuSans-30" x="290.576172"/>
       <use xlink:href="#DejaVuSans-37" x="354.199219"/>
      </g>
     </g>
    </g>
    <g id="xtick_4">
     <g id="line2d_4">
      <g>
       <use xlink:href="#m6b0f32bb82" x="181.432813" y="288.430125" style="stroke: #000000; stroke-width: 0.8"/>
      </g>
     </g>
     <g id="text_4">
      <!-- 2005-10 -->
      <g transform="translate(144.207992 322.901971)rotate(-30)scale(0.1 -0.1)">
       <use xlink:href="#DejaVuSans-32"/>
       <use xlink:href="#DejaVuSans-30" x="63.623047"/>
       <use xlink:href="#DejaVuSans-30" x="127.246094"/>
       <use xlink:href="#DejaVuSans-35" x="190.869141"/>
       <use xlink:href="#DejaVuSans-2d" x="254.492188"/>
       <use xlink:href="#DejaVuSans-31" x="290.576172"/>
       <use xlink:href="#DejaVuSans-30" x="354.199219"/>
      </g>
     </g>
    </g>
    <g id="xtick_5">
     <g id="line2d_5">
      <g>
       <use xlink:href="#m6b0f32bb82" x="222.350516" y="288.430125" style="stroke: #000000; stroke-width: 0.8"/>
      </g>
     </g>
     <g id="text_5">
      <!-- 2006-01 -->
      <g transform="translate(185.125695 322.901971)rotate(-30)scale(0.1 -0.1)">
       <defs>
        <path id="DejaVuSans-36" d="M 2113 2584 
Q 1688 2584 1439 2293 
Q 1191 2003 1191 1497 
Q 1191 994 1439 701 
Q 1688 409 2113 409 
Q 2538 409 2786 701 
Q 3034 994 3034 1497 
Q 3034 2003 2786 2293 
Q 2538 2584 2113 2584 
z
M 3366 4563 
L 3366 3988 
Q 3128 4100 2886 4159 
Q 2644 4219 2406 4219 
Q 1781 4219 1451 3797 
Q 1122 3375 1075 2522 
Q 1259 2794 1537 2939 
Q 1816 3084 2150 3084 
Q 2853 3084 3261 2657 
Q 3669 2231 3669 1497 
Q 3669 778 3244 343 
Q 2819 -91 2113 -91 
Q 1303 -91 875 529 
Q 447 1150 447 2328 
Q 447 3434 972 4092 
Q 1497 4750 2381 4750 
Q 2619 4750 2861 4703 
Q 3103 4656 3366 4563 
z
" transform="scale(0.015625)"/>
       </defs>
       <use xlink:href="#DejaVuSans-32"/>
       <use xlink:href="#DejaVuSans-30" x="63.623047"/>
       <use xlink:href="#DejaVuSans-30" x="127.246094"/>
       <use xlink:href="#DejaVuSans-36" x="190.869141"/>
       <use xlink:href="#DejaVuSans-2d" x="254.492188"/>
       <use xlink:href="#DejaVuSans-30" x="290.576172"/>
       <use xlink:href="#DejaVuSans-31" x="354.199219"/>
      </g>
     </g>
    </g>
    <g id="xtick_6">
     <g id="line2d_6">
      <g>
       <use xlink:href="#m6b0f32bb82" x="262.378703" y="288.430125" style="stroke: #000000; stroke-width: 0.8"/>
      </g>
     </g>
     <g id="text_6">
      <!-- 2006-04 -->
      <g transform="translate(225.153883 322.901971)rotate(-30)scale(0.1 -0.1)">
       <use xlink:href="#DejaVuSans-32"/>
       <use xlink:href="#DejaVuSans-30" x="63.623047"/>
       <use xlink:href="#DejaVuSans-30" x="127.246094"/>
       <use xlink:href="#DejaVuSans-36" x="190.869141"/>
       <use xlink:href="#DejaVuSans-2d" x="254.492188"/>
       <use xlink:href="#DejaVuSans-30" x="290.576172"/>
       <use xlink:href="#DejaVuSans-34" x="354.199219"/>
      </g>
     </g>
    </g>
    <g id="xtick_7">
     <g id="line2d_7">
      <g>
       <use xlink:href="#m6b0f32bb82" x="302.851649" y="288.430125" style="stroke: #000000; stroke-width: 0.8"/>
      </g>
     </g>
     <g id="text_7">
      <!-- 2006-07 -->
      <g transform="translate(265.626828 322.901971)rotate(-30)scale(0.1 -0.1)">
       <use xlink:href="#DejaVuSans-32"/>
       <use xlink:href="#DejaVuSans-30" x="63.623047"/>
       <use xlink:href="#DejaVuSans-30" x="127.246094"/>
       <use xlink:href="#DejaVuSans-36" x="190.869141"/>
       <use xlink:href="#DejaVuSans-2d" x="254.492188"/>
       <use xlink:href="#DejaVuSans-30" x="290.576172"/>
       <use xlink:href="#DejaVuSans-37" x="354.199219"/>
      </g>
     </g>
    </g>
    <g id="xtick_8">
     <g id="line2d_8">
      <g>
       <use xlink:href="#m6b0f32bb82" x="343.769351" y="288.430125" style="stroke: #000000; stroke-width: 0.8"/>
      </g>
     </g>
     <g id="text_8">
      <!-- 2006-10 -->
      <g transform="translate(306.544531 322.901971)rotate(-30)scale(0.1 -0.1)">
       <use xlink:href="#DejaVuSans-32"/>
       <use xlink:href="#DejaVuSans-30" x="63.623047"/>
       <use xlink:href="#DejaVuSans-30" x="127.246094"/>
       <use xlink:href="#DejaVuSans-36" x="190.869141"/>
       <use xlink:href="#DejaVuSans-2d" x="254.492188"/>
       <use xlink:href="#DejaVuSans-31" x="290.576172"/>
       <use xlink:href="#DejaVuSans-30" x="354.199219"/>
      </g>
     </g>
    </g>
    <g id="xtick_9">
     <g id="line2d_9">
      <g>
       <use xlink:href="#m6b0f32bb82" x="384.687054" y="288.430125" style="stroke: #000000; stroke-width: 0.8"/>
      </g>
     </g>
     <g id="text_9">
      <!-- 2007-01 -->
      <g transform="translate(347.462233 322.901971)rotate(-30)scale(0.1 -0.1)">
       <use xlink:href="#DejaVuSans-32"/>
       <use xlink:href="#DejaVuSans-30" x="63.623047"/>
       <use xlink:href="#DejaVuSans-30" x="127.246094"/>
       <use xlink:href="#DejaVuSans-37" x="190.869141"/>
       <use xlink:href="#DejaVuSans-2d" x="254.492188"/>
       <use xlink:href="#DejaVuSans-30" x="290.576172"/>
       <use xlink:href="#DejaVuSans-31" x="354.199219"/>
      </g>
     </g>
    </g>
    <g id="text_10">
     <!-- timesteps -->
     <g transform="translate(197.624844 336.301471)scale(0.1 -0.1)">
      <defs>
       <path id="DejaVuSans-74" d="M 1172 4494 
L 1172 3500 
L 2356 3500 
L 2356 3053 
L 1172 3053 
L 1172 1153 
Q 1172 725 1289 603 
Q 1406 481 1766 481 
L 2356 481 
L 2356 0 
L 1766 0 
Q 1100 0 847 248 
Q 594 497 594 1153 
L 594 3053 
L 172 3053 
L 172 3500 
L 594 3500 
L 594 4494 
L 1172 4494 
z
" transform="scale(0.015625)"/>
       <path id="DejaVuSans-69" d="M 603 3500 
L 1178 3500 
L 1178 0 
L 603 0 
L 603 3500 
z
M 603 4863 
L 1178 4863 
L 1178 4134 
L 603 4134 
L 603 4863 
z
" transform="scale(0.015625)"/>
       <path id="DejaVuSans-6d" d="M 3328 2828 
Q 3544 3216 3844 3400 
Q 4144 3584 4550 3584 
Q 5097 3584 5394 3201 
Q 5691 2819 5691 2113 
L 5691 0 
L 5113 0 
L 5113 2094 
Q 5113 2597 4934 2840 
Q 4756 3084 4391 3084 
Q 3944 3084 3684 2787 
Q 3425 2491 3425 1978 
L 3425 0 
L 2847 0 
L 2847 2094 
Q 2847 2600 2669 2842 
Q 2491 3084 2119 3084 
Q 1678 3084 1418 2786 
Q 1159 2488 1159 1978 
L 1159 0 
L 581 0 
L 581 3500 
L 1159 3500 
L 1159 2956 
Q 1356 3278 1631 3431 
Q 1906 3584 2284 3584 
Q 2666 3584 2933 3390 
Q 3200 3197 3328 2828 
z
" transform="scale(0.015625)"/>
       <path id="DejaVuSans-65" d="M 3597 1894 
L 3597 1613 
L 953 1613 
Q 991 1019 1311 708 
Q 1631 397 2203 397 
Q 2534 397 2845 478 
Q 3156 559 3463 722 
L 3463 178 
Q 3153 47 2828 -22 
Q 2503 -91 2169 -91 
Q 1331 -91 842 396 
Q 353 884 353 1716 
Q 353 2575 817 3079 
Q 1281 3584 2069 3584 
Q 2775 3584 3186 3129 
Q 3597 2675 3597 1894 
z
M 3022 2063 
Q 3016 2534 2758 2815 
Q 2500 3097 2075 3097 
Q 1594 3097 1305 2825 
Q 1016 2553 972 2059 
L 3022 2063 
z
" transform="scale(0.015625)"/>
       <path id="DejaVuSans-73" d="M 2834 3397 
L 2834 2853 
Q 2591 2978 2328 3040 
Q 2066 3103 1784 3103 
Q 1356 3103 1142 2972 
Q 928 2841 928 2578 
Q 928 2378 1081 2264 
Q 1234 2150 1697 2047 
L 1894 2003 
Q 2506 1872 2764 1633 
Q 3022 1394 3022 966 
Q 3022 478 2636 193 
Q 2250 -91 1575 -91 
Q 1294 -91 989 -36 
Q 684 19 347 128 
L 347 722 
Q 666 556 975 473 
Q 1284 391 1588 391 
Q 1994 391 2212 530 
Q 2431 669 2431 922 
Q 2431 1156 2273 1281 
Q 2116 1406 1581 1522 
L 1381 1569 
Q 847 1681 609 1914 
Q 372 2147 372 2553 
Q 372 3047 722 3315 
Q 1072 3584 1716 3584 
Q 2034 3584 2315 3537 
Q 2597 3491 2834 3397 
z
" transform="scale(0.015625)"/>
       <path id="DejaVuSans-70" d="M 1159 525 
L 1159 -1331 
L 581 -1331 
L 581 3500 
L 1159 3500 
L 1159 2969 
Q 1341 3281 1617 3432 
Q 1894 3584 2278 3584 
Q 2916 3584 3314 3078 
Q 3713 2572 3713 1747 
Q 3713 922 3314 415 
Q 2916 -91 2278 -91 
Q 1894 -91 1617 61 
Q 1341 213 1159 525 
z
M 3116 1747 
Q 3116 2381 2855 2742 
Q 2594 3103 2138 3103 
Q 1681 3103 1420 2742 
Q 1159 2381 1159 1747 
Q 1159 1113 1420 752 
Q 1681 391 2138 391 
Q 2594 391 2855 752 
Q 3116 1113 3116 1747 
z
" transform="scale(0.015625)"/>
      </defs>
      <use xlink:href="#DejaVuSans-74"/>
      <use xlink:href="#DejaVuSans-69" x="39.208984"/>
      <use xlink:href="#DejaVuSans-6d" x="66.992188"/>
      <use xlink:href="#DejaVuSans-65" x="164.404297"/>
      <use xlink:href="#DejaVuSans-73" x="225.927734"/>
      <use xlink:href="#DejaVuSans-74" x="278.027344"/>
      <use xlink:href="#DejaVuSans-65" x="317.236328"/>
      <use xlink:href="#DejaVuSans-70" x="378.759766"/>
      <use xlink:href="#DejaVuSans-73" x="442.236328"/>
     </g>
    </g>
   </g>
   <g id="matplotlib.axis_2">
    <g id="ytick_1">
     <g id="line2d_10">
      <defs>
       <path id="m4bcff07811" d="M 0 0 
L -3.5 0 
" style="stroke: #000000; stroke-width: 0.8"/>
      </defs>
      <g>
       <use xlink:href="#m4bcff07811" x="43.78125" y="230.378531" style="stroke: #000000; stroke-width: 0.8"/>
      </g>
     </g>
     <g id="text_11">
      <!-- 3.5 -->
      <g transform="translate(20.878125 234.17775)scale(0.1 -0.1)">
       <defs>
        <path id="DejaVuSans-33" d="M 2597 2516 
Q 3050 2419 3304 2112 
Q 3559 1806 3559 1356 
Q 3559 666 3084 287 
Q 2609 -91 1734 -91 
Q 1441 -91 1130 -33 
Q 819 25 488 141 
L 488 750 
Q 750 597 1062 519 
Q 1375 441 1716 441 
Q 2309 441 2620 675 
Q 2931 909 2931 1356 
Q 2931 1769 2642 2001 
Q 2353 2234 1838 2234 
L 1294 2234 
L 1294 2753 
L 1863 2753 
Q 2328 2753 2575 2939 
Q 2822 3125 2822 3475 
Q 2822 3834 2567 4026 
Q 2313 4219 1838 4219 
Q 1578 4219 1281 4162 
Q 984 4106 628 3988 
L 628 4550 
Q 988 4650 1302 4700 
Q 1616 4750 1894 4750 
Q 2613 4750 3031 4423 
Q 3450 4097 3450 3541 
Q 3450 3153 3228 2886 
Q 3006 2619 2597 2516 
z
" transform="scale(0.015625)"/>
        <path id="DejaVuSans-2e" d="M 684 794 
L 1344 794 
L 1344 0 
L 684 0 
L 684 794 
z
" transform="scale(0.015625)"/>
       </defs>
       <use xlink:href="#DejaVuSans-33"/>
       <use xlink:href="#DejaVuSans-2e" x="63.623047"/>
       <use xlink:href="#DejaVuSans-35" x="95.410156"/>
      </g>
     </g>
    </g>
    <g id="ytick_2">
     <g id="line2d_11">
      <g>
       <use xlink:href="#m4bcff07811" x="43.78125" y="171.706553" style="stroke: #000000; stroke-width: 0.8"/>
      </g>
     </g>
     <g id="text_12">
      <!-- 4.0 -->
      <g transform="translate(20.878125 175.505772)scale(0.1 -0.1)">
       <use xlink:href="#DejaVuSans-34"/>
       <use xlink:href="#DejaVuSans-2e" x="63.623047"/>
       <use xlink:href="#DejaVuSans-30" x="95.410156"/>
      </g>
     </g>
    </g>
    <g id="ytick_3">
     <g id="line2d_12">
      <g>
       <use xlink:href="#m4bcff07811" x="43.78125" y="113.034575" style="stroke: #000000; stroke-width: 0.8"/>
      </g>
     </g>
     <g id="text_13">
      <!-- 4.5 -->
      <g transform="translate(20.878125 116.833794)scale(0.1 -0.1)">
       <use xlink:href="#DejaVuSans-34"/>
       <use xlink:href="#DejaVuSans-2e" x="63.623047"/>
       <use xlink:href="#DejaVuSans-35" x="95.410156"/>
      </g>
     </g>
    </g>
    <g id="ytick_4">
     <g id="line2d_13">
      <g>
       <use xlink:href="#m4bcff07811" x="43.78125" y="54.362597" style="stroke: #000000; stroke-width: 0.8"/>
      </g>
     </g>
     <g id="text_14">
      <!-- 5.0 -->
      <g transform="translate(20.878125 58.161816)scale(0.1 -0.1)">
       <use xlink:href="#DejaVuSans-35"/>
       <use xlink:href="#DejaVuSans-2e" x="63.623047"/>
       <use xlink:href="#DejaVuSans-30" x="95.410156"/>
      </g>
     </g>
    </g>
    <g id="text_15">
     <!-- storage -->
     <g transform="translate(14.798438 174.368656)rotate(-90)scale(0.1 -0.1)">
      <defs>
       <path id="DejaVuSans-6f" d="M 1959 3097 
Q 1497 3097 1228 2736 
Q 959 2375 959 1747 
Q 959 1119 1226 758 
Q 1494 397 1959 397 
Q 2419 397 2687 759 
Q 2956 1122 2956 1747 
Q 2956 2369 2687 2733 
Q 2419 3097 1959 3097 
z
M 1959 3584 
Q 2709 3584 3137 3096 
Q 3566 2609 3566 1747 
Q 3566 888 3137 398 
Q 2709 -91 1959 -91 
Q 1206 -91 779 398 
Q 353 888 353 1747 
Q 353 2609 779 3096 
Q 1206 3584 1959 3584 
z
" transform="scale(0.015625)"/>
       <path id="DejaVuSans-72" d="M 2631 2963 
Q 2534 3019 2420 3045 
Q 2306 3072 2169 3072 
Q 1681 3072 1420 2755 
Q 1159 2438 1159 1844 
L 1159 0 
L 581 0 
L 581 3500 
L 1159 3500 
L 1159 2956 
Q 1341 3275 1631 3429 
Q 1922 3584 2338 3584 
Q 2397 3584 2469 3576 
Q 2541 3569 2628 3553 
L 2631 2963 
z
" transform="scale(0.015625)"/>
       <path id="DejaVuSans-61" d="M 2194 1759 
Q 1497 1759 1228 1600 
Q 959 1441 959 1056 
Q 959 750 1161 570 
Q 1363 391 1709 391 
Q 2188 391 2477 730 
Q 2766 1069 2766 1631 
L 2766 1759 
L 2194 1759 
z
M 3341 1997 
L 3341 0 
L 2766 0 
L 2766 531 
Q 2569 213 2275 61 
Q 1981 -91 1556 -91 
Q 1019 -91 701 211 
Q 384 513 384 1019 
Q 384 1609 779 1909 
Q 1175 2209 1959 2209 
L 2766 2209 
L 2766 2266 
Q 2766 2663 2505 2880 
Q 2244 3097 1772 3097 
Q 1472 3097 1187 3025 
Q 903 2953 641 2809 
L 641 3341 
Q 956 3463 1253 3523 
Q 1550 3584 1831 3584 
Q 2591 3584 2966 3190 
Q 3341 2797 3341 1997 
z
" transform="scale(0.015625)"/>
       <path id="DejaVuSans-67" d="M 2906 1791 
Q 2906 2416 2648 2759 
Q 2391 3103 1925 3103 
Q 1463 3103 1205 2759 
Q 947 2416 947 1791 
Q 947 1169 1205 825 
Q 1463 481 1925 481 
Q 2391 481 2648 825 
Q 2906 1169 2906 1791 
z
M 3481 434 
Q 3481 -459 3084 -895 
Q 2688 -1331 1869 -1331 
Q 1566 -1331 1297 -1286 
Q 1028 -1241 775 -1147 
L 775 -588 
Q 1028 -725 1275 -790 
Q 1522 -856 1778 -856 
Q 2344 -856 2625 -561 
Q 2906 -266 2906 331 
L 2906 616 
Q 2728 306 2450 153 
Q 2172 0 1784 0 
Q 1141 0 747 490 
Q 353 981 353 1791 
Q 353 2603 747 3093 
Q 1141 3584 1784 3584 
Q 2172 3584 2450 3431 
Q 2728 3278 2906 2969 
L 2906 3500 
L 3481 3500 
L 3481 434 
z
" transform="scale(0.015625)"/>
      </defs>
      <use xlink:href="#DejaVuSans-73"/>
      <use xlink:href="#DejaVuSans-74" x="52.099609"/>
      <use xlink:href="#DejaVuSans-6f" x="91.308594"/>
      <use xlink:href="#DejaVuSans-72" x="152.490234"/>
      <use xlink:href="#DejaVuSans-61" x="193.603516"/>
      <use xlink:href="#DejaVuSans-67" x="254.882812"/>
      <use xlink:href="#DejaVuSans-65" x="318.359375"/>
     </g>
    </g>
    <g id="text_16">
     <!-- 1e10 -->
     <g transform="translate(43.78125 19.318125)scale(0.1 -0.1)">
      <use xlink:href="#DejaVuSans-31"/>
      <use xlink:href="#DejaVuSans-65" x="63.623047"/>
      <use xlink:href="#DejaVuSans-31" x="125.146484"/>
      <use xlink:href="#DejaVuSans-30" x="188.769531"/>
     </g>
    </g>
   </g>
   <g id="line2d_14">
    <path d="M 60.013977 123.003032 
L 60.16223 123.250645 
L 60.217825 123.367596 
L 60.347546 123.512828 
L 60.384609 123.484905 
L 60.40314 123.580376 
L 60.421672 123.593273 
L 60.959087 124.113274 
L 61.10734 124.314062 
L 61.162935 124.33703 
L 61.366782 124.876416 
L 61.811539 125.387512 
L 61.904197 125.705351 
L 61.978324 125.690586 
L 62.033918 125.796444 
L 62.108044 125.925375 
L 62.163639 125.903351 
L 62.219234 126.028049 
L 62.348955 126.298247 
L 62.367486 126.288498 
L 62.441613 126.283857 
L 62.552802 126.517566 
L 62.589865 126.502053 
L 62.701055 126.573374 
L 63.108749 127.060337 
L 63.257002 127.319234 
L 63.386723 127.446513 
L 63.812949 127.857096 
L 63.94267 128.014583 
L 64.035328 128.180617 
L 64.202112 128.472533 
L 64.313301 128.647954 
L 64.517148 129.159542 
L 64.739527 129.57067 
L 64.924843 129.969943 
L 65.165753 130.418715 
L 65.314006 130.601105 
L 65.443727 130.902113 
L 65.610511 131.180104 
L 65.944079 131.62002 
L 66.166458 132.18722 
L 66.296179 132.412651 
L 66.462963 132.712615 
L 66.815063 133.112015 
L 67.037442 133.763404 
L 67.111568 133.901875 
L 68.594093 135.996429 
L 68.797941 136.48641 
L 68.872067 136.542551 
L 69.075914 137.040557 
L 69.15004 137.174826 
L 69.298293 137.369444 
L 69.372419 137.61488 
L 69.539203 137.917962 
L 69.743051 138.30754 
L 69.965429 138.909847 
L 70.076619 139.200156 
L 70.261935 139.579419 
L 70.502845 140.183849 
L 70.706692 140.680053 
L 71.614739 142.433743 
L 71.892713 143.29399 
L 72.152155 143.67625 
L 72.33747 144.062222 
L 72.430128 144.32416 
L 72.596912 144.662072 
L 72.874886 144.974827 
L 73.097265 145.594801 
L 73.171391 145.739078 
L 73.449364 146.635299 
L 73.708806 147.000512 
L 73.949717 147.708211 
L 74.22769 147.574604 
L 74.357411 147.952369 
L 74.394474 147.916905 
L 74.746574 147.783908 
L 74.857763 147.931377 
L 74.876295 147.920119 
L 74.913358 148.003952 
L 74.968953 147.990127 
L 75.321053 147.949736 
L 75.487837 148.498962 
L 75.5249 148.4749 
L 75.580495 148.570427 
L 75.76581 149.011238 
L 75.802873 149.096415 
L 75.839937 149.081324 
L 75.951126 149.216893 
L 75.969658 149.206268 
L 76.2291 149.225418 
L 76.303226 149.607304 
L 76.395884 149.5326 
L 76.432947 149.516923 
L 76.47001 149.611644 
L 76.544136 149.701362 
L 76.673857 150.034422 
L 76.71092 150.013619 
L 76.803578 150.079189 
L 77.007425 150.721277 
L 77.025957 150.713998 
L 77.044489 150.690987 
L 77.06302 150.786458 
L 77.322462 151.603691 
L 77.359525 151.697219 
L 77.526309 152.138534 
L 77.544841 152.125743 
L 77.563372 152.112564 
L 77.581904 152.208035 
L 77.600436 152.201114 
L 77.76722 152.524244 
L 78.026662 152.533471 
L 78.230509 153.05353 
L 78.323167 153.144062 
L 78.341698 153.239533 
L 78.434356 153.169821 
L 78.564077 153.114535 
L 78.730861 153.473004 
L 78.879114 153.540042 
L 79.027366 153.801677 
L 79.045898 153.781633 
L 79.06443 153.877104 
L 79.212682 154.068737 
L 79.268277 154.154435 
L 79.416529 154.614828 
L 79.453592 154.606403 
L 79.472124 154.59562 
L 79.490656 154.691091 
L 79.675971 155.264841 
L 79.694503 155.260713 
L 79.713034 155.242341 
L 79.731566 155.337813 
L 79.750098 155.329269 
L 79.916882 155.682316 
L 79.991008 155.650368 
L 80.009539 155.74584 
L 80.194855 155.804134 
L 80.324576 156.073906 
L 80.343108 156.067684 
L 80.361639 156.056778 
L 80.380171 156.152249 
L 80.398702 156.136062 
L 80.584018 156.526914 
L 80.639613 156.488802 
L 80.695208 156.566215 
L 80.806397 156.63779 
L 81.028776 157.298704 
L 81.065839 157.269123 
L 81.08437 157.364595 
L 81.214091 157.529262 
L 81.362344 157.57968 
L 81.492065 157.868801 
L 81.510597 157.857315 
L 81.54766 157.944809 
L 81.640318 157.921083 
L 81.770038 157.965054 
L 81.899759 158.058536 
L 82.214796 158.028481 
L 82.344517 158.218029 
L 82.363049 158.211464 
L 82.49277 158.164455 
L 82.511301 158.259926 
L 82.844869 158.270265 
L 83.067248 158.885702 
L 83.215501 158.891388 
L 83.400816 159.315112 
L 83.752916 159.310522 
L 83.771448 159.405993 
L 83.864106 159.377838 
L 83.9197 159.458675 
L 84.049421 159.634117 
L 84.160611 159.709443 
L 84.234737 159.881758 
L 84.290332 159.865362 
L 84.38299 159.92735 
L 84.568305 160.409221 
L 84.586837 160.405394 
L 84.642432 160.364622 
L 84.660963 160.460094 
L 84.772153 160.634042 
L 84.790684 160.627327 
L 84.809216 160.615793 
L 84.827747 160.711264 
L 84.957468 160.818023 
L 85.087189 160.908749 
L 85.198379 160.990444 
L 85.383694 161.050247 
L 85.531947 161.238445 
L 85.80992 161.297791 
L 85.958173 161.779925 
L 85.995236 161.767602 
L 86.328804 161.706988 
L 86.495588 162.012038 
L 86.662373 162.028766 
L 86.792093 162.301092 
L 86.810625 162.291729 
L 86.829157 162.268837 
L 86.847688 162.364309 
L 86.884751 162.337505 
L 87.014472 162.589093 
L 87.033004 162.573425 
L 87.051535 162.553939 
L 87.070067 162.64941 
L 87.10713 162.639819 
L 87.199788 162.723773 
L 87.21832 162.719789 
L 87.310977 162.765331 
L 87.45923 163.111263 
L 87.477762 163.095752 
L 87.496293 163.076422 
L 87.514825 163.171893 
L 87.551888 163.162614 
L 87.681609 163.438135 
L 87.70014 163.429085 
L 87.718672 163.406506 
L 87.737203 163.501977 
L 87.755735 163.4891 
L 87.848393 163.643737 
L 87.885456 163.631052 
L 88.219024 163.548234 
L 88.330214 163.692472 
L 88.348745 163.680483 
L 88.441403 163.586855 
L 88.496998 163.670321 
L 88.515529 163.765792 
L 88.608187 163.716394 
L 88.64525 163.691326 
L 88.663782 163.786797 
L 88.793503 163.922093 
L 89.034413 163.778094 
L 89.10854 163.933309 
L 89.164134 163.888861 
L 89.256792 163.935524 
L 89.386513 164.182717 
L 89.405045 164.178737 
L 89.497702 164.123288 
L 89.516234 164.218759 
L 89.534766 164.314231 
L 89.627423 164.245596 
L 89.70155 164.306491 
L 89.794208 164.459672 
L 89.831271 164.449793 
L 90.035118 164.418897 
L 90.05365 164.514368 
L 90.072181 164.60984 
L 90.164839 164.537445 
L 90.238965 164.494995 
L 90.257497 164.590466 
L 90.405749 164.606944 
L 90.498407 164.748986 
L 90.53547 164.733514 
L 90.869039 164.627492 
L 90.924633 164.802206 
L 90.99876 164.769193 
L 91.221138 164.746371 
L 91.443517 164.722075 
L 91.517643 164.8676 
L 91.573238 164.840818 
L 91.795617 164.841648 
L 91.888275 165.005402 
L 91.925338 164.976913 
L 92.129185 164.873393 
L 92.314501 164.732975 
L 92.351564 164.815689 
L 92.444222 164.95026 
L 92.481285 164.942827 
L 92.648069 164.964847 
L 92.666601 165.060318 
L 92.759258 165.005342 
L 92.851916 165.032289 
L 92.981637 165.405731 
L 93.0187 165.394989 
L 93.055764 165.480958 
L 93.222548 165.371438 
L 93.333737 165.494013 
L 93.352269 165.489873 
L 93.852621 165.434645 
L 93.982342 165.563284 
L 94.000874 165.548456 
L 94.019405 165.643927 
L 94.037937 165.628562 
L 94.056468 165.724034 
L 94.149126 165.675112 
L 94.352973 165.592132 
L 94.445631 165.543138 
L 94.482694 165.625758 
L 94.612415 165.77228 
L 94.742136 165.721526 
L 94.834794 165.893254 
L 94.871857 165.874333 
L 95.075705 165.866551 
L 95.186894 165.94581 
L 95.464867 165.798739 
L 95.705778 165.706483 
L 95.724309 165.801954 
L 95.816967 165.732494 
L 95.96522 165.638355 
L 96.002283 165.732886 
L 96.113472 165.818258 
L 96.372914 165.666111 
L 96.55823 165.604306 
L 96.780609 165.579523 
L 96.79914 165.674995 
L 96.891798 165.610354 
L 97.002988 165.697181 
L 97.021519 165.792652 
L 97.114177 165.722167 
L 97.15124 165.695968 
L 97.188303 165.785793 
L 97.280961 165.946263 
L 97.318024 165.918876 
L 97.410682 165.951874 
L 97.447745 166.044858 
L 97.521872 166.008967 
L 97.707187 166.029725 
L 97.725719 166.125196 
L 97.818377 166.084581 
L 97.929566 166.163464 
L 97.948098 166.258935 
L 98.040755 166.214573 
L 98.300197 166.201613 
L 98.429918 166.3424 
L 98.633766 166.215275 
L 98.670829 166.310653 
L 98.744955 166.404432 
L 98.874676 166.546046 
L 99.226776 166.409448 
L 99.245307 166.504919 
L 99.337965 166.437777 
L 99.449155 166.495766 
L 99.597407 166.422421 
L 99.63447 166.518156 
L 99.764191 166.7787 
L 99.782723 166.766926 
L 99.893912 166.724192 
L 100.023633 166.852939 
L 100.523986 167.193033 
L 100.653707 167.335313 
L 102.136232 167.948614 
L 102.692179 168.120996 
L 103.470505 168.414496 
L 103.859668 168.581101 
L 104.823309 168.9985 
L 104.990094 169.066523 
L 105.712825 169.368192 
L 105.879609 169.439327 
L 106.454087 169.671842 
L 106.694998 169.68328 
L 107.047098 169.786064 
L 107.176819 169.792905 
L 107.491855 169.8758 
L 107.621576 169.883905 
L 107.89955 169.932554 
L 108.529623 170.041771 
L 108.789065 170.083662 
L 109.419138 170.205189 
L 109.67858 170.252174 
L 110.753411 170.413786 
L 110.920195 170.406437 
L 111.142574 170.422839 
L 111.364953 170.456794 
L 111.587332 170.475425 
L 111.809711 170.511573 
L 112.03209 170.532443 
L 112.254468 170.570778 
L 112.476847 170.593877 
L 112.699226 170.634403 
L 112.921605 170.65974 
L 113.273705 170.805281 
L 113.366362 170.799787 
L 113.384894 170.832271 
L 113.736994 171.267035 
L 113.829652 171.383898 
L 114.181751 171.78326 
L 114.274409 171.920501 
L 114.626509 172.322634 
L 114.719167 172.460575 
L 115.071267 172.865386 
L 115.163925 173.004012 
L 115.516024 173.410915 
L 115.608682 173.549944 
L 115.960782 173.958448 
L 116.05344 174.094704 
L 116.387008 174.468765 
L 116.479666 174.526742 
L 116.831766 174.932595 
L 116.924424 174.990601 
L 117.23946 175.339034 
L 117.813939 175.902366 
L 118.128976 176.250789 
L 118.703454 176.814348 
L 119.018491 177.162897 
L 122.187389 179.425997 
L 122.261515 179.49844 
L 122.595084 179.734713 
L 122.743336 179.792943 
L 122.984246 179.941878 
L 123.354878 180.12627 
L 123.577257 180.200249 
L 123.818167 180.361232 
L 124.022014 180.437071 
L 124.262925 180.597715 
L 124.466772 180.673502 
L 124.707682 180.833997 
L 124.91153 180.909718 
L 125.15244 181.069976 
L 125.356287 181.145382 
L 125.726919 181.464053 
L 125.801045 181.466332 
L 125.819576 181.491777 
L 126.153145 181.786884 
L 126.301397 181.870358 
L 126.486713 181.987809 
L 126.69056 182.101214 
L 126.950002 182.305518 
L 127.691265 182.99065 
L 127.913644 183.13314 
L 128.136022 183.377746 
L 128.358401 183.520115 
L 128.673438 183.815947 
L 129.711206 184.611934 
L 129.822395 184.680124 
L 130.044774 184.874105 
L 130.248621 185.004221 
L 130.526595 185.246241 
L 131.06401 185.671047 
L 131.156668 185.740703 
L 131.379047 185.93421 
L 131.582894 186.063905 
L 131.805273 186.236613 
L 132.12031 186.371571 
L 132.305625 186.426653 
L 132.824509 186.621132 
L 132.95423 186.674354 
L 133.158077 186.753883 
L 133.361925 186.802603 
L 133.602835 186.930733 
L 133.806682 186.979199 
L 134.047593 187.106907 
L 134.25144 187.155008 
L 134.49235 187.282403 
L 134.696198 187.330235 
L 134.974171 187.500868 
L 135.530118 187.716853 
L 135.622776 187.764485 
L 135.826623 187.845965 
L 136.030471 187.896763 
L 136.271381 188.027245 
L 136.475228 188.077626 
L 136.716139 188.207626 
L 136.919986 188.257722 
L 137.160896 188.387398 
L 137.364743 188.43715 
L 137.605654 188.566424 
L 137.809501 188.615969 
L 138.050411 188.759706 
L 138.27279 188.785283 
L 138.550764 188.911078 
L 138.921395 189.024522 
L 139.143774 189.047442 
L 139.384684 189.153703 
L 139.588532 189.183838 
L 139.829442 189.289651 
L 140.033289 189.31951 
L 140.2742 189.42493 
L 140.478047 189.454369 
L 140.718957 189.581909 
L 140.922805 189.631656 
L 141.182247 189.780128 
L 141.478752 189.931215 
L 141.719662 189.989852 
L 141.886446 190.066016 
L 142.05323 190.092779 
L 142.257077 190.134776 
L 142.497988 190.253605 
L 142.701835 190.295261 
L 142.942746 190.41368 
L 143.146593 190.45497 
L 143.387503 190.572955 
L 143.59135 190.613862 
L 143.832261 190.731404 
L 144.036108 190.771923 
L 144.29555 190.909671 
L 144.573524 191.031934 
L 144.740308 191.064964 
L 145.018281 191.194198 
L 145.166534 191.193626 
L 145.370381 191.228728 
L 145.611291 191.338747 
L 145.815139 191.373429 
L 146.056049 191.482957 
L 146.259896 191.517214 
L 146.500807 191.626248 
L 146.704654 191.660078 
L 146.945564 191.768616 
L 147.149412 191.802017 
L 147.501511 192.044643 
L 147.649764 192.105074 
L 147.890674 192.242841 
L 148.261306 192.421829 
L 148.483684 192.488389 
L 148.835784 192.797048 
L 148.946974 192.834308 
L 149.150821 192.965633 
L 149.3732 193.031424 
L 149.61411 193.183585 
L 149.817957 193.252399 
L 150.058868 193.404154 
L 150.262715 193.472616 
L 150.596283 193.734842 
L 151.671114 194.355864 
L 151.837898 194.416151 
L 152.041746 194.499621 
L 152.282656 194.668304 
L 152.486503 194.751449 
L 152.727414 194.919761 
L 152.931261 195.002589 
L 153.172171 195.170522 
L 153.376018 195.253004 
L 153.728118 195.559618 
L 153.876371 195.638081 
L 154.135813 195.837962 
L 154.654697 196.14336 
L 154.728823 196.219022 
L 154.951202 196.401368 
L 155.155049 196.52027 
L 155.414491 196.733117 
L 156.989674 198.081731 
L 157.286179 198.427331 
L 157.434432 198.560607 
L 157.693874 198.826909 
L 158.194226 199.341917 
L 158.286884 199.435849 
L 158.564858 199.741595 
L 158.954021 200.15921 
L 159.176399 200.379111 
L 159.454373 200.684501 
L 159.880599 201.157137 
L 160.455078 201.685482 
L 160.60333 201.922146 
L 160.844241 202.10757 
L 160.973961 202.234317 
L 161.270467 202.540373 
L 161.492845 202.813279 
L 161.733756 202.998322 
L 161.863477 203.124873 
L 162.159982 203.430519 
L 162.382361 203.703104 
L 162.623271 203.887777 
L 162.752992 204.011199 
L 163.068029 204.397838 
L 163.216281 204.532052 
L 163.531318 204.888978 
L 163.623976 204.949383 
L 163.920481 205.289931 
L 164.420833 205.813701 
L 164.513491 205.909009 
L 164.809996 206.249238 
L 165.310348 206.772446 
L 165.403006 206.867647 
L 165.699511 207.207528 
L 166.62609 208.290308 
L 166.774342 208.416675 
L 167.033784 208.67015 
L 167.534137 209.159454 
L 167.626795 209.247854 
L 167.9233 209.56718 
L 168.442184 210.066446 
L 168.51631 210.162093 
L 168.812815 210.49313 
L 169.757925 211.586848 
L 169.850583 211.654803 
L 170.165619 212.038387 
L 170.740098 212.664645 
L 171.055135 213.047549 
L 171.629613 213.672534 
L 171.94465 214.054675 
L 172.259687 214.459936 
L 173.297454 215.725369 
L 173.445707 215.913741 
L 173.742212 216.273867 
L 173.890465 216.462108 
L 174.18697 216.821981 
L 174.335222 217.010089 
L 174.631727 217.369697 
L 174.77998 217.557671 
L 175.113548 217.999139 
L 175.206206 218.140256 
L 175.539774 218.575988 
L 175.632432 218.651145 
L 176.003063 219.114096 
L 176.095721 219.232082 
L 176.429289 219.624688 
L 176.521947 219.730422 
L 176.855516 220.151635 
L 176.985237 220.30141 
L 177.318805 220.693346 
L 177.411463 220.798893 
L 177.745031 221.219454 
L 177.874752 221.368967 
L 178.20832 221.760243 
L 178.300978 221.8656 
L 178.653078 222.27851 
L 178.745736 222.337035 
L 179.097835 222.749461 
L 179.190493 222.807875 
L 179.486998 223.137597 
L 179.987351 223.643376 
L 180.080008 223.734662 
L 180.728613 224.729994 
L 181.39575 225.816974 
L 182.099949 227.070297 
L 183.211843 228.956698 
L 183.823385 230.011083 
L 185.009406 232.059843 
L 185.602416 233.11326 
L 186.306615 234.32007 
L 186.881094 235.379067 
L 187.047878 235.629222 
L 187.863267 237.030385 
L 189.494045 239.538469 
L 190.031461 240.34501 
L 190.772723 241.449742 
L 191.347202 242.407726 
L 202.410548 258.708243 
L 202.985027 259.518879 
L 203.318595 260.061702 
L 205.060563 262.880189 
L 205.597978 263.737796 
L 206.320709 264.874468 
L 207.080503 266.092495 
L 208.766876 268.456077 
L 209.04485 268.623078 
L 209.322823 268.753891 
L 209.508139 268.877117 
L 209.804644 269.023843 
L 209.934365 269.119608 
L 210.23087 269.292328 
L 210.34206 269.344487 
L 210.675628 269.531264 
L 210.786817 269.60175 
L 211.120385 269.788167 
L 211.231575 269.85853 
L 211.565143 270.044597 
L 211.676332 270.114837 
L 212.009901 270.300533 
L 212.12109 270.37065 
L 212.454658 270.555951 
L 212.584379 270.634343 
L 212.899416 270.777526 
L 213.029137 270.822631 
L 213.344174 270.965333 
L 213.473895 271.012564 
L 213.714805 271.101209 
L 214.196626 271.304441 
L 214.845231 271.585291 
L 215.123204 271.666383 
L 215.252925 271.730203 
L 215.493836 271.820683 
L 216.902235 272.673259 
L 217.013424 272.750822 
L 217.346992 272.957815 
L 217.458182 273.035291 
L 217.79175 273.242011 
L 217.902939 273.319398 
L 218.236508 273.525755 
L 218.347697 273.603051 
L 218.681265 273.809007 
L 218.810986 273.899561 
L 219.126023 274.127612 
L 219.237212 274.190581 
L 219.570781 274.440959 
L 219.68197 274.508592 
L 220.015538 274.73971 
L 220.145259 274.845828 
L 220.460296 275.07187 
L 220.590017 275.1778 
L 220.905053 275.403373 
L 221.034774 275.509015 
L 221.312748 275.694938 
L 221.942821 276.110428 
L 222.239326 276.29934 
L 222.702616 276.044433 
L 222.980589 275.847007 
L 232.079589 268.265804 
L 233.339736 267.727211 
L 233.74743 267.546334 
L 234.711072 267.100087 
L 236.156534 265.775886 
L 236.712481 264.508158 
L 237.52787 262.622997 
L 238.213538 261.005797 
L 249.369542 233.803479 
L 250.073742 231.810313 
L 260.933241 198.45658 
L 261.50772 196.645809 
L 262.230451 194.359783 
L 262.656677 193.342346 
L 265.825575 187.039534 
L 270.402872 177.694026 
L 271.848335 174.740208 
L 275.980875 166.084143 
L 276.963048 165.234476 
L 277.593121 164.720469 
L 279.149773 163.312949 
L 280.206072 162.329216 
L 280.817614 161.751234 
L 282.874618 159.661101 
L 283.393502 159.12252 
L 283.764133 158.715517 
L 284.283017 158.161815 
L 284.43127 157.980377 
L 284.486864 158.035091 
L 285.524632 156.817723 
L 286.043516 156.21103 
L 287.637231 154.24565 
L 287.989331 153.868005 
L 289.230946 152.44552 
L 289.768361 151.984777 
L 290.083398 151.851648 
L 290.361372 151.603312 
L 290.565219 151.53475 
L 290.861724 151.344273 
L 291.028508 151.266381 
L 291.565923 150.9021 
L 292.047744 150.547465 
L 292.214528 150.464561 
L 292.325718 150.389494 
L 292.640754 150.158916 
L 292.770475 150.089487 
L 293.085512 149.858693 
L 293.215233 149.789155 
L 293.53027 149.558122 
L 293.659991 149.488496 
L 294.01209 149.231188 
L 294.141811 149.094268 
L 294.827479 148.321265 
L 294.975732 148.235384 
L 295.272237 147.846247 
L 295.42049 147.760191 
L 295.716995 147.370749 
L 295.865247 147.28452 
L 296.161752 146.894754 
L 296.310005 146.808348 
L 296.60651 146.418268 
L 296.754763 146.331687 
L 297.051268 145.941296 
L 297.273647 145.762198 
L 297.570152 145.463353 
L 297.699873 145.328325 
L 298.385541 144.552583 
L 298.533793 144.468055 
L 298.830298 144.082082 
L 298.978551 143.997378 
L 299.275056 143.611048 
L 299.423308 143.526169 
L 299.719814 143.139548 
L 299.868066 143.054493 
L 300.164571 142.66757 
L 300.38695 142.463127 
L 300.701987 142.129616 
L 300.942897 141.824915 
L 301.350592 141.335635 
L 301.832412 140.777284 
L 302.017728 140.61384 
L 302.128917 140.462304 
L 302.443954 140.105908 
L 302.573675 139.948239 
L 302.87018 139.602218 
L 302.999901 139.502232 
L 303.333469 139.174824 
L 303.481722 139.041425 
L 304.000606 138.521034 
L 304.389769 138.126751 
L 304.649211 137.886424 
L 304.778932 137.781718 
L 305.1125 137.44834 
L 305.223689 137.343186 
L 305.557258 137.009269 
L 305.668447 136.903937 
L 306.002015 136.569482 
L 306.113205 136.463972 
L 306.446773 136.121222 
L 306.595025 135.981975 
L 307.113909 135.444029 
L 307.503072 135.038528 
L 307.762514 134.789706 
L 307.892235 134.681105 
L 308.225803 134.336199 
L 308.336993 134.227814 
L 309.059724 133.232445 
L 309.207977 133.127967 
L 309.504482 132.672399 
L 309.72686 132.473162 
L 310.393997 131.700602 
L 310.523718 131.636442 
L 310.857286 131.199547 
L 311.005539 131.077892 
L 311.283512 130.716408 
L 311.61708 130.357711 
L 311.839459 130.183286 
L 312.061838 129.856783 
L 312.284217 129.680706 
L 312.506596 129.358786 
L 312.728974 129.186084 
L 314.322689 127.438774 
L 314.45241 127.373641 
L 314.5636 127.252033 
L 315.304862 126.430576 
L 315.434583 126.344332 
L 315.74962 125.972786 
L 315.897873 125.881338 
L 316.249972 125.541993 
L 316.361162 125.449195 
L 316.69473 125.154774 
L 316.972704 124.864618 
L 317.120956 124.816552 
L 317.250677 124.684074 
L 317.565714 124.475879 
L 317.676903 124.376591 
L 318.269913 123.901132 
L 319.011176 123.402999 
L 319.196492 123.272805 
L 319.344744 123.215357 
L 319.492997 123.174628 
L 320.660486 122.749237 
L 320.790207 122.729873 
L 321.105243 122.616358 
L 321.234964 122.596823 
L 321.512938 122.464166 
L 321.679722 122.4632 
L 321.994759 122.343769 
L 322.161543 122.320997 
L 322.884274 122.040685 
L 323.013995 122.012026 
L 323.329032 121.881006 
L 323.458753 121.848128 
L 323.773789 121.718336 
L 323.90351 121.690995 
L 324.218547 121.557095 
L 324.348268 121.529573 
L 324.663304 121.397258 
L 324.793025 121.367552 
L 325.108062 121.235347 
L 325.293378 121.210983 
L 325.589883 121.130984 
L 325.738135 121.090354 
L 325.979046 120.982416 
L 326.14583 120.956898 
L 326.423803 120.855877 
L 326.590588 120.828446 
L 326.868561 120.726796 
L 327.035345 120.699423 
L 327.294787 120.587211 
L 327.498634 120.554271 
L 327.758076 120.464314 
L 327.924861 120.439661 
L 328.184302 120.325019 
L 328.406681 120.330102 
L 328.647592 120.229301 
L 328.832907 120.237204 
L 329.129412 120.151713 
L 329.259133 120.111512 
L 329.555639 120.031244 
L 329.703891 120.002652 
L 330.000396 119.923745 
L 330.148649 119.894739 
L 330.426622 119.80531 
L 330.593406 119.804796 
L 330.87138 119.745482 
L 331.075227 119.716349 
L 331.297606 119.665519 
L 331.538516 119.704409 
L 332.020337 119.689631 
L 332.335374 119.691614 
L 332.576284 119.581845 
L 339.673875 119.804271 
L 339.785064 119.851721 
L 339.97038 119.839491 
L 340.21129 119.837441 
L 340.396606 119.850101 
L 340.67458 119.844916 
L 340.859895 119.858118 
L 341.137869 119.803386 
L 341.304653 119.800151 
L 341.582626 119.751421 
L 341.712347 119.725819 
L 341.953258 119.633344 
L 342.157105 119.660284 
L 342.435079 119.595359 
L 342.601863 119.594178 
L 342.879836 119.532259 
L 343.083683 119.500928 
L 343.306062 119.45082 
L 343.491378 119.458268 
L 343.769351 119.3992 
L 343.99173 119.471401 
L 346.048734 119.857624 
L 346.196987 119.840277 
L 346.419366 119.864 
L 346.623213 119.922414 
L 346.864123 119.939541 
L 347.160628 120.06525 
L 348.253991 120.429394 
L 348.402244 120.448001 
L 348.643154 120.480361 
L 348.865533 120.545328 
L 349.050848 120.543625 
L 349.291759 120.654471 
L 349.514138 120.667373 
L 349.736516 120.757087 
L 349.977427 120.788768 
L 350.273932 120.815354 
L 350.774284 120.755372 
L 350.866942 120.708155 
L 350.904005 120.737235 
L 351.052258 120.730226 
L 351.3117 120.664334 
L 351.497015 120.684511 
L 351.756457 120.616632 
L 351.886178 120.694509 
L 351.923242 120.650119 
L 352.219747 120.587654 
L 352.405062 120.575011 
L 352.645973 120.524587 
L 352.831288 120.544031 
L 353.09073 120.476809 
L 353.350172 120.530451 
L 353.869056 120.562051 
L 354.017309 120.541893 
L 354.165561 120.553668 
L 354.425003 120.522886 
L 354.62885 120.555062 
L 354.869761 120.532328 
L 355.055077 120.576115 
L 355.314519 120.544669 
L 355.499834 120.586506 
L 355.759276 120.553001 
L 355.944592 120.592873 
L 356.222565 120.576502 
L 356.426413 120.612418 
L 356.704386 120.600875 
L 356.87117 120.608303 
L 357.130612 120.579958 
L 357.278865 120.584189 
L 357.556838 120.555139 
L 357.742154 120.574084 
L 357.983064 120.557129 
L 358.16838 120.607188 
L 358.427822 120.580236 
L 358.613138 120.626413 
L 358.854048 120.583465 
L 359.076427 120.635195 
L 359.317337 120.61733 
L 359.650905 120.717016 
L 359.799158 120.707343 
L 359.984474 120.762068 
L 360.225384 120.750443 
L 360.4107 120.783054 
L 360.65161 120.786913 
L 360.836926 120.846311 
L 361.114899 120.855908 
L 361.300215 120.888481 
L 361.541125 120.891466 
L 361.670846 120.990795 
L 361.726441 120.938376 
L 361.985883 120.883684 
L 362.171199 120.908199 
L 362.430641 120.853317 
L 362.671551 120.885638 
L 363.375751 120.853403 
L 363.524003 120.824026 
L 363.561066 120.799179 
L 363.59813 120.898812 
L 363.913166 120.929992 
L 364.172608 120.816507 
L 364.394987 120.868487 
L 364.654429 120.812669 
L 364.839745 120.836424 
L 365.099187 120.780418 
L 365.284502 120.804031 
L 365.543944 120.747787 
L 365.896044 120.929374 
L 365.914576 120.903165 
L 366.025765 120.934848 
L 366.340802 121.080832 
L 366.414928 121.042627 
L 366.470523 121.087529 
L 366.637307 121.105465 
L 366.878217 121.114213 
L 367.082064 121.163105 
L 367.322975 121.171704 
L 367.526822 121.220514 
L 367.767732 121.229054 
L 367.97158 121.277784 
L 368.21249 121.286221 
L 368.416337 121.334863 
L 368.657248 121.343181 
L 368.935221 121.404323 
L 369.305853 121.440119 
L 369.639421 121.471514 
L 369.75061 121.431292 
L 369.991521 121.416338 
L 370.195368 121.449115 
L 370.436278 121.43397 
L 370.640126 121.46661 
L 370.881036 121.451294 
L 371.066352 121.478468 
L 371.325794 121.433212 
L 371.511109 121.46024 
L 371.789083 121.427065 
L 372.011462 121.467804 
L 372.734193 121.51288 
L 372.863914 121.485292 
L 373.104824 121.468796 
L 373.308671 121.497167 
L 373.549582 121.480569 
L 373.753429 121.508815 
L 373.994339 121.492062 
L 374.198187 121.520172 
L 374.439097 121.503252 
L 374.642944 121.531221 
L 374.883855 121.514117 
L 375.124765 121.51416 
L 375.828965 121.387732 
L 375.958686 121.352345 
L 376.236659 121.273881 
L 376.421975 121.246171 
L 376.662885 121.169145 
L 376.848201 121.168512 
L 377.126174 121.089533 
L 377.31149 121.061471 
L 377.5524 120.983981 
L 377.737716 120.982961 
L 378.01569 120.902669 
L 378.238069 120.93872 
L 378.9608 120.968393 
L 379.090521 120.937885 
L 379.331431 120.915922 
L 379.535278 120.940181 
L 379.776189 120.918048 
L 379.980036 120.94219 
L 380.220946 120.919919 
L 380.424794 120.954834 
L 380.665704 121.003294 
L 380.888083 121.082258 
L 381.110462 121.13507 
L 381.369904 121.281496 
L 381.907319 121.498522 
L 381.981445 121.48001 
L 382.018508 121.518392 
L 382.240887 121.589672 
L 383.260124 121.955635 
L 383.352781 122.019357 
L 383.57516 122.090269 
L 384.594396 122.605804 
L 384.668523 122.98769 
L 384.668523 122.98769 
" clip-path="url(#p7a504d0c99)" style="fill: none; stroke: #1f77b4; stroke-width: 1.5; stroke-linecap: square"/>
   </g>
   <g id="line2d_15">
    <path clip-path="url(#p7a504d0c99)" style="fill: none; stroke: #000000; stroke-width: 1.5; stroke-linecap: square"/>
   </g>
   <g id="line2d_16">
    <path d="M 43.78125 34.414125 
L 400.90125 34.414125 
" clip-path="url(#p7a504d0c99)" style="fill: none; stroke: #ff0000; stroke-width: 1.5; stroke-linecap: square"/>
   </g>
   <g id="line2d_17">
    <path d="M 43.78125 64.747538 
L 400.90125 64.747538 
" clip-path="url(#p7a504d0c99)" style="fill: none; stroke-dasharray: 5.55,2.4; stroke-dashoffset: 0; stroke: #ff00ff; stroke-width: 1.5"/>
   </g>
   <g id="patch_3">
    <path d="M 43.78125 288.430125 
L 43.78125 22.318125 
" style="fill: none; stroke: #000000; stroke-width: 0.8; stroke-linejoin: miter; stroke-linecap: square"/>
   </g>
   <g id="patch_4">
    <path d="M 400.90125 288.430125 
L 400.90125 22.318125 
" style="fill: none; stroke: #000000; stroke-width: 0.8; stroke-linejoin: miter; stroke-linecap: square"/>
   </g>
   <g id="patch_5">
    <path d="M 43.78125 288.430125 
L 400.90125 288.430125 
" style="fill: none; stroke: #000000; stroke-width: 0.8; stroke-linejoin: miter; stroke-linecap: square"/>
   </g>
   <g id="patch_6">
    <path d="M 43.78125 22.318125 
L 400.90125 22.318125 
" style="fill: none; stroke: #000000; stroke-width: 0.8; stroke-linejoin: miter; stroke-linecap: square"/>
   </g>
   <g id="text_17">
    <!-- loc_techs_store = Moz-North-Center::storageD -->
    <g transform="translate(82.765313 16.318125)scale(0.12 -0.12)">
     <defs>
      <path id="DejaVuSans-6c" d="M 603 4863 
L 1178 4863 
L 1178 0 
L 603 0 
L 603 4863 
z
" transform="scale(0.015625)"/>
      <path id="DejaVuSans-63" d="M 3122 3366 
L 3122 2828 
Q 2878 2963 2633 3030 
Q 2388 3097 2138 3097 
Q 1578 3097 1268 2742 
Q 959 2388 959 1747 
Q 959 1106 1268 751 
Q 1578 397 2138 397 
Q 2388 397 2633 464 
Q 2878 531 3122 666 
L 3122 134 
Q 2881 22 2623 -34 
Q 2366 -91 2075 -91 
Q 1284 -91 818 406 
Q 353 903 353 1747 
Q 353 2603 823 3093 
Q 1294 3584 2113 3584 
Q 2378 3584 2631 3529 
Q 2884 3475 3122 3366 
z
" transform="scale(0.015625)"/>
      <path id="DejaVuSans-5f" d="M 3263 -1063 
L 3263 -1509 
L -63 -1509 
L -63 -1063 
L 3263 -1063 
z
" transform="scale(0.015625)"/>
      <path id="DejaVuSans-68" d="M 3513 2113 
L 3513 0 
L 2938 0 
L 2938 2094 
Q 2938 2591 2744 2837 
Q 2550 3084 2163 3084 
Q 1697 3084 1428 2787 
Q 1159 2491 1159 1978 
L 1159 0 
L 581 0 
L 581 4863 
L 1159 4863 
L 1159 2956 
Q 1366 3272 1645 3428 
Q 1925 3584 2291 3584 
Q 2894 3584 3203 3211 
Q 3513 2838 3513 2113 
z
" transform="scale(0.015625)"/>
      <path id="DejaVuSans-20" transform="scale(0.015625)"/>
      <path id="DejaVuSans-3d" d="M 678 2906 
L 4684 2906 
L 4684 2381 
L 678 2381 
L 678 2906 
z
M 678 1631 
L 4684 1631 
L 4684 1100 
L 678 1100 
L 678 1631 
z
" transform="scale(0.015625)"/>
      <path id="DejaVuSans-4d" d="M 628 4666 
L 1569 4666 
L 2759 1491 
L 3956 4666 
L 4897 4666 
L 4897 0 
L 4281 0 
L 4281 4097 
L 3078 897 
L 2444 897 
L 1241 4097 
L 1241 0 
L 628 0 
L 628 4666 
z
" transform="scale(0.015625)"/>
      <path id="DejaVuSans-7a" d="M 353 3500 
L 3084 3500 
L 3084 2975 
L 922 459 
L 3084 459 
L 3084 0 
L 275 0 
L 275 525 
L 2438 3041 
L 353 3041 
L 353 3500 
z
" transform="scale(0.015625)"/>
      <path id="DejaVuSans-4e" d="M 628 4666 
L 1478 4666 
L 3547 763 
L 3547 4666 
L 4159 4666 
L 4159 0 
L 3309 0 
L 1241 3903 
L 1241 0 
L 628 0 
L 628 4666 
z
" transform="scale(0.015625)"/>
      <path id="DejaVuSans-43" d="M 4122 4306 
L 4122 3641 
Q 3803 3938 3442 4084 
Q 3081 4231 2675 4231 
Q 1875 4231 1450 3742 
Q 1025 3253 1025 2328 
Q 1025 1406 1450 917 
Q 1875 428 2675 428 
Q 3081 428 3442 575 
Q 3803 722 4122 1019 
L 4122 359 
Q 3791 134 3420 21 
Q 3050 -91 2638 -91 
Q 1578 -91 968 557 
Q 359 1206 359 2328 
Q 359 3453 968 4101 
Q 1578 4750 2638 4750 
Q 3056 4750 3426 4639 
Q 3797 4528 4122 4306 
z
" transform="scale(0.015625)"/>
      <path id="DejaVuSans-6e" d="M 3513 2113 
L 3513 0 
L 2938 0 
L 2938 2094 
Q 2938 2591 2744 2837 
Q 2550 3084 2163 3084 
Q 1697 3084 1428 2787 
Q 1159 2491 1159 1978 
L 1159 0 
L 581 0 
L 581 3500 
L 1159 3500 
L 1159 2956 
Q 1366 3272 1645 3428 
Q 1925 3584 2291 3584 
Q 2894 3584 3203 3211 
Q 3513 2838 3513 2113 
z
" transform="scale(0.015625)"/>
      <path id="DejaVuSans-3a" d="M 750 794 
L 1409 794 
L 1409 0 
L 750 0 
L 750 794 
z
M 750 3309 
L 1409 3309 
L 1409 2516 
L 750 2516 
L 750 3309 
z
" transform="scale(0.015625)"/>
      <path id="DejaVuSans-44" d="M 1259 4147 
L 1259 519 
L 2022 519 
Q 2988 519 3436 956 
Q 3884 1394 3884 2338 
Q 3884 3275 3436 3711 
Q 2988 4147 2022 4147 
L 1259 4147 
z
M 628 4666 
L 1925 4666 
Q 3281 4666 3915 4102 
Q 4550 3538 4550 2338 
Q 4550 1131 3912 565 
Q 3275 0 1925 0 
L 628 0 
L 628 4666 
z
" transform="scale(0.015625)"/>
     </defs>
     <use xlink:href="#DejaVuSans-6c"/>
     <use xlink:href="#DejaVuSans-6f" x="27.783203"/>
     <use xlink:href="#DejaVuSans-63" x="88.964844"/>
     <use xlink:href="#DejaVuSans-5f" x="143.945312"/>
     <use xlink:href="#DejaVuSans-74" x="193.945312"/>
     <use xlink:href="#DejaVuSans-65" x="233.154297"/>
     <use xlink:href="#DejaVuSans-63" x="294.677734"/>
     <use xlink:href="#DejaVuSans-68" x="349.658203"/>
     <use xlink:href="#DejaVuSans-73" x="413.037109"/>
     <use xlink:href="#DejaVuSans-5f" x="465.136719"/>
     <use xlink:href="#DejaVuSans-73" x="515.136719"/>
     <use xlink:href="#DejaVuSans-74" x="567.236328"/>
     <use xlink:href="#DejaVuSans-6f" x="606.445312"/>
     <use xlink:href="#DejaVuSans-72" x="667.626953"/>
     <use xlink:href="#DejaVuSans-65" x="706.490234"/>
     <use xlink:href="#DejaVuSans-20" x="768.013672"/>
     <use xlink:href="#DejaVuSans-3d" x="799.800781"/>
     <use xlink:href="#DejaVuSans-20" x="883.589844"/>
     <use xlink:href="#DejaVuSans-4d" x="915.376953"/>
     <use xlink:href="#DejaVuSans-6f" x="1001.65625"/>
     <use xlink:href="#DejaVuSans-7a" x="1062.837891"/>
     <use xlink:href="#DejaVuSans-2d" x="1115.328125"/>
     <use xlink:href="#DejaVuSans-4e" x="1151.412109"/>
     <use xlink:href="#DejaVuSans-6f" x="1226.216797"/>
     <use xlink:href="#DejaVuSans-72" x="1287.398438"/>
     <use xlink:href="#DejaVuSans-74" x="1328.511719"/>
     <use xlink:href="#DejaVuSans-68" x="1367.720703"/>
     <use xlink:href="#DejaVuSans-2d" x="1431.099609"/>
     <use xlink:href="#DejaVuSans-43" x="1467.183594"/>
     <use xlink:href="#DejaVuSans-65" x="1537.007812"/>
     <use xlink:href="#DejaVuSans-6e" x="1598.53125"/>
     <use xlink:href="#DejaVuSans-74" x="1661.910156"/>
     <use xlink:href="#DejaVuSans-65" x="1701.119141"/>
     <use xlink:href="#DejaVuSans-72" x="1762.642578"/>
     <use xlink:href="#DejaVuSans-3a" x="1802.005859"/>
     <use xlink:href="#DejaVuSans-3a" x="1835.697266"/>
     <use xlink:href="#DejaVuSans-73" x="1869.388672"/>
     <use xlink:href="#DejaVuSans-74" x="1921.488281"/>
     <use xlink:href="#DejaVuSans-6f" x="1960.697266"/>
     <use xlink:href="#DejaVuSans-72" x="2021.878906"/>
     <use xlink:href="#DejaVuSans-61" x="2062.992188"/>
     <use xlink:href="#DejaVuSans-67" x="2124.271484"/>
     <use xlink:href="#DejaVuSans-65" x="2187.748047"/>
     <use xlink:href="#DejaVuSans-44" x="2249.271484"/>
    </g>
   </g>
   <g id="legend_1">
    <g id="patch_7">
     <path d="M 422.18605 89.865 
L 545.93605 89.865 
Q 547.93605 89.865 547.93605 87.865 
L 547.93605 29.318125 
Q 547.93605 27.318125 545.93605 27.318125 
L 422.18605 27.318125 
Q 420.18605 27.318125 420.18605 29.318125 
L 420.18605 87.865 
Q 420.18605 89.865 422.18605 89.865 
z
" style="fill: #ffffff; opacity: 0.8; stroke: #cccccc; stroke-linejoin: miter"/>
    </g>
    <g id="line2d_18">
     <path d="M 424.18605 35.416562 
L 434.18605 35.416562 
L 444.18605 35.416562 
" style="fill: none; stroke: #1f77b4; stroke-width: 1.5; stroke-linecap: square"/>
    </g>
    <g id="text_18">
     <!-- Storage -->
     <g transform="translate(452.18605 38.916562)scale(0.1 -0.1)">
      <defs>
       <path id="DejaVuSans-53" d="M 3425 4513 
L 3425 3897 
Q 3066 4069 2747 4153 
Q 2428 4238 2131 4238 
Q 1616 4238 1336 4038 
Q 1056 3838 1056 3469 
Q 1056 3159 1242 3001 
Q 1428 2844 1947 2747 
L 2328 2669 
Q 3034 2534 3370 2195 
Q 3706 1856 3706 1288 
Q 3706 609 3251 259 
Q 2797 -91 1919 -91 
Q 1588 -91 1214 -16 
Q 841 59 441 206 
L 441 856 
Q 825 641 1194 531 
Q 1563 422 1919 422 
Q 2459 422 2753 634 
Q 3047 847 3047 1241 
Q 3047 1584 2836 1778 
Q 2625 1972 2144 2069 
L 1759 2144 
Q 1053 2284 737 2584 
Q 422 2884 422 3419 
Q 422 4038 858 4394 
Q 1294 4750 2059 4750 
Q 2388 4750 2728 4690 
Q 3069 4631 3425 4513 
z
" transform="scale(0.015625)"/>
      </defs>
      <use xlink:href="#DejaVuSans-53"/>
      <use xlink:href="#DejaVuSans-74" x="63.476562"/>
      <use xlink:href="#DejaVuSans-6f" x="102.685547"/>
      <use xlink:href="#DejaVuSans-72" x="163.867188"/>
      <use xlink:href="#DejaVuSans-61" x="204.980469"/>
      <use xlink:href="#DejaVuSans-67" x="266.259766"/>
      <use xlink:href="#DejaVuSans-65" x="329.736328"/>
     </g>
    </g>
    <g id="line2d_19">
     <path d="M 424.18605 50.094687 
L 434.18605 50.094687 
L 444.18605 50.094687 
" style="fill: none; stroke: #000000; stroke-width: 1.5; stroke-linecap: square"/>
    </g>
    <g id="text_19">
     <!-- Storage_cap_max -->
     <g transform="translate(452.18605 53.594687)scale(0.1 -0.1)">
      <defs>
       <path id="DejaVuSans-78" d="M 3513 3500 
L 2247 1797 
L 3578 0 
L 2900 0 
L 1881 1375 
L 863 0 
L 184 0 
L 1544 1831 
L 300 3500 
L 978 3500 
L 1906 2253 
L 2834 3500 
L 3513 3500 
z
" transform="scale(0.015625)"/>
      </defs>
      <use xlink:href="#DejaVuSans-53"/>
      <use xlink:href="#DejaVuSans-74" x="63.476562"/>
      <use xlink:href="#DejaVuSans-6f" x="102.685547"/>
      <use xlink:href="#DejaVuSans-72" x="163.867188"/>
      <use xlink:href="#DejaVuSans-61" x="204.980469"/>
      <use xlink:href="#DejaVuSans-67" x="266.259766"/>
      <use xlink:href="#DejaVuSans-65" x="329.736328"/>
      <use xlink:href="#DejaVuSans-5f" x="391.259766"/>
      <use xlink:href="#DejaVuSans-63" x="441.259766"/>
      <use xlink:href="#DejaVuSans-61" x="496.240234"/>
      <use xlink:href="#DejaVuSans-70" x="557.519531"/>
      <use xlink:href="#DejaVuSans-5f" x="620.996094"/>
      <use xlink:href="#DejaVuSans-6d" x="670.996094"/>
      <use xlink:href="#DejaVuSans-61" x="768.408203"/>
      <use xlink:href="#DejaVuSans-78" x="829.6875"/>
     </g>
    </g>
    <g id="line2d_20">
     <path d="M 424.18605 65.050937 
L 434.18605 65.050937 
L 444.18605 65.050937 
" style="fill: none; stroke: #ff0000; stroke-width: 1.5; stroke-linecap: square"/>
    </g>
    <g id="text_20">
     <!-- Storage_cap -->
     <g transform="translate(452.18605 68.550937)scale(0.1 -0.1)">
      <use xlink:href="#DejaVuSans-53"/>
      <use xlink:href="#DejaVuSans-74" x="63.476562"/>
      <use xlink:href="#DejaVuSans-6f" x="102.685547"/>
      <use xlink:href="#DejaVuSans-72" x="163.867188"/>
      <use xlink:href="#DejaVuSans-61" x="204.980469"/>
      <use xlink:href="#DejaVuSans-67" x="266.259766"/>
      <use xlink:href="#DejaVuSans-65" x="329.736328"/>
      <use xlink:href="#DejaVuSans-5f" x="391.259766"/>
      <use xlink:href="#DejaVuSans-63" x="441.259766"/>
      <use xlink:href="#DejaVuSans-61" x="496.240234"/>
      <use xlink:href="#DejaVuSans-70" x="557.519531"/>
     </g>
    </g>
    <g id="line2d_21">
     <path d="M 424.18605 80.007187 
L 434.18605 80.007187 
L 444.18605 80.007187 
" style="fill: none; stroke-dasharray: 5.55,2.4; stroke-dashoffset: 0; stroke: #ff00ff; stroke-width: 1.5"/>
    </g>
    <g id="text_21">
     <!-- Spillage_threshold -->
     <g transform="translate(452.18605 83.507187)scale(0.1 -0.1)">
      <defs>
       <path id="DejaVuSans-64" d="M 2906 2969 
L 2906 4863 
L 3481 4863 
L 3481 0 
L 2906 0 
L 2906 525 
Q 2725 213 2448 61 
Q 2172 -91 1784 -91 
Q 1150 -91 751 415 
Q 353 922 353 1747 
Q 353 2572 751 3078 
Q 1150 3584 1784 3584 
Q 2172 3584 2448 3432 
Q 2725 3281 2906 2969 
z
M 947 1747 
Q 947 1113 1208 752 
Q 1469 391 1925 391 
Q 2381 391 2643 752 
Q 2906 1113 2906 1747 
Q 2906 2381 2643 2742 
Q 2381 3103 1925 3103 
Q 1469 3103 1208 2742 
Q 947 2381 947 1747 
z
" transform="scale(0.015625)"/>
      </defs>
      <use xlink:href="#DejaVuSans-53"/>
      <use xlink:href="#DejaVuSans-70" x="63.476562"/>
      <use xlink:href="#DejaVuSans-69" x="126.953125"/>
      <use xlink:href="#DejaVuSans-6c" x="154.736328"/>
      <use xlink:href="#DejaVuSans-6c" x="182.519531"/>
      <use xlink:href="#DejaVuSans-61" x="210.302734"/>
      <use xlink:href="#DejaVuSans-67" x="271.582031"/>
      <use xlink:href="#DejaVuSans-65" x="335.058594"/>
      <use xlink:href="#DejaVuSans-5f" x="396.582031"/>
      <use xlink:href="#DejaVuSans-74" x="446.582031"/>
      <use xlink:href="#DejaVuSans-68" x="485.791016"/>
      <use xlink:href="#DejaVuSans-72" x="549.169922"/>
      <use xlink:href="#DejaVuSans-65" x="588.033203"/>
      <use xlink:href="#DejaVuSans-73" x="649.556641"/>
      <use xlink:href="#DejaVuSans-68" x="701.65625"/>
      <use xlink:href="#DejaVuSans-6f" x="765.035156"/>
      <use xlink:href="#DejaVuSans-6c" x="826.216797"/>
      <use xlink:href="#DejaVuSans-64" x="854"/>
     </g>
    </g>
   </g>
  </g>
 </g>
 <defs>
  <clipPath id="p7a504d0c99">
   <rect x="43.78125" y="22.318125" width="357.12" height="266.112"/>
  </clipPath>
 </defs>
</svg>
