<?xml version="1.0" encoding="utf-8" standalone="no"?>
<!DOCTYPE svg PUBLIC "-//W3C//DTD SVG 1.1//EN"
  "http://www.w3.org/Graphics/SVG/1.1/DTD/svg11.dtd">
<svg xmlns:xlink="http://www.w3.org/1999/xlink" width="561.49855pt" height="345.581158pt" viewBox="0 0 561.49855 345.581158" xmlns="http://www.w3.org/2000/svg" version="1.1">
 <metadata>
  <rdf:RDF xmlns:dc="http://purl.org/dc/elements/1.1/" xmlns:cc="http://creativecommons.org/ns#" xmlns:rdf="http://www.w3.org/1999/02/22-rdf-syntax-ns#">
   <cc:Work>
    <dc:type rdf:resource="http://purl.org/dc/dcmitype/StillImage"/>
    <dc:date>2022-05-09T18:09:07.899986</dc:date>
    <dc:format>image/svg+xml</dc:format>
    <dc:creator>
     <cc:Agent>
      <dc:title>Matplotlib v3.5.1, https://matplotlib.org/</dc:title>
     </cc:Agent>
    </dc:creator>
   </cc:Work>
  </rdf:RDF>
 </metadata>
 <defs>
  <style type="text/css">*{stroke-linejoin: round; stroke-linecap: butt}</style>
 </defs>
 <g id="figure_1">
  <g id="patch_1">
   <path d="M 0 345.581158 
L 561.49855 345.581158 
L 561.49855 0 
L 0 0 
z
" style="fill: #ffffff"/>
  </g>
  <g id="axes_1">
   <g id="patch_2">
    <path d="M 50.14375 288.430125 
L 407.26375 288.430125 
L 407.26375 22.318125 
L 50.14375 22.318125 
z
" style="fill: #ffffff"/>
   </g>
   <g id="matplotlib.axis_1">
    <g id="xtick_1">
     <g id="line2d_1">
      <defs>
       <path id="md0308909ff" d="M 0 0 
L 0 3.5 
" style="stroke: #000000; stroke-width: 0.8"/>
      </defs>
      <g>
       <use xlink:href="#md0308909ff" x="66.376477" y="288.430125" style="stroke: #000000; stroke-width: 0.8"/>
      </g>
     </g>
     <g id="text_1">
      <!-- 2005-01 -->
      <g transform="translate(29.151656 322.901971)rotate(-30)scale(0.1 -0.1)">
       <defs>
        <path id="DejaVuSans-32" d="M 1228 531 
L 3431 531 
L 3431 0 
L 469 0 
L 469 531 
Q 828 903 1448 1529 
Q 2069 2156 2228 2338 
Q 2531 2678 2651 2914 
Q 2772 3150 2772 3378 
Q 2772 3750 2511 3984 
Q 2250 4219 1831 4219 
Q 1534 4219 1204 4116 
Q 875 4013 500 3803 
L 500 4441 
Q 881 4594 1212 4672 
Q 1544 4750 1819 4750 
Q 2544 4750 2975 4387 
Q 3406 4025 3406 3419 
Q 3406 3131 3298 2873 
Q 3191 2616 2906 2266 
Q 2828 2175 2409 1742 
Q 1991 1309 1228 531 
z
" transform="scale(0.015625)"/>
        <path id="DejaVuSans-30" d="M 2034 4250 
Q 1547 4250 1301 3770 
Q 1056 3291 1056 2328 
Q 1056 1369 1301 889 
Q 1547 409 2034 409 
Q 2525 409 2770 889 
Q 3016 1369 3016 2328 
Q 3016 3291 2770 3770 
Q 2525 4250 2034 4250 
z
M 2034 4750 
Q 2819 4750 3233 4129 
Q 3647 3509 3647 2328 
Q 3647 1150 3233 529 
Q 2819 -91 2034 -91 
Q 1250 -91 836 529 
Q 422 1150 422 2328 
Q 422 3509 836 4129 
Q 1250 4750 2034 4750 
z
" transform="scale(0.015625)"/>
        <path id="DejaVuSans-35" d="M 691 4666 
L 3169 4666 
L 3169 4134 
L 1269 4134 
L 1269 2991 
Q 1406 3038 1543 3061 
Q 1681 3084 1819 3084 
Q 2600 3084 3056 2656 
Q 3513 2228 3513 1497 
Q 3513 744 3044 326 
Q 2575 -91 1722 -91 
Q 1428 -91 1123 -41 
Q 819 9 494 109 
L 494 744 
Q 775 591 1075 516 
Q 1375 441 1709 441 
Q 2250 441 2565 725 
Q 2881 1009 2881 1497 
Q 2881 1984 2565 2268 
Q 2250 2553 1709 2553 
Q 1456 2553 1204 2497 
Q 953 2441 691 2322 
L 691 4666 
z
" transform="scale(0.015625)"/>
        <path id="DejaVuSans-2d" d="M 313 2009 
L 1997 2009 
L 1997 1497 
L 313 1497 
L 313 2009 
z
" transform="scale(0.015625)"/>
        <path id="DejaVuSans-31" d="M 794 531 
L 1825 531 
L 1825 4091 
L 703 3866 
L 703 4441 
L 1819 4666 
L 2450 4666 
L 2450 531 
L 3481 531 
L 3481 0 
L 794 0 
L 794 531 
z
" transform="scale(0.015625)"/>
       </defs>
       <use xlink:href="#DejaVuSans-32"/>
       <use xlink:href="#DejaVuSans-30" x="63.623047"/>
       <use xlink:href="#DejaVuSans-30" x="127.246094"/>
       <use xlink:href="#DejaVuSans-35" x="190.869141"/>
       <use xlink:href="#DejaVuSans-2d" x="254.492188"/>
       <use xlink:href="#DejaVuSans-30" x="290.576172"/>
       <use xlink:href="#DejaVuSans-31" x="354.199219"/>
      </g>
     </g>
    </g>
    <g id="xtick_2">
     <g id="line2d_2">
      <g>
       <use xlink:href="#md0308909ff" x="106.404665" y="288.430125" style="stroke: #000000; stroke-width: 0.8"/>
      </g>
     </g>
     <g id="text_2">
      <!-- 2005-04 -->
      <g transform="translate(69.179844 322.901971)rotate(-30)scale(0.1 -0.1)">
       <defs>
        <path id="DejaVuSans-34" d="M 2419 4116 
L 825 1625 
L 2419 1625 
L 2419 4116 
z
M 2253 4666 
L 3047 4666 
L 3047 1625 
L 3713 1625 
L 3713 1100 
L 3047 1100 
L 3047 0 
L 2419 0 
L 2419 1100 
L 313 1100 
L 313 1709 
L 2253 4666 
z
" transform="scale(0.015625)"/>
       </defs>
       <use xlink:href="#DejaVuSans-32"/>
       <use xlink:href="#DejaVuSans-30" x="63.623047"/>
       <use xlink:href="#DejaVuSans-30" x="127.246094"/>
       <use xlink:href="#DejaVuSans-35" x="190.869141"/>
       <use xlink:href="#DejaVuSans-2d" x="254.492188"/>
       <use xlink:href="#DejaVuSans-30" x="290.576172"/>
       <use xlink:href="#DejaVuSans-34" x="354.199219"/>
      </g>
     </g>
    </g>
    <g id="xtick_3">
     <g id="line2d_3">
      <g>
       <use xlink:href="#md0308909ff" x="146.87761" y="288.430125" style="stroke: #000000; stroke-width: 0.8"/>
      </g>
     </g>
     <g id="text_3">
      <!-- 2005-07 -->
      <g transform="translate(109.652789 322.901971)rotate(-30)scale(0.1 -0.1)">
       <defs>
        <path id="DejaVuSans-37" d="M 525 4666 
L 3525 4666 
L 3525 4397 
L 1831 0 
L 1172 0 
L 2766 4134 
L 525 4134 
L 525 4666 
z
" transform="scale(0.015625)"/>
       </defs>
       <use xlink:href="#DejaVuSans-32"/>
       <use xlink:href="#DejaVuSans-30" x="63.623047"/>
       <use xlink:href="#DejaVuSans-30" x="127.246094"/>
       <use xlink:href="#DejaVuSans-35" x="190.869141"/>
       <use xlink:href="#DejaVuSans-2d" x="254.492188"/>
       <use xlink:href="#DejaVuSans-30" x="290.576172"/>
       <use xlink:href="#DejaVuSans-37" x="354.199219"/>
      </g>
     </g>
    </g>
    <g id="xtick_4">
     <g id="line2d_4">
      <g>
       <use xlink:href="#md0308909ff" x="187.795313" y="288.430125" style="stroke: #000000; stroke-width: 0.8"/>
      </g>
     </g>
     <g id="text_4">
      <!-- 2005-10 -->
      <g transform="translate(150.570492 322.901971)rotate(-30)scale(0.1 -0.1)">
       <use xlink:href="#DejaVuSans-32"/>
       <use xlink:href="#DejaVuSans-30" x="63.623047"/>
       <use xlink:href="#DejaVuSans-30" x="127.246094"/>
       <use xlink:href="#DejaVuSans-35" x="190.869141"/>
       <use xlink:href="#DejaVuSans-2d" x="254.492188"/>
       <use xlink:href="#DejaVuSans-31" x="290.576172"/>
       <use xlink:href="#DejaVuSans-30" x="354.199219"/>
      </g>
     </g>
    </g>
    <g id="xtick_5">
     <g id="line2d_5">
      <g>
       <use xlink:href="#md0308909ff" x="228.713016" y="288.430125" style="stroke: #000000; stroke-width: 0.8"/>
      </g>
     </g>
     <g id="text_5">
      <!-- 2006-01 -->
      <g transform="translate(191.488195 322.901971)rotate(-30)scale(0.1 -0.1)">
       <defs>
        <path id="DejaVuSans-36" d="M 2113 2584 
Q 1688 2584 1439 2293 
Q 1191 2003 1191 1497 
Q 1191 994 1439 701 
Q 1688 409 2113 409 
Q 2538 409 2786 701 
Q 3034 994 3034 1497 
Q 3034 2003 2786 2293 
Q 2538 2584 2113 2584 
z
M 3366 4563 
L 3366 3988 
Q 3128 4100 2886 4159 
Q 2644 4219 2406 4219 
Q 1781 4219 1451 3797 
Q 1122 3375 1075 2522 
Q 1259 2794 1537 2939 
Q 1816 3084 2150 3084 
Q 2853 3084 3261 2657 
Q 3669 2231 3669 1497 
Q 3669 778 3244 343 
Q 2819 -91 2113 -91 
Q 1303 -91 875 529 
Q 447 1150 447 2328 
Q 447 3434 972 4092 
Q 1497 4750 2381 4750 
Q 2619 4750 2861 4703 
Q 3103 4656 3366 4563 
z
" transform="scale(0.015625)"/>
       </defs>
       <use xlink:href="#DejaVuSans-32"/>
       <use xlink:href="#DejaVuSans-30" x="63.623047"/>
       <use xlink:href="#DejaVuSans-30" x="127.246094"/>
       <use xlink:href="#DejaVuSans-36" x="190.869141"/>
       <use xlink:href="#DejaVuSans-2d" x="254.492188"/>
       <use xlink:href="#DejaVuSans-30" x="290.576172"/>
       <use xlink:href="#DejaVuSans-31" x="354.199219"/>
      </g>
     </g>
    </g>
    <g id="xtick_6">
     <g id="line2d_6">
      <g>
       <use xlink:href="#md0308909ff" x="268.741203" y="288.430125" style="stroke: #000000; stroke-width: 0.8"/>
      </g>
     </g>
     <g id="text_6">
      <!-- 2006-04 -->
      <g transform="translate(231.516383 322.901971)rotate(-30)scale(0.1 -0.1)">
       <use xlink:href="#DejaVuSans-32"/>
       <use xlink:href="#DejaVuSans-30" x="63.623047"/>
       <use xlink:href="#DejaVuSans-30" x="127.246094"/>
       <use xlink:href="#DejaVuSans-36" x="190.869141"/>
       <use xlink:href="#DejaVuSans-2d" x="254.492188"/>
       <use xlink:href="#DejaVuSans-30" x="290.576172"/>
       <use xlink:href="#DejaVuSans-34" x="354.199219"/>
      </g>
     </g>
    </g>
    <g id="xtick_7">
     <g id="line2d_7">
      <g>
       <use xlink:href="#md0308909ff" x="309.214149" y="288.430125" style="stroke: #000000; stroke-width: 0.8"/>
      </g>
     </g>
     <g id="text_7">
      <!-- 2006-07 -->
      <g transform="translate(271.989328 322.901971)rotate(-30)scale(0.1 -0.1)">
       <use xlink:href="#DejaVuSans-32"/>
       <use xlink:href="#DejaVuSans-30" x="63.623047"/>
       <use xlink:href="#DejaVuSans-30" x="127.246094"/>
       <use xlink:href="#DejaVuSans-36" x="190.869141"/>
       <use xlink:href="#DejaVuSans-2d" x="254.492188"/>
       <use xlink:href="#DejaVuSans-30" x="290.576172"/>
       <use xlink:href="#DejaVuSans-37" x="354.199219"/>
      </g>
     </g>
    </g>
    <g id="xtick_8">
     <g id="line2d_8">
      <g>
       <use xlink:href="#md0308909ff" x="350.131851" y="288.430125" style="stroke: #000000; stroke-width: 0.8"/>
      </g>
     </g>
     <g id="text_8">
      <!-- 2006-10 -->
      <g transform="translate(312.907031 322.901971)rotate(-30)scale(0.1 -0.1)">
       <use xlink:href="#DejaVuSans-32"/>
       <use xlink:href="#DejaVuSans-30" x="63.623047"/>
       <use xlink:href="#DejaVuSans-30" x="127.246094"/>
       <use xlink:href="#DejaVuSans-36" x="190.869141"/>
       <use xlink:href="#DejaVuSans-2d" x="254.492188"/>
       <use xlink:href="#DejaVuSans-31" x="290.576172"/>
       <use xlink:href="#DejaVuSans-30" x="354.199219"/>
      </g>
     </g>
    </g>
    <g id="xtick_9">
     <g id="line2d_9">
      <g>
       <use xlink:href="#md0308909ff" x="391.049554" y="288.430125" style="stroke: #000000; stroke-width: 0.8"/>
      </g>
     </g>
     <g id="text_9">
      <!-- 2007-01 -->
      <g transform="translate(353.824733 322.901971)rotate(-30)scale(0.1 -0.1)">
       <use xlink:href="#DejaVuSans-32"/>
       <use xlink:href="#DejaVuSans-30" x="63.623047"/>
       <use xlink:href="#DejaVuSans-30" x="127.246094"/>
       <use xlink:href="#DejaVuSans-37" x="190.869141"/>
       <use xlink:href="#DejaVuSans-2d" x="254.492188"/>
       <use xlink:href="#DejaVuSans-30" x="290.576172"/>
       <use xlink:href="#DejaVuSans-31" x="354.199219"/>
      </g>
     </g>
    </g>
    <g id="text_10">
     <!-- timesteps -->
     <g transform="translate(203.987344 336.301471)scale(0.1 -0.1)">
      <defs>
       <path id="DejaVuSans-74" d="M 1172 4494 
L 1172 3500 
L 2356 3500 
L 2356 3053 
L 1172 3053 
L 1172 1153 
Q 1172 725 1289 603 
Q 1406 481 1766 481 
L 2356 481 
L 2356 0 
L 1766 0 
Q 1100 0 847 248 
Q 594 497 594 1153 
L 594 3053 
L 172 3053 
L 172 3500 
L 594 3500 
L 594 4494 
L 1172 4494 
z
" transform="scale(0.015625)"/>
       <path id="DejaVuSans-69" d="M 603 3500 
L 1178 3500 
L 1178 0 
L 603 0 
L 603 3500 
z
M 603 4863 
L 1178 4863 
L 1178 4134 
L 603 4134 
L 603 4863 
z
" transform="scale(0.015625)"/>
       <path id="DejaVuSans-6d" d="M 3328 2828 
Q 3544 3216 3844 3400 
Q 4144 3584 4550 3584 
Q 5097 3584 5394 3201 
Q 5691 2819 5691 2113 
L 5691 0 
L 5113 0 
L 5113 2094 
Q 5113 2597 4934 2840 
Q 4756 3084 4391 3084 
Q 3944 3084 3684 2787 
Q 3425 2491 3425 1978 
L 3425 0 
L 2847 0 
L 2847 2094 
Q 2847 2600 2669 2842 
Q 2491 3084 2119 3084 
Q 1678 3084 1418 2786 
Q 1159 2488 1159 1978 
L 1159 0 
L 581 0 
L 581 3500 
L 1159 3500 
L 1159 2956 
Q 1356 3278 1631 3431 
Q 1906 3584 2284 3584 
Q 2666 3584 2933 3390 
Q 3200 3197 3328 2828 
z
" transform="scale(0.015625)"/>
       <path id="DejaVuSans-65" d="M 3597 1894 
L 3597 1613 
L 953 1613 
Q 991 1019 1311 708 
Q 1631 397 2203 397 
Q 2534 397 2845 478 
Q 3156 559 3463 722 
L 3463 178 
Q 3153 47 2828 -22 
Q 2503 -91 2169 -91 
Q 1331 -91 842 396 
Q 353 884 353 1716 
Q 353 2575 817 3079 
Q 1281 3584 2069 3584 
Q 2775 3584 3186 3129 
Q 3597 2675 3597 1894 
z
M 3022 2063 
Q 3016 2534 2758 2815 
Q 2500 3097 2075 3097 
Q 1594 3097 1305 2825 
Q 1016 2553 972 2059 
L 3022 2063 
z
" transform="scale(0.015625)"/>
       <path id="DejaVuSans-73" d="M 2834 3397 
L 2834 2853 
Q 2591 2978 2328 3040 
Q 2066 3103 1784 3103 
Q 1356 3103 1142 2972 
Q 928 2841 928 2578 
Q 928 2378 1081 2264 
Q 1234 2150 1697 2047 
L 1894 2003 
Q 2506 1872 2764 1633 
Q 3022 1394 3022 966 
Q 3022 478 2636 193 
Q 2250 -91 1575 -91 
Q 1294 -91 989 -36 
Q 684 19 347 128 
L 347 722 
Q 666 556 975 473 
Q 1284 391 1588 391 
Q 1994 391 2212 530 
Q 2431 669 2431 922 
Q 2431 1156 2273 1281 
Q 2116 1406 1581 1522 
L 1381 1569 
Q 847 1681 609 1914 
Q 372 2147 372 2553 
Q 372 3047 722 3315 
Q 1072 3584 1716 3584 
Q 2034 3584 2315 3537 
Q 2597 3491 2834 3397 
z
" transform="scale(0.015625)"/>
       <path id="DejaVuSans-70" d="M 1159 525 
L 1159 -1331 
L 581 -1331 
L 581 3500 
L 1159 3500 
L 1159 2969 
Q 1341 3281 1617 3432 
Q 1894 3584 2278 3584 
Q 2916 3584 3314 3078 
Q 3713 2572 3713 1747 
Q 3713 922 3314 415 
Q 2916 -91 2278 -91 
Q 1894 -91 1617 61 
Q 1341 213 1159 525 
z
M 3116 1747 
Q 3116 2381 2855 2742 
Q 2594 3103 2138 3103 
Q 1681 3103 1420 2742 
Q 1159 2381 1159 1747 
Q 1159 1113 1420 752 
Q 1681 391 2138 391 
Q 2594 391 2855 752 
Q 3116 1113 3116 1747 
z
" transform="scale(0.015625)"/>
      </defs>
      <use xlink:href="#DejaVuSans-74"/>
      <use xlink:href="#DejaVuSans-69" x="39.208984"/>
      <use xlink:href="#DejaVuSans-6d" x="66.992188"/>
      <use xlink:href="#DejaVuSans-65" x="164.404297"/>
      <use xlink:href="#DejaVuSans-73" x="225.927734"/>
      <use xlink:href="#DejaVuSans-74" x="278.027344"/>
      <use xlink:href="#DejaVuSans-65" x="317.236328"/>
      <use xlink:href="#DejaVuSans-70" x="378.759766"/>
      <use xlink:href="#DejaVuSans-73" x="442.236328"/>
     </g>
    </g>
   </g>
   <g id="matplotlib.axis_2">
    <g id="ytick_1">
     <g id="line2d_10">
      <defs>
       <path id="m9a560160ad" d="M 0 0 
L -3.5 0 
" style="stroke: #000000; stroke-width: 0.8"/>
      </defs>
      <g>
       <use xlink:href="#m9a560160ad" x="50.14375" y="277.736043" style="stroke: #000000; stroke-width: 0.8"/>
      </g>
     </g>
     <g id="text_11">
      <!-- 3.25 -->
      <g transform="translate(20.878125 281.535261)scale(0.1 -0.1)">
       <defs>
        <path id="DejaVuSans-33" d="M 2597 2516 
Q 3050 2419 3304 2112 
Q 3559 1806 3559 1356 
Q 3559 666 3084 287 
Q 2609 -91 1734 -91 
Q 1441 -91 1130 -33 
Q 819 25 488 141 
L 488 750 
Q 750 597 1062 519 
Q 1375 441 1716 441 
Q 2309 441 2620 675 
Q 2931 909 2931 1356 
Q 2931 1769 2642 2001 
Q 2353 2234 1838 2234 
L 1294 2234 
L 1294 2753 
L 1863 2753 
Q 2328 2753 2575 2939 
Q 2822 3125 2822 3475 
Q 2822 3834 2567 4026 
Q 2313 4219 1838 4219 
Q 1578 4219 1281 4162 
Q 984 4106 628 3988 
L 628 4550 
Q 988 4650 1302 4700 
Q 1616 4750 1894 4750 
Q 2613 4750 3031 4423 
Q 3450 4097 3450 3541 
Q 3450 3153 3228 2886 
Q 3006 2619 2597 2516 
z
" transform="scale(0.015625)"/>
        <path id="DejaVuSans-2e" d="M 684 794 
L 1344 794 
L 1344 0 
L 684 0 
L 684 794 
z
" transform="scale(0.015625)"/>
       </defs>
       <use xlink:href="#DejaVuSans-33"/>
       <use xlink:href="#DejaVuSans-2e" x="63.623047"/>
       <use xlink:href="#DejaVuSans-32" x="95.410156"/>
       <use xlink:href="#DejaVuSans-35" x="159.033203"/>
      </g>
     </g>
    </g>
    <g id="ytick_2">
     <g id="line2d_11">
      <g>
       <use xlink:href="#m9a560160ad" x="50.14375" y="246.053501" style="stroke: #000000; stroke-width: 0.8"/>
      </g>
     </g>
     <g id="text_12">
      <!-- 3.50 -->
      <g transform="translate(20.878125 249.85272)scale(0.1 -0.1)">
       <use xlink:href="#DejaVuSans-33"/>
       <use xlink:href="#DejaVuSans-2e" x="63.623047"/>
       <use xlink:href="#DejaVuSans-35" x="95.410156"/>
       <use xlink:href="#DejaVuSans-30" x="159.033203"/>
      </g>
     </g>
    </g>
    <g id="ytick_3">
     <g id="line2d_12">
      <g>
       <use xlink:href="#m9a560160ad" x="50.14375" y="214.37096" style="stroke: #000000; stroke-width: 0.8"/>
      </g>
     </g>
     <g id="text_13">
      <!-- 3.75 -->
      <g transform="translate(20.878125 218.170179)scale(0.1 -0.1)">
       <use xlink:href="#DejaVuSans-33"/>
       <use xlink:href="#DejaVuSans-2e" x="63.623047"/>
       <use xlink:href="#DejaVuSans-37" x="95.410156"/>
       <use xlink:href="#DejaVuSans-35" x="159.033203"/>
      </g>
     </g>
    </g>
    <g id="ytick_4">
     <g id="line2d_13">
      <g>
       <use xlink:href="#m9a560160ad" x="50.14375" y="182.688419" style="stroke: #000000; stroke-width: 0.8"/>
      </g>
     </g>
     <g id="text_14">
      <!-- 4.00 -->
      <g transform="translate(20.878125 186.487637)scale(0.1 -0.1)">
       <use xlink:href="#DejaVuSans-34"/>
       <use xlink:href="#DejaVuSans-2e" x="63.623047"/>
       <use xlink:href="#DejaVuSans-30" x="95.410156"/>
       <use xlink:href="#DejaVuSans-30" x="159.033203"/>
      </g>
     </g>
    </g>
    <g id="ytick_5">
     <g id="line2d_14">
      <g>
       <use xlink:href="#m9a560160ad" x="50.14375" y="151.005877" style="stroke: #000000; stroke-width: 0.8"/>
      </g>
     </g>
     <g id="text_15">
      <!-- 4.25 -->
      <g transform="translate(20.878125 154.805096)scale(0.1 -0.1)">
       <use xlink:href="#DejaVuSans-34"/>
       <use xlink:href="#DejaVuSans-2e" x="63.623047"/>
       <use xlink:href="#DejaVuSans-32" x="95.410156"/>
       <use xlink:href="#DejaVuSans-35" x="159.033203"/>
      </g>
     </g>
    </g>
    <g id="ytick_6">
     <g id="line2d_15">
      <g>
       <use xlink:href="#m9a560160ad" x="50.14375" y="119.323336" style="stroke: #000000; stroke-width: 0.8"/>
      </g>
     </g>
     <g id="text_16">
      <!-- 4.50 -->
      <g transform="translate(20.878125 123.122555)scale(0.1 -0.1)">
       <use xlink:href="#DejaVuSans-34"/>
       <use xlink:href="#DejaVuSans-2e" x="63.623047"/>
       <use xlink:href="#DejaVuSans-35" x="95.410156"/>
       <use xlink:href="#DejaVuSans-30" x="159.033203"/>
      </g>
     </g>
    </g>
    <g id="ytick_7">
     <g id="line2d_16">
      <g>
       <use xlink:href="#m9a560160ad" x="50.14375" y="87.640795" style="stroke: #000000; stroke-width: 0.8"/>
      </g>
     </g>
     <g id="text_17">
      <!-- 4.75 -->
      <g transform="translate(20.878125 91.440013)scale(0.1 -0.1)">
       <use xlink:href="#DejaVuSans-34"/>
       <use xlink:href="#DejaVuSans-2e" x="63.623047"/>
       <use xlink:href="#DejaVuSans-37" x="95.410156"/>
       <use xlink:href="#DejaVuSans-35" x="159.033203"/>
      </g>
     </g>
    </g>
    <g id="ytick_8">
     <g id="line2d_17">
      <g>
       <use xlink:href="#m9a560160ad" x="50.14375" y="55.958253" style="stroke: #000000; stroke-width: 0.8"/>
      </g>
     </g>
     <g id="text_18">
      <!-- 5.00 -->
      <g transform="translate(20.878125 59.757472)scale(0.1 -0.1)">
       <use xlink:href="#DejaVuSans-35"/>
       <use xlink:href="#DejaVuSans-2e" x="63.623047"/>
       <use xlink:href="#DejaVuSans-30" x="95.410156"/>
       <use xlink:href="#DejaVuSans-30" x="159.033203"/>
      </g>
     </g>
    </g>
    <g id="ytick_9">
     <g id="line2d_18">
      <g>
       <use xlink:href="#m9a560160ad" x="50.14375" y="24.275712" style="stroke: #000000; stroke-width: 0.8"/>
      </g>
     </g>
     <g id="text_19">
      <!-- 5.25 -->
      <g transform="translate(20.878125 28.074931)scale(0.1 -0.1)">
       <use xlink:href="#DejaVuSans-35"/>
       <use xlink:href="#DejaVuSans-2e" x="63.623047"/>
       <use xlink:href="#DejaVuSans-32" x="95.410156"/>
       <use xlink:href="#DejaVuSans-35" x="159.033203"/>
      </g>
     </g>
    </g>
    <g id="text_20">
     <!-- storage -->
     <g transform="translate(14.798438 174.368656)rotate(-90)scale(0.1 -0.1)">
      <defs>
       <path id="DejaVuSans-6f" d="M 1959 3097 
Q 1497 3097 1228 2736 
Q 959 2375 959 1747 
Q 959 1119 1226 758 
Q 1494 397 1959 397 
Q 2419 397 2687 759 
Q 2956 1122 2956 1747 
Q 2956 2369 2687 2733 
Q 2419 3097 1959 3097 
z
M 1959 3584 
Q 2709 3584 3137 3096 
Q 3566 2609 3566 1747 
Q 3566 888 3137 398 
Q 2709 -91 1959 -91 
Q 1206 -91 779 398 
Q 353 888 353 1747 
Q 353 2609 779 3096 
Q 1206 3584 1959 3584 
z
" transform="scale(0.015625)"/>
       <path id="DejaVuSans-72" d="M 2631 2963 
Q 2534 3019 2420 3045 
Q 2306 3072 2169 3072 
Q 1681 3072 1420 2755 
Q 1159 2438 1159 1844 
L 1159 0 
L 581 0 
L 581 3500 
L 1159 3500 
L 1159 2956 
Q 1341 3275 1631 3429 
Q 1922 3584 2338 3584 
Q 2397 3584 2469 3576 
Q 2541 3569 2628 3553 
L 2631 2963 
z
" transform="scale(0.015625)"/>
       <path id="DejaVuSans-61" d="M 2194 1759 
Q 1497 1759 1228 1600 
Q 959 1441 959 1056 
Q 959 750 1161 570 
Q 1363 391 1709 391 
Q 2188 391 2477 730 
Q 2766 1069 2766 1631 
L 2766 1759 
L 2194 1759 
z
M 3341 1997 
L 3341 0 
L 2766 0 
L 2766 531 
Q 2569 213 2275 61 
Q 1981 -91 1556 -91 
Q 1019 -91 701 211 
Q 384 513 384 1019 
Q 384 1609 779 1909 
Q 1175 2209 1959 2209 
L 2766 2209 
L 2766 2266 
Q 2766 2663 2505 2880 
Q 2244 3097 1772 3097 
Q 1472 3097 1187 3025 
Q 903 2953 641 2809 
L 641 3341 
Q 956 3463 1253 3523 
Q 1550 3584 1831 3584 
Q 2591 3584 2966 3190 
Q 3341 2797 3341 1997 
z
" transform="scale(0.015625)"/>
       <path id="DejaVuSans-67" d="M 2906 1791 
Q 2906 2416 2648 2759 
Q 2391 3103 1925 3103 
Q 1463 3103 1205 2759 
Q 947 2416 947 1791 
Q 947 1169 1205 825 
Q 1463 481 1925 481 
Q 2391 481 2648 825 
Q 2906 1169 2906 1791 
z
M 3481 434 
Q 3481 -459 3084 -895 
Q 2688 -1331 1869 -1331 
Q 1566 -1331 1297 -1286 
Q 1028 -1241 775 -1147 
L 775 -588 
Q 1028 -725 1275 -790 
Q 1522 -856 1778 -856 
Q 2344 -856 2625 -561 
Q 2906 -266 2906 331 
L 2906 616 
Q 2728 306 2450 153 
Q 2172 0 1784 0 
Q 1141 0 747 490 
Q 353 981 353 1791 
Q 353 2603 747 3093 
Q 1141 3584 1784 3584 
Q 2172 3584 2450 3431 
Q 2728 3278 2906 2969 
L 2906 3500 
L 3481 3500 
L 3481 434 
z
" transform="scale(0.015625)"/>
      </defs>
      <use xlink:href="#DejaVuSans-73"/>
      <use xlink:href="#DejaVuSans-74" x="52.099609"/>
      <use xlink:href="#DejaVuSans-6f" x="91.308594"/>
      <use xlink:href="#DejaVuSans-72" x="152.490234"/>
      <use xlink:href="#DejaVuSans-61" x="193.603516"/>
      <use xlink:href="#DejaVuSans-67" x="254.882812"/>
      <use xlink:href="#DejaVuSans-65" x="318.359375"/>
     </g>
    </g>
    <g id="text_21">
     <!-- 1e10 -->
     <g transform="translate(50.14375 19.318125)scale(0.1 -0.1)">
      <use xlink:href="#DejaVuSans-31"/>
      <use xlink:href="#DejaVuSans-65" x="63.623047"/>
      <use xlink:href="#DejaVuSans-31" x="125.146484"/>
      <use xlink:href="#DejaVuSans-30" x="188.769531"/>
     </g>
    </g>
   </g>
   <g id="line2d_19">
    <path d="M 66.376477 130.175697 
L 66.598856 130.566085 
L 66.839766 131.306171 
L 66.932424 131.572412 
L 67.173335 132.294989 
L 67.265993 132.378016 
L 67.451308 132.792712 
L 67.562498 132.975073 
L 67.896066 134.23727 
L 67.951661 134.36307 
L 68.507608 136.838609 
L 68.544671 136.945867 
L 69.063555 139.23293 
L 69.137681 139.484622 
L 69.378591 140.291584 
L 69.508312 140.410132 
L 69.675096 140.730784 
L 69.730691 140.863146 
L 69.860412 141.028883 
L 69.916007 141.166436 
L 70.156917 141.912952 
L 70.249575 142.082228 
L 70.471954 142.699258 
L 70.54608 142.831236 
L 70.731396 143.325124 
L 70.768459 143.430304 
L 70.916712 143.767984 
L 71.120559 144.358273 
L 71.176153 144.483845 
L 71.380001 145.042597 
L 71.417064 145.146427 
L 71.639443 145.84039 
L 71.713569 146.008781 
L 71.991542 146.934845 
L 72.065669 147.078386 
L 72.343642 148.026722 
L 72.417769 148.169118 
L 72.640147 148.796732 
L 72.714274 149.045403 
L 72.973716 149.948374 
L 73.084905 150.153393 
L 73.344347 150.992496 
L 73.474068 151.178652 
L 73.714978 151.90388 
L 73.752041 152.024321 
L 74.011483 152.864293 
L 74.122673 153.115122 
L 74.437709 154.261414 
L 74.585962 154.547681 
L 74.826872 155.270636 
L 74.975125 155.587886 
L 75.327225 156.949582 
L 75.401351 157.180677 
L 75.642261 157.896864 
L 75.697856 158.043674 
L 75.994361 159.072776 
L 76.068488 159.319461 
L 76.439119 160.768464 
L 76.56884 161.0846 
L 76.939471 162.532905 
L 76.976534 162.652887 
L 77.384229 164.302891 
L 77.439824 164.440975 
L 77.847518 166.09777 
L 77.884581 166.219012 
L 78.218149 167.458322 
L 78.292276 167.709118 
L 78.718502 169.468272 
L 78.81116 169.670925 
L 79.200323 171.238262 
L 79.255917 171.378048 
L 79.570954 172.537821 
L 79.608017 172.657894 
L 79.941585 173.897692 
L 79.978648 174.01888 
L 80.330748 175.44726 
L 80.34928 175.431822 
L 80.367811 175.53493 
L 80.571659 176.105054 
L 80.59019 176.100804 
L 80.608722 176.203912 
L 80.849632 176.981305 
L 80.868164 176.972616 
L 80.886695 177.075724 
L 81.146137 177.953205 
L 81.201732 177.899367 
L 81.238795 177.987102 
L 81.5353 179.081089 
L 81.553832 179.077083 
L 81.572363 179.180191 
L 81.813274 179.949413 
L 81.831805 179.931782 
L 81.850337 180.03489 
L 82.165373 181.231377 
L 82.202437 181.208119 
L 82.220968 181.311227 
L 82.406284 181.885895 
L 82.424815 181.879835 
L 82.443347 181.873394 
L 82.461879 181.976502 
L 82.851042 183.562163 
L 82.888105 183.551798 
L 82.906636 183.654906 
L 83.221673 184.823996 
L 83.240204 184.81953 
L 83.258736 184.922638 
L 83.42552 185.409448 
L 83.444052 185.39214 
L 83.481115 185.356123 
L 83.499646 185.459231 
L 83.722025 186.353344 
L 83.759088 186.342078 
L 83.77762 186.336206 
L 83.796151 186.439314 
L 84.01853 187.311614 
L 84.055593 187.276525 
L 84.074125 187.249289 
L 84.092657 187.352397 
L 84.333567 188.254046 
L 84.352099 188.236288 
L 84.426225 188.179155 
L 84.444756 188.282263 
L 84.704198 189.169597 
L 84.72273 189.15801 
L 84.741261 189.261118 
L 84.759793 189.239939 
L 84.926577 189.711025 
L 84.945109 189.690913 
L 84.96364 189.663745 
L 84.982172 189.766854 
L 85.223082 190.557232 
L 85.241614 190.54812 
L 85.260145 190.651228 
L 85.501056 191.43204 
L 85.575182 191.52492 
L 85.816092 192.408079 
L 85.834624 192.391923 
L 85.853156 192.365935 
L 85.871687 192.469043 
L 85.90875 192.449701 
L 86.131129 193.132356 
L 86.168192 193.103012 
L 86.186724 193.20612 
L 86.446166 194.098368 
L 86.464697 194.094504 
L 86.483229 194.197612 
L 86.631481 194.542622 
L 86.650013 194.534962 
L 86.724139 194.493614 
L 86.742671 194.596722 
L 86.909455 194.993311 
L 86.946518 194.979453 
L 86.96505 195.082561 
L 87.20596 195.845489 
L 87.224492 195.837863 
L 87.243023 195.940971 
L 87.409807 196.439026 
L 87.428339 196.421508 
L 87.465402 196.510873 
L 87.502465 196.481687 
L 87.761907 197.376636 
L 87.79897 197.476716 
L 88.039881 198.234516 
L 88.058412 198.218058 
L 88.076944 198.321166 
L 88.317854 199.110302 
L 88.39198 199.062236 
L 88.410512 199.165344 
L 88.651422 199.920417 
L 88.669954 199.915328 
L 88.688486 200.018436 
L 88.929396 200.781676 
L 88.947927 200.763365 
L 88.966459 200.866473 
L 89.207369 201.65448 
L 89.225901 201.638743 
L 89.244433 201.741851 
L 89.485343 202.505326 
L 89.522406 202.60527 
L 89.707722 203.188105 
L 89.726253 203.171444 
L 89.763316 203.264586 
L 89.80038 203.24856 
L 89.985695 203.811406 
L 90.004227 203.806865 
L 90.059822 203.894508 
L 90.319264 204.755614 
L 90.356327 204.743687 
L 90.374858 204.846795 
L 90.467516 204.931479 
L 90.6343 205.507688 
L 90.671363 205.491734 
L 90.708426 205.586059 
L 90.74549 205.542261 
L 90.9864 206.335361 
L 91.023463 206.303579 
L 91.041995 206.406687 
L 91.079058 206.380155 
L 91.208779 206.753686 
L 91.245842 206.741892 
L 91.282905 206.733746 
L 91.301437 206.836854 
L 91.486752 207.310859 
L 91.505284 207.298341 
L 91.523815 207.401449 
L 91.709131 207.98014 
L 91.727663 207.976634 
L 91.783257 208.075079 
L 91.987105 208.644447 
L 92.005636 208.638081 
L 92.024168 208.741189 
L 92.190952 209.103523 
L 92.228015 209.205703 
L 92.246547 209.308811 
L 92.339204 209.243346 
L 92.357736 209.23005 
L 92.376268 209.333158 
L 92.580115 209.89334 
L 92.617178 209.994012 
L 92.691304 210.180705 
L 92.746899 210.120219 
L 92.765431 210.095509 
L 92.783962 210.198617 
L 92.802494 210.177185 
L 92.839557 210.383401 
L 92.932215 210.30498 
L 92.950746 210.281281 
L 92.969278 210.384389 
L 93.11753 210.86687 
L 93.154593 210.84348 
L 93.210188 210.770567 
L 93.22872 210.873675 
L 93.414035 211.295152 
L 93.451099 211.251486 
L 93.46963 211.354594 
L 93.654946 211.792725 
L 93.673477 211.771788 
L 93.692009 211.874896 
L 93.710541 211.853095 
L 93.858793 212.193368 
L 93.877325 212.16467 
L 93.895856 212.149761 
L 93.914388 212.252869 
L 93.932919 212.242342 
L 94.136767 212.774871 
L 94.155298 212.753089 
L 94.17383 212.856197 
L 94.359145 213.284783 
L 94.377677 213.274272 
L 94.396209 213.37738 
L 94.41474 213.364462 
L 94.618587 213.887569 
L 94.637119 213.866817 
L 94.655651 213.969925 
L 94.674182 213.953172 
L 94.822435 214.263175 
L 94.878029 214.222156 
L 94.915092 214.31121 
L 95.11894 214.825856 
L 95.193066 214.722465 
L 95.230129 214.803172 
L 95.35985 215.173138 
L 95.396913 215.138718 
L 95.415445 215.102599 
L 95.433976 215.205707 
L 95.452508 215.180925 
L 95.619292 215.613352 
L 95.637824 215.578637 
L 95.656355 215.681745 
L 95.674887 215.664994 
L 95.730481 215.857685 
L 95.804608 215.803906 
L 95.823139 215.788637 
L 95.841671 215.891745 
L 95.860202 215.855627 
L 96.026987 216.285638 
L 96.045518 216.263236 
L 96.212302 216.200084 
L 96.267897 216.157279 
L 96.30496 216.224267 
L 96.434681 216.56727 
L 96.471744 216.534448 
L 96.527339 216.449645 
L 96.564402 216.535995 
L 96.731186 216.877739 
L 96.749718 216.841602 
L 96.768249 216.944711 
L 96.786781 216.919908 
L 96.953565 217.232391 
L 96.972097 217.197659 
L 96.990628 217.300767 
L 97.046223 217.258517 
L 97.213007 217.694929 
L 97.231539 217.670135 
L 97.268602 217.619144 
L 97.287133 217.722252 
L 97.305665 217.703267 
L 97.472449 218.009005 
L 97.49098 217.995488 
L 97.509512 218.098596 
L 97.528044 218.085594 
L 97.620701 218.364228 
L 97.676296 218.298334 
L 97.731891 218.360928 
L 97.787486 218.305915 
L 97.95427 218.725596 
L 97.972801 218.712606 
L 98.046928 218.65424 
L 98.083991 218.733419 
L 98.250775 219.049532 
L 98.306369 218.963453 
L 98.343433 219.044046 
L 98.510217 219.386365 
L 98.639938 219.200119 
L 98.677001 219.287072 
L 98.843785 219.714912 
L 98.862317 219.700508 
L 98.936443 219.645451 
L 98.973506 219.712305 
L 99.066164 219.84245 
L 99.103227 219.806658 
L 99.14029 219.893622 
L 99.232948 219.756325 
L 99.325606 219.922562 
L 99.362669 219.894904 
L 99.529453 219.806181 
L 99.696237 220.111768 
L 99.714769 220.098192 
L 99.7333 220.2013 
L 99.751832 220.186928 
L 99.84449 220.350219 
L 99.881553 220.285192 
L 99.900084 220.260347 
L 99.918616 220.363455 
L 99.937148 220.337693 
L 100.103932 220.641017 
L 100.159526 220.598771 
L 100.196589 220.687512 
L 100.363374 220.990934 
L 100.381905 220.965171 
L 100.400437 221.068279 
L 100.418968 221.049247 
L 100.548689 221.257412 
L 100.604284 221.215184 
L 100.641347 221.306181 
L 100.808131 221.628189 
L 100.937852 221.61461 
L 101.067573 221.955019 
L 101.104636 221.930264 
L 101.141699 222.020339 
L 101.197294 221.961123 
L 101.364078 222.274616 
L 101.38261 222.255427 
L 101.401141 222.358535 
L 101.419673 222.321861 
L 101.549394 222.451377 
L 101.567926 222.438826 
L 101.586457 222.541934 
L 101.604989 222.527499 
L 101.697646 222.647425 
L 101.716178 222.622766 
L 101.753241 222.580042 
L 101.771773 222.68315 
L 101.790304 222.66793 
L 101.957088 222.969558 
L 101.994152 223.059167 
L 102.086809 222.965798 
L 102.21653 223.311854 
L 102.253594 223.279973 
L 102.272125 223.258589 
L 102.290657 223.361697 
L 102.309188 223.328294 
L 102.401846 223.494015 
L 102.438909 223.469415 
L 102.494504 223.42914 
L 102.531567 223.497402 
L 102.550099 223.60051 
L 102.624225 223.503236 
L 102.661288 223.588357 
L 102.716883 223.535098 
L 102.883667 223.837162 
L 102.92073 223.927722 
L 102.976325 223.860239 
L 103.143109 224.174406 
L 103.27283 224.155592 
L 103.365488 224.32463 
L 103.402551 224.292008 
L 103.569335 224.209669 
L 103.606398 224.171626 
L 103.62493 224.274734 
L 103.643461 224.241336 
L 103.661993 224.344444 
L 103.736119 224.234144 
L 103.754651 224.221905 
L 103.773182 224.325013 
L 103.791714 224.311834 
L 103.921435 224.418279 
L 103.939966 224.397148 
L 103.958498 224.500256 
L 103.977029 224.480328 
L 104.069687 224.633613 
L 104.088219 224.596241 
L 104.125282 224.543126 
L 104.143814 224.646234 
L 104.199408 224.605949 
L 104.255003 224.798987 
L 104.329129 224.717498 
L 104.347661 224.699167 
L 104.366192 224.802275 
L 104.384724 224.781137 
L 104.551508 225.083301 
L 104.57004 225.061725 
L 104.588571 225.164833 
L 104.644166 225.125817 
L 104.736824 225.291299 
L 104.773887 225.228441 
L 104.829482 225.155801 
L 104.866545 225.240741 
L 105.033329 225.54747 
L 105.088923 225.509769 
L 105.125987 225.600205 
L 105.255708 225.808254 
L 105.292771 225.88693 
L 105.385429 225.798641 
L 105.478086 226.055843 
L 105.533681 226.018165 
L 105.570744 225.994252 
L 105.607807 226.082808 
L 105.737528 226.281008 
L 105.774592 226.365974 
L 105.830186 226.312456 
L 105.885781 226.483183 
L 105.959907 226.431202 
L 105.978439 226.417588 
L 105.99697 226.520696 
L 106.015502 226.508026 
L 106.145223 226.725527 
L 106.182286 226.8042 
L 106.237881 226.754059 
L 106.367602 226.954779 
L 106.386133 226.941946 
L 106.404665 227.045054 
L 106.423196 227.042922 
L 106.552917 227.32839 
L 106.571449 227.322103 
L 106.645575 227.40959 
L 106.812359 227.786601 
L 106.905017 227.8813 
L 107.034738 228.06863 
L 107.201522 228.12058 
L 107.368306 228.52006 
L 107.460964 228.609317 
L 107.609217 228.900326 
L 107.720406 228.96423 
L 107.794532 229.061203 
L 107.924253 229.341115 
L 107.942785 229.333575 
L 107.979848 229.323837 
L 107.99838 229.426945 
L 108.091038 229.494462 
L 108.220759 229.690532 
L 108.313416 229.769274 
L 108.480201 230.155592 
L 108.646985 230.199106 
L 108.776706 230.379031 
L 108.887895 230.456135 
L 109.128805 230.491875 
L 109.221463 230.675877 
L 109.258526 230.661712 
L 109.314121 230.644679 
L 109.332653 230.747787 
L 109.573563 230.799794 
L 109.703284 231.080095 
L 109.721816 231.072676 
L 109.758879 231.063126 
L 109.77741 231.166234 
L 109.870068 231.234172 
L 110.036852 231.636793 
L 110.12951 231.727848 
L 110.259231 231.918634 
L 110.351889 231.987417 
L 110.500141 232.287036 
L 110.648394 232.364676 
L 110.72252 232.567041 
L 110.778115 232.524799 
L 110.870773 232.618323 
L 111.037557 232.964144 
L 111.204341 232.821994 
L 111.334062 233.015672 
L 111.42672 233.07249 
L 111.593504 233.409554 
L 111.77882 233.394596 
L 111.871478 233.451501 
L 111.890009 233.554609 
L 111.982667 233.460084 
L 112.093856 233.479541 
L 112.223577 233.673371 
L 112.316235 233.730363 
L 112.464488 233.96459 
L 112.575677 233.981222 
L 112.705398 234.178086 
L 112.909245 234.236704 
L 113.038966 234.33287 
L 113.31694 234.327242 
L 113.483724 234.650355 
L 113.650508 234.712725 
L 113.706103 234.910862 
L 113.780229 234.863229 
L 113.872887 234.891528 
L 113.891418 234.994636 
L 113.984076 234.971292 
L 114.317645 234.945507 
L 114.447366 235.141156 
L 114.577086 235.157204 
L 114.706807 235.310859 
L 114.873592 235.202774 
L 114.892123 235.305882 
L 114.984781 235.366775 
L 115.040376 235.554737 
L 115.114502 235.504119 
L 115.244223 235.504783 
L 115.392475 235.804927 
L 115.540728 235.777405 
L 115.707512 236.113989 
L 115.911359 236.123004 
L 116.04108 236.383118 
L 116.059612 236.368831 
L 116.133738 236.282731 
L 116.170801 236.384013 
L 116.244928 236.481648 
L 116.374649 236.738953 
L 116.39318 236.72185 
L 116.541433 236.579648 
L 116.578496 236.664813 
L 116.708217 236.966856 
L 116.726748 236.963021 
L 116.763812 236.926366 
L 116.782343 237.029474 
L 116.800875 237.018017 
L 116.930596 237.157256 
L 116.98619 237.073692 
L 117.023254 237.158877 
L 117.152974 237.356016 
L 117.245632 237.389501 
L 117.375353 237.528634 
L 117.468011 237.409513 
L 117.542137 237.507183 
L 117.653327 237.559003 
L 117.708922 237.743326 
L 117.783048 237.678687 
L 117.912769 237.684357 
L 118.061021 237.984643 
L 118.320463 237.817793 
L 118.376058 237.912691 
L 118.542842 237.959203 
L 118.709626 238.28933 
L 118.802284 238.170517 
L 118.87641 238.268224 
L 119.191447 238.154589 
L 119.321168 238.074763 
L 119.450889 238.245534 
L 119.654736 238.222418 
L 119.840052 238.690838 
L 119.951241 238.822054 
L 120.062431 238.978811 
L 120.080962 238.973184 
L 120.155089 238.955798 
L 120.17362 238.973894 
L 120.303341 239.179898 
L 120.321873 239.166848 
L 120.340404 239.269956 
L 120.358936 239.269106 
L 120.470125 239.303135 
L 120.599846 239.412015 
L 120.859288 239.52432 
L 121.878524 240.122517 
L 122.045309 240.459189 
L 122.212093 240.467815 
L 122.786571 240.777355 
L 122.916292 240.868484 
L 123.101608 240.89294 
L 123.490771 240.947246 
L 123.731681 240.964321 
L 124.30616 241.443799 
L 124.324691 241.424982 
L 124.565602 241.368952 
L 124.991828 241.464902 
L 125.084486 241.515696 
L 125.621901 241.853025 
L 125.770154 241.910618 
L 126.455822 242.069476 
L 126.585543 242.040346 
L 126.844985 241.960876 
L 127.122958 242.058465 
L 127.660374 242.192529 
L 127.7345 242.203382 
L 127.864221 242.36803 
L 128.068068 242.26545 
L 128.179258 242.228169 
L 128.308979 242.393002 
L 128.32751 242.366583 
L 128.346042 242.469691 
L 128.401636 242.427297 
L 128.494294 242.543017 
L 128.512826 242.5341 
L 128.661078 242.516649 
L 128.827863 242.499668 
L 129.161431 242.408974 
L 129.346746 242.323419 
L 129.513531 242.356776 
L 129.62472 242.508704 
L 129.643252 242.503052 
L 129.902693 242.278063 
L 129.958288 242.302426 
L 130.069478 242.5486 
L 130.106541 242.512513 
L 130.365983 242.318254 
L 130.625425 242.384457 
L 130.847803 242.294862 
L 131.070182 242.336823 
L 131.292561 242.247578 
L 131.403751 242.494053 
L 131.440814 242.458151 
L 131.589066 242.359688 
L 131.607598 242.462796 
L 131.700256 242.368312 
L 131.959698 242.429261 
L 132.21914 242.372083 
L 132.404455 242.382004 
L 132.626834 242.298556 
L 132.756555 242.556198 
L 132.775087 242.530262 
L 133.034529 242.393428 
L 133.256907 242.444778 
L 133.516349 242.373518 
L 133.701665 242.426935 
L 133.886981 242.375666 
L 134.035233 242.596218 
L 134.164954 242.566251 
L 134.387333 242.534461 
L 134.70237 242.683425 
L 135.091533 242.720295 
L 135.350975 242.719107 
L 135.406569 242.845394 
L 135.480696 242.82442 
L 135.981048 242.765991 
L 137.889799 242.732733 
L 138.000989 242.770691 
L 138.167773 242.734555 
L 138.48281 242.61166 
L 138.612531 242.558914 
L 138.927567 242.44419 
L 139.038757 242.371248 
L 139.298199 242.217797 
L 139.42792 242.262711 
L 139.464983 242.20565 
L 139.761488 242.045282 
L 139.928272 242.001058 
L 140.187714 241.847992 
L 140.317435 241.893095 
L 140.354498 241.836091 
L 140.651003 241.676154 
L 140.817787 241.632177 
L 141.095761 241.486106 
L 141.281076 241.465583 
L 141.596113 241.350606 
L 141.725834 241.301791 
L 142.040871 241.194968 
L 142.15206 241.124432 
L 142.411502 240.977952 
L 142.541223 241.026489 
L 142.578286 240.969636 
L 142.689476 240.879828 
L 142.708007 240.982937 
L 143.060107 240.856715 
L 143.263954 240.708448 
L 143.393675 240.871782 
L 143.486333 240.793727 
L 143.745775 240.647822 
L 143.875496 240.696648 
L 143.912559 240.639882 
L 144.209064 240.479865 
L 144.375848 240.446733 
L 145.413616 239.919111 
L 145.561869 239.865568 
L 145.69159 239.827405 
L 145.988095 239.646174 
L 146.154879 239.592231 
L 146.414321 239.421277 
L 146.581105 239.399973 
L 146.87761 239.221116 
L 147.044394 239.185549 
L 147.303836 239.043141 
L 147.526215 239.005574 
L 147.785657 238.886492 
L 147.952441 238.847641 
L 148.267478 238.738445 
L 148.378667 238.668728 
L 148.638109 238.516358 
L 148.804893 238.507586 
L 149.101398 238.34745 
L 149.268182 238.305952 
L 149.527624 238.153628 
L 149.694408 238.144912 
L 149.861193 238.032634 
L 149.879724 238.135742 
L 149.972382 238.101729 
L 150.139166 238.09304 
L 150.435671 237.925946 
L 150.602455 237.898781 
L 151.658755 237.398976 
L 151.788476 237.381621 
L 151.918197 237.351141 
L 152.214702 237.183764 
L 152.381486 237.138602 
L 152.640928 236.980113 
L 152.807712 236.967867 
L 153.104217 236.800507 
L 153.271001 236.755369 
L 153.530443 236.596893 
L 153.752822 236.606802 
L 154.012264 236.528633 
L 154.179048 236.525704 
L 154.494085 236.468931 
L 154.605274 236.416162 
L 154.864716 236.312526 
L 154.994437 236.38258 
L 155.0315 236.330997 
L 155.309474 236.211566 
L 155.439195 236.281684 
L 155.476258 236.230112 
L 155.754231 236.11079 
L 155.883952 236.180974 
L 155.921015 236.129411 
L 156.198989 236.0102 
L 156.32871 236.080449 
L 156.365773 236.028898 
L 156.662278 235.921141 
L 156.847594 235.942989 
L 157.181162 235.870159 
L 157.347946 235.791955 
L 157.737109 235.67628 
L 157.978019 235.578438 
L 158.10774 235.639723 
L 158.144804 235.587659 
L 158.441309 235.470715 
L 158.608093 235.448236 
L 158.867535 235.332594 
L 158.997256 235.393791 
L 159.034319 235.341726 
L 159.330824 235.2246 
L 159.497608 235.202021 
L 159.75705 235.086191 
L 159.99796 235.099531 
L 160.665097 234.97692 
L 160.850413 234.974335 
L 161.091323 234.92513 
L 161.221044 235.013493 
L 161.276639 234.954805 
L 161.536081 234.89199 
L 161.665802 234.980316 
L 161.721396 234.921624 
L 161.980838 234.858734 
L 162.110559 234.947023 
L 162.166154 234.888328 
L 162.425596 234.825369 
L 162.555317 234.913618 
L 162.610912 234.854916 
L 162.870354 234.791874 
L 163.166859 234.934495 
L 163.667211 235.06114 
L 163.741337 235.028406 
L 163.7784 235.069558 
L 163.982248 235.124966 
L 164.186095 235.148196 
L 164.408474 235.25465 
L 164.630853 235.270976 
L 164.853231 235.377507 
L 165.07561 235.393897 
L 165.297989 235.500507 
L 165.520368 235.516965 
L 165.742747 235.623647 
L 165.965125 235.64016 
L 166.206036 235.772991 
L 166.446946 235.78137 
L 166.669325 235.868988 
L 167.354993 236.001283 
L 167.447651 236.086537 
L 167.503246 236.045185 
L 167.744156 236.037612 
L 167.948003 236.139624 
L 168.225977 236.180335 
L 168.411292 236.232292 
L 168.61514 236.209903 
L 168.781924 236.378559 
L 168.837519 236.337211 
L 169.078429 236.332572 
L 169.374934 236.492416 
L 169.893818 236.648256 
L 169.967944 236.617981 
L 170.005007 236.657359 
L 170.190323 236.725635 
L 170.431233 236.773615 
L 170.635081 236.865166 
L 170.857459 236.889005 
L 171.09837 236.995772 
L 171.302217 237.025967 
L 171.543128 237.130129 
L 171.765506 237.1845 
L 171.969354 237.276192 
L 172.173201 237.274256 
L 172.432643 237.46242 
L 172.710616 237.555888 
L 172.932995 237.646409 
L 173.266563 237.770393 
L 173.544537 237.822885 
L 173.748384 237.925896 
L 173.970763 237.96409 
L 174.230205 238.07928 
L 174.52671 238.263616 
L 174.656431 238.257806 
L 174.860278 238.310283 
L 175.11972 238.437277 
L 175.601541 238.712502 
L 176.120425 238.980018 
L 176.194551 238.967488 
L 176.231614 239.015601 
L 176.453993 239.117271 
L 177.195256 239.569463 
L 177.473229 239.72798 
L 177.547356 239.782049 
L 177.751203 239.915933 
L 177.973582 239.990196 
L 178.288618 240.186419 
L 178.770439 240.517468 
L 178.918692 240.584543 
L 179.215197 240.808679 
L 179.363449 240.874842 
L 179.548765 240.976913 
L 179.771144 241.105205 
L 179.993523 241.258544 
L 180.215901 241.387025 
L 180.43828 241.540565 
L 180.660659 241.66925 
L 180.883038 241.822989 
L 181.105417 241.951867 
L 181.327796 242.108157 
L 181.513111 242.182773 
L 181.846679 242.477904 
L 182.791789 243.01932 
L 182.884447 243.072283 
L 183.106826 243.219259 
L 183.329205 243.344884 
L 183.588647 243.507714 
L 184.088999 243.838526 
L 184.311378 244.018446 
L 184.478162 244.054438 
L 184.941451 244.344637 
L 185.460335 244.579912 
L 185.534462 244.559794 
L 185.571525 244.606719 
L 185.793904 244.695017 
L 187.257897 245.337081 
L 187.332024 245.387974 
L 187.535871 245.51131 
L 187.75825 245.570224 
L 188.128881 245.904969 
L 188.147413 245.882979 
L 188.240071 245.935438 
L 188.536576 246.139799 
L 190.074696 246.944869 
L 190.222948 246.975796 
L 190.426796 247.04991 
L 190.667706 247.208862 
L 190.853022 247.256945 
L 191.149527 247.513237 
L 191.686942 247.844146 
L 191.742537 247.816593 
L 191.7796 247.859675 
L 191.909321 248.102269 
L 191.927853 248.091041 
L 192.076105 248.137299 
L 192.465268 248.353408 
L 193.521568 249.189396 
L 193.91073 249.704686 
L 194.058983 249.900017 
L 194.744651 250.7287 
L 195.708293 251.687434 
L 195.80095 251.795567 
L 196.15305 252.107763 
L 196.245708 252.212383 
L 196.597808 252.525342 
L 196.690466 252.630164 
L 197.042566 252.943877 
L 197.135223 253.046685 
L 197.505855 253.4236 
L 198.080333 254.07742 
L 198.376838 254.338071 
L 198.469496 254.454427 
L 199.025443 255.079523 
L 199.173696 255.188839 
L 199.711111 255.734326 
L 199.803769 255.851292 
L 200.341185 256.448464 
L 201.638394 257.788649 
L 201.9349 258.040886 
L 202.027557 258.154097 
L 202.398189 258.494061 
L 203.695399 259.891066 
L 203.806588 259.992406 
L 204.177219 260.383909 
L 204.77023 261.082012 
L 205.270582 261.614232 
L 205.567087 261.897114 
L 205.900655 262.276393 
L 206.104502 262.53113 
L 206.623386 263.085871 
L 211.367468 268.605263 
L 211.923415 269.363368 
L 212.090199 269.532677 
L 213.331814 271.112479 
L 214.499303 272.522684 
L 214.81434 272.895116 
L 215.722386 273.103445 
L 215.833576 273.148537 
L 216.111549 273.222622 
L 218.075896 273.609665 
L 218.261211 273.619232 
L 219.651079 273.80299 
L 222.26403 274.291687 
L 228.805674 276.23315 
L 238.442089 264.275618 
L 240.017272 263.048486 
L 240.665877 262.509608 
L 240.943851 262.305838 
L 241.481266 261.741065 
L 241.740708 261.526212 
L 242.648755 260.078769 
L 244.520444 254.812452 
L 246.243879 249.755912 
L 246.985142 247.731663 
L 248.393541 244.376816 
L 248.412073 244.479924 
L 248.467668 244.308327 
L 248.652983 244.067961 
L 248.671515 244.171069 
L 248.745641 243.992502 
L 249.91313 241.485302 
L 249.931662 241.58841 
L 249.987256 241.401367 
L 250.005788 241.504475 
L 251.580971 237.938886 
L 251.636566 238.085723 
L 251.710692 238.035991 
L 251.877476 237.858429 
L 252.025729 237.584453 
L 252.062792 237.62811 
L 252.081323 237.731218 
L 252.136918 237.578143 
L 252.173981 237.619878 
L 252.544613 236.677713 
L 253.211749 235.189896 
L 253.230281 235.293004 
L 253.285875 235.142366 
L 253.545317 234.467009 
L 253.563849 234.570117 
L 253.637975 234.384984 
L 255.509664 229.978738 
L 255.528195 230.081846 
L 255.58379 229.882912 
L 255.954421 228.942111 
L 255.972953 229.045219 
L 256.028547 228.846123 
L 256.510368 227.421275 
L 256.5289 227.524383 
L 256.584495 227.349359 
L 256.603026 227.452467 
L 256.955126 226.432514 
L 256.973657 226.535622 
L 257.029252 226.351222 
L 257.288694 225.614493 
L 257.325757 225.650707 
L 257.344289 225.753815 
L 257.399884 225.556208 
L 257.844641 224.311964 
L 257.900236 224.457049 
L 257.937299 224.329097 
L 258.104083 223.933447 
L 257.974362 224.360079 
L 258.141146 223.977977 
L 258.845346 221.968882 
L 258.900941 222.095097 
L 258.938004 221.9805 
L 259.215977 221.365165 
L 259.234509 221.468273 
L 259.290104 221.267423 
L 259.679266 220.070412 
L 260.105493 218.910673 
L 260.124024 219.013781 
L 260.179619 218.813504 
L 260.19815 218.916612 
L 260.235214 218.942129 
L 260.364934 218.68801 
L 260.883818 217.196555 
L 260.90235 217.299663 
L 260.957945 217.087424 
L 261.069134 216.862576 
L 261.106197 216.885117 
L 261.124729 216.988225 
L 261.180323 216.81551 
L 261.736271 215.389355 
L 261.791865 215.52152 
L 261.828928 215.379947 
L 262.069839 214.870855 
L 262.125433 215.019845 
L 262.162497 214.899788 
L 263.329985 211.066482 
L 263.367049 211.107384 
L 263.38558 211.210492 
L 263.441175 211.03534 
L 263.700617 210.480447 
L 263.719148 210.583555 
L 263.774743 210.352319 
L 264.219501 209.099683 
L 264.238032 209.202791 
L 264.293627 209.030713 
L 266.591541 201.849699 
L 266.610073 201.952807 
L 266.628605 202.055915 
L 266.665668 201.91881 
L 266.702731 201.958209 
L 267.110425 200.835694 
L 267.16602 200.971336 
L 267.203083 200.836034 
L 267.592246 199.777419 
L 267.610778 199.880527 
L 267.666372 199.682028 
L 268.037004 198.702711 
L 268.055535 198.805819 
L 268.11113 198.607059 
L 268.741203 196.883429 
L 268.759735 196.986537 
L 268.833861 196.826047 
L 269.241556 196.024354 
L 269.260087 196.127462 
L 269.334214 195.95191 
L 269.352745 196.055018 
L 269.630719 195.536706 
L 269.64925 195.639814 
L 269.704845 195.514315 
L 269.741908 195.572625 
L 269.853097 195.451696 
L 269.871629 195.554804 
L 269.945755 195.37871 
L 270.149603 195.044011 
L 270.168134 195.147119 
L 270.24226 194.967663 
L 270.798207 193.656895 
L 270.816739 193.760003 
L 270.835271 193.863111 
L 270.909397 193.683295 
L 273.262906 188.481077 
L 273.281438 188.584185 
L 273.337032 188.431617 
L 273.374095 188.489432 
L 273.689132 188.012058 
L 275.597884 183.306703 
L 278.562935 176.304658 
L 279.619234 173.657199 
L 281.175886 169.86568 
L 281.194417 169.968788 
L 281.268544 169.801089 
L 282.398969 167.473855 
L 283.214358 166.601313 
L 284.511568 165.239459 
L 285.345489 164.325795 
L 285.36402 164.428903 
L 285.456678 164.320838 
L 286.716825 162.908198 
L 287.698998 161.809139 
L 288.44026 160.936968 
L 289.663344 159.51548 
L 290.44167 158.649668 
L 290.979085 157.971203 
L 291.553564 157.243455 
L 295.667572 151.990821 
L 296.00114 151.803519 
L 296.279114 151.515039 
L 296.46443 151.449326 
L 296.779466 151.202384 
L 296.909187 151.127743 
L 297.242755 150.877225 
L 297.391008 150.779088 
L 297.928423 150.345696 
L 298.410244 149.927119 
L 298.59556 149.826581 
L 298.688218 149.735711 
L 299.003254 149.463495 
L 299.114444 149.413372 
L 299.392417 149.101178 
L 299.577733 149.021657 
L 299.89277 148.749075 
L 300.003959 148.69881 
L 300.281933 148.38632 
L 300.430185 148.311069 
L 300.819348 147.827281 
L 300.949069 147.670075 
L 301.634737 146.775873 
L 301.78299 146.671942 
L 302.079495 146.230758 
L 302.227747 146.126634 
L 302.524252 145.685081 
L 302.672505 145.580764 
L 302.96901 145.138853 
L 303.117263 145.034344 
L 303.413768 144.592081 
L 303.636147 144.382455 
L 303.951183 144.031176 
L 304.470067 143.513122 
L 304.803635 143.106793 
L 304.914825 142.973525 
L 305.248393 142.566789 
L 305.359582 142.433386 
L 305.693151 142.0262 
L 305.80434 141.892661 
L 306.137908 141.485095 
L 306.249098 141.351422 
L 306.601197 140.921984 
L 306.730918 140.750698 
L 307.416586 139.804319 
L 307.638965 139.643199 
L 307.916939 139.313139 
L 308.028128 139.170764 
L 308.380228 138.719133 
L 308.491417 138.547687 
L 308.806454 138.140253 
L 308.917643 137.997573 
L 309.251212 137.565747 
L 309.362401 137.448593 
L 309.695969 137.071236 
L 309.844222 136.916542 
L 310.011006 136.684473 
L 310.085132 136.73559 
L 310.307511 136.536783 
L 310.604016 136.227253 
L 310.715206 136.077026 
L 311.011711 135.728513 
L 311.1229 135.645677 
L 311.437937 135.230249 
L 311.604721 135.06694 
L 311.901226 134.717377 
L 312.012415 134.634155 
L 312.327452 134.217602 
L 312.494236 134.05371 
L 312.809273 133.693499 
L 312.957525 133.532464 
L 313.494941 132.898884 
L 314.440051 131.75429 
L 314.606835 131.633283 
L 314.718024 131.479068 
L 315.014529 131.118643 
L 315.125719 131.031455 
L 315.440756 130.603688 
L 315.60754 130.434002 
L 315.904045 130.077668 
L 316.052297 129.965758 
L 317.090065 128.923773 
L 317.275381 128.793976 
L 317.368039 128.687333 
L 317.701607 128.358475 
L 317.812796 128.25025 
L 318.146365 127.920895 
L 318.257554 127.812504 
L 318.591122 127.482653 
L 318.702312 127.374096 
L 319.03588 127.041755 
L 319.184132 126.927222 
L 319.554764 126.61479 
L 319.573295 126.717898 
L 319.665953 126.611555 
L 320.018053 126.325278 
L 320.036584 126.428386 
L 320.110711 126.31117 
L 322.593941 124.276384 
L 322.742193 124.178423 
L 323.094293 123.953374 
L 323.353735 123.669815 
L 323.483456 123.664431 
L 323.594646 123.593963 
L 323.909682 123.375576 
L 324.039403 123.313241 
L 324.35444 123.094468 
L 324.484161 123.031979 
L 324.799198 122.812829 
L 324.928919 122.750184 
L 325.243955 122.539031 
L 325.429271 122.518026 
L 325.614587 122.388635 
L 325.633118 122.491743 
L 325.89256 122.482059 
L 326.59676 122.280608 
L 326.726481 122.233747 
L 327.004454 122.130034 
L 327.097112 122.264618 
L 327.134175 122.227639 
L 327.393617 122.024227 
L 327.597464 122.028926 
L 327.893969 121.880911 
L 328.060754 121.838476 
L 328.338727 121.702428 
L 328.524043 121.673698 
L 329.024395 121.435446 
L 329.413558 121.239997 
L 329.673 121.115206 
L 329.821253 121.082798 
L 330.117758 120.915822 
L 330.303073 120.841329 
L 330.562515 120.714176 
L 330.729299 120.655047 
L 331.025804 120.515999 
L 331.118462 120.537257 
L 331.155525 120.473769 
L 331.470562 120.313984 
L 331.637346 120.291605 
L 331.933851 120.163849 
L 332.082104 120.130688 
L 332.823367 119.842676 
L 332.934556 119.804183 
L 333.231061 119.659331 
L 333.397845 119.621366 
L 333.657287 119.482871 
L 333.824071 119.472034 
L 334.120576 119.328741 
L 334.305892 119.270472 
L 334.565334 119.1572 
L 334.75065 119.148998 
L 335.491912 118.903671 
L 335.621633 118.857092 
L 335.918139 118.755925 
L 336.066391 118.712237 
L 336.362896 118.609173 
L 336.52968 118.555804 
L 336.789122 118.461386 
L 336.955906 118.450905 
L 337.23388 118.369148 
L 337.400664 118.359251 
L 337.678638 118.277669 
L 337.882485 118.302078 
L 338.141927 118.248466 
L 338.327242 118.259876 
L 338.605216 118.224755 
L 338.734937 118.201692 
L 338.994379 118.136458 
L 339.179695 118.152417 
L 339.346479 118.099701 
L 339.4762 118.237213 
L 339.624452 118.2302 
L 339.902426 118.17441 
L 340.06921 118.176868 
L 340.347183 118.124278 
L 340.513967 118.128311 
L 340.791941 118.074304 
L 340.995788 118.121114 
L 341.25523 118.09515 
L 341.459077 118.121228 
L 341.737051 118.13792 
L 341.866772 118.104865 
L 341.903835 118.083313 
L 341.922367 118.186421 
L 342.31153 118.204947 
L 342.533908 118.163779 
L 342.756287 118.201017 
L 343.015729 118.191534 
L 343.201045 118.20142 
L 343.441955 118.177221 
L 343.645803 118.199308 
L 343.886713 118.166205 
L 344.127623 118.216199 
L 344.479723 118.227161 
L 344.609444 118.321984 
L 344.924481 118.330162 
L 345.183923 118.230344 
L 345.406302 118.287272 
L 345.665743 118.244511 
L 345.851059 118.272144 
L 346.110501 118.22923 
L 346.295817 118.256755 
L 346.555259 118.211495 
L 346.740574 118.241113 
L 347.000016 118.197893 
L 347.222395 118.21523 
L 347.481837 118.138414 
L 347.667153 118.13339 
L 347.889532 118.034924 
L 348.019253 118.192849 
L 348.278695 118.013559 
L 349.149678 117.856748 
L 349.260868 117.880076 
L 349.40912 117.861787 
L 349.631499 117.74639 
L 349.76122 117.918458 
L 349.853878 117.861284 
L 350.11332 117.770064 
L 350.372762 117.857642 
L 350.873114 117.95692 
L 351.447593 117.982975 
L 351.632908 118.048721 
L 351.89235 118.051378 
L 352.077666 118.119246 
L 352.337108 118.120049 
L 352.540955 118.175313 
L 352.781866 118.184551 
L 352.967181 118.251717 
L 353.226623 118.250055 
L 353.486065 118.35676 
L 354.004949 118.491226 
L 354.171733 118.520508 
L 354.319986 118.533465 
L 354.375581 118.522365 
L 354.449707 118.650578 
L 354.48677 118.618751 
L 354.579428 118.668844 
L 354.764744 118.722778 
L 354.987122 118.729324 
L 355.209501 118.817292 
L 355.450412 118.846089 
L 355.765448 119.024731 
L 355.987827 119.118394 
L 356.099016 119.093291 
L 356.339927 119.123595 
L 356.580837 119.142429 
L 357.266505 119.037201 
L 357.359163 119.089061 
L 357.396226 119.03839 
L 357.692731 118.964461 
L 357.878047 118.949509 
L 358.100426 118.871145 
L 358.304273 118.900558 
L 358.563715 118.821075 
L 358.693436 118.897159 
L 358.730499 118.850153 
L 359.027004 118.771744 
L 359.193788 118.772498 
L 359.45323 118.690589 
L 359.675609 118.755855 
L 359.935051 118.726834 
L 360.120367 118.761582 
L 360.379809 118.735929 
L 360.546593 118.733055 
L 360.787503 118.702115 
L 360.972819 118.744399 
L 361.232261 118.703686 
L 361.417577 118.74392 
L 361.677019 118.702998 
L 361.862334 118.743099 
L 362.158839 118.683082 
L 362.307092 118.661002 
L 362.585065 118.575931 
L 362.770381 118.58384 
L 362.807444 118.676862 
L 362.844507 118.668961 
L 363.196607 118.602492 
L 363.696959 118.424806 
L 365.327737 118.196157 
L 365.420395 118.138835 
L 365.679837 118.051268 
L 365.920748 118.081917 
L 366.272847 118.079273 
L 366.328442 118.181994 
L 366.384037 118.158799 
L 366.7732 118.11249 
L 367.01411 118.061482 
L 367.199426 118.084367 
L 367.440336 118.006338 
L 367.570057 118.191022 
L 367.810968 118.081748 
L 367.866562 118.038413 
L 367.922157 118.083815 
L 368.107473 118.07785 
L 368.348383 118.026558 
L 368.533699 118.04922 
L 368.793141 117.984735 
L 369.034051 118.014713 
L 369.719719 117.950055 
L 369.867972 117.944162 
L 370.127414 117.879148 
L 370.312729 117.901359 
L 370.572171 117.836186 
L 370.757487 117.858278 
L 371.016929 117.792917 
L 371.202245 117.814889 
L 371.461687 117.749351 
L 371.647002 117.77119 
L 371.906444 117.705419 
L 372.258544 117.894948 
L 372.277076 117.866312 
L 372.388265 117.898339 
L 372.610644 117.945836 
L 372.999807 117.979227 
L 373.240717 117.984072 
L 373.444564 118.03296 
L 373.685475 118.037686 
L 373.889322 118.086525 
L 374.130232 118.09123 
L 374.33408 118.140021 
L 374.57499 118.144658 
L 374.778837 118.193391 
L 375.019748 118.197951 
L 375.27919 118.253717 
L 375.798074 118.292081 
L 375.964858 118.289345 
L 376.2243 118.367948 
L 376.446678 118.420854 
L 376.557868 118.375446 
L 376.798778 118.355003 
L 376.984094 118.397131 
L 377.243536 118.366251 
L 377.428852 118.392413 
L 377.688294 118.339169 
L 377.873609 118.365235 
L 378.133051 118.311832 
L 378.392493 118.363322 
L 378.911377 118.395199 
L 379.078161 118.387874 
L 379.226414 118.37039 
L 379.467324 118.348832 
L 379.65264 118.386527 
L 379.912082 118.354735 
L 380.097397 118.392372 
L 380.356839 118.36049 
L 380.542155 118.398058 
L 380.59775 118.366036 
L 380.616281 118.469144 
L 381.172228 118.56145 
L 381.264886 118.6189 
L 381.579923 118.800698 
L 381.746707 118.802757 
L 381.932023 118.824369 
L 382.506501 118.80293 
L 382.654754 119.023055 
L 382.784475 118.996371 
L 383.006854 118.968873 
L 383.229232 119.03224 
L 383.451611 119.00458 
L 383.67399 119.067771 
L 383.896369 119.042386 
L 384.118748 119.120514 
L 384.248469 119.187699 
L 384.452316 119.373386 
L 385.137984 120.011998 
L 385.508615 120.318546 
L 386.50932 121.284201 
L 386.620509 121.404405 
L 386.954078 121.680865 
L 387.065267 121.801076 
L 387.398835 122.077574 
L 387.510025 122.194082 
L 388.065972 122.757104 
L 390.030318 124.504755 
L 391.031023 130.072589 
L 391.031023 130.072589 
" clip-path="url(#pc7de1716eb)" style="fill: none; stroke: #1f77b4; stroke-width: 1.5; stroke-linecap: square"/>
   </g>
   <g id="line2d_20">
    <path clip-path="url(#pc7de1716eb)" style="fill: none; stroke: #000000; stroke-width: 1.5; stroke-linecap: square"/>
   </g>
   <g id="line2d_21">
    <path d="M 50.14375 34.414125 
L 407.26375 34.414125 
" clip-path="url(#pc7de1716eb)" style="fill: none; stroke: #ff0000; stroke-width: 1.5; stroke-linecap: square"/>
   </g>
   <g id="line2d_22">
    <path d="M 50.14375 67.173873 
L 407.26375 67.173873 
" clip-path="url(#pc7de1716eb)" style="fill: none; stroke-dasharray: 5.55,2.4; stroke-dashoffset: 0; stroke: #ff00ff; stroke-width: 1.5"/>
   </g>
   <g id="patch_3">
    <path d="M 50.14375 288.430125 
L 50.14375 22.318125 
" style="fill: none; stroke: #000000; stroke-width: 0.8; stroke-linejoin: miter; stroke-linecap: square"/>
   </g>
   <g id="patch_4">
    <path d="M 407.26375 288.430125 
L 407.26375 22.318125 
" style="fill: none; stroke: #000000; stroke-width: 0.8; stroke-linejoin: miter; stroke-linecap: square"/>
   </g>
   <g id="patch_5">
    <path d="M 50.14375 288.430125 
L 407.26375 288.430125 
" style="fill: none; stroke: #000000; stroke-width: 0.8; stroke-linejoin: miter; stroke-linecap: square"/>
   </g>
   <g id="patch_6">
    <path d="M 50.14375 22.318125 
L 407.26375 22.318125 
" style="fill: none; stroke: #000000; stroke-width: 0.8; stroke-linejoin: miter; stroke-linecap: square"/>
   </g>
   <g id="text_22">
    <!-- loc_techs_store = Moz-North-Center::storageD -->
    <g transform="translate(89.127813 16.318125)scale(0.12 -0.12)">
     <defs>
      <path id="DejaVuSans-6c" d="M 603 4863 
L 1178 4863 
L 1178 0 
L 603 0 
L 603 4863 
z
" transform="scale(0.015625)"/>
      <path id="DejaVuSans-63" d="M 3122 3366 
L 3122 2828 
Q 2878 2963 2633 3030 
Q 2388 3097 2138 3097 
Q 1578 3097 1268 2742 
Q 959 2388 959 1747 
Q 959 1106 1268 751 
Q 1578 397 2138 397 
Q 2388 397 2633 464 
Q 2878 531 3122 666 
L 3122 134 
Q 2881 22 2623 -34 
Q 2366 -91 2075 -91 
Q 1284 -91 818 406 
Q 353 903 353 1747 
Q 353 2603 823 3093 
Q 1294 3584 2113 3584 
Q 2378 3584 2631 3529 
Q 2884 3475 3122 3366 
z
" transform="scale(0.015625)"/>
      <path id="DejaVuSans-5f" d="M 3263 -1063 
L 3263 -1509 
L -63 -1509 
L -63 -1063 
L 3263 -1063 
z
" transform="scale(0.015625)"/>
      <path id="DejaVuSans-68" d="M 3513 2113 
L 3513 0 
L 2938 0 
L 2938 2094 
Q 2938 2591 2744 2837 
Q 2550 3084 2163 3084 
Q 1697 3084 1428 2787 
Q 1159 2491 1159 1978 
L 1159 0 
L 581 0 
L 581 4863 
L 1159 4863 
L 1159 2956 
Q 1366 3272 1645 3428 
Q 1925 3584 2291 3584 
Q 2894 3584 3203 3211 
Q 3513 2838 3513 2113 
z
" transform="scale(0.015625)"/>
      <path id="DejaVuSans-20" transform="scale(0.015625)"/>
      <path id="DejaVuSans-3d" d="M 678 2906 
L 4684 2906 
L 4684 2381 
L 678 2381 
L 678 2906 
z
M 678 1631 
L 4684 1631 
L 4684 1100 
L 678 1100 
L 678 1631 
z
" transform="scale(0.015625)"/>
      <path id="DejaVuSans-4d" d="M 628 4666 
L 1569 4666 
L 2759 1491 
L 3956 4666 
L 4897 4666 
L 4897 0 
L 4281 0 
L 4281 4097 
L 3078 897 
L 2444 897 
L 1241 4097 
L 1241 0 
L 628 0 
L 628 4666 
z
" transform="scale(0.015625)"/>
      <path id="DejaVuSans-7a" d="M 353 3500 
L 3084 3500 
L 3084 2975 
L 922 459 
L 3084 459 
L 3084 0 
L 275 0 
L 275 525 
L 2438 3041 
L 353 3041 
L 353 3500 
z
" transform="scale(0.015625)"/>
      <path id="DejaVuSans-4e" d="M 628 4666 
L 1478 4666 
L 3547 763 
L 3547 4666 
L 4159 4666 
L 4159 0 
L 3309 0 
L 1241 3903 
L 1241 0 
L 628 0 
L 628 4666 
z
" transform="scale(0.015625)"/>
      <path id="DejaVuSans-43" d="M 4122 4306 
L 4122 3641 
Q 3803 3938 3442 4084 
Q 3081 4231 2675 4231 
Q 1875 4231 1450 3742 
Q 1025 3253 1025 2328 
Q 1025 1406 1450 917 
Q 1875 428 2675 428 
Q 3081 428 3442 575 
Q 3803 722 4122 1019 
L 4122 359 
Q 3791 134 3420 21 
Q 3050 -91 2638 -91 
Q 1578 -91 968 557 
Q 359 1206 359 2328 
Q 359 3453 968 4101 
Q 1578 4750 2638 4750 
Q 3056 4750 3426 4639 
Q 3797 4528 4122 4306 
z
" transform="scale(0.015625)"/>
      <path id="DejaVuSans-6e" d="M 3513 2113 
L 3513 0 
L 2938 0 
L 2938 2094 
Q 2938 2591 2744 2837 
Q 2550 3084 2163 3084 
Q 1697 3084 1428 2787 
Q 1159 2491 1159 1978 
L 1159 0 
L 581 0 
L 581 3500 
L 1159 3500 
L 1159 2956 
Q 1366 3272 1645 3428 
Q 1925 3584 2291 3584 
Q 2894 3584 3203 3211 
Q 3513 2838 3513 2113 
z
" transform="scale(0.015625)"/>
      <path id="DejaVuSans-3a" d="M 750 794 
L 1409 794 
L 1409 0 
L 750 0 
L 750 794 
z
M 750 3309 
L 1409 3309 
L 1409 2516 
L 750 2516 
L 750 3309 
z
" transform="scale(0.015625)"/>
      <path id="DejaVuSans-44" d="M 1259 4147 
L 1259 519 
L 2022 519 
Q 2988 519 3436 956 
Q 3884 1394 3884 2338 
Q 3884 3275 3436 3711 
Q 2988 4147 2022 4147 
L 1259 4147 
z
M 628 4666 
L 1925 4666 
Q 3281 4666 3915 4102 
Q 4550 3538 4550 2338 
Q 4550 1131 3912 565 
Q 3275 0 1925 0 
L 628 0 
L 628 4666 
z
" transform="scale(0.015625)"/>
     </defs>
     <use xlink:href="#DejaVuSans-6c"/>
     <use xlink:href="#DejaVuSans-6f" x="27.783203"/>
     <use xlink:href="#DejaVuSans-63" x="88.964844"/>
     <use xlink:href="#DejaVuSans-5f" x="143.945312"/>
     <use xlink:href="#DejaVuSans-74" x="193.945312"/>
     <use xlink:href="#DejaVuSans-65" x="233.154297"/>
     <use xlink:href="#DejaVuSans-63" x="294.677734"/>
     <use xlink:href="#DejaVuSans-68" x="349.658203"/>
     <use xlink:href="#DejaVuSans-73" x="413.037109"/>
     <use xlink:href="#DejaVuSans-5f" x="465.136719"/>
     <use xlink:href="#DejaVuSans-73" x="515.136719"/>
     <use xlink:href="#DejaVuSans-74" x="567.236328"/>
     <use xlink:href="#DejaVuSans-6f" x="606.445312"/>
     <use xlink:href="#DejaVuSans-72" x="667.626953"/>
     <use xlink:href="#DejaVuSans-65" x="706.490234"/>
     <use xlink:href="#DejaVuSans-20" x="768.013672"/>
     <use xlink:href="#DejaVuSans-3d" x="799.800781"/>
     <use xlink:href="#DejaVuSans-20" x="883.589844"/>
     <use xlink:href="#DejaVuSans-4d" x="915.376953"/>
     <use xlink:href="#DejaVuSans-6f" x="1001.65625"/>
     <use xlink:href="#DejaVuSans-7a" x="1062.837891"/>
     <use xlink:href="#DejaVuSans-2d" x="1115.328125"/>
     <use xlink:href="#DejaVuSans-4e" x="1151.412109"/>
     <use xlink:href="#DejaVuSans-6f" x="1226.216797"/>
     <use xlink:href="#DejaVuSans-72" x="1287.398438"/>
     <use xlink:href="#DejaVuSans-74" x="1328.511719"/>
     <use xlink:href="#DejaVuSans-68" x="1367.720703"/>
     <use xlink:href="#DejaVuSans-2d" x="1431.099609"/>
     <use xlink:href="#DejaVuSans-43" x="1467.183594"/>
     <use xlink:href="#DejaVuSans-65" x="1537.007812"/>
     <use xlink:href="#DejaVuSans-6e" x="1598.53125"/>
     <use xlink:href="#DejaVuSans-74" x="1661.910156"/>
     <use xlink:href="#DejaVuSans-65" x="1701.119141"/>
     <use xlink:href="#DejaVuSans-72" x="1762.642578"/>
     <use xlink:href="#DejaVuSans-3a" x="1802.005859"/>
     <use xlink:href="#DejaVuSans-3a" x="1835.697266"/>
     <use xlink:href="#DejaVuSans-73" x="1869.388672"/>
     <use xlink:href="#DejaVuSans-74" x="1921.488281"/>
     <use xlink:href="#DejaVuSans-6f" x="1960.697266"/>
     <use xlink:href="#DejaVuSans-72" x="2021.878906"/>
     <use xlink:href="#DejaVuSans-61" x="2062.992188"/>
     <use xlink:href="#DejaVuSans-67" x="2124.271484"/>
     <use xlink:href="#DejaVuSans-65" x="2187.748047"/>
     <use xlink:href="#DejaVuSans-44" x="2249.271484"/>
    </g>
   </g>
   <g id="legend_1">
    <g id="patch_7">
     <path d="M 428.54855 89.865 
L 552.29855 89.865 
Q 554.29855 89.865 554.29855 87.865 
L 554.29855 29.318125 
Q 554.29855 27.318125 552.29855 27.318125 
L 428.54855 27.318125 
Q 426.54855 27.318125 426.54855 29.318125 
L 426.54855 87.865 
Q 426.54855 89.865 428.54855 89.865 
z
" style="fill: #ffffff; opacity: 0.8; stroke: #cccccc; stroke-linejoin: miter"/>
    </g>
    <g id="line2d_23">
     <path d="M 430.54855 35.416562 
L 440.54855 35.416562 
L 450.54855 35.416562 
" style="fill: none; stroke: #1f77b4; stroke-width: 1.5; stroke-linecap: square"/>
    </g>
    <g id="text_23">
     <!-- Storage -->
     <g transform="translate(458.54855 38.916562)scale(0.1 -0.1)">
      <defs>
       <path id="DejaVuSans-53" d="M 3425 4513 
L 3425 3897 
Q 3066 4069 2747 4153 
Q 2428 4238 2131 4238 
Q 1616 4238 1336 4038 
Q 1056 3838 1056 3469 
Q 1056 3159 1242 3001 
Q 1428 2844 1947 2747 
L 2328 2669 
Q 3034 2534 3370 2195 
Q 3706 1856 3706 1288 
Q 3706 609 3251 259 
Q 2797 -91 1919 -91 
Q 1588 -91 1214 -16 
Q 841 59 441 206 
L 441 856 
Q 825 641 1194 531 
Q 1563 422 1919 422 
Q 2459 422 2753 634 
Q 3047 847 3047 1241 
Q 3047 1584 2836 1778 
Q 2625 1972 2144 2069 
L 1759 2144 
Q 1053 2284 737 2584 
Q 422 2884 422 3419 
Q 422 4038 858 4394 
Q 1294 4750 2059 4750 
Q 2388 4750 2728 4690 
Q 3069 4631 3425 4513 
z
" transform="scale(0.015625)"/>
      </defs>
      <use xlink:href="#DejaVuSans-53"/>
      <use xlink:href="#DejaVuSans-74" x="63.476562"/>
      <use xlink:href="#DejaVuSans-6f" x="102.685547"/>
      <use xlink:href="#DejaVuSans-72" x="163.867188"/>
      <use xlink:href="#DejaVuSans-61" x="204.980469"/>
      <use xlink:href="#DejaVuSans-67" x="266.259766"/>
      <use xlink:href="#DejaVuSans-65" x="329.736328"/>
     </g>
    </g>
    <g id="line2d_24">
     <path d="M 430.54855 50.094687 
L 440.54855 50.094687 
L 450.54855 50.094687 
" style="fill: none; stroke: #000000; stroke-width: 1.5; stroke-linecap: square"/>
    </g>
    <g id="text_24">
     <!-- Storage_cap_max -->
     <g transform="translate(458.54855 53.594687)scale(0.1 -0.1)">
      <defs>
       <path id="DejaVuSans-78" d="M 3513 3500 
L 2247 1797 
L 3578 0 
L 2900 0 
L 1881 1375 
L 863 0 
L 184 0 
L 1544 1831 
L 300 3500 
L 978 3500 
L 1906 2253 
L 2834 3500 
L 3513 3500 
z
" transform="scale(0.015625)"/>
      </defs>
      <use xlink:href="#DejaVuSans-53"/>
      <use xlink:href="#DejaVuSans-74" x="63.476562"/>
      <use xlink:href="#DejaVuSans-6f" x="102.685547"/>
      <use xlink:href="#DejaVuSans-72" x="163.867188"/>
      <use xlink:href="#DejaVuSans-61" x="204.980469"/>
      <use xlink:href="#DejaVuSans-67" x="266.259766"/>
      <use xlink:href="#DejaVuSans-65" x="329.736328"/>
      <use xlink:href="#DejaVuSans-5f" x="391.259766"/>
      <use xlink:href="#DejaVuSans-63" x="441.259766"/>
      <use xlink:href="#DejaVuSans-61" x="496.240234"/>
      <use xlink:href="#DejaVuSans-70" x="557.519531"/>
      <use xlink:href="#DejaVuSans-5f" x="620.996094"/>
      <use xlink:href="#DejaVuSans-6d" x="670.996094"/>
      <use xlink:href="#DejaVuSans-61" x="768.408203"/>
      <use xlink:href="#DejaVuSans-78" x="829.6875"/>
     </g>
    </g>
    <g id="line2d_25">
     <path d="M 430.54855 65.050937 
L 440.54855 65.050937 
L 450.54855 65.050937 
" style="fill: none; stroke: #ff0000; stroke-width: 1.5; stroke-linecap: square"/>
    </g>
    <g id="text_25">
     <!-- Storage_cap -->
     <g transform="translate(458.54855 68.550937)scale(0.1 -0.1)">
      <use xlink:href="#DejaVuSans-53"/>
      <use xlink:href="#DejaVuSans-74" x="63.476562"/>
      <use xlink:href="#DejaVuSans-6f" x="102.685547"/>
      <use xlink:href="#DejaVuSans-72" x="163.867188"/>
      <use xlink:href="#DejaVuSans-61" x="204.980469"/>
      <use xlink:href="#DejaVuSans-67" x="266.259766"/>
      <use xlink:href="#DejaVuSans-65" x="329.736328"/>
      <use xlink:href="#DejaVuSans-5f" x="391.259766"/>
      <use xlink:href="#DejaVuSans-63" x="441.259766"/>
      <use xlink:href="#DejaVuSans-61" x="496.240234"/>
      <use xlink:href="#DejaVuSans-70" x="557.519531"/>
     </g>
    </g>
    <g id="line2d_26">
     <path d="M 430.54855 80.007187 
L 440.54855 80.007187 
L 450.54855 80.007187 
" style="fill: none; stroke-dasharray: 5.55,2.4; stroke-dashoffset: 0; stroke: #ff00ff; stroke-width: 1.5"/>
    </g>
    <g id="text_26">
     <!-- Spillage_threshold -->
     <g transform="translate(458.54855 83.507187)scale(0.1 -0.1)">
      <defs>
       <path id="DejaVuSans-64" d="M 2906 2969 
L 2906 4863 
L 3481 4863 
L 3481 0 
L 2906 0 
L 2906 525 
Q 2725 213 2448 61 
Q 2172 -91 1784 -91 
Q 1150 -91 751 415 
Q 353 922 353 1747 
Q 353 2572 751 3078 
Q 1150 3584 1784 3584 
Q 2172 3584 2448 3432 
Q 2725 3281 2906 2969 
z
M 947 1747 
Q 947 1113 1208 752 
Q 1469 391 1925 391 
Q 2381 391 2643 752 
Q 2906 1113 2906 1747 
Q 2906 2381 2643 2742 
Q 2381 3103 1925 3103 
Q 1469 3103 1208 2742 
Q 947 2381 947 1747 
z
" transform="scale(0.015625)"/>
      </defs>
      <use xlink:href="#DejaVuSans-53"/>
      <use xlink:href="#DejaVuSans-70" x="63.476562"/>
      <use xlink:href="#DejaVuSans-69" x="126.953125"/>
      <use xlink:href="#DejaVuSans-6c" x="154.736328"/>
      <use xlink:href="#DejaVuSans-6c" x="182.519531"/>
      <use xlink:href="#DejaVuSans-61" x="210.302734"/>
      <use xlink:href="#DejaVuSans-67" x="271.582031"/>
      <use xlink:href="#DejaVuSans-65" x="335.058594"/>
      <use xlink:href="#DejaVuSans-5f" x="396.582031"/>
      <use xlink:href="#DejaVuSans-74" x="446.582031"/>
      <use xlink:href="#DejaVuSans-68" x="485.791016"/>
      <use xlink:href="#DejaVuSans-72" x="549.169922"/>
      <use xlink:href="#DejaVuSans-65" x="588.033203"/>
      <use xlink:href="#DejaVuSans-73" x="649.556641"/>
      <use xlink:href="#DejaVuSans-68" x="701.65625"/>
      <use xlink:href="#DejaVuSans-6f" x="765.035156"/>
      <use xlink:href="#DejaVuSans-6c" x="826.216797"/>
      <use xlink:href="#DejaVuSans-64" x="854"/>
     </g>
    </g>
   </g>
  </g>
 </g>
 <defs>
  <clipPath id="pc7de1716eb">
   <rect x="50.14375" y="22.318125" width="357.12" height="266.112"/>
  </clipPath>
 </defs>
</svg>
