<?xml version="1.0" encoding="utf-8" standalone="no"?>
<!DOCTYPE svg PUBLIC "-//W3C//DTD SVG 1.1//EN"
  "http://www.w3.org/Graphics/SVG/1.1/DTD/svg11.dtd">
<svg xmlns:xlink="http://www.w3.org/1999/xlink" width="555.13605pt" height="345.581158pt" viewBox="0 0 555.13605 345.581158" xmlns="http://www.w3.org/2000/svg" version="1.1">
 <metadata>
  <rdf:RDF xmlns:dc="http://purl.org/dc/elements/1.1/" xmlns:cc="http://creativecommons.org/ns#" xmlns:rdf="http://www.w3.org/1999/02/22-rdf-syntax-ns#">
   <cc:Work>
    <dc:type rdf:resource="http://purl.org/dc/dcmitype/StillImage"/>
    <dc:date>2022-05-09T22:23:02.788428</dc:date>
    <dc:format>image/svg+xml</dc:format>
    <dc:creator>
     <cc:Agent>
      <dc:title>Matplotlib v3.5.1, https://matplotlib.org/</dc:title>
     </cc:Agent>
    </dc:creator>
   </cc:Work>
  </rdf:RDF>
 </metadata>
 <defs>
  <style type="text/css">*{stroke-linejoin: round; stroke-linecap: butt}</style>
 </defs>
 <g id="figure_1">
  <g id="patch_1">
   <path d="M 0 345.581158 
L 555.13605 345.581158 
L 555.13605 0 
L 0 0 
z
" style="fill: #ffffff"/>
  </g>
  <g id="axes_1">
   <g id="patch_2">
    <path d="M 43.78125 288.430125 
L 400.90125 288.430125 
L 400.90125 22.318125 
L 43.78125 22.318125 
z
" style="fill: #ffffff"/>
   </g>
   <g id="matplotlib.axis_1">
    <g id="xtick_1">
     <g id="line2d_1">
      <defs>
       <path id="m172ea07be1" d="M 0 0 
L 0 3.5 
" style="stroke: #000000; stroke-width: 0.8"/>
      </defs>
      <g>
       <use xlink:href="#m172ea07be1" x="60.013977" y="288.430125" style="stroke: #000000; stroke-width: 0.8"/>
      </g>
     </g>
     <g id="text_1">
      <!-- 2005-01 -->
      <g transform="translate(22.789156 322.901971)rotate(-30)scale(0.1 -0.1)">
       <defs>
        <path id="DejaVuSans-32" d="M 1228 531 
L 3431 531 
L 3431 0 
L 469 0 
L 469 531 
Q 828 903 1448 1529 
Q 2069 2156 2228 2338 
Q 2531 2678 2651 2914 
Q 2772 3150 2772 3378 
Q 2772 3750 2511 3984 
Q 2250 4219 1831 4219 
Q 1534 4219 1204 4116 
Q 875 4013 500 3803 
L 500 4441 
Q 881 4594 1212 4672 
Q 1544 4750 1819 4750 
Q 2544 4750 2975 4387 
Q 3406 4025 3406 3419 
Q 3406 3131 3298 2873 
Q 3191 2616 2906 2266 
Q 2828 2175 2409 1742 
Q 1991 1309 1228 531 
z
" transform="scale(0.015625)"/>
        <path id="DejaVuSans-30" d="M 2034 4250 
Q 1547 4250 1301 3770 
Q 1056 3291 1056 2328 
Q 1056 1369 1301 889 
Q 1547 409 2034 409 
Q 2525 409 2770 889 
Q 3016 1369 3016 2328 
Q 3016 3291 2770 3770 
Q 2525 4250 2034 4250 
z
M 2034 4750 
Q 2819 4750 3233 4129 
Q 3647 3509 3647 2328 
Q 3647 1150 3233 529 
Q 2819 -91 2034 -91 
Q 1250 -91 836 529 
Q 422 1150 422 2328 
Q 422 3509 836 4129 
Q 1250 4750 2034 4750 
z
" transform="scale(0.015625)"/>
        <path id="DejaVuSans-35" d="M 691 4666 
L 3169 4666 
L 3169 4134 
L 1269 4134 
L 1269 2991 
Q 1406 3038 1543 3061 
Q 1681 3084 1819 3084 
Q 2600 3084 3056 2656 
Q 3513 2228 3513 1497 
Q 3513 744 3044 326 
Q 2575 -91 1722 -91 
Q 1428 -91 1123 -41 
Q 819 9 494 109 
L 494 744 
Q 775 591 1075 516 
Q 1375 441 1709 441 
Q 2250 441 2565 725 
Q 2881 1009 2881 1497 
Q 2881 1984 2565 2268 
Q 2250 2553 1709 2553 
Q 1456 2553 1204 2497 
Q 953 2441 691 2322 
L 691 4666 
z
" transform="scale(0.015625)"/>
        <path id="DejaVuSans-2d" d="M 313 2009 
L 1997 2009 
L 1997 1497 
L 313 1497 
L 313 2009 
z
" transform="scale(0.015625)"/>
        <path id="DejaVuSans-31" d="M 794 531 
L 1825 531 
L 1825 4091 
L 703 3866 
L 703 4441 
L 1819 4666 
L 2450 4666 
L 2450 531 
L 3481 531 
L 3481 0 
L 794 0 
L 794 531 
z
" transform="scale(0.015625)"/>
       </defs>
       <use xlink:href="#DejaVuSans-32"/>
       <use xlink:href="#DejaVuSans-30" x="63.623047"/>
       <use xlink:href="#DejaVuSans-30" x="127.246094"/>
       <use xlink:href="#DejaVuSans-35" x="190.869141"/>
       <use xlink:href="#DejaVuSans-2d" x="254.492188"/>
       <use xlink:href="#DejaVuSans-30" x="290.576172"/>
       <use xlink:href="#DejaVuSans-31" x="354.199219"/>
      </g>
     </g>
    </g>
    <g id="xtick_2">
     <g id="line2d_2">
      <g>
       <use xlink:href="#m172ea07be1" x="100.042165" y="288.430125" style="stroke: #000000; stroke-width: 0.8"/>
      </g>
     </g>
     <g id="text_2">
      <!-- 2005-04 -->
      <g transform="translate(62.817344 322.901971)rotate(-30)scale(0.1 -0.1)">
       <defs>
        <path id="DejaVuSans-34" d="M 2419 4116 
L 825 1625 
L 2419 1625 
L 2419 4116 
z
M 2253 4666 
L 3047 4666 
L 3047 1625 
L 3713 1625 
L 3713 1100 
L 3047 1100 
L 3047 0 
L 2419 0 
L 2419 1100 
L 313 1100 
L 313 1709 
L 2253 4666 
z
" transform="scale(0.015625)"/>
       </defs>
       <use xlink:href="#DejaVuSans-32"/>
       <use xlink:href="#DejaVuSans-30" x="63.623047"/>
       <use xlink:href="#DejaVuSans-30" x="127.246094"/>
       <use xlink:href="#DejaVuSans-35" x="190.869141"/>
       <use xlink:href="#DejaVuSans-2d" x="254.492188"/>
       <use xlink:href="#DejaVuSans-30" x="290.576172"/>
       <use xlink:href="#DejaVuSans-34" x="354.199219"/>
      </g>
     </g>
    </g>
    <g id="xtick_3">
     <g id="line2d_3">
      <g>
       <use xlink:href="#m172ea07be1" x="140.51511" y="288.430125" style="stroke: #000000; stroke-width: 0.8"/>
      </g>
     </g>
     <g id="text_3">
      <!-- 2005-07 -->
      <g transform="translate(103.290289 322.901971)rotate(-30)scale(0.1 -0.1)">
       <defs>
        <path id="DejaVuSans-37" d="M 525 4666 
L 3525 4666 
L 3525 4397 
L 1831 0 
L 1172 0 
L 2766 4134 
L 525 4134 
L 525 4666 
z
" transform="scale(0.015625)"/>
       </defs>
       <use xlink:href="#DejaVuSans-32"/>
       <use xlink:href="#DejaVuSans-30" x="63.623047"/>
       <use xlink:href="#DejaVuSans-30" x="127.246094"/>
       <use xlink:href="#DejaVuSans-35" x="190.869141"/>
       <use xlink:href="#DejaVuSans-2d" x="254.492188"/>
       <use xlink:href="#DejaVuSans-30" x="290.576172"/>
       <use xlink:href="#DejaVuSans-37" x="354.199219"/>
      </g>
     </g>
    </g>
    <g id="xtick_4">
     <g id="line2d_4">
      <g>
       <use xlink:href="#m172ea07be1" x="181.432813" y="288.430125" style="stroke: #000000; stroke-width: 0.8"/>
      </g>
     </g>
     <g id="text_4">
      <!-- 2005-10 -->
      <g transform="translate(144.207992 322.901971)rotate(-30)scale(0.1 -0.1)">
       <use xlink:href="#DejaVuSans-32"/>
       <use xlink:href="#DejaVuSans-30" x="63.623047"/>
       <use xlink:href="#DejaVuSans-30" x="127.246094"/>
       <use xlink:href="#DejaVuSans-35" x="190.869141"/>
       <use xlink:href="#DejaVuSans-2d" x="254.492188"/>
       <use xlink:href="#DejaVuSans-31" x="290.576172"/>
       <use xlink:href="#DejaVuSans-30" x="354.199219"/>
      </g>
     </g>
    </g>
    <g id="xtick_5">
     <g id="line2d_5">
      <g>
       <use xlink:href="#m172ea07be1" x="222.350516" y="288.430125" style="stroke: #000000; stroke-width: 0.8"/>
      </g>
     </g>
     <g id="text_5">
      <!-- 2006-01 -->
      <g transform="translate(185.125695 322.901971)rotate(-30)scale(0.1 -0.1)">
       <defs>
        <path id="DejaVuSans-36" d="M 2113 2584 
Q 1688 2584 1439 2293 
Q 1191 2003 1191 1497 
Q 1191 994 1439 701 
Q 1688 409 2113 409 
Q 2538 409 2786 701 
Q 3034 994 3034 1497 
Q 3034 2003 2786 2293 
Q 2538 2584 2113 2584 
z
M 3366 4563 
L 3366 3988 
Q 3128 4100 2886 4159 
Q 2644 4219 2406 4219 
Q 1781 4219 1451 3797 
Q 1122 3375 1075 2522 
Q 1259 2794 1537 2939 
Q 1816 3084 2150 3084 
Q 2853 3084 3261 2657 
Q 3669 2231 3669 1497 
Q 3669 778 3244 343 
Q 2819 -91 2113 -91 
Q 1303 -91 875 529 
Q 447 1150 447 2328 
Q 447 3434 972 4092 
Q 1497 4750 2381 4750 
Q 2619 4750 2861 4703 
Q 3103 4656 3366 4563 
z
" transform="scale(0.015625)"/>
       </defs>
       <use xlink:href="#DejaVuSans-32"/>
       <use xlink:href="#DejaVuSans-30" x="63.623047"/>
       <use xlink:href="#DejaVuSans-30" x="127.246094"/>
       <use xlink:href="#DejaVuSans-36" x="190.869141"/>
       <use xlink:href="#DejaVuSans-2d" x="254.492188"/>
       <use xlink:href="#DejaVuSans-30" x="290.576172"/>
       <use xlink:href="#DejaVuSans-31" x="354.199219"/>
      </g>
     </g>
    </g>
    <g id="xtick_6">
     <g id="line2d_6">
      <g>
       <use xlink:href="#m172ea07be1" x="262.378703" y="288.430125" style="stroke: #000000; stroke-width: 0.8"/>
      </g>
     </g>
     <g id="text_6">
      <!-- 2006-04 -->
      <g transform="translate(225.153883 322.901971)rotate(-30)scale(0.1 -0.1)">
       <use xlink:href="#DejaVuSans-32"/>
       <use xlink:href="#DejaVuSans-30" x="63.623047"/>
       <use xlink:href="#DejaVuSans-30" x="127.246094"/>
       <use xlink:href="#DejaVuSans-36" x="190.869141"/>
       <use xlink:href="#DejaVuSans-2d" x="254.492188"/>
       <use xlink:href="#DejaVuSans-30" x="290.576172"/>
       <use xlink:href="#DejaVuSans-34" x="354.199219"/>
      </g>
     </g>
    </g>
    <g id="xtick_7">
     <g id="line2d_7">
      <g>
       <use xlink:href="#m172ea07be1" x="302.851649" y="288.430125" style="stroke: #000000; stroke-width: 0.8"/>
      </g>
     </g>
     <g id="text_7">
      <!-- 2006-07 -->
      <g transform="translate(265.626828 322.901971)rotate(-30)scale(0.1 -0.1)">
       <use xlink:href="#DejaVuSans-32"/>
       <use xlink:href="#DejaVuSans-30" x="63.623047"/>
       <use xlink:href="#DejaVuSans-30" x="127.246094"/>
       <use xlink:href="#DejaVuSans-36" x="190.869141"/>
       <use xlink:href="#DejaVuSans-2d" x="254.492188"/>
       <use xlink:href="#DejaVuSans-30" x="290.576172"/>
       <use xlink:href="#DejaVuSans-37" x="354.199219"/>
      </g>
     </g>
    </g>
    <g id="xtick_8">
     <g id="line2d_8">
      <g>
       <use xlink:href="#m172ea07be1" x="343.769351" y="288.430125" style="stroke: #000000; stroke-width: 0.8"/>
      </g>
     </g>
     <g id="text_8">
      <!-- 2006-10 -->
      <g transform="translate(306.544531 322.901971)rotate(-30)scale(0.1 -0.1)">
       <use xlink:href="#DejaVuSans-32"/>
       <use xlink:href="#DejaVuSans-30" x="63.623047"/>
       <use xlink:href="#DejaVuSans-30" x="127.246094"/>
       <use xlink:href="#DejaVuSans-36" x="190.869141"/>
       <use xlink:href="#DejaVuSans-2d" x="254.492188"/>
       <use xlink:href="#DejaVuSans-31" x="290.576172"/>
       <use xlink:href="#DejaVuSans-30" x="354.199219"/>
      </g>
     </g>
    </g>
    <g id="xtick_9">
     <g id="line2d_9">
      <g>
       <use xlink:href="#m172ea07be1" x="384.687054" y="288.430125" style="stroke: #000000; stroke-width: 0.8"/>
      </g>
     </g>
     <g id="text_9">
      <!-- 2007-01 -->
      <g transform="translate(347.462233 322.901971)rotate(-30)scale(0.1 -0.1)">
       <use xlink:href="#DejaVuSans-32"/>
       <use xlink:href="#DejaVuSans-30" x="63.623047"/>
       <use xlink:href="#DejaVuSans-30" x="127.246094"/>
       <use xlink:href="#DejaVuSans-37" x="190.869141"/>
       <use xlink:href="#DejaVuSans-2d" x="254.492188"/>
       <use xlink:href="#DejaVuSans-30" x="290.576172"/>
       <use xlink:href="#DejaVuSans-31" x="354.199219"/>
      </g>
     </g>
    </g>
    <g id="text_10">
     <!-- timesteps -->
     <g transform="translate(197.624844 336.301471)scale(0.1 -0.1)">
      <defs>
       <path id="DejaVuSans-74" d="M 1172 4494 
L 1172 3500 
L 2356 3500 
L 2356 3053 
L 1172 3053 
L 1172 1153 
Q 1172 725 1289 603 
Q 1406 481 1766 481 
L 2356 481 
L 2356 0 
L 1766 0 
Q 1100 0 847 248 
Q 594 497 594 1153 
L 594 3053 
L 172 3053 
L 172 3500 
L 594 3500 
L 594 4494 
L 1172 4494 
z
" transform="scale(0.015625)"/>
       <path id="DejaVuSans-69" d="M 603 3500 
L 1178 3500 
L 1178 0 
L 603 0 
L 603 3500 
z
M 603 4863 
L 1178 4863 
L 1178 4134 
L 603 4134 
L 603 4863 
z
" transform="scale(0.015625)"/>
       <path id="DejaVuSans-6d" d="M 3328 2828 
Q 3544 3216 3844 3400 
Q 4144 3584 4550 3584 
Q 5097 3584 5394 3201 
Q 5691 2819 5691 2113 
L 5691 0 
L 5113 0 
L 5113 2094 
Q 5113 2597 4934 2840 
Q 4756 3084 4391 3084 
Q 3944 3084 3684 2787 
Q 3425 2491 3425 1978 
L 3425 0 
L 2847 0 
L 2847 2094 
Q 2847 2600 2669 2842 
Q 2491 3084 2119 3084 
Q 1678 3084 1418 2786 
Q 1159 2488 1159 1978 
L 1159 0 
L 581 0 
L 581 3500 
L 1159 3500 
L 1159 2956 
Q 1356 3278 1631 3431 
Q 1906 3584 2284 3584 
Q 2666 3584 2933 3390 
Q 3200 3197 3328 2828 
z
" transform="scale(0.015625)"/>
       <path id="DejaVuSans-65" d="M 3597 1894 
L 3597 1613 
L 953 1613 
Q 991 1019 1311 708 
Q 1631 397 2203 397 
Q 2534 397 2845 478 
Q 3156 559 3463 722 
L 3463 178 
Q 3153 47 2828 -22 
Q 2503 -91 2169 -91 
Q 1331 -91 842 396 
Q 353 884 353 1716 
Q 353 2575 817 3079 
Q 1281 3584 2069 3584 
Q 2775 3584 3186 3129 
Q 3597 2675 3597 1894 
z
M 3022 2063 
Q 3016 2534 2758 2815 
Q 2500 3097 2075 3097 
Q 1594 3097 1305 2825 
Q 1016 2553 972 2059 
L 3022 2063 
z
" transform="scale(0.015625)"/>
       <path id="DejaVuSans-73" d="M 2834 3397 
L 2834 2853 
Q 2591 2978 2328 3040 
Q 2066 3103 1784 3103 
Q 1356 3103 1142 2972 
Q 928 2841 928 2578 
Q 928 2378 1081 2264 
Q 1234 2150 1697 2047 
L 1894 2003 
Q 2506 1872 2764 1633 
Q 3022 1394 3022 966 
Q 3022 478 2636 193 
Q 2250 -91 1575 -91 
Q 1294 -91 989 -36 
Q 684 19 347 128 
L 347 722 
Q 666 556 975 473 
Q 1284 391 1588 391 
Q 1994 391 2212 530 
Q 2431 669 2431 922 
Q 2431 1156 2273 1281 
Q 2116 1406 1581 1522 
L 1381 1569 
Q 847 1681 609 1914 
Q 372 2147 372 2553 
Q 372 3047 722 3315 
Q 1072 3584 1716 3584 
Q 2034 3584 2315 3537 
Q 2597 3491 2834 3397 
z
" transform="scale(0.015625)"/>
       <path id="DejaVuSans-70" d="M 1159 525 
L 1159 -1331 
L 581 -1331 
L 581 3500 
L 1159 3500 
L 1159 2969 
Q 1341 3281 1617 3432 
Q 1894 3584 2278 3584 
Q 2916 3584 3314 3078 
Q 3713 2572 3713 1747 
Q 3713 922 3314 415 
Q 2916 -91 2278 -91 
Q 1894 -91 1617 61 
Q 1341 213 1159 525 
z
M 3116 1747 
Q 3116 2381 2855 2742 
Q 2594 3103 2138 3103 
Q 1681 3103 1420 2742 
Q 1159 2381 1159 1747 
Q 1159 1113 1420 752 
Q 1681 391 2138 391 
Q 2594 391 2855 752 
Q 3116 1113 3116 1747 
z
" transform="scale(0.015625)"/>
      </defs>
      <use xlink:href="#DejaVuSans-74"/>
      <use xlink:href="#DejaVuSans-69" x="39.208984"/>
      <use xlink:href="#DejaVuSans-6d" x="66.992188"/>
      <use xlink:href="#DejaVuSans-65" x="164.404297"/>
      <use xlink:href="#DejaVuSans-73" x="225.927734"/>
      <use xlink:href="#DejaVuSans-74" x="278.027344"/>
      <use xlink:href="#DejaVuSans-65" x="317.236328"/>
      <use xlink:href="#DejaVuSans-70" x="378.759766"/>
      <use xlink:href="#DejaVuSans-73" x="442.236328"/>
     </g>
    </g>
   </g>
   <g id="matplotlib.axis_2">
    <g id="ytick_1">
     <g id="line2d_10">
      <defs>
       <path id="m8b507180ad" d="M 0 0 
L -3.5 0 
" style="stroke: #000000; stroke-width: 0.8"/>
      </defs>
      <g>
       <use xlink:href="#m8b507180ad" x="43.78125" y="282.633728" style="stroke: #000000; stroke-width: 0.8"/>
      </g>
     </g>
     <g id="text_11">
      <!-- 3.0 -->
      <g transform="translate(20.878125 286.432947)scale(0.1 -0.1)">
       <defs>
        <path id="DejaVuSans-33" d="M 2597 2516 
Q 3050 2419 3304 2112 
Q 3559 1806 3559 1356 
Q 3559 666 3084 287 
Q 2609 -91 1734 -91 
Q 1441 -91 1130 -33 
Q 819 25 488 141 
L 488 750 
Q 750 597 1062 519 
Q 1375 441 1716 441 
Q 2309 441 2620 675 
Q 2931 909 2931 1356 
Q 2931 1769 2642 2001 
Q 2353 2234 1838 2234 
L 1294 2234 
L 1294 2753 
L 1863 2753 
Q 2328 2753 2575 2939 
Q 2822 3125 2822 3475 
Q 2822 3834 2567 4026 
Q 2313 4219 1838 4219 
Q 1578 4219 1281 4162 
Q 984 4106 628 3988 
L 628 4550 
Q 988 4650 1302 4700 
Q 1616 4750 1894 4750 
Q 2613 4750 3031 4423 
Q 3450 4097 3450 3541 
Q 3450 3153 3228 2886 
Q 3006 2619 2597 2516 
z
" transform="scale(0.015625)"/>
        <path id="DejaVuSans-2e" d="M 684 794 
L 1344 794 
L 1344 0 
L 684 0 
L 684 794 
z
" transform="scale(0.015625)"/>
       </defs>
       <use xlink:href="#DejaVuSans-33"/>
       <use xlink:href="#DejaVuSans-2e" x="63.623047"/>
       <use xlink:href="#DejaVuSans-30" x="95.410156"/>
      </g>
     </g>
    </g>
    <g id="ytick_2">
     <g id="line2d_11">
      <g>
       <use xlink:href="#m8b507180ad" x="43.78125" y="225.440271" style="stroke: #000000; stroke-width: 0.8"/>
      </g>
     </g>
     <g id="text_12">
      <!-- 3.5 -->
      <g transform="translate(20.878125 229.23949)scale(0.1 -0.1)">
       <use xlink:href="#DejaVuSans-33"/>
       <use xlink:href="#DejaVuSans-2e" x="63.623047"/>
       <use xlink:href="#DejaVuSans-35" x="95.410156"/>
      </g>
     </g>
    </g>
    <g id="ytick_3">
     <g id="line2d_12">
      <g>
       <use xlink:href="#m8b507180ad" x="43.78125" y="168.246814" style="stroke: #000000; stroke-width: 0.8"/>
      </g>
     </g>
     <g id="text_13">
      <!-- 4.0 -->
      <g transform="translate(20.878125 172.046033)scale(0.1 -0.1)">
       <use xlink:href="#DejaVuSans-34"/>
       <use xlink:href="#DejaVuSans-2e" x="63.623047"/>
       <use xlink:href="#DejaVuSans-30" x="95.410156"/>
      </g>
     </g>
    </g>
    <g id="ytick_4">
     <g id="line2d_13">
      <g>
       <use xlink:href="#m8b507180ad" x="43.78125" y="111.053357" style="stroke: #000000; stroke-width: 0.8"/>
      </g>
     </g>
     <g id="text_14">
      <!-- 4.5 -->
      <g transform="translate(20.878125 114.852576)scale(0.1 -0.1)">
       <use xlink:href="#DejaVuSans-34"/>
       <use xlink:href="#DejaVuSans-2e" x="63.623047"/>
       <use xlink:href="#DejaVuSans-35" x="95.410156"/>
      </g>
     </g>
    </g>
    <g id="ytick_5">
     <g id="line2d_14">
      <g>
       <use xlink:href="#m8b507180ad" x="43.78125" y="53.8599" style="stroke: #000000; stroke-width: 0.8"/>
      </g>
     </g>
     <g id="text_15">
      <!-- 5.0 -->
      <g transform="translate(20.878125 57.659119)scale(0.1 -0.1)">
       <use xlink:href="#DejaVuSans-35"/>
       <use xlink:href="#DejaVuSans-2e" x="63.623047"/>
       <use xlink:href="#DejaVuSans-30" x="95.410156"/>
      </g>
     </g>
    </g>
    <g id="text_16">
     <!-- storage -->
     <g transform="translate(14.798438 174.368656)rotate(-90)scale(0.1 -0.1)">
      <defs>
       <path id="DejaVuSans-6f" d="M 1959 3097 
Q 1497 3097 1228 2736 
Q 959 2375 959 1747 
Q 959 1119 1226 758 
Q 1494 397 1959 397 
Q 2419 397 2687 759 
Q 2956 1122 2956 1747 
Q 2956 2369 2687 2733 
Q 2419 3097 1959 3097 
z
M 1959 3584 
Q 2709 3584 3137 3096 
Q 3566 2609 3566 1747 
Q 3566 888 3137 398 
Q 2709 -91 1959 -91 
Q 1206 -91 779 398 
Q 353 888 353 1747 
Q 353 2609 779 3096 
Q 1206 3584 1959 3584 
z
" transform="scale(0.015625)"/>
       <path id="DejaVuSans-72" d="M 2631 2963 
Q 2534 3019 2420 3045 
Q 2306 3072 2169 3072 
Q 1681 3072 1420 2755 
Q 1159 2438 1159 1844 
L 1159 0 
L 581 0 
L 581 3500 
L 1159 3500 
L 1159 2956 
Q 1341 3275 1631 3429 
Q 1922 3584 2338 3584 
Q 2397 3584 2469 3576 
Q 2541 3569 2628 3553 
L 2631 2963 
z
" transform="scale(0.015625)"/>
       <path id="DejaVuSans-61" d="M 2194 1759 
Q 1497 1759 1228 1600 
Q 959 1441 959 1056 
Q 959 750 1161 570 
Q 1363 391 1709 391 
Q 2188 391 2477 730 
Q 2766 1069 2766 1631 
L 2766 1759 
L 2194 1759 
z
M 3341 1997 
L 3341 0 
L 2766 0 
L 2766 531 
Q 2569 213 2275 61 
Q 1981 -91 1556 -91 
Q 1019 -91 701 211 
Q 384 513 384 1019 
Q 384 1609 779 1909 
Q 1175 2209 1959 2209 
L 2766 2209 
L 2766 2266 
Q 2766 2663 2505 2880 
Q 2244 3097 1772 3097 
Q 1472 3097 1187 3025 
Q 903 2953 641 2809 
L 641 3341 
Q 956 3463 1253 3523 
Q 1550 3584 1831 3584 
Q 2591 3584 2966 3190 
Q 3341 2797 3341 1997 
z
" transform="scale(0.015625)"/>
       <path id="DejaVuSans-67" d="M 2906 1791 
Q 2906 2416 2648 2759 
Q 2391 3103 1925 3103 
Q 1463 3103 1205 2759 
Q 947 2416 947 1791 
Q 947 1169 1205 825 
Q 1463 481 1925 481 
Q 2391 481 2648 825 
Q 2906 1169 2906 1791 
z
M 3481 434 
Q 3481 -459 3084 -895 
Q 2688 -1331 1869 -1331 
Q 1566 -1331 1297 -1286 
Q 1028 -1241 775 -1147 
L 775 -588 
Q 1028 -725 1275 -790 
Q 1522 -856 1778 -856 
Q 2344 -856 2625 -561 
Q 2906 -266 2906 331 
L 2906 616 
Q 2728 306 2450 153 
Q 2172 0 1784 0 
Q 1141 0 747 490 
Q 353 981 353 1791 
Q 353 2603 747 3093 
Q 1141 3584 1784 3584 
Q 2172 3584 2450 3431 
Q 2728 3278 2906 2969 
L 2906 3500 
L 3481 3500 
L 3481 434 
z
" transform="scale(0.015625)"/>
      </defs>
      <use xlink:href="#DejaVuSans-73"/>
      <use xlink:href="#DejaVuSans-74" x="52.099609"/>
      <use xlink:href="#DejaVuSans-6f" x="91.308594"/>
      <use xlink:href="#DejaVuSans-72" x="152.490234"/>
      <use xlink:href="#DejaVuSans-61" x="193.603516"/>
      <use xlink:href="#DejaVuSans-67" x="254.882812"/>
      <use xlink:href="#DejaVuSans-65" x="318.359375"/>
     </g>
    </g>
    <g id="text_17">
     <!-- 1e10 -->
     <g transform="translate(43.78125 19.318125)scale(0.1 -0.1)">
      <use xlink:href="#DejaVuSans-31"/>
      <use xlink:href="#DejaVuSans-65" x="63.623047"/>
      <use xlink:href="#DejaVuSans-31" x="125.146484"/>
      <use xlink:href="#DejaVuSans-30" x="188.769531"/>
     </g>
    </g>
   </g>
   <g id="line2d_15">
    <path d="M 60.013977 120.775033 
L 60.291951 121.631673 
L 60.421672 121.877905 
L 60.588456 122.196179 
L 60.718177 122.372777 
L 61.014682 123.315081 
L 61.070277 123.420765 
L 61.34825 124.283031 
L 61.422376 124.509083 
L 61.70035 125.41217 
L 61.755945 125.531027 
L 62.070981 126.566828 
L 62.145108 126.778466 
L 62.40455 127.571491 
L 62.441613 127.675455 
L 62.756649 128.725331 
L 62.849307 128.944084 
L 63.257002 130.440278 
L 63.312596 130.561394 
L 63.720291 132.074775 
L 63.812949 132.221729 
L 64.276238 134.001056 
L 64.350364 134.221826 
L 65.147222 137.728046 
L 65.184285 137.83775 
L 65.7217 139.985732 
L 65.758763 140.095566 
L 66.222053 141.878588 
L 66.314711 142.127674 
L 66.815063 144.081604 
L 66.889189 144.219906 
L 67.408073 146.280082 
L 67.482199 146.498492 
L 68.001083 148.557835 
L 68.075209 148.789431 
L 68.538499 150.562707 
L 68.612625 150.786265 
L 69.168572 153.042126 
L 69.224167 153.248296 
L 69.780114 155.491 
L 69.85424 155.798667 
L 70.44725 158.219298 
L 70.502845 158.425394 
L 71.15145 161.12215 
L 71.225576 161.432167 
L 71.651802 163.010362 
L 71.762992 163.353482 
L 72.281876 165.416201 
L 72.393065 165.758505 
L 72.819291 167.381182 
L 72.856354 167.480534 
L 73.226985 168.814489 
L 73.301112 168.939763 
L 73.653212 170.166668 
L 73.690275 170.274872 
L 73.912654 170.975093 
L 73.931185 170.953626 
L 73.949717 170.93842 
L 73.968248 171.031485 
L 74.283285 172.118009 
L 74.357411 172.198799 
L 74.561258 172.813587 
L 74.57979 172.799412 
L 74.598322 172.780102 
L 74.616853 172.873167 
L 74.839232 173.493593 
L 74.876295 173.469955 
L 74.913358 173.55066 
L 75.154269 174.245866 
L 75.191332 174.338416 
L 75.450774 175.132442 
L 75.487837 175.099252 
L 75.506368 175.192318 
L 75.821405 176.275193 
L 75.858468 176.26174 
L 75.877 176.354805 
L 76.099379 176.971584 
L 76.136442 176.954538 
L 76.154973 177.047603 
L 76.321757 177.378986 
L 76.358821 177.353379 
L 76.377352 177.446444 
L 76.71092 178.601422 
L 76.729452 178.595119 
L 76.747983 178.688185 
L 76.877704 178.799021 
L 76.914768 178.888689 
L 77.137146 179.508966 
L 77.229804 179.570548 
L 77.452183 180.185837 
L 77.470715 180.177436 
L 77.489246 180.270501 
L 77.730157 180.959409 
L 77.804283 181.042691 
L 78.137851 182.213015 
L 78.174914 182.167732 
L 78.193446 182.260798 
L 78.508482 183.336759 
L 78.582609 183.397292 
L 78.842051 184.218399 
L 78.916177 184.289574 
L 79.19415 185.192632 
L 79.30534 185.258319 
L 79.379466 185.426829 
L 79.435061 185.411756 
L 79.527719 185.457119 
L 79.787161 186.277771 
L 79.805692 186.266902 
L 79.824224 186.359967 
L 80.009539 186.798112 
L 80.102197 186.891248 
L 80.306045 187.415805 
L 80.361639 187.491848 
L 80.565487 188.140205 
L 80.584018 188.134535 
L 80.658144 188.081246 
L 80.695208 188.163603 
L 80.917586 188.788569 
L 80.973181 188.880198 
L 81.121434 189.100629 
L 81.158497 189.084333 
L 81.19556 189.174786 
L 81.399407 189.710535 
L 81.473533 189.796896 
L 81.677381 190.317315 
L 81.714444 190.398059 
L 81.751507 190.376292 
L 81.955354 190.918627 
L 81.973886 190.911967 
L 81.992417 191.005033 
L 82.214796 191.610694 
L 82.325986 191.692281 
L 82.511301 192.213372 
L 82.529833 192.208007 
L 82.585427 192.281736 
L 82.752212 192.640133 
L 82.807806 192.724404 
L 83.011654 193.243182 
L 83.030185 193.229058 
L 83.048717 193.322124 
L 83.234032 193.77512 
L 83.32669 193.816634 
L 83.456411 194.067987 
L 83.474943 194.053911 
L 83.493474 194.033733 
L 83.512006 194.126798 
L 83.530537 194.121516 
L 83.789979 194.937506 
L 83.808511 194.92517 
L 83.827043 195.018236 
L 84.067953 195.734393 
L 84.160611 195.796237 
L 84.401521 196.494281 
L 84.420053 196.489129 
L 84.438584 196.582194 
L 84.568305 196.762923 
L 84.586837 196.756585 
L 84.605368 196.849651 
L 84.790684 197.374661 
L 84.809216 197.360775 
L 84.827747 197.340788 
L 84.846279 197.433853 
L 84.883342 197.4288 
L 84.976 197.52145 
L 85.179847 198.04765 
L 85.253973 198.122664 
L 85.513415 198.948804 
L 85.587542 199.023748 
L 85.735794 199.358649 
L 85.754326 199.351978 
L 85.80992 199.443693 
L 85.902578 199.723827 
L 85.958173 199.688662 
L 86.050831 199.749534 
L 86.236146 200.185423 
L 86.254678 200.180155 
L 86.27321 200.273221 
L 86.458525 200.661942 
L 86.477057 200.645193 
L 86.495588 200.738258 
L 86.662373 201.155239 
L 86.680904 201.148636 
L 86.75503 201.222733 
L 86.903283 201.542352 
L 86.921814 201.525659 
L 86.977409 201.494192 
L 86.995941 201.587258 
L 87.162725 201.996375 
L 87.181256 201.991194 
L 87.273914 202.033265 
L 87.45923 202.434752 
L 87.496293 202.39434 
L 87.551888 202.47182 
L 87.681609 202.925683 
L 87.737203 202.869081 
L 87.774267 202.836989 
L 87.81133 202.913479 
L 87.941051 203.248447 
L 87.978114 203.215256 
L 88.033709 203.293121 
L 88.237556 203.781188 
L 88.256087 203.762239 
L 88.274619 203.855305 
L 88.459935 204.244855 
L 88.496998 204.226196 
L 88.534061 204.309852 
L 88.737908 204.893664 
L 88.75644 204.881676 
L 88.774971 204.868816 
L 88.793503 204.961882 
L 88.812034 204.940212 
L 89.015882 205.546056 
L 89.034413 205.531919 
L 89.145603 205.40058 
L 89.182666 205.481688 
L 89.386513 206.056508 
L 89.405045 206.048906 
L 89.442108 206.133078 
L 89.497702 206.078922 
L 89.645955 206.385529 
L 89.664487 206.373601 
L 89.70155 206.334809 
L 89.720081 206.427874 
L 89.905397 206.847618 
L 89.998055 206.858562 
L 90.201902 207.328724 
L 90.257497 207.406776 
L 90.405749 207.739227 
L 90.424281 207.720143 
L 90.461344 207.793685 
L 90.53547 207.736791 
L 90.64666 208.064108 
L 90.702254 208.040249 
L 90.739318 208.023149 
L 90.776381 208.10673 
L 90.924633 208.28417 
L 90.961696 208.258565 
L 90.99876 208.339831 
L 91.109949 208.556993 
L 91.147012 208.538147 
L 91.184075 208.622801 
L 91.387922 208.462494 
L 91.48058 208.714958 
L 91.536175 208.640713 
L 91.554707 208.628886 
L 91.573238 208.721952 
L 91.59177 208.712034 
L 91.758554 209.021108 
L 91.795617 209.100939 
L 91.851212 209.054432 
L 92.036527 209.434531 
L 92.055059 209.424938 
L 92.07359 209.518003 
L 92.092122 209.509278 
L 92.295969 209.97521 
L 92.351564 209.935491 
L 92.388627 210.000522 
L 92.555411 210.326607 
L 92.685132 210.307741 
L 92.888979 210.784832 
L 92.907511 210.776034 
L 92.926043 210.869099 
L 92.944574 210.859588 
L 93.148421 211.331016 
L 93.185485 211.410382 
L 93.241079 211.37095 
L 93.407863 211.657037 
L 93.426395 211.648453 
L 93.444927 211.741519 
L 93.463458 211.731216 
L 93.593179 212.035699 
L 93.630242 212.010529 
L 93.667305 212.092583 
L 93.7229 212.026444 
L 93.889684 212.353267 
L 93.945279 212.300081 
L 93.982342 212.374289 
L 94.149126 212.778691 
L 94.167658 212.750856 
L 94.204721 212.711001 
L 94.223252 212.804066 
L 94.241784 212.795421 
L 94.408568 213.217388 
L 94.4271 213.204601 
L 94.501226 213.145536 
L 94.538289 213.22717 
L 94.742136 213.710431 
L 94.779199 213.795369 
L 94.797731 213.784533 
L 95.001578 214.274566 
L 95.057173 214.211365 
L 95.094236 214.288784 
L 95.223957 214.635952 
L 95.26102 214.61388 
L 95.298083 214.679172 
L 95.390741 214.593564 
L 95.520462 214.913763 
L 95.557525 214.896086 
L 95.650183 214.958999 
L 95.816967 215.236804 
L 95.835499 215.224298 
L 95.85403 215.317364 
L 95.872562 215.307378 
L 96.039346 215.711764 
L 96.057878 215.703353 
L 96.169067 215.732982 
L 96.335851 216.03545 
L 96.354383 216.019933 
L 96.372914 216.112999 
L 96.391446 216.086641 
L 96.447041 216.26151 
L 96.521167 216.232947 
L 96.576762 216.309269 
L 96.743546 216.698489 
L 96.762077 216.688572 
L 96.836204 216.615345 
L 96.873267 216.697188 
L 97.040051 217.129871 
L 97.058582 217.102267 
L 97.169772 216.996415 
L 97.206835 217.079617 
L 97.336556 217.285786 
L 97.355087 217.250463 
L 97.373619 217.343528 
L 97.392151 217.336347 
L 97.521872 217.571752 
L 97.540403 217.559103 
L 97.577466 217.53201 
L 97.614529 217.610986 
L 97.781314 217.893098 
L 97.799845 217.884255 
L 97.818377 217.97732 
L 97.836908 217.970176 
L 97.966629 218.30693 
L 98.003692 218.282417 
L 98.133413 218.188679 
L 98.170476 218.251931 
L 98.337261 218.577678 
L 98.392855 218.528098 
L 98.429918 218.603529 
L 98.596703 218.908647 
L 98.615234 218.880537 
L 98.633766 218.973603 
L 98.652297 218.962503 
L 98.670829 219.055568 
L 98.763487 219.019571 
L 98.837613 219.067498 
L 98.967334 219.28054 
L 98.985865 219.270628 
L 99.022929 219.244047 
L 99.059992 219.309026 
L 99.15265 219.470247 
L 99.189713 219.455702 
L 99.282371 219.4962 
L 99.337965 219.664732 
L 99.412092 219.604995 
L 99.615939 219.573801 
L 99.782723 219.871669 
L 99.801254 219.853605 
L 99.819786 219.946671 
L 99.838318 219.934284 
L 99.968039 220.149156 
L 99.98657 220.138147 
L 100.079228 220.221718 
L 100.246012 220.305728 
L 100.375733 220.591795 
L 100.394265 220.579717 
L 100.505454 220.57889 
L 100.709301 221.04904 
L 100.764896 221.145583 
L 100.894617 221.316153 
L 101.061401 221.421755 
L 101.265248 221.893088 
L 101.450564 221.884661 
L 101.580285 221.959071 
L 101.691474 222.061034 
L 101.710006 222.055971 
L 101.765601 222.033038 
L 101.784132 222.126103 
L 101.913853 222.232708 
L 102.043574 222.39335 
L 102.210358 222.479966 
L 102.377142 222.772977 
L 102.4698 222.747769 
L 102.599521 222.943228 
L 102.618053 222.930465 
L 102.655116 222.920623 
L 102.673648 223.013688 
L 102.877495 223.103223 
L 103.044279 223.480094 
L 103.06281 223.467389 
L 103.211063 223.471955 
L 103.340784 223.643068 
L 103.451973 223.73819 
L 103.507568 223.818737 
L 103.637289 223.926287 
L 104.211768 224.041708 
L 104.341489 224.194893 
L 104.656525 224.150808 
L 104.786246 224.319219 
L 104.95303 224.341193 
L 105.268067 224.298192 
L 105.286599 224.27152 
L 105.30513 224.364585 
L 105.342193 224.366942 
L 105.508978 224.445369 
L 105.638698 224.582776 
L 105.694293 224.668017 
L 105.824014 224.810975 
L 106.36143 224.966925 
L 106.379961 225.059991 
L 106.472619 224.969461 
L 106.546745 224.952372 
L 106.60234 225.128211 
L 106.676466 225.082795 
L 106.732061 225.181054 
L 106.898845 225.45227 
L 107.102692 225.436729 
L 107.250945 225.63863 
L 107.54745 225.593553 
L 107.695703 225.795526 
L 108.010739 225.85705 
L 108.25165 225.79127 
L 108.511092 225.722457 
L 109.029975 225.884997 
L 109.159696 225.990053 
L 109.585923 225.954597 
L 109.715644 226.135779 
L 109.845364 226.104558 
L 109.975085 226.272977 
L 110.178933 226.271616 
L 110.308654 226.362581 
L 110.586627 226.477547 
L 110.716348 226.592431 
L 110.901664 226.519721 
L 110.957259 226.480556 
L 110.994322 226.57597 
L 111.179637 226.591164 
L 111.253764 226.69278 
L 111.290827 226.660377 
L 111.402016 226.566987 
L 111.420548 226.660052 
L 111.717053 226.593209 
L 111.846774 226.473493 
L 111.865305 226.566558 
L 112.384189 226.528479 
L 112.402721 226.500492 
L 112.421252 226.593557 
L 112.458316 226.595214 
L 112.828947 226.567198 
L 112.847479 226.539253 
L 112.86601 226.632319 
L 112.903073 226.634038 
L 113.069857 226.726602 
L 113.199578 226.882326 
L 113.403426 226.941001 
L 113.57021 227.228416 
L 113.699931 227.400707 
L 113.829652 227.539137 
L 114.441193 228.079017 
L 114.589446 228.162255 
L 114.75623 228.441215 
L 115.831061 229.551975 
L 116.40554 229.84139 
L 116.498198 229.882681 
L 117.23946 230.555674 
L 117.369181 230.685628 
L 117.721281 230.936691 
L 117.813939 230.969308 
L 117.94366 231.171107 
L 117.962191 231.158717 
L 118.036318 231.144639 
L 118.054849 231.237705 
L 118.351354 231.502262 
L 118.499607 231.500757 
L 118.796112 231.765847 
L 119.370591 232.210662 
L 119.518843 232.185583 
L 119.685627 232.455586 
L 120.389827 232.723696 
L 120.463953 232.696178 
L 120.501016 232.732221 
L 120.797521 232.848752 
L 120.964305 232.911482 
L 121.112558 232.91934 
L 121.205216 232.987758 
L 121.557316 233.113347 
L 121.705568 233.095475 
L 121.853821 233.106155 
L 122.113263 233.21893 
L 122.613615 233.305689 
L 122.632147 233.280953 
L 122.650678 233.374018 
L 122.687741 233.371387 
L 122.928652 233.411946 
L 123.132499 233.287089 
L 123.336346 233.293917 
L 123.373409 233.252048 
L 123.429004 233.349421 
L 123.744041 233.561969 
L 123.85523 233.713222 
L 123.873762 233.699859 
L 124.225862 233.753072 
L 124.262925 233.729083 
L 124.299988 233.822027 
L 124.818872 233.836829 
L 124.930061 233.812298 
L 125.041251 233.972613 
L 125.059782 233.954261 
L 125.263629 233.876739 
L 125.411882 233.86752 
L 125.708387 233.997074 
L 125.893703 234.009918 
L 126.041955 234.012692 
L 126.153145 234.109606 
L 126.245802 234.041307 
L 126.282866 234.075393 
L 126.394055 234.142171 
L 126.431118 234.072287 
L 126.486713 234.012776 
L 126.523776 234.109132 
L 126.634965 234.063875 
L 126.746155 234.074427 
L 126.875876 234.073904 
L 126.987065 234.136603 
L 127.079723 234.101607 
L 127.116786 234.076329 
L 127.153849 234.113036 
L 127.28357 234.29195 
L 127.302102 234.259428 
L 127.320633 234.352493 
L 127.376228 234.337793 
L 127.468886 234.473438 
L 127.505949 234.446453 
L 127.561544 234.39428 
L 127.617139 234.4428 
L 128.154554 234.6052 
L 128.506654 234.83213 
L 128.710501 234.889286 
L 128.895817 234.939875 
L 129.340574 235.040751 
L 129.451764 235.095947 
L 129.507358 235.133229 
L 129.562953 235.062978 
L 129.859458 235.072423 
L 130.007711 235.09739 
L 130.267153 235.101218 
L 130.600721 235.353429 
L 130.637784 235.305688 
L 130.656316 235.398754 
L 130.674847 235.408166 
L 130.934289 235.553669 
L 131.082542 235.483742 
L 131.249326 235.795968 
L 131.360515 235.75582 
L 131.379047 235.731716 
L 131.397578 235.824782 
L 131.434642 235.805094 
L 131.786741 235.928869 
L 132.212967 235.789885 
L 132.565067 235.834655 
L 132.843041 235.899222 
L 132.991293 235.875802 
L 133.121014 235.830562 
L 133.232204 235.757317 
L 133.250735 235.850382 
L 133.343393 235.779955 
L 133.621367 235.873225 
L 133.751088 235.778662 
L 133.769619 235.871728 
L 133.89934 235.938096 
L 133.954935 236.036546 
L 134.01053 235.979919 
L 134.232908 235.928967 
L 134.455287 235.995262 
L 134.585008 236.032034 
L 134.714729 235.989028 
L 134.825919 236.101767 
L 134.84445 236.094746 
L 135.011234 236.118944 
L 135.159487 236.156708 
L 135.270676 236.304336 
L 135.289208 236.297318 
L 135.381866 236.211875 
L 135.418929 236.299177 
L 136.030471 236.440445 
L 136.215786 236.46454 
L 136.438165 236.310312 
L 136.808796 236.252552 
L 136.938517 236.290706 
L 137.068238 236.422574 
L 137.383275 236.184633 
L 137.512996 236.334213 
L 137.753906 236.116187 
L 137.902159 236.310546 
L 138.03188 236.231765 
L 138.068943 236.299515 
L 138.161601 236.233629 
L 138.773143 235.873202 
L 139.032585 235.917379 
L 139.088179 235.829685 
L 139.162306 235.927773 
L 139.32909 235.87503 
L 139.458811 235.749321 
L 139.477342 235.842387 
L 139.551469 235.735529 
L 139.681189 235.752143 
L 139.977695 235.705562 
L 140.051821 235.670222 
L 140.070352 235.763287 
L 140.366858 235.670597 
L 140.941336 235.332897 
L 140.959868 235.425963 
L 141.10812 235.41469 
L 141.386094 235.316957 
L 141.478752 235.425951 
L 141.515815 235.404106 
L 141.830851 235.249427 
L 141.904978 235.370155 
L 141.960572 235.348521 
L 142.275609 235.085248 
L 142.368267 235.277346 
L 142.40533 235.263348 
L 142.497988 235.120318 
L 142.572114 235.199578 
L 142.664772 235.099937 
L 142.720367 235.09684 
L 142.831556 235.205616 
L 142.850088 235.194057 
L 143.128061 234.895516 
L 143.165124 234.921649 
L 143.406035 234.782338 
L 143.646945 234.658953 
L 143.739603 234.657638 
L 143.758135 234.619284 
L 144.05464 234.375448 
L 144.165829 234.481369 
L 144.184361 234.45846 
L 144.573524 234.284744 
L 144.684713 234.230377 
L 144.944155 233.969401 
L 144.981218 234.05307 
L 145.110939 234.032819 
L 145.351849 233.796147 
L 145.518634 233.822839 
L 145.852202 233.497092 
L 145.981923 233.486621 
L 146.000454 233.447613 
L 146.222833 233.239234 
L 146.927033 233.079654 
L 147.167943 232.972236 
L 147.520043 233.051089 
L 147.668295 233.049061 
L 147.83508 233.035938 
L 148.094522 232.983741 
L 148.242774 232.97077 
L 148.502216 232.892152 
L 148.687532 232.904881 
L 148.946974 232.825754 
L 149.132289 232.838136 
L 149.391731 232.758415 
L 149.577047 232.770408 
L 149.836489 232.690173 
L 150.021805 232.701776 
L 150.281247 232.620946 
L 150.522157 232.644566 
L 152.597693 232.519821 
L 152.708882 232.459887 
L 152.931261 232.397246 
L 153.15364 232.42106 
L 153.246298 232.40416 
L 153.264829 232.497226 
L 153.357487 232.431093 
L 153.616929 232.521621 
L 153.857839 232.487797 
L 154.061687 232.535359 
L 154.302597 232.50836 
L 154.487913 232.535567 
L 154.728823 232.529457 
L 154.914139 232.583018 
L 155.192112 232.589794 
L 155.377428 232.61659 
L 155.618338 232.609929 
L 155.803654 232.663109 
L 156.081627 232.669242 
L 156.266943 232.695624 
L 156.489322 232.671942 
L 156.859953 232.870817 
L 156.93408 232.852863 
L 156.971143 232.891929 
L 157.230585 233.033025 
L 157.730937 233.209515 
L 157.860658 233.255496 
L 158.064505 233.336656 
L 158.305416 233.43405 
L 158.509263 233.515104 
L 158.731642 233.588898 
L 158.935489 233.699326 
L 159.176399 233.767002 
L 159.380247 233.877314 
L 159.584094 233.899552 
L 159.843536 234.081362 
L 160.102978 234.144467 
L 160.306825 234.232085 
L 163.698102 235.500445 
L 163.846355 235.521377 
L 164.050202 235.57753 
L 164.291112 235.70802 
L 164.513491 235.783675 
L 164.717338 235.895134 
L 164.97678 235.995979 
L 165.254754 236.116453 
L 165.718043 236.315436 
L 165.940422 236.452592 
L 166.181332 236.557939 
L 166.329585 236.602812 
L 166.62609 236.769862 
L 166.792874 236.842615 
L 166.959658 236.891919 
L 167.144974 236.934745 
L 167.404416 237.100048 
L 167.589731 237.142795 
L 167.849173 237.307995 
L 168.034489 237.348354 
L 168.275399 237.525927 
L 168.479247 237.574654 
L 168.75722 237.746442 
L 170.202683 238.607081 
L 170.29534 238.656914 
L 170.536251 238.801025 
L 171.110729 239.12512 
L 171.203387 239.208995 
L 171.425766 239.331874 
L 174.817043 241.68988 
L 175.076485 241.836794 
L 175.206206 241.920205 
L 175.521243 242.177149 
L 175.669495 242.250432 
L 175.947469 242.472377 
L 177.0223 243.281863 
L 177.26321 243.422726 
L 177.745031 243.746425 
L 177.874752 243.827405 
L 178.189788 244.044228 
L 178.319509 244.120936 
L 178.597483 244.306674 
L 179.116367 244.545029 
L 179.209025 244.600042 
L 179.50553 244.764498 
L 179.709377 244.902297 
L 179.894693 244.944572 
L 180.283856 245.169033 
L 180.506235 245.243739 
L 180.747145 245.398991 
L 180.950992 245.476555 
L 181.266029 245.67351 
L 182.211139 246.23376 
L 182.285265 246.225276 
L 182.322328 246.275256 
L 182.563239 246.399779 
L 182.970933 246.642283 
L 183.193312 246.752229 
L 183.415691 246.894237 
L 183.619538 246.980149 
L 183.860448 247.145945 
L 183.953106 247.207574 
L 184.082827 247.343463 
L 184.305206 247.483343 
L 184.509053 247.569062 
L 184.842621 247.849213 
L 186.158363 248.871793 
L 187.399978 250.383607 
L 187.752078 250.815572 
L 189.753487 252.693896 
L 189.975866 252.931979 
L 195.739184 258.681137 
L 196.239536 259.162997 
L 196.554573 259.44821 
L 197.129051 260.04694 
L 197.981503 260.955033 
L 204.634336 268.231062 
L 205.190284 268.871031 
L 205.542383 269.330487 
L 208.45184 272.679542 
L 209.359886 272.908273 
L 209.471076 272.953888 
L 209.767581 273.036155 
L 210.008491 273.101331 
L 210.434717 273.20755 
L 212.195216 273.709812 
L 212.454658 273.772198 
L 212.584379 273.823368 
L 212.899416 273.914676 
L 213.029137 273.9387 
L 213.344174 274.029859 
L 213.473895 274.054976 
L 213.714805 274.10352 
L 214.122499 274.194497 
L 215.123204 274.372346 
L 215.252925 274.395559 
L 215.456772 274.403409 
L 216.587198 274.676946 
L 216.791045 274.717337 
L 218.699797 275.127099 
L 218.810986 275.172078 
L 219.107491 275.269567 
L 219.478123 275.388412 
L 222.350516 276.319228 
L 222.665552 275.960068 
L 223.054715 275.52961 
L 224.018357 274.465586 
L 224.388988 274.06208 
L 225.148783 273.250791 
L 225.70473 272.632676 
L 227.150192 270.95087 
L 227.48376 270.576435 
L 228.929223 268.928479 
L 229.281322 268.559075 
L 230.244964 267.464496 
L 230.615595 267.048953 
L 231.37539 266.212698 
L 231.764552 265.815357 
L 232.487284 265.289036 
L 232.950573 264.945755 
L 234.266314 264.02203 
L 234.729603 263.686669 
L 235.081703 263.345377 
L 236.249192 261.937114 
L 236.823671 260.462076 
L 240.882084 251.030235 
L 240.900616 251.123301 
L 240.95621 250.943282 
L 241.475094 249.936075 
L 241.493626 250.029141 
L 241.567752 249.863896 
L 241.993978 249.073082 
L 242.01251 249.166148 
L 242.068104 249.007275 
L 242.36461 248.390009 
L 242.383141 248.483074 
L 242.457267 248.32041 
L 243.773009 245.273048 
L 243.79154 245.366114 
L 243.847135 245.206523 
L 243.884198 245.249289 
L 244.236298 244.369787 
L 244.25483 244.462852 
L 244.328956 244.26744 
L 245.348192 241.731859 
L 245.366724 241.824925 
L 245.422318 241.655787 
L 248.461496 235.179675 
L 248.480027 235.272741 
L 248.535622 235.113884 
L 248.758001 234.786952 
L 248.776532 234.880018 
L 248.832127 234.707541 
L 249.647516 232.599609 
L 249.666047 232.692674 
L 249.721642 232.519836 
L 249.740174 232.612902 
L 250.685284 230.226198 
L 250.703815 230.319264 
L 250.75941 230.116256 
L 251.204168 229.038612 
L 251.222699 229.131677 
L 251.278294 228.975577 
L 251.648925 228.239529 
L 251.667457 228.332594 
L 251.723052 228.177498 
L 252.316062 226.763028 
L 252.334593 226.856093 
L 252.390188 226.672884 
L 253.650335 223.158784 
L 253.668866 223.25185 
L 253.724461 223.070762 
L 253.742993 223.163827 
L 254.762229 220.359621 
L 254.78076 220.452686 
L 254.836355 220.296054 
L 256.467133 216.006836 
L 256.485665 216.099902 
L 256.541259 215.899924 
L 256.559791 215.99299 
L 257.13427 214.682808 
L 257.152801 214.775874 
L 257.208396 214.597713 
L 259.673094 206.771318 
L 260.117852 205.318022 
L 261.359467 201.384041 
L 262.397235 198.085336 
L 263.620318 195.529817 
L 272.515471 176.141284 
L 273.127013 174.757928 
L 274.943107 170.577767 
L 275.554648 169.178091 
L 275.92528 168.606381 
L 277.315147 167.191776 
L 278.723547 165.753315 
L 279.057115 165.389291 
L 280.113414 164.35462 
L 281.725661 162.749301 
L 285.8582 157.794877 
L 286.377084 157.141064 
L 286.970095 156.404762 
L 287.50751 155.713285 
L 289.545983 153.453463 
L 289.657172 153.383169 
L 289.972209 153.16567 
L 290.10193 153.100533 
L 290.416966 152.882881 
L 290.546687 152.817678 
L 290.880255 152.597084 
L 291.04704 152.492829 
L 291.343545 152.288547 
L 291.491797 152.183442 
L 291.788302 151.985553 
L 291.899492 151.882279 
L 292.195997 151.664672 
L 292.325718 151.590431 
L 292.659286 151.338248 
L 292.751944 151.273064 
L 293.048449 150.905181 
L 293.252296 150.725212 
L 293.511738 150.444887 
L 293.641459 150.366576 
L 293.919433 149.996891 
L 294.049154 149.911269 
L 295.642869 147.605342 
L 295.976437 147.161819 
L 296.625042 146.268818 
L 296.810357 146.013059 
L 297.347773 145.287641 
L 298.292883 143.940794 
L 298.478198 143.760209 
L 299.182398 142.817749 
L 299.367714 142.630674 
L 299.460372 142.469045 
L 299.756877 142.044607 
L 299.886598 141.872137 
L 300.905834 140.384034 
L 301.276465 139.815763 
L 301.57297 139.408589 
L 301.665628 139.258804 
L 302.425423 138.111537 
L 302.555143 137.938925 
L 302.907243 137.437208 
L 302.999901 137.31895 
L 303.370532 136.867427 
L 303.537317 136.633924 
L 305.575789 134.101018 
L 305.668447 133.975051 
L 305.94642 133.574116 
L 306.113205 133.410757 
L 306.817404 132.452678 
L 307.076846 132.162542 
L 307.35482 131.820462 
L 307.466009 131.671745 
L 307.725451 131.284163 
L 307.873704 131.168795 
L 308.151677 130.721929 
L 308.355524 130.507438 
L 308.930003 129.729262 
L 309.689797 128.813412 
L 310.746097 127.573037 
L 310.912881 127.446891 
L 311.209386 127.020162 
L 311.37617 126.93151 
L 312.08037 126.044162 
L 312.228622 125.926654 
L 312.525127 125.537331 
L 312.691911 125.40807 
L 312.951353 125.231482 
L 313.229327 124.944849 
L 313.989121 124.103091 
L 314.100311 124.015698 
L 314.433879 123.622497 
L 314.545068 123.53878 
L 314.823042 123.154277 
L 315.026889 122.986924 
L 315.341926 122.654341 
L 315.453115 122.509248 
L 315.916404 122.057042 
L 316.546478 121.389177 
L 316.69473 121.319059 
L 316.80592 121.203807 
L 317.120956 120.954495 
L 317.232146 120.868294 
L 317.565714 120.595923 
L 317.676903 120.506753 
L 317.936345 120.224122 
L 318.084598 120.177459 
L 318.34404 119.862309 
L 318.640545 119.658954 
L 319.659781 118.977986 
L 319.808034 118.957932 
L 320.104539 118.740658 
L 320.23426 118.753373 
L 320.382512 118.691789 
L 320.641954 118.610114 
L 320.808738 118.568685 
L 321.105243 118.455728 
L 321.272027 118.390462 
L 321.550001 118.294847 
L 321.698254 118.247051 
L 321.994759 118.130556 
L 322.180074 118.082304 
L 322.458048 117.953228 
L 322.6063 117.91223 
L 323.347563 117.593218 
L 323.477284 117.5301 
L 323.736726 117.384184 
L 323.847915 117.506322 
L 323.866447 117.498958 
L 324.144421 117.266276 
L 324.385331 117.222267 
L 324.644773 117.098734 
L 324.811557 117.052717 
L 325.089531 116.908208 
L 325.274846 116.896362 
L 325.812262 116.708058 
L 326.14583 116.580073 
L 326.423803 116.459755 
L 326.590588 116.423665 
L 326.887093 116.313257 
L 327.016814 116.28634 
L 327.313319 116.147969 
L 327.480103 116.115414 
L 327.758076 115.996004 
L 327.924861 115.959712 
L 328.202834 115.837477 
L 328.38815 115.828096 
L 329.129412 115.599751 
L 329.259133 115.55401 
L 329.555639 115.456957 
L 329.703891 115.421362 
L 329.981865 115.315023 
L 330.148649 115.28289 
L 330.445154 115.192523 
L 330.593406 115.170902 
L 330.87138 115.092111 
L 331.038164 115.08262 
L 331.316138 115.001851 
L 331.519985 115.025108 
L 331.797958 114.985908 
L 331.983274 114.972426 
L 332.465095 114.888928 
L 332.502158 114.985399 
L 332.576284 114.919619 
L 333.873494 114.81051 
L 334.003215 114.815376 
L 334.151467 114.806418 
L 334.429441 114.754163 
L 334.670351 114.781963 
L 335.226298 114.75736 
L 335.337488 114.772275 
L 335.504272 114.766639 
L 335.745182 114.741294 
L 335.94903 114.756063 
L 336.208472 114.746624 
L 336.393787 114.752512 
L 336.634698 114.727679 
L 336.838545 114.745097 
L 337.079455 114.720131 
L 337.301834 114.727429 
L 337.505681 114.697516 
L 337.765123 114.746474 
L 338.265476 114.74339 
L 338.636107 114.694522 
L 338.839954 114.661923 
L 339.062333 114.685963 
L 339.303243 114.654002 
L 339.507091 114.666527 
L 339.748001 114.630824 
L 339.933317 114.656868 
L 340.174227 114.603218 
L 340.415138 114.612628 
L 340.656048 114.601205 
L 340.859895 114.607225 
L 341.100806 114.523893 
L 341.304653 114.527778 
L 341.582626 114.465736 
L 341.712347 114.434506 
L 341.990321 114.357487 
L 342.157105 114.344472 
L 342.45361 114.283157 
L 342.601863 114.26092 
L 342.879836 114.186978 
L 343.065152 114.158806 
L 343.324594 114.099511 
L 343.528441 114.058644 
L 343.732288 113.988741 
L 344.084388 114.0977 
L 344.251172 114.1062 
L 344.436488 114.134243 
L 346.512024 114.418853 
L 346.641745 114.380098 
L 346.845592 114.377254 
L 347.160628 114.501195 
L 347.660981 114.589881 
L 347.735107 114.556497 
L 347.77217 114.585549 
L 347.976017 114.623436 
L 348.216928 114.670388 
L 348.420775 114.706281 
L 348.624622 114.717782 
L 348.865533 114.787375 
L 349.06938 114.796874 
L 349.291759 114.875032 
L 349.532669 114.895667 
L 349.736516 114.953837 
L 349.977427 114.97624 
L 350.273932 114.989504 
L 352.108557 114.590801 
L 352.238278 114.576144 
L 352.442125 114.58244 
L 354.017309 114.231426 
L 354.165561 114.209656 
L 354.443535 114.133974 
L 354.62885 114.107354 
L 354.869761 114.033125 
L 355.055077 114.032783 
L 355.33305 113.956809 
L 355.518366 113.930013 
L 355.759276 113.855522 
L 355.944592 113.854975 
L 356.222565 113.774083 
L 356.426413 113.769101 
L 356.704386 113.696401 
L 356.87117 113.670204 
L 357.130612 113.588806 
L 357.278865 113.560191 
L 357.556838 113.472402 
L 357.742154 113.450093 
L 357.983064 113.380818 
L 358.16838 113.385307 
L 358.446354 113.315344 
L 358.631669 113.292744 
L 358.87258 113.223078 
L 359.057895 113.227287 
L 359.335869 113.154163 
L 359.539716 113.178269 
L 359.799158 113.132216 
L 359.984474 113.1433 
L 360.243916 113.098665 
L 360.392168 113.091138 
L 360.670142 113.042473 
L 360.855457 113.033779 
L 361.096368 112.983177 
L 361.281684 113.000331 
L 361.559657 112.951306 
L 361.744973 112.942391 
L 361.985883 112.891471 
L 362.171199 112.908406 
L 362.449172 112.855592 
L 362.65302 112.878861 
L 362.912462 112.831639 
L 363.097777 112.841949 
L 363.357219 112.796142 
L 363.505472 112.787976 
L 363.783445 112.73808 
L 363.968761 112.728603 
L 364.209671 112.676922 
L 364.394987 112.693311 
L 364.672961 112.643066 
L 364.858276 112.633352 
L 365.099187 112.581351 
L 365.284502 112.5975 
L 365.562476 112.546082 
L 365.803386 112.599442 
L 368.694311 113.666907 
L 368.953753 113.769288 
L 369.454105 113.907393 
L 369.528231 113.879963 
L 369.565295 113.917032 
L 369.769142 113.973594 
L 369.991521 114.022778 
L 370.213899 114.099221 
L 370.436278 114.148293 
L 370.658657 114.22465 
L 370.881036 114.273623 
L 371.084883 114.340809 
L 371.325794 114.367691 
L 371.529641 114.434768 
L 371.770551 114.461512 
L 372.085588 114.607327 
L 374.086997 115.188831 
L 374.216718 115.172583 
L 374.439097 115.222085 
L 374.661476 115.296191 
L 374.883855 115.345675 
L 375.161828 115.410635 
L 375.550991 115.444986 
L 375.810433 115.435965 
L 375.977217 115.442605 
L 376.218128 115.429566 
L 376.421975 115.467429 
L 376.662885 115.454353 
L 376.866732 115.492198 
L 377.107643 115.479104 
L 377.404148 115.63608 
L 378.831079 116.35159 
L 379.368494 116.686754 
L 379.627936 116.831479 
L 380.573046 117.370807 
L 380.684236 117.441238 
L 381.017804 117.629065 
L 381.147525 117.711266 
L 381.462561 117.92217 
L 381.592282 117.999831 
L 381.907319 118.211131 
L 382.018508 118.271057 
L 382.352077 118.480373 
L 382.463266 118.558232 
L 382.796834 118.767965 
L 382.908024 118.845941 
L 383.241592 119.055983 
L 383.352781 119.134036 
L 383.68635 119.344279 
L 383.797539 119.422409 
L 384.131107 119.632918 
L 384.260828 119.729096 
L 384.557333 120.197262 
L 384.668523 120.755655 
L 384.668523 120.755655 
" clip-path="url(#p5b7ec0c6a2)" style="fill: none; stroke: #1f77b4; stroke-width: 1.5; stroke-linecap: square"/>
   </g>
   <g id="line2d_16">
    <path clip-path="url(#p5b7ec0c6a2)" style="fill: none; stroke: #000000; stroke-width: 1.5; stroke-linecap: square"/>
   </g>
   <g id="line2d_17">
    <path d="M 43.78125 34.414125 
L 400.90125 34.414125 
" clip-path="url(#p5b7ec0c6a2)" style="fill: none; stroke: #ff0000; stroke-width: 1.5; stroke-linecap: square"/>
   </g>
   <g id="line2d_18">
    <path d="M 43.78125 63.983142 
L 400.90125 63.983142 
" clip-path="url(#p5b7ec0c6a2)" style="fill: none; stroke-dasharray: 5.55,2.4; stroke-dashoffset: 0; stroke: #ff00ff; stroke-width: 1.5"/>
   </g>
   <g id="patch_3">
    <path d="M 43.78125 288.430125 
L 43.78125 22.318125 
" style="fill: none; stroke: #000000; stroke-width: 0.8; stroke-linejoin: miter; stroke-linecap: square"/>
   </g>
   <g id="patch_4">
    <path d="M 400.90125 288.430125 
L 400.90125 22.318125 
" style="fill: none; stroke: #000000; stroke-width: 0.8; stroke-linejoin: miter; stroke-linecap: square"/>
   </g>
   <g id="patch_5">
    <path d="M 43.78125 288.430125 
L 400.90125 288.430125 
" style="fill: none; stroke: #000000; stroke-width: 0.8; stroke-linejoin: miter; stroke-linecap: square"/>
   </g>
   <g id="patch_6">
    <path d="M 43.78125 22.318125 
L 400.90125 22.318125 
" style="fill: none; stroke: #000000; stroke-width: 0.8; stroke-linejoin: miter; stroke-linecap: square"/>
   </g>
   <g id="text_18">
    <!-- loc_techs_store = Moz-North-Center::storageD -->
    <g transform="translate(82.765313 16.318125)scale(0.12 -0.12)">
     <defs>
      <path id="DejaVuSans-6c" d="M 603 4863 
L 1178 4863 
L 1178 0 
L 603 0 
L 603 4863 
z
" transform="scale(0.015625)"/>
      <path id="DejaVuSans-63" d="M 3122 3366 
L 3122 2828 
Q 2878 2963 2633 3030 
Q 2388 3097 2138 3097 
Q 1578 3097 1268 2742 
Q 959 2388 959 1747 
Q 959 1106 1268 751 
Q 1578 397 2138 397 
Q 2388 397 2633 464 
Q 2878 531 3122 666 
L 3122 134 
Q 2881 22 2623 -34 
Q 2366 -91 2075 -91 
Q 1284 -91 818 406 
Q 353 903 353 1747 
Q 353 2603 823 3093 
Q 1294 3584 2113 3584 
Q 2378 3584 2631 3529 
Q 2884 3475 3122 3366 
z
" transform="scale(0.015625)"/>
      <path id="DejaVuSans-5f" d="M 3263 -1063 
L 3263 -1509 
L -63 -1509 
L -63 -1063 
L 3263 -1063 
z
" transform="scale(0.015625)"/>
      <path id="DejaVuSans-68" d="M 3513 2113 
L 3513 0 
L 2938 0 
L 2938 2094 
Q 2938 2591 2744 2837 
Q 2550 3084 2163 3084 
Q 1697 3084 1428 2787 
Q 1159 2491 1159 1978 
L 1159 0 
L 581 0 
L 581 4863 
L 1159 4863 
L 1159 2956 
Q 1366 3272 1645 3428 
Q 1925 3584 2291 3584 
Q 2894 3584 3203 3211 
Q 3513 2838 3513 2113 
z
" transform="scale(0.015625)"/>
      <path id="DejaVuSans-20" transform="scale(0.015625)"/>
      <path id="DejaVuSans-3d" d="M 678 2906 
L 4684 2906 
L 4684 2381 
L 678 2381 
L 678 2906 
z
M 678 1631 
L 4684 1631 
L 4684 1100 
L 678 1100 
L 678 1631 
z
" transform="scale(0.015625)"/>
      <path id="DejaVuSans-4d" d="M 628 4666 
L 1569 4666 
L 2759 1491 
L 3956 4666 
L 4897 4666 
L 4897 0 
L 4281 0 
L 4281 4097 
L 3078 897 
L 2444 897 
L 1241 4097 
L 1241 0 
L 628 0 
L 628 4666 
z
" transform="scale(0.015625)"/>
      <path id="DejaVuSans-7a" d="M 353 3500 
L 3084 3500 
L 3084 2975 
L 922 459 
L 3084 459 
L 3084 0 
L 275 0 
L 275 525 
L 2438 3041 
L 353 3041 
L 353 3500 
z
" transform="scale(0.015625)"/>
      <path id="DejaVuSans-4e" d="M 628 4666 
L 1478 4666 
L 3547 763 
L 3547 4666 
L 4159 4666 
L 4159 0 
L 3309 0 
L 1241 3903 
L 1241 0 
L 628 0 
L 628 4666 
z
" transform="scale(0.015625)"/>
      <path id="DejaVuSans-43" d="M 4122 4306 
L 4122 3641 
Q 3803 3938 3442 4084 
Q 3081 4231 2675 4231 
Q 1875 4231 1450 3742 
Q 1025 3253 1025 2328 
Q 1025 1406 1450 917 
Q 1875 428 2675 428 
Q 3081 428 3442 575 
Q 3803 722 4122 1019 
L 4122 359 
Q 3791 134 3420 21 
Q 3050 -91 2638 -91 
Q 1578 -91 968 557 
Q 359 1206 359 2328 
Q 359 3453 968 4101 
Q 1578 4750 2638 4750 
Q 3056 4750 3426 4639 
Q 3797 4528 4122 4306 
z
" transform="scale(0.015625)"/>
      <path id="DejaVuSans-6e" d="M 3513 2113 
L 3513 0 
L 2938 0 
L 2938 2094 
Q 2938 2591 2744 2837 
Q 2550 3084 2163 3084 
Q 1697 3084 1428 2787 
Q 1159 2491 1159 1978 
L 1159 0 
L 581 0 
L 581 3500 
L 1159 3500 
L 1159 2956 
Q 1366 3272 1645 3428 
Q 1925 3584 2291 3584 
Q 2894 3584 3203 3211 
Q 3513 2838 3513 2113 
z
" transform="scale(0.015625)"/>
      <path id="DejaVuSans-3a" d="M 750 794 
L 1409 794 
L 1409 0 
L 750 0 
L 750 794 
z
M 750 3309 
L 1409 3309 
L 1409 2516 
L 750 2516 
L 750 3309 
z
" transform="scale(0.015625)"/>
      <path id="DejaVuSans-44" d="M 1259 4147 
L 1259 519 
L 2022 519 
Q 2988 519 3436 956 
Q 3884 1394 3884 2338 
Q 3884 3275 3436 3711 
Q 2988 4147 2022 4147 
L 1259 4147 
z
M 628 4666 
L 1925 4666 
Q 3281 4666 3915 4102 
Q 4550 3538 4550 2338 
Q 4550 1131 3912 565 
Q 3275 0 1925 0 
L 628 0 
L 628 4666 
z
" transform="scale(0.015625)"/>
     </defs>
     <use xlink:href="#DejaVuSans-6c"/>
     <use xlink:href="#DejaVuSans-6f" x="27.783203"/>
     <use xlink:href="#DejaVuSans-63" x="88.964844"/>
     <use xlink:href="#DejaVuSans-5f" x="143.945312"/>
     <use xlink:href="#DejaVuSans-74" x="193.945312"/>
     <use xlink:href="#DejaVuSans-65" x="233.154297"/>
     <use xlink:href="#DejaVuSans-63" x="294.677734"/>
     <use xlink:href="#DejaVuSans-68" x="349.658203"/>
     <use xlink:href="#DejaVuSans-73" x="413.037109"/>
     <use xlink:href="#DejaVuSans-5f" x="465.136719"/>
     <use xlink:href="#DejaVuSans-73" x="515.136719"/>
     <use xlink:href="#DejaVuSans-74" x="567.236328"/>
     <use xlink:href="#DejaVuSans-6f" x="606.445312"/>
     <use xlink:href="#DejaVuSans-72" x="667.626953"/>
     <use xlink:href="#DejaVuSans-65" x="706.490234"/>
     <use xlink:href="#DejaVuSans-20" x="768.013672"/>
     <use xlink:href="#DejaVuSans-3d" x="799.800781"/>
     <use xlink:href="#DejaVuSans-20" x="883.589844"/>
     <use xlink:href="#DejaVuSans-4d" x="915.376953"/>
     <use xlink:href="#DejaVuSans-6f" x="1001.65625"/>
     <use xlink:href="#DejaVuSans-7a" x="1062.837891"/>
     <use xlink:href="#DejaVuSans-2d" x="1115.328125"/>
     <use xlink:href="#DejaVuSans-4e" x="1151.412109"/>
     <use xlink:href="#DejaVuSans-6f" x="1226.216797"/>
     <use xlink:href="#DejaVuSans-72" x="1287.398438"/>
     <use xlink:href="#DejaVuSans-74" x="1328.511719"/>
     <use xlink:href="#DejaVuSans-68" x="1367.720703"/>
     <use xlink:href="#DejaVuSans-2d" x="1431.099609"/>
     <use xlink:href="#DejaVuSans-43" x="1467.183594"/>
     <use xlink:href="#DejaVuSans-65" x="1537.007812"/>
     <use xlink:href="#DejaVuSans-6e" x="1598.53125"/>
     <use xlink:href="#DejaVuSans-74" x="1661.910156"/>
     <use xlink:href="#DejaVuSans-65" x="1701.119141"/>
     <use xlink:href="#DejaVuSans-72" x="1762.642578"/>
     <use xlink:href="#DejaVuSans-3a" x="1802.005859"/>
     <use xlink:href="#DejaVuSans-3a" x="1835.697266"/>
     <use xlink:href="#DejaVuSans-73" x="1869.388672"/>
     <use xlink:href="#DejaVuSans-74" x="1921.488281"/>
     <use xlink:href="#DejaVuSans-6f" x="1960.697266"/>
     <use xlink:href="#DejaVuSans-72" x="2021.878906"/>
     <use xlink:href="#DejaVuSans-61" x="2062.992188"/>
     <use xlink:href="#DejaVuSans-67" x="2124.271484"/>
     <use xlink:href="#DejaVuSans-65" x="2187.748047"/>
     <use xlink:href="#DejaVuSans-44" x="2249.271484"/>
    </g>
   </g>
   <g id="legend_1">
    <g id="patch_7">
     <path d="M 422.18605 89.865 
L 545.93605 89.865 
Q 547.93605 89.865 547.93605 87.865 
L 547.93605 29.318125 
Q 547.93605 27.318125 545.93605 27.318125 
L 422.18605 27.318125 
Q 420.18605 27.318125 420.18605 29.318125 
L 420.18605 87.865 
Q 420.18605 89.865 422.18605 89.865 
z
" style="fill: #ffffff; opacity: 0.8; stroke: #cccccc; stroke-linejoin: miter"/>
    </g>
    <g id="line2d_19">
     <path d="M 424.18605 35.416562 
L 434.18605 35.416562 
L 444.18605 35.416562 
" style="fill: none; stroke: #1f77b4; stroke-width: 1.5; stroke-linecap: square"/>
    </g>
    <g id="text_19">
     <!-- Storage -->
     <g transform="translate(452.18605 38.916562)scale(0.1 -0.1)">
      <defs>
       <path id="DejaVuSans-53" d="M 3425 4513 
L 3425 3897 
Q 3066 4069 2747 4153 
Q 2428 4238 2131 4238 
Q 1616 4238 1336 4038 
Q 1056 3838 1056 3469 
Q 1056 3159 1242 3001 
Q 1428 2844 1947 2747 
L 2328 2669 
Q 3034 2534 3370 2195 
Q 3706 1856 3706 1288 
Q 3706 609 3251 259 
Q 2797 -91 1919 -91 
Q 1588 -91 1214 -16 
Q 841 59 441 206 
L 441 856 
Q 825 641 1194 531 
Q 1563 422 1919 422 
Q 2459 422 2753 634 
Q 3047 847 3047 1241 
Q 3047 1584 2836 1778 
Q 2625 1972 2144 2069 
L 1759 2144 
Q 1053 2284 737 2584 
Q 422 2884 422 3419 
Q 422 4038 858 4394 
Q 1294 4750 2059 4750 
Q 2388 4750 2728 4690 
Q 3069 4631 3425 4513 
z
" transform="scale(0.015625)"/>
      </defs>
      <use xlink:href="#DejaVuSans-53"/>
      <use xlink:href="#DejaVuSans-74" x="63.476562"/>
      <use xlink:href="#DejaVuSans-6f" x="102.685547"/>
      <use xlink:href="#DejaVuSans-72" x="163.867188"/>
      <use xlink:href="#DejaVuSans-61" x="204.980469"/>
      <use xlink:href="#DejaVuSans-67" x="266.259766"/>
      <use xlink:href="#DejaVuSans-65" x="329.736328"/>
     </g>
    </g>
    <g id="line2d_20">
     <path d="M 424.18605 50.094687 
L 434.18605 50.094687 
L 444.18605 50.094687 
" style="fill: none; stroke: #000000; stroke-width: 1.5; stroke-linecap: square"/>
    </g>
    <g id="text_20">
     <!-- Storage_cap_max -->
     <g transform="translate(452.18605 53.594687)scale(0.1 -0.1)">
      <defs>
       <path id="DejaVuSans-78" d="M 3513 3500 
L 2247 1797 
L 3578 0 
L 2900 0 
L 1881 1375 
L 863 0 
L 184 0 
L 1544 1831 
L 300 3500 
L 978 3500 
L 1906 2253 
L 2834 3500 
L 3513 3500 
z
" transform="scale(0.015625)"/>
      </defs>
      <use xlink:href="#DejaVuSans-53"/>
      <use xlink:href="#DejaVuSans-74" x="63.476562"/>
      <use xlink:href="#DejaVuSans-6f" x="102.685547"/>
      <use xlink:href="#DejaVuSans-72" x="163.867188"/>
      <use xlink:href="#DejaVuSans-61" x="204.980469"/>
      <use xlink:href="#DejaVuSans-67" x="266.259766"/>
      <use xlink:href="#DejaVuSans-65" x="329.736328"/>
      <use xlink:href="#DejaVuSans-5f" x="391.259766"/>
      <use xlink:href="#DejaVuSans-63" x="441.259766"/>
      <use xlink:href="#DejaVuSans-61" x="496.240234"/>
      <use xlink:href="#DejaVuSans-70" x="557.519531"/>
      <use xlink:href="#DejaVuSans-5f" x="620.996094"/>
      <use xlink:href="#DejaVuSans-6d" x="670.996094"/>
      <use xlink:href="#DejaVuSans-61" x="768.408203"/>
      <use xlink:href="#DejaVuSans-78" x="829.6875"/>
     </g>
    </g>
    <g id="line2d_21">
     <path d="M 424.18605 65.050937 
L 434.18605 65.050937 
L 444.18605 65.050937 
" style="fill: none; stroke: #ff0000; stroke-width: 1.5; stroke-linecap: square"/>
    </g>
    <g id="text_21">
     <!-- Storage_cap -->
     <g transform="translate(452.18605 68.550937)scale(0.1 -0.1)">
      <use xlink:href="#DejaVuSans-53"/>
      <use xlink:href="#DejaVuSans-74" x="63.476562"/>
      <use xlink:href="#DejaVuSans-6f" x="102.685547"/>
      <use xlink:href="#DejaVuSans-72" x="163.867188"/>
      <use xlink:href="#DejaVuSans-61" x="204.980469"/>
      <use xlink:href="#DejaVuSans-67" x="266.259766"/>
      <use xlink:href="#DejaVuSans-65" x="329.736328"/>
      <use xlink:href="#DejaVuSans-5f" x="391.259766"/>
      <use xlink:href="#DejaVuSans-63" x="441.259766"/>
      <use xlink:href="#DejaVuSans-61" x="496.240234"/>
      <use xlink:href="#DejaVuSans-70" x="557.519531"/>
     </g>
    </g>
    <g id="line2d_22">
     <path d="M 424.18605 80.007187 
L 434.18605 80.007187 
L 444.18605 80.007187 
" style="fill: none; stroke-dasharray: 5.55,2.4; stroke-dashoffset: 0; stroke: #ff00ff; stroke-width: 1.5"/>
    </g>
    <g id="text_22">
     <!-- Spillage_threshold -->
     <g transform="translate(452.18605 83.507187)scale(0.1 -0.1)">
      <defs>
       <path id="DejaVuSans-64" d="M 2906 2969 
L 2906 4863 
L 3481 4863 
L 3481 0 
L 2906 0 
L 2906 525 
Q 2725 213 2448 61 
Q 2172 -91 1784 -91 
Q 1150 -91 751 415 
Q 353 922 353 1747 
Q 353 2572 751 3078 
Q 1150 3584 1784 3584 
Q 2172 3584 2448 3432 
Q 2725 3281 2906 2969 
z
M 947 1747 
Q 947 1113 1208 752 
Q 1469 391 1925 391 
Q 2381 391 2643 752 
Q 2906 1113 2906 1747 
Q 2906 2381 2643 2742 
Q 2381 3103 1925 3103 
Q 1469 3103 1208 2742 
Q 947 2381 947 1747 
z
" transform="scale(0.015625)"/>
      </defs>
      <use xlink:href="#DejaVuSans-53"/>
      <use xlink:href="#DejaVuSans-70" x="63.476562"/>
      <use xlink:href="#DejaVuSans-69" x="126.953125"/>
      <use xlink:href="#DejaVuSans-6c" x="154.736328"/>
      <use xlink:href="#DejaVuSans-6c" x="182.519531"/>
      <use xlink:href="#DejaVuSans-61" x="210.302734"/>
      <use xlink:href="#DejaVuSans-67" x="271.582031"/>
      <use xlink:href="#DejaVuSans-65" x="335.058594"/>
      <use xlink:href="#DejaVuSans-5f" x="396.582031"/>
      <use xlink:href="#DejaVuSans-74" x="446.582031"/>
      <use xlink:href="#DejaVuSans-68" x="485.791016"/>
      <use xlink:href="#DejaVuSans-72" x="549.169922"/>
      <use xlink:href="#DejaVuSans-65" x="588.033203"/>
      <use xlink:href="#DejaVuSans-73" x="649.556641"/>
      <use xlink:href="#DejaVuSans-68" x="701.65625"/>
      <use xlink:href="#DejaVuSans-6f" x="765.035156"/>
      <use xlink:href="#DejaVuSans-6c" x="826.216797"/>
      <use xlink:href="#DejaVuSans-64" x="854"/>
     </g>
    </g>
   </g>
  </g>
 </g>
 <defs>
  <clipPath id="p5b7ec0c6a2">
   <rect x="43.78125" y="22.318125" width="357.12" height="266.112"/>
  </clipPath>
 </defs>
</svg>
