<?xml version="1.0" encoding="utf-8" standalone="no"?>
<!DOCTYPE svg PUBLIC "-//W3C//DTD SVG 1.1//EN"
  "http://www.w3.org/Graphics/SVG/1.1/DTD/svg11.dtd">
<svg xmlns:xlink="http://www.w3.org/1999/xlink" width="563.68605pt" height="345.581158pt" viewBox="0 0 563.68605 345.581158" xmlns="http://www.w3.org/2000/svg" version="1.1">
 <metadata>
  <rdf:RDF xmlns:dc="http://purl.org/dc/elements/1.1/" xmlns:cc="http://creativecommons.org/ns#" xmlns:rdf="http://www.w3.org/1999/02/22-rdf-syntax-ns#">
   <cc:Work>
    <dc:type rdf:resource="http://purl.org/dc/dcmitype/StillImage"/>
    <dc:date>2022-04-28T12:48:36.391313</dc:date>
    <dc:format>image/svg+xml</dc:format>
    <dc:creator>
     <cc:Agent>
      <dc:title>Matplotlib v3.5.1, https://matplotlib.org/</dc:title>
     </cc:Agent>
    </dc:creator>
   </cc:Work>
  </rdf:RDF>
 </metadata>
 <defs>
  <style type="text/css">*{stroke-linejoin: round; stroke-linecap: butt}</style>
 </defs>
 <g id="figure_1">
  <g id="patch_1">
   <path d="M 0 345.581158 
L 563.68605 345.581158 
L 563.68605 0 
L 0 0 
z
" style="fill: #ffffff"/>
  </g>
  <g id="axes_1">
   <g id="patch_2">
    <path d="M 50.14375 288.430125 
L 407.26375 288.430125 
L 407.26375 22.318125 
L 50.14375 22.318125 
z
" style="fill: #ffffff"/>
   </g>
   <g id="matplotlib.axis_1">
    <g id="xtick_1">
     <g id="line2d_1">
      <defs>
       <path id="m2859643846" d="M 0 0 
L 0 3.5 
" style="stroke: #000000; stroke-width: 0.8"/>
      </defs>
      <g>
       <use xlink:href="#m2859643846" x="66.376477" y="288.430125" style="stroke: #000000; stroke-width: 0.8"/>
      </g>
     </g>
     <g id="text_1">
      <!-- 2005-01 -->
      <g transform="translate(29.151656 322.901971)rotate(-30)scale(0.1 -0.1)">
       <defs>
        <path id="DejaVuSans-32" d="M 1228 531 
L 3431 531 
L 3431 0 
L 469 0 
L 469 531 
Q 828 903 1448 1529 
Q 2069 2156 2228 2338 
Q 2531 2678 2651 2914 
Q 2772 3150 2772 3378 
Q 2772 3750 2511 3984 
Q 2250 4219 1831 4219 
Q 1534 4219 1204 4116 
Q 875 4013 500 3803 
L 500 4441 
Q 881 4594 1212 4672 
Q 1544 4750 1819 4750 
Q 2544 4750 2975 4387 
Q 3406 4025 3406 3419 
Q 3406 3131 3298 2873 
Q 3191 2616 2906 2266 
Q 2828 2175 2409 1742 
Q 1991 1309 1228 531 
z
" transform="scale(0.015625)"/>
        <path id="DejaVuSans-30" d="M 2034 4250 
Q 1547 4250 1301 3770 
Q 1056 3291 1056 2328 
Q 1056 1369 1301 889 
Q 1547 409 2034 409 
Q 2525 409 2770 889 
Q 3016 1369 3016 2328 
Q 3016 3291 2770 3770 
Q 2525 4250 2034 4250 
z
M 2034 4750 
Q 2819 4750 3233 4129 
Q 3647 3509 3647 2328 
Q 3647 1150 3233 529 
Q 2819 -91 2034 -91 
Q 1250 -91 836 529 
Q 422 1150 422 2328 
Q 422 3509 836 4129 
Q 1250 4750 2034 4750 
z
" transform="scale(0.015625)"/>
        <path id="DejaVuSans-35" d="M 691 4666 
L 3169 4666 
L 3169 4134 
L 1269 4134 
L 1269 2991 
Q 1406 3038 1543 3061 
Q 1681 3084 1819 3084 
Q 2600 3084 3056 2656 
Q 3513 2228 3513 1497 
Q 3513 744 3044 326 
Q 2575 -91 1722 -91 
Q 1428 -91 1123 -41 
Q 819 9 494 109 
L 494 744 
Q 775 591 1075 516 
Q 1375 441 1709 441 
Q 2250 441 2565 725 
Q 2881 1009 2881 1497 
Q 2881 1984 2565 2268 
Q 2250 2553 1709 2553 
Q 1456 2553 1204 2497 
Q 953 2441 691 2322 
L 691 4666 
z
" transform="scale(0.015625)"/>
        <path id="DejaVuSans-2d" d="M 313 2009 
L 1997 2009 
L 1997 1497 
L 313 1497 
L 313 2009 
z
" transform="scale(0.015625)"/>
        <path id="DejaVuSans-31" d="M 794 531 
L 1825 531 
L 1825 4091 
L 703 3866 
L 703 4441 
L 1819 4666 
L 2450 4666 
L 2450 531 
L 3481 531 
L 3481 0 
L 794 0 
L 794 531 
z
" transform="scale(0.015625)"/>
       </defs>
       <use xlink:href="#DejaVuSans-32"/>
       <use xlink:href="#DejaVuSans-30" x="63.623047"/>
       <use xlink:href="#DejaVuSans-30" x="127.246094"/>
       <use xlink:href="#DejaVuSans-35" x="190.869141"/>
       <use xlink:href="#DejaVuSans-2d" x="254.492188"/>
       <use xlink:href="#DejaVuSans-30" x="290.576172"/>
       <use xlink:href="#DejaVuSans-31" x="354.199219"/>
      </g>
     </g>
    </g>
    <g id="xtick_2">
     <g id="line2d_2">
      <g>
       <use xlink:href="#m2859643846" x="106.404665" y="288.430125" style="stroke: #000000; stroke-width: 0.8"/>
      </g>
     </g>
     <g id="text_2">
      <!-- 2005-04 -->
      <g transform="translate(69.179844 322.901971)rotate(-30)scale(0.1 -0.1)">
       <defs>
        <path id="DejaVuSans-34" d="M 2419 4116 
L 825 1625 
L 2419 1625 
L 2419 4116 
z
M 2253 4666 
L 3047 4666 
L 3047 1625 
L 3713 1625 
L 3713 1100 
L 3047 1100 
L 3047 0 
L 2419 0 
L 2419 1100 
L 313 1100 
L 313 1709 
L 2253 4666 
z
" transform="scale(0.015625)"/>
       </defs>
       <use xlink:href="#DejaVuSans-32"/>
       <use xlink:href="#DejaVuSans-30" x="63.623047"/>
       <use xlink:href="#DejaVuSans-30" x="127.246094"/>
       <use xlink:href="#DejaVuSans-35" x="190.869141"/>
       <use xlink:href="#DejaVuSans-2d" x="254.492188"/>
       <use xlink:href="#DejaVuSans-30" x="290.576172"/>
       <use xlink:href="#DejaVuSans-34" x="354.199219"/>
      </g>
     </g>
    </g>
    <g id="xtick_3">
     <g id="line2d_3">
      <g>
       <use xlink:href="#m2859643846" x="146.87761" y="288.430125" style="stroke: #000000; stroke-width: 0.8"/>
      </g>
     </g>
     <g id="text_3">
      <!-- 2005-07 -->
      <g transform="translate(109.652789 322.901971)rotate(-30)scale(0.1 -0.1)">
       <defs>
        <path id="DejaVuSans-37" d="M 525 4666 
L 3525 4666 
L 3525 4397 
L 1831 0 
L 1172 0 
L 2766 4134 
L 525 4134 
L 525 4666 
z
" transform="scale(0.015625)"/>
       </defs>
       <use xlink:href="#DejaVuSans-32"/>
       <use xlink:href="#DejaVuSans-30" x="63.623047"/>
       <use xlink:href="#DejaVuSans-30" x="127.246094"/>
       <use xlink:href="#DejaVuSans-35" x="190.869141"/>
       <use xlink:href="#DejaVuSans-2d" x="254.492188"/>
       <use xlink:href="#DejaVuSans-30" x="290.576172"/>
       <use xlink:href="#DejaVuSans-37" x="354.199219"/>
      </g>
     </g>
    </g>
    <g id="xtick_4">
     <g id="line2d_4">
      <g>
       <use xlink:href="#m2859643846" x="187.795313" y="288.430125" style="stroke: #000000; stroke-width: 0.8"/>
      </g>
     </g>
     <g id="text_4">
      <!-- 2005-10 -->
      <g transform="translate(150.570492 322.901971)rotate(-30)scale(0.1 -0.1)">
       <use xlink:href="#DejaVuSans-32"/>
       <use xlink:href="#DejaVuSans-30" x="63.623047"/>
       <use xlink:href="#DejaVuSans-30" x="127.246094"/>
       <use xlink:href="#DejaVuSans-35" x="190.869141"/>
       <use xlink:href="#DejaVuSans-2d" x="254.492188"/>
       <use xlink:href="#DejaVuSans-31" x="290.576172"/>
       <use xlink:href="#DejaVuSans-30" x="354.199219"/>
      </g>
     </g>
    </g>
    <g id="xtick_5">
     <g id="line2d_5">
      <g>
       <use xlink:href="#m2859643846" x="228.713016" y="288.430125" style="stroke: #000000; stroke-width: 0.8"/>
      </g>
     </g>
     <g id="text_5">
      <!-- 2006-01 -->
      <g transform="translate(191.488195 322.901971)rotate(-30)scale(0.1 -0.1)">
       <defs>
        <path id="DejaVuSans-36" d="M 2113 2584 
Q 1688 2584 1439 2293 
Q 1191 2003 1191 1497 
Q 1191 994 1439 701 
Q 1688 409 2113 409 
Q 2538 409 2786 701 
Q 3034 994 3034 1497 
Q 3034 2003 2786 2293 
Q 2538 2584 2113 2584 
z
M 3366 4563 
L 3366 3988 
Q 3128 4100 2886 4159 
Q 2644 4219 2406 4219 
Q 1781 4219 1451 3797 
Q 1122 3375 1075 2522 
Q 1259 2794 1537 2939 
Q 1816 3084 2150 3084 
Q 2853 3084 3261 2657 
Q 3669 2231 3669 1497 
Q 3669 778 3244 343 
Q 2819 -91 2113 -91 
Q 1303 -91 875 529 
Q 447 1150 447 2328 
Q 447 3434 972 4092 
Q 1497 4750 2381 4750 
Q 2619 4750 2861 4703 
Q 3103 4656 3366 4563 
z
" transform="scale(0.015625)"/>
       </defs>
       <use xlink:href="#DejaVuSans-32"/>
       <use xlink:href="#DejaVuSans-30" x="63.623047"/>
       <use xlink:href="#DejaVuSans-30" x="127.246094"/>
       <use xlink:href="#DejaVuSans-36" x="190.869141"/>
       <use xlink:href="#DejaVuSans-2d" x="254.492188"/>
       <use xlink:href="#DejaVuSans-30" x="290.576172"/>
       <use xlink:href="#DejaVuSans-31" x="354.199219"/>
      </g>
     </g>
    </g>
    <g id="xtick_6">
     <g id="line2d_6">
      <g>
       <use xlink:href="#m2859643846" x="268.741203" y="288.430125" style="stroke: #000000; stroke-width: 0.8"/>
      </g>
     </g>
     <g id="text_6">
      <!-- 2006-04 -->
      <g transform="translate(231.516383 322.901971)rotate(-30)scale(0.1 -0.1)">
       <use xlink:href="#DejaVuSans-32"/>
       <use xlink:href="#DejaVuSans-30" x="63.623047"/>
       <use xlink:href="#DejaVuSans-30" x="127.246094"/>
       <use xlink:href="#DejaVuSans-36" x="190.869141"/>
       <use xlink:href="#DejaVuSans-2d" x="254.492188"/>
       <use xlink:href="#DejaVuSans-30" x="290.576172"/>
       <use xlink:href="#DejaVuSans-34" x="354.199219"/>
      </g>
     </g>
    </g>
    <g id="xtick_7">
     <g id="line2d_7">
      <g>
       <use xlink:href="#m2859643846" x="309.214149" y="288.430125" style="stroke: #000000; stroke-width: 0.8"/>
      </g>
     </g>
     <g id="text_7">
      <!-- 2006-07 -->
      <g transform="translate(271.989328 322.901971)rotate(-30)scale(0.1 -0.1)">
       <use xlink:href="#DejaVuSans-32"/>
       <use xlink:href="#DejaVuSans-30" x="63.623047"/>
       <use xlink:href="#DejaVuSans-30" x="127.246094"/>
       <use xlink:href="#DejaVuSans-36" x="190.869141"/>
       <use xlink:href="#DejaVuSans-2d" x="254.492188"/>
       <use xlink:href="#DejaVuSans-30" x="290.576172"/>
       <use xlink:href="#DejaVuSans-37" x="354.199219"/>
      </g>
     </g>
    </g>
    <g id="xtick_8">
     <g id="line2d_8">
      <g>
       <use xlink:href="#m2859643846" x="350.131851" y="288.430125" style="stroke: #000000; stroke-width: 0.8"/>
      </g>
     </g>
     <g id="text_8">
      <!-- 2006-10 -->
      <g transform="translate(312.907031 322.901971)rotate(-30)scale(0.1 -0.1)">
       <use xlink:href="#DejaVuSans-32"/>
       <use xlink:href="#DejaVuSans-30" x="63.623047"/>
       <use xlink:href="#DejaVuSans-30" x="127.246094"/>
       <use xlink:href="#DejaVuSans-36" x="190.869141"/>
       <use xlink:href="#DejaVuSans-2d" x="254.492188"/>
       <use xlink:href="#DejaVuSans-31" x="290.576172"/>
       <use xlink:href="#DejaVuSans-30" x="354.199219"/>
      </g>
     </g>
    </g>
    <g id="xtick_9">
     <g id="line2d_9">
      <g>
       <use xlink:href="#m2859643846" x="391.049554" y="288.430125" style="stroke: #000000; stroke-width: 0.8"/>
      </g>
     </g>
     <g id="text_9">
      <!-- 2007-01 -->
      <g transform="translate(353.824733 322.901971)rotate(-30)scale(0.1 -0.1)">
       <use xlink:href="#DejaVuSans-32"/>
       <use xlink:href="#DejaVuSans-30" x="63.623047"/>
       <use xlink:href="#DejaVuSans-30" x="127.246094"/>
       <use xlink:href="#DejaVuSans-37" x="190.869141"/>
       <use xlink:href="#DejaVuSans-2d" x="254.492188"/>
       <use xlink:href="#DejaVuSans-30" x="290.576172"/>
       <use xlink:href="#DejaVuSans-31" x="354.199219"/>
      </g>
     </g>
    </g>
    <g id="text_10">
     <!-- timesteps -->
     <g transform="translate(203.987344 336.301471)scale(0.1 -0.1)">
      <defs>
       <path id="DejaVuSans-74" d="M 1172 4494 
L 1172 3500 
L 2356 3500 
L 2356 3053 
L 1172 3053 
L 1172 1153 
Q 1172 725 1289 603 
Q 1406 481 1766 481 
L 2356 481 
L 2356 0 
L 1766 0 
Q 1100 0 847 248 
Q 594 497 594 1153 
L 594 3053 
L 172 3053 
L 172 3500 
L 594 3500 
L 594 4494 
L 1172 4494 
z
" transform="scale(0.015625)"/>
       <path id="DejaVuSans-69" d="M 603 3500 
L 1178 3500 
L 1178 0 
L 603 0 
L 603 3500 
z
M 603 4863 
L 1178 4863 
L 1178 4134 
L 603 4134 
L 603 4863 
z
" transform="scale(0.015625)"/>
       <path id="DejaVuSans-6d" d="M 3328 2828 
Q 3544 3216 3844 3400 
Q 4144 3584 4550 3584 
Q 5097 3584 5394 3201 
Q 5691 2819 5691 2113 
L 5691 0 
L 5113 0 
L 5113 2094 
Q 5113 2597 4934 2840 
Q 4756 3084 4391 3084 
Q 3944 3084 3684 2787 
Q 3425 2491 3425 1978 
L 3425 0 
L 2847 0 
L 2847 2094 
Q 2847 2600 2669 2842 
Q 2491 3084 2119 3084 
Q 1678 3084 1418 2786 
Q 1159 2488 1159 1978 
L 1159 0 
L 581 0 
L 581 3500 
L 1159 3500 
L 1159 2956 
Q 1356 3278 1631 3431 
Q 1906 3584 2284 3584 
Q 2666 3584 2933 3390 
Q 3200 3197 3328 2828 
z
" transform="scale(0.015625)"/>
       <path id="DejaVuSans-65" d="M 3597 1894 
L 3597 1613 
L 953 1613 
Q 991 1019 1311 708 
Q 1631 397 2203 397 
Q 2534 397 2845 478 
Q 3156 559 3463 722 
L 3463 178 
Q 3153 47 2828 -22 
Q 2503 -91 2169 -91 
Q 1331 -91 842 396 
Q 353 884 353 1716 
Q 353 2575 817 3079 
Q 1281 3584 2069 3584 
Q 2775 3584 3186 3129 
Q 3597 2675 3597 1894 
z
M 3022 2063 
Q 3016 2534 2758 2815 
Q 2500 3097 2075 3097 
Q 1594 3097 1305 2825 
Q 1016 2553 972 2059 
L 3022 2063 
z
" transform="scale(0.015625)"/>
       <path id="DejaVuSans-73" d="M 2834 3397 
L 2834 2853 
Q 2591 2978 2328 3040 
Q 2066 3103 1784 3103 
Q 1356 3103 1142 2972 
Q 928 2841 928 2578 
Q 928 2378 1081 2264 
Q 1234 2150 1697 2047 
L 1894 2003 
Q 2506 1872 2764 1633 
Q 3022 1394 3022 966 
Q 3022 478 2636 193 
Q 2250 -91 1575 -91 
Q 1294 -91 989 -36 
Q 684 19 347 128 
L 347 722 
Q 666 556 975 473 
Q 1284 391 1588 391 
Q 1994 391 2212 530 
Q 2431 669 2431 922 
Q 2431 1156 2273 1281 
Q 2116 1406 1581 1522 
L 1381 1569 
Q 847 1681 609 1914 
Q 372 2147 372 2553 
Q 372 3047 722 3315 
Q 1072 3584 1716 3584 
Q 2034 3584 2315 3537 
Q 2597 3491 2834 3397 
z
" transform="scale(0.015625)"/>
       <path id="DejaVuSans-70" d="M 1159 525 
L 1159 -1331 
L 581 -1331 
L 581 3500 
L 1159 3500 
L 1159 2969 
Q 1341 3281 1617 3432 
Q 1894 3584 2278 3584 
Q 2916 3584 3314 3078 
Q 3713 2572 3713 1747 
Q 3713 922 3314 415 
Q 2916 -91 2278 -91 
Q 1894 -91 1617 61 
Q 1341 213 1159 525 
z
M 3116 1747 
Q 3116 2381 2855 2742 
Q 2594 3103 2138 3103 
Q 1681 3103 1420 2742 
Q 1159 2381 1159 1747 
Q 1159 1113 1420 752 
Q 1681 391 2138 391 
Q 2594 391 2855 752 
Q 3116 1113 3116 1747 
z
" transform="scale(0.015625)"/>
      </defs>
      <use xlink:href="#DejaVuSans-74"/>
      <use xlink:href="#DejaVuSans-69" x="39.208984"/>
      <use xlink:href="#DejaVuSans-6d" x="66.992188"/>
      <use xlink:href="#DejaVuSans-65" x="164.404297"/>
      <use xlink:href="#DejaVuSans-73" x="225.927734"/>
      <use xlink:href="#DejaVuSans-74" x="278.027344"/>
      <use xlink:href="#DejaVuSans-65" x="317.236328"/>
      <use xlink:href="#DejaVuSans-70" x="378.759766"/>
      <use xlink:href="#DejaVuSans-73" x="442.236328"/>
     </g>
    </g>
   </g>
   <g id="matplotlib.axis_2">
    <g id="ytick_1">
     <g id="line2d_10">
      <defs>
       <path id="m3959d8b3e1" d="M 0 0 
L -3.5 0 
" style="stroke: #000000; stroke-width: 0.8"/>
      </defs>
      <g>
       <use xlink:href="#m3959d8b3e1" x="50.14375" y="272.756384" style="stroke: #000000; stroke-width: 0.8"/>
      </g>
     </g>
     <g id="text_11">
      <!-- 4.50 -->
      <g transform="translate(20.878125 276.555603)scale(0.1 -0.1)">
       <defs>
        <path id="DejaVuSans-2e" d="M 684 794 
L 1344 794 
L 1344 0 
L 684 0 
L 684 794 
z
" transform="scale(0.015625)"/>
       </defs>
       <use xlink:href="#DejaVuSans-34"/>
       <use xlink:href="#DejaVuSans-2e" x="63.623047"/>
       <use xlink:href="#DejaVuSans-35" x="95.410156"/>
       <use xlink:href="#DejaVuSans-30" x="159.033203"/>
      </g>
     </g>
    </g>
    <g id="ytick_2">
     <g id="line2d_11">
      <g>
       <use xlink:href="#m3959d8b3e1" x="50.14375" y="242.509905" style="stroke: #000000; stroke-width: 0.8"/>
      </g>
     </g>
     <g id="text_12">
      <!-- 4.75 -->
      <g transform="translate(20.878125 246.309124)scale(0.1 -0.1)">
       <use xlink:href="#DejaVuSans-34"/>
       <use xlink:href="#DejaVuSans-2e" x="63.623047"/>
       <use xlink:href="#DejaVuSans-37" x="95.410156"/>
       <use xlink:href="#DejaVuSans-35" x="159.033203"/>
      </g>
     </g>
    </g>
    <g id="ytick_3">
     <g id="line2d_12">
      <g>
       <use xlink:href="#m3959d8b3e1" x="50.14375" y="212.263425" style="stroke: #000000; stroke-width: 0.8"/>
      </g>
     </g>
     <g id="text_13">
      <!-- 5.00 -->
      <g transform="translate(20.878125 216.062644)scale(0.1 -0.1)">
       <use xlink:href="#DejaVuSans-35"/>
       <use xlink:href="#DejaVuSans-2e" x="63.623047"/>
       <use xlink:href="#DejaVuSans-30" x="95.410156"/>
       <use xlink:href="#DejaVuSans-30" x="159.033203"/>
      </g>
     </g>
    </g>
    <g id="ytick_4">
     <g id="line2d_13">
      <g>
       <use xlink:href="#m3959d8b3e1" x="50.14375" y="182.016946" style="stroke: #000000; stroke-width: 0.8"/>
      </g>
     </g>
     <g id="text_14">
      <!-- 5.25 -->
      <g transform="translate(20.878125 185.816164)scale(0.1 -0.1)">
       <use xlink:href="#DejaVuSans-35"/>
       <use xlink:href="#DejaVuSans-2e" x="63.623047"/>
       <use xlink:href="#DejaVuSans-32" x="95.410156"/>
       <use xlink:href="#DejaVuSans-35" x="159.033203"/>
      </g>
     </g>
    </g>
    <g id="ytick_5">
     <g id="line2d_14">
      <g>
       <use xlink:href="#m3959d8b3e1" x="50.14375" y="151.770466" style="stroke: #000000; stroke-width: 0.8"/>
      </g>
     </g>
     <g id="text_15">
      <!-- 5.50 -->
      <g transform="translate(20.878125 155.569685)scale(0.1 -0.1)">
       <use xlink:href="#DejaVuSans-35"/>
       <use xlink:href="#DejaVuSans-2e" x="63.623047"/>
       <use xlink:href="#DejaVuSans-35" x="95.410156"/>
       <use xlink:href="#DejaVuSans-30" x="159.033203"/>
      </g>
     </g>
    </g>
    <g id="ytick_6">
     <g id="line2d_15">
      <g>
       <use xlink:href="#m3959d8b3e1" x="50.14375" y="121.523986" style="stroke: #000000; stroke-width: 0.8"/>
      </g>
     </g>
     <g id="text_16">
      <!-- 5.75 -->
      <g transform="translate(20.878125 125.323205)scale(0.1 -0.1)">
       <use xlink:href="#DejaVuSans-35"/>
       <use xlink:href="#DejaVuSans-2e" x="63.623047"/>
       <use xlink:href="#DejaVuSans-37" x="95.410156"/>
       <use xlink:href="#DejaVuSans-35" x="159.033203"/>
      </g>
     </g>
    </g>
    <g id="ytick_7">
     <g id="line2d_16">
      <g>
       <use xlink:href="#m3959d8b3e1" x="50.14375" y="91.277507" style="stroke: #000000; stroke-width: 0.8"/>
      </g>
     </g>
     <g id="text_17">
      <!-- 6.00 -->
      <g transform="translate(20.878125 95.076725)scale(0.1 -0.1)">
       <use xlink:href="#DejaVuSans-36"/>
       <use xlink:href="#DejaVuSans-2e" x="63.623047"/>
       <use xlink:href="#DejaVuSans-30" x="95.410156"/>
       <use xlink:href="#DejaVuSans-30" x="159.033203"/>
      </g>
     </g>
    </g>
    <g id="ytick_8">
     <g id="line2d_17">
      <g>
       <use xlink:href="#m3959d8b3e1" x="50.14375" y="61.031027" style="stroke: #000000; stroke-width: 0.8"/>
      </g>
     </g>
     <g id="text_18">
      <!-- 6.25 -->
      <g transform="translate(20.878125 64.830246)scale(0.1 -0.1)">
       <use xlink:href="#DejaVuSans-36"/>
       <use xlink:href="#DejaVuSans-2e" x="63.623047"/>
       <use xlink:href="#DejaVuSans-32" x="95.410156"/>
       <use xlink:href="#DejaVuSans-35" x="159.033203"/>
      </g>
     </g>
    </g>
    <g id="ytick_9">
     <g id="line2d_18">
      <g>
       <use xlink:href="#m3959d8b3e1" x="50.14375" y="30.784547" style="stroke: #000000; stroke-width: 0.8"/>
      </g>
     </g>
     <g id="text_19">
      <!-- 6.50 -->
      <g transform="translate(20.878125 34.583766)scale(0.1 -0.1)">
       <use xlink:href="#DejaVuSans-36"/>
       <use xlink:href="#DejaVuSans-2e" x="63.623047"/>
       <use xlink:href="#DejaVuSans-35" x="95.410156"/>
       <use xlink:href="#DejaVuSans-30" x="159.033203"/>
      </g>
     </g>
    </g>
    <g id="text_20">
     <!-- storage -->
     <g transform="translate(14.798438 174.368656)rotate(-90)scale(0.1 -0.1)">
      <defs>
       <path id="DejaVuSans-6f" d="M 1959 3097 
Q 1497 3097 1228 2736 
Q 959 2375 959 1747 
Q 959 1119 1226 758 
Q 1494 397 1959 397 
Q 2419 397 2687 759 
Q 2956 1122 2956 1747 
Q 2956 2369 2687 2733 
Q 2419 3097 1959 3097 
z
M 1959 3584 
Q 2709 3584 3137 3096 
Q 3566 2609 3566 1747 
Q 3566 888 3137 398 
Q 2709 -91 1959 -91 
Q 1206 -91 779 398 
Q 353 888 353 1747 
Q 353 2609 779 3096 
Q 1206 3584 1959 3584 
z
" transform="scale(0.015625)"/>
       <path id="DejaVuSans-72" d="M 2631 2963 
Q 2534 3019 2420 3045 
Q 2306 3072 2169 3072 
Q 1681 3072 1420 2755 
Q 1159 2438 1159 1844 
L 1159 0 
L 581 0 
L 581 3500 
L 1159 3500 
L 1159 2956 
Q 1341 3275 1631 3429 
Q 1922 3584 2338 3584 
Q 2397 3584 2469 3576 
Q 2541 3569 2628 3553 
L 2631 2963 
z
" transform="scale(0.015625)"/>
       <path id="DejaVuSans-61" d="M 2194 1759 
Q 1497 1759 1228 1600 
Q 959 1441 959 1056 
Q 959 750 1161 570 
Q 1363 391 1709 391 
Q 2188 391 2477 730 
Q 2766 1069 2766 1631 
L 2766 1759 
L 2194 1759 
z
M 3341 1997 
L 3341 0 
L 2766 0 
L 2766 531 
Q 2569 213 2275 61 
Q 1981 -91 1556 -91 
Q 1019 -91 701 211 
Q 384 513 384 1019 
Q 384 1609 779 1909 
Q 1175 2209 1959 2209 
L 2766 2209 
L 2766 2266 
Q 2766 2663 2505 2880 
Q 2244 3097 1772 3097 
Q 1472 3097 1187 3025 
Q 903 2953 641 2809 
L 641 3341 
Q 956 3463 1253 3523 
Q 1550 3584 1831 3584 
Q 2591 3584 2966 3190 
Q 3341 2797 3341 1997 
z
" transform="scale(0.015625)"/>
       <path id="DejaVuSans-67" d="M 2906 1791 
Q 2906 2416 2648 2759 
Q 2391 3103 1925 3103 
Q 1463 3103 1205 2759 
Q 947 2416 947 1791 
Q 947 1169 1205 825 
Q 1463 481 1925 481 
Q 2391 481 2648 825 
Q 2906 1169 2906 1791 
z
M 3481 434 
Q 3481 -459 3084 -895 
Q 2688 -1331 1869 -1331 
Q 1566 -1331 1297 -1286 
Q 1028 -1241 775 -1147 
L 775 -588 
Q 1028 -725 1275 -790 
Q 1522 -856 1778 -856 
Q 2344 -856 2625 -561 
Q 2906 -266 2906 331 
L 2906 616 
Q 2728 306 2450 153 
Q 2172 0 1784 0 
Q 1141 0 747 490 
Q 353 981 353 1791 
Q 353 2603 747 3093 
Q 1141 3584 1784 3584 
Q 2172 3584 2450 3431 
Q 2728 3278 2906 2969 
L 2906 3500 
L 3481 3500 
L 3481 434 
z
" transform="scale(0.015625)"/>
      </defs>
      <use xlink:href="#DejaVuSans-73"/>
      <use xlink:href="#DejaVuSans-74" x="52.099609"/>
      <use xlink:href="#DejaVuSans-6f" x="91.308594"/>
      <use xlink:href="#DejaVuSans-72" x="152.490234"/>
      <use xlink:href="#DejaVuSans-61" x="193.603516"/>
      <use xlink:href="#DejaVuSans-67" x="254.882812"/>
      <use xlink:href="#DejaVuSans-65" x="318.359375"/>
     </g>
    </g>
    <g id="text_21">
     <!-- 1e10 -->
     <g transform="translate(50.14375 19.318125)scale(0.1 -0.1)">
      <use xlink:href="#DejaVuSans-31"/>
      <use xlink:href="#DejaVuSans-65" x="63.623047"/>
      <use xlink:href="#DejaVuSans-31" x="125.146484"/>
      <use xlink:href="#DejaVuSans-30" x="188.769531"/>
     </g>
    </g>
   </g>
   <g id="line2d_19">
    <path d="M 66.376477 213.292259 
L 66.710046 213.644812 
L 66.913893 213.865412 
L 70.119854 217.622772 
L 72.658679 219.666381 
L 72.955184 219.904614 
L 73.233158 220.089196 
L 75.734919 221.998809 
L 76.068488 222.112381 
L 76.364993 222.189524 
L 77.032129 222.42265 
L 77.347166 222.513581 
L 78.366402 222.848001 
L 78.681439 222.939015 
L 79.181791 223.272983 
L 79.459765 223.467182 
L 80.386343 224.126413 
L 81.405579 224.505623 
L 81.572363 224.526738 
L 81.831805 224.649015 
L 82.054184 224.715629 
L 82.83251 225.087582 
L 83.166078 225.247871 
L 83.351394 225.308823 
L 83.610836 225.461455 
L 83.796151 225.522438 
L 84.055593 225.675163 
L 84.240909 225.736177 
L 84.500351 225.888934 
L 84.685667 225.949979 
L 84.945109 226.102783 
L 85.130424 226.154568 
L 85.797561 226.361282 
L 88.058412 227.124195 
L 88.280791 227.180029 
L 89.077648 227.5148 
L 89.300027 227.619072 
L 90.096885 227.947257 
L 90.819616 228.279922 
L 91.079058 228.385926 
L 92.765431 228.739531 
L 93.488162 228.339403 
L 93.840262 228.130923 
L 93.988514 228.027877 
L 94.303551 227.872451 
L 94.451803 227.767365 
L 94.785372 227.655527 
L 95.600761 227.290561 
L 95.823139 227.175103 
L 96.935033 226.757526 
L 97.157412 226.64208 
L 98.584343 226.077881 
L 98.917911 225.922441 
L 99.195885 225.854456 
L 99.307074 225.790892 
L 99.603579 225.673731 
L 99.825958 225.559497 
L 101.864431 224.714326 
L 101.97562 224.646326 
L 102.290657 224.51384 
L 102.420378 224.450653 
L 102.735414 224.318118 
L 102.865135 224.254932 
L 103.180172 224.122402 
L 103.309893 224.059218 
L 103.62493 223.926706 
L 103.791714 223.864981 
L 104.255003 223.643827 
L 104.848013 223.401591 
L 105.867249 222.975346 
L 105.978439 222.908725 
L 106.293475 222.7782 
L 106.386133 222.748897 
L 109.629158 207.743091 
L 110.277763 204.732602 
L 118.320463 169.582009 
L 118.709626 167.916418 
L 123.194266 150.58967 
L 123.342518 150.055555 
L 123.95406 147.901483 
L 124.602665 145.612342 
L 125.288333 143.135938 
L 126.140785 140.237605 
L 128.957584 131.131076 
L 129.254089 130.207514 
L 133.627539 116.612532 
L 134.776496 115.693442 
L 134.850622 115.606651 
L 135.18419 115.273207 
L 135.332443 115.174868 
L 135.610417 114.915362 
L 136.722311 113.973312 
L 136.944689 113.844167 
L 137.148537 113.636106 
L 137.333852 113.544399 
L 137.871268 113.103475 
L 137.963926 113.031102 
L 138.260431 112.854225 
L 138.797846 112.669378 
L 138.909036 112.558854 
L 139.07582 112.523447 
L 139.279667 112.470581 
L 139.520577 112.335253 
L 139.724425 112.282366 
L 139.965335 112.147023 
L 140.169182 112.094129 
L 140.410093 111.958775 
L 140.61394 111.905862 
L 140.85485 111.770486 
L 141.058698 111.717557 
L 141.336671 111.536616 
L 141.892618 111.302818 
L 141.985276 111.251718 
L 142.189123 111.163283 
L 142.392971 111.106327 
L 142.633881 110.966219 
L 142.837728 110.909249 
L 143.078639 110.769142 
L 143.282486 110.712183 
L 143.523396 110.572046 
L 143.727243 110.515057 
L 143.968154 110.374899 
L 144.172001 110.317883 
L 144.412911 110.162414 
L 144.63529 110.129087 
L 144.913264 109.990468 
L 145.283895 109.861101 
L 145.506274 109.829776 
L 145.747184 109.71166 
L 145.951032 109.673121 
L 146.191942 109.554992 
L 146.395789 109.516435 
L 146.6367 109.398288 
L 146.840547 109.359722 
L 146.859079 109.337578 
L 146.933205 109.411233 
L 147.081457 109.745917 
L 147.433557 110.366314 
L 147.989504 111.481247 
L 149.11993 113.687284 
L 149.268182 113.965311 
L 149.638814 114.640939 
L 154.457022 124.008764 
L 154.586742 124.220332 
L 155.124158 125.23105 
L 155.680105 126.251344 
L 155.921015 126.608202 
L 156.458431 127.619595 
L 157.440604 129.2705 
L 157.700046 129.695096 
L 158.089209 130.318394 
L 160.998665 135.487288 
L 161.276639 136.090947 
L 161.832586 137.394678 
L 162.629443 139.227063 
L 163.018606 140.037631 
L 163.833995 141.644401 
L 163.982248 141.984296 
L 164.4826 142.978126 
L 164.853231 143.693973 
L 165.372115 144.736399 
L 165.742747 145.452526 
L 166.206036 146.348645 
L 166.854641 147.731379 
L 167.169677 148.338479 
L 167.948003 149.904687 
L 168.485419 151.027185 
L 168.85605 151.764899 
L 169.263745 152.547454 
L 173.896637 161.658165 
L 174.156079 162.141575 
L 174.971468 163.916072 
L 175.212378 164.52553 
L 175.564478 165.287707 
L 177.640013 169.84781 
L 177.880924 170.432083 
L 178.288618 171.337621 
L 179.270791 173.4427 
L 180.234433 175.454615 
L 180.530938 176.071248 
L 181.587238 178.311084 
L 181.883743 178.912893 
L 182.402627 180.086996 
L 183.218016 181.801608 
L 183.62571 182.679977 
L 184.385504 184.294371 
L 185.16383 186.043157 
L 185.441804 186.671198 
L 186.016282 188.036779 
L 186.312787 188.713101 
L 186.868735 189.863059 
L 187.239366 190.465394 
L 187.591466 191.055402 
L 188.814549 193.271584 
L 189.518749 194.654541 
L 189.88938 195.320657 
L 190.871553 197.19586 
L 191.446032 198.188353 
L 193.66982 202.277478 
L 194.355488 203.638423 
L 194.689056 204.322177 
L 197.024034 209.188987 
L 197.357602 209.840487 
L 201.063916 217.659955 
L 203.82512 223.70468 
L 204.362535 224.827552 
L 204.751698 225.686873 
L 205.270582 226.816013 
L 205.993313 228.432182 
L 206.567792 229.626797 
L 209.199274 235.344333 
L 209.829348 236.684979 
L 211.719568 240.544138 
L 212.071667 241.237512 
L 212.979714 243.070281 
L 216.537775 249.933308 
L 218.798627 253.821356 
L 219.595484 255.27759 
L 222.486409 260.630369 
L 222.801445 261.115661 
L 223.394456 262.095321 
L 223.616834 262.472709 
L 225.025234 264.762234 
L 225.45146 265.422118 
L 226.896922 267.694586 
L 227.267553 268.238887 
L 227.638185 268.815739 
L 228.157069 269.657774 
L 228.472105 270.135006 
L 228.805674 270.551588 
L 238.201179 275.402808 
L 241.370077 275.703594 
L 242.074277 276.09251 
L 242.296655 276.224997 
L 242.648755 276.255532 
L 243.241765 276.055565 
L 248.319415 274.565467 
L 248.61592 274.467809 
L 248.764173 274.394454 
L 249.060678 274.296819 
L 249.20893 274.223458 
L 249.505435 274.125754 
L 249.653688 274.052387 
L 249.950193 273.954741 
L 250.098446 273.881368 
L 250.394951 273.783662 
L 250.561735 273.705815 
L 250.876771 273.635706 
L 251.488313 273.398788 
L 252.192513 273.245946 
L 252.303702 273.195335 
L 252.600207 273.111172 
L 252.822586 273.021553 
L 253.526786 272.868682 
L 253.637975 272.815142 
L 253.990075 272.67878 
L 254.935185 272.270911 
L 256.139737 267.421753 
L 261.532423 246.588291 
L 262.014244 244.750331 
L 263.218796 240.065599 
L 265.98 229.345767 
L 266.480352 227.419941 
L 268.148193 220.913628 
L 269.130366 216.749583 
L 289.311244 120.530164 
L 290.311949 115.829977 
L 294.889246 94.420043 
L 296.390303 88.498798 
L 296.909187 87.265265 
L 297.29835 86.293554 
L 298.558497 83.35711 
L 298.873533 82.641177 
L 298.966191 82.426222 
L 299.318291 81.589989 
L 299.410949 81.374979 
L 299.763049 80.538567 
L 299.855707 80.323503 
L 300.207806 79.486862 
L 300.318996 79.222101 
L 300.671096 78.524569 
L 300.782285 78.284936 
L 301.134385 77.624212 
L 301.634737 76.629939 
L 301.968305 75.956185 
L 302.098026 75.699554 
L 302.450126 75.046734 
L 302.542784 74.824705 
L 302.894884 74.171671 
L 302.987542 73.949593 
L 303.339641 73.296338 
L 303.432299 73.079928 
L 303.784399 72.373577 
L 303.895588 72.131417 
L 304.247688 71.462215 
L 304.748041 70.455962 
L 305.081609 69.773939 
L 305.21133 69.514681 
L 305.56343 68.853371 
L 305.656087 68.629412 
L 306.008187 67.967862 
L 306.100845 67.743854 
L 306.452945 67.082074 
L 306.545603 66.86602 
L 306.897703 66.192857 
L 307.008892 65.960009 
L 307.34246 65.338824 
L 307.45365 65.102978 
L 307.750155 64.55589 
L 307.879876 64.305759 
L 308.231975 63.676025 
L 308.324633 63.459318 
L 308.676733 62.829363 
L 308.769391 62.612609 
L 309.121491 61.98244 
L 309.325338 61.849475 
L 309.34387 61.885472 
L 309.640375 62.239701 
L 309.862753 62.406856 
L 310.159259 62.679752 
L 310.28898 62.809186 
L 310.956116 63.527398 
L 311.159963 63.667401 
L 311.456468 63.969605 
L 311.586189 64.072955 
L 311.901226 64.405457 
L 312.030947 64.508814 
L 312.345984 64.841338 
L 312.475705 64.944701 
L 312.809273 65.28431 
L 312.957525 65.421647 
L 313.476409 65.953848 
L 313.865572 66.354479 
L 314.125014 66.599059 
L 314.254735 66.704975 
L 314.569772 67.045135 
L 314.699493 67.151058 
L 315.014529 67.491239 
L 315.14425 67.597169 
L 315.459287 67.937372 
L 315.589008 68.04331 
L 315.904045 68.378573 
L 316.070829 68.480429 
L 316.589713 68.90837 
L 316.941813 69.189153 
L 317.238318 69.438789 
L 317.349507 69.488505 
L 317.627481 69.80331 
L 317.812796 69.884254 
L 318.127833 70.160073 
L 318.239022 70.209799 
L 318.516996 70.524635 
L 318.702312 70.605597 
L 319.017348 70.881351 
L 319.184132 70.968739 
L 319.703016 71.356254 
L 320.036584 71.589076 
L 320.351621 71.838516 
L 320.481342 71.913923 
L 320.796379 72.163382 
L 320.9261 72.238795 
L 321.241136 72.488273 
L 321.370857 72.56369 
L 321.685894 72.813171 
L 321.815615 72.888595 
L 322.130652 73.137 
L 322.297436 73.205086 
L 322.81632 73.534526 
L 323.001635 73.697819 
L 323.205483 74.091459 
L 323.539051 74.656177 
L 326.152002 79.406413 
L 326.281723 79.621821 
L 326.819138 80.541742 
L 327.171238 81.109807 
L 327.727185 82.065986 
L 328.190475 82.837669 
L 328.950269 84.112803 
L 330.0251 86.064356 
L 330.284542 86.457778 
L 330.803426 87.399793 
L 331.32231 88.286619 
L 331.56322 88.640451 
L 332.15623 89.645863 
L 333.119872 91.289963 
L 333.323719 91.549814 
L 334.027919 92.824356 
L 334.250297 93.109955 
L 334.602397 93.719858 
L 334.769181 93.969802 
L 335.436318 95.089395 
L 335.621633 95.354697 
L 335.992265 95.899399 
L 336.992969 97.672461 
L 337.623043 98.982597 
L 338.012206 99.654894 
L 338.234585 100.047179 
L 339.01291 101.593421 
L 339.216758 101.979243 
L 339.71711 102.942196 
L 340.254526 104.000564 
L 340.588094 104.618624 
L 347.833937 117.987438 
L 348.426947 119.087732 
L 348.649326 119.581785 
L 349.668562 121.652536 
L 349.853878 121.982675 
L 350.743393 123.892927 
L 352.24445 127.334448 
L 352.559487 128.039704 
L 353.226623 129.562166 
L 353.578723 130.289744 
L 353.838165 130.839475 
L 356.654963 137.128669 
L 359.731204 144.909957 
L 360.268619 146.234459 
L 360.602188 147.042668 
L 361.158135 148.407096 
L 361.528766 149.256544 
L 362.04765 150.546393 
L 362.418281 151.396444 
L 363.252202 153.405896 
L 366.643479 161.603103 
L 366.865858 162.17233 
L 367.384742 163.441949 
L 367.755373 164.277966 
L 368.274257 165.597142 
L 368.644888 166.505684 
L 369.589998 168.890367 
L 369.923566 169.775953 
L 374.167296 180.136282 
L 374.389674 180.683257 
L 375.242127 182.655628 
L 375.946326 184.386931 
L 376.150173 184.910297 
L 378.133051 189.358015 
L 378.466619 189.937958 
L 378.874314 190.714786 
L 379.708234 192.361949 
L 381.616986 196.096988 
L 381.89496 196.640591 
L 383.043917 199.156436 
L 383.284827 199.6876 
L 384.118748 201.464291 
L 384.526442 202.277247 
L 387.991846 208.536317 
L 388.232756 208.897104 
L 391.031023 213.279102 
L 391.031023 213.279102 
" clip-path="url(#p42f7870248)" style="fill: none; stroke: #1f77b4; stroke-width: 1.5; stroke-linecap: square"/>
   </g>
   <g id="line2d_20">
    <path clip-path="url(#p42f7870248)" style="fill: none; stroke: #000000; stroke-width: 1.5; stroke-linecap: square"/>
   </g>
   <g id="line2d_21">
    <path d="M 50.14375 34.414125 
L 407.26375 34.414125 
" clip-path="url(#p42f7870248)" style="fill: none; stroke: #ff0000; stroke-width: 1.5; stroke-linecap: square"/>
   </g>
   <g id="line2d_22">
    <path d="M 50.14375 73.55307 
L 407.26375 73.55307 
" clip-path="url(#p42f7870248)" style="fill: none; stroke-dasharray: 5.55,2.4; stroke-dashoffset: 0; stroke: #ff00ff; stroke-width: 1.5"/>
   </g>
   <g id="patch_3">
    <path d="M 50.14375 288.430125 
L 50.14375 22.318125 
" style="fill: none; stroke: #000000; stroke-width: 0.8; stroke-linejoin: miter; stroke-linecap: square"/>
   </g>
   <g id="patch_4">
    <path d="M 407.26375 288.430125 
L 407.26375 22.318125 
" style="fill: none; stroke: #000000; stroke-width: 0.8; stroke-linejoin: miter; stroke-linecap: square"/>
   </g>
   <g id="patch_5">
    <path d="M 50.14375 288.430125 
L 407.26375 288.430125 
" style="fill: none; stroke: #000000; stroke-width: 0.8; stroke-linejoin: miter; stroke-linecap: square"/>
   </g>
   <g id="patch_6">
    <path d="M 50.14375 22.318125 
L 407.26375 22.318125 
" style="fill: none; stroke: #000000; stroke-width: 0.8; stroke-linejoin: miter; stroke-linecap: square"/>
   </g>
   <g id="text_22">
    <!-- loc_techs_store = Zambia::storageC -->
    <g transform="translate(119.971563 16.318125)scale(0.12 -0.12)">
     <defs>
      <path id="DejaVuSans-6c" d="M 603 4863 
L 1178 4863 
L 1178 0 
L 603 0 
L 603 4863 
z
" transform="scale(0.015625)"/>
      <path id="DejaVuSans-63" d="M 3122 3366 
L 3122 2828 
Q 2878 2963 2633 3030 
Q 2388 3097 2138 3097 
Q 1578 3097 1268 2742 
Q 959 2388 959 1747 
Q 959 1106 1268 751 
Q 1578 397 2138 397 
Q 2388 397 2633 464 
Q 2878 531 3122 666 
L 3122 134 
Q 2881 22 2623 -34 
Q 2366 -91 2075 -91 
Q 1284 -91 818 406 
Q 353 903 353 1747 
Q 353 2603 823 3093 
Q 1294 3584 2113 3584 
Q 2378 3584 2631 3529 
Q 2884 3475 3122 3366 
z
" transform="scale(0.015625)"/>
      <path id="DejaVuSans-5f" d="M 3263 -1063 
L 3263 -1509 
L -63 -1509 
L -63 -1063 
L 3263 -1063 
z
" transform="scale(0.015625)"/>
      <path id="DejaVuSans-68" d="M 3513 2113 
L 3513 0 
L 2938 0 
L 2938 2094 
Q 2938 2591 2744 2837 
Q 2550 3084 2163 3084 
Q 1697 3084 1428 2787 
Q 1159 2491 1159 1978 
L 1159 0 
L 581 0 
L 581 4863 
L 1159 4863 
L 1159 2956 
Q 1366 3272 1645 3428 
Q 1925 3584 2291 3584 
Q 2894 3584 3203 3211 
Q 3513 2838 3513 2113 
z
" transform="scale(0.015625)"/>
      <path id="DejaVuSans-20" transform="scale(0.015625)"/>
      <path id="DejaVuSans-3d" d="M 678 2906 
L 4684 2906 
L 4684 2381 
L 678 2381 
L 678 2906 
z
M 678 1631 
L 4684 1631 
L 4684 1100 
L 678 1100 
L 678 1631 
z
" transform="scale(0.015625)"/>
      <path id="DejaVuSans-5a" d="M 359 4666 
L 4025 4666 
L 4025 4184 
L 1075 531 
L 4097 531 
L 4097 0 
L 288 0 
L 288 481 
L 3238 4134 
L 359 4134 
L 359 4666 
z
" transform="scale(0.015625)"/>
      <path id="DejaVuSans-62" d="M 3116 1747 
Q 3116 2381 2855 2742 
Q 2594 3103 2138 3103 
Q 1681 3103 1420 2742 
Q 1159 2381 1159 1747 
Q 1159 1113 1420 752 
Q 1681 391 2138 391 
Q 2594 391 2855 752 
Q 3116 1113 3116 1747 
z
M 1159 2969 
Q 1341 3281 1617 3432 
Q 1894 3584 2278 3584 
Q 2916 3584 3314 3078 
Q 3713 2572 3713 1747 
Q 3713 922 3314 415 
Q 2916 -91 2278 -91 
Q 1894 -91 1617 61 
Q 1341 213 1159 525 
L 1159 0 
L 581 0 
L 581 4863 
L 1159 4863 
L 1159 2969 
z
" transform="scale(0.015625)"/>
      <path id="DejaVuSans-3a" d="M 750 794 
L 1409 794 
L 1409 0 
L 750 0 
L 750 794 
z
M 750 3309 
L 1409 3309 
L 1409 2516 
L 750 2516 
L 750 3309 
z
" transform="scale(0.015625)"/>
      <path id="DejaVuSans-43" d="M 4122 4306 
L 4122 3641 
Q 3803 3938 3442 4084 
Q 3081 4231 2675 4231 
Q 1875 4231 1450 3742 
Q 1025 3253 1025 2328 
Q 1025 1406 1450 917 
Q 1875 428 2675 428 
Q 3081 428 3442 575 
Q 3803 722 4122 1019 
L 4122 359 
Q 3791 134 3420 21 
Q 3050 -91 2638 -91 
Q 1578 -91 968 557 
Q 359 1206 359 2328 
Q 359 3453 968 4101 
Q 1578 4750 2638 4750 
Q 3056 4750 3426 4639 
Q 3797 4528 4122 4306 
z
" transform="scale(0.015625)"/>
     </defs>
     <use xlink:href="#DejaVuSans-6c"/>
     <use xlink:href="#DejaVuSans-6f" x="27.783203"/>
     <use xlink:href="#DejaVuSans-63" x="88.964844"/>
     <use xlink:href="#DejaVuSans-5f" x="143.945312"/>
     <use xlink:href="#DejaVuSans-74" x="193.945312"/>
     <use xlink:href="#DejaVuSans-65" x="233.154297"/>
     <use xlink:href="#DejaVuSans-63" x="294.677734"/>
     <use xlink:href="#DejaVuSans-68" x="349.658203"/>
     <use xlink:href="#DejaVuSans-73" x="413.037109"/>
     <use xlink:href="#DejaVuSans-5f" x="465.136719"/>
     <use xlink:href="#DejaVuSans-73" x="515.136719"/>
     <use xlink:href="#DejaVuSans-74" x="567.236328"/>
     <use xlink:href="#DejaVuSans-6f" x="606.445312"/>
     <use xlink:href="#DejaVuSans-72" x="667.626953"/>
     <use xlink:href="#DejaVuSans-65" x="706.490234"/>
     <use xlink:href="#DejaVuSans-20" x="768.013672"/>
     <use xlink:href="#DejaVuSans-3d" x="799.800781"/>
     <use xlink:href="#DejaVuSans-20" x="883.589844"/>
     <use xlink:href="#DejaVuSans-5a" x="915.376953"/>
     <use xlink:href="#DejaVuSans-61" x="983.882812"/>
     <use xlink:href="#DejaVuSans-6d" x="1045.162109"/>
     <use xlink:href="#DejaVuSans-62" x="1142.574219"/>
     <use xlink:href="#DejaVuSans-69" x="1206.050781"/>
     <use xlink:href="#DejaVuSans-61" x="1233.833984"/>
     <use xlink:href="#DejaVuSans-3a" x="1295.113281"/>
     <use xlink:href="#DejaVuSans-3a" x="1328.804688"/>
     <use xlink:href="#DejaVuSans-73" x="1362.496094"/>
     <use xlink:href="#DejaVuSans-74" x="1414.595703"/>
     <use xlink:href="#DejaVuSans-6f" x="1453.804688"/>
     <use xlink:href="#DejaVuSans-72" x="1514.986328"/>
     <use xlink:href="#DejaVuSans-61" x="1556.099609"/>
     <use xlink:href="#DejaVuSans-67" x="1617.378906"/>
     <use xlink:href="#DejaVuSans-65" x="1680.855469"/>
     <use xlink:href="#DejaVuSans-43" x="1742.378906"/>
    </g>
   </g>
   <g id="legend_1">
    <g id="patch_7">
     <path d="M 428.54855 89.865 
L 554.48605 89.865 
Q 556.48605 89.865 556.48605 87.865 
L 556.48605 29.318125 
Q 556.48605 27.318125 554.48605 27.318125 
L 428.54855 27.318125 
Q 426.54855 27.318125 426.54855 29.318125 
L 426.54855 87.865 
Q 426.54855 89.865 428.54855 89.865 
z
" style="fill: #ffffff; opacity: 0.8; stroke: #cccccc; stroke-linejoin: miter"/>
    </g>
    <g id="line2d_23">
     <path d="M 430.54855 35.416562 
L 440.54855 35.416562 
L 450.54855 35.416562 
" style="fill: none; stroke: #1f77b4; stroke-width: 1.5; stroke-linecap: square"/>
    </g>
    <g id="text_23">
     <!-- Storage -->
     <g transform="translate(458.54855 38.916562)scale(0.1 -0.1)">
      <defs>
       <path id="DejaVuSans-53" d="M 3425 4513 
L 3425 3897 
Q 3066 4069 2747 4153 
Q 2428 4238 2131 4238 
Q 1616 4238 1336 4038 
Q 1056 3838 1056 3469 
Q 1056 3159 1242 3001 
Q 1428 2844 1947 2747 
L 2328 2669 
Q 3034 2534 3370 2195 
Q 3706 1856 3706 1288 
Q 3706 609 3251 259 
Q 2797 -91 1919 -91 
Q 1588 -91 1214 -16 
Q 841 59 441 206 
L 441 856 
Q 825 641 1194 531 
Q 1563 422 1919 422 
Q 2459 422 2753 634 
Q 3047 847 3047 1241 
Q 3047 1584 2836 1778 
Q 2625 1972 2144 2069 
L 1759 2144 
Q 1053 2284 737 2584 
Q 422 2884 422 3419 
Q 422 4038 858 4394 
Q 1294 4750 2059 4750 
Q 2388 4750 2728 4690 
Q 3069 4631 3425 4513 
z
" transform="scale(0.015625)"/>
      </defs>
      <use xlink:href="#DejaVuSans-53"/>
      <use xlink:href="#DejaVuSans-74" x="63.476562"/>
      <use xlink:href="#DejaVuSans-6f" x="102.685547"/>
      <use xlink:href="#DejaVuSans-72" x="163.867188"/>
      <use xlink:href="#DejaVuSans-61" x="204.980469"/>
      <use xlink:href="#DejaVuSans-67" x="266.259766"/>
      <use xlink:href="#DejaVuSans-65" x="329.736328"/>
     </g>
    </g>
    <g id="line2d_24">
     <path d="M 430.54855 50.094687 
L 440.54855 50.094687 
L 450.54855 50.094687 
" style="fill: none; stroke: #000000; stroke-width: 1.5; stroke-linecap: square"/>
    </g>
    <g id="text_24">
     <!-- Storage_cap_max -->
     <g transform="translate(458.54855 53.594687)scale(0.1 -0.1)">
      <defs>
       <path id="DejaVuSans-78" d="M 3513 3500 
L 2247 1797 
L 3578 0 
L 2900 0 
L 1881 1375 
L 863 0 
L 184 0 
L 1544 1831 
L 300 3500 
L 978 3500 
L 1906 2253 
L 2834 3500 
L 3513 3500 
z
" transform="scale(0.015625)"/>
      </defs>
      <use xlink:href="#DejaVuSans-53"/>
      <use xlink:href="#DejaVuSans-74" x="63.476562"/>
      <use xlink:href="#DejaVuSans-6f" x="102.685547"/>
      <use xlink:href="#DejaVuSans-72" x="163.867188"/>
      <use xlink:href="#DejaVuSans-61" x="204.980469"/>
      <use xlink:href="#DejaVuSans-67" x="266.259766"/>
      <use xlink:href="#DejaVuSans-65" x="329.736328"/>
      <use xlink:href="#DejaVuSans-5f" x="391.259766"/>
      <use xlink:href="#DejaVuSans-63" x="441.259766"/>
      <use xlink:href="#DejaVuSans-61" x="496.240234"/>
      <use xlink:href="#DejaVuSans-70" x="557.519531"/>
      <use xlink:href="#DejaVuSans-5f" x="620.996094"/>
      <use xlink:href="#DejaVuSans-6d" x="670.996094"/>
      <use xlink:href="#DejaVuSans-61" x="768.408203"/>
      <use xlink:href="#DejaVuSans-78" x="829.6875"/>
     </g>
    </g>
    <g id="line2d_25">
     <path d="M 430.54855 65.050937 
L 440.54855 65.050937 
L 450.54855 65.050937 
" style="fill: none; stroke: #ff0000; stroke-width: 1.5; stroke-linecap: square"/>
    </g>
    <g id="text_25">
     <!-- Storage_cap -->
     <g transform="translate(458.54855 68.550937)scale(0.1 -0.1)">
      <use xlink:href="#DejaVuSans-53"/>
      <use xlink:href="#DejaVuSans-74" x="63.476562"/>
      <use xlink:href="#DejaVuSans-6f" x="102.685547"/>
      <use xlink:href="#DejaVuSans-72" x="163.867188"/>
      <use xlink:href="#DejaVuSans-61" x="204.980469"/>
      <use xlink:href="#DejaVuSans-67" x="266.259766"/>
      <use xlink:href="#DejaVuSans-65" x="329.736328"/>
      <use xlink:href="#DejaVuSans-5f" x="391.259766"/>
      <use xlink:href="#DejaVuSans-63" x="441.259766"/>
      <use xlink:href="#DejaVuSans-61" x="496.240234"/>
      <use xlink:href="#DejaVuSans-70" x="557.519531"/>
     </g>
    </g>
    <g id="line2d_26">
     <path d="M 430.54855 80.007187 
L 440.54855 80.007187 
L 450.54855 80.007187 
" style="fill: none; stroke-dasharray: 5.55,2.4; stroke-dashoffset: 0; stroke: #ff00ff; stroke-width: 1.5"/>
    </g>
    <g id="text_26">
     <!-- Spillage_Threshold -->
     <g transform="translate(458.54855 83.507187)scale(0.1 -0.1)">
      <defs>
       <path id="DejaVuSans-54" d="M -19 4666 
L 3928 4666 
L 3928 4134 
L 2272 4134 
L 2272 0 
L 1638 0 
L 1638 4134 
L -19 4134 
L -19 4666 
z
" transform="scale(0.015625)"/>
       <path id="DejaVuSans-64" d="M 2906 2969 
L 2906 4863 
L 3481 4863 
L 3481 0 
L 2906 0 
L 2906 525 
Q 2725 213 2448 61 
Q 2172 -91 1784 -91 
Q 1150 -91 751 415 
Q 353 922 353 1747 
Q 353 2572 751 3078 
Q 1150 3584 1784 3584 
Q 2172 3584 2448 3432 
Q 2725 3281 2906 2969 
z
M 947 1747 
Q 947 1113 1208 752 
Q 1469 391 1925 391 
Q 2381 391 2643 752 
Q 2906 1113 2906 1747 
Q 2906 2381 2643 2742 
Q 2381 3103 1925 3103 
Q 1469 3103 1208 2742 
Q 947 2381 947 1747 
z
" transform="scale(0.015625)"/>
      </defs>
      <use xlink:href="#DejaVuSans-53"/>
      <use xlink:href="#DejaVuSans-70" x="63.476562"/>
      <use xlink:href="#DejaVuSans-69" x="126.953125"/>
      <use xlink:href="#DejaVuSans-6c" x="154.736328"/>
      <use xlink:href="#DejaVuSans-6c" x="182.519531"/>
      <use xlink:href="#DejaVuSans-61" x="210.302734"/>
      <use xlink:href="#DejaVuSans-67" x="271.582031"/>
      <use xlink:href="#DejaVuSans-65" x="335.058594"/>
      <use xlink:href="#DejaVuSans-5f" x="396.582031"/>
      <use xlink:href="#DejaVuSans-54" x="446.582031"/>
      <use xlink:href="#DejaVuSans-68" x="507.666016"/>
      <use xlink:href="#DejaVuSans-72" x="571.044922"/>
      <use xlink:href="#DejaVuSans-65" x="609.908203"/>
      <use xlink:href="#DejaVuSans-73" x="671.431641"/>
      <use xlink:href="#DejaVuSans-68" x="723.53125"/>
      <use xlink:href="#DejaVuSans-6f" x="786.910156"/>
      <use xlink:href="#DejaVuSans-6c" x="848.091797"/>
      <use xlink:href="#DejaVuSans-64" x="875.875"/>
     </g>
    </g>
   </g>
  </g>
 </g>
 <defs>
  <clipPath id="p42f7870248">
   <rect x="50.14375" y="22.318125" width="357.12" height="266.112"/>
  </clipPath>
 </defs>
</svg>
