<?xml version="1.0" encoding="utf-8" standalone="no"?>
<!DOCTYPE svg PUBLIC "-//W3C//DTD SVG 1.1//EN"
  "http://www.w3.org/Graphics/SVG/1.1/DTD/svg11.dtd">
<svg xmlns:xlink="http://www.w3.org/1999/xlink" width="555.13605pt" height="345.581158pt" viewBox="0 0 555.13605 345.581158" xmlns="http://www.w3.org/2000/svg" version="1.1">
 <metadata>
  <rdf:RDF xmlns:dc="http://purl.org/dc/elements/1.1/" xmlns:cc="http://creativecommons.org/ns#" xmlns:rdf="http://www.w3.org/1999/02/22-rdf-syntax-ns#">
   <cc:Work>
    <dc:type rdf:resource="http://purl.org/dc/dcmitype/StillImage"/>
    <dc:date>2022-05-09T21:39:07.069787</dc:date>
    <dc:format>image/svg+xml</dc:format>
    <dc:creator>
     <cc:Agent>
      <dc:title>Matplotlib v3.5.1, https://matplotlib.org/</dc:title>
     </cc:Agent>
    </dc:creator>
   </cc:Work>
  </rdf:RDF>
 </metadata>
 <defs>
  <style type="text/css">*{stroke-linejoin: round; stroke-linecap: butt}</style>
 </defs>
 <g id="figure_1">
  <g id="patch_1">
   <path d="M 0 345.581158 
L 555.13605 345.581158 
L 555.13605 0 
L 0 0 
z
" style="fill: #ffffff"/>
  </g>
  <g id="axes_1">
   <g id="patch_2">
    <path d="M 43.78125 288.430125 
L 400.90125 288.430125 
L 400.90125 22.318125 
L 43.78125 22.318125 
z
" style="fill: #ffffff"/>
   </g>
   <g id="matplotlib.axis_1">
    <g id="xtick_1">
     <g id="line2d_1">
      <defs>
       <path id="mc8a578cb17" d="M 0 0 
L 0 3.5 
" style="stroke: #000000; stroke-width: 0.8"/>
      </defs>
      <g>
       <use xlink:href="#mc8a578cb17" x="60.013977" y="288.430125" style="stroke: #000000; stroke-width: 0.8"/>
      </g>
     </g>
     <g id="text_1">
      <!-- 2005-01 -->
      <g transform="translate(22.789156 322.901971)rotate(-30)scale(0.1 -0.1)">
       <defs>
        <path id="DejaVuSans-32" d="M 1228 531 
L 3431 531 
L 3431 0 
L 469 0 
L 469 531 
Q 828 903 1448 1529 
Q 2069 2156 2228 2338 
Q 2531 2678 2651 2914 
Q 2772 3150 2772 3378 
Q 2772 3750 2511 3984 
Q 2250 4219 1831 4219 
Q 1534 4219 1204 4116 
Q 875 4013 500 3803 
L 500 4441 
Q 881 4594 1212 4672 
Q 1544 4750 1819 4750 
Q 2544 4750 2975 4387 
Q 3406 4025 3406 3419 
Q 3406 3131 3298 2873 
Q 3191 2616 2906 2266 
Q 2828 2175 2409 1742 
Q 1991 1309 1228 531 
z
" transform="scale(0.015625)"/>
        <path id="DejaVuSans-30" d="M 2034 4250 
Q 1547 4250 1301 3770 
Q 1056 3291 1056 2328 
Q 1056 1369 1301 889 
Q 1547 409 2034 409 
Q 2525 409 2770 889 
Q 3016 1369 3016 2328 
Q 3016 3291 2770 3770 
Q 2525 4250 2034 4250 
z
M 2034 4750 
Q 2819 4750 3233 4129 
Q 3647 3509 3647 2328 
Q 3647 1150 3233 529 
Q 2819 -91 2034 -91 
Q 1250 -91 836 529 
Q 422 1150 422 2328 
Q 422 3509 836 4129 
Q 1250 4750 2034 4750 
z
" transform="scale(0.015625)"/>
        <path id="DejaVuSans-35" d="M 691 4666 
L 3169 4666 
L 3169 4134 
L 1269 4134 
L 1269 2991 
Q 1406 3038 1543 3061 
Q 1681 3084 1819 3084 
Q 2600 3084 3056 2656 
Q 3513 2228 3513 1497 
Q 3513 744 3044 326 
Q 2575 -91 1722 -91 
Q 1428 -91 1123 -41 
Q 819 9 494 109 
L 494 744 
Q 775 591 1075 516 
Q 1375 441 1709 441 
Q 2250 441 2565 725 
Q 2881 1009 2881 1497 
Q 2881 1984 2565 2268 
Q 2250 2553 1709 2553 
Q 1456 2553 1204 2497 
Q 953 2441 691 2322 
L 691 4666 
z
" transform="scale(0.015625)"/>
        <path id="DejaVuSans-2d" d="M 313 2009 
L 1997 2009 
L 1997 1497 
L 313 1497 
L 313 2009 
z
" transform="scale(0.015625)"/>
        <path id="DejaVuSans-31" d="M 794 531 
L 1825 531 
L 1825 4091 
L 703 3866 
L 703 4441 
L 1819 4666 
L 2450 4666 
L 2450 531 
L 3481 531 
L 3481 0 
L 794 0 
L 794 531 
z
" transform="scale(0.015625)"/>
       </defs>
       <use xlink:href="#DejaVuSans-32"/>
       <use xlink:href="#DejaVuSans-30" x="63.623047"/>
       <use xlink:href="#DejaVuSans-30" x="127.246094"/>
       <use xlink:href="#DejaVuSans-35" x="190.869141"/>
       <use xlink:href="#DejaVuSans-2d" x="254.492188"/>
       <use xlink:href="#DejaVuSans-30" x="290.576172"/>
       <use xlink:href="#DejaVuSans-31" x="354.199219"/>
      </g>
     </g>
    </g>
    <g id="xtick_2">
     <g id="line2d_2">
      <g>
       <use xlink:href="#mc8a578cb17" x="100.042165" y="288.430125" style="stroke: #000000; stroke-width: 0.8"/>
      </g>
     </g>
     <g id="text_2">
      <!-- 2005-04 -->
      <g transform="translate(62.817344 322.901971)rotate(-30)scale(0.1 -0.1)">
       <defs>
        <path id="DejaVuSans-34" d="M 2419 4116 
L 825 1625 
L 2419 1625 
L 2419 4116 
z
M 2253 4666 
L 3047 4666 
L 3047 1625 
L 3713 1625 
L 3713 1100 
L 3047 1100 
L 3047 0 
L 2419 0 
L 2419 1100 
L 313 1100 
L 313 1709 
L 2253 4666 
z
" transform="scale(0.015625)"/>
       </defs>
       <use xlink:href="#DejaVuSans-32"/>
       <use xlink:href="#DejaVuSans-30" x="63.623047"/>
       <use xlink:href="#DejaVuSans-30" x="127.246094"/>
       <use xlink:href="#DejaVuSans-35" x="190.869141"/>
       <use xlink:href="#DejaVuSans-2d" x="254.492188"/>
       <use xlink:href="#DejaVuSans-30" x="290.576172"/>
       <use xlink:href="#DejaVuSans-34" x="354.199219"/>
      </g>
     </g>
    </g>
    <g id="xtick_3">
     <g id="line2d_3">
      <g>
       <use xlink:href="#mc8a578cb17" x="140.51511" y="288.430125" style="stroke: #000000; stroke-width: 0.8"/>
      </g>
     </g>
     <g id="text_3">
      <!-- 2005-07 -->
      <g transform="translate(103.290289 322.901971)rotate(-30)scale(0.1 -0.1)">
       <defs>
        <path id="DejaVuSans-37" d="M 525 4666 
L 3525 4666 
L 3525 4397 
L 1831 0 
L 1172 0 
L 2766 4134 
L 525 4134 
L 525 4666 
z
" transform="scale(0.015625)"/>
       </defs>
       <use xlink:href="#DejaVuSans-32"/>
       <use xlink:href="#DejaVuSans-30" x="63.623047"/>
       <use xlink:href="#DejaVuSans-30" x="127.246094"/>
       <use xlink:href="#DejaVuSans-35" x="190.869141"/>
       <use xlink:href="#DejaVuSans-2d" x="254.492188"/>
       <use xlink:href="#DejaVuSans-30" x="290.576172"/>
       <use xlink:href="#DejaVuSans-37" x="354.199219"/>
      </g>
     </g>
    </g>
    <g id="xtick_4">
     <g id="line2d_4">
      <g>
       <use xlink:href="#mc8a578cb17" x="181.432813" y="288.430125" style="stroke: #000000; stroke-width: 0.8"/>
      </g>
     </g>
     <g id="text_4">
      <!-- 2005-10 -->
      <g transform="translate(144.207992 322.901971)rotate(-30)scale(0.1 -0.1)">
       <use xlink:href="#DejaVuSans-32"/>
       <use xlink:href="#DejaVuSans-30" x="63.623047"/>
       <use xlink:href="#DejaVuSans-30" x="127.246094"/>
       <use xlink:href="#DejaVuSans-35" x="190.869141"/>
       <use xlink:href="#DejaVuSans-2d" x="254.492188"/>
       <use xlink:href="#DejaVuSans-31" x="290.576172"/>
       <use xlink:href="#DejaVuSans-30" x="354.199219"/>
      </g>
     </g>
    </g>
    <g id="xtick_5">
     <g id="line2d_5">
      <g>
       <use xlink:href="#mc8a578cb17" x="222.350516" y="288.430125" style="stroke: #000000; stroke-width: 0.8"/>
      </g>
     </g>
     <g id="text_5">
      <!-- 2006-01 -->
      <g transform="translate(185.125695 322.901971)rotate(-30)scale(0.1 -0.1)">
       <defs>
        <path id="DejaVuSans-36" d="M 2113 2584 
Q 1688 2584 1439 2293 
Q 1191 2003 1191 1497 
Q 1191 994 1439 701 
Q 1688 409 2113 409 
Q 2538 409 2786 701 
Q 3034 994 3034 1497 
Q 3034 2003 2786 2293 
Q 2538 2584 2113 2584 
z
M 3366 4563 
L 3366 3988 
Q 3128 4100 2886 4159 
Q 2644 4219 2406 4219 
Q 1781 4219 1451 3797 
Q 1122 3375 1075 2522 
Q 1259 2794 1537 2939 
Q 1816 3084 2150 3084 
Q 2853 3084 3261 2657 
Q 3669 2231 3669 1497 
Q 3669 778 3244 343 
Q 2819 -91 2113 -91 
Q 1303 -91 875 529 
Q 447 1150 447 2328 
Q 447 3434 972 4092 
Q 1497 4750 2381 4750 
Q 2619 4750 2861 4703 
Q 3103 4656 3366 4563 
z
" transform="scale(0.015625)"/>
       </defs>
       <use xlink:href="#DejaVuSans-32"/>
       <use xlink:href="#DejaVuSans-30" x="63.623047"/>
       <use xlink:href="#DejaVuSans-30" x="127.246094"/>
       <use xlink:href="#DejaVuSans-36" x="190.869141"/>
       <use xlink:href="#DejaVuSans-2d" x="254.492188"/>
       <use xlink:href="#DejaVuSans-30" x="290.576172"/>
       <use xlink:href="#DejaVuSans-31" x="354.199219"/>
      </g>
     </g>
    </g>
    <g id="xtick_6">
     <g id="line2d_6">
      <g>
       <use xlink:href="#mc8a578cb17" x="262.378703" y="288.430125" style="stroke: #000000; stroke-width: 0.8"/>
      </g>
     </g>
     <g id="text_6">
      <!-- 2006-04 -->
      <g transform="translate(225.153883 322.901971)rotate(-30)scale(0.1 -0.1)">
       <use xlink:href="#DejaVuSans-32"/>
       <use xlink:href="#DejaVuSans-30" x="63.623047"/>
       <use xlink:href="#DejaVuSans-30" x="127.246094"/>
       <use xlink:href="#DejaVuSans-36" x="190.869141"/>
       <use xlink:href="#DejaVuSans-2d" x="254.492188"/>
       <use xlink:href="#DejaVuSans-30" x="290.576172"/>
       <use xlink:href="#DejaVuSans-34" x="354.199219"/>
      </g>
     </g>
    </g>
    <g id="xtick_7">
     <g id="line2d_7">
      <g>
       <use xlink:href="#mc8a578cb17" x="302.851649" y="288.430125" style="stroke: #000000; stroke-width: 0.8"/>
      </g>
     </g>
     <g id="text_7">
      <!-- 2006-07 -->
      <g transform="translate(265.626828 322.901971)rotate(-30)scale(0.1 -0.1)">
       <use xlink:href="#DejaVuSans-32"/>
       <use xlink:href="#DejaVuSans-30" x="63.623047"/>
       <use xlink:href="#DejaVuSans-30" x="127.246094"/>
       <use xlink:href="#DejaVuSans-36" x="190.869141"/>
       <use xlink:href="#DejaVuSans-2d" x="254.492188"/>
       <use xlink:href="#DejaVuSans-30" x="290.576172"/>
       <use xlink:href="#DejaVuSans-37" x="354.199219"/>
      </g>
     </g>
    </g>
    <g id="xtick_8">
     <g id="line2d_8">
      <g>
       <use xlink:href="#mc8a578cb17" x="343.769351" y="288.430125" style="stroke: #000000; stroke-width: 0.8"/>
      </g>
     </g>
     <g id="text_8">
      <!-- 2006-10 -->
      <g transform="translate(306.544531 322.901971)rotate(-30)scale(0.1 -0.1)">
       <use xlink:href="#DejaVuSans-32"/>
       <use xlink:href="#DejaVuSans-30" x="63.623047"/>
       <use xlink:href="#DejaVuSans-30" x="127.246094"/>
       <use xlink:href="#DejaVuSans-36" x="190.869141"/>
       <use xlink:href="#DejaVuSans-2d" x="254.492188"/>
       <use xlink:href="#DejaVuSans-31" x="290.576172"/>
       <use xlink:href="#DejaVuSans-30" x="354.199219"/>
      </g>
     </g>
    </g>
    <g id="xtick_9">
     <g id="line2d_9">
      <g>
       <use xlink:href="#mc8a578cb17" x="384.687054" y="288.430125" style="stroke: #000000; stroke-width: 0.8"/>
      </g>
     </g>
     <g id="text_9">
      <!-- 2007-01 -->
      <g transform="translate(347.462233 322.901971)rotate(-30)scale(0.1 -0.1)">
       <use xlink:href="#DejaVuSans-32"/>
       <use xlink:href="#DejaVuSans-30" x="63.623047"/>
       <use xlink:href="#DejaVuSans-30" x="127.246094"/>
       <use xlink:href="#DejaVuSans-37" x="190.869141"/>
       <use xlink:href="#DejaVuSans-2d" x="254.492188"/>
       <use xlink:href="#DejaVuSans-30" x="290.576172"/>
       <use xlink:href="#DejaVuSans-31" x="354.199219"/>
      </g>
     </g>
    </g>
    <g id="text_10">
     <!-- timesteps -->
     <g transform="translate(197.624844 336.301471)scale(0.1 -0.1)">
      <defs>
       <path id="DejaVuSans-74" d="M 1172 4494 
L 1172 3500 
L 2356 3500 
L 2356 3053 
L 1172 3053 
L 1172 1153 
Q 1172 725 1289 603 
Q 1406 481 1766 481 
L 2356 481 
L 2356 0 
L 1766 0 
Q 1100 0 847 248 
Q 594 497 594 1153 
L 594 3053 
L 172 3053 
L 172 3500 
L 594 3500 
L 594 4494 
L 1172 4494 
z
" transform="scale(0.015625)"/>
       <path id="DejaVuSans-69" d="M 603 3500 
L 1178 3500 
L 1178 0 
L 603 0 
L 603 3500 
z
M 603 4863 
L 1178 4863 
L 1178 4134 
L 603 4134 
L 603 4863 
z
" transform="scale(0.015625)"/>
       <path id="DejaVuSans-6d" d="M 3328 2828 
Q 3544 3216 3844 3400 
Q 4144 3584 4550 3584 
Q 5097 3584 5394 3201 
Q 5691 2819 5691 2113 
L 5691 0 
L 5113 0 
L 5113 2094 
Q 5113 2597 4934 2840 
Q 4756 3084 4391 3084 
Q 3944 3084 3684 2787 
Q 3425 2491 3425 1978 
L 3425 0 
L 2847 0 
L 2847 2094 
Q 2847 2600 2669 2842 
Q 2491 3084 2119 3084 
Q 1678 3084 1418 2786 
Q 1159 2488 1159 1978 
L 1159 0 
L 581 0 
L 581 3500 
L 1159 3500 
L 1159 2956 
Q 1356 3278 1631 3431 
Q 1906 3584 2284 3584 
Q 2666 3584 2933 3390 
Q 3200 3197 3328 2828 
z
" transform="scale(0.015625)"/>
       <path id="DejaVuSans-65" d="M 3597 1894 
L 3597 1613 
L 953 1613 
Q 991 1019 1311 708 
Q 1631 397 2203 397 
Q 2534 397 2845 478 
Q 3156 559 3463 722 
L 3463 178 
Q 3153 47 2828 -22 
Q 2503 -91 2169 -91 
Q 1331 -91 842 396 
Q 353 884 353 1716 
Q 353 2575 817 3079 
Q 1281 3584 2069 3584 
Q 2775 3584 3186 3129 
Q 3597 2675 3597 1894 
z
M 3022 2063 
Q 3016 2534 2758 2815 
Q 2500 3097 2075 3097 
Q 1594 3097 1305 2825 
Q 1016 2553 972 2059 
L 3022 2063 
z
" transform="scale(0.015625)"/>
       <path id="DejaVuSans-73" d="M 2834 3397 
L 2834 2853 
Q 2591 2978 2328 3040 
Q 2066 3103 1784 3103 
Q 1356 3103 1142 2972 
Q 928 2841 928 2578 
Q 928 2378 1081 2264 
Q 1234 2150 1697 2047 
L 1894 2003 
Q 2506 1872 2764 1633 
Q 3022 1394 3022 966 
Q 3022 478 2636 193 
Q 2250 -91 1575 -91 
Q 1294 -91 989 -36 
Q 684 19 347 128 
L 347 722 
Q 666 556 975 473 
Q 1284 391 1588 391 
Q 1994 391 2212 530 
Q 2431 669 2431 922 
Q 2431 1156 2273 1281 
Q 2116 1406 1581 1522 
L 1381 1569 
Q 847 1681 609 1914 
Q 372 2147 372 2553 
Q 372 3047 722 3315 
Q 1072 3584 1716 3584 
Q 2034 3584 2315 3537 
Q 2597 3491 2834 3397 
z
" transform="scale(0.015625)"/>
       <path id="DejaVuSans-70" d="M 1159 525 
L 1159 -1331 
L 581 -1331 
L 581 3500 
L 1159 3500 
L 1159 2969 
Q 1341 3281 1617 3432 
Q 1894 3584 2278 3584 
Q 2916 3584 3314 3078 
Q 3713 2572 3713 1747 
Q 3713 922 3314 415 
Q 2916 -91 2278 -91 
Q 1894 -91 1617 61 
Q 1341 213 1159 525 
z
M 3116 1747 
Q 3116 2381 2855 2742 
Q 2594 3103 2138 3103 
Q 1681 3103 1420 2742 
Q 1159 2381 1159 1747 
Q 1159 1113 1420 752 
Q 1681 391 2138 391 
Q 2594 391 2855 752 
Q 3116 1113 3116 1747 
z
" transform="scale(0.015625)"/>
      </defs>
      <use xlink:href="#DejaVuSans-74"/>
      <use xlink:href="#DejaVuSans-69" x="39.208984"/>
      <use xlink:href="#DejaVuSans-6d" x="66.992188"/>
      <use xlink:href="#DejaVuSans-65" x="164.404297"/>
      <use xlink:href="#DejaVuSans-73" x="225.927734"/>
      <use xlink:href="#DejaVuSans-74" x="278.027344"/>
      <use xlink:href="#DejaVuSans-65" x="317.236328"/>
      <use xlink:href="#DejaVuSans-70" x="378.759766"/>
      <use xlink:href="#DejaVuSans-73" x="442.236328"/>
     </g>
    </g>
   </g>
   <g id="matplotlib.axis_2">
    <g id="ytick_1">
     <g id="line2d_10">
      <defs>
       <path id="mcda2ec9a2f" d="M 0 0 
L -3.5 0 
" style="stroke: #000000; stroke-width: 0.8"/>
      </defs>
      <g>
       <use xlink:href="#mcda2ec9a2f" x="43.78125" y="285.27934" style="stroke: #000000; stroke-width: 0.8"/>
      </g>
     </g>
     <g id="text_11">
      <!-- 3.0 -->
      <g transform="translate(20.878125 289.078559)scale(0.1 -0.1)">
       <defs>
        <path id="DejaVuSans-33" d="M 2597 2516 
Q 3050 2419 3304 2112 
Q 3559 1806 3559 1356 
Q 3559 666 3084 287 
Q 2609 -91 1734 -91 
Q 1441 -91 1130 -33 
Q 819 25 488 141 
L 488 750 
Q 750 597 1062 519 
Q 1375 441 1716 441 
Q 2309 441 2620 675 
Q 2931 909 2931 1356 
Q 2931 1769 2642 2001 
Q 2353 2234 1838 2234 
L 1294 2234 
L 1294 2753 
L 1863 2753 
Q 2328 2753 2575 2939 
Q 2822 3125 2822 3475 
Q 2822 3834 2567 4026 
Q 2313 4219 1838 4219 
Q 1578 4219 1281 4162 
Q 984 4106 628 3988 
L 628 4550 
Q 988 4650 1302 4700 
Q 1616 4750 1894 4750 
Q 2613 4750 3031 4423 
Q 3450 4097 3450 3541 
Q 3450 3153 3228 2886 
Q 3006 2619 2597 2516 
z
" transform="scale(0.015625)"/>
        <path id="DejaVuSans-2e" d="M 684 794 
L 1344 794 
L 1344 0 
L 684 0 
L 684 794 
z
" transform="scale(0.015625)"/>
       </defs>
       <use xlink:href="#DejaVuSans-33"/>
       <use xlink:href="#DejaVuSans-2e" x="63.623047"/>
       <use xlink:href="#DejaVuSans-30" x="95.410156"/>
      </g>
     </g>
    </g>
    <g id="ytick_2">
     <g id="line2d_11">
      <g>
       <use xlink:href="#mcda2ec9a2f" x="43.78125" y="227.476295" style="stroke: #000000; stroke-width: 0.8"/>
      </g>
     </g>
     <g id="text_12">
      <!-- 3.5 -->
      <g transform="translate(20.878125 231.275514)scale(0.1 -0.1)">
       <use xlink:href="#DejaVuSans-33"/>
       <use xlink:href="#DejaVuSans-2e" x="63.623047"/>
       <use xlink:href="#DejaVuSans-35" x="95.410156"/>
      </g>
     </g>
    </g>
    <g id="ytick_3">
     <g id="line2d_12">
      <g>
       <use xlink:href="#mcda2ec9a2f" x="43.78125" y="169.67325" style="stroke: #000000; stroke-width: 0.8"/>
      </g>
     </g>
     <g id="text_13">
      <!-- 4.0 -->
      <g transform="translate(20.878125 173.472469)scale(0.1 -0.1)">
       <use xlink:href="#DejaVuSans-34"/>
       <use xlink:href="#DejaVuSans-2e" x="63.623047"/>
       <use xlink:href="#DejaVuSans-30" x="95.410156"/>
      </g>
     </g>
    </g>
    <g id="ytick_4">
     <g id="line2d_13">
      <g>
       <use xlink:href="#mcda2ec9a2f" x="43.78125" y="111.870205" style="stroke: #000000; stroke-width: 0.8"/>
      </g>
     </g>
     <g id="text_14">
      <!-- 4.5 -->
      <g transform="translate(20.878125 115.669424)scale(0.1 -0.1)">
       <use xlink:href="#DejaVuSans-34"/>
       <use xlink:href="#DejaVuSans-2e" x="63.623047"/>
       <use xlink:href="#DejaVuSans-35" x="95.410156"/>
      </g>
     </g>
    </g>
    <g id="ytick_5">
     <g id="line2d_14">
      <g>
       <use xlink:href="#mcda2ec9a2f" x="43.78125" y="54.06716" style="stroke: #000000; stroke-width: 0.8"/>
      </g>
     </g>
     <g id="text_15">
      <!-- 5.0 -->
      <g transform="translate(20.878125 57.866379)scale(0.1 -0.1)">
       <use xlink:href="#DejaVuSans-35"/>
       <use xlink:href="#DejaVuSans-2e" x="63.623047"/>
       <use xlink:href="#DejaVuSans-30" x="95.410156"/>
      </g>
     </g>
    </g>
    <g id="text_16">
     <!-- storage -->
     <g transform="translate(14.798438 174.368656)rotate(-90)scale(0.1 -0.1)">
      <defs>
       <path id="DejaVuSans-6f" d="M 1959 3097 
Q 1497 3097 1228 2736 
Q 959 2375 959 1747 
Q 959 1119 1226 758 
Q 1494 397 1959 397 
Q 2419 397 2687 759 
Q 2956 1122 2956 1747 
Q 2956 2369 2687 2733 
Q 2419 3097 1959 3097 
z
M 1959 3584 
Q 2709 3584 3137 3096 
Q 3566 2609 3566 1747 
Q 3566 888 3137 398 
Q 2709 -91 1959 -91 
Q 1206 -91 779 398 
Q 353 888 353 1747 
Q 353 2609 779 3096 
Q 1206 3584 1959 3584 
z
" transform="scale(0.015625)"/>
       <path id="DejaVuSans-72" d="M 2631 2963 
Q 2534 3019 2420 3045 
Q 2306 3072 2169 3072 
Q 1681 3072 1420 2755 
Q 1159 2438 1159 1844 
L 1159 0 
L 581 0 
L 581 3500 
L 1159 3500 
L 1159 2956 
Q 1341 3275 1631 3429 
Q 1922 3584 2338 3584 
Q 2397 3584 2469 3576 
Q 2541 3569 2628 3553 
L 2631 2963 
z
" transform="scale(0.015625)"/>
       <path id="DejaVuSans-61" d="M 2194 1759 
Q 1497 1759 1228 1600 
Q 959 1441 959 1056 
Q 959 750 1161 570 
Q 1363 391 1709 391 
Q 2188 391 2477 730 
Q 2766 1069 2766 1631 
L 2766 1759 
L 2194 1759 
z
M 3341 1997 
L 3341 0 
L 2766 0 
L 2766 531 
Q 2569 213 2275 61 
Q 1981 -91 1556 -91 
Q 1019 -91 701 211 
Q 384 513 384 1019 
Q 384 1609 779 1909 
Q 1175 2209 1959 2209 
L 2766 2209 
L 2766 2266 
Q 2766 2663 2505 2880 
Q 2244 3097 1772 3097 
Q 1472 3097 1187 3025 
Q 903 2953 641 2809 
L 641 3341 
Q 956 3463 1253 3523 
Q 1550 3584 1831 3584 
Q 2591 3584 2966 3190 
Q 3341 2797 3341 1997 
z
" transform="scale(0.015625)"/>
       <path id="DejaVuSans-67" d="M 2906 1791 
Q 2906 2416 2648 2759 
Q 2391 3103 1925 3103 
Q 1463 3103 1205 2759 
Q 947 2416 947 1791 
Q 947 1169 1205 825 
Q 1463 481 1925 481 
Q 2391 481 2648 825 
Q 2906 1169 2906 1791 
z
M 3481 434 
Q 3481 -459 3084 -895 
Q 2688 -1331 1869 -1331 
Q 1566 -1331 1297 -1286 
Q 1028 -1241 775 -1147 
L 775 -588 
Q 1028 -725 1275 -790 
Q 1522 -856 1778 -856 
Q 2344 -856 2625 -561 
Q 2906 -266 2906 331 
L 2906 616 
Q 2728 306 2450 153 
Q 2172 0 1784 0 
Q 1141 0 747 490 
Q 353 981 353 1791 
Q 353 2603 747 3093 
Q 1141 3584 1784 3584 
Q 2172 3584 2450 3431 
Q 2728 3278 2906 2969 
L 2906 3500 
L 3481 3500 
L 3481 434 
z
" transform="scale(0.015625)"/>
      </defs>
      <use xlink:href="#DejaVuSans-73"/>
      <use xlink:href="#DejaVuSans-74" x="52.099609"/>
      <use xlink:href="#DejaVuSans-6f" x="91.308594"/>
      <use xlink:href="#DejaVuSans-72" x="152.490234"/>
      <use xlink:href="#DejaVuSans-61" x="193.603516"/>
      <use xlink:href="#DejaVuSans-67" x="254.882812"/>
      <use xlink:href="#DejaVuSans-65" x="318.359375"/>
     </g>
    </g>
    <g id="text_17">
     <!-- 1e10 -->
     <g transform="translate(43.78125 19.318125)scale(0.1 -0.1)">
      <use xlink:href="#DejaVuSans-31"/>
      <use xlink:href="#DejaVuSans-65" x="63.623047"/>
      <use xlink:href="#DejaVuSans-31" x="125.146484"/>
      <use xlink:href="#DejaVuSans-30" x="188.769531"/>
     </g>
    </g>
   </g>
   <g id="line2d_15">
    <path d="M 60.013977 121.769971 
L 60.180761 122.084537 
L 60.40314 122.644901 
L 60.458735 122.775051 
L 60.662582 123.267881 
L 60.736708 123.406293 
L 61.403845 126.24329 
L 61.663287 126.674337 
L 61.978324 127.701483 
L 62.015387 127.805877 
L 62.367486 129.049207 
L 62.40455 129.151007 
L 62.867839 130.940149 
L 62.904902 131.044599 
L 63.534975 133.698633 
L 63.59057 133.905633 
L 64.202112 136.470854 
L 64.276238 136.60584 
L 65.054564 139.99064 
L 65.091627 140.095105 
L 65.629042 142.25313 
L 65.666106 142.363348 
L 66.222053 144.620324 
L 66.277647 144.828409 
L 66.944784 147.6678 
L 67.037442 147.898697 
L 67.72311 150.816247 
L 67.760173 150.921777 
L 68.20493 152.644147 
L 68.241994 152.748929 
L 68.631157 154.227275 
L 68.686751 154.343234 
L 69.168572 156.232024 
L 69.242698 156.45285 
L 69.705988 158.23178 
L 69.761582 158.366543 
L 70.317529 160.645065 
L 70.391656 160.883257 
L 71.114387 163.977942 
L 71.244108 164.368037 
L 71.762992 166.494479 
L 71.837118 166.720489 
L 72.374533 168.895977 
L 72.430128 169.031794 
L 72.893417 170.831301 
L 73.04167 171.128621 
L 73.449364 172.659203 
L 73.486427 172.76964 
L 73.782933 173.701355 
L 73.894122 173.776711 
L 74.042374 174.092923 
L 74.060906 174.084988 
L 74.079438 174.078875 
L 74.097969 174.172933 
L 74.301816 174.781509 
L 74.320348 174.777092 
L 74.33888 174.771693 
L 74.357411 174.865751 
L 74.690979 176.028985 
L 74.746574 176.114759 
L 74.913358 176.542958 
L 74.93189 176.534408 
L 74.950421 176.526492 
L 74.968953 176.620549 
L 75.191332 177.25008 
L 75.246926 177.231641 
L 75.265458 177.325699 
L 75.543432 178.216862 
L 75.617558 178.296478 
L 75.784342 178.724776 
L 75.802873 178.709234 
L 75.821405 178.697033 
L 75.839937 178.791091 
L 76.099379 179.5946 
L 76.11791 179.58612 
L 76.136442 179.680177 
L 76.395884 180.472841 
L 76.432947 180.450695 
L 76.451478 180.544752 
L 76.618262 180.964747 
L 76.636794 180.948932 
L 76.655326 180.932673 
L 76.673857 181.02673 
L 76.970362 182.018521 
L 77.007425 182.005357 
L 77.025957 182.099415 
L 77.340994 183.13345 
L 77.452183 183.200398 
L 77.674562 183.79192 
L 77.711625 183.748866 
L 77.730157 183.842923 
L 77.915472 184.384286 
L 77.934004 184.35827 
L 77.971067 184.323325 
L 77.989599 184.417383 
L 78.00813 184.400879 
L 78.249041 185.089904 
L 78.341698 185.159825 
L 78.619672 186.126078 
L 78.638203 186.117844 
L 78.749393 186.096055 
L 78.767924 186.190113 
L 78.990303 186.804306 
L 79.027366 186.781103 
L 79.045898 186.875161 
L 79.30534 187.693059 
L 79.323871 187.684896 
L 79.342403 187.778953 
L 79.601845 188.574468 
L 79.65744 188.663603 
L 79.972476 189.722914 
L 80.009539 189.815514 
L 80.194855 190.250969 
L 80.213387 190.238103 
L 80.231918 190.33216 
L 80.435766 190.850487 
L 80.49136 190.938253 
L 80.732271 191.738507 
L 80.750802 191.733501 
L 80.880523 191.768035 
L 81.010244 192.039427 
L 81.028776 192.031436 
L 81.047307 192.009421 
L 81.065839 192.103479 
L 81.251155 192.526333 
L 81.269686 192.50706 
L 81.288218 192.601117 
L 81.529128 193.319321 
L 81.566191 193.293468 
L 81.603254 193.379571 
L 81.862696 194.192449 
L 81.936823 194.261261 
L 82.085075 194.490859 
L 82.103607 194.482916 
L 82.122138 194.576973 
L 82.307454 194.984457 
L 82.325986 194.979805 
L 82.344517 195.073862 
L 82.529833 195.491615 
L 82.603959 195.541734 
L 82.807806 196.176823 
L 82.826338 196.152507 
L 82.844869 196.134739 
L 82.863401 196.228797 
L 82.881933 196.214161 
L 82.97459 196.58142 
L 83.048717 196.521755 
L 83.067248 196.498165 
L 83.08578 196.592222 
L 83.104311 196.589511 
L 83.178438 196.866828 
L 83.252564 196.843298 
L 83.271096 196.819023 
L 83.289627 196.91308 
L 83.419348 197.359846 
L 83.474943 197.32322 
L 83.493474 197.300301 
L 83.512006 197.394358 
L 83.641727 197.857129 
L 83.697322 197.837667 
L 83.734385 197.907469 
L 83.789979 197.863769 
L 84.03089 198.561868 
L 84.049421 198.557058 
L 84.067953 198.651115 
L 84.308863 199.345585 
L 84.38299 199.396958 
L 84.586837 200.03769 
L 84.605368 200.013495 
L 84.6239 199.995846 
L 84.642432 200.089904 
L 84.660963 200.075376 
L 84.86481 200.577474 
L 84.957468 200.661316 
L 85.124252 201.002175 
L 85.235442 201.056568 
L 85.476352 201.771404 
L 85.494884 201.76071 
L 85.513415 201.854767 
L 85.698731 202.284785 
L 85.717263 202.262354 
L 85.735794 202.356411 
L 85.791389 202.337658 
L 85.976704 202.758929 
L 85.995236 202.747001 
L 86.013768 202.841059 
L 86.254678 203.551938 
L 86.291741 203.63584 
L 86.402931 203.539529 
L 86.588246 203.925285 
L 86.625309 203.874089 
L 86.643841 203.968146 
L 86.680904 203.950636 
L 86.86622 204.35337 
L 86.884751 204.334042 
L 86.903283 204.4281 
L 87.070067 204.725632 
L 87.125662 204.6948 
L 87.162725 204.778767 
L 87.366572 205.253905 
L 87.385104 205.238818 
L 87.403635 205.332875 
L 87.588951 205.713956 
L 87.607483 205.703899 
L 87.626014 205.797956 
L 87.81133 206.293905 
L 87.829861 206.278858 
L 87.848393 206.265522 
L 87.866924 206.359579 
L 87.885456 206.346243 
L 88.089303 206.843558 
L 88.126366 206.925037 
L 88.181961 206.863897 
L 88.367277 207.24516 
L 88.422872 207.275316 
L 88.496998 207.222377 
L 88.700845 207.708788 
L 88.737908 207.674591 
L 88.75644 207.768648 
L 88.774971 207.752741 
L 88.849098 207.881607 
L 88.886161 207.846396 
L 88.923224 207.927197 
L 88.960287 207.903752 
L 89.034413 208.173258 
L 89.090008 208.092229 
L 89.10854 208.069428 
L 89.127071 208.163486 
L 89.256792 208.269944 
L 89.293855 208.206566 
L 89.330918 208.290007 
L 89.460639 208.41955 
L 89.571829 208.395478 
L 89.757144 208.86447 
L 89.775676 208.853872 
L 89.794208 208.947929 
L 89.979523 209.320604 
L 89.998055 209.297846 
L 90.016586 209.391903 
L 90.183371 209.783869 
L 90.201902 209.768887 
L 90.29456 209.81698 
L 90.479876 210.287407 
L 90.665191 210.206415 
L 90.794912 210.33613 
L 90.850507 210.260403 
L 90.869039 210.35446 
L 90.943165 210.613498 
L 91.017291 210.549119 
L 91.035823 210.524187 
L 91.054354 210.618245 
L 91.091417 210.571352 
L 91.202607 210.816312 
L 91.23967 210.788757 
L 91.313796 210.710244 
L 91.350859 210.784455 
L 91.48058 211.111967 
L 91.499112 211.077444 
L 91.517643 211.047945 
L 91.536175 211.142002 
L 91.554707 211.12698 
L 91.777085 211.709479 
L 91.795617 211.689648 
L 91.814149 211.783706 
L 91.83268 211.764991 
L 91.999464 212.156087 
L 92.017996 212.142814 
L 92.055059 212.119341 
L 92.092122 212.201444 
L 92.129185 212.389559 
L 92.203311 212.291109 
L 92.258906 212.221636 
L 92.277438 212.315693 
L 92.407159 212.516771 
L 92.42569 212.501819 
L 92.444222 212.491176 
L 92.462753 212.585233 
L 92.481285 212.57459 
L 92.555411 212.740111 
L 92.611006 212.676401 
L 92.629538 212.650399 
L 92.648069 212.744456 
L 92.666601 212.721633 
L 92.888979 213.276017 
L 92.907511 213.26394 
L 92.926043 213.357997 
L 92.944574 213.3452 
L 93.12989 213.717151 
L 93.166953 213.676758 
L 93.185485 213.770816 
L 93.204016 213.756425 
L 93.426395 214.331378 
L 93.463458 214.412794 
L 93.500521 214.36285 
L 93.593179 214.599496 
L 93.648774 214.553156 
L 93.685837 214.518065 
L 93.7229 214.58067 
L 93.871153 214.913012 
L 93.889684 214.900375 
L 93.926747 214.869507 
L 93.945279 214.963564 
L 94.149126 215.430848 
L 94.167658 215.399414 
L 94.186189 215.493471 
L 94.204721 215.47857 
L 94.334442 215.820437 
L 94.371505 215.787822 
L 94.390037 215.767335 
L 94.408568 215.861392 
L 94.4271 215.845134 
L 94.593884 216.137785 
L 94.612415 216.104654 
L 94.630947 216.198712 
L 94.649478 216.179511 
L 94.816263 216.494971 
L 94.871857 216.438912 
L 94.90892 216.514171 
L 95.075705 216.792622 
L 95.094236 216.773437 
L 95.112768 216.867494 
L 95.131299 216.855078 
L 95.335146 217.330684 
L 95.353678 217.308523 
L 95.37221 217.402581 
L 95.390741 217.386488 
L 95.520462 217.472879 
L 95.538994 217.457989 
L 95.557525 217.552047 
L 95.576057 217.540775 
L 95.742841 217.839728 
L 95.761373 217.81839 
L 95.779904 217.912448 
L 95.798436 217.890285 
L 95.928157 218.217658 
L 95.946688 218.187502 
L 95.983751 218.141821 
L 96.002283 218.235879 
L 96.020815 218.224615 
L 96.076409 218.40075 
L 96.150536 218.348682 
L 96.169067 218.31721 
L 96.187599 218.411267 
L 96.20613 218.389936 
L 96.372914 218.680277 
L 96.428509 218.604436 
L 96.465572 218.687217 
L 96.632356 218.979706 
L 96.650888 218.958362 
L 96.669419 219.05242 
L 96.687951 219.030254 
L 96.817672 219.139712 
L 96.836204 219.109558 
L 96.854735 219.203616 
L 96.873267 219.188722 
L 97.077114 219.674368 
L 97.095645 219.653037 
L 97.114177 219.747095 
L 97.132709 219.724939 
L 97.188303 219.896963 
L 97.26243 219.825429 
L 97.299493 219.889354 
L 97.355087 219.825376 
L 97.558935 220.315777 
L 97.577466 220.296832 
L 97.595998 220.39089 
L 97.614529 220.373043 
L 97.74425 220.524334 
L 97.799845 220.402895 
L 97.836908 220.462506 
L 98.003692 220.770208 
L 98.040755 220.820466 
L 98.133413 220.616248 
L 98.300197 220.90951 
L 98.318729 220.873473 
L 98.337261 220.967531 
L 98.355792 220.929778 
L 98.411387 221.061439 
L 98.485513 221.015903 
L 98.504045 220.974894 
L 98.522576 221.068952 
L 98.541108 221.03051 
L 98.559639 221.124568 
L 98.615234 220.974574 
L 98.652297 221.029022 
L 98.68936 220.962323 
L 98.726423 221.019554 
L 98.782018 221.171716 
L 98.856144 221.130615 
L 98.874676 221.084456 
L 98.930271 221.225913 
L 98.948802 221.184998 
L 99.115586 221.476657 
L 99.245307 221.377903 
L 99.412092 221.658356 
L 99.449155 221.714125 
L 99.504749 221.638495 
L 99.671533 221.955346 
L 99.690065 221.942425 
L 99.708597 222.036482 
L 99.727128 222.004863 
L 99.893912 222.286153 
L 99.912444 222.266872 
L 99.930975 222.360929 
L 99.949507 222.328924 
L 100.116291 222.674313 
L 100.208949 222.744332 
L 100.375733 223.106823 
L 100.394265 223.090896 
L 100.412796 223.184954 
L 100.431328 223.183405 
L 100.57958 223.457862 
L 100.653707 223.542153 
L 100.820491 223.907479 
L 100.839022 223.888882 
L 100.857554 223.98294 
L 100.876085 223.979023 
L 101.024338 224.157955 
L 101.135527 224.2373 
L 101.265248 224.416632 
L 101.28378 224.398068 
L 101.302311 224.492125 
L 101.339375 224.486719 
L 101.394969 224.577745 
L 101.52469 224.838993 
L 101.543222 224.832974 
L 101.765601 224.855623 
L 101.932385 225.128763 
L 101.950916 225.112407 
L 101.969448 225.206464 
L 101.98798 225.200469 
L 102.117701 225.471633 
L 102.136232 225.467793 
L 102.173295 225.421857 
L 102.210358 225.514415 
L 102.377142 225.883165 
L 102.432737 225.851306 
L 102.4698 225.93888 
L 102.636584 226.269808 
L 102.729242 226.35791 
L 102.858963 226.619313 
L 102.877495 226.61336 
L 102.988684 226.685068 
L 103.155468 227.026842 
L 103.174 227.008988 
L 103.192531 227.103046 
L 103.211063 227.101569 
L 103.229595 227.195626 
L 103.303721 227.107328 
L 103.322252 227.081182 
L 103.340784 227.17524 
L 103.359316 227.148585 
L 103.451973 227.427812 
L 103.507568 227.378301 
L 103.544631 227.360709 
L 103.563163 227.454767 
L 103.581694 227.43926 
L 103.692884 227.621507 
L 103.711415 227.599017 
L 103.804073 227.680931 
L 103.915263 227.862951 
L 103.933794 227.835019 
L 103.952326 227.797191 
L 103.970857 227.891249 
L 103.989389 227.888052 
L 104.156173 228.257006 
L 104.193236 228.326418 
L 104.267362 228.275367 
L 104.322957 228.346105 
L 104.452678 228.533253 
L 104.47121 228.515611 
L 104.489741 228.609668 
L 104.508273 228.593433 
L 104.637994 228.764653 
L 104.656525 228.726343 
L 104.675057 228.8204 
L 104.693589 228.800734 
L 104.823309 228.916356 
L 104.841841 228.865244 
L 104.860373 228.959301 
L 104.915967 228.944329 
L 105.323662 228.995132 
L 105.471914 229.262299 
L 105.583104 229.234737 
L 105.65723 229.392974 
L 105.712825 229.330396 
L 105.731356 229.279389 
L 105.749888 229.373447 
L 105.768419 229.369332 
L 105.89814 229.619279 
L 105.916672 229.600514 
L 106.064925 229.484936 
L 106.231709 229.766116 
L 106.287303 229.749568 
L 106.324367 229.830338 
L 106.379961 230.017058 
L 106.435556 229.923972 
L 106.472619 229.885466 
L 106.491151 229.979523 
L 106.509682 229.951151 
L 106.676466 230.272604 
L 106.732061 230.247514 
L 106.769124 230.340181 
L 106.824719 230.507128 
L 106.898845 230.44582 
L 106.917377 230.433724 
L 106.935908 230.527782 
L 106.95444 230.517839 
L 106.972971 230.611896 
L 107.047098 230.555652 
L 107.065629 230.500145 
L 107.121224 230.675415 
L 107.250945 230.730206 
L 107.380666 230.824996 
L 107.417729 230.909128 
L 107.621576 230.813542 
L 107.714234 231.092958 
L 107.751297 231.021536 
L 107.769829 230.985145 
L 107.78836 231.079202 
L 107.806892 231.041318 
L 107.936613 231.259966 
L 107.955145 231.210943 
L 107.973676 231.305 
L 107.992208 231.302413 
L 108.121929 231.468116 
L 108.288713 231.525273 
L 108.418434 231.724515 
L 108.436965 231.701961 
L 108.455497 231.796019 
L 108.49256 231.793275 
L 108.548155 231.884592 
L 108.603749 232.056295 
L 108.677876 231.97139 
L 108.696407 231.953553 
L 108.714939 232.04761 
L 108.73347 232.020916 
L 108.863191 232.121359 
L 108.955849 232.190694 
L 109.122633 232.473494 
L 109.141165 232.455677 
L 109.159696 232.549735 
L 109.19676 232.540506 
L 109.252354 232.620459 
L 109.270886 232.714516 
L 109.345012 232.612262 
L 109.363544 232.600796 
L 109.382075 232.694854 
L 109.419138 232.692133 
L 109.622986 232.732017 
L 109.752707 232.892241 
L 109.771238 232.869803 
L 109.78977 232.963861 
L 109.808301 232.952438 
L 109.938022 233.197985 
L 109.956554 233.179357 
L 110.012149 233.246841 
L 110.104806 233.147465 
L 110.160401 233.323566 
L 110.234527 233.291814 
L 110.290122 233.383167 
L 110.419843 233.62566 
L 110.438375 233.615518 
L 110.512501 233.519013 
L 110.549564 233.588546 
L 110.679285 233.759496 
L 110.809006 233.812585 
L 110.938727 233.995413 
L 111.142574 233.908677 
L 111.179637 233.98498 
L 111.309358 234.212221 
L 111.32789 234.192558 
L 111.513206 234.092656 
L 111.531737 234.186713 
L 111.624395 234.141836 
L 111.661458 234.234553 
L 111.791179 234.435502 
L 111.809711 234.414327 
L 111.865305 234.457576 
L 111.957963 234.316698 
L 112.124747 234.665718 
L 112.180342 234.604225 
L 112.217405 234.678655 
L 112.347126 234.76774 
L 112.402721 234.654128 
L 112.476847 234.725957 
L 112.550973 234.799732 
L 112.680694 235.000065 
L 112.699226 234.978927 
L 112.736289 234.928221 
L 112.773352 235.020481 
L 112.903073 235.183636 
L 113.21811 235.183501 
L 113.310768 235.286162 
L 113.347831 235.270121 
L 113.440489 235.33913 
L 113.607273 235.653612 
L 113.662868 235.767741 
L 113.699931 235.868814 
L 113.774057 235.819065 
L 113.959373 236.010882 
L 114.126157 236.292464 
L 114.218815 236.247276 
L 114.237346 236.341334 
L 114.552383 236.797918 
L 114.719167 237.096176 
L 114.774762 237.225575 
L 114.904483 237.384875 
L 114.978609 237.48443 
L 115.10833 237.68584 
L 115.256582 238.05596 
L 115.275114 238.04768 
L 115.386303 238.101238 
L 115.553088 238.308392 
L 115.70134 238.585487 
L 115.812529 238.537558 
L 115.849593 238.640937 
L 116.034908 238.862888 
L 116.164629 239.110791 
L 116.183161 239.106408 
L 116.331413 239.191302 
L 116.461134 239.353452 
L 116.553792 239.493647 
L 116.683513 239.585369 
L 116.776171 239.679896 
L 116.905892 239.842255 
L 118.77758 241.42154 
L 118.870238 241.594474 
L 118.907301 241.583069 
L 118.999959 241.579093 
L 119.166743 241.856141 
L 119.407654 241.908005 
L 119.518843 241.940582 
L 119.667096 242.154343 
L 120.278637 242.40985 
L 120.482485 242.460726 
L 120.612206 242.695202 
L 120.630737 242.671311 
L 120.77899 242.591669 
L 120.908711 242.746701 
L 120.964305 242.846945 
L 121.594379 243.249477 
L 121.742631 243.18002 
L 121.909415 243.515255 
L 122.113263 243.509934 
L 122.242984 243.647986 
L 122.335642 243.784717 
L 122.372705 243.881469 
L 122.446831 243.841716 
L 122.55802 243.913973 
L 122.650678 244.017961 
L 122.66921 243.999735 
L 122.854525 243.955558 
L 122.947183 244.097254 
L 122.984246 244.074013 
L 123.02131 244.155217 
L 123.076904 244.067623 
L 123.225157 244.254961 
L 123.651383 244.399998 
L 123.762572 244.326926 
L 123.818167 244.24731 
L 123.892293 244.316981 
L 124.022014 244.414478 
L 124.262925 244.399074 
L 124.281456 244.493132 
L 124.374114 244.447346 
L 124.411177 244.375622 
L 124.485303 244.464751 
L 124.596493 244.56994 
L 124.615024 244.55811 
L 124.707682 244.417044 
L 124.763277 244.482338 
L 125.078314 244.544714 
L 125.170971 244.659625 
L 125.208035 244.641365 
L 125.411882 244.722038 
L 125.634261 244.74542 
L 125.74545 244.748118 
L 125.875171 244.927089 
L 126.709092 244.799577 
L 126.820281 244.919497 
L 126.838813 244.911106 
L 126.875876 244.967553 
L 126.968534 244.881583 
L 128.117491 244.706629 
L 128.210149 244.865687 
L 128.247212 244.831977 
L 128.562249 244.76625 
L 128.691969 244.745361 
L 128.858754 244.62308 
L 128.988475 244.756259 
L 129.136727 244.736584 
L 129.414701 244.543227 
L 129.433232 244.561341 
L 129.803864 244.727048 
L 130.081837 244.595094 
L 130.267153 244.52585 
L 130.396874 244.772689 
L 130.415405 244.734511 
L 130.489532 244.652463 
L 130.526595 244.747436 
L 131.082542 244.803128 
L 131.156668 244.791047 
L 131.286389 244.928923 
L 131.453173 244.809041 
L 131.582894 244.93043 
L 131.934994 244.974086 
L 132.064715 245.058701 
L 132.250031 245.061077 
L 132.453878 244.860787 
L 132.583599 244.961541 
L 132.935699 244.727891 
L 132.991293 244.823572 
L 133.102483 244.754252 
L 133.158077 244.663294 
L 133.232204 244.735165 
L 133.250735 244.829222 
L 133.324862 244.711594 
L 133.454583 244.735207 
L 133.565772 244.633235 
L 133.751088 244.528044 
L 133.862277 244.713951 
L 133.880809 244.70896 
L 134.60354 244.291634 
L 134.807387 244.168927 
L 134.900045 244.211809 
L 134.918576 244.305867 
L 135.011234 244.247113 
L 135.270676 244.194798 
L 135.363334 244.330342 
L 135.381866 244.301282 
L 135.493055 244.225806 
L 135.511587 244.319864 
L 135.604244 244.226189 
L 135.733965 244.229803 
L 135.974876 243.954011 
L 136.067534 244.054013 
L 136.104597 244.044759 
L 136.215786 243.982763 
L 136.419633 243.757485 
L 136.549354 243.958434 
L 136.567886 243.950518 
L 136.827328 243.957733 
L 136.938517 243.857858 
L 136.957049 243.951915 
L 137.08677 243.903636 
L 137.309149 243.782512 
L 137.43887 243.885364 
L 137.865096 243.78936 
L 137.939222 243.877976 
L 137.976285 243.820336 
L 138.38398 243.519923 
L 138.476638 243.649172 
L 138.495169 243.617794 
L 138.532232 243.57421 
L 138.550764 243.668267 
L 138.569295 243.762325 
L 138.643422 243.67536 
L 138.791674 243.622113 
L 138.884332 243.745597 
L 138.902864 243.726435 
L 139.125242 243.454915 
L 139.143774 243.465448 
L 139.236432 243.537829 
L 139.32909 243.677949 
L 139.347621 243.641471 
L 139.532937 243.435159 
L 139.607063 243.509001 
L 139.662658 243.618909 
L 139.718253 243.600446 
L 139.829442 243.428732 
L 140.033289 243.356119 
L 140.070352 243.439827 
L 140.125947 243.428283 
L 140.403921 243.401664 
L 140.496579 243.313653 
L 140.51511 243.407711 
L 140.718957 243.390453 
L 140.737489 243.48451 
L 140.830147 243.412586 
L 140.941336 243.336792 
L 141.033994 243.4368 
L 141.052526 243.420444 
L 141.682599 243.055379 
L 141.775257 243.143464 
L 141.793788 243.13063 
L 142.034699 243.01197 
L 142.238546 242.79066 
L 142.257077 242.802352 
L 142.423862 242.760033 
L 142.720367 242.559379 
L 143.165124 242.459957 
L 143.276314 242.539694 
L 143.368972 242.412907 
L 143.572819 242.190684 
L 143.59135 242.202389 
L 143.758135 242.176829 
L 144.091703 241.910018 
L 144.221424 241.851722 
L 144.406739 241.671758 
L 144.425271 241.630551 
L 144.443803 241.724608 
L 144.517929 241.684192 
L 144.88856 241.407272 
L 145.036813 241.351441 
L 145.110939 241.264857 
L 145.852202 240.666528 
L 145.981923 240.617222 
L 146.204302 240.334979 
L 146.315491 240.444923 
L 146.334023 240.438352 
L 146.445212 240.383638 
L 146.649059 240.160388 
L 146.760249 240.270281 
L 146.77878 240.26364 
L 146.871438 240.214597 
L 147.112348 239.943726 
L 147.260601 239.943099 
L 147.37179 239.874334 
L 147.631232 239.659005 
L 147.760953 239.633696 
L 149.484389 238.777854 
L 149.558515 238.717318 
L 149.799426 238.494632 
L 150.151526 238.31936 
L 150.744536 238.110084 
L 150.929851 238.116114 
L 151.26342 238.062215 
L 151.356078 238.001074 
L 151.615519 237.900218 
L 151.782304 237.911509 
L 152.078809 237.809949 
L 152.245593 237.792323 
L 152.319719 237.739765 
L 152.356782 237.839122 
L 152.727414 237.748698 
L 152.949792 237.679859 
L 153.116577 237.691029 
L 153.413082 237.585376 
L 153.616929 237.603901 
L 153.876371 237.548574 
L 154.061687 237.553199 
L 154.321128 237.503505 
L 154.469381 237.503973 
L 154.728823 237.451224 
L 154.914139 237.481499 
L 155.173581 237.428684 
L 155.358896 237.458923 
L 155.618338 237.406042 
L 155.803654 237.436246 
L 156.063096 237.383304 
L 156.248412 237.413466 
L 156.507854 237.36045 
L 156.82289 237.503871 
L 157.934784 237.82633 
L 158.064505 237.803223 
L 158.286884 237.847599 
L 158.490731 237.929049 
L 158.731642 237.967457 
L 158.935489 238.048973 
L 159.157868 238.067847 
L 159.398778 238.162998 
L 159.602625 238.18795 
L 159.862067 238.307758 
L 160.566267 238.468498 
L 160.71452 238.481196 
L 160.95543 238.506275 
L 161.159277 238.575031 
L 161.418719 238.620905 
L 161.622566 238.666919 
L 161.844945 238.69665 
L 162.048792 238.770631 
L 162.271171 238.774547 
L 162.49355 238.867236 
L 162.715929 238.873716 
L 163.068029 239.049463 
L 163.216281 239.068165 
L 163.43866 239.150003 
L 163.809291 239.258933 
L 164.050202 239.277242 
L 164.272581 239.386688 
L 164.494959 239.412313 
L 164.73587 239.51391 
L 164.939717 239.542567 
L 165.162096 239.652083 
L 165.384475 239.67779 
L 165.643917 239.774062 
L 168.608968 240.905639 
L 168.738689 240.902658 
L 168.942536 240.9542 
L 169.294636 241.194805 
L 169.442888 241.24257 
L 169.720862 241.410402 
L 170.369467 241.727819 
L 170.517719 241.760866 
L 170.740098 241.855762 
L 170.962477 241.977755 
L 171.166324 242.048382 
L 171.407234 242.194926 
L 171.629613 242.287841 
L 171.851992 242.412335 
L 172.074371 242.505368 
L 172.407939 242.762914 
L 172.574723 242.847756 
L 172.834165 243.025994 
L 176.151316 245.002927 
L 176.3181 245.050753 
L 177.948878 246.053073 
L 178.115662 246.088907 
L 178.523357 246.347335 
L 178.782799 246.435794 
L 179.042241 246.576479 
L 179.524061 246.755216 
L 179.653782 246.80634 
L 179.85763 246.893701 
L 180.061477 246.953268 
L 180.33945 247.09225 
L 180.839803 247.327737 
L 181.432813 247.575679 
L 181.710786 247.7525 
L 182.192607 247.999421 
L 182.34086 248.047091 
L 182.526175 248.126309 
L 182.730023 248.198556 
L 183.045059 248.385186 
L 183.508349 248.62114 
L 183.712196 248.753235 
L 183.87898 248.782639 
L 187.010815 250.639574 
L 188.308025 252.051649 
L 189.456982 253.141803 
L 189.975866 253.699113 
L 193.478332 257.084147 
L 193.793369 257.355879 
L 193.904558 257.486237 
L 194.423442 258.015771 
L 196.146878 259.643519 
L 196.461915 259.905739 
L 196.554573 260.011049 
L 197.11052 260.57503 
L 197.870314 261.306683 
L 198.222414 261.66784 
L 198.333603 261.783349 
L 198.88955 262.383442 
L 199.056334 262.514588 
L 200.001444 263.463119 
L 200.131165 263.603013 
L 200.650049 264.162626 
L 202.336422 265.856383 
L 202.910901 266.469596 
L 203.225937 266.767069 
L 203.596569 267.192462 
L 204.189579 267.948787 
L 204.726994 268.559496 
L 205.097626 269.027726 
L 208.45184 272.851257 
L 209.359886 273.057852 
L 209.471076 273.101013 
L 209.767581 273.176443 
L 210.008491 273.236146 
L 210.434717 273.332814 
L 212.917948 273.722841 
L 213.0662 273.754636 
L 213.344174 273.763962 
L 213.492426 273.775427 
L 213.7704 273.795608 
L 214.141031 273.834156 
L 215.141736 274.029213 
L 215.252925 274.07682 
L 215.493836 274.120476 
L 216.049783 274.283447 
L 216.587198 274.502681 
L 216.865172 274.598503 
L 219.255744 275.224952 
L 219.552249 275.330658 
L 219.756096 275.40718 
L 220.256449 275.646284 
L 220.552954 275.694874 
L 220.812396 275.783013 
L 222.350516 276.318843 
L 222.684084 275.945964 
L 222.943526 275.652489 
L 225.797387 272.457876 
L 226.075361 272.145758 
L 227.576418 270.376849 
L 227.947049 269.94313 
L 228.762438 269.016931 
L 229.522233 268.285473 
L 230.022585 267.727596 
L 230.374685 267.301221 
L 230.67119 266.96125 
L 230.875037 266.858083 
L 231.393921 266.251347 
L 231.875742 265.792373 
L 233.117357 264.916225 
L 235.04464 263.410282 
L 236.249192 261.947649 
L 236.823671 260.457928 
L 237.676123 258.594687 
L 237.694654 258.688745 
L 237.768781 258.510586 
L 239.455153 254.353331 
L 239.473685 254.447388 
L 239.547811 254.262837 
L 241.234184 249.944114 
L 241.252715 250.038171 
L 241.326842 249.85577 
L 242.494331 247.177363 
L 242.512862 247.27142 
L 242.568457 247.1183 
L 243.013214 246.132275 
L 243.031746 246.226332 
L 243.105872 246.046582 
L 243.680351 244.714267 
L 243.698882 244.808324 
L 243.773009 244.644075 
L 247.238412 236.909217 
L 247.256944 237.003274 
L 247.33107 236.838147 
L 247.68317 236.206664 
L 247.701701 236.300721 
L 247.757296 236.17709 
L 247.794359 236.226895 
L 248.27618 235.275966 
L 248.294711 235.370024 
L 248.350306 235.215984 
L 249.017443 233.601508 
L 249.035974 233.695566 
L 249.1101 233.498019 
L 249.906958 231.516424 
L 249.925489 231.610481 
L 249.999616 231.412334 
L 251.537736 227.363356 
L 251.556267 227.457413 
L 251.611862 227.258894 
L 251.630394 227.352951 
L 252.204872 225.868971 
L 252.223404 225.963028 
L 252.278999 225.777216 
L 252.29753 225.871274 
L 252.64963 225.05921 
L 253.983903 221.412603 
L 254.002434 221.50666 
L 254.058029 221.32757 
L 254.280408 220.903609 
L 254.29894 220.997666 
L 254.354534 220.825694 
L 255.688807 217.285471 
L 255.707339 217.379528 
L 255.762933 217.219922 
L 256.43007 215.514834 
L 256.448601 215.608891 
L 256.504196 215.407469 
L 256.522728 215.501526 
L 257.02308 214.224746 
L 257.041612 214.318803 
L 257.097206 214.1602 
L 257.115738 214.254257 
L 257.912595 212.129556 
L 257.931127 212.223613 
L 257.986722 212.065102 
L 258.357353 211.318472 
L 258.375885 211.412529 
L 258.431479 211.253777 
L 258.450011 211.347834 
L 260.544078 204.811173 
L 263.064371 197.386847 
L 271.162667 179.506797 
L 271.55183 178.761031 
L 275.146954 170.542295 
L 275.795559 169.158119 
L 277.407805 167.467764 
L 278.871799 165.922427 
L 279.891035 164.801638 
L 280.613767 164.010983 
L 280.632298 164.10504 
L 280.724956 164.013671 
L 281.558877 163.097787 
L 282.503987 161.97413 
L 282.930213 161.462435 
L 287.600168 155.740585 
L 288.174646 155.021866 
L 288.952972 154.080867 
L 289.323604 153.632465 
L 289.916614 153.131845 
L 290.120461 153.05186 
L 290.416966 152.851066 
L 290.546687 152.784125 
L 290.880255 152.558551 
L 291.028508 152.470342 
L 291.714176 151.923281 
L 291.88096 151.851433 
L 292.214528 151.610528 
L 292.325718 151.530056 
L 292.659286 151.288969 
L 292.770475 151.20844 
L 293.104044 150.967188 
L 293.215233 150.88659 
L 293.548801 150.645151 
L 293.659991 150.564506 
L 294.01209 150.290691 
L 294.160343 150.122187 
L 294.47538 149.80143 
L 294.71629 149.512131 
L 295.086921 149.065993 
L 295.494616 148.597297 
L 295.791121 148.22366 
L 295.920842 148.002871 
L 296.198816 147.609035 
L 296.328537 147.438645 
L 297.106862 146.326698 
L 297.273647 146.095972 
L 297.996378 145.097059 
L 298.126099 144.904613 
L 298.459667 144.45768 
L 298.589388 144.237998 
L 298.904425 143.818097 
L 298.997082 143.677824 
L 299.775408 142.579553 
L 299.905129 142.386433 
L 300.201634 141.94569 
L 300.331355 141.776481 
L 300.924365 140.88752 
L 301.999196 139.275662 
L 302.017728 139.369719 
L 302.091854 139.267239 
L 302.369828 138.768495 
L 302.592207 138.476547 
L 302.888712 138.063398 
L 303.036964 137.86131 
L 303.296406 137.523985 
L 303.46319 137.345235 
L 303.945011 136.735568 
L 304.185921 136.413639 
L 304.315642 136.298157 
L 304.575084 135.862091 
L 304.741869 135.780753 
L 305.093968 135.266578 
L 305.205158 135.173533 
L 305.501663 134.724541 
L 305.668447 134.565212 
L 305.983484 134.130645 
L 306.094673 134.037148 
L 306.391178 133.586796 
L 306.632089 133.308053 
L 307.35482 132.404644 
L 307.447478 132.278035 
L 307.799577 131.813122 
L 307.892235 131.686302 
L 308.596435 130.702666 
L 308.800282 130.486745 
L 309.356229 129.727541 
L 309.800987 129.226053 
L 310.245744 128.736211 
L 310.764628 128.077186 
L 310.931412 127.984421 
L 311.02407 127.844559 
L 311.339107 127.490949 
L 311.487359 127.301588 
L 311.72827 126.990244 
L 311.876522 126.895593 
L 312.191559 126.471578 
L 312.339812 126.342896 
L 312.691911 125.949394 
L 312.821632 125.812969 
L 313.173732 125.447323 
L 315.193673 123.188432 
L 315.341926 123.073942 
L 315.434583 122.996422 
L 315.731089 122.597704 
L 315.916404 122.480331 
L 316.69473 121.739843 
L 316.80592 121.624255 
L 317.065361 121.372936 
L 317.213614 121.313096 
L 317.528651 121.016323 
L 317.695435 120.901584 
L 317.99194 120.651821 
L 318.140192 120.538562 
L 318.436698 120.288067 
L 318.58495 120.169971 
L 318.918518 119.935954 
L 319.011176 119.876004 
L 319.344744 119.670497 
L 319.492997 119.621091 
L 320.104539 119.188255 
L 320.23426 119.187246 
L 320.401044 119.105495 
L 320.641954 119.029034 
L 320.808738 118.995163 
L 321.086712 118.871873 
L 321.253496 118.837073 
L 321.512938 118.708079 
L 321.716785 118.658048 
L 321.994759 118.562087 
L 322.161543 118.527602 
L 322.476579 118.393612 
L 322.624832 118.336862 
L 322.902806 118.215751 
L 323.032526 118.151736 
L 323.329032 118.023367 
L 323.458753 117.983355 
L 323.792321 117.847777 
L 323.922042 117.783822 
L 324.218547 117.654545 
L 324.366799 117.600719 
L 324.644773 117.464289 
L 324.811557 117.411917 
L 325.108062 117.278995 
L 325.293378 117.251559 
L 325.571351 117.146943 
L 325.738135 117.104088 
L 326.034641 117.012149 
L 326.14583 116.947987 
L 326.442335 116.843125 
L 326.609119 116.783313 
L 326.868561 116.684815 
L 327.035345 116.648262 
L 327.294787 116.519611 
L 327.498634 116.477536 
L 327.758076 116.376654 
L 327.924861 116.341744 
L 328.221366 116.232094 
L 328.406681 116.20729 
L 328.703186 116.122117 
L 328.851439 116.084384 
L 329.129412 115.996005 
L 329.277665 115.932528 
L 329.555639 115.853186 
L 329.703891 115.815021 
L 330.000396 115.719961 
L 330.148649 115.68717 
L 330.426622 115.586656 
L 330.611938 115.561772 
L 330.87138 115.50099 
L 331.038164 115.488882 
L 331.204948 115.428704 
L 331.334669 115.551618 
L 331.557048 115.547362 
L 332.075932 115.515473 
L 332.261248 115.501525 
L 332.390968 115.457489 
L 332.631879 115.407607 
L 332.817195 115.423444 
L 333.095168 115.376013 
L 333.299015 115.353761 
L 333.521394 115.317309 
L 333.725241 115.31979 
L 333.966152 115.269476 
L 334.151467 115.285036 
L 334.429441 115.234365 
L 334.65182 115.268071 
L 335.393083 115.302302 
L 335.522804 115.250735 
L 335.745182 115.238597 
L 335.94903 115.258805 
L 336.18994 115.236691 
L 336.393787 115.256806 
L 336.634698 115.234583 
L 336.838545 115.254603 
L 337.079455 115.232261 
L 337.283303 115.250124 
L 337.542744 115.235613 
L 337.857781 115.3567 
L 338.043097 115.35778 
L 338.228413 115.342747 
L 338.580512 115.34075 
L 338.877017 115.303852 
L 339.062333 115.306223 
L 339.321775 115.290094 
L 339.507091 115.293537 
L 339.748001 115.264007 
L 339.951848 115.278994 
L 340.192759 115.249337 
L 340.396606 115.264223 
L 340.656048 115.243074 
L 340.859895 115.246379 
L 341.1564 115.199867 
L 341.323184 115.16276 
L 342.045916 115.044588 
L 342.157105 115.004124 
L 342.435079 114.932822 
L 342.620394 114.906536 
L 342.879836 114.846776 
L 343.04662 114.839339 
L 343.324594 114.765906 
L 343.491378 114.756393 
L 343.769351 114.687511 
L 343.99173 114.752429 
L 344.714461 114.871175 
L 344.844182 114.86087 
L 345.085093 114.867412 
L 345.28894 114.92134 
L 345.52985 114.929304 
L 345.733698 114.981593 
L 345.974608 114.987416 
L 346.178455 115.041622 
L 346.345239 115.022292 
L 346.493492 115.222435 
L 346.623213 115.209833 
L 346.864123 115.217429 
L 347.17916 115.337942 
L 349.162038 115.741217 
L 349.31029 115.729486 
L 349.514138 115.740097 
L 349.736516 115.821889 
L 349.995958 115.857575 
L 350.199806 115.876548 
L 350.459248 115.819522 
L 350.644563 115.824674 
L 350.885474 115.756973 
L 351.181979 115.810105 
L 351.404358 115.832152 
L 351.515547 115.768836 
L 351.756457 115.709495 
L 351.960305 115.710678 
L 352.201215 115.649492 
L 352.330936 115.722277 
L 352.367999 115.674065 
L 352.683036 115.618102 
L 352.831288 115.604543 
L 353.109262 115.545528 
L 353.368704 115.582909 
L 353.739335 115.598811 
L 354.462066 115.571821 
L 354.610319 115.579352 
L 354.869761 115.542013 
L 355.055077 115.578606 
L 355.314519 115.541043 
L 355.499834 115.577493 
L 355.796339 115.523537 
L 355.944592 115.503281 
L 356.222565 115.425464 
L 356.426413 115.423321 
L 356.704386 115.353878 
L 356.87117 115.329836 
L 357.130612 115.251421 
L 357.278865 115.22471 
L 357.556838 115.140194 
L 357.742154 115.120475 
L 357.983064 115.054201 
L 358.16838 115.061608 
L 358.446354 114.995301 
L 358.631669 114.975412 
L 358.87258 114.908905 
L 359.057895 114.916151 
L 359.335869 114.846837 
L 359.539716 114.874549 
L 359.799158 114.832367 
L 359.984474 114.846681 
L 360.243916 114.806014 
L 360.392168 114.800952 
L 360.65161 114.742278 
L 360.836926 114.762943 
L 361.096368 114.704202 
L 361.281684 114.72482 
L 361.541125 114.665971 
L 361.726441 114.686538 
L 361.985883 114.627586 
L 362.171199 114.648052 
L 362.449172 114.599762 
L 362.65302 114.626966 
L 362.912462 114.584005 
L 363.097777 114.597791 
L 363.357219 114.556267 
L 363.505472 114.550725 
L 363.764914 114.49119 
L 363.950229 114.511301 
L 364.209671 114.451637 
L 364.394987 114.471638 
L 364.654429 114.411804 
L 364.839745 114.431697 
L 365.099187 114.3717 
L 365.284502 114.391471 
L 365.543944 114.331263 
L 365.858981 114.42416 
L 367.86039 114.667703 
L 367.990111 114.629469 
L 368.21249 114.641673 
L 368.416337 114.686075 
L 368.657248 114.690172 
L 368.935221 114.745703 
L 369.305853 114.774805 
L 369.657952 114.811946 
L 369.676484 114.906003 
L 369.769142 114.84161 
L 369.991521 114.833056 
L 370.195368 114.862087 
L 370.436278 114.843375 
L 370.640126 114.87233 
L 370.881036 114.85352 
L 371.066352 114.877338 
L 371.344325 114.842536 
L 371.529641 114.841531 
L 371.770551 114.803648 
L 372.067056 114.862134 
L 372.567409 114.866644 
L 372.660066 114.831698 
L 372.69713 114.858292 
L 373.049229 114.995839 
L 373.475455 115.01733 
L 373.586645 115.060996 
L 373.753429 115.059388 
L 373.994339 115.039555 
L 374.198187 115.064451 
L 374.439097 115.044529 
L 374.735602 115.136683 
L 375.106233 115.236728 
L 375.365675 115.230959 
L 375.569523 115.266786 
L 376.273722 115.321299 
L 376.421975 115.31318 
L 376.662885 115.304117 
L 376.866732 115.345787 
L 377.107643 115.336564 
L 377.31149 115.378084 
L 377.5524 115.368668 
L 377.756248 115.413448 
L 378.01569 115.579655 
L 378.571637 116.078412 
L 379.387026 116.743279 
L 379.887378 117.168585 
L 383.130403 119.904542 
L 384.52027 120.923454 
L 384.668523 121.675914 
L 384.668523 121.675914 
" clip-path="url(#p9b913c527a)" style="fill: none; stroke: #1f77b4; stroke-width: 1.5; stroke-linecap: square"/>
   </g>
   <g id="line2d_16">
    <path clip-path="url(#p9b913c527a)" style="fill: none; stroke: #000000; stroke-width: 1.5; stroke-linecap: square"/>
   </g>
   <g id="line2d_17">
    <path d="M 43.78125 34.414125 
L 400.90125 34.414125 
" clip-path="url(#p9b913c527a)" style="fill: none; stroke: #ff0000; stroke-width: 1.5; stroke-linecap: square"/>
   </g>
   <g id="line2d_18">
    <path d="M 43.78125 64.298299 
L 400.90125 64.298299 
" clip-path="url(#p9b913c527a)" style="fill: none; stroke-dasharray: 5.55,2.4; stroke-dashoffset: 0; stroke: #ff00ff; stroke-width: 1.5"/>
   </g>
   <g id="patch_3">
    <path d="M 43.78125 288.430125 
L 43.78125 22.318125 
" style="fill: none; stroke: #000000; stroke-width: 0.8; stroke-linejoin: miter; stroke-linecap: square"/>
   </g>
   <g id="patch_4">
    <path d="M 400.90125 288.430125 
L 400.90125 22.318125 
" style="fill: none; stroke: #000000; stroke-width: 0.8; stroke-linejoin: miter; stroke-linecap: square"/>
   </g>
   <g id="patch_5">
    <path d="M 43.78125 288.430125 
L 400.90125 288.430125 
" style="fill: none; stroke: #000000; stroke-width: 0.8; stroke-linejoin: miter; stroke-linecap: square"/>
   </g>
   <g id="patch_6">
    <path d="M 43.78125 22.318125 
L 400.90125 22.318125 
" style="fill: none; stroke: #000000; stroke-width: 0.8; stroke-linejoin: miter; stroke-linecap: square"/>
   </g>
   <g id="text_18">
    <!-- loc_techs_store = Moz-North-Center::storageD -->
    <g transform="translate(82.765313 16.318125)scale(0.12 -0.12)">
     <defs>
      <path id="DejaVuSans-6c" d="M 603 4863 
L 1178 4863 
L 1178 0 
L 603 0 
L 603 4863 
z
" transform="scale(0.015625)"/>
      <path id="DejaVuSans-63" d="M 3122 3366 
L 3122 2828 
Q 2878 2963 2633 3030 
Q 2388 3097 2138 3097 
Q 1578 3097 1268 2742 
Q 959 2388 959 1747 
Q 959 1106 1268 751 
Q 1578 397 2138 397 
Q 2388 397 2633 464 
Q 2878 531 3122 666 
L 3122 134 
Q 2881 22 2623 -34 
Q 2366 -91 2075 -91 
Q 1284 -91 818 406 
Q 353 903 353 1747 
Q 353 2603 823 3093 
Q 1294 3584 2113 3584 
Q 2378 3584 2631 3529 
Q 2884 3475 3122 3366 
z
" transform="scale(0.015625)"/>
      <path id="DejaVuSans-5f" d="M 3263 -1063 
L 3263 -1509 
L -63 -1509 
L -63 -1063 
L 3263 -1063 
z
" transform="scale(0.015625)"/>
      <path id="DejaVuSans-68" d="M 3513 2113 
L 3513 0 
L 2938 0 
L 2938 2094 
Q 2938 2591 2744 2837 
Q 2550 3084 2163 3084 
Q 1697 3084 1428 2787 
Q 1159 2491 1159 1978 
L 1159 0 
L 581 0 
L 581 4863 
L 1159 4863 
L 1159 2956 
Q 1366 3272 1645 3428 
Q 1925 3584 2291 3584 
Q 2894 3584 3203 3211 
Q 3513 2838 3513 2113 
z
" transform="scale(0.015625)"/>
      <path id="DejaVuSans-20" transform="scale(0.015625)"/>
      <path id="DejaVuSans-3d" d="M 678 2906 
L 4684 2906 
L 4684 2381 
L 678 2381 
L 678 2906 
z
M 678 1631 
L 4684 1631 
L 4684 1100 
L 678 1100 
L 678 1631 
z
" transform="scale(0.015625)"/>
      <path id="DejaVuSans-4d" d="M 628 4666 
L 1569 4666 
L 2759 1491 
L 3956 4666 
L 4897 4666 
L 4897 0 
L 4281 0 
L 4281 4097 
L 3078 897 
L 2444 897 
L 1241 4097 
L 1241 0 
L 628 0 
L 628 4666 
z
" transform="scale(0.015625)"/>
      <path id="DejaVuSans-7a" d="M 353 3500 
L 3084 3500 
L 3084 2975 
L 922 459 
L 3084 459 
L 3084 0 
L 275 0 
L 275 525 
L 2438 3041 
L 353 3041 
L 353 3500 
z
" transform="scale(0.015625)"/>
      <path id="DejaVuSans-4e" d="M 628 4666 
L 1478 4666 
L 3547 763 
L 3547 4666 
L 4159 4666 
L 4159 0 
L 3309 0 
L 1241 3903 
L 1241 0 
L 628 0 
L 628 4666 
z
" transform="scale(0.015625)"/>
      <path id="DejaVuSans-43" d="M 4122 4306 
L 4122 3641 
Q 3803 3938 3442 4084 
Q 3081 4231 2675 4231 
Q 1875 4231 1450 3742 
Q 1025 3253 1025 2328 
Q 1025 1406 1450 917 
Q 1875 428 2675 428 
Q 3081 428 3442 575 
Q 3803 722 4122 1019 
L 4122 359 
Q 3791 134 3420 21 
Q 3050 -91 2638 -91 
Q 1578 -91 968 557 
Q 359 1206 359 2328 
Q 359 3453 968 4101 
Q 1578 4750 2638 4750 
Q 3056 4750 3426 4639 
Q 3797 4528 4122 4306 
z
" transform="scale(0.015625)"/>
      <path id="DejaVuSans-6e" d="M 3513 2113 
L 3513 0 
L 2938 0 
L 2938 2094 
Q 2938 2591 2744 2837 
Q 2550 3084 2163 3084 
Q 1697 3084 1428 2787 
Q 1159 2491 1159 1978 
L 1159 0 
L 581 0 
L 581 3500 
L 1159 3500 
L 1159 2956 
Q 1366 3272 1645 3428 
Q 1925 3584 2291 3584 
Q 2894 3584 3203 3211 
Q 3513 2838 3513 2113 
z
" transform="scale(0.015625)"/>
      <path id="DejaVuSans-3a" d="M 750 794 
L 1409 794 
L 1409 0 
L 750 0 
L 750 794 
z
M 750 3309 
L 1409 3309 
L 1409 2516 
L 750 2516 
L 750 3309 
z
" transform="scale(0.015625)"/>
      <path id="DejaVuSans-44" d="M 1259 4147 
L 1259 519 
L 2022 519 
Q 2988 519 3436 956 
Q 3884 1394 3884 2338 
Q 3884 3275 3436 3711 
Q 2988 4147 2022 4147 
L 1259 4147 
z
M 628 4666 
L 1925 4666 
Q 3281 4666 3915 4102 
Q 4550 3538 4550 2338 
Q 4550 1131 3912 565 
Q 3275 0 1925 0 
L 628 0 
L 628 4666 
z
" transform="scale(0.015625)"/>
     </defs>
     <use xlink:href="#DejaVuSans-6c"/>
     <use xlink:href="#DejaVuSans-6f" x="27.783203"/>
     <use xlink:href="#DejaVuSans-63" x="88.964844"/>
     <use xlink:href="#DejaVuSans-5f" x="143.945312"/>
     <use xlink:href="#DejaVuSans-74" x="193.945312"/>
     <use xlink:href="#DejaVuSans-65" x="233.154297"/>
     <use xlink:href="#DejaVuSans-63" x="294.677734"/>
     <use xlink:href="#DejaVuSans-68" x="349.658203"/>
     <use xlink:href="#DejaVuSans-73" x="413.037109"/>
     <use xlink:href="#DejaVuSans-5f" x="465.136719"/>
     <use xlink:href="#DejaVuSans-73" x="515.136719"/>
     <use xlink:href="#DejaVuSans-74" x="567.236328"/>
     <use xlink:href="#DejaVuSans-6f" x="606.445312"/>
     <use xlink:href="#DejaVuSans-72" x="667.626953"/>
     <use xlink:href="#DejaVuSans-65" x="706.490234"/>
     <use xlink:href="#DejaVuSans-20" x="768.013672"/>
     <use xlink:href="#DejaVuSans-3d" x="799.800781"/>
     <use xlink:href="#DejaVuSans-20" x="883.589844"/>
     <use xlink:href="#DejaVuSans-4d" x="915.376953"/>
     <use xlink:href="#DejaVuSans-6f" x="1001.65625"/>
     <use xlink:href="#DejaVuSans-7a" x="1062.837891"/>
     <use xlink:href="#DejaVuSans-2d" x="1115.328125"/>
     <use xlink:href="#DejaVuSans-4e" x="1151.412109"/>
     <use xlink:href="#DejaVuSans-6f" x="1226.216797"/>
     <use xlink:href="#DejaVuSans-72" x="1287.398438"/>
     <use xlink:href="#DejaVuSans-74" x="1328.511719"/>
     <use xlink:href="#DejaVuSans-68" x="1367.720703"/>
     <use xlink:href="#DejaVuSans-2d" x="1431.099609"/>
     <use xlink:href="#DejaVuSans-43" x="1467.183594"/>
     <use xlink:href="#DejaVuSans-65" x="1537.007812"/>
     <use xlink:href="#DejaVuSans-6e" x="1598.53125"/>
     <use xlink:href="#DejaVuSans-74" x="1661.910156"/>
     <use xlink:href="#DejaVuSans-65" x="1701.119141"/>
     <use xlink:href="#DejaVuSans-72" x="1762.642578"/>
     <use xlink:href="#DejaVuSans-3a" x="1802.005859"/>
     <use xlink:href="#DejaVuSans-3a" x="1835.697266"/>
     <use xlink:href="#DejaVuSans-73" x="1869.388672"/>
     <use xlink:href="#DejaVuSans-74" x="1921.488281"/>
     <use xlink:href="#DejaVuSans-6f" x="1960.697266"/>
     <use xlink:href="#DejaVuSans-72" x="2021.878906"/>
     <use xlink:href="#DejaVuSans-61" x="2062.992188"/>
     <use xlink:href="#DejaVuSans-67" x="2124.271484"/>
     <use xlink:href="#DejaVuSans-65" x="2187.748047"/>
     <use xlink:href="#DejaVuSans-44" x="2249.271484"/>
    </g>
   </g>
   <g id="legend_1">
    <g id="patch_7">
     <path d="M 422.18605 89.865 
L 545.93605 89.865 
Q 547.93605 89.865 547.93605 87.865 
L 547.93605 29.318125 
Q 547.93605 27.318125 545.93605 27.318125 
L 422.18605 27.318125 
Q 420.18605 27.318125 420.18605 29.318125 
L 420.18605 87.865 
Q 420.18605 89.865 422.18605 89.865 
z
" style="fill: #ffffff; opacity: 0.8; stroke: #cccccc; stroke-linejoin: miter"/>
    </g>
    <g id="line2d_19">
     <path d="M 424.18605 35.416562 
L 434.18605 35.416562 
L 444.18605 35.416562 
" style="fill: none; stroke: #1f77b4; stroke-width: 1.5; stroke-linecap: square"/>
    </g>
    <g id="text_19">
     <!-- Storage -->
     <g transform="translate(452.18605 38.916562)scale(0.1 -0.1)">
      <defs>
       <path id="DejaVuSans-53" d="M 3425 4513 
L 3425 3897 
Q 3066 4069 2747 4153 
Q 2428 4238 2131 4238 
Q 1616 4238 1336 4038 
Q 1056 3838 1056 3469 
Q 1056 3159 1242 3001 
Q 1428 2844 1947 2747 
L 2328 2669 
Q 3034 2534 3370 2195 
Q 3706 1856 3706 1288 
Q 3706 609 3251 259 
Q 2797 -91 1919 -91 
Q 1588 -91 1214 -16 
Q 841 59 441 206 
L 441 856 
Q 825 641 1194 531 
Q 1563 422 1919 422 
Q 2459 422 2753 634 
Q 3047 847 3047 1241 
Q 3047 1584 2836 1778 
Q 2625 1972 2144 2069 
L 1759 2144 
Q 1053 2284 737 2584 
Q 422 2884 422 3419 
Q 422 4038 858 4394 
Q 1294 4750 2059 4750 
Q 2388 4750 2728 4690 
Q 3069 4631 3425 4513 
z
" transform="scale(0.015625)"/>
      </defs>
      <use xlink:href="#DejaVuSans-53"/>
      <use xlink:href="#DejaVuSans-74" x="63.476562"/>
      <use xlink:href="#DejaVuSans-6f" x="102.685547"/>
      <use xlink:href="#DejaVuSans-72" x="163.867188"/>
      <use xlink:href="#DejaVuSans-61" x="204.980469"/>
      <use xlink:href="#DejaVuSans-67" x="266.259766"/>
      <use xlink:href="#DejaVuSans-65" x="329.736328"/>
     </g>
    </g>
    <g id="line2d_20">
     <path d="M 424.18605 50.094687 
L 434.18605 50.094687 
L 444.18605 50.094687 
" style="fill: none; stroke: #000000; stroke-width: 1.5; stroke-linecap: square"/>
    </g>
    <g id="text_20">
     <!-- Storage_cap_max -->
     <g transform="translate(452.18605 53.594687)scale(0.1 -0.1)">
      <defs>
       <path id="DejaVuSans-78" d="M 3513 3500 
L 2247 1797 
L 3578 0 
L 2900 0 
L 1881 1375 
L 863 0 
L 184 0 
L 1544 1831 
L 300 3500 
L 978 3500 
L 1906 2253 
L 2834 3500 
L 3513 3500 
z
" transform="scale(0.015625)"/>
      </defs>
      <use xlink:href="#DejaVuSans-53"/>
      <use xlink:href="#DejaVuSans-74" x="63.476562"/>
      <use xlink:href="#DejaVuSans-6f" x="102.685547"/>
      <use xlink:href="#DejaVuSans-72" x="163.867188"/>
      <use xlink:href="#DejaVuSans-61" x="204.980469"/>
      <use xlink:href="#DejaVuSans-67" x="266.259766"/>
      <use xlink:href="#DejaVuSans-65" x="329.736328"/>
      <use xlink:href="#DejaVuSans-5f" x="391.259766"/>
      <use xlink:href="#DejaVuSans-63" x="441.259766"/>
      <use xlink:href="#DejaVuSans-61" x="496.240234"/>
      <use xlink:href="#DejaVuSans-70" x="557.519531"/>
      <use xlink:href="#DejaVuSans-5f" x="620.996094"/>
      <use xlink:href="#DejaVuSans-6d" x="670.996094"/>
      <use xlink:href="#DejaVuSans-61" x="768.408203"/>
      <use xlink:href="#DejaVuSans-78" x="829.6875"/>
     </g>
    </g>
    <g id="line2d_21">
     <path d="M 424.18605 65.050937 
L 434.18605 65.050937 
L 444.18605 65.050937 
" style="fill: none; stroke: #ff0000; stroke-width: 1.5; stroke-linecap: square"/>
    </g>
    <g id="text_21">
     <!-- Storage_cap -->
     <g transform="translate(452.18605 68.550937)scale(0.1 -0.1)">
      <use xlink:href="#DejaVuSans-53"/>
      <use xlink:href="#DejaVuSans-74" x="63.476562"/>
      <use xlink:href="#DejaVuSans-6f" x="102.685547"/>
      <use xlink:href="#DejaVuSans-72" x="163.867188"/>
      <use xlink:href="#DejaVuSans-61" x="204.980469"/>
      <use xlink:href="#DejaVuSans-67" x="266.259766"/>
      <use xlink:href="#DejaVuSans-65" x="329.736328"/>
      <use xlink:href="#DejaVuSans-5f" x="391.259766"/>
      <use xlink:href="#DejaVuSans-63" x="441.259766"/>
      <use xlink:href="#DejaVuSans-61" x="496.240234"/>
      <use xlink:href="#DejaVuSans-70" x="557.519531"/>
     </g>
    </g>
    <g id="line2d_22">
     <path d="M 424.18605 80.007187 
L 434.18605 80.007187 
L 444.18605 80.007187 
" style="fill: none; stroke-dasharray: 5.55,2.4; stroke-dashoffset: 0; stroke: #ff00ff; stroke-width: 1.5"/>
    </g>
    <g id="text_22">
     <!-- Spillage_threshold -->
     <g transform="translate(452.18605 83.507187)scale(0.1 -0.1)">
      <defs>
       <path id="DejaVuSans-64" d="M 2906 2969 
L 2906 4863 
L 3481 4863 
L 3481 0 
L 2906 0 
L 2906 525 
Q 2725 213 2448 61 
Q 2172 -91 1784 -91 
Q 1150 -91 751 415 
Q 353 922 353 1747 
Q 353 2572 751 3078 
Q 1150 3584 1784 3584 
Q 2172 3584 2448 3432 
Q 2725 3281 2906 2969 
z
M 947 1747 
Q 947 1113 1208 752 
Q 1469 391 1925 391 
Q 2381 391 2643 752 
Q 2906 1113 2906 1747 
Q 2906 2381 2643 2742 
Q 2381 3103 1925 3103 
Q 1469 3103 1208 2742 
Q 947 2381 947 1747 
z
" transform="scale(0.015625)"/>
      </defs>
      <use xlink:href="#DejaVuSans-53"/>
      <use xlink:href="#DejaVuSans-70" x="63.476562"/>
      <use xlink:href="#DejaVuSans-69" x="126.953125"/>
      <use xlink:href="#DejaVuSans-6c" x="154.736328"/>
      <use xlink:href="#DejaVuSans-6c" x="182.519531"/>
      <use xlink:href="#DejaVuSans-61" x="210.302734"/>
      <use xlink:href="#DejaVuSans-67" x="271.582031"/>
      <use xlink:href="#DejaVuSans-65" x="335.058594"/>
      <use xlink:href="#DejaVuSans-5f" x="396.582031"/>
      <use xlink:href="#DejaVuSans-74" x="446.582031"/>
      <use xlink:href="#DejaVuSans-68" x="485.791016"/>
      <use xlink:href="#DejaVuSans-72" x="549.169922"/>
      <use xlink:href="#DejaVuSans-65" x="588.033203"/>
      <use xlink:href="#DejaVuSans-73" x="649.556641"/>
      <use xlink:href="#DejaVuSans-68" x="701.65625"/>
      <use xlink:href="#DejaVuSans-6f" x="765.035156"/>
      <use xlink:href="#DejaVuSans-6c" x="826.216797"/>
      <use xlink:href="#DejaVuSans-64" x="854"/>
     </g>
    </g>
   </g>
  </g>
 </g>
 <defs>
  <clipPath id="p9b913c527a">
   <rect x="43.78125" y="22.318125" width="357.12" height="266.112"/>
  </clipPath>
 </defs>
</svg>
