<?xml version="1.0" encoding="utf-8" standalone="no"?>
<!DOCTYPE svg PUBLIC "-//W3C//DTD SVG 1.1//EN"
  "http://www.w3.org/Graphics/SVG/1.1/DTD/svg11.dtd">
<svg xmlns:xlink="http://www.w3.org/1999/xlink" width="555.13605pt" height="345.581158pt" viewBox="0 0 555.13605 345.581158" xmlns="http://www.w3.org/2000/svg" version="1.1">
 <metadata>
  <rdf:RDF xmlns:dc="http://purl.org/dc/elements/1.1/" xmlns:cc="http://creativecommons.org/ns#" xmlns:rdf="http://www.w3.org/1999/02/22-rdf-syntax-ns#">
   <cc:Work>
    <dc:type rdf:resource="http://purl.org/dc/dcmitype/StillImage"/>
    <dc:date>2022-04-29T15:48:36.614210</dc:date>
    <dc:format>image/svg+xml</dc:format>
    <dc:creator>
     <cc:Agent>
      <dc:title>Matplotlib v3.5.1, https://matplotlib.org/</dc:title>
     </cc:Agent>
    </dc:creator>
   </cc:Work>
  </rdf:RDF>
 </metadata>
 <defs>
  <style type="text/css">*{stroke-linejoin: round; stroke-linecap: butt}</style>
 </defs>
 <g id="figure_1">
  <g id="patch_1">
   <path d="M 0 345.581158 
L 555.13605 345.581158 
L 555.13605 0 
L 0 0 
z
" style="fill: #ffffff"/>
  </g>
  <g id="axes_1">
   <g id="patch_2">
    <path d="M 43.78125 288.430125 
L 400.90125 288.430125 
L 400.90125 22.318125 
L 43.78125 22.318125 
z
" style="fill: #ffffff"/>
   </g>
   <g id="matplotlib.axis_1">
    <g id="xtick_1">
     <g id="line2d_1">
      <defs>
       <path id="mf69174b122" d="M 0 0 
L 0 3.5 
" style="stroke: #000000; stroke-width: 0.8"/>
      </defs>
      <g>
       <use xlink:href="#mf69174b122" x="60.013977" y="288.430125" style="stroke: #000000; stroke-width: 0.8"/>
      </g>
     </g>
     <g id="text_1">
      <!-- 2005-01 -->
      <g transform="translate(22.789156 322.901971)rotate(-30)scale(0.1 -0.1)">
       <defs>
        <path id="DejaVuSans-32" d="M 1228 531 
L 3431 531 
L 3431 0 
L 469 0 
L 469 531 
Q 828 903 1448 1529 
Q 2069 2156 2228 2338 
Q 2531 2678 2651 2914 
Q 2772 3150 2772 3378 
Q 2772 3750 2511 3984 
Q 2250 4219 1831 4219 
Q 1534 4219 1204 4116 
Q 875 4013 500 3803 
L 500 4441 
Q 881 4594 1212 4672 
Q 1544 4750 1819 4750 
Q 2544 4750 2975 4387 
Q 3406 4025 3406 3419 
Q 3406 3131 3298 2873 
Q 3191 2616 2906 2266 
Q 2828 2175 2409 1742 
Q 1991 1309 1228 531 
z
" transform="scale(0.015625)"/>
        <path id="DejaVuSans-30" d="M 2034 4250 
Q 1547 4250 1301 3770 
Q 1056 3291 1056 2328 
Q 1056 1369 1301 889 
Q 1547 409 2034 409 
Q 2525 409 2770 889 
Q 3016 1369 3016 2328 
Q 3016 3291 2770 3770 
Q 2525 4250 2034 4250 
z
M 2034 4750 
Q 2819 4750 3233 4129 
Q 3647 3509 3647 2328 
Q 3647 1150 3233 529 
Q 2819 -91 2034 -91 
Q 1250 -91 836 529 
Q 422 1150 422 2328 
Q 422 3509 836 4129 
Q 1250 4750 2034 4750 
z
" transform="scale(0.015625)"/>
        <path id="DejaVuSans-35" d="M 691 4666 
L 3169 4666 
L 3169 4134 
L 1269 4134 
L 1269 2991 
Q 1406 3038 1543 3061 
Q 1681 3084 1819 3084 
Q 2600 3084 3056 2656 
Q 3513 2228 3513 1497 
Q 3513 744 3044 326 
Q 2575 -91 1722 -91 
Q 1428 -91 1123 -41 
Q 819 9 494 109 
L 494 744 
Q 775 591 1075 516 
Q 1375 441 1709 441 
Q 2250 441 2565 725 
Q 2881 1009 2881 1497 
Q 2881 1984 2565 2268 
Q 2250 2553 1709 2553 
Q 1456 2553 1204 2497 
Q 953 2441 691 2322 
L 691 4666 
z
" transform="scale(0.015625)"/>
        <path id="DejaVuSans-2d" d="M 313 2009 
L 1997 2009 
L 1997 1497 
L 313 1497 
L 313 2009 
z
" transform="scale(0.015625)"/>
        <path id="DejaVuSans-31" d="M 794 531 
L 1825 531 
L 1825 4091 
L 703 3866 
L 703 4441 
L 1819 4666 
L 2450 4666 
L 2450 531 
L 3481 531 
L 3481 0 
L 794 0 
L 794 531 
z
" transform="scale(0.015625)"/>
       </defs>
       <use xlink:href="#DejaVuSans-32"/>
       <use xlink:href="#DejaVuSans-30" x="63.623047"/>
       <use xlink:href="#DejaVuSans-30" x="127.246094"/>
       <use xlink:href="#DejaVuSans-35" x="190.869141"/>
       <use xlink:href="#DejaVuSans-2d" x="254.492188"/>
       <use xlink:href="#DejaVuSans-30" x="290.576172"/>
       <use xlink:href="#DejaVuSans-31" x="354.199219"/>
      </g>
     </g>
    </g>
    <g id="xtick_2">
     <g id="line2d_2">
      <g>
       <use xlink:href="#mf69174b122" x="100.042165" y="288.430125" style="stroke: #000000; stroke-width: 0.8"/>
      </g>
     </g>
     <g id="text_2">
      <!-- 2005-04 -->
      <g transform="translate(62.817344 322.901971)rotate(-30)scale(0.1 -0.1)">
       <defs>
        <path id="DejaVuSans-34" d="M 2419 4116 
L 825 1625 
L 2419 1625 
L 2419 4116 
z
M 2253 4666 
L 3047 4666 
L 3047 1625 
L 3713 1625 
L 3713 1100 
L 3047 1100 
L 3047 0 
L 2419 0 
L 2419 1100 
L 313 1100 
L 313 1709 
L 2253 4666 
z
" transform="scale(0.015625)"/>
       </defs>
       <use xlink:href="#DejaVuSans-32"/>
       <use xlink:href="#DejaVuSans-30" x="63.623047"/>
       <use xlink:href="#DejaVuSans-30" x="127.246094"/>
       <use xlink:href="#DejaVuSans-35" x="190.869141"/>
       <use xlink:href="#DejaVuSans-2d" x="254.492188"/>
       <use xlink:href="#DejaVuSans-30" x="290.576172"/>
       <use xlink:href="#DejaVuSans-34" x="354.199219"/>
      </g>
     </g>
    </g>
    <g id="xtick_3">
     <g id="line2d_3">
      <g>
       <use xlink:href="#mf69174b122" x="140.51511" y="288.430125" style="stroke: #000000; stroke-width: 0.8"/>
      </g>
     </g>
     <g id="text_3">
      <!-- 2005-07 -->
      <g transform="translate(103.290289 322.901971)rotate(-30)scale(0.1 -0.1)">
       <defs>
        <path id="DejaVuSans-37" d="M 525 4666 
L 3525 4666 
L 3525 4397 
L 1831 0 
L 1172 0 
L 2766 4134 
L 525 4134 
L 525 4666 
z
" transform="scale(0.015625)"/>
       </defs>
       <use xlink:href="#DejaVuSans-32"/>
       <use xlink:href="#DejaVuSans-30" x="63.623047"/>
       <use xlink:href="#DejaVuSans-30" x="127.246094"/>
       <use xlink:href="#DejaVuSans-35" x="190.869141"/>
       <use xlink:href="#DejaVuSans-2d" x="254.492188"/>
       <use xlink:href="#DejaVuSans-30" x="290.576172"/>
       <use xlink:href="#DejaVuSans-37" x="354.199219"/>
      </g>
     </g>
    </g>
    <g id="xtick_4">
     <g id="line2d_4">
      <g>
       <use xlink:href="#mf69174b122" x="181.432813" y="288.430125" style="stroke: #000000; stroke-width: 0.8"/>
      </g>
     </g>
     <g id="text_4">
      <!-- 2005-10 -->
      <g transform="translate(144.207992 322.901971)rotate(-30)scale(0.1 -0.1)">
       <use xlink:href="#DejaVuSans-32"/>
       <use xlink:href="#DejaVuSans-30" x="63.623047"/>
       <use xlink:href="#DejaVuSans-30" x="127.246094"/>
       <use xlink:href="#DejaVuSans-35" x="190.869141"/>
       <use xlink:href="#DejaVuSans-2d" x="254.492188"/>
       <use xlink:href="#DejaVuSans-31" x="290.576172"/>
       <use xlink:href="#DejaVuSans-30" x="354.199219"/>
      </g>
     </g>
    </g>
    <g id="xtick_5">
     <g id="line2d_5">
      <g>
       <use xlink:href="#mf69174b122" x="222.350516" y="288.430125" style="stroke: #000000; stroke-width: 0.8"/>
      </g>
     </g>
     <g id="text_5">
      <!-- 2006-01 -->
      <g transform="translate(185.125695 322.901971)rotate(-30)scale(0.1 -0.1)">
       <defs>
        <path id="DejaVuSans-36" d="M 2113 2584 
Q 1688 2584 1439 2293 
Q 1191 2003 1191 1497 
Q 1191 994 1439 701 
Q 1688 409 2113 409 
Q 2538 409 2786 701 
Q 3034 994 3034 1497 
Q 3034 2003 2786 2293 
Q 2538 2584 2113 2584 
z
M 3366 4563 
L 3366 3988 
Q 3128 4100 2886 4159 
Q 2644 4219 2406 4219 
Q 1781 4219 1451 3797 
Q 1122 3375 1075 2522 
Q 1259 2794 1537 2939 
Q 1816 3084 2150 3084 
Q 2853 3084 3261 2657 
Q 3669 2231 3669 1497 
Q 3669 778 3244 343 
Q 2819 -91 2113 -91 
Q 1303 -91 875 529 
Q 447 1150 447 2328 
Q 447 3434 972 4092 
Q 1497 4750 2381 4750 
Q 2619 4750 2861 4703 
Q 3103 4656 3366 4563 
z
" transform="scale(0.015625)"/>
       </defs>
       <use xlink:href="#DejaVuSans-32"/>
       <use xlink:href="#DejaVuSans-30" x="63.623047"/>
       <use xlink:href="#DejaVuSans-30" x="127.246094"/>
       <use xlink:href="#DejaVuSans-36" x="190.869141"/>
       <use xlink:href="#DejaVuSans-2d" x="254.492188"/>
       <use xlink:href="#DejaVuSans-30" x="290.576172"/>
       <use xlink:href="#DejaVuSans-31" x="354.199219"/>
      </g>
     </g>
    </g>
    <g id="xtick_6">
     <g id="line2d_6">
      <g>
       <use xlink:href="#mf69174b122" x="262.378703" y="288.430125" style="stroke: #000000; stroke-width: 0.8"/>
      </g>
     </g>
     <g id="text_6">
      <!-- 2006-04 -->
      <g transform="translate(225.153883 322.901971)rotate(-30)scale(0.1 -0.1)">
       <use xlink:href="#DejaVuSans-32"/>
       <use xlink:href="#DejaVuSans-30" x="63.623047"/>
       <use xlink:href="#DejaVuSans-30" x="127.246094"/>
       <use xlink:href="#DejaVuSans-36" x="190.869141"/>
       <use xlink:href="#DejaVuSans-2d" x="254.492188"/>
       <use xlink:href="#DejaVuSans-30" x="290.576172"/>
       <use xlink:href="#DejaVuSans-34" x="354.199219"/>
      </g>
     </g>
    </g>
    <g id="xtick_7">
     <g id="line2d_7">
      <g>
       <use xlink:href="#mf69174b122" x="302.851649" y="288.430125" style="stroke: #000000; stroke-width: 0.8"/>
      </g>
     </g>
     <g id="text_7">
      <!-- 2006-07 -->
      <g transform="translate(265.626828 322.901971)rotate(-30)scale(0.1 -0.1)">
       <use xlink:href="#DejaVuSans-32"/>
       <use xlink:href="#DejaVuSans-30" x="63.623047"/>
       <use xlink:href="#DejaVuSans-30" x="127.246094"/>
       <use xlink:href="#DejaVuSans-36" x="190.869141"/>
       <use xlink:href="#DejaVuSans-2d" x="254.492188"/>
       <use xlink:href="#DejaVuSans-30" x="290.576172"/>
       <use xlink:href="#DejaVuSans-37" x="354.199219"/>
      </g>
     </g>
    </g>
    <g id="xtick_8">
     <g id="line2d_8">
      <g>
       <use xlink:href="#mf69174b122" x="343.769351" y="288.430125" style="stroke: #000000; stroke-width: 0.8"/>
      </g>
     </g>
     <g id="text_8">
      <!-- 2006-10 -->
      <g transform="translate(306.544531 322.901971)rotate(-30)scale(0.1 -0.1)">
       <use xlink:href="#DejaVuSans-32"/>
       <use xlink:href="#DejaVuSans-30" x="63.623047"/>
       <use xlink:href="#DejaVuSans-30" x="127.246094"/>
       <use xlink:href="#DejaVuSans-36" x="190.869141"/>
       <use xlink:href="#DejaVuSans-2d" x="254.492188"/>
       <use xlink:href="#DejaVuSans-31" x="290.576172"/>
       <use xlink:href="#DejaVuSans-30" x="354.199219"/>
      </g>
     </g>
    </g>
    <g id="xtick_9">
     <g id="line2d_9">
      <g>
       <use xlink:href="#mf69174b122" x="384.687054" y="288.430125" style="stroke: #000000; stroke-width: 0.8"/>
      </g>
     </g>
     <g id="text_9">
      <!-- 2007-01 -->
      <g transform="translate(347.462233 322.901971)rotate(-30)scale(0.1 -0.1)">
       <use xlink:href="#DejaVuSans-32"/>
       <use xlink:href="#DejaVuSans-30" x="63.623047"/>
       <use xlink:href="#DejaVuSans-30" x="127.246094"/>
       <use xlink:href="#DejaVuSans-37" x="190.869141"/>
       <use xlink:href="#DejaVuSans-2d" x="254.492188"/>
       <use xlink:href="#DejaVuSans-30" x="290.576172"/>
       <use xlink:href="#DejaVuSans-31" x="354.199219"/>
      </g>
     </g>
    </g>
    <g id="text_10">
     <!-- timesteps -->
     <g transform="translate(197.624844 336.301471)scale(0.1 -0.1)">
      <defs>
       <path id="DejaVuSans-74" d="M 1172 4494 
L 1172 3500 
L 2356 3500 
L 2356 3053 
L 1172 3053 
L 1172 1153 
Q 1172 725 1289 603 
Q 1406 481 1766 481 
L 2356 481 
L 2356 0 
L 1766 0 
Q 1100 0 847 248 
Q 594 497 594 1153 
L 594 3053 
L 172 3053 
L 172 3500 
L 594 3500 
L 594 4494 
L 1172 4494 
z
" transform="scale(0.015625)"/>
       <path id="DejaVuSans-69" d="M 603 3500 
L 1178 3500 
L 1178 0 
L 603 0 
L 603 3500 
z
M 603 4863 
L 1178 4863 
L 1178 4134 
L 603 4134 
L 603 4863 
z
" transform="scale(0.015625)"/>
       <path id="DejaVuSans-6d" d="M 3328 2828 
Q 3544 3216 3844 3400 
Q 4144 3584 4550 3584 
Q 5097 3584 5394 3201 
Q 5691 2819 5691 2113 
L 5691 0 
L 5113 0 
L 5113 2094 
Q 5113 2597 4934 2840 
Q 4756 3084 4391 3084 
Q 3944 3084 3684 2787 
Q 3425 2491 3425 1978 
L 3425 0 
L 2847 0 
L 2847 2094 
Q 2847 2600 2669 2842 
Q 2491 3084 2119 3084 
Q 1678 3084 1418 2786 
Q 1159 2488 1159 1978 
L 1159 0 
L 581 0 
L 581 3500 
L 1159 3500 
L 1159 2956 
Q 1356 3278 1631 3431 
Q 1906 3584 2284 3584 
Q 2666 3584 2933 3390 
Q 3200 3197 3328 2828 
z
" transform="scale(0.015625)"/>
       <path id="DejaVuSans-65" d="M 3597 1894 
L 3597 1613 
L 953 1613 
Q 991 1019 1311 708 
Q 1631 397 2203 397 
Q 2534 397 2845 478 
Q 3156 559 3463 722 
L 3463 178 
Q 3153 47 2828 -22 
Q 2503 -91 2169 -91 
Q 1331 -91 842 396 
Q 353 884 353 1716 
Q 353 2575 817 3079 
Q 1281 3584 2069 3584 
Q 2775 3584 3186 3129 
Q 3597 2675 3597 1894 
z
M 3022 2063 
Q 3016 2534 2758 2815 
Q 2500 3097 2075 3097 
Q 1594 3097 1305 2825 
Q 1016 2553 972 2059 
L 3022 2063 
z
" transform="scale(0.015625)"/>
       <path id="DejaVuSans-73" d="M 2834 3397 
L 2834 2853 
Q 2591 2978 2328 3040 
Q 2066 3103 1784 3103 
Q 1356 3103 1142 2972 
Q 928 2841 928 2578 
Q 928 2378 1081 2264 
Q 1234 2150 1697 2047 
L 1894 2003 
Q 2506 1872 2764 1633 
Q 3022 1394 3022 966 
Q 3022 478 2636 193 
Q 2250 -91 1575 -91 
Q 1294 -91 989 -36 
Q 684 19 347 128 
L 347 722 
Q 666 556 975 473 
Q 1284 391 1588 391 
Q 1994 391 2212 530 
Q 2431 669 2431 922 
Q 2431 1156 2273 1281 
Q 2116 1406 1581 1522 
L 1381 1569 
Q 847 1681 609 1914 
Q 372 2147 372 2553 
Q 372 3047 722 3315 
Q 1072 3584 1716 3584 
Q 2034 3584 2315 3537 
Q 2597 3491 2834 3397 
z
" transform="scale(0.015625)"/>
       <path id="DejaVuSans-70" d="M 1159 525 
L 1159 -1331 
L 581 -1331 
L 581 3500 
L 1159 3500 
L 1159 2969 
Q 1341 3281 1617 3432 
Q 1894 3584 2278 3584 
Q 2916 3584 3314 3078 
Q 3713 2572 3713 1747 
Q 3713 922 3314 415 
Q 2916 -91 2278 -91 
Q 1894 -91 1617 61 
Q 1341 213 1159 525 
z
M 3116 1747 
Q 3116 2381 2855 2742 
Q 2594 3103 2138 3103 
Q 1681 3103 1420 2742 
Q 1159 2381 1159 1747 
Q 1159 1113 1420 752 
Q 1681 391 2138 391 
Q 2594 391 2855 752 
Q 3116 1113 3116 1747 
z
" transform="scale(0.015625)"/>
      </defs>
      <use xlink:href="#DejaVuSans-74"/>
      <use xlink:href="#DejaVuSans-69" x="39.208984"/>
      <use xlink:href="#DejaVuSans-6d" x="66.992188"/>
      <use xlink:href="#DejaVuSans-65" x="164.404297"/>
      <use xlink:href="#DejaVuSans-73" x="225.927734"/>
      <use xlink:href="#DejaVuSans-74" x="278.027344"/>
      <use xlink:href="#DejaVuSans-65" x="317.236328"/>
      <use xlink:href="#DejaVuSans-70" x="378.759766"/>
      <use xlink:href="#DejaVuSans-73" x="442.236328"/>
     </g>
    </g>
   </g>
   <g id="matplotlib.axis_2">
    <g id="ytick_1">
     <g id="line2d_10">
      <defs>
       <path id="mdd9c840d9a" d="M 0 0 
L -3.5 0 
" style="stroke: #000000; stroke-width: 0.8"/>
      </defs>
      <g>
       <use xlink:href="#mdd9c840d9a" x="43.78125" y="276.334125" style="stroke: #000000; stroke-width: 0.8"/>
      </g>
     </g>
     <g id="text_11">
      <!-- 0.0 -->
      <g transform="translate(20.878125 280.133344)scale(0.1 -0.1)">
       <defs>
        <path id="DejaVuSans-2e" d="M 684 794 
L 1344 794 
L 1344 0 
L 684 0 
L 684 794 
z
" transform="scale(0.015625)"/>
       </defs>
       <use xlink:href="#DejaVuSans-30"/>
       <use xlink:href="#DejaVuSans-2e" x="63.623047"/>
       <use xlink:href="#DejaVuSans-30" x="95.410156"/>
      </g>
     </g>
    </g>
    <g id="ytick_2">
     <g id="line2d_11">
      <g>
       <use xlink:href="#mdd9c840d9a" x="43.78125" y="235.26112" style="stroke: #000000; stroke-width: 0.8"/>
      </g>
     </g>
     <g id="text_12">
      <!-- 0.2 -->
      <g transform="translate(20.878125 239.060339)scale(0.1 -0.1)">
       <use xlink:href="#DejaVuSans-30"/>
       <use xlink:href="#DejaVuSans-2e" x="63.623047"/>
       <use xlink:href="#DejaVuSans-32" x="95.410156"/>
      </g>
     </g>
    </g>
    <g id="ytick_3">
     <g id="line2d_12">
      <g>
       <use xlink:href="#mdd9c840d9a" x="43.78125" y="194.188115" style="stroke: #000000; stroke-width: 0.8"/>
      </g>
     </g>
     <g id="text_13">
      <!-- 0.4 -->
      <g transform="translate(20.878125 197.987334)scale(0.1 -0.1)">
       <use xlink:href="#DejaVuSans-30"/>
       <use xlink:href="#DejaVuSans-2e" x="63.623047"/>
       <use xlink:href="#DejaVuSans-34" x="95.410156"/>
      </g>
     </g>
    </g>
    <g id="ytick_4">
     <g id="line2d_13">
      <g>
       <use xlink:href="#mdd9c840d9a" x="43.78125" y="153.11511" style="stroke: #000000; stroke-width: 0.8"/>
      </g>
     </g>
     <g id="text_14">
      <!-- 0.6 -->
      <g transform="translate(20.878125 156.914328)scale(0.1 -0.1)">
       <use xlink:href="#DejaVuSans-30"/>
       <use xlink:href="#DejaVuSans-2e" x="63.623047"/>
       <use xlink:href="#DejaVuSans-36" x="95.410156"/>
      </g>
     </g>
    </g>
    <g id="ytick_5">
     <g id="line2d_14">
      <g>
       <use xlink:href="#mdd9c840d9a" x="43.78125" y="112.042105" style="stroke: #000000; stroke-width: 0.8"/>
      </g>
     </g>
     <g id="text_15">
      <!-- 0.8 -->
      <g transform="translate(20.878125 115.841323)scale(0.1 -0.1)">
       <defs>
        <path id="DejaVuSans-38" d="M 2034 2216 
Q 1584 2216 1326 1975 
Q 1069 1734 1069 1313 
Q 1069 891 1326 650 
Q 1584 409 2034 409 
Q 2484 409 2743 651 
Q 3003 894 3003 1313 
Q 3003 1734 2745 1975 
Q 2488 2216 2034 2216 
z
M 1403 2484 
Q 997 2584 770 2862 
Q 544 3141 544 3541 
Q 544 4100 942 4425 
Q 1341 4750 2034 4750 
Q 2731 4750 3128 4425 
Q 3525 4100 3525 3541 
Q 3525 3141 3298 2862 
Q 3072 2584 2669 2484 
Q 3125 2378 3379 2068 
Q 3634 1759 3634 1313 
Q 3634 634 3220 271 
Q 2806 -91 2034 -91 
Q 1263 -91 848 271 
Q 434 634 434 1313 
Q 434 1759 690 2068 
Q 947 2378 1403 2484 
z
M 1172 3481 
Q 1172 3119 1398 2916 
Q 1625 2713 2034 2713 
Q 2441 2713 2670 2916 
Q 2900 3119 2900 3481 
Q 2900 3844 2670 4047 
Q 2441 4250 2034 4250 
Q 1625 4250 1398 4047 
Q 1172 3844 1172 3481 
z
" transform="scale(0.015625)"/>
       </defs>
       <use xlink:href="#DejaVuSans-30"/>
       <use xlink:href="#DejaVuSans-2e" x="63.623047"/>
       <use xlink:href="#DejaVuSans-38" x="95.410156"/>
      </g>
     </g>
    </g>
    <g id="ytick_6">
     <g id="line2d_15">
      <g>
       <use xlink:href="#mdd9c840d9a" x="43.78125" y="70.9691" style="stroke: #000000; stroke-width: 0.8"/>
      </g>
     </g>
     <g id="text_16">
      <!-- 1.0 -->
      <g transform="translate(20.878125 74.768318)scale(0.1 -0.1)">
       <use xlink:href="#DejaVuSans-31"/>
       <use xlink:href="#DejaVuSans-2e" x="63.623047"/>
       <use xlink:href="#DejaVuSans-30" x="95.410156"/>
      </g>
     </g>
    </g>
    <g id="ytick_7">
     <g id="line2d_16">
      <g>
       <use xlink:href="#mdd9c840d9a" x="43.78125" y="29.896094" style="stroke: #000000; stroke-width: 0.8"/>
      </g>
     </g>
     <g id="text_17">
      <!-- 1.2 -->
      <g transform="translate(20.878125 33.695313)scale(0.1 -0.1)">
       <use xlink:href="#DejaVuSans-31"/>
       <use xlink:href="#DejaVuSans-2e" x="63.623047"/>
       <use xlink:href="#DejaVuSans-32" x="95.410156"/>
      </g>
     </g>
    </g>
    <g id="text_18">
     <!-- storage -->
     <g transform="translate(14.798438 174.368656)rotate(-90)scale(0.1 -0.1)">
      <defs>
       <path id="DejaVuSans-6f" d="M 1959 3097 
Q 1497 3097 1228 2736 
Q 959 2375 959 1747 
Q 959 1119 1226 758 
Q 1494 397 1959 397 
Q 2419 397 2687 759 
Q 2956 1122 2956 1747 
Q 2956 2369 2687 2733 
Q 2419 3097 1959 3097 
z
M 1959 3584 
Q 2709 3584 3137 3096 
Q 3566 2609 3566 1747 
Q 3566 888 3137 398 
Q 2709 -91 1959 -91 
Q 1206 -91 779 398 
Q 353 888 353 1747 
Q 353 2609 779 3096 
Q 1206 3584 1959 3584 
z
" transform="scale(0.015625)"/>
       <path id="DejaVuSans-72" d="M 2631 2963 
Q 2534 3019 2420 3045 
Q 2306 3072 2169 3072 
Q 1681 3072 1420 2755 
Q 1159 2438 1159 1844 
L 1159 0 
L 581 0 
L 581 3500 
L 1159 3500 
L 1159 2956 
Q 1341 3275 1631 3429 
Q 1922 3584 2338 3584 
Q 2397 3584 2469 3576 
Q 2541 3569 2628 3553 
L 2631 2963 
z
" transform="scale(0.015625)"/>
       <path id="DejaVuSans-61" d="M 2194 1759 
Q 1497 1759 1228 1600 
Q 959 1441 959 1056 
Q 959 750 1161 570 
Q 1363 391 1709 391 
Q 2188 391 2477 730 
Q 2766 1069 2766 1631 
L 2766 1759 
L 2194 1759 
z
M 3341 1997 
L 3341 0 
L 2766 0 
L 2766 531 
Q 2569 213 2275 61 
Q 1981 -91 1556 -91 
Q 1019 -91 701 211 
Q 384 513 384 1019 
Q 384 1609 779 1909 
Q 1175 2209 1959 2209 
L 2766 2209 
L 2766 2266 
Q 2766 2663 2505 2880 
Q 2244 3097 1772 3097 
Q 1472 3097 1187 3025 
Q 903 2953 641 2809 
L 641 3341 
Q 956 3463 1253 3523 
Q 1550 3584 1831 3584 
Q 2591 3584 2966 3190 
Q 3341 2797 3341 1997 
z
" transform="scale(0.015625)"/>
       <path id="DejaVuSans-67" d="M 2906 1791 
Q 2906 2416 2648 2759 
Q 2391 3103 1925 3103 
Q 1463 3103 1205 2759 
Q 947 2416 947 1791 
Q 947 1169 1205 825 
Q 1463 481 1925 481 
Q 2391 481 2648 825 
Q 2906 1169 2906 1791 
z
M 3481 434 
Q 3481 -459 3084 -895 
Q 2688 -1331 1869 -1331 
Q 1566 -1331 1297 -1286 
Q 1028 -1241 775 -1147 
L 775 -588 
Q 1028 -725 1275 -790 
Q 1522 -856 1778 -856 
Q 2344 -856 2625 -561 
Q 2906 -266 2906 331 
L 2906 616 
Q 2728 306 2450 153 
Q 2172 0 1784 0 
Q 1141 0 747 490 
Q 353 981 353 1791 
Q 353 2603 747 3093 
Q 1141 3584 1784 3584 
Q 2172 3584 2450 3431 
Q 2728 3278 2906 2969 
L 2906 3500 
L 3481 3500 
L 3481 434 
z
" transform="scale(0.015625)"/>
      </defs>
      <use xlink:href="#DejaVuSans-73"/>
      <use xlink:href="#DejaVuSans-74" x="52.099609"/>
      <use xlink:href="#DejaVuSans-6f" x="91.308594"/>
      <use xlink:href="#DejaVuSans-72" x="152.490234"/>
      <use xlink:href="#DejaVuSans-61" x="193.603516"/>
      <use xlink:href="#DejaVuSans-67" x="254.882812"/>
      <use xlink:href="#DejaVuSans-65" x="318.359375"/>
     </g>
    </g>
    <g id="text_19">
     <!-- 1e9 -->
     <g transform="translate(43.78125 19.318125)scale(0.1 -0.1)">
      <defs>
       <path id="DejaVuSans-39" d="M 703 97 
L 703 672 
Q 941 559 1184 500 
Q 1428 441 1663 441 
Q 2288 441 2617 861 
Q 2947 1281 2994 2138 
Q 2813 1869 2534 1725 
Q 2256 1581 1919 1581 
Q 1219 1581 811 2004 
Q 403 2428 403 3163 
Q 403 3881 828 4315 
Q 1253 4750 1959 4750 
Q 2769 4750 3195 4129 
Q 3622 3509 3622 2328 
Q 3622 1225 3098 567 
Q 2575 -91 1691 -91 
Q 1453 -91 1209 -44 
Q 966 3 703 97 
z
M 1959 2075 
Q 2384 2075 2632 2365 
Q 2881 2656 2881 3163 
Q 2881 3666 2632 3958 
Q 2384 4250 1959 4250 
Q 1534 4250 1286 3958 
Q 1038 3666 1038 3163 
Q 1038 2656 1286 2365 
Q 1534 2075 1959 2075 
z
" transform="scale(0.015625)"/>
      </defs>
      <use xlink:href="#DejaVuSans-31"/>
      <use xlink:href="#DejaVuSans-65" x="63.623047"/>
      <use xlink:href="#DejaVuSans-39" x="125.146484"/>
     </g>
    </g>
   </g>
   <g id="line2d_17">
    <path d="M 60.013977 197.461868 
L 60.125167 197.661808 
L 60.199293 198.407036 
L 60.273419 198.20275 
L 60.51433 197.266623 
L 60.588456 196.828301 
L 61.292655 192.608685 
L 61.385313 192.724036 
L 61.403845 192.712919 
L 61.496503 192.15743 
L 61.737413 190.477719 
L 61.830071 190.593981 
L 61.867134 190.529533 
L 62.626928 186.238235 
L 62.663992 186.285538 
L 62.719586 186.356555 
L 62.756649 186.293151 
L 64.350364 176.526874 
L 64.387427 176.899488 
L 64.961906 182.675011 
L 65.017501 182.384634 
L 65.740232 178.087738 
L 65.758763 178.109667 
L 65.777295 178.045645 
L 65.795827 178.067601 
L 67.519262 168.484363 
L 67.556326 168.521156 
L 67.61192 168.576142 
L 67.648983 168.502005 
L 67.96402 166.376192 
L 68.075209 166.447909 
L 68.186399 165.76342 
L 68.408778 164.240661 
L 68.501436 164.325476 
L 68.55703 164.127065 
L 68.853535 162.077356 
L 68.946193 162.15861 
L 69.001788 161.956992 
L 69.298293 159.885855 
L 69.353888 160.086729 
L 69.446546 160.928077 
L 69.539203 160.911626 
L 69.576267 160.736978 
L 69.61333 160.915152 
L 74.246222 205.191368 
L 82.844869 276.334125 
L 82.881933 276.010251 
L 83.400816 271.809765 
L 83.419348 271.996072 
L 83.956764 276.334125 
L 108.826128 276.334125 
L 108.84466 276.186043 
L 108.937318 276.334125 
L 108.955849 276.287284 
L 109.048507 276.334125 
L 113.014263 276.334125 
L 113.106921 275.961511 
L 113.125452 276.147818 
L 113.143984 276.334125 
L 113.181047 276.048659 
L 113.21811 276.092287 
L 113.236641 275.949628 
L 113.273705 276.322243 
L 113.292236 276.179648 
L 113.366362 276.147818 
L 113.403426 276.334125 
L 113.551678 276.14193 
L 113.607273 276.334125 
L 113.644336 276.142101 
L 113.699931 275.854193 
L 113.736994 276.057395 
L 113.829652 276.334125 
L 113.848183 276.238309 
L 114.033499 275.966429 
L 114.052031 275.870799 
L 114.107625 276.147818 
L 114.200283 276.334125 
L 114.218815 276.266791 
L 114.367067 276.047341 
L 114.385599 276.147818 
L 114.40413 276.334125 
L 114.459725 276.048296 
L 114.496788 275.857828 
L 114.533851 276.230442 
L 114.552383 276.334125 
L 114.607978 276.048698 
L 114.626509 275.953589 
L 114.645041 276.139896 
L 114.682104 276.029516 
L 114.793293 276.334125 
L 114.811825 276.242744 
L 114.830356 276.147818 
L 114.848888 276.334125 
L 114.923014 276.239282 
L 114.941546 276.334125 
L 114.99714 276.049744 
L 115.089798 275.576106 
L 115.126861 275.775203 
L 115.256582 276.334125 
L 115.275114 276.242332 
L 115.312177 276.334125 
L 115.423367 276.048224 
L 115.497493 275.95148 
L 115.553088 276.334125 
L 115.738403 276.241924 
L 115.775466 276.334125 
L 115.905187 275.961511 
L 116.034908 276.334125 
L 116.090503 276.055294 
L 116.146098 276.334125 
L 116.201692 276.243496 
L 116.29435 276.055118 
L 116.331413 276.147818 
L 116.387008 276.334125 
L 116.424071 276.147054 
L 116.516729 275.683411 
L 116.553792 276.056025 
L 116.572324 276.242332 
L 116.64645 275.868889 
L 116.739108 275.402442 
L 116.794703 275.681846 
L 116.905892 276.240764 
L 116.942955 276.054579 
L 116.99855 276.334125 
L 117.165334 275.497495 
L 117.35065 276.334125 
L 117.406244 276.055997 
L 117.461839 276.334125 
L 117.517434 276.240403 
L 117.554497 276.334125 
L 117.647155 276.149125 
L 117.721281 276.056786 
L 117.776876 276.334125 
L 117.851002 276.241802 
L 117.906597 275.964925 
L 117.94366 276.145927 
L 118.073381 276.334125 
L 118.110444 276.149892 
L 118.18457 276.334125 
L 118.240165 276.242123 
L 118.29576 276.334125 
L 118.388417 275.961511 
L 118.425481 276.334125 
L 118.518138 276.227619 
L 118.555202 276.322166 
L 118.647859 276.141673 
L 118.740517 275.961511 
L 118.77758 276.334125 
L 118.833175 276.23252 
L 118.88877 275.95805 
L 118.925833 276.330664 
L 118.962896 276.147818 
L 119.074086 276.334125 
L 119.203806 276.060413 
L 119.296464 276.334125 
L 119.314996 276.242991 
L 119.352059 276.334125 
L 119.444717 276.152049 
L 119.555906 276.334125 
L 119.704159 276.096713 
L 119.778285 276.010675 
L 119.83388 276.292551 
L 120.019196 275.940044 
L 120.056259 276.312658 
L 120.148916 276.136926 
L 120.18598 276.23277 
L 120.241574 275.961511 
L 120.278637 276.334125 
L 120.371295 276.159069 
L 120.408358 276.255085 
L 120.501016 275.827805 
L 120.575143 276.296564 
L 120.630737 276.026206 
L 120.649269 275.936116 
L 120.6678 276.122423 
L 120.741927 276.314955 
L 120.77899 276.134957 
L 120.797521 276.04498 
L 120.816053 276.231287 
L 120.834585 276.141338 
L 120.908711 276.334125 
L 120.945774 276.154382 
L 121.13109 275.256512 
L 121.149621 275.442819 
L 121.297874 276.334125 
L 121.316405 276.244541 
L 121.353468 276.065415 
L 121.390532 276.334125 
L 121.409063 276.334125 
L 121.446126 276.311804 
L 121.538784 275.864579 
L 121.557316 276.050886 
L 121.61291 276.334125 
L 121.668505 276.066123 
L 121.7241 276.29443 
L 121.835289 275.759046 
L 122.002073 276.334125 
L 122.187389 275.936436 
L 122.242984 276.220141 
L 122.298578 275.953534 
L 122.613615 274.44506 
L 122.632147 274.631368 
L 122.854525 276.317308 
L 122.891589 276.140444 
L 123.095436 275.16864 
L 123.132499 275.266694 
L 123.336346 276.217885 
L 123.373409 276.315727 
L 123.447536 275.961511 
L 123.484599 276.334125 
L 123.558725 275.979528 
L 123.762572 275.003751 
L 123.781104 275.190058 
L 124.003483 276.334125 
L 124.151735 275.624359 
L 124.188798 275.961511 
L 124.225862 276.334125 
L 124.299988 275.97938 
L 124.429709 275.358755 
L 124.44824 275.545062 
L 124.577961 276.29935 
L 124.615024 276.122166 
L 124.855935 274.971091 
L 124.874466 275.157399 
L 125.096845 276.334125 
L 125.15244 276.06894 
L 125.245098 276.089445 
L 125.263629 276.275752 
L 125.337756 275.922467 
L 125.486008 275.216282 
L 125.50454 275.402589 
L 125.597198 276.334125 
L 125.671324 275.981427 
L 126.023424 274.783996 
L 126.079018 275.342918 
L 126.171676 275.177423 
L 126.208739 275.001592 
L 126.245802 275.100006 
L 126.375523 275.581663 
L 126.394055 275.493841 
L 126.505244 275.241202 
L 126.560839 275.526067 
L 126.616434 275.2629 
L 126.69056 274.912137 
L 126.709092 275.098445 
L 126.783218 275.843673 
L 126.857344 275.493239 
L 126.968534 274.967862 
L 126.987065 275.15417 
L 127.061191 275.077968 
L 127.135318 275.549414 
L 127.190912 275.339146 
L 127.209444 275.525453 
L 127.39476 276.334125 
L 127.913644 276.272637 
L 128.006301 275.965175 
L 128.024833 276.147818 
L 128.154554 276.334125 
L 128.451059 276.272552 
L 128.562249 275.903051 
L 128.58078 276.089358 
L 128.710501 276.334125 
L 128.840222 276.272489 
L 128.895817 276.147818 
L 128.914348 276.334125 
L 128.93288 276.334125 
L 129.136727 276.272441 
L 129.17379 276.334125 
L 129.229385 276.21073 
L 129.359106 276.334125 
L 129.488827 276.272385 
L 129.52589 276.334125 
L 129.655611 275.961511 
L 129.803864 276.334125 
L 129.896521 276.272321 
L 129.933585 276.334125 
L 129.989179 276.210491 
L 130.1189 276.334125 
L 130.248621 276.272267 
L 130.304216 276.086674 
L 130.341279 276.334125 
L 130.452468 276.272235 
L 130.489532 276.334125 
L 130.600721 276.147818 
L 130.730442 276.334125 
L 130.786037 276.272185 
L 130.804568 276.210241 
L 130.8231 276.334125 
L 130.878695 276.334125 
L 131.06401 276.272143 
L 131.138136 276.024186 
L 131.193731 276.086492 
L 131.323452 276.334125 
L 131.360515 276.272098 
L 131.397578 276.148037 
L 131.41611 276.334125 
L 131.471705 276.272082 
L 131.527299 276.210025 
L 131.601426 276.334125 
L 131.972057 276.272008 
L 132.046183 276.209872 
L 132.00912 276.334125 
L 132.064715 276.334125 
L 132.101778 276.271989 
L 132.12031 276.20985 
L 132.138841 276.334125 
L 132.194436 276.334125 
L 132.268562 276.271965 
L 132.305625 276.147818 
L 132.324157 276.334125 
L 132.36122 276.334125 
L 132.416815 276.271943 
L 132.490941 276.023188 
L 132.509473 276.147818 
L 132.639194 276.334125 
L 132.731851 276.272281 
L 132.768915 276.147818 
L 132.787446 276.334125 
L 132.824509 276.334125 
L 132.991293 276.27186 
L 133.009825 276.209592 
L 133.028356 276.334125 
L 133.083951 276.334125 
L 133.176609 276.271833 
L 133.213672 276.334125 
L 133.436051 275.773259 
L 133.602835 276.334125 
L 133.65843 276.147151 
L 133.806682 275.648564 
L 133.825214 275.775203 
L 133.954935 276.334125 
L 133.973466 276.271806 
L 134.01053 276.147818 
L 134.029061 276.334125 
L 134.066124 276.334125 
L 134.140251 276.27181 
L 134.25144 275.897928 
L 134.288503 276.132329 
L 134.307035 276.318636 
L 134.381161 276.069654 
L 134.473819 275.758553 
L 134.49235 275.94486 
L 134.566477 276.193049 
L 134.60354 276.068689 
L 134.900045 275.323227 
L 135.066829 276.25508 
L 135.085361 276.193088 
L 135.252145 275.883761 
L 135.289208 276.256375 
L 135.363334 276.00887 
L 135.455992 275.699635 
L 135.474523 275.885942 
L 135.585713 276.259428 
L 135.604244 276.197642 
L 135.659839 276.260415 
L 135.715434 276.075247 
L 135.733965 276.261554 
L 135.808092 276.014734 
L 135.919281 275.644574 
L 135.937813 275.830882 
L 135.974876 276.203496 
L 136.049002 275.95689 
L 136.123128 275.710486 
L 136.14166 275.896793 
L 136.178723 276.269407 
L 136.252849 276.023096 
L 136.271381 275.961511 
L 136.289912 276.147818 
L 136.419633 276.334125 
L 136.642012 276.272534 
L 136.697607 276.147818 
L 136.716139 276.334125 
L 136.73467 276.334125 
L 136.790265 276.272524 
L 136.957049 275.775203 
L 136.975581 275.961511 
L 137.123833 276.334125 
L 137.179428 276.149282 
L 137.253554 276.272514 
L 137.383275 276.334125 
L 137.420338 276.272513 
L 137.43887 276.2109 
L 137.457401 276.334125 
L 137.512996 276.334125 
L 137.587122 276.27249 
L 137.753906 275.717796 
L 137.772438 275.898476 
L 137.920691 276.334125 
L 137.994817 276.272492 
L 138.03188 276.334125 
L 138.087475 276.210835 
L 138.180132 276.334125 
L 138.198664 276.272463 
L 138.235727 276.334125 
L 138.346917 276.147818 
L 138.476638 276.334125 
L 138.550764 276.087365 
L 138.587827 276.334125 
L 138.643422 276.272418 
L 138.699016 276.087284 
L 138.73608 276.334125 
L 138.754611 276.272404 
L 138.847269 276.334125 
L 138.8658 276.272388 
L 138.902864 276.334125 
L 139.106711 275.840407 
L 139.125242 275.836878 
L 139.273495 276.334125 
L 139.310558 276.272477 
L 139.421748 275.902615 
L 139.458811 276.147818 
L 139.588532 276.334125 
L 139.755316 276.272538 
L 139.792379 276.334125 
L 140.014758 275.650431 
L 140.181542 276.334125 
L 140.237137 276.149546 
L 140.292731 276.334125 
L 140.366858 276.272609 
L 140.552173 275.682852 
L 140.570705 275.869159 
L 140.607768 276.241773 
L 140.681894 276.029362 
L 141.033994 275.259356 
L 141.10812 275.765129 
L 141.163715 275.605659 
L 141.645536 274.46252 
L 141.719662 274.728749 
L 141.756725 274.622361 
L 141.793788 274.755474 
L 145.018281 265.597835 
L 151.078104 248.053104 
L 157.100864 230.642285 
L 161.641098 217.406198 
L 166.03308 203.915779 
L 175.966 172.212667 
L 179.616719 159.245677 
L 186.065705 135.070927 
L 189.049288 122.783787 
L 191.958744 109.855712 
L 194.812605 96.154687 
L 196.99933 84.966716 
L 197.036393 85.33933 
L 199.111929 105.631747 
L 199.130461 105.52805 
L 199.204587 105.11271 
L 199.24165 105.485324 
L 199.982913 112.937612 
L 200.038508 112.618448 
L 200.42767 110.369885 
L 200.483265 110.634735 
L 201.48397 120.103972 
L 201.502501 119.992913 
L 201.595159 119.436717 
L 201.632222 119.809331 
L 201.706349 120.256592 
L 201.743412 120.03297 
L 201.761943 119.921068 
L 201.799007 120.293683 
L 208.766876 189.261078 
L 216.327756 228.977954 
L 221.090369 275.014685 
L 221.108901 275.002325 
L 221.312748 276.306475 
L 221.33128 276.120168 
L 221.368343 275.824975 
L 221.405406 276.197589 
L 221.423937 276.334125 
L 221.461001 275.986242 
L 221.535127 275.638418 
L 221.57219 275.775203 
L 221.627785 275.588896 
L 221.720442 276.147818 
L 221.831632 275.775203 
L 221.776037 276.334125 
L 221.850163 275.961511 
L 221.905758 275.588896 
L 221.942821 275.961511 
L 222.016948 275.588896 
L 222.091074 276.334125 
L 222.146669 275.775203 
L 222.202263 276.334125 
L 222.257858 276.334125 
L 222.331984 275.775203 
L 222.369047 276.147818 
L 222.498768 276.334125 
L 232.542878 276.334125 
L 232.56141 276.147818 
L 232.654068 276.334125 
L 234.711072 276.325397 
L 234.729603 276.139089 
L 234.766667 276.334125 
L 234.80373 276.334125 
L 267.604606 276.334125 
L 267.77139 275.676615 
L 267.826984 275.426424 
L 268.179084 272.885415 
L 268.290274 272.366204 
L 268.623842 270.012888 
L 268.735031 269.493716 
L 269.0686 267.140995 
L 269.161257 266.811421 
L 269.531889 264.151956 
L 269.606015 263.863153 
L 269.976646 261.191803 
L 270.050773 260.893961 
L 270.384341 258.622325 
L 270.49553 258.239893 
L 270.829099 255.968379 
L 270.940288 255.585996 
L 271.273856 253.314523 
L 271.385046 252.93219 
L 275.777027 209.799307 
L 275.81409 209.791378 
L 275.832622 209.841214 
L 276.055001 210.306307 
L 276.092064 209.933693 
L 276.184722 209.965817 
L 276.314443 209.707991 
L 276.370037 209.880964 
L 276.499758 210.089515 
L 276.629479 209.795442 
L 276.7592 209.537862 
L 276.814795 209.710862 
L 276.944516 209.919449 
L 277.074237 209.625608 
L 277.203958 209.368233 
L 277.259553 209.541261 
L 277.389274 209.74989 
L 277.518995 209.45628 
L 277.648716 209.19911 
L 277.70431 209.372166 
L 277.834031 209.58086 
L 277.963752 209.287479 
L 278.093473 209.030523 
L 278.149068 209.203607 
L 278.278789 209.412348 
L 278.40851 209.146036 
L 278.501168 209.221567 
L 278.705015 209.777156 
L 278.723547 209.599395 
L 278.76061 209.22678 
L 278.853268 209.319249 
L 278.945925 209.394846 
L 279.149773 209.950575 
L 279.168304 209.773167 
L 279.205367 209.400553 
L 279.298025 209.487081 
L 279.409215 209.349453 
L 279.427746 209.163145 
L 279.520404 209.266452 
L 279.59453 209.401433 
L 279.613062 209.215126 
L 279.761314 208.845072 
L 279.835441 208.903504 
L 279.872504 208.53089 
L 279.965162 208.634353 
L 280.039288 208.769381 
L 280.05782 208.583074 
L 280.206072 208.213099 
L 280.280198 208.271587 
L 280.317261 207.898972 
L 280.409919 208.002259 
L 280.484046 208.137405 
L 280.502577 207.951098 
L 280.65083 207.581203 
L 280.724956 207.639748 
L 280.762019 207.267134 
L 280.854677 207.370806 
L 280.928803 207.505943 
L 280.947335 207.319636 
L 281.095587 206.949822 
L 281.169714 207.008425 
L 281.206777 206.635811 
L 281.299435 206.739664 
L 281.373561 206.874856 
L 281.392092 206.688549 
L 281.429156 206.315935 
L 281.521813 206.373154 
L 281.614471 206.500726 
L 281.725661 206.098406 
L 281.744192 206.156187 
L 281.818319 206.385877 
L 281.83685 206.19957 
L 281.892445 205.742031 
L 281.966571 205.865074 
L 282.059229 205.992708 
L 282.170418 205.590696 
L 282.18895 205.64849 
L 282.263076 205.878238 
L 282.281608 205.691931 
L 282.337202 205.234544 
L 282.411329 205.348205 
L 282.485455 205.421512 
L 282.503987 205.479314 
L 282.522518 205.293007 
L 282.763429 203.932853 
L 282.948744 204.168647 
L 283.208186 202.622281 
L 283.393502 202.858193 
L 283.652944 201.312018 
L 283.838259 201.54805 
L 284.097701 200.001882 
L 284.283017 200.238033 
L 284.542459 198.692062 
L 284.709243 198.990838 
L 284.857496 198.102409 
L 284.894559 198.218105 
L 284.91309 198.275955 
L 284.950154 198.057879 
L 285.005748 197.498958 
L 285.079875 197.664849 
L 285.154001 197.821228 
L 285.172532 197.658295 
L 285.302253 196.93271 
L 285.339317 197.048434 
L 285.357848 197.106298 
L 285.394911 196.888112 
L 285.450506 196.329191 
L 285.543164 196.496544 
L 285.61729 196.667131 
L 285.635822 196.480824 
L 285.876732 195.033207 
L 286.062048 195.372559 
L 286.32149 193.738675 
L 286.506805 194.078143 
L 286.766247 192.444297 
L 286.951563 192.783883 
L 287.211005 191.150061 
L 287.396321 191.489764 
L 287.655763 189.855975 
L 287.841078 190.126447 
L 287.952268 189.738002 
L 287.970799 189.795912 
L 288.044925 190.025736 
L 288.063457 189.839429 
L 288.119052 189.388877 
L 288.193178 189.511285 
L 288.285836 189.643343 
L 288.397025 189.255129 
L 288.415557 189.313056 
L 288.489683 189.542947 
L 288.508215 189.35664 
L 288.563809 188.906228 
L 288.637936 189.01949 
L 288.712062 189.092014 
L 288.730594 189.149951 
L 288.749125 188.963644 
L 288.990035 187.610644 
L 289.175351 187.845386 
L 289.434793 186.306155 
L 289.490388 186.383379 
L 289.508919 186.240891 
L 303.444659 79.958811 
L 306.947125 56.476099 
L 310.245744 34.414125 
L 325.293378 34.414125 
L 325.404567 34.59436 
L 325.534288 34.414125 
L 325.775199 34.414125 
L 325.79373 34.594352 
L 325.886388 34.414125 
L 326.071704 34.414125 
L 326.090235 34.594346 
L 326.182893 34.414125 
L 326.664714 34.414125 
L 326.683245 34.594335 
L 326.775903 34.414125 
L 326.961219 34.414125 
L 327.072408 34.594328 
L 327.202129 34.414125 
L 327.368913 34.414125 
L 327.424508 34.594321 
L 327.480103 34.414125 
L 327.535698 34.414125 
L 327.572761 34.600432 
L 327.646887 34.414125 
L 327.943392 34.414125 
L 327.961924 34.594312 
L 328.054581 34.414125 
L 328.332555 34.414125 
L 328.462276 34.594303 
L 328.591997 34.414125 
L 328.721718 34.414125 
L 328.74025 34.594298 
L 328.832907 34.414125 
L 328.869971 34.414125 
L 328.999691 34.594293 
L 329.110881 34.414125 
L 329.129412 34.483718 
L 329.22207 34.414125 
L 329.240602 34.414125 
L 329.351791 34.594287 
L 329.481512 34.414125 
L 329.537107 34.505505 
L 329.592702 34.447772 
L 329.703891 34.414125 
L 329.778017 34.59428 
L 329.81508 34.414125 
L 329.852144 34.414125 
L 329.907738 34.594278 
L 329.963333 34.43432 
L 329.981865 34.502488 
L 330.000396 34.414125 
L 330.055991 34.414125 
L 330.315433 34.414125 
L 330.333964 34.594271 
L 330.426622 34.508064 
L 330.556343 34.414125 
L 330.686064 34.600432 
L 330.815785 34.414125 
L 330.87138 34.522235 
L 330.926975 34.464883 
L 331.038164 34.414125 
L 331.11229 34.600432 
L 331.149353 34.414125 
L 331.557048 34.414125 
L 331.631174 34.600432 
L 331.668237 34.414125 
L 331.81649 34.493208 
L 331.835021 34.600432 
L 331.853553 34.414125 
L 331.909148 34.414125 
L 331.964742 34.414125 
L 332.001806 34.600432 
L 332.075932 34.414125 
L 332.187121 34.414125 
L 332.261248 34.672725 
L 332.298311 34.528637 
L 332.372437 34.600432 
L 332.428032 34.414125 
L 332.483626 34.414125 
L 332.557753 34.600432 
L 332.594816 34.414125 
L 332.706005 34.820744 
L 332.724537 34.788726 
L 332.891321 34.414125 
L 333.00251 34.414125 
L 333.150763 34.815436 
L 333.206357 34.600432 
L 333.336078 34.414125 
L 333.391673 34.414125 
L 333.428736 34.600432 
L 333.502863 34.548857 
L 333.539926 34.697102 
L 333.558457 34.649963 
L 333.59552 34.810177 
L 333.632584 34.654917 
L 333.743773 34.414125 
L 333.836431 34.786739 
L 333.854962 34.600432 
L 333.929089 34.414125 
L 333.966152 34.561311 
L 334.040278 34.8067 
L 334.077341 34.648925 
L 334.207062 34.414125 
L 334.281188 34.600432 
L 334.318252 34.414125 
L 334.373846 34.414125 
L 334.503567 34.910729 
L 334.522099 34.74492 
L 334.633288 34.414125 
L 334.744478 34.600432 
L 334.855667 34.414125 
L 334.874199 34.420192 
L 334.948325 34.761794 
L 334.985388 34.414125 
L 335.059514 34.414125 
L 335.170704 34.600432 
L 335.300425 34.414125 
L 335.393083 34.955854 
L 335.430146 34.724571 
L 335.578398 34.414125 
L 335.671056 34.600432 
L 335.689588 34.414125 
L 335.708119 34.414125 
L 335.83784 35.228581 
L 335.874903 34.996159 
L 336.023156 34.414125 
L 336.097282 34.600432 
L 336.134345 34.414125 
L 336.152877 34.414125 
L 336.282598 35.226131 
L 336.319661 34.992556 
L 336.486445 34.414125 
L 336.523508 34.414125 
L 336.708824 35.185717 
L 336.727355 35.223649 
L 336.745887 35.175213 
L 336.931203 34.414125 
L 336.949734 34.414125 
L 337.097987 34.873596 
L 337.13505 35.084793 
L 337.172113 35.221135 
L 337.209176 34.985208 
L 337.37596 34.414125 
L 337.48715 34.414125 
L 337.802186 37.156796 
L 337.820718 36.970488 
L 337.876313 36.411567 
L 337.931907 36.970488 
L 338.08016 38.460946 
L 338.135755 37.902024 
L 338.413728 35.632388 
L 338.450791 35.823301 
L 338.506386 36.106354 
L 338.543449 35.849701 
L 338.599044 36.036008 
L 338.78436 34.414125 
L 338.951144 35.513883 
L 338.969675 35.443432 
L 339.006738 35.070817 
L 339.062333 35.629739 
L 339.080865 35.816046 
L 339.136459 35.290862 
L 339.229117 34.414125 
L 339.284712 34.973047 
L 339.395901 35.513658 
L 339.432964 35.256793 
L 339.451496 35.070485 
L 339.507091 35.629407 
L 339.525622 35.663701 
L 339.544154 35.477394 
L 339.673875 34.414125 
L 339.710938 34.786739 
L 339.840659 35.632781 
L 339.877722 35.375809 
L 339.896254 35.189501 
L 339.951848 35.748423 
L 340.063038 34.786739 
L 340.118632 34.414125 
L 340.155696 34.786739 
L 340.285417 35.814595 
L 340.32248 35.557515 
L 340.341011 35.371208 
L 340.396606 35.930129 
L 340.433669 36.302744 
L 340.507795 35.930129 
L 340.544859 35.557515 
L 340.600453 36.116436 
L 340.748706 37.581347 
L 340.785769 37.208733 
L 340.989616 35.159354 
L 341.045211 35.718275 
L 341.174932 37.022426 
L 341.230527 36.463504 
L 341.5085 34.414125 
L 341.527032 34.600432 
L 341.582626 35.108816 
L 341.638221 34.786739 
L 341.786474 34.414125 
L 341.897663 34.414125 
L 342.027384 35.11097 
L 342.064447 34.973047 
L 342.231231 34.414125 
L 342.305358 34.414125 
L 342.45361 34.848091 
L 342.472142 34.926919 
L 342.509205 34.786739 
L 342.657457 34.414125 
L 342.787178 34.414125 
L 342.879836 34.781397 
L 342.916899 34.742923 
L 343.15781 34.414125 
L 343.324594 34.971967 
L 343.491378 34.414125 
L 343.584036 34.600432 
L 343.602567 34.414125 
L 344.10292 34.414125 
L 344.121451 34.600432 
L 344.214109 34.414125 
L 344.325298 34.600432 
L 344.34383 34.414125 
L 344.362362 34.414125 
L 344.380893 34.600432 
L 344.473551 34.414125 
L 344.510614 34.414125 
L 344.529146 34.600432 
L 344.621804 34.414125 
L 344.770056 34.414125 
L 344.788588 34.600432 
L 344.881246 34.414125 
L 345.085093 34.483386 
L 345.140687 34.586876 
L 345.177751 34.480719 
L 345.270408 34.414125 
L 345.28894 34.600432 
L 345.381598 34.414125 
L 345.52985 34.480562 
L 345.585445 34.579809 
L 345.622508 34.469295 
L 345.752229 34.414125 
L 345.88195 34.414125 
L 345.900482 34.600432 
L 345.99314 34.577718 
L 346.085797 34.600432 
L 346.122861 34.414125 
L 346.419366 34.474726 
L 346.437897 34.5739 
L 346.512024 34.445675 
L 346.623213 34.414125 
L 346.697339 34.600432 
L 346.734402 34.414125 
L 346.752934 34.414125 
L 346.771466 34.600432 
L 346.864123 34.471708 
L 346.919718 34.498191 
L 346.975313 34.414125 
L 346.993844 34.600432 
L 347.086502 34.414125 
L 347.383007 34.477698 
L 347.401539 34.600432 
L 347.42007 34.414125 
L 347.475665 34.414125 
L 347.753639 34.414125 
L 347.827765 34.678966 
L 347.864828 34.487936 
L 347.994549 34.414125 
L 348.161333 34.414125 
L 348.272523 34.832571 
L 348.291054 34.783985 
L 348.439307 34.414125 
L 348.606091 34.414125 
L 348.71728 34.825258 
L 348.735812 34.774317 
L 348.884064 34.414125 
L 349.050848 34.414125 
L 349.162038 34.817771 
L 349.180569 34.764418 
L 349.328822 34.414125 
L 349.495606 34.414125 
L 349.606795 34.810103 
L 349.625327 34.75428 
L 349.77358 34.414125 
L 349.940364 34.414125 
L 349.977427 34.563333 
L 350.051553 34.414125 
L 352.164152 34.414125 
L 352.275341 34.600432 
L 352.405062 34.414125 
L 352.423594 34.414125 
L 352.479189 34.786739 
L 352.534783 34.414125 
L 352.571846 34.414125 
L 352.701567 34.600432 
L 352.831288 34.414125 
L 352.886883 34.414125 
L 352.905415 34.600432 
L 352.998072 34.414125 
L 353.016604 34.414125 
L 353.09073 34.600432 
L 353.127793 34.414125 
L 353.146325 34.414125 
L 353.257514 34.786739 
L 353.276046 34.600432 
L 353.313109 34.414125 
L 353.350172 34.786739 
L 353.368704 34.973047 
L 353.424299 34.414125 
L 353.461362 34.414125 
L 353.572551 35.531968 
L 353.628146 34.973332 
L 353.757867 34.414125 
L 353.776398 34.600432 
L 353.813461 34.973047 
L 353.869056 34.414125 
L 353.906119 34.414125 
L 353.998777 34.990268 
L 354.03584 34.77543 
L 354.184093 34.414125 
L 354.202624 34.414125 
L 354.258219 34.973047 
L 354.313814 34.414125 
L 354.350877 34.414125 
L 354.480598 35.149411 
L 354.499129 34.973047 
L 354.665914 34.414125 
L 354.74004 34.600432 
L 354.777103 34.414125 
L 354.795635 34.414125 
L 354.888292 35.345661 
L 354.943887 34.973047 
L 355.09214 34.414125 
L 355.184798 34.600432 
L 355.203329 34.414125 
L 355.240392 34.414125 
L 355.33305 34.996901 
L 355.370113 34.779566 
L 355.407176 34.786739 
L 355.518366 34.414125 
L 355.57396 34.414125 
L 355.777808 35.371767 
L 355.981655 34.414125 
L 356.03725 34.973047 
L 356.092844 34.414125 
L 356.129908 34.414125 
L 356.241097 35.345661 
L 356.27816 34.973047 
L 356.426413 34.414125 
L 356.482007 34.973047 
L 356.537602 34.414125 
L 356.574665 34.414125 
L 356.685855 35.531968 
L 356.741449 34.973047 
L 356.87117 34.414125 
L 356.889702 34.600432 
L 356.926765 34.973047 
L 356.98236 34.414125 
L 357.019423 34.414125 
L 357.149144 35.345661 
L 357.186207 34.973047 
L 357.315928 34.414125 
L 357.334459 34.600432 
L 357.371523 34.786739 
L 357.408586 34.414125 
L 357.427117 34.414125 
L 357.46418 34.414125 
L 357.593901 35.159354 
L 357.612433 34.973047 
L 357.760686 34.414125 
L 357.81628 34.600432 
L 357.871875 34.414125 
L 357.908938 34.414125 
L 358.020127 35.422603 
L 358.075722 34.973047 
L 358.205443 34.414125 
L 358.223975 34.600432 
L 358.279569 34.786739 
L 358.316633 34.414125 
L 358.353696 34.414125 
L 358.427822 35.051124 
L 358.501948 34.786739 
L 358.631669 34.414125 
L 358.705796 34.973047 
L 358.742859 34.600432 
L 358.798453 34.414125 
L 358.835516 34.786739 
L 358.946706 34.973047 
L 359.11349 34.414125 
L 359.317337 35.345661 
L 359.372932 35.531968 
L 359.521185 34.414125 
L 359.539716 34.414125 
L 359.595311 34.973047 
L 359.650905 34.414125 
L 359.687969 34.414125 
L 359.81769 35.345661 
L 359.854753 34.973047 
L 359.984474 34.414125 
L 360.003005 34.600432 
L 360.040068 34.973047 
L 360.095663 34.414125 
L 360.151258 34.414125 
L 360.243916 35.327776 
L 360.29951 34.973047 
L 360.4107 34.414125 
L 360.429231 34.600432 
L 360.503358 34.786739 
L 360.521889 34.600432 
L 360.596015 34.414125 
L 360.614547 34.600432 
L 360.725736 35.159354 
L 360.744268 34.973047 
L 360.911052 34.414125 
L 360.929584 34.414125 
L 361.040773 34.600432 
L 361.096368 34.414125 
L 361.133431 34.786739 
L 361.151963 34.95013 
L 361.189026 34.600432 
L 361.300215 34.414125 
L 361.35581 34.973047 
L 361.411404 34.414125 
L 361.466999 34.414125 
L 361.559657 35.334314 
L 361.615252 34.973047 
L 361.763504 34.414125 
L 361.800567 34.786739 
L 361.874694 34.414125 
L 361.893225 34.414125 
L 361.985883 35.345661 
L 362.060009 34.973047 
L 362.208262 34.414125 
L 362.263857 34.973047 
L 362.319451 34.414125 
L 362.356514 34.414125 
L 362.486235 35.345661 
L 362.523299 34.973047 
L 362.671551 34.414125 
L 362.745677 34.600432 
L 362.782741 34.414125 
L 362.801272 34.414125 
L 362.89393 35.345661 
L 362.949525 34.973047 
L 363.097777 34.414125 
L 363.153372 34.973047 
L 363.208967 34.414125 
L 363.24603 34.414125 
L 363.338688 35.345661 
L 363.394282 34.977464 
L 363.542535 34.414125 
L 363.59813 34.973047 
L 363.653724 34.414125 
L 363.690787 34.414125 
L 363.820508 35.330035 
L 363.857572 34.973047 
L 364.024356 34.414125 
L 364.042887 34.414125 
L 364.154077 34.600432 
L 364.172608 34.414125 
L 364.209671 34.786739 
L 364.228203 34.772589 
L 364.265266 35.145203 
L 364.320861 34.600432 
L 364.450582 34.414125 
L 364.506176 34.786739 
L 364.561771 34.414125 
L 364.580303 34.414125 
L 364.691492 35.34818 
L 364.747087 34.973047 
L 364.876808 34.414125 
L 364.895339 34.600432 
L 364.950934 34.786739 
L 364.987997 34.414125 
L 365.02506 34.414125 
L 365.117718 35.345661 
L 365.191844 34.973047 
L 365.358629 34.414125 
L 365.673665 36.649811 
L 365.877512 34.600432 
L 365.933107 35.159354 
L 366.099891 36.836118 
L 366.155486 36.277197 
L 366.414928 34.414125 
L 366.433459 34.600432 
L 366.507586 35.01207 
L 366.544649 34.786739 
L 366.655838 34.414125 
L 366.67437 34.600432 
L 366.711433 34.973047 
L 366.767028 34.414125 
L 366.804091 34.414125 
L 366.952343 35.013807 
L 367.007938 34.600432 
L 367.082064 34.414125 
L 367.100596 34.600432 
L 367.137659 34.973047 
L 367.211785 34.600432 
L 367.285912 34.414125 
L 367.304443 34.600432 
L 367.397101 35.015563 
L 367.434164 34.786739 
L 367.545354 34.414125 
L 367.563885 34.600432 
L 367.600948 34.973047 
L 367.656543 34.414125 
L 367.693606 34.414125 
L 367.841859 35.017331 
L 367.897453 34.600432 
L 367.97158 34.414125 
L 367.990111 34.600432 
L 368.045706 34.973047 
L 368.082769 34.600432 
L 368.175427 34.414125 
L 368.193958 34.600432 
L 368.286616 35.019113 
L 368.323679 34.786739 
L 368.434869 34.414125 
L 368.4534 34.600432 
L 384.668523 197.540781 
L 384.668523 197.540781 
" clip-path="url(#pd6c5d44611)" style="fill: none; stroke: #1f77b4; stroke-width: 1.5; stroke-linecap: square"/>
   </g>
   <g id="line2d_18">
    <path clip-path="url(#pd6c5d44611)" style="fill: none; stroke: #000000; stroke-width: 1.5; stroke-linecap: square"/>
   </g>
   <g id="line2d_19">
    <path d="M 43.78125 34.414125 
L 400.90125 34.414125 
" clip-path="url(#pd6c5d44611)" style="fill: none; stroke: #ff0000; stroke-width: 1.5; stroke-linecap: square"/>
   </g>
   <g id="line2d_20">
    <path d="M 43.78125 46.510125 
L 400.90125 46.510125 
" clip-path="url(#pd6c5d44611)" style="fill: none; stroke-dasharray: 5.55,2.4; stroke-dashoffset: 0; stroke: #ff00ff; stroke-width: 1.5"/>
   </g>
   <g id="patch_3">
    <path d="M 43.78125 288.430125 
L 43.78125 22.318125 
" style="fill: none; stroke: #000000; stroke-width: 0.8; stroke-linejoin: miter; stroke-linecap: square"/>
   </g>
   <g id="patch_4">
    <path d="M 400.90125 288.430125 
L 400.90125 22.318125 
" style="fill: none; stroke: #000000; stroke-width: 0.8; stroke-linejoin: miter; stroke-linecap: square"/>
   </g>
   <g id="patch_5">
    <path d="M 43.78125 288.430125 
L 400.90125 288.430125 
" style="fill: none; stroke: #000000; stroke-width: 0.8; stroke-linejoin: miter; stroke-linecap: square"/>
   </g>
   <g id="patch_6">
    <path d="M 43.78125 22.318125 
L 400.90125 22.318125 
" style="fill: none; stroke: #000000; stroke-width: 0.8; stroke-linejoin: miter; stroke-linecap: square"/>
   </g>
   <g id="text_20">
    <!-- loc_techs_store = Zambia::storageB -->
    <g transform="translate(113.682188 16.318125)scale(0.12 -0.12)">
     <defs>
      <path id="DejaVuSans-6c" d="M 603 4863 
L 1178 4863 
L 1178 0 
L 603 0 
L 603 4863 
z
" transform="scale(0.015625)"/>
      <path id="DejaVuSans-63" d="M 3122 3366 
L 3122 2828 
Q 2878 2963 2633 3030 
Q 2388 3097 2138 3097 
Q 1578 3097 1268 2742 
Q 959 2388 959 1747 
Q 959 1106 1268 751 
Q 1578 397 2138 397 
Q 2388 397 2633 464 
Q 2878 531 3122 666 
L 3122 134 
Q 2881 22 2623 -34 
Q 2366 -91 2075 -91 
Q 1284 -91 818 406 
Q 353 903 353 1747 
Q 353 2603 823 3093 
Q 1294 3584 2113 3584 
Q 2378 3584 2631 3529 
Q 2884 3475 3122 3366 
z
" transform="scale(0.015625)"/>
      <path id="DejaVuSans-5f" d="M 3263 -1063 
L 3263 -1509 
L -63 -1509 
L -63 -1063 
L 3263 -1063 
z
" transform="scale(0.015625)"/>
      <path id="DejaVuSans-68" d="M 3513 2113 
L 3513 0 
L 2938 0 
L 2938 2094 
Q 2938 2591 2744 2837 
Q 2550 3084 2163 3084 
Q 1697 3084 1428 2787 
Q 1159 2491 1159 1978 
L 1159 0 
L 581 0 
L 581 4863 
L 1159 4863 
L 1159 2956 
Q 1366 3272 1645 3428 
Q 1925 3584 2291 3584 
Q 2894 3584 3203 3211 
Q 3513 2838 3513 2113 
z
" transform="scale(0.015625)"/>
      <path id="DejaVuSans-20" transform="scale(0.015625)"/>
      <path id="DejaVuSans-3d" d="M 678 2906 
L 4684 2906 
L 4684 2381 
L 678 2381 
L 678 2906 
z
M 678 1631 
L 4684 1631 
L 4684 1100 
L 678 1100 
L 678 1631 
z
" transform="scale(0.015625)"/>
      <path id="DejaVuSans-5a" d="M 359 4666 
L 4025 4666 
L 4025 4184 
L 1075 531 
L 4097 531 
L 4097 0 
L 288 0 
L 288 481 
L 3238 4134 
L 359 4134 
L 359 4666 
z
" transform="scale(0.015625)"/>
      <path id="DejaVuSans-62" d="M 3116 1747 
Q 3116 2381 2855 2742 
Q 2594 3103 2138 3103 
Q 1681 3103 1420 2742 
Q 1159 2381 1159 1747 
Q 1159 1113 1420 752 
Q 1681 391 2138 391 
Q 2594 391 2855 752 
Q 3116 1113 3116 1747 
z
M 1159 2969 
Q 1341 3281 1617 3432 
Q 1894 3584 2278 3584 
Q 2916 3584 3314 3078 
Q 3713 2572 3713 1747 
Q 3713 922 3314 415 
Q 2916 -91 2278 -91 
Q 1894 -91 1617 61 
Q 1341 213 1159 525 
L 1159 0 
L 581 0 
L 581 4863 
L 1159 4863 
L 1159 2969 
z
" transform="scale(0.015625)"/>
      <path id="DejaVuSans-3a" d="M 750 794 
L 1409 794 
L 1409 0 
L 750 0 
L 750 794 
z
M 750 3309 
L 1409 3309 
L 1409 2516 
L 750 2516 
L 750 3309 
z
" transform="scale(0.015625)"/>
      <path id="DejaVuSans-42" d="M 1259 2228 
L 1259 519 
L 2272 519 
Q 2781 519 3026 730 
Q 3272 941 3272 1375 
Q 3272 1813 3026 2020 
Q 2781 2228 2272 2228 
L 1259 2228 
z
M 1259 4147 
L 1259 2741 
L 2194 2741 
Q 2656 2741 2882 2914 
Q 3109 3088 3109 3444 
Q 3109 3797 2882 3972 
Q 2656 4147 2194 4147 
L 1259 4147 
z
M 628 4666 
L 2241 4666 
Q 2963 4666 3353 4366 
Q 3744 4066 3744 3513 
Q 3744 3084 3544 2831 
Q 3344 2578 2956 2516 
Q 3422 2416 3680 2098 
Q 3938 1781 3938 1306 
Q 3938 681 3513 340 
Q 3088 0 2303 0 
L 628 0 
L 628 4666 
z
" transform="scale(0.015625)"/>
     </defs>
     <use xlink:href="#DejaVuSans-6c"/>
     <use xlink:href="#DejaVuSans-6f" x="27.783203"/>
     <use xlink:href="#DejaVuSans-63" x="88.964844"/>
     <use xlink:href="#DejaVuSans-5f" x="143.945312"/>
     <use xlink:href="#DejaVuSans-74" x="193.945312"/>
     <use xlink:href="#DejaVuSans-65" x="233.154297"/>
     <use xlink:href="#DejaVuSans-63" x="294.677734"/>
     <use xlink:href="#DejaVuSans-68" x="349.658203"/>
     <use xlink:href="#DejaVuSans-73" x="413.037109"/>
     <use xlink:href="#DejaVuSans-5f" x="465.136719"/>
     <use xlink:href="#DejaVuSans-73" x="515.136719"/>
     <use xlink:href="#DejaVuSans-74" x="567.236328"/>
     <use xlink:href="#DejaVuSans-6f" x="606.445312"/>
     <use xlink:href="#DejaVuSans-72" x="667.626953"/>
     <use xlink:href="#DejaVuSans-65" x="706.490234"/>
     <use xlink:href="#DejaVuSans-20" x="768.013672"/>
     <use xlink:href="#DejaVuSans-3d" x="799.800781"/>
     <use xlink:href="#DejaVuSans-20" x="883.589844"/>
     <use xlink:href="#DejaVuSans-5a" x="915.376953"/>
     <use xlink:href="#DejaVuSans-61" x="983.882812"/>
     <use xlink:href="#DejaVuSans-6d" x="1045.162109"/>
     <use xlink:href="#DejaVuSans-62" x="1142.574219"/>
     <use xlink:href="#DejaVuSans-69" x="1206.050781"/>
     <use xlink:href="#DejaVuSans-61" x="1233.833984"/>
     <use xlink:href="#DejaVuSans-3a" x="1295.113281"/>
     <use xlink:href="#DejaVuSans-3a" x="1328.804688"/>
     <use xlink:href="#DejaVuSans-73" x="1362.496094"/>
     <use xlink:href="#DejaVuSans-74" x="1414.595703"/>
     <use xlink:href="#DejaVuSans-6f" x="1453.804688"/>
     <use xlink:href="#DejaVuSans-72" x="1514.986328"/>
     <use xlink:href="#DejaVuSans-61" x="1556.099609"/>
     <use xlink:href="#DejaVuSans-67" x="1617.378906"/>
     <use xlink:href="#DejaVuSans-65" x="1680.855469"/>
     <use xlink:href="#DejaVuSans-42" x="1742.378906"/>
    </g>
   </g>
   <g id="legend_1">
    <g id="patch_7">
     <path d="M 422.18605 89.865 
L 545.93605 89.865 
Q 547.93605 89.865 547.93605 87.865 
L 547.93605 29.318125 
Q 547.93605 27.318125 545.93605 27.318125 
L 422.18605 27.318125 
Q 420.18605 27.318125 420.18605 29.318125 
L 420.18605 87.865 
Q 420.18605 89.865 422.18605 89.865 
z
" style="fill: #ffffff; opacity: 0.8; stroke: #cccccc; stroke-linejoin: miter"/>
    </g>
    <g id="line2d_21">
     <path d="M 424.18605 35.416562 
L 434.18605 35.416562 
L 444.18605 35.416562 
" style="fill: none; stroke: #1f77b4; stroke-width: 1.5; stroke-linecap: square"/>
    </g>
    <g id="text_21">
     <!-- Storage -->
     <g transform="translate(452.18605 38.916562)scale(0.1 -0.1)">
      <defs>
       <path id="DejaVuSans-53" d="M 3425 4513 
L 3425 3897 
Q 3066 4069 2747 4153 
Q 2428 4238 2131 4238 
Q 1616 4238 1336 4038 
Q 1056 3838 1056 3469 
Q 1056 3159 1242 3001 
Q 1428 2844 1947 2747 
L 2328 2669 
Q 3034 2534 3370 2195 
Q 3706 1856 3706 1288 
Q 3706 609 3251 259 
Q 2797 -91 1919 -91 
Q 1588 -91 1214 -16 
Q 841 59 441 206 
L 441 856 
Q 825 641 1194 531 
Q 1563 422 1919 422 
Q 2459 422 2753 634 
Q 3047 847 3047 1241 
Q 3047 1584 2836 1778 
Q 2625 1972 2144 2069 
L 1759 2144 
Q 1053 2284 737 2584 
Q 422 2884 422 3419 
Q 422 4038 858 4394 
Q 1294 4750 2059 4750 
Q 2388 4750 2728 4690 
Q 3069 4631 3425 4513 
z
" transform="scale(0.015625)"/>
      </defs>
      <use xlink:href="#DejaVuSans-53"/>
      <use xlink:href="#DejaVuSans-74" x="63.476562"/>
      <use xlink:href="#DejaVuSans-6f" x="102.685547"/>
      <use xlink:href="#DejaVuSans-72" x="163.867188"/>
      <use xlink:href="#DejaVuSans-61" x="204.980469"/>
      <use xlink:href="#DejaVuSans-67" x="266.259766"/>
      <use xlink:href="#DejaVuSans-65" x="329.736328"/>
     </g>
    </g>
    <g id="line2d_22">
     <path d="M 424.18605 50.094687 
L 434.18605 50.094687 
L 444.18605 50.094687 
" style="fill: none; stroke: #000000; stroke-width: 1.5; stroke-linecap: square"/>
    </g>
    <g id="text_22">
     <!-- Storage_cap_max -->
     <g transform="translate(452.18605 53.594687)scale(0.1 -0.1)">
      <defs>
       <path id="DejaVuSans-78" d="M 3513 3500 
L 2247 1797 
L 3578 0 
L 2900 0 
L 1881 1375 
L 863 0 
L 184 0 
L 1544 1831 
L 300 3500 
L 978 3500 
L 1906 2253 
L 2834 3500 
L 3513 3500 
z
" transform="scale(0.015625)"/>
      </defs>
      <use xlink:href="#DejaVuSans-53"/>
      <use xlink:href="#DejaVuSans-74" x="63.476562"/>
      <use xlink:href="#DejaVuSans-6f" x="102.685547"/>
      <use xlink:href="#DejaVuSans-72" x="163.867188"/>
      <use xlink:href="#DejaVuSans-61" x="204.980469"/>
      <use xlink:href="#DejaVuSans-67" x="266.259766"/>
      <use xlink:href="#DejaVuSans-65" x="329.736328"/>
      <use xlink:href="#DejaVuSans-5f" x="391.259766"/>
      <use xlink:href="#DejaVuSans-63" x="441.259766"/>
      <use xlink:href="#DejaVuSans-61" x="496.240234"/>
      <use xlink:href="#DejaVuSans-70" x="557.519531"/>
      <use xlink:href="#DejaVuSans-5f" x="620.996094"/>
      <use xlink:href="#DejaVuSans-6d" x="670.996094"/>
      <use xlink:href="#DejaVuSans-61" x="768.408203"/>
      <use xlink:href="#DejaVuSans-78" x="829.6875"/>
     </g>
    </g>
    <g id="line2d_23">
     <path d="M 424.18605 65.050937 
L 434.18605 65.050937 
L 444.18605 65.050937 
" style="fill: none; stroke: #ff0000; stroke-width: 1.5; stroke-linecap: square"/>
    </g>
    <g id="text_23">
     <!-- Storage_cap -->
     <g transform="translate(452.18605 68.550937)scale(0.1 -0.1)">
      <use xlink:href="#DejaVuSans-53"/>
      <use xlink:href="#DejaVuSans-74" x="63.476562"/>
      <use xlink:href="#DejaVuSans-6f" x="102.685547"/>
      <use xlink:href="#DejaVuSans-72" x="163.867188"/>
      <use xlink:href="#DejaVuSans-61" x="204.980469"/>
      <use xlink:href="#DejaVuSans-67" x="266.259766"/>
      <use xlink:href="#DejaVuSans-65" x="329.736328"/>
      <use xlink:href="#DejaVuSans-5f" x="391.259766"/>
      <use xlink:href="#DejaVuSans-63" x="441.259766"/>
      <use xlink:href="#DejaVuSans-61" x="496.240234"/>
      <use xlink:href="#DejaVuSans-70" x="557.519531"/>
     </g>
    </g>
    <g id="line2d_24">
     <path d="M 424.18605 80.007187 
L 434.18605 80.007187 
L 444.18605 80.007187 
" style="fill: none; stroke-dasharray: 5.55,2.4; stroke-dashoffset: 0; stroke: #ff00ff; stroke-width: 1.5"/>
    </g>
    <g id="text_24">
     <!-- Spillage_threshold -->
     <g transform="translate(452.18605 83.507187)scale(0.1 -0.1)">
      <defs>
       <path id="DejaVuSans-64" d="M 2906 2969 
L 2906 4863 
L 3481 4863 
L 3481 0 
L 2906 0 
L 2906 525 
Q 2725 213 2448 61 
Q 2172 -91 1784 -91 
Q 1150 -91 751 415 
Q 353 922 353 1747 
Q 353 2572 751 3078 
Q 1150 3584 1784 3584 
Q 2172 3584 2448 3432 
Q 2725 3281 2906 2969 
z
M 947 1747 
Q 947 1113 1208 752 
Q 1469 391 1925 391 
Q 2381 391 2643 752 
Q 2906 1113 2906 1747 
Q 2906 2381 2643 2742 
Q 2381 3103 1925 3103 
Q 1469 3103 1208 2742 
Q 947 2381 947 1747 
z
" transform="scale(0.015625)"/>
      </defs>
      <use xlink:href="#DejaVuSans-53"/>
      <use xlink:href="#DejaVuSans-70" x="63.476562"/>
      <use xlink:href="#DejaVuSans-69" x="126.953125"/>
      <use xlink:href="#DejaVuSans-6c" x="154.736328"/>
      <use xlink:href="#DejaVuSans-6c" x="182.519531"/>
      <use xlink:href="#DejaVuSans-61" x="210.302734"/>
      <use xlink:href="#DejaVuSans-67" x="271.582031"/>
      <use xlink:href="#DejaVuSans-65" x="335.058594"/>
      <use xlink:href="#DejaVuSans-5f" x="396.582031"/>
      <use xlink:href="#DejaVuSans-74" x="446.582031"/>
      <use xlink:href="#DejaVuSans-68" x="485.791016"/>
      <use xlink:href="#DejaVuSans-72" x="549.169922"/>
      <use xlink:href="#DejaVuSans-65" x="588.033203"/>
      <use xlink:href="#DejaVuSans-73" x="649.556641"/>
      <use xlink:href="#DejaVuSans-68" x="701.65625"/>
      <use xlink:href="#DejaVuSans-6f" x="765.035156"/>
      <use xlink:href="#DejaVuSans-6c" x="826.216797"/>
      <use xlink:href="#DejaVuSans-64" x="854"/>
     </g>
    </g>
   </g>
  </g>
 </g>
 <defs>
  <clipPath id="pd6c5d44611">
   <rect x="43.78125" y="22.318125" width="357.12" height="266.112"/>
  </clipPath>
 </defs>
</svg>
