<?xml version="1.0" encoding="utf-8" standalone="no"?>
<!DOCTYPE svg PUBLIC "-//W3C//DTD SVG 1.1//EN"
  "http://www.w3.org/Graphics/SVG/1.1/DTD/svg11.dtd">
<svg xmlns:xlink="http://www.w3.org/1999/xlink" width="557.32355pt" height="345.581158pt" viewBox="0 0 557.32355 345.581158" xmlns="http://www.w3.org/2000/svg" version="1.1">
 <metadata>
  <rdf:RDF xmlns:dc="http://purl.org/dc/elements/1.1/" xmlns:cc="http://creativecommons.org/ns#" xmlns:rdf="http://www.w3.org/1999/02/22-rdf-syntax-ns#">
   <cc:Work>
    <dc:type rdf:resource="http://purl.org/dc/dcmitype/StillImage"/>
    <dc:date>2022-04-28T12:26:46.936499</dc:date>
    <dc:format>image/svg+xml</dc:format>
    <dc:creator>
     <cc:Agent>
      <dc:title>Matplotlib v3.5.1, https://matplotlib.org/</dc:title>
     </cc:Agent>
    </dc:creator>
   </cc:Work>
  </rdf:RDF>
 </metadata>
 <defs>
  <style type="text/css">*{stroke-linejoin: round; stroke-linecap: butt}</style>
 </defs>
 <g id="figure_1">
  <g id="patch_1">
   <path d="M 0 345.581158 
L 557.32355 345.581158 
L 557.32355 0 
L 0 0 
z
" style="fill: #ffffff"/>
  </g>
  <g id="axes_1">
   <g id="patch_2">
    <path d="M 43.78125 288.430125 
L 400.90125 288.430125 
L 400.90125 22.318125 
L 43.78125 22.318125 
z
" style="fill: #ffffff"/>
   </g>
   <g id="matplotlib.axis_1">
    <g id="xtick_1">
     <g id="line2d_1">
      <defs>
       <path id="mcca19debb6" d="M 0 0 
L 0 3.5 
" style="stroke: #000000; stroke-width: 0.8"/>
      </defs>
      <g>
       <use xlink:href="#mcca19debb6" x="60.013977" y="288.430125" style="stroke: #000000; stroke-width: 0.8"/>
      </g>
     </g>
     <g id="text_1">
      <!-- 2005-01 -->
      <g transform="translate(22.789156 322.901971)rotate(-30)scale(0.1 -0.1)">
       <defs>
        <path id="DejaVuSans-32" d="M 1228 531 
L 3431 531 
L 3431 0 
L 469 0 
L 469 531 
Q 828 903 1448 1529 
Q 2069 2156 2228 2338 
Q 2531 2678 2651 2914 
Q 2772 3150 2772 3378 
Q 2772 3750 2511 3984 
Q 2250 4219 1831 4219 
Q 1534 4219 1204 4116 
Q 875 4013 500 3803 
L 500 4441 
Q 881 4594 1212 4672 
Q 1544 4750 1819 4750 
Q 2544 4750 2975 4387 
Q 3406 4025 3406 3419 
Q 3406 3131 3298 2873 
Q 3191 2616 2906 2266 
Q 2828 2175 2409 1742 
Q 1991 1309 1228 531 
z
" transform="scale(0.015625)"/>
        <path id="DejaVuSans-30" d="M 2034 4250 
Q 1547 4250 1301 3770 
Q 1056 3291 1056 2328 
Q 1056 1369 1301 889 
Q 1547 409 2034 409 
Q 2525 409 2770 889 
Q 3016 1369 3016 2328 
Q 3016 3291 2770 3770 
Q 2525 4250 2034 4250 
z
M 2034 4750 
Q 2819 4750 3233 4129 
Q 3647 3509 3647 2328 
Q 3647 1150 3233 529 
Q 2819 -91 2034 -91 
Q 1250 -91 836 529 
Q 422 1150 422 2328 
Q 422 3509 836 4129 
Q 1250 4750 2034 4750 
z
" transform="scale(0.015625)"/>
        <path id="DejaVuSans-35" d="M 691 4666 
L 3169 4666 
L 3169 4134 
L 1269 4134 
L 1269 2991 
Q 1406 3038 1543 3061 
Q 1681 3084 1819 3084 
Q 2600 3084 3056 2656 
Q 3513 2228 3513 1497 
Q 3513 744 3044 326 
Q 2575 -91 1722 -91 
Q 1428 -91 1123 -41 
Q 819 9 494 109 
L 494 744 
Q 775 591 1075 516 
Q 1375 441 1709 441 
Q 2250 441 2565 725 
Q 2881 1009 2881 1497 
Q 2881 1984 2565 2268 
Q 2250 2553 1709 2553 
Q 1456 2553 1204 2497 
Q 953 2441 691 2322 
L 691 4666 
z
" transform="scale(0.015625)"/>
        <path id="DejaVuSans-2d" d="M 313 2009 
L 1997 2009 
L 1997 1497 
L 313 1497 
L 313 2009 
z
" transform="scale(0.015625)"/>
        <path id="DejaVuSans-31" d="M 794 531 
L 1825 531 
L 1825 4091 
L 703 3866 
L 703 4441 
L 1819 4666 
L 2450 4666 
L 2450 531 
L 3481 531 
L 3481 0 
L 794 0 
L 794 531 
z
" transform="scale(0.015625)"/>
       </defs>
       <use xlink:href="#DejaVuSans-32"/>
       <use xlink:href="#DejaVuSans-30" x="63.623047"/>
       <use xlink:href="#DejaVuSans-30" x="127.246094"/>
       <use xlink:href="#DejaVuSans-35" x="190.869141"/>
       <use xlink:href="#DejaVuSans-2d" x="254.492188"/>
       <use xlink:href="#DejaVuSans-30" x="290.576172"/>
       <use xlink:href="#DejaVuSans-31" x="354.199219"/>
      </g>
     </g>
    </g>
    <g id="xtick_2">
     <g id="line2d_2">
      <g>
       <use xlink:href="#mcca19debb6" x="100.042165" y="288.430125" style="stroke: #000000; stroke-width: 0.8"/>
      </g>
     </g>
     <g id="text_2">
      <!-- 2005-04 -->
      <g transform="translate(62.817344 322.901971)rotate(-30)scale(0.1 -0.1)">
       <defs>
        <path id="DejaVuSans-34" d="M 2419 4116 
L 825 1625 
L 2419 1625 
L 2419 4116 
z
M 2253 4666 
L 3047 4666 
L 3047 1625 
L 3713 1625 
L 3713 1100 
L 3047 1100 
L 3047 0 
L 2419 0 
L 2419 1100 
L 313 1100 
L 313 1709 
L 2253 4666 
z
" transform="scale(0.015625)"/>
       </defs>
       <use xlink:href="#DejaVuSans-32"/>
       <use xlink:href="#DejaVuSans-30" x="63.623047"/>
       <use xlink:href="#DejaVuSans-30" x="127.246094"/>
       <use xlink:href="#DejaVuSans-35" x="190.869141"/>
       <use xlink:href="#DejaVuSans-2d" x="254.492188"/>
       <use xlink:href="#DejaVuSans-30" x="290.576172"/>
       <use xlink:href="#DejaVuSans-34" x="354.199219"/>
      </g>
     </g>
    </g>
    <g id="xtick_3">
     <g id="line2d_3">
      <g>
       <use xlink:href="#mcca19debb6" x="140.51511" y="288.430125" style="stroke: #000000; stroke-width: 0.8"/>
      </g>
     </g>
     <g id="text_3">
      <!-- 2005-07 -->
      <g transform="translate(103.290289 322.901971)rotate(-30)scale(0.1 -0.1)">
       <defs>
        <path id="DejaVuSans-37" d="M 525 4666 
L 3525 4666 
L 3525 4397 
L 1831 0 
L 1172 0 
L 2766 4134 
L 525 4134 
L 525 4666 
z
" transform="scale(0.015625)"/>
       </defs>
       <use xlink:href="#DejaVuSans-32"/>
       <use xlink:href="#DejaVuSans-30" x="63.623047"/>
       <use xlink:href="#DejaVuSans-30" x="127.246094"/>
       <use xlink:href="#DejaVuSans-35" x="190.869141"/>
       <use xlink:href="#DejaVuSans-2d" x="254.492188"/>
       <use xlink:href="#DejaVuSans-30" x="290.576172"/>
       <use xlink:href="#DejaVuSans-37" x="354.199219"/>
      </g>
     </g>
    </g>
    <g id="xtick_4">
     <g id="line2d_4">
      <g>
       <use xlink:href="#mcca19debb6" x="181.432813" y="288.430125" style="stroke: #000000; stroke-width: 0.8"/>
      </g>
     </g>
     <g id="text_4">
      <!-- 2005-10 -->
      <g transform="translate(144.207992 322.901971)rotate(-30)scale(0.1 -0.1)">
       <use xlink:href="#DejaVuSans-32"/>
       <use xlink:href="#DejaVuSans-30" x="63.623047"/>
       <use xlink:href="#DejaVuSans-30" x="127.246094"/>
       <use xlink:href="#DejaVuSans-35" x="190.869141"/>
       <use xlink:href="#DejaVuSans-2d" x="254.492188"/>
       <use xlink:href="#DejaVuSans-31" x="290.576172"/>
       <use xlink:href="#DejaVuSans-30" x="354.199219"/>
      </g>
     </g>
    </g>
    <g id="xtick_5">
     <g id="line2d_5">
      <g>
       <use xlink:href="#mcca19debb6" x="222.350516" y="288.430125" style="stroke: #000000; stroke-width: 0.8"/>
      </g>
     </g>
     <g id="text_5">
      <!-- 2006-01 -->
      <g transform="translate(185.125695 322.901971)rotate(-30)scale(0.1 -0.1)">
       <defs>
        <path id="DejaVuSans-36" d="M 2113 2584 
Q 1688 2584 1439 2293 
Q 1191 2003 1191 1497 
Q 1191 994 1439 701 
Q 1688 409 2113 409 
Q 2538 409 2786 701 
Q 3034 994 3034 1497 
Q 3034 2003 2786 2293 
Q 2538 2584 2113 2584 
z
M 3366 4563 
L 3366 3988 
Q 3128 4100 2886 4159 
Q 2644 4219 2406 4219 
Q 1781 4219 1451 3797 
Q 1122 3375 1075 2522 
Q 1259 2794 1537 2939 
Q 1816 3084 2150 3084 
Q 2853 3084 3261 2657 
Q 3669 2231 3669 1497 
Q 3669 778 3244 343 
Q 2819 -91 2113 -91 
Q 1303 -91 875 529 
Q 447 1150 447 2328 
Q 447 3434 972 4092 
Q 1497 4750 2381 4750 
Q 2619 4750 2861 4703 
Q 3103 4656 3366 4563 
z
" transform="scale(0.015625)"/>
       </defs>
       <use xlink:href="#DejaVuSans-32"/>
       <use xlink:href="#DejaVuSans-30" x="63.623047"/>
       <use xlink:href="#DejaVuSans-30" x="127.246094"/>
       <use xlink:href="#DejaVuSans-36" x="190.869141"/>
       <use xlink:href="#DejaVuSans-2d" x="254.492188"/>
       <use xlink:href="#DejaVuSans-30" x="290.576172"/>
       <use xlink:href="#DejaVuSans-31" x="354.199219"/>
      </g>
     </g>
    </g>
    <g id="xtick_6">
     <g id="line2d_6">
      <g>
       <use xlink:href="#mcca19debb6" x="262.378703" y="288.430125" style="stroke: #000000; stroke-width: 0.8"/>
      </g>
     </g>
     <g id="text_6">
      <!-- 2006-04 -->
      <g transform="translate(225.153883 322.901971)rotate(-30)scale(0.1 -0.1)">
       <use xlink:href="#DejaVuSans-32"/>
       <use xlink:href="#DejaVuSans-30" x="63.623047"/>
       <use xlink:href="#DejaVuSans-30" x="127.246094"/>
       <use xlink:href="#DejaVuSans-36" x="190.869141"/>
       <use xlink:href="#DejaVuSans-2d" x="254.492188"/>
       <use xlink:href="#DejaVuSans-30" x="290.576172"/>
       <use xlink:href="#DejaVuSans-34" x="354.199219"/>
      </g>
     </g>
    </g>
    <g id="xtick_7">
     <g id="line2d_7">
      <g>
       <use xlink:href="#mcca19debb6" x="302.851649" y="288.430125" style="stroke: #000000; stroke-width: 0.8"/>
      </g>
     </g>
     <g id="text_7">
      <!-- 2006-07 -->
      <g transform="translate(265.626828 322.901971)rotate(-30)scale(0.1 -0.1)">
       <use xlink:href="#DejaVuSans-32"/>
       <use xlink:href="#DejaVuSans-30" x="63.623047"/>
       <use xlink:href="#DejaVuSans-30" x="127.246094"/>
       <use xlink:href="#DejaVuSans-36" x="190.869141"/>
       <use xlink:href="#DejaVuSans-2d" x="254.492188"/>
       <use xlink:href="#DejaVuSans-30" x="290.576172"/>
       <use xlink:href="#DejaVuSans-37" x="354.199219"/>
      </g>
     </g>
    </g>
    <g id="xtick_8">
     <g id="line2d_8">
      <g>
       <use xlink:href="#mcca19debb6" x="343.769351" y="288.430125" style="stroke: #000000; stroke-width: 0.8"/>
      </g>
     </g>
     <g id="text_8">
      <!-- 2006-10 -->
      <g transform="translate(306.544531 322.901971)rotate(-30)scale(0.1 -0.1)">
       <use xlink:href="#DejaVuSans-32"/>
       <use xlink:href="#DejaVuSans-30" x="63.623047"/>
       <use xlink:href="#DejaVuSans-30" x="127.246094"/>
       <use xlink:href="#DejaVuSans-36" x="190.869141"/>
       <use xlink:href="#DejaVuSans-2d" x="254.492188"/>
       <use xlink:href="#DejaVuSans-31" x="290.576172"/>
       <use xlink:href="#DejaVuSans-30" x="354.199219"/>
      </g>
     </g>
    </g>
    <g id="xtick_9">
     <g id="line2d_9">
      <g>
       <use xlink:href="#mcca19debb6" x="384.687054" y="288.430125" style="stroke: #000000; stroke-width: 0.8"/>
      </g>
     </g>
     <g id="text_9">
      <!-- 2007-01 -->
      <g transform="translate(347.462233 322.901971)rotate(-30)scale(0.1 -0.1)">
       <use xlink:href="#DejaVuSans-32"/>
       <use xlink:href="#DejaVuSans-30" x="63.623047"/>
       <use xlink:href="#DejaVuSans-30" x="127.246094"/>
       <use xlink:href="#DejaVuSans-37" x="190.869141"/>
       <use xlink:href="#DejaVuSans-2d" x="254.492188"/>
       <use xlink:href="#DejaVuSans-30" x="290.576172"/>
       <use xlink:href="#DejaVuSans-31" x="354.199219"/>
      </g>
     </g>
    </g>
    <g id="text_10">
     <!-- timesteps -->
     <g transform="translate(197.624844 336.301471)scale(0.1 -0.1)">
      <defs>
       <path id="DejaVuSans-74" d="M 1172 4494 
L 1172 3500 
L 2356 3500 
L 2356 3053 
L 1172 3053 
L 1172 1153 
Q 1172 725 1289 603 
Q 1406 481 1766 481 
L 2356 481 
L 2356 0 
L 1766 0 
Q 1100 0 847 248 
Q 594 497 594 1153 
L 594 3053 
L 172 3053 
L 172 3500 
L 594 3500 
L 594 4494 
L 1172 4494 
z
" transform="scale(0.015625)"/>
       <path id="DejaVuSans-69" d="M 603 3500 
L 1178 3500 
L 1178 0 
L 603 0 
L 603 3500 
z
M 603 4863 
L 1178 4863 
L 1178 4134 
L 603 4134 
L 603 4863 
z
" transform="scale(0.015625)"/>
       <path id="DejaVuSans-6d" d="M 3328 2828 
Q 3544 3216 3844 3400 
Q 4144 3584 4550 3584 
Q 5097 3584 5394 3201 
Q 5691 2819 5691 2113 
L 5691 0 
L 5113 0 
L 5113 2094 
Q 5113 2597 4934 2840 
Q 4756 3084 4391 3084 
Q 3944 3084 3684 2787 
Q 3425 2491 3425 1978 
L 3425 0 
L 2847 0 
L 2847 2094 
Q 2847 2600 2669 2842 
Q 2491 3084 2119 3084 
Q 1678 3084 1418 2786 
Q 1159 2488 1159 1978 
L 1159 0 
L 581 0 
L 581 3500 
L 1159 3500 
L 1159 2956 
Q 1356 3278 1631 3431 
Q 1906 3584 2284 3584 
Q 2666 3584 2933 3390 
Q 3200 3197 3328 2828 
z
" transform="scale(0.015625)"/>
       <path id="DejaVuSans-65" d="M 3597 1894 
L 3597 1613 
L 953 1613 
Q 991 1019 1311 708 
Q 1631 397 2203 397 
Q 2534 397 2845 478 
Q 3156 559 3463 722 
L 3463 178 
Q 3153 47 2828 -22 
Q 2503 -91 2169 -91 
Q 1331 -91 842 396 
Q 353 884 353 1716 
Q 353 2575 817 3079 
Q 1281 3584 2069 3584 
Q 2775 3584 3186 3129 
Q 3597 2675 3597 1894 
z
M 3022 2063 
Q 3016 2534 2758 2815 
Q 2500 3097 2075 3097 
Q 1594 3097 1305 2825 
Q 1016 2553 972 2059 
L 3022 2063 
z
" transform="scale(0.015625)"/>
       <path id="DejaVuSans-73" d="M 2834 3397 
L 2834 2853 
Q 2591 2978 2328 3040 
Q 2066 3103 1784 3103 
Q 1356 3103 1142 2972 
Q 928 2841 928 2578 
Q 928 2378 1081 2264 
Q 1234 2150 1697 2047 
L 1894 2003 
Q 2506 1872 2764 1633 
Q 3022 1394 3022 966 
Q 3022 478 2636 193 
Q 2250 -91 1575 -91 
Q 1294 -91 989 -36 
Q 684 19 347 128 
L 347 722 
Q 666 556 975 473 
Q 1284 391 1588 391 
Q 1994 391 2212 530 
Q 2431 669 2431 922 
Q 2431 1156 2273 1281 
Q 2116 1406 1581 1522 
L 1381 1569 
Q 847 1681 609 1914 
Q 372 2147 372 2553 
Q 372 3047 722 3315 
Q 1072 3584 1716 3584 
Q 2034 3584 2315 3537 
Q 2597 3491 2834 3397 
z
" transform="scale(0.015625)"/>
       <path id="DejaVuSans-70" d="M 1159 525 
L 1159 -1331 
L 581 -1331 
L 581 3500 
L 1159 3500 
L 1159 2969 
Q 1341 3281 1617 3432 
Q 1894 3584 2278 3584 
Q 2916 3584 3314 3078 
Q 3713 2572 3713 1747 
Q 3713 922 3314 415 
Q 2916 -91 2278 -91 
Q 1894 -91 1617 61 
Q 1341 213 1159 525 
z
M 3116 1747 
Q 3116 2381 2855 2742 
Q 2594 3103 2138 3103 
Q 1681 3103 1420 2742 
Q 1159 2381 1159 1747 
Q 1159 1113 1420 752 
Q 1681 391 2138 391 
Q 2594 391 2855 752 
Q 3116 1113 3116 1747 
z
" transform="scale(0.015625)"/>
      </defs>
      <use xlink:href="#DejaVuSans-74"/>
      <use xlink:href="#DejaVuSans-69" x="39.208984"/>
      <use xlink:href="#DejaVuSans-6d" x="66.992188"/>
      <use xlink:href="#DejaVuSans-65" x="164.404297"/>
      <use xlink:href="#DejaVuSans-73" x="225.927734"/>
      <use xlink:href="#DejaVuSans-74" x="278.027344"/>
      <use xlink:href="#DejaVuSans-65" x="317.236328"/>
      <use xlink:href="#DejaVuSans-70" x="378.759766"/>
      <use xlink:href="#DejaVuSans-73" x="442.236328"/>
     </g>
    </g>
   </g>
   <g id="matplotlib.axis_2">
    <g id="ytick_1">
     <g id="line2d_10">
      <defs>
       <path id="md43ccfa2c1" d="M 0 0 
L -3.5 0 
" style="stroke: #000000; stroke-width: 0.8"/>
      </defs>
      <g>
       <use xlink:href="#md43ccfa2c1" x="43.78125" y="288.252302" style="stroke: #000000; stroke-width: 0.8"/>
      </g>
     </g>
     <g id="text_11">
      <!-- 3.0 -->
      <g transform="translate(20.878125 292.051521)scale(0.1 -0.1)">
       <defs>
        <path id="DejaVuSans-33" d="M 2597 2516 
Q 3050 2419 3304 2112 
Q 3559 1806 3559 1356 
Q 3559 666 3084 287 
Q 2609 -91 1734 -91 
Q 1441 -91 1130 -33 
Q 819 25 488 141 
L 488 750 
Q 750 597 1062 519 
Q 1375 441 1716 441 
Q 2309 441 2620 675 
Q 2931 909 2931 1356 
Q 2931 1769 2642 2001 
Q 2353 2234 1838 2234 
L 1294 2234 
L 1294 2753 
L 1863 2753 
Q 2328 2753 2575 2939 
Q 2822 3125 2822 3475 
Q 2822 3834 2567 4026 
Q 2313 4219 1838 4219 
Q 1578 4219 1281 4162 
Q 984 4106 628 3988 
L 628 4550 
Q 988 4650 1302 4700 
Q 1616 4750 1894 4750 
Q 2613 4750 3031 4423 
Q 3450 4097 3450 3541 
Q 3450 3153 3228 2886 
Q 3006 2619 2597 2516 
z
" transform="scale(0.015625)"/>
        <path id="DejaVuSans-2e" d="M 684 794 
L 1344 794 
L 1344 0 
L 684 0 
L 684 794 
z
" transform="scale(0.015625)"/>
       </defs>
       <use xlink:href="#DejaVuSans-33"/>
       <use xlink:href="#DejaVuSans-2e" x="63.623047"/>
       <use xlink:href="#DejaVuSans-30" x="95.410156"/>
      </g>
     </g>
    </g>
    <g id="ytick_2">
     <g id="line2d_11">
      <g>
       <use xlink:href="#md43ccfa2c1" x="43.78125" y="229.764243" style="stroke: #000000; stroke-width: 0.8"/>
      </g>
     </g>
     <g id="text_12">
      <!-- 3.5 -->
      <g transform="translate(20.878125 233.563462)scale(0.1 -0.1)">
       <use xlink:href="#DejaVuSans-33"/>
       <use xlink:href="#DejaVuSans-2e" x="63.623047"/>
       <use xlink:href="#DejaVuSans-35" x="95.410156"/>
      </g>
     </g>
    </g>
    <g id="ytick_3">
     <g id="line2d_12">
      <g>
       <use xlink:href="#md43ccfa2c1" x="43.78125" y="171.276184" style="stroke: #000000; stroke-width: 0.8"/>
      </g>
     </g>
     <g id="text_13">
      <!-- 4.0 -->
      <g transform="translate(20.878125 175.075402)scale(0.1 -0.1)">
       <use xlink:href="#DejaVuSans-34"/>
       <use xlink:href="#DejaVuSans-2e" x="63.623047"/>
       <use xlink:href="#DejaVuSans-30" x="95.410156"/>
      </g>
     </g>
    </g>
    <g id="ytick_4">
     <g id="line2d_13">
      <g>
       <use xlink:href="#md43ccfa2c1" x="43.78125" y="112.788124" style="stroke: #000000; stroke-width: 0.8"/>
      </g>
     </g>
     <g id="text_14">
      <!-- 4.5 -->
      <g transform="translate(20.878125 116.587343)scale(0.1 -0.1)">
       <use xlink:href="#DejaVuSans-34"/>
       <use xlink:href="#DejaVuSans-2e" x="63.623047"/>
       <use xlink:href="#DejaVuSans-35" x="95.410156"/>
      </g>
     </g>
    </g>
    <g id="ytick_5">
     <g id="line2d_14">
      <g>
       <use xlink:href="#md43ccfa2c1" x="43.78125" y="54.300065" style="stroke: #000000; stroke-width: 0.8"/>
      </g>
     </g>
     <g id="text_15">
      <!-- 5.0 -->
      <g transform="translate(20.878125 58.099284)scale(0.1 -0.1)">
       <use xlink:href="#DejaVuSans-35"/>
       <use xlink:href="#DejaVuSans-2e" x="63.623047"/>
       <use xlink:href="#DejaVuSans-30" x="95.410156"/>
      </g>
     </g>
    </g>
    <g id="text_16">
     <!-- storage -->
     <g transform="translate(14.798438 174.368656)rotate(-90)scale(0.1 -0.1)">
      <defs>
       <path id="DejaVuSans-6f" d="M 1959 3097 
Q 1497 3097 1228 2736 
Q 959 2375 959 1747 
Q 959 1119 1226 758 
Q 1494 397 1959 397 
Q 2419 397 2687 759 
Q 2956 1122 2956 1747 
Q 2956 2369 2687 2733 
Q 2419 3097 1959 3097 
z
M 1959 3584 
Q 2709 3584 3137 3096 
Q 3566 2609 3566 1747 
Q 3566 888 3137 398 
Q 2709 -91 1959 -91 
Q 1206 -91 779 398 
Q 353 888 353 1747 
Q 353 2609 779 3096 
Q 1206 3584 1959 3584 
z
" transform="scale(0.015625)"/>
       <path id="DejaVuSans-72" d="M 2631 2963 
Q 2534 3019 2420 3045 
Q 2306 3072 2169 3072 
Q 1681 3072 1420 2755 
Q 1159 2438 1159 1844 
L 1159 0 
L 581 0 
L 581 3500 
L 1159 3500 
L 1159 2956 
Q 1341 3275 1631 3429 
Q 1922 3584 2338 3584 
Q 2397 3584 2469 3576 
Q 2541 3569 2628 3553 
L 2631 2963 
z
" transform="scale(0.015625)"/>
       <path id="DejaVuSans-61" d="M 2194 1759 
Q 1497 1759 1228 1600 
Q 959 1441 959 1056 
Q 959 750 1161 570 
Q 1363 391 1709 391 
Q 2188 391 2477 730 
Q 2766 1069 2766 1631 
L 2766 1759 
L 2194 1759 
z
M 3341 1997 
L 3341 0 
L 2766 0 
L 2766 531 
Q 2569 213 2275 61 
Q 1981 -91 1556 -91 
Q 1019 -91 701 211 
Q 384 513 384 1019 
Q 384 1609 779 1909 
Q 1175 2209 1959 2209 
L 2766 2209 
L 2766 2266 
Q 2766 2663 2505 2880 
Q 2244 3097 1772 3097 
Q 1472 3097 1187 3025 
Q 903 2953 641 2809 
L 641 3341 
Q 956 3463 1253 3523 
Q 1550 3584 1831 3584 
Q 2591 3584 2966 3190 
Q 3341 2797 3341 1997 
z
" transform="scale(0.015625)"/>
       <path id="DejaVuSans-67" d="M 2906 1791 
Q 2906 2416 2648 2759 
Q 2391 3103 1925 3103 
Q 1463 3103 1205 2759 
Q 947 2416 947 1791 
Q 947 1169 1205 825 
Q 1463 481 1925 481 
Q 2391 481 2648 825 
Q 2906 1169 2906 1791 
z
M 3481 434 
Q 3481 -459 3084 -895 
Q 2688 -1331 1869 -1331 
Q 1566 -1331 1297 -1286 
Q 1028 -1241 775 -1147 
L 775 -588 
Q 1028 -725 1275 -790 
Q 1522 -856 1778 -856 
Q 2344 -856 2625 -561 
Q 2906 -266 2906 331 
L 2906 616 
Q 2728 306 2450 153 
Q 2172 0 1784 0 
Q 1141 0 747 490 
Q 353 981 353 1791 
Q 353 2603 747 3093 
Q 1141 3584 1784 3584 
Q 2172 3584 2450 3431 
Q 2728 3278 2906 2969 
L 2906 3500 
L 3481 3500 
L 3481 434 
z
" transform="scale(0.015625)"/>
      </defs>
      <use xlink:href="#DejaVuSans-73"/>
      <use xlink:href="#DejaVuSans-74" x="52.099609"/>
      <use xlink:href="#DejaVuSans-6f" x="91.308594"/>
      <use xlink:href="#DejaVuSans-72" x="152.490234"/>
      <use xlink:href="#DejaVuSans-61" x="193.603516"/>
      <use xlink:href="#DejaVuSans-67" x="254.882812"/>
      <use xlink:href="#DejaVuSans-65" x="318.359375"/>
     </g>
    </g>
    <g id="text_17">
     <!-- 1e10 -->
     <g transform="translate(43.78125 19.318125)scale(0.1 -0.1)">
      <use xlink:href="#DejaVuSans-31"/>
      <use xlink:href="#DejaVuSans-65" x="63.623047"/>
      <use xlink:href="#DejaVuSans-31" x="125.146484"/>
      <use xlink:href="#DejaVuSans-30" x="188.769531"/>
     </g>
    </g>
   </g>
   <g id="line2d_15">
    <path d="M 60.013977 122.725333 
L 60.347546 122.889294 
L 60.366077 122.8713 
L 60.384609 122.966472 
L 60.40314 122.970817 
L 60.551393 123.169817 
L 60.681114 123.29843 
L 60.829366 123.403506 
L 61.014682 123.791748 
L 61.088808 123.776055 
L 61.292655 124.263028 
L 61.422376 124.451351 
L 61.552097 124.541013 
L 61.607692 124.64894 
L 61.644755 124.759259 
L 61.811539 125.066944 
L 63.127281 126.245909 
L 63.294065 126.594189 
L 63.664696 126.864901 
L 63.868543 127.347204 
L 64.016796 127.605072 
L 64.202112 128.003909 
L 64.313301 128.170371 
L 64.498617 128.565805 
L 64.795122 129.036495 
L 64.980438 129.468825 
L 65.165753 129.758164 
L 65.332537 130.039282 
L 65.425195 130.295016 
L 65.591979 130.571351 
L 65.888484 130.992714 
L 66.036737 131.244104 
L 66.4259 131.753318 
L 66.629747 132.230772 
L 66.703873 132.388709 
L 66.907721 132.894552 
L 67.074505 133.189583 
L 67.72311 133.951946 
L 67.908425 134.34066 
L 67.982552 134.471847 
L 69.001788 135.902215 
L 69.187104 136.289132 
L 69.335356 136.578564 
L 69.520672 136.981318 
L 69.946898 137.70841 
L 70.150745 138.182284 
L 70.280466 138.437593 
L 70.576971 139.385323 
L 70.651097 139.548863 
L 70.854945 140.041106 
L 71.095855 140.421271 
L 71.262639 140.746799 
L 71.39236 140.979118 
L 71.577676 141.372816 
L 71.670334 141.718638 
L 71.929776 142.47518 
L 72.09656 142.806295 
L 72.504254 143.643772 
L 72.652507 143.868474 
L 72.893417 144.224533 
L 72.967544 144.462199 
L 73.319643 145.72504 
L 73.430833 146.010466 
L 73.653212 146.581356 
L 73.745869 146.806129 
L 73.87559 146.920998 
L 73.931185 147.007334 
L 73.98678 147.1866 
L 74.060906 147.151666 
L 74.22769 147.190769 
L 74.357411 147.472224 
L 74.375943 147.45134 
L 74.728043 147.305091 
L 74.839232 147.356127 
L 75.043079 147.884043 
L 75.191332 147.858585 
L 75.246926 148.04658 
L 75.321053 147.990056 
L 75.358116 148.073766 
L 75.395179 148.063412 
L 75.469305 148.340468 
L 75.543432 148.298784 
L 75.636089 148.385382 
L 75.802873 148.82103 
L 75.821405 148.811907 
L 76.2291 148.74644 
L 76.303226 149.026181 
L 76.377352 148.971547 
L 76.432947 148.936083 
L 76.47001 149.030507 
L 76.544136 149.119215 
L 76.729452 149.530844 
L 76.840641 149.552013 
L 77.007425 149.926167 
L 77.081552 149.978703 
L 77.303931 150.571408 
L 77.359525 150.664169 
L 77.544841 151.091794 
L 77.563372 151.078656 
L 77.581904 151.173828 
L 77.618967 151.162145 
L 77.804283 151.604091 
L 78.026662 151.615402 
L 78.230509 152.157603 
L 78.304635 152.250061 
L 78.452888 152.568083 
L 78.471419 152.555089 
L 78.675267 152.561973 
L 78.786456 152.850279 
L 78.823519 152.836522 
L 78.971772 152.896028 
L 79.138556 153.236038 
L 79.323871 153.308824 
L 79.527719 153.837309 
L 79.620377 153.932543 
L 79.768629 153.976785 
L 79.89835 154.246383 
L 79.916882 154.235369 
L 80.009539 154.204823 
L 80.176324 154.491732 
L 80.306045 154.553116 
L 80.454297 154.809713 
L 80.621081 154.898264 
L 80.639613 154.993436 
L 80.732271 154.960451 
L 80.84346 155.00693 
L 81.010244 155.399264 
L 81.028776 155.395578 
L 81.065839 155.472857 
L 81.121434 155.447336 
L 81.251155 155.718489 
L 81.269686 155.703432 
L 81.288218 155.687577 
L 81.306749 155.782749 
L 81.492065 156.171008 
L 81.714444 156.086181 
L 81.862696 156.276959 
L 82.02948 156.330366 
L 82.103607 156.513995 
L 82.159201 156.474816 
L 82.363049 156.438893 
L 82.400112 156.525307 
L 82.437175 156.517103 
L 82.548364 156.784222 
L 82.585427 156.76689 
L 82.603959 156.745418 
L 82.622491 156.84059 
L 82.678085 156.829437 
L 82.770743 156.929576 
L 82.789275 157.024748 
L 82.881933 156.967968 
L 82.918996 156.947261 
L 82.937527 157.042433 
L 83.08578 157.289826 
L 83.215501 157.391468 
L 83.400816 157.823685 
L 83.752916 157.818398 
L 83.901169 158.076926 
L 83.938232 158.160306 
L 83.993827 158.141315 
L 84.105016 158.244077 
L 84.123548 158.339249 
L 84.216206 158.284712 
L 84.308863 158.257308 
L 84.457116 158.51448 
L 84.549774 158.61479 
L 84.735089 159.051962 
L 85.050126 159.115936 
L 85.105721 159.206628 
L 85.161315 159.194329 
L 85.272505 159.275924 
L 85.420757 159.473608 
L 85.550478 159.560919 
L 85.661668 159.645334 
L 85.884047 159.713514 
L 86.069362 160.158717 
L 86.217615 160.217341 
L 86.347336 160.390681 
L 86.662373 160.288012 
L 86.847688 160.721802 
L 86.884751 160.695082 
L 86.921814 160.776357 
L 87.014472 160.945881 
L 87.051535 160.910837 
L 87.10713 160.881008 
L 87.144193 160.974138 
L 87.255383 160.94661 
L 87.273914 161.041782 
L 87.45923 161.468811 
L 87.551888 161.404717 
L 87.588951 161.498002 
L 87.644546 161.489031 
L 87.663077 161.584203 
L 87.681609 161.679375 
L 87.774267 161.605443 
L 87.996645 161.577789 
L 88.107835 161.743776 
L 88.126366 161.734904 
L 88.496998 161.586074 
L 88.608187 161.74242 
L 88.626719 161.728319 
L 88.700845 161.678044 
L 88.719377 161.773216 
L 88.737908 161.868389 
L 88.830566 161.79153 
L 89.034413 161.694855 
L 89.10854 161.849583 
L 89.164134 161.805275 
L 89.275324 161.826699 
L 89.312387 162.017043 
L 89.405045 161.99346 
L 89.627423 161.949126 
L 89.720081 162.207882 
L 89.775676 162.170238 
L 90.016586 162.140517 
L 90.090713 162.417845 
L 90.164839 162.353227 
L 90.238965 162.31091 
L 90.257497 162.406082 
L 90.479876 162.358261 
L 90.498407 162.453433 
L 90.591065 162.398642 
L 90.683723 162.332333 
L 90.702254 162.427505 
L 90.757849 162.512154 
L 90.924633 162.809894 
L 91.23967 162.746981 
L 91.369391 162.982047 
L 91.387922 162.970506 
L 91.758554 162.862447 
L 91.814149 163.040269 
L 91.888275 163.00462 
L 92.277438 162.852263 
L 92.370096 163.118207 
L 92.42569 163.062012 
L 92.518348 163.143844 
L 92.648069 163.269682 
L 92.888979 163.103848 
L 92.907511 163.19902 
L 92.963106 163.288594 
L 93.0187 163.474096 
L 93.092827 163.406427 
L 93.222548 163.434671 
L 93.333737 163.556862 
L 93.352269 163.552736 
L 93.556116 163.555974 
L 93.574648 163.651146 
L 93.667305 163.606379 
L 93.815558 163.5133 
L 93.852621 163.605999 
L 93.982342 163.854279 
L 94.000874 163.839498 
L 94.112063 163.88446 
L 94.130595 163.979632 
L 94.223252 163.906045 
L 94.445631 163.928731 
L 94.464163 164.023903 
L 94.556821 163.981766 
L 94.816263 163.957698 
L 94.834794 164.05287 
L 94.927452 164.003832 
L 95.205426 163.982645 
L 95.409273 163.96841 
L 95.538994 164.082331 
L 95.594588 164.17532 
L 95.724309 164.347451 
L 95.816967 164.278208 
L 95.872562 164.362504 
L 96.261725 164.266091 
L 96.31732 164.450482 
L 96.391446 164.397723 
L 96.55823 164.357518 
L 97.114177 164.270918 
L 97.206835 164.435679 
L 97.243898 164.420092 
L 97.280961 164.500473 
L 97.410682 164.409438 
L 97.447745 164.50213 
L 97.521872 164.466352 
L 97.670124 164.510118 
L 97.725719 164.685883 
L 97.799845 164.648261 
L 97.892503 164.735148 
L 97.985161 164.895271 
L 98.022224 164.879684 
L 98.300197 164.757011 
L 98.355792 164.846661 
L 98.411387 164.802184 
L 98.541108 164.845189 
L 98.744955 164.859428 
L 98.80055 164.949406 
L 98.856144 164.905426 
L 99.300902 164.711118 
L 99.39356 164.865406 
L 99.430623 164.856997 
L 99.597407 164.87902 
L 99.690065 165.163037 
L 99.74566 165.12004 
L 99.893912 165.155541 
L 100.042165 165.392584 
L 100.598112 165.75758 
L 100.727833 165.897472 
L 101.302311 166.265995 
L 101.432032 166.417752 
L 101.821195 166.724694 
L 101.932385 166.867973 
L 101.950916 166.862417 
L 102.154764 166.93024 
L 102.284485 167.068872 
L 102.858963 167.437825 
L 103.007216 167.672749 
L 103.303721 167.870385 
L 103.451973 168.106339 
L 104.285894 168.573832 
L 105.30513 169.225812 
L 105.434851 169.386626 
L 106.60234 169.972123 
L 106.732061 169.994481 
L 107.047098 170.074043 
L 107.176819 170.080863 
L 107.491855 170.163499 
L 107.621576 170.171578 
L 107.89955 170.220074 
L 108.529623 170.328949 
L 108.789065 170.370709 
L 109.419138 170.491855 
L 109.67858 170.538692 
L 110.753411 170.699798 
L 110.920195 170.692472 
L 111.142574 170.708822 
L 111.364953 170.742671 
L 111.587332 170.761244 
L 111.809711 170.797278 
L 112.03209 170.818083 
L 112.254468 170.856298 
L 112.476847 170.879324 
L 112.699226 170.919723 
L 112.921605 170.944981 
L 113.273705 171.090066 
L 113.366362 171.084589 
L 113.384894 171.116971 
L 113.736994 171.550372 
L 113.829652 171.666869 
L 114.181751 172.064979 
L 114.274409 172.20179 
L 114.626509 172.602663 
L 114.719167 172.740171 
L 115.071267 173.143713 
L 115.163925 173.281904 
L 115.516024 173.687532 
L 115.608682 173.826125 
L 115.960782 174.233349 
L 116.05344 174.369178 
L 116.387008 174.742065 
L 116.479666 174.799861 
L 116.831766 175.204441 
L 116.924424 175.262266 
L 117.23946 175.609607 
L 117.813939 176.171173 
L 118.128976 176.518504 
L 118.703454 177.080296 
L 119.018491 177.427753 
L 122.187389 179.683759 
L 122.261515 179.755974 
L 122.595084 179.991506 
L 122.743336 180.049554 
L 122.984246 180.198023 
L 123.354878 180.381837 
L 123.577257 180.455583 
L 123.818167 180.616062 
L 124.022014 180.691663 
L 124.262925 180.851803 
L 124.466772 180.927353 
L 124.707682 181.087345 
L 124.91153 181.162828 
L 125.15244 181.322584 
L 125.356287 181.397753 
L 125.726919 181.715426 
L 125.801045 181.717698 
L 125.838108 181.768821 
L 126.116081 182.009343 
L 126.616434 182.31705 
L 126.709092 182.378607 
L 126.93147 182.552586 
L 127.135318 182.665563 
L 127.487418 183.00351 
L 127.617139 183.113386 
L 127.913644 183.379281 
L 128.136022 183.62312 
L 128.358401 183.765042 
L 128.673438 184.059947 
L 129.711206 184.853439 
L 129.822395 184.921415 
L 130.044774 185.114788 
L 130.248621 185.244497 
L 130.526595 185.485758 
L 131.06401 185.909232 
L 131.156668 185.97867 
L 131.379047 186.17157 
L 131.582894 186.300859 
L 131.805273 186.473025 
L 132.12031 186.60756 
L 132.305625 186.66247 
L 132.824509 186.856339 
L 132.95423 186.909394 
L 133.158077 186.988673 
L 133.361925 187.037241 
L 133.602835 187.16497 
L 133.806682 187.213284 
L 134.047593 187.340591 
L 134.25144 187.388541 
L 134.49235 187.515537 
L 134.696198 187.563219 
L 134.974171 187.733317 
L 135.530118 187.948625 
L 135.622776 187.996107 
L 135.826623 188.077332 
L 136.030471 188.127971 
L 136.271381 188.258044 
L 136.475228 188.308267 
L 136.716139 188.437859 
L 136.919986 188.487799 
L 137.160896 188.617068 
L 137.364743 188.666664 
L 137.605654 188.795532 
L 137.809501 188.844923 
L 138.050411 188.988209 
L 138.27279 189.013706 
L 138.550764 189.139107 
L 138.921395 189.252195 
L 139.143774 189.275043 
L 139.384684 189.380971 
L 139.588532 189.411012 
L 139.829442 189.516492 
L 140.033289 189.546258 
L 140.2742 189.651348 
L 140.478047 189.680695 
L 140.718957 189.807835 
L 140.922805 189.857426 
L 141.182247 190.005433 
L 141.478752 190.156046 
L 141.719662 190.214499 
L 141.886446 190.290424 
L 142.05323 190.317103 
L 142.257077 190.358969 
L 142.497988 190.477426 
L 142.701835 190.518951 
L 142.942746 190.636999 
L 143.146593 190.678158 
L 143.387503 190.795774 
L 143.59135 190.836553 
L 143.832261 190.953726 
L 144.036108 190.994119 
L 144.29555 191.131435 
L 144.592055 191.273159 
L 144.832965 191.322146 
L 144.99975 191.393714 
L 145.148002 191.422199 
L 145.370381 191.449492 
L 145.611291 191.559165 
L 145.815139 191.593739 
L 146.056049 191.702923 
L 146.259896 191.737073 
L 146.500807 191.845766 
L 146.704654 191.879489 
L 146.945564 191.987687 
L 147.149412 192.020984 
L 147.501511 192.262848 
L 147.649764 192.32309 
L 147.890674 192.460425 
L 148.261306 192.638853 
L 148.483684 192.705203 
L 148.724595 192.857697 
L 148.928442 192.926995 
L 149.169352 193.079086 
L 149.3732 193.148034 
L 149.61411 193.299718 
L 149.817957 193.368316 
L 150.058868 193.519595 
L 150.262715 193.587843 
L 150.596283 193.849247 
L 151.671114 194.468323 
L 151.837898 194.52842 
L 152.041746 194.611629 
L 152.282656 194.779783 
L 152.486503 194.862667 
L 152.727414 195.030451 
L 152.931261 195.11302 
L 153.172171 195.280427 
L 153.376018 195.36265 
L 153.728118 195.668303 
L 153.876371 195.74652 
L 154.135813 195.945774 
L 154.654697 196.250215 
L 154.728823 196.32564 
L 154.951202 196.507414 
L 155.155049 196.625944 
L 155.414491 196.838123 
L 156.989674 198.182509 
L 157.286179 198.527026 
L 157.434432 198.659885 
L 157.693874 198.925352 
L 158.194226 199.438745 
L 158.286884 199.532383 
L 158.564858 199.837171 
L 158.954021 200.253476 
L 159.176399 200.472689 
L 159.454373 200.777121 
L 159.880599 201.248275 
L 160.455078 201.774965 
L 160.60333 202.010886 
L 160.844241 202.195729 
L 160.973961 202.322079 
L 161.270467 202.627176 
L 161.492845 202.899226 
L 161.733756 203.083689 
L 161.863477 203.209843 
L 162.159982 203.514531 
L 162.382361 203.786261 
L 162.623271 203.970356 
L 162.752992 204.093391 
L 163.068029 204.478818 
L 163.216281 204.612611 
L 163.531318 204.968418 
L 163.623976 205.028634 
L 163.920481 205.368114 
L 164.420833 205.890242 
L 164.513491 205.985252 
L 164.809996 206.324414 
L 165.310348 206.845982 
L 165.403006 206.940885 
L 165.699511 207.2797 
L 166.62609 208.359087 
L 166.774342 208.485057 
L 167.033784 208.737738 
L 167.534137 209.225507 
L 167.626795 209.31363 
L 167.9233 209.631955 
L 168.442184 210.129656 
L 168.51631 210.225004 
L 168.812815 210.555002 
L 169.757925 211.645293 
L 169.850583 211.713035 
L 170.165619 212.095416 
L 170.740098 212.719711 
L 171.055135 213.101414 
L 171.629613 213.724441 
L 171.94465 214.105384 
L 172.259687 214.509374 
L 173.315986 215.779177 
L 173.408644 215.887433 
L 173.742212 216.317619 
L 173.890465 216.50527 
L 174.18697 216.864015 
L 174.335222 217.051533 
L 174.631727 217.410014 
L 174.77998 217.597399 
L 175.076485 217.95561 
L 175.224738 218.141101 
L 175.558306 218.533646 
L 175.650964 218.648665 
L 175.984532 219.082714 
L 176.07719 219.157544 
L 176.410758 219.577774 
L 176.540479 219.727209 
L 176.874047 220.118244 
L 176.966705 220.223553 
L 177.300273 220.643123 
L 177.429994 220.792298 
L 177.763562 221.182676 
L 177.85622 221.287797 
L 178.189788 221.706717 
L 178.338041 221.88521 
L 178.653078 222.230875 
L 178.745736 222.289217 
L 179.097835 222.700349 
L 179.190493 222.758579 
L 179.486998 223.087268 
L 179.987351 223.591462 
L 180.080008 223.682462 
L 180.747145 224.705324 
L 181.377218 225.722459 
L 182.007292 226.862313 
L 183.28597 229.056441 
L 184.397864 230.921344 
L 184.990874 231.947956 
L 185.583884 233.012189 
L 186.343679 234.325156 
L 186.881094 235.297422 
L 187.177599 235.752926 
L 187.789141 236.834611 
L 196.869609 250.414943 
L 197.166114 250.866763 
L 200.446202 255.776147 
L 200.575923 255.959143 
L 201.13187 256.802276 
L 201.465438 257.274489 
L 201.799007 257.738431 
L 201.910196 257.927594 
L 202.243764 258.391196 
L 202.354954 258.580241 
L 202.688522 259.043472 
L 202.799711 259.232398 
L 203.133279 259.695194 
L 203.244469 259.888638 
L 203.800416 260.812207 
L 205.023499 262.766301 
L 205.357068 263.275152 
L 205.468257 263.48304 
L 205.801825 263.991679 
L 205.913015 264.199498 
L 206.246583 264.707906 
L 206.376304 264.947612 
L 206.969314 265.87977 
L 207.74764 267.169221 
L 208.396245 268.135679 
L 208.711281 268.467741 
L 209.063381 268.66629 
L 209.341355 268.779599 
L 209.452544 268.839828 
L 209.786112 269.054017 
L 209.915833 269.122171 
L 210.23087 269.314408 
L 210.34206 269.366404 
L 210.675628 269.552595 
L 210.786817 269.62286 
L 211.120385 269.808693 
L 211.231575 269.878835 
L 211.565143 270.064319 
L 211.676332 270.134339 
L 212.009901 270.319453 
L 212.12109 270.38935 
L 212.454658 270.57407 
L 212.584379 270.652216 
L 212.899416 270.79495 
L 213.029137 270.839914 
L 213.344174 270.982169 
L 213.473895 271.029252 
L 213.714805 271.117619 
L 214.196626 271.320214 
L 214.845231 271.600183 
L 215.123204 271.681021 
L 215.252925 271.744642 
L 215.493836 271.834838 
L 216.902235 272.686391 
L 217.013424 272.762058 
L 217.346992 272.968401 
L 217.458182 273.045634 
L 217.79175 273.251705 
L 217.921471 273.349347 
L 218.199444 273.52364 
L 218.773923 273.863668 
L 219.144554 274.129553 
L 219.274275 274.241849 
L 219.589312 274.44344 
L 219.719033 274.558938 
L 220.015538 274.744708 
L 220.145259 274.850493 
L 220.460296 275.075826 
L 220.590017 275.181424 
L 220.905053 275.406291 
L 221.034774 275.511601 
L 221.312748 275.696941 
L 221.942821 276.111129 
L 222.239326 276.299449 
L 222.702616 276.045493 
L 222.943526 275.876433 
L 224.926404 274.255609 
L 225.222909 274.027367 
L 225.927108 273.445379 
L 226.260677 273.158021 
L 226.594245 272.868392 
L 227.576418 272.007498 
L 227.891455 271.730489 
L 228.577123 271.120315 
L 228.910691 270.860096 
L 229.151601 270.667258 
L 231.2642 268.842201 
L 231.542174 268.599834 
L 231.931337 268.378353 
L 233.339736 267.755712 
L 233.74743 267.579316 
L 234.711072 267.136818 
L 236.156534 265.819099 
L 236.712481 264.555345 
L 237.52787 262.676093 
L 238.213538 261.063963 
L 249.369542 233.940899 
L 250.073742 231.953981 
L 259.673094 202.531083 
L 260.117852 201.102009 
L 261.303872 197.406851 
L 263.008777 192.776837 
L 275.628775 166.506896 
L 275.851154 166.213661 
L 277.074237 165.114326 
L 278.05641 164.204671 
L 278.575294 163.703381 
L 278.593826 163.798553 
L 278.686483 163.704971 
L 285.413443 156.473444 
L 285.765543 156.047291 
L 286.729184 154.874437 
L 287.025689 154.530499 
L 288.397025 152.931763 
L 289.768361 151.51764 
L 290.157524 151.381918 
L 290.34284 151.323266 
L 290.546687 151.282198 
L 290.861724 151.07143 
L 291.028508 150.993782 
L 291.565923 150.630643 
L 292.047744 150.277119 
L 292.214528 150.194476 
L 292.325718 150.119644 
L 292.640754 149.889789 
L 292.770475 149.820578 
L 293.085512 149.590507 
L 293.215233 149.521187 
L 293.53027 149.290878 
L 293.659991 149.22147 
L 294.01209 148.964969 
L 294.141811 148.828478 
L 294.827479 148.057899 
L 294.975732 147.972286 
L 295.272237 147.584369 
L 295.42049 147.498583 
L 295.716995 147.110362 
L 295.865247 147.024403 
L 296.161752 146.635858 
L 296.310005 146.549724 
L 296.60651 146.160866 
L 296.754763 146.074557 
L 297.051268 145.685389 
L 297.273647 145.506853 
L 297.588683 145.203526 
L 297.829594 144.928092 
L 298.200225 144.500824 
L 298.719109 143.966976 
L 298.904425 143.820264 
L 299.015614 143.677963 
L 299.330651 143.354619 
L 299.44184 143.2387 
L 299.775408 142.884527 
L 299.886598 142.768485 
L 300.238697 142.395359 
L 300.38695 142.218124 
L 300.701987 141.885658 
L 300.942897 141.581912 
L 301.350592 141.094166 
L 301.832412 140.537565 
L 302.017728 140.374633 
L 302.128917 140.223572 
L 302.443954 139.868294 
L 302.573675 139.711119 
L 302.87018 139.366182 
L 302.999901 139.26651 
L 303.333469 138.940129 
L 303.481722 138.807148 
L 304.000606 138.288388 
L 304.389769 137.895341 
L 304.649211 137.655767 
L 304.778932 137.551389 
L 305.1125 137.219056 
L 305.223689 137.114232 
L 305.557258 136.781362 
L 305.668447 136.67636 
L 306.002015 136.342953 
L 306.113205 136.237774 
L 306.446773 135.896099 
L 306.595025 135.757287 
L 307.113909 135.221028 
L 307.503072 134.816798 
L 307.762514 134.568756 
L 307.892235 134.460495 
L 308.225803 134.116671 
L 308.336993 134.008626 
L 309.041192 133.035227 
L 309.207977 132.912226 
L 309.504482 132.453845 
L 309.671266 132.334815 
L 314.952763 126.677886 
L 315.175142 126.387194 
L 315.378989 126.223453 
L 315.471647 126.09598 
L 315.731089 125.769586 
L 315.897873 125.688313 
L 316.249972 125.354042 
L 316.361162 125.252477 
L 316.546478 125.038565 
L 316.69473 124.948911 
L 316.787388 124.876112 
L 317.491588 124.27835 
L 317.676903 124.192811 
L 318.381103 123.592159 
L 318.547887 123.550818 
L 318.844392 123.249296 
L 319.048239 123.226411 
L 319.363276 123.069572 
L 319.492997 123.021559 
L 320.679017 122.576468 
L 320.808738 122.529679 
L 321.105243 122.433567 
L 321.234964 122.414094 
L 321.512938 122.282222 
L 321.698254 122.265833 
L 321.976227 122.156254 
L 322.161543 122.137462 
L 322.902806 121.866587 
L 323.032526 121.812834 
L 323.291968 121.683828 
L 323.477284 121.654796 
L 323.755258 121.533914 
L 323.922042 121.494774 
L 324.200015 121.36751 
L 324.366799 121.333831 
L 324.644773 121.208201 
L 324.811557 121.17229 
L 325.089531 121.043379 
L 325.274846 121.042357 
L 325.79373 120.888606 
L 326.294083 120.720232 
L 326.460867 120.695144 
L 326.590588 120.651257 
L 326.868561 120.544825 
L 327.035345 120.519235 
L 327.33185 120.42724 
L 327.461571 120.408525 
L 327.739545 120.281245 
L 327.924861 120.263939 
L 328.184302 120.147454 
L 328.406681 120.152763 
L 328.703186 120.080863 
L 328.851439 120.050776 
L 329.129412 119.976418 
L 329.259133 119.934629 
L 329.537107 119.844542 
L 329.703891 119.828051 
L 330.000396 119.749391 
L 330.148649 119.718546 
L 330.445154 119.643424 
L 330.593406 119.630814 
L 330.87138 119.567913 
L 331.038164 119.567313 
L 331.316138 119.504439 
L 331.519985 119.540523 
L 331.797958 119.517858 
L 332.020337 119.51601 
L 332.335374 119.517988 
L 332.576284 119.41232 
L 333.00251 119.404693 
L 333.1137 119.441394 
L 333.261952 119.44275 
L 333.539926 119.407198 
L 333.743773 119.394233 
L 333.984683 119.379097 
L 334.169999 119.382107 
L 334.410909 119.342033 
L 334.670351 119.399234 
L 336.115814 119.422232 
L 336.227003 119.466723 
L 336.393787 119.471018 
L 336.634698 119.455288 
L 336.838545 119.487127 
L 337.097987 119.492121 
L 337.338897 119.490858 
L 337.83925 119.55797 
L 338.265476 119.568725 
L 338.636107 119.539331 
L 338.858486 119.523718 
L 339.043802 119.563411 
L 339.284712 119.517844 
L 339.507091 119.558688 
L 339.748001 119.538502 
L 339.951848 119.562733 
L 340.192759 119.542732 
L 340.396606 119.56301 
L 340.656048 119.549344 
L 340.859895 119.571001 
L 341.137869 119.516441 
L 341.304653 119.513216 
L 341.582626 119.46464 
L 341.712347 119.435448 
L 342.008852 119.386102 
L 342.157105 119.370122 
L 342.435079 119.309065 
L 342.601863 119.307888 
L 342.879836 119.246163 
L 343.065152 119.228493 
L 343.306062 119.161046 
L 343.491378 119.172675 
L 343.769351 119.115062 
L 344.084388 119.216317 
L 344.232641 119.217934 
L 344.455019 119.275316 
L 344.862714 119.322776 
L 345.066561 119.330233 
L 345.307472 119.400019 
L 345.511319 119.407279 
L 345.752229 119.476834 
L 345.956077 119.483887 
L 346.196987 119.551177 
L 346.419366 119.57528 
L 346.623213 119.634654 
L 346.864123 119.652596 
L 347.160628 119.777482 
L 350.310995 120.415541 
L 350.477779 120.386896 
L 350.644563 120.387993 
L 350.904005 120.337883 
L 351.052258 120.332792 
L 351.3117 120.267106 
L 351.515547 120.274412 
L 351.756457 120.221222 
L 351.960305 120.226409 
L 352.219747 120.190664 
L 352.423594 120.164712 
L 352.664504 120.140256 
L 352.831288 120.147178 
L 353.09073 120.080166 
L 353.350172 120.132068 
L 353.757867 120.158534 
L 354.03584 120.161992 
L 354.184093 120.146736 
L 354.406472 120.109097 
L 354.684445 120.221499 
L 355.09214 120.240048 
L 355.314519 120.229543 
L 355.499834 120.271244 
L 355.777808 120.25818 
L 355.963123 120.272655 
L 356.204034 120.249076 
L 356.426413 120.298808 
L 356.704386 120.287301 
L 356.87117 120.294706 
L 357.130612 120.26821 
L 357.278865 120.270667 
L 357.556838 120.24516 
L 357.760686 120.251726 
L 358.001596 120.26141 
L 358.186912 120.283731 
L 358.40929 120.24922 
L 358.613138 120.312758 
L 358.854048 120.269944 
L 359.094958 120.310949 
L 359.298806 120.286754 
L 359.558248 120.380297 
L 360.243916 120.455546 
L 360.4107 120.472642 
L 360.633079 120.454203 
L 360.855457 120.525249 
L 361.096368 120.52699 
L 361.300215 120.574005 
L 361.541125 120.576982 
L 361.670846 120.676048 
L 361.726441 120.623793 
L 361.985883 120.569272 
L 362.171199 120.593711 
L 362.430641 120.539001 
L 362.690083 120.567464 
L 363.227498 120.538591 
L 363.320156 120.49747 
L 363.357219 120.524242 
L 363.505472 120.521538 
L 363.764914 120.466262 
L 363.950229 120.490201 
L 364.209671 120.434755 
L 364.394987 120.458566 
L 364.654429 120.402923 
L 364.839745 120.426604 
L 365.099187 120.370773 
L 365.284502 120.394312 
L 365.543944 120.338245 
L 365.858981 120.438226 
L 367.86039 120.720625 
L 367.990111 120.684163 
L 368.21249 120.70039 
L 368.416337 120.748879 
L 368.657248 120.757171 
L 368.935221 120.818121 
L 369.305853 120.853805 
L 369.657952 120.897234 
L 369.917394 120.810021 
L 370.028584 120.859277 
L 370.195368 120.862773 
L 370.436278 120.847675 
L 370.640126 120.880213 
L 370.881036 120.864945 
L 371.066352 120.892034 
L 371.325794 120.84692 
L 371.511109 120.873863 
L 371.789083 120.840793 
L 372.011462 120.881404 
L 372.734193 120.926338 
L 372.863914 120.898837 
L 373.104824 120.882392 
L 373.308671 120.910675 
L 373.549582 120.894128 
L 373.753429 120.922286 
L 373.994339 120.905585 
L 374.198187 120.933607 
L 374.439097 120.91674 
L 374.642944 120.944622 
L 374.883855 120.927571 
L 375.124765 120.927614 
L 375.828965 120.801582 
L 375.958686 120.766306 
L 376.236659 120.688088 
L 376.421975 120.660465 
L 376.662885 120.583681 
L 376.848201 120.58305 
L 377.126174 120.504318 
L 377.31149 120.476344 
L 377.5524 120.399097 
L 377.737716 120.39808 
L 378.01569 120.31804 
L 378.238069 120.353977 
L 378.794016 120.364833 
L 378.923737 120.479454 
L 379.090521 120.476895 
L 379.331431 120.455001 
L 379.535278 120.479184 
L 379.776189 120.45712 
L 379.980036 120.481187 
L 380.220946 120.458986 
L 380.424794 120.493743 
L 380.665704 120.542051 
L 380.888083 120.620767 
L 381.110462 120.673414 
L 381.388435 120.831123 
L 381.777598 120.99428 
L 382.03704 121.073985 
L 382.222356 121.129503 
L 382.444735 121.201938 
L 382.667113 121.2961 
L 382.889492 121.368425 
L 383.111871 121.462464 
L 383.33425 121.534662 
L 383.556629 121.62856 
L 383.779007 121.700595 
L 384.001386 121.794364 
L 384.223765 121.866291 
L 384.594396 122.32935 
L 384.668523 122.710039 
L 384.668523 122.710039 
" clip-path="url(#pbc7f70fd32)" style="fill: none; stroke: #1f77b4; stroke-width: 1.5; stroke-linecap: square"/>
   </g>
   <g id="line2d_16">
    <path clip-path="url(#pbc7f70fd32)" style="fill: none; stroke: #000000; stroke-width: 1.5; stroke-linecap: square"/>
   </g>
   <g id="line2d_17">
    <path d="M 43.78125 34.414125 
L 400.90125 34.414125 
" clip-path="url(#pbc7f70fd32)" style="fill: none; stroke: #ff0000; stroke-width: 1.5; stroke-linecap: square"/>
   </g>
   <g id="line2d_18">
    <path d="M 43.78125 64.652452 
L 400.90125 64.652452 
" clip-path="url(#pbc7f70fd32)" style="fill: none; stroke-dasharray: 5.55,2.4; stroke-dashoffset: 0; stroke: #ff00ff; stroke-width: 1.5"/>
   </g>
   <g id="patch_3">
    <path d="M 43.78125 288.430125 
L 43.78125 22.318125 
" style="fill: none; stroke: #000000; stroke-width: 0.8; stroke-linejoin: miter; stroke-linecap: square"/>
   </g>
   <g id="patch_4">
    <path d="M 400.90125 288.430125 
L 400.90125 22.318125 
" style="fill: none; stroke: #000000; stroke-width: 0.8; stroke-linejoin: miter; stroke-linecap: square"/>
   </g>
   <g id="patch_5">
    <path d="M 43.78125 288.430125 
L 400.90125 288.430125 
" style="fill: none; stroke: #000000; stroke-width: 0.8; stroke-linejoin: miter; stroke-linecap: square"/>
   </g>
   <g id="patch_6">
    <path d="M 43.78125 22.318125 
L 400.90125 22.318125 
" style="fill: none; stroke: #000000; stroke-width: 0.8; stroke-linejoin: miter; stroke-linecap: square"/>
   </g>
   <g id="text_18">
    <!-- loc_techs_store = Moz-North-Center::storageD -->
    <g transform="translate(82.765313 16.318125)scale(0.12 -0.12)">
     <defs>
      <path id="DejaVuSans-6c" d="M 603 4863 
L 1178 4863 
L 1178 0 
L 603 0 
L 603 4863 
z
" transform="scale(0.015625)"/>
      <path id="DejaVuSans-63" d="M 3122 3366 
L 3122 2828 
Q 2878 2963 2633 3030 
Q 2388 3097 2138 3097 
Q 1578 3097 1268 2742 
Q 959 2388 959 1747 
Q 959 1106 1268 751 
Q 1578 397 2138 397 
Q 2388 397 2633 464 
Q 2878 531 3122 666 
L 3122 134 
Q 2881 22 2623 -34 
Q 2366 -91 2075 -91 
Q 1284 -91 818 406 
Q 353 903 353 1747 
Q 353 2603 823 3093 
Q 1294 3584 2113 3584 
Q 2378 3584 2631 3529 
Q 2884 3475 3122 3366 
z
" transform="scale(0.015625)"/>
      <path id="DejaVuSans-5f" d="M 3263 -1063 
L 3263 -1509 
L -63 -1509 
L -63 -1063 
L 3263 -1063 
z
" transform="scale(0.015625)"/>
      <path id="DejaVuSans-68" d="M 3513 2113 
L 3513 0 
L 2938 0 
L 2938 2094 
Q 2938 2591 2744 2837 
Q 2550 3084 2163 3084 
Q 1697 3084 1428 2787 
Q 1159 2491 1159 1978 
L 1159 0 
L 581 0 
L 581 4863 
L 1159 4863 
L 1159 2956 
Q 1366 3272 1645 3428 
Q 1925 3584 2291 3584 
Q 2894 3584 3203 3211 
Q 3513 2838 3513 2113 
z
" transform="scale(0.015625)"/>
      <path id="DejaVuSans-20" transform="scale(0.015625)"/>
      <path id="DejaVuSans-3d" d="M 678 2906 
L 4684 2906 
L 4684 2381 
L 678 2381 
L 678 2906 
z
M 678 1631 
L 4684 1631 
L 4684 1100 
L 678 1100 
L 678 1631 
z
" transform="scale(0.015625)"/>
      <path id="DejaVuSans-4d" d="M 628 4666 
L 1569 4666 
L 2759 1491 
L 3956 4666 
L 4897 4666 
L 4897 0 
L 4281 0 
L 4281 4097 
L 3078 897 
L 2444 897 
L 1241 4097 
L 1241 0 
L 628 0 
L 628 4666 
z
" transform="scale(0.015625)"/>
      <path id="DejaVuSans-7a" d="M 353 3500 
L 3084 3500 
L 3084 2975 
L 922 459 
L 3084 459 
L 3084 0 
L 275 0 
L 275 525 
L 2438 3041 
L 353 3041 
L 353 3500 
z
" transform="scale(0.015625)"/>
      <path id="DejaVuSans-4e" d="M 628 4666 
L 1478 4666 
L 3547 763 
L 3547 4666 
L 4159 4666 
L 4159 0 
L 3309 0 
L 1241 3903 
L 1241 0 
L 628 0 
L 628 4666 
z
" transform="scale(0.015625)"/>
      <path id="DejaVuSans-43" d="M 4122 4306 
L 4122 3641 
Q 3803 3938 3442 4084 
Q 3081 4231 2675 4231 
Q 1875 4231 1450 3742 
Q 1025 3253 1025 2328 
Q 1025 1406 1450 917 
Q 1875 428 2675 428 
Q 3081 428 3442 575 
Q 3803 722 4122 1019 
L 4122 359 
Q 3791 134 3420 21 
Q 3050 -91 2638 -91 
Q 1578 -91 968 557 
Q 359 1206 359 2328 
Q 359 3453 968 4101 
Q 1578 4750 2638 4750 
Q 3056 4750 3426 4639 
Q 3797 4528 4122 4306 
z
" transform="scale(0.015625)"/>
      <path id="DejaVuSans-6e" d="M 3513 2113 
L 3513 0 
L 2938 0 
L 2938 2094 
Q 2938 2591 2744 2837 
Q 2550 3084 2163 3084 
Q 1697 3084 1428 2787 
Q 1159 2491 1159 1978 
L 1159 0 
L 581 0 
L 581 3500 
L 1159 3500 
L 1159 2956 
Q 1366 3272 1645 3428 
Q 1925 3584 2291 3584 
Q 2894 3584 3203 3211 
Q 3513 2838 3513 2113 
z
" transform="scale(0.015625)"/>
      <path id="DejaVuSans-3a" d="M 750 794 
L 1409 794 
L 1409 0 
L 750 0 
L 750 794 
z
M 750 3309 
L 1409 3309 
L 1409 2516 
L 750 2516 
L 750 3309 
z
" transform="scale(0.015625)"/>
      <path id="DejaVuSans-44" d="M 1259 4147 
L 1259 519 
L 2022 519 
Q 2988 519 3436 956 
Q 3884 1394 3884 2338 
Q 3884 3275 3436 3711 
Q 2988 4147 2022 4147 
L 1259 4147 
z
M 628 4666 
L 1925 4666 
Q 3281 4666 3915 4102 
Q 4550 3538 4550 2338 
Q 4550 1131 3912 565 
Q 3275 0 1925 0 
L 628 0 
L 628 4666 
z
" transform="scale(0.015625)"/>
     </defs>
     <use xlink:href="#DejaVuSans-6c"/>
     <use xlink:href="#DejaVuSans-6f" x="27.783203"/>
     <use xlink:href="#DejaVuSans-63" x="88.964844"/>
     <use xlink:href="#DejaVuSans-5f" x="143.945312"/>
     <use xlink:href="#DejaVuSans-74" x="193.945312"/>
     <use xlink:href="#DejaVuSans-65" x="233.154297"/>
     <use xlink:href="#DejaVuSans-63" x="294.677734"/>
     <use xlink:href="#DejaVuSans-68" x="349.658203"/>
     <use xlink:href="#DejaVuSans-73" x="413.037109"/>
     <use xlink:href="#DejaVuSans-5f" x="465.136719"/>
     <use xlink:href="#DejaVuSans-73" x="515.136719"/>
     <use xlink:href="#DejaVuSans-74" x="567.236328"/>
     <use xlink:href="#DejaVuSans-6f" x="606.445312"/>
     <use xlink:href="#DejaVuSans-72" x="667.626953"/>
     <use xlink:href="#DejaVuSans-65" x="706.490234"/>
     <use xlink:href="#DejaVuSans-20" x="768.013672"/>
     <use xlink:href="#DejaVuSans-3d" x="799.800781"/>
     <use xlink:href="#DejaVuSans-20" x="883.589844"/>
     <use xlink:href="#DejaVuSans-4d" x="915.376953"/>
     <use xlink:href="#DejaVuSans-6f" x="1001.65625"/>
     <use xlink:href="#DejaVuSans-7a" x="1062.837891"/>
     <use xlink:href="#DejaVuSans-2d" x="1115.328125"/>
     <use xlink:href="#DejaVuSans-4e" x="1151.412109"/>
     <use xlink:href="#DejaVuSans-6f" x="1226.216797"/>
     <use xlink:href="#DejaVuSans-72" x="1287.398438"/>
     <use xlink:href="#DejaVuSans-74" x="1328.511719"/>
     <use xlink:href="#DejaVuSans-68" x="1367.720703"/>
     <use xlink:href="#DejaVuSans-2d" x="1431.099609"/>
     <use xlink:href="#DejaVuSans-43" x="1467.183594"/>
     <use xlink:href="#DejaVuSans-65" x="1537.007812"/>
     <use xlink:href="#DejaVuSans-6e" x="1598.53125"/>
     <use xlink:href="#DejaVuSans-74" x="1661.910156"/>
     <use xlink:href="#DejaVuSans-65" x="1701.119141"/>
     <use xlink:href="#DejaVuSans-72" x="1762.642578"/>
     <use xlink:href="#DejaVuSans-3a" x="1802.005859"/>
     <use xlink:href="#DejaVuSans-3a" x="1835.697266"/>
     <use xlink:href="#DejaVuSans-73" x="1869.388672"/>
     <use xlink:href="#DejaVuSans-74" x="1921.488281"/>
     <use xlink:href="#DejaVuSans-6f" x="1960.697266"/>
     <use xlink:href="#DejaVuSans-72" x="2021.878906"/>
     <use xlink:href="#DejaVuSans-61" x="2062.992188"/>
     <use xlink:href="#DejaVuSans-67" x="2124.271484"/>
     <use xlink:href="#DejaVuSans-65" x="2187.748047"/>
     <use xlink:href="#DejaVuSans-44" x="2249.271484"/>
    </g>
   </g>
   <g id="legend_1">
    <g id="patch_7">
     <path d="M 422.18605 89.865 
L 548.12355 89.865 
Q 550.12355 89.865 550.12355 87.865 
L 550.12355 29.318125 
Q 550.12355 27.318125 548.12355 27.318125 
L 422.18605 27.318125 
Q 420.18605 27.318125 420.18605 29.318125 
L 420.18605 87.865 
Q 420.18605 89.865 422.18605 89.865 
z
" style="fill: #ffffff; opacity: 0.8; stroke: #cccccc; stroke-linejoin: miter"/>
    </g>
    <g id="line2d_19">
     <path d="M 424.18605 35.416562 
L 434.18605 35.416562 
L 444.18605 35.416562 
" style="fill: none; stroke: #1f77b4; stroke-width: 1.5; stroke-linecap: square"/>
    </g>
    <g id="text_19">
     <!-- Storage -->
     <g transform="translate(452.18605 38.916562)scale(0.1 -0.1)">
      <defs>
       <path id="DejaVuSans-53" d="M 3425 4513 
L 3425 3897 
Q 3066 4069 2747 4153 
Q 2428 4238 2131 4238 
Q 1616 4238 1336 4038 
Q 1056 3838 1056 3469 
Q 1056 3159 1242 3001 
Q 1428 2844 1947 2747 
L 2328 2669 
Q 3034 2534 3370 2195 
Q 3706 1856 3706 1288 
Q 3706 609 3251 259 
Q 2797 -91 1919 -91 
Q 1588 -91 1214 -16 
Q 841 59 441 206 
L 441 856 
Q 825 641 1194 531 
Q 1563 422 1919 422 
Q 2459 422 2753 634 
Q 3047 847 3047 1241 
Q 3047 1584 2836 1778 
Q 2625 1972 2144 2069 
L 1759 2144 
Q 1053 2284 737 2584 
Q 422 2884 422 3419 
Q 422 4038 858 4394 
Q 1294 4750 2059 4750 
Q 2388 4750 2728 4690 
Q 3069 4631 3425 4513 
z
" transform="scale(0.015625)"/>
      </defs>
      <use xlink:href="#DejaVuSans-53"/>
      <use xlink:href="#DejaVuSans-74" x="63.476562"/>
      <use xlink:href="#DejaVuSans-6f" x="102.685547"/>
      <use xlink:href="#DejaVuSans-72" x="163.867188"/>
      <use xlink:href="#DejaVuSans-61" x="204.980469"/>
      <use xlink:href="#DejaVuSans-67" x="266.259766"/>
      <use xlink:href="#DejaVuSans-65" x="329.736328"/>
     </g>
    </g>
    <g id="line2d_20">
     <path d="M 424.18605 50.094687 
L 434.18605 50.094687 
L 444.18605 50.094687 
" style="fill: none; stroke: #000000; stroke-width: 1.5; stroke-linecap: square"/>
    </g>
    <g id="text_20">
     <!-- Storage_cap_max -->
     <g transform="translate(452.18605 53.594687)scale(0.1 -0.1)">
      <defs>
       <path id="DejaVuSans-78" d="M 3513 3500 
L 2247 1797 
L 3578 0 
L 2900 0 
L 1881 1375 
L 863 0 
L 184 0 
L 1544 1831 
L 300 3500 
L 978 3500 
L 1906 2253 
L 2834 3500 
L 3513 3500 
z
" transform="scale(0.015625)"/>
      </defs>
      <use xlink:href="#DejaVuSans-53"/>
      <use xlink:href="#DejaVuSans-74" x="63.476562"/>
      <use xlink:href="#DejaVuSans-6f" x="102.685547"/>
      <use xlink:href="#DejaVuSans-72" x="163.867188"/>
      <use xlink:href="#DejaVuSans-61" x="204.980469"/>
      <use xlink:href="#DejaVuSans-67" x="266.259766"/>
      <use xlink:href="#DejaVuSans-65" x="329.736328"/>
      <use xlink:href="#DejaVuSans-5f" x="391.259766"/>
      <use xlink:href="#DejaVuSans-63" x="441.259766"/>
      <use xlink:href="#DejaVuSans-61" x="496.240234"/>
      <use xlink:href="#DejaVuSans-70" x="557.519531"/>
      <use xlink:href="#DejaVuSans-5f" x="620.996094"/>
      <use xlink:href="#DejaVuSans-6d" x="670.996094"/>
      <use xlink:href="#DejaVuSans-61" x="768.408203"/>
      <use xlink:href="#DejaVuSans-78" x="829.6875"/>
     </g>
    </g>
    <g id="line2d_21">
     <path d="M 424.18605 65.050937 
L 434.18605 65.050937 
L 444.18605 65.050937 
" style="fill: none; stroke: #ff0000; stroke-width: 1.5; stroke-linecap: square"/>
    </g>
    <g id="text_21">
     <!-- Storage_cap -->
     <g transform="translate(452.18605 68.550937)scale(0.1 -0.1)">
      <use xlink:href="#DejaVuSans-53"/>
      <use xlink:href="#DejaVuSans-74" x="63.476562"/>
      <use xlink:href="#DejaVuSans-6f" x="102.685547"/>
      <use xlink:href="#DejaVuSans-72" x="163.867188"/>
      <use xlink:href="#DejaVuSans-61" x="204.980469"/>
      <use xlink:href="#DejaVuSans-67" x="266.259766"/>
      <use xlink:href="#DejaVuSans-65" x="329.736328"/>
      <use xlink:href="#DejaVuSans-5f" x="391.259766"/>
      <use xlink:href="#DejaVuSans-63" x="441.259766"/>
      <use xlink:href="#DejaVuSans-61" x="496.240234"/>
      <use xlink:href="#DejaVuSans-70" x="557.519531"/>
     </g>
    </g>
    <g id="line2d_22">
     <path d="M 424.18605 80.007187 
L 434.18605 80.007187 
L 444.18605 80.007187 
" style="fill: none; stroke-dasharray: 5.55,2.4; stroke-dashoffset: 0; stroke: #ff00ff; stroke-width: 1.5"/>
    </g>
    <g id="text_22">
     <!-- Spillage_Threshold -->
     <g transform="translate(452.18605 83.507187)scale(0.1 -0.1)">
      <defs>
       <path id="DejaVuSans-54" d="M -19 4666 
L 3928 4666 
L 3928 4134 
L 2272 4134 
L 2272 0 
L 1638 0 
L 1638 4134 
L -19 4134 
L -19 4666 
z
" transform="scale(0.015625)"/>
       <path id="DejaVuSans-64" d="M 2906 2969 
L 2906 4863 
L 3481 4863 
L 3481 0 
L 2906 0 
L 2906 525 
Q 2725 213 2448 61 
Q 2172 -91 1784 -91 
Q 1150 -91 751 415 
Q 353 922 353 1747 
Q 353 2572 751 3078 
Q 1150 3584 1784 3584 
Q 2172 3584 2448 3432 
Q 2725 3281 2906 2969 
z
M 947 1747 
Q 947 1113 1208 752 
Q 1469 391 1925 391 
Q 2381 391 2643 752 
Q 2906 1113 2906 1747 
Q 2906 2381 2643 2742 
Q 2381 3103 1925 3103 
Q 1469 3103 1208 2742 
Q 947 2381 947 1747 
z
" transform="scale(0.015625)"/>
      </defs>
      <use xlink:href="#DejaVuSans-53"/>
      <use xlink:href="#DejaVuSans-70" x="63.476562"/>
      <use xlink:href="#DejaVuSans-69" x="126.953125"/>
      <use xlink:href="#DejaVuSans-6c" x="154.736328"/>
      <use xlink:href="#DejaVuSans-6c" x="182.519531"/>
      <use xlink:href="#DejaVuSans-61" x="210.302734"/>
      <use xlink:href="#DejaVuSans-67" x="271.582031"/>
      <use xlink:href="#DejaVuSans-65" x="335.058594"/>
      <use xlink:href="#DejaVuSans-5f" x="396.582031"/>
      <use xlink:href="#DejaVuSans-54" x="446.582031"/>
      <use xlink:href="#DejaVuSans-68" x="507.666016"/>
      <use xlink:href="#DejaVuSans-72" x="571.044922"/>
      <use xlink:href="#DejaVuSans-65" x="609.908203"/>
      <use xlink:href="#DejaVuSans-73" x="671.431641"/>
      <use xlink:href="#DejaVuSans-68" x="723.53125"/>
      <use xlink:href="#DejaVuSans-6f" x="786.910156"/>
      <use xlink:href="#DejaVuSans-6c" x="848.091797"/>
      <use xlink:href="#DejaVuSans-64" x="875.875"/>
     </g>
    </g>
   </g>
  </g>
 </g>
 <defs>
  <clipPath id="pbc7f70fd32">
   <rect x="43.78125" y="22.318125" width="357.12" height="266.112"/>
  </clipPath>
 </defs>
</svg>
