<?xml version="1.0" encoding="utf-8" standalone="no"?>
<!DOCTYPE svg PUBLIC "-//W3C//DTD SVG 1.1//EN"
  "http://www.w3.org/Graphics/SVG/1.1/DTD/svg11.dtd">
<svg xmlns:xlink="http://www.w3.org/1999/xlink" width="561.49855pt" height="345.581158pt" viewBox="0 0 561.49855 345.581158" xmlns="http://www.w3.org/2000/svg" version="1.1">
 <metadata>
  <rdf:RDF xmlns:dc="http://purl.org/dc/elements/1.1/" xmlns:cc="http://creativecommons.org/ns#" xmlns:rdf="http://www.w3.org/1999/02/22-rdf-syntax-ns#">
   <cc:Work>
    <dc:type rdf:resource="http://purl.org/dc/dcmitype/StillImage"/>
    <dc:date>2022-05-09T18:48:04.502047</dc:date>
    <dc:format>image/svg+xml</dc:format>
    <dc:creator>
     <cc:Agent>
      <dc:title>Matplotlib v3.5.1, https://matplotlib.org/</dc:title>
     </cc:Agent>
    </dc:creator>
   </cc:Work>
  </rdf:RDF>
 </metadata>
 <defs>
  <style type="text/css">*{stroke-linejoin: round; stroke-linecap: butt}</style>
 </defs>
 <g id="figure_1">
  <g id="patch_1">
   <path d="M 0 345.581158 
L 561.49855 345.581158 
L 561.49855 0 
L 0 0 
z
" style="fill: #ffffff"/>
  </g>
  <g id="axes_1">
   <g id="patch_2">
    <path d="M 50.14375 288.430125 
L 407.26375 288.430125 
L 407.26375 22.318125 
L 50.14375 22.318125 
z
" style="fill: #ffffff"/>
   </g>
   <g id="matplotlib.axis_1">
    <g id="xtick_1">
     <g id="line2d_1">
      <defs>
       <path id="mf474fc6b1e" d="M 0 0 
L 0 3.5 
" style="stroke: #000000; stroke-width: 0.8"/>
      </defs>
      <g>
       <use xlink:href="#mf474fc6b1e" x="66.376477" y="288.430125" style="stroke: #000000; stroke-width: 0.8"/>
      </g>
     </g>
     <g id="text_1">
      <!-- 2005-01 -->
      <g transform="translate(29.151656 322.901971)rotate(-30)scale(0.1 -0.1)">
       <defs>
        <path id="DejaVuSans-32" d="M 1228 531 
L 3431 531 
L 3431 0 
L 469 0 
L 469 531 
Q 828 903 1448 1529 
Q 2069 2156 2228 2338 
Q 2531 2678 2651 2914 
Q 2772 3150 2772 3378 
Q 2772 3750 2511 3984 
Q 2250 4219 1831 4219 
Q 1534 4219 1204 4116 
Q 875 4013 500 3803 
L 500 4441 
Q 881 4594 1212 4672 
Q 1544 4750 1819 4750 
Q 2544 4750 2975 4387 
Q 3406 4025 3406 3419 
Q 3406 3131 3298 2873 
Q 3191 2616 2906 2266 
Q 2828 2175 2409 1742 
Q 1991 1309 1228 531 
z
" transform="scale(0.015625)"/>
        <path id="DejaVuSans-30" d="M 2034 4250 
Q 1547 4250 1301 3770 
Q 1056 3291 1056 2328 
Q 1056 1369 1301 889 
Q 1547 409 2034 409 
Q 2525 409 2770 889 
Q 3016 1369 3016 2328 
Q 3016 3291 2770 3770 
Q 2525 4250 2034 4250 
z
M 2034 4750 
Q 2819 4750 3233 4129 
Q 3647 3509 3647 2328 
Q 3647 1150 3233 529 
Q 2819 -91 2034 -91 
Q 1250 -91 836 529 
Q 422 1150 422 2328 
Q 422 3509 836 4129 
Q 1250 4750 2034 4750 
z
" transform="scale(0.015625)"/>
        <path id="DejaVuSans-35" d="M 691 4666 
L 3169 4666 
L 3169 4134 
L 1269 4134 
L 1269 2991 
Q 1406 3038 1543 3061 
Q 1681 3084 1819 3084 
Q 2600 3084 3056 2656 
Q 3513 2228 3513 1497 
Q 3513 744 3044 326 
Q 2575 -91 1722 -91 
Q 1428 -91 1123 -41 
Q 819 9 494 109 
L 494 744 
Q 775 591 1075 516 
Q 1375 441 1709 441 
Q 2250 441 2565 725 
Q 2881 1009 2881 1497 
Q 2881 1984 2565 2268 
Q 2250 2553 1709 2553 
Q 1456 2553 1204 2497 
Q 953 2441 691 2322 
L 691 4666 
z
" transform="scale(0.015625)"/>
        <path id="DejaVuSans-2d" d="M 313 2009 
L 1997 2009 
L 1997 1497 
L 313 1497 
L 313 2009 
z
" transform="scale(0.015625)"/>
        <path id="DejaVuSans-31" d="M 794 531 
L 1825 531 
L 1825 4091 
L 703 3866 
L 703 4441 
L 1819 4666 
L 2450 4666 
L 2450 531 
L 3481 531 
L 3481 0 
L 794 0 
L 794 531 
z
" transform="scale(0.015625)"/>
       </defs>
       <use xlink:href="#DejaVuSans-32"/>
       <use xlink:href="#DejaVuSans-30" x="63.623047"/>
       <use xlink:href="#DejaVuSans-30" x="127.246094"/>
       <use xlink:href="#DejaVuSans-35" x="190.869141"/>
       <use xlink:href="#DejaVuSans-2d" x="254.492188"/>
       <use xlink:href="#DejaVuSans-30" x="290.576172"/>
       <use xlink:href="#DejaVuSans-31" x="354.199219"/>
      </g>
     </g>
    </g>
    <g id="xtick_2">
     <g id="line2d_2">
      <g>
       <use xlink:href="#mf474fc6b1e" x="106.404665" y="288.430125" style="stroke: #000000; stroke-width: 0.8"/>
      </g>
     </g>
     <g id="text_2">
      <!-- 2005-04 -->
      <g transform="translate(69.179844 322.901971)rotate(-30)scale(0.1 -0.1)">
       <defs>
        <path id="DejaVuSans-34" d="M 2419 4116 
L 825 1625 
L 2419 1625 
L 2419 4116 
z
M 2253 4666 
L 3047 4666 
L 3047 1625 
L 3713 1625 
L 3713 1100 
L 3047 1100 
L 3047 0 
L 2419 0 
L 2419 1100 
L 313 1100 
L 313 1709 
L 2253 4666 
z
" transform="scale(0.015625)"/>
       </defs>
       <use xlink:href="#DejaVuSans-32"/>
       <use xlink:href="#DejaVuSans-30" x="63.623047"/>
       <use xlink:href="#DejaVuSans-30" x="127.246094"/>
       <use xlink:href="#DejaVuSans-35" x="190.869141"/>
       <use xlink:href="#DejaVuSans-2d" x="254.492188"/>
       <use xlink:href="#DejaVuSans-30" x="290.576172"/>
       <use xlink:href="#DejaVuSans-34" x="354.199219"/>
      </g>
     </g>
    </g>
    <g id="xtick_3">
     <g id="line2d_3">
      <g>
       <use xlink:href="#mf474fc6b1e" x="146.87761" y="288.430125" style="stroke: #000000; stroke-width: 0.8"/>
      </g>
     </g>
     <g id="text_3">
      <!-- 2005-07 -->
      <g transform="translate(109.652789 322.901971)rotate(-30)scale(0.1 -0.1)">
       <defs>
        <path id="DejaVuSans-37" d="M 525 4666 
L 3525 4666 
L 3525 4397 
L 1831 0 
L 1172 0 
L 2766 4134 
L 525 4134 
L 525 4666 
z
" transform="scale(0.015625)"/>
       </defs>
       <use xlink:href="#DejaVuSans-32"/>
       <use xlink:href="#DejaVuSans-30" x="63.623047"/>
       <use xlink:href="#DejaVuSans-30" x="127.246094"/>
       <use xlink:href="#DejaVuSans-35" x="190.869141"/>
       <use xlink:href="#DejaVuSans-2d" x="254.492188"/>
       <use xlink:href="#DejaVuSans-30" x="290.576172"/>
       <use xlink:href="#DejaVuSans-37" x="354.199219"/>
      </g>
     </g>
    </g>
    <g id="xtick_4">
     <g id="line2d_4">
      <g>
       <use xlink:href="#mf474fc6b1e" x="187.795313" y="288.430125" style="stroke: #000000; stroke-width: 0.8"/>
      </g>
     </g>
     <g id="text_4">
      <!-- 2005-10 -->
      <g transform="translate(150.570492 322.901971)rotate(-30)scale(0.1 -0.1)">
       <use xlink:href="#DejaVuSans-32"/>
       <use xlink:href="#DejaVuSans-30" x="63.623047"/>
       <use xlink:href="#DejaVuSans-30" x="127.246094"/>
       <use xlink:href="#DejaVuSans-35" x="190.869141"/>
       <use xlink:href="#DejaVuSans-2d" x="254.492188"/>
       <use xlink:href="#DejaVuSans-31" x="290.576172"/>
       <use xlink:href="#DejaVuSans-30" x="354.199219"/>
      </g>
     </g>
    </g>
    <g id="xtick_5">
     <g id="line2d_5">
      <g>
       <use xlink:href="#mf474fc6b1e" x="228.713016" y="288.430125" style="stroke: #000000; stroke-width: 0.8"/>
      </g>
     </g>
     <g id="text_5">
      <!-- 2006-01 -->
      <g transform="translate(191.488195 322.901971)rotate(-30)scale(0.1 -0.1)">
       <defs>
        <path id="DejaVuSans-36" d="M 2113 2584 
Q 1688 2584 1439 2293 
Q 1191 2003 1191 1497 
Q 1191 994 1439 701 
Q 1688 409 2113 409 
Q 2538 409 2786 701 
Q 3034 994 3034 1497 
Q 3034 2003 2786 2293 
Q 2538 2584 2113 2584 
z
M 3366 4563 
L 3366 3988 
Q 3128 4100 2886 4159 
Q 2644 4219 2406 4219 
Q 1781 4219 1451 3797 
Q 1122 3375 1075 2522 
Q 1259 2794 1537 2939 
Q 1816 3084 2150 3084 
Q 2853 3084 3261 2657 
Q 3669 2231 3669 1497 
Q 3669 778 3244 343 
Q 2819 -91 2113 -91 
Q 1303 -91 875 529 
Q 447 1150 447 2328 
Q 447 3434 972 4092 
Q 1497 4750 2381 4750 
Q 2619 4750 2861 4703 
Q 3103 4656 3366 4563 
z
" transform="scale(0.015625)"/>
       </defs>
       <use xlink:href="#DejaVuSans-32"/>
       <use xlink:href="#DejaVuSans-30" x="63.623047"/>
       <use xlink:href="#DejaVuSans-30" x="127.246094"/>
       <use xlink:href="#DejaVuSans-36" x="190.869141"/>
       <use xlink:href="#DejaVuSans-2d" x="254.492188"/>
       <use xlink:href="#DejaVuSans-30" x="290.576172"/>
       <use xlink:href="#DejaVuSans-31" x="354.199219"/>
      </g>
     </g>
    </g>
    <g id="xtick_6">
     <g id="line2d_6">
      <g>
       <use xlink:href="#mf474fc6b1e" x="268.741203" y="288.430125" style="stroke: #000000; stroke-width: 0.8"/>
      </g>
     </g>
     <g id="text_6">
      <!-- 2006-04 -->
      <g transform="translate(231.516383 322.901971)rotate(-30)scale(0.1 -0.1)">
       <use xlink:href="#DejaVuSans-32"/>
       <use xlink:href="#DejaVuSans-30" x="63.623047"/>
       <use xlink:href="#DejaVuSans-30" x="127.246094"/>
       <use xlink:href="#DejaVuSans-36" x="190.869141"/>
       <use xlink:href="#DejaVuSans-2d" x="254.492188"/>
       <use xlink:href="#DejaVuSans-30" x="290.576172"/>
       <use xlink:href="#DejaVuSans-34" x="354.199219"/>
      </g>
     </g>
    </g>
    <g id="xtick_7">
     <g id="line2d_7">
      <g>
       <use xlink:href="#mf474fc6b1e" x="309.214149" y="288.430125" style="stroke: #000000; stroke-width: 0.8"/>
      </g>
     </g>
     <g id="text_7">
      <!-- 2006-07 -->
      <g transform="translate(271.989328 322.901971)rotate(-30)scale(0.1 -0.1)">
       <use xlink:href="#DejaVuSans-32"/>
       <use xlink:href="#DejaVuSans-30" x="63.623047"/>
       <use xlink:href="#DejaVuSans-30" x="127.246094"/>
       <use xlink:href="#DejaVuSans-36" x="190.869141"/>
       <use xlink:href="#DejaVuSans-2d" x="254.492188"/>
       <use xlink:href="#DejaVuSans-30" x="290.576172"/>
       <use xlink:href="#DejaVuSans-37" x="354.199219"/>
      </g>
     </g>
    </g>
    <g id="xtick_8">
     <g id="line2d_8">
      <g>
       <use xlink:href="#mf474fc6b1e" x="350.131851" y="288.430125" style="stroke: #000000; stroke-width: 0.8"/>
      </g>
     </g>
     <g id="text_8">
      <!-- 2006-10 -->
      <g transform="translate(312.907031 322.901971)rotate(-30)scale(0.1 -0.1)">
       <use xlink:href="#DejaVuSans-32"/>
       <use xlink:href="#DejaVuSans-30" x="63.623047"/>
       <use xlink:href="#DejaVuSans-30" x="127.246094"/>
       <use xlink:href="#DejaVuSans-36" x="190.869141"/>
       <use xlink:href="#DejaVuSans-2d" x="254.492188"/>
       <use xlink:href="#DejaVuSans-31" x="290.576172"/>
       <use xlink:href="#DejaVuSans-30" x="354.199219"/>
      </g>
     </g>
    </g>
    <g id="xtick_9">
     <g id="line2d_9">
      <g>
       <use xlink:href="#mf474fc6b1e" x="391.049554" y="288.430125" style="stroke: #000000; stroke-width: 0.8"/>
      </g>
     </g>
     <g id="text_9">
      <!-- 2007-01 -->
      <g transform="translate(353.824733 322.901971)rotate(-30)scale(0.1 -0.1)">
       <use xlink:href="#DejaVuSans-32"/>
       <use xlink:href="#DejaVuSans-30" x="63.623047"/>
       <use xlink:href="#DejaVuSans-30" x="127.246094"/>
       <use xlink:href="#DejaVuSans-37" x="190.869141"/>
       <use xlink:href="#DejaVuSans-2d" x="254.492188"/>
       <use xlink:href="#DejaVuSans-30" x="290.576172"/>
       <use xlink:href="#DejaVuSans-31" x="354.199219"/>
      </g>
     </g>
    </g>
    <g id="text_10">
     <!-- timesteps -->
     <g transform="translate(203.987344 336.301471)scale(0.1 -0.1)">
      <defs>
       <path id="DejaVuSans-74" d="M 1172 4494 
L 1172 3500 
L 2356 3500 
L 2356 3053 
L 1172 3053 
L 1172 1153 
Q 1172 725 1289 603 
Q 1406 481 1766 481 
L 2356 481 
L 2356 0 
L 1766 0 
Q 1100 0 847 248 
Q 594 497 594 1153 
L 594 3053 
L 172 3053 
L 172 3500 
L 594 3500 
L 594 4494 
L 1172 4494 
z
" transform="scale(0.015625)"/>
       <path id="DejaVuSans-69" d="M 603 3500 
L 1178 3500 
L 1178 0 
L 603 0 
L 603 3500 
z
M 603 4863 
L 1178 4863 
L 1178 4134 
L 603 4134 
L 603 4863 
z
" transform="scale(0.015625)"/>
       <path id="DejaVuSans-6d" d="M 3328 2828 
Q 3544 3216 3844 3400 
Q 4144 3584 4550 3584 
Q 5097 3584 5394 3201 
Q 5691 2819 5691 2113 
L 5691 0 
L 5113 0 
L 5113 2094 
Q 5113 2597 4934 2840 
Q 4756 3084 4391 3084 
Q 3944 3084 3684 2787 
Q 3425 2491 3425 1978 
L 3425 0 
L 2847 0 
L 2847 2094 
Q 2847 2600 2669 2842 
Q 2491 3084 2119 3084 
Q 1678 3084 1418 2786 
Q 1159 2488 1159 1978 
L 1159 0 
L 581 0 
L 581 3500 
L 1159 3500 
L 1159 2956 
Q 1356 3278 1631 3431 
Q 1906 3584 2284 3584 
Q 2666 3584 2933 3390 
Q 3200 3197 3328 2828 
z
" transform="scale(0.015625)"/>
       <path id="DejaVuSans-65" d="M 3597 1894 
L 3597 1613 
L 953 1613 
Q 991 1019 1311 708 
Q 1631 397 2203 397 
Q 2534 397 2845 478 
Q 3156 559 3463 722 
L 3463 178 
Q 3153 47 2828 -22 
Q 2503 -91 2169 -91 
Q 1331 -91 842 396 
Q 353 884 353 1716 
Q 353 2575 817 3079 
Q 1281 3584 2069 3584 
Q 2775 3584 3186 3129 
Q 3597 2675 3597 1894 
z
M 3022 2063 
Q 3016 2534 2758 2815 
Q 2500 3097 2075 3097 
Q 1594 3097 1305 2825 
Q 1016 2553 972 2059 
L 3022 2063 
z
" transform="scale(0.015625)"/>
       <path id="DejaVuSans-73" d="M 2834 3397 
L 2834 2853 
Q 2591 2978 2328 3040 
Q 2066 3103 1784 3103 
Q 1356 3103 1142 2972 
Q 928 2841 928 2578 
Q 928 2378 1081 2264 
Q 1234 2150 1697 2047 
L 1894 2003 
Q 2506 1872 2764 1633 
Q 3022 1394 3022 966 
Q 3022 478 2636 193 
Q 2250 -91 1575 -91 
Q 1294 -91 989 -36 
Q 684 19 347 128 
L 347 722 
Q 666 556 975 473 
Q 1284 391 1588 391 
Q 1994 391 2212 530 
Q 2431 669 2431 922 
Q 2431 1156 2273 1281 
Q 2116 1406 1581 1522 
L 1381 1569 
Q 847 1681 609 1914 
Q 372 2147 372 2553 
Q 372 3047 722 3315 
Q 1072 3584 1716 3584 
Q 2034 3584 2315 3537 
Q 2597 3491 2834 3397 
z
" transform="scale(0.015625)"/>
       <path id="DejaVuSans-70" d="M 1159 525 
L 1159 -1331 
L 581 -1331 
L 581 3500 
L 1159 3500 
L 1159 2969 
Q 1341 3281 1617 3432 
Q 1894 3584 2278 3584 
Q 2916 3584 3314 3078 
Q 3713 2572 3713 1747 
Q 3713 922 3314 415 
Q 2916 -91 2278 -91 
Q 1894 -91 1617 61 
Q 1341 213 1159 525 
z
M 3116 1747 
Q 3116 2381 2855 2742 
Q 2594 3103 2138 3103 
Q 1681 3103 1420 2742 
Q 1159 2381 1159 1747 
Q 1159 1113 1420 752 
Q 1681 391 2138 391 
Q 2594 391 2855 752 
Q 3116 1113 3116 1747 
z
" transform="scale(0.015625)"/>
      </defs>
      <use xlink:href="#DejaVuSans-74"/>
      <use xlink:href="#DejaVuSans-69" x="39.208984"/>
      <use xlink:href="#DejaVuSans-6d" x="66.992188"/>
      <use xlink:href="#DejaVuSans-65" x="164.404297"/>
      <use xlink:href="#DejaVuSans-73" x="225.927734"/>
      <use xlink:href="#DejaVuSans-74" x="278.027344"/>
      <use xlink:href="#DejaVuSans-65" x="317.236328"/>
      <use xlink:href="#DejaVuSans-70" x="378.759766"/>
      <use xlink:href="#DejaVuSans-73" x="442.236328"/>
     </g>
    </g>
   </g>
   <g id="matplotlib.axis_2">
    <g id="ytick_1">
     <g id="line2d_10">
      <defs>
       <path id="m1bf8e676d2" d="M 0 0 
L -3.5 0 
" style="stroke: #000000; stroke-width: 0.8"/>
      </defs>
      <g>
       <use xlink:href="#m1bf8e676d2" x="50.14375" y="271.711077" style="stroke: #000000; stroke-width: 0.8"/>
      </g>
     </g>
     <g id="text_11">
      <!-- 3.25 -->
      <g transform="translate(20.878125 275.510295)scale(0.1 -0.1)">
       <defs>
        <path id="DejaVuSans-33" d="M 2597 2516 
Q 3050 2419 3304 2112 
Q 3559 1806 3559 1356 
Q 3559 666 3084 287 
Q 2609 -91 1734 -91 
Q 1441 -91 1130 -33 
Q 819 25 488 141 
L 488 750 
Q 750 597 1062 519 
Q 1375 441 1716 441 
Q 2309 441 2620 675 
Q 2931 909 2931 1356 
Q 2931 1769 2642 2001 
Q 2353 2234 1838 2234 
L 1294 2234 
L 1294 2753 
L 1863 2753 
Q 2328 2753 2575 2939 
Q 2822 3125 2822 3475 
Q 2822 3834 2567 4026 
Q 2313 4219 1838 4219 
Q 1578 4219 1281 4162 
Q 984 4106 628 3988 
L 628 4550 
Q 988 4650 1302 4700 
Q 1616 4750 1894 4750 
Q 2613 4750 3031 4423 
Q 3450 4097 3450 3541 
Q 3450 3153 3228 2886 
Q 3006 2619 2597 2516 
z
" transform="scale(0.015625)"/>
        <path id="DejaVuSans-2e" d="M 684 794 
L 1344 794 
L 1344 0 
L 684 0 
L 684 794 
z
" transform="scale(0.015625)"/>
       </defs>
       <use xlink:href="#DejaVuSans-33"/>
       <use xlink:href="#DejaVuSans-2e" x="63.623047"/>
       <use xlink:href="#DejaVuSans-32" x="95.410156"/>
       <use xlink:href="#DejaVuSans-35" x="159.033203"/>
      </g>
     </g>
    </g>
    <g id="ytick_2">
     <g id="line2d_11">
      <g>
       <use xlink:href="#m1bf8e676d2" x="50.14375" y="240.813036" style="stroke: #000000; stroke-width: 0.8"/>
      </g>
     </g>
     <g id="text_12">
      <!-- 3.50 -->
      <g transform="translate(20.878125 244.612255)scale(0.1 -0.1)">
       <use xlink:href="#DejaVuSans-33"/>
       <use xlink:href="#DejaVuSans-2e" x="63.623047"/>
       <use xlink:href="#DejaVuSans-35" x="95.410156"/>
       <use xlink:href="#DejaVuSans-30" x="159.033203"/>
      </g>
     </g>
    </g>
    <g id="ytick_3">
     <g id="line2d_12">
      <g>
       <use xlink:href="#m1bf8e676d2" x="50.14375" y="209.914995" style="stroke: #000000; stroke-width: 0.8"/>
      </g>
     </g>
     <g id="text_13">
      <!-- 3.75 -->
      <g transform="translate(20.878125 213.714214)scale(0.1 -0.1)">
       <use xlink:href="#DejaVuSans-33"/>
       <use xlink:href="#DejaVuSans-2e" x="63.623047"/>
       <use xlink:href="#DejaVuSans-37" x="95.410156"/>
       <use xlink:href="#DejaVuSans-35" x="159.033203"/>
      </g>
     </g>
    </g>
    <g id="ytick_4">
     <g id="line2d_13">
      <g>
       <use xlink:href="#m1bf8e676d2" x="50.14375" y="179.016955" style="stroke: #000000; stroke-width: 0.8"/>
      </g>
     </g>
     <g id="text_14">
      <!-- 4.00 -->
      <g transform="translate(20.878125 182.816174)scale(0.1 -0.1)">
       <use xlink:href="#DejaVuSans-34"/>
       <use xlink:href="#DejaVuSans-2e" x="63.623047"/>
       <use xlink:href="#DejaVuSans-30" x="95.410156"/>
       <use xlink:href="#DejaVuSans-30" x="159.033203"/>
      </g>
     </g>
    </g>
    <g id="ytick_5">
     <g id="line2d_14">
      <g>
       <use xlink:href="#m1bf8e676d2" x="50.14375" y="148.118914" style="stroke: #000000; stroke-width: 0.8"/>
      </g>
     </g>
     <g id="text_15">
      <!-- 4.25 -->
      <g transform="translate(20.878125 151.918133)scale(0.1 -0.1)">
       <use xlink:href="#DejaVuSans-34"/>
       <use xlink:href="#DejaVuSans-2e" x="63.623047"/>
       <use xlink:href="#DejaVuSans-32" x="95.410156"/>
       <use xlink:href="#DejaVuSans-35" x="159.033203"/>
      </g>
     </g>
    </g>
    <g id="ytick_6">
     <g id="line2d_15">
      <g>
       <use xlink:href="#m1bf8e676d2" x="50.14375" y="117.220874" style="stroke: #000000; stroke-width: 0.8"/>
      </g>
     </g>
     <g id="text_16">
      <!-- 4.50 -->
      <g transform="translate(20.878125 121.020092)scale(0.1 -0.1)">
       <use xlink:href="#DejaVuSans-34"/>
       <use xlink:href="#DejaVuSans-2e" x="63.623047"/>
       <use xlink:href="#DejaVuSans-35" x="95.410156"/>
       <use xlink:href="#DejaVuSans-30" x="159.033203"/>
      </g>
     </g>
    </g>
    <g id="ytick_7">
     <g id="line2d_16">
      <g>
       <use xlink:href="#m1bf8e676d2" x="50.14375" y="86.322833" style="stroke: #000000; stroke-width: 0.8"/>
      </g>
     </g>
     <g id="text_17">
      <!-- 4.75 -->
      <g transform="translate(20.878125 90.122052)scale(0.1 -0.1)">
       <use xlink:href="#DejaVuSans-34"/>
       <use xlink:href="#DejaVuSans-2e" x="63.623047"/>
       <use xlink:href="#DejaVuSans-37" x="95.410156"/>
       <use xlink:href="#DejaVuSans-35" x="159.033203"/>
      </g>
     </g>
    </g>
    <g id="ytick_8">
     <g id="line2d_17">
      <g>
       <use xlink:href="#m1bf8e676d2" x="50.14375" y="55.424793" style="stroke: #000000; stroke-width: 0.8"/>
      </g>
     </g>
     <g id="text_18">
      <!-- 5.00 -->
      <g transform="translate(20.878125 59.224011)scale(0.1 -0.1)">
       <use xlink:href="#DejaVuSans-35"/>
       <use xlink:href="#DejaVuSans-2e" x="63.623047"/>
       <use xlink:href="#DejaVuSans-30" x="95.410156"/>
       <use xlink:href="#DejaVuSans-30" x="159.033203"/>
      </g>
     </g>
    </g>
    <g id="ytick_9">
     <g id="line2d_18">
      <g>
       <use xlink:href="#m1bf8e676d2" x="50.14375" y="24.526752" style="stroke: #000000; stroke-width: 0.8"/>
      </g>
     </g>
     <g id="text_19">
      <!-- 5.25 -->
      <g transform="translate(20.878125 28.325971)scale(0.1 -0.1)">
       <use xlink:href="#DejaVuSans-35"/>
       <use xlink:href="#DejaVuSans-2e" x="63.623047"/>
       <use xlink:href="#DejaVuSans-32" x="95.410156"/>
       <use xlink:href="#DejaVuSans-35" x="159.033203"/>
      </g>
     </g>
    </g>
    <g id="text_20">
     <!-- storage -->
     <g transform="translate(14.798438 174.368656)rotate(-90)scale(0.1 -0.1)">
      <defs>
       <path id="DejaVuSans-6f" d="M 1959 3097 
Q 1497 3097 1228 2736 
Q 959 2375 959 1747 
Q 959 1119 1226 758 
Q 1494 397 1959 397 
Q 2419 397 2687 759 
Q 2956 1122 2956 1747 
Q 2956 2369 2687 2733 
Q 2419 3097 1959 3097 
z
M 1959 3584 
Q 2709 3584 3137 3096 
Q 3566 2609 3566 1747 
Q 3566 888 3137 398 
Q 2709 -91 1959 -91 
Q 1206 -91 779 398 
Q 353 888 353 1747 
Q 353 2609 779 3096 
Q 1206 3584 1959 3584 
z
" transform="scale(0.015625)"/>
       <path id="DejaVuSans-72" d="M 2631 2963 
Q 2534 3019 2420 3045 
Q 2306 3072 2169 3072 
Q 1681 3072 1420 2755 
Q 1159 2438 1159 1844 
L 1159 0 
L 581 0 
L 581 3500 
L 1159 3500 
L 1159 2956 
Q 1341 3275 1631 3429 
Q 1922 3584 2338 3584 
Q 2397 3584 2469 3576 
Q 2541 3569 2628 3553 
L 2631 2963 
z
" transform="scale(0.015625)"/>
       <path id="DejaVuSans-61" d="M 2194 1759 
Q 1497 1759 1228 1600 
Q 959 1441 959 1056 
Q 959 750 1161 570 
Q 1363 391 1709 391 
Q 2188 391 2477 730 
Q 2766 1069 2766 1631 
L 2766 1759 
L 2194 1759 
z
M 3341 1997 
L 3341 0 
L 2766 0 
L 2766 531 
Q 2569 213 2275 61 
Q 1981 -91 1556 -91 
Q 1019 -91 701 211 
Q 384 513 384 1019 
Q 384 1609 779 1909 
Q 1175 2209 1959 2209 
L 2766 2209 
L 2766 2266 
Q 2766 2663 2505 2880 
Q 2244 3097 1772 3097 
Q 1472 3097 1187 3025 
Q 903 2953 641 2809 
L 641 3341 
Q 956 3463 1253 3523 
Q 1550 3584 1831 3584 
Q 2591 3584 2966 3190 
Q 3341 2797 3341 1997 
z
" transform="scale(0.015625)"/>
       <path id="DejaVuSans-67" d="M 2906 1791 
Q 2906 2416 2648 2759 
Q 2391 3103 1925 3103 
Q 1463 3103 1205 2759 
Q 947 2416 947 1791 
Q 947 1169 1205 825 
Q 1463 481 1925 481 
Q 2391 481 2648 825 
Q 2906 1169 2906 1791 
z
M 3481 434 
Q 3481 -459 3084 -895 
Q 2688 -1331 1869 -1331 
Q 1566 -1331 1297 -1286 
Q 1028 -1241 775 -1147 
L 775 -588 
Q 1028 -725 1275 -790 
Q 1522 -856 1778 -856 
Q 2344 -856 2625 -561 
Q 2906 -266 2906 331 
L 2906 616 
Q 2728 306 2450 153 
Q 2172 0 1784 0 
Q 1141 0 747 490 
Q 353 981 353 1791 
Q 353 2603 747 3093 
Q 1141 3584 1784 3584 
Q 2172 3584 2450 3431 
Q 2728 3278 2906 2969 
L 2906 3500 
L 3481 3500 
L 3481 434 
z
" transform="scale(0.015625)"/>
      </defs>
      <use xlink:href="#DejaVuSans-73"/>
      <use xlink:href="#DejaVuSans-74" x="52.099609"/>
      <use xlink:href="#DejaVuSans-6f" x="91.308594"/>
      <use xlink:href="#DejaVuSans-72" x="152.490234"/>
      <use xlink:href="#DejaVuSans-61" x="193.603516"/>
      <use xlink:href="#DejaVuSans-67" x="254.882812"/>
      <use xlink:href="#DejaVuSans-65" x="318.359375"/>
     </g>
    </g>
    <g id="text_21">
     <!-- 1e10 -->
     <g transform="translate(50.14375 19.318125)scale(0.1 -0.1)">
      <use xlink:href="#DejaVuSans-31"/>
      <use xlink:href="#DejaVuSans-65" x="63.623047"/>
      <use xlink:href="#DejaVuSans-31" x="125.146484"/>
      <use xlink:href="#DejaVuSans-30" x="188.769531"/>
     </g>
    </g>
   </g>
   <g id="line2d_19">
    <path d="M 66.376477 127.724898 
L 66.710046 128.27982 
L 66.988019 129.208039 
L 67.11774 129.40488 
L 67.340119 130.022683 
L 67.525435 130.322678 
L 67.747813 130.953917 
L 67.970192 131.386587 
L 68.544671 133.897661 
L 68.637329 134.168786 
L 69.063555 135.889113 
L 69.174744 136.158948 
L 69.508312 137.376377 
L 69.60097 137.635011 
L 69.841881 138.336629 
L 69.897475 138.458713 
L 70.045728 138.781139 
L 70.268107 139.382641 
L 70.323701 139.486741 
L 70.416359 139.672464 
L 70.583143 140.042265 
L 70.638738 140.170961 
L 70.842585 140.685784 
L 70.916712 140.931619 
L 71.102027 141.392692 
L 71.213217 141.640992 
L 71.435595 142.263269 
L 71.472659 142.37493 
L 71.676506 142.884833 
L 71.861821 143.234933 
L 72.139795 144.14378 
L 72.306579 144.460373 
L 72.603084 145.470467 
L 72.751337 145.788323 
L 72.955184 146.369459 
L 73.010779 146.408696 
L 73.307284 147.443635 
L 73.344347 147.563346 
L 73.585257 148.302787 
L 73.73351 148.578336 
L 73.992952 149.423084 
L 74.067078 149.664194 
L 74.307989 150.360383 
L 74.345052 150.479814 
L 74.660088 151.619541 
L 74.734215 151.849902 
L 75.03072 152.89693 
L 75.067783 153.009726 
L 75.364288 154.055194 
L 75.456946 154.289975 
L 75.697856 155.014144 
L 75.771982 155.275921 
L 76.124082 156.574973 
L 76.235272 156.897485 
L 76.531777 157.964339 
L 76.661498 158.239272 
L 77.050661 159.739755 
L 77.180382 160.159572 
L 77.588076 161.782485 
L 77.680734 162.052322 
L 78.10696 163.761587 
L 78.199618 164.031253 
L 78.551718 165.343492 
L 78.625844 165.587429 
L 79.05207 167.345716 
L 79.163259 167.529695 
L 79.570954 169.17971 
L 79.626549 169.30873 
L 79.867459 170.043741 
L 79.904522 170.157577 
L 80.145433 170.860172 
L 80.201027 170.957643 
L 80.404874 171.620555 
L 80.423406 171.613217 
L 80.497532 171.681084 
L 80.70138 172.269897 
L 80.719911 172.26183 
L 80.738443 172.362385 
L 80.905227 172.825403 
L 80.923758 172.814333 
L 80.94229 172.798282 
L 80.960822 172.898837 
L 81.220263 173.785121 
L 81.238795 173.771371 
L 81.257327 173.871926 
L 81.516769 174.725705 
L 81.553832 174.82497 
L 81.813274 175.680157 
L 81.831805 175.664267 
L 81.850337 175.764822 
L 81.868868 175.742597 
L 82.072716 176.32106 
L 82.091247 176.307601 
L 82.109779 176.408156 
L 82.12831 176.398871 
L 82.369221 177.140711 
L 82.443347 177.226257 
L 82.758384 178.377554 
L 82.795447 178.356843 
L 82.813978 178.457398 
L 82.869573 178.65561 
L 82.943699 178.63017 
L 82.962231 178.603686 
L 82.980762 178.70424 
L 83.277268 179.8665 
L 83.295799 179.861371 
L 83.351394 179.954925 
L 83.666431 181.083982 
L 83.703494 181.181797 
L 83.962936 182.038307 
L 83.981467 182.030978 
L 83.999999 182.131533 
L 84.333567 183.401514 
L 84.352099 183.385879 
L 84.37063 183.486434 
L 84.518883 183.957336 
L 84.555946 183.924674 
L 84.593009 184.022648 
L 84.908046 185.177058 
L 84.926577 185.164322 
L 84.945109 185.264877 
L 84.96364 185.240106 
L 85.130424 185.627749 
L 85.204551 185.593855 
L 85.223082 185.69441 
L 85.55665 186.962723 
L 85.593714 187.061333 
L 85.871687 188.018189 
L 85.927282 188.000376 
L 85.945813 188.100931 
L 85.982877 188.199359 
L 86.26085 189.149452 
L 86.297913 189.116141 
L 86.334976 189.211071 
L 86.538824 189.782603 
L 86.557355 189.771045 
L 86.575887 189.8716 
L 86.631481 190.06035 
L 86.705608 190.036257 
L 86.724139 190.022025 
L 86.742671 190.12258 
L 86.983581 190.913971 
L 87.002113 190.902475 
L 87.020644 191.00303 
L 87.261555 191.770762 
L 87.354213 191.869012 
L 87.595123 192.632746 
L 87.613655 192.61866 
L 87.632186 192.719215 
L 87.817502 193.314723 
L 87.836033 193.308033 
L 87.854565 193.286356 
L 87.873097 193.386911 
L 87.891628 193.37556 
L 88.095475 194.044502 
L 88.114007 194.039167 
L 88.188133 194.134501 
L 88.410512 194.797463 
L 88.521701 194.836697 
L 88.818207 195.907563 
L 88.85527 195.885335 
L 88.910864 195.97293 
L 89.114712 196.543198 
L 89.170306 196.632937 
L 89.374154 197.191344 
L 89.392685 197.175443 
L 89.411217 197.275998 
L 89.559469 197.566526 
L 89.633596 197.652397 
L 89.818911 198.217551 
L 89.837443 198.201725 
L 89.855974 198.179306 
L 89.874506 198.279861 
L 89.893037 198.27353 
L 90.096885 198.861123 
L 90.115416 198.84812 
L 90.133948 198.948675 
L 90.319264 199.388472 
L 90.337795 199.382223 
L 90.356327 199.482778 
L 90.523111 199.972407 
L 90.541642 199.955679 
L 90.6343 200.008747 
L 90.875211 200.785388 
L 90.967868 200.848968 
L 91.190247 201.499833 
L 91.22731 201.470807 
L 91.245842 201.571362 
L 91.431158 202.065807 
L 91.523815 202.138325 
L 91.709131 202.598975 
L 91.783257 202.698386 
L 91.894447 202.872328 
L 91.912978 202.866641 
L 91.93151 202.859191 
L 91.950042 202.959746 
L 91.968573 202.95343 
L 92.190952 203.627712 
L 92.246547 203.729388 
L 92.376268 203.981217 
L 92.394799 203.97041 
L 92.450394 204.06279 
L 92.63571 204.637006 
L 92.654241 204.630698 
L 92.783962 204.646 
L 92.950746 204.977841 
L 92.969278 204.953263 
L 92.987809 205.053818 
L 93.043404 205.027779 
L 93.098999 205.115799 
L 93.302846 205.63237 
L 93.321378 205.620391 
L 93.339909 205.720946 
L 93.358441 205.708974 
L 93.543756 206.137745 
L 93.562288 206.130213 
L 93.58082 206.230768 
L 93.599351 206.221477 
L 93.803198 206.736628 
L 93.840262 206.821625 
L 93.932919 206.746085 
L 94.099703 207.087069 
L 94.118235 207.069323 
L 94.136767 207.169878 
L 94.155298 207.151288 
L 94.322082 207.478115 
L 94.359145 207.566822 
L 94.41474 207.537752 
L 94.581524 207.979557 
L 94.600056 207.960838 
L 94.655651 208.022772 
L 94.711245 207.977652 
L 94.878029 208.293292 
L 94.896561 208.282513 
L 94.915092 208.383068 
L 94.933624 208.369476 
L 95.137471 208.886729 
L 95.156003 208.869833 
L 95.174534 208.970388 
L 95.193066 208.93607 
L 95.285724 209.206987 
L 95.341319 209.1767 
L 95.378382 209.15358 
L 95.415445 209.221697 
L 95.619292 209.733792 
L 95.674887 209.657609 
L 95.749013 209.727871 
L 95.860202 209.749127 
L 96.026987 210.056998 
L 96.045518 210.038021 
L 96.06405 210.138576 
L 96.082581 210.107582 
L 96.212302 210.365558 
L 96.230834 210.355382 
L 96.267897 210.332392 
L 96.30496 210.40059 
L 96.434681 210.743716 
L 96.471744 210.717475 
L 96.508807 210.79907 
L 96.564402 210.723061 
L 96.768249 211.250559 
L 96.935033 211.211883 
L 97.101818 211.649032 
L 97.120349 211.638938 
L 97.231539 211.638108 
L 97.324196 211.902108 
L 97.379791 211.857148 
L 97.416854 211.80224 
L 97.435386 211.902795 
L 97.49098 211.870554 
L 97.657765 212.319299 
L 97.676296 212.303521 
L 97.713359 212.269984 
L 97.750422 212.353178 
L 97.95427 212.861672 
L 98.009864 212.831195 
L 98.046928 212.918434 
L 98.176649 213.266083 
L 98.213712 213.23482 
L 98.232243 213.221524 
L 98.250775 213.322079 
L 98.269306 213.305342 
L 98.43609 213.732486 
L 98.454622 213.722409 
L 98.528748 213.651587 
L 98.565811 213.730908 
L 98.732596 214.050571 
L 98.825253 213.955985 
L 98.862317 214.045565 
L 98.992038 214.165907 
L 99.010569 214.144715 
L 99.029101 214.24527 
L 99.047632 214.223179 
L 99.214416 214.534194 
L 99.251479 214.621506 
L 99.307074 214.591715 
L 99.473858 214.902849 
L 99.510921 214.981322 
L 99.566516 214.939906 
L 99.7333 215.244954 
L 99.770363 215.334567 
L 99.900084 215.207822 
L 100.029805 215.559896 
L 100.066868 215.517107 
L 100.0854 215.486242 
L 100.103932 215.586797 
L 100.122463 215.573612 
L 100.252184 215.726548 
L 100.307779 215.666878 
L 100.344842 215.746316 
L 100.511626 216.066597 
L 100.530158 216.035773 
L 100.548689 216.136328 
L 100.567221 216.123183 
L 100.659879 216.406068 
L 100.715473 216.374205 
L 100.752537 216.33835 
L 100.771068 216.438905 
L 100.7896 216.424332 
L 100.956384 216.751315 
L 100.974915 216.718703 
L 100.993447 216.819258 
L 101.011978 216.801543 
L 101.178763 217.152336 
L 101.27142 217.069843 
L 101.308484 217.154294 
L 101.475268 217.455168 
L 101.530862 217.427087 
L 101.567926 217.518597 
L 101.660583 217.663502 
L 101.697646 217.623119 
L 101.73471 217.702841 
L 101.827367 217.633126 
L 101.957088 217.744985 
L 101.97562 217.735056 
L 101.994152 217.835611 
L 102.012683 217.826605 
L 102.142404 217.927949 
L 102.179467 218.007708 
L 102.235062 217.968796 
L 102.401846 218.294343 
L 102.420378 218.284448 
L 102.438909 218.385003 
L 102.457441 218.376025 
L 102.475972 218.47658 
L 102.56863 218.376995 
L 102.605693 218.335888 
L 102.624225 218.436443 
L 102.642756 218.422159 
L 102.809541 218.739933 
L 102.865135 218.713355 
L 102.902198 218.804956 
L 103.068983 219.101445 
L 103.106046 219.187756 
L 103.16164 219.145719 
L 103.328425 219.479242 
L 103.346956 219.470314 
L 103.365488 219.570869 
L 103.384019 219.560111 
L 103.476677 219.687068 
L 103.495209 219.666356 
L 103.550803 219.73188 
L 103.643461 219.637976 
L 103.699056 219.826145 
L 103.773182 219.733418 
L 103.939966 219.602358 
L 103.977029 219.6868 
L 104.143814 219.996532 
L 104.236471 219.948566 
L 104.273534 220.036678 
L 104.440319 220.354034 
L 104.495913 220.312441 
L 104.532976 220.379906 
L 104.662697 220.522485 
L 104.699761 220.614034 
L 104.755355 220.557815 
L 104.848013 220.819055 
L 104.903608 220.780225 
L 105.014797 220.651916 
L 105.05186 220.743331 
L 105.218644 221.075303 
L 105.274239 221.014683 
L 105.311302 221.100939 
L 105.329834 221.201494 
L 105.422492 221.10529 
L 105.459555 221.061814 
L 105.478086 221.162369 
L 105.496618 221.153263 
L 105.626339 221.417732 
L 105.644871 221.386954 
L 105.811655 221.351875 
L 105.941376 221.351311 
L 106.10816 221.683566 
L 106.163754 221.623112 
L 106.200818 221.709418 
L 106.367602 222.015756 
L 106.423196 222.009476 
L 106.552917 222.202608 
L 106.664107 222.2969 
L 106.756765 222.378921 
L 106.923549 222.68919 
L 107.016207 222.790034 
L 107.164459 222.991916 
L 107.238585 223.068581 
L 107.386838 223.278514 
L 107.460964 223.378051 
L 107.609217 223.679363 
L 107.627748 223.673386 
L 107.64628 223.656677 
L 107.664811 223.757232 
L 107.683343 223.756215 
L 107.794532 223.864315 
L 107.924253 224.043708 
L 108.016911 224.040517 
L 108.146632 224.206897 
L 108.313416 224.304038 
L 108.424606 224.391645 
L 108.572858 224.460868 
L 108.739642 224.772074 
L 108.906427 224.741285 
L 109.054679 225.024306 
L 109.202932 225.120284 
L 109.351184 225.315556 
L 109.462374 225.397607 
L 109.629158 225.709039 
L 109.684752 225.6848 
L 109.703284 225.785355 
L 109.795942 225.782832 
L 109.944194 226.066214 
L 110.018321 226.171775 
L 110.148042 226.442841 
L 110.166573 226.431318 
L 110.240699 226.403086 
L 110.37042 226.498271 
L 110.537205 226.583036 
L 110.592799 226.778101 
L 110.666926 226.738794 
L 110.870773 226.839292 
L 110.944899 227.043906 
L 111.000494 226.985461 
L 111.130215 226.91186 
L 111.278467 227.149844 
L 111.42672 227.225112 
L 111.593504 227.572066 
L 111.797351 227.49335 
L 111.927072 227.746735 
L 111.945604 227.729091 
L 112.01973 227.706576 
L 112.167983 227.944897 
L 112.353298 227.98042 
L 112.483019 228.141577 
L 112.61274 228.180819 
L 112.760993 228.256666 
L 112.927777 228.604109 
L 113.094561 228.621293 
L 113.168687 228.826109 
L 113.224282 228.793804 
L 113.428129 228.798466 
L 113.613445 229.199684 
L 113.798761 229.233501 
L 113.947013 229.467335 
L 114.095266 229.547123 
L 114.15086 229.734099 
L 114.224987 229.69941 
L 114.317645 229.743652 
L 114.447366 229.854346 
L 114.540023 229.928526 
L 114.595618 230.115524 
L 114.669744 230.080956 
L 114.762402 230.125322 
L 114.929186 230.437179 
L 115.244223 230.484726 
L 115.392475 230.697469 
L 115.503665 230.7233 
L 115.596323 230.823485 
L 115.614854 230.813285 
L 115.651917 230.765608 
L 115.670449 230.866163 
L 115.688981 230.86687 
L 115.837233 231.079788 
L 116.022549 231.082793 
L 116.170801 231.329427 
L 116.39318 231.36952 
L 116.485838 231.554711 
L 116.522901 231.522967 
L 116.541433 231.484506 
L 116.559964 231.585061 
L 116.578496 231.571352 
L 116.726748 231.782583 
L 116.763812 231.754435 
L 116.800875 231.847622 
L 116.930596 232.106849 
L 116.949127 232.097503 
L 117.023254 231.99376 
L 117.078848 232.098398 
L 117.319759 232.181893 
L 117.412416 232.368479 
L 117.44948 232.311337 
L 117.523606 232.41356 
L 117.653327 232.485299 
L 117.745985 232.631274 
L 117.783048 232.621893 
L 118.246337 232.712822 
L 118.39459 232.945575 
L 118.598437 232.85961 
L 118.616968 232.840528 
L 118.6355 232.941083 
L 118.672563 232.931812 
L 118.765221 232.965489 
L 118.932005 233.275328 
L 119.024663 233.30534 
L 119.043194 233.405895 
L 119.135852 233.360153 
L 119.247042 233.385596 
L 119.413826 233.699854 
L 119.543547 233.741119 
L 119.599141 233.841494 
L 119.654736 233.781864 
L 119.691799 233.745699 
L 119.710331 233.846254 
L 119.728862 233.848371 
L 120.989009 235.175546 
L 121.081667 235.256511 
L 121.378172 235.444328 
L 121.619082 235.629956 
L 121.748803 235.725217 
L 122.712445 236.2902 
L 123.768744 236.745313 
L 124.324691 237.272429 
L 124.491476 237.299941 
L 124.713854 237.4277 
L 124.843575 237.419859 
L 124.880638 237.424288 
L 124.954765 237.556885 
L 125.010359 237.521347 
L 125.14008 237.74124 
L 125.288333 237.753598 
L 125.325396 237.758077 
L 125.399522 237.890757 
L 125.455117 237.855323 
L 125.621901 238.079615 
L 125.714559 238.170852 
L 125.733091 238.166453 
L 125.770154 238.155167 
L 125.788685 238.255722 
L 126.159317 238.295051 
L 126.400227 238.340649 
L 126.678201 238.478511 
L 127.067364 238.586566 
L 127.289742 238.581454 
L 127.530653 238.681272 
L 127.771563 238.803117 
L 128.0866 238.985962 
L 128.142194 238.950633 
L 128.197789 239.006575 
L 128.383105 239.028382 
L 128.624015 239.013081 
L 128.976115 239.120804 
L 129.087304 239.08316 
L 129.105836 239.098208 
L 129.291152 239.105787 
L 129.550594 239.052791 
L 129.643252 239.104135 
L 129.698846 239.042987 
L 129.958288 238.968249 
L 130.088009 239.048807 
L 130.125072 239.000705 
L 130.403046 238.913173 
L 130.532767 238.993775 
L 130.56983 238.945693 
L 130.847803 238.858304 
L 130.977524 238.938951 
L 131.014588 238.890909 
L 131.292561 238.803687 
L 131.422282 238.884418 
L 131.459345 238.836413 
L 131.75585 238.764045 
L 131.959698 238.826131 
L 132.21914 238.818412 
L 132.404455 238.862277 
L 132.663897 238.856767 
L 132.81215 238.875683 
L 133.071592 238.853279 
L 133.256907 238.907259 
L 133.516349 238.884984 
L 133.720197 238.963801 
L 133.942575 238.972663 
L 134.164954 239.07179 
L 134.387333 239.080785 
L 134.609712 239.180006 
L 134.832091 239.189138 
L 135.073001 239.307756 
L 135.313911 239.306059 
L 135.517759 239.38812 
L 135.758669 239.392365 
L 135.943985 239.434725 
L 136.166364 239.42658 
L 136.388742 239.510152 
L 136.611121 239.502033 
L 136.8335 239.585641 
L 137.055879 239.57757 
L 137.278258 239.66119 
L 137.500636 239.653153 
L 137.723015 239.736827 
L 137.945394 239.728838 
L 138.13071 239.770316 
L 142.059402 238.906506 
L 142.15206 238.844838 
L 142.411502 238.742895 
L 142.541223 238.810595 
L 142.578286 238.760971 
L 142.85626 238.643264 
L 142.985981 238.710941 
L 143.023044 238.661312 
L 143.301017 238.543471 
L 143.430738 238.61112 
L 143.467801 238.561485 
L 143.745775 238.443607 
L 143.875496 238.511188 
L 143.912559 238.461536 
L 144.209064 238.350954 
L 144.39438 238.339501 
L 144.709417 238.248346 
L 144.839138 238.206079 
L 145.154174 238.122528 
L 145.265364 238.062638 
L 145.524806 237.93446 
L 145.69159 237.938349 
L 145.969563 237.791944 
L 146.136347 237.795723 
L 146.414321 237.649143 
L 146.581105 237.652811 
L 146.859079 237.506049 
L 146.988799 237.573215 
L 147.025863 237.527344 
L 147.303836 237.409918 
L 147.526215 237.405325 
L 147.767125 237.313919 
L 147.952441 237.312362 
L 148.248946 237.239274 
L 148.378667 237.198452 
L 148.638109 237.086491 
L 148.804893 237.101377 
L 149.082867 236.971964 
L 149.249651 236.986677 
L 149.527624 236.856952 
L 149.694408 236.871493 
L 149.972382 236.741507 
L 150.139166 236.75595 
L 150.41714 236.625737 
L 150.639518 236.613071 
L 150.880429 236.515825 
L 151.065745 236.507544 
L 151.36225 236.426677 
L 151.491971 236.382224 
L 151.751413 236.262237 
L 151.918197 236.27239 
L 152.19617 236.134192 
L 152.362954 236.144165 
L 152.659459 236.009924 
L 152.826244 235.964719 
L 152.974496 235.861643 
L 152.993028 235.962198 
L 153.085685 235.931872 
L 153.25247 235.918425 
L 153.548975 235.749947 
L 153.73429 235.758291 
L 154.049327 235.691186 
L 154.19758 235.652756 
L 154.457022 235.575782 
L 154.549679 235.61244 
L 154.586742 235.565858 
L 154.864716 235.444697 
L 154.994437 235.506378 
L 155.0315 235.459764 
L 155.309474 235.33811 
L 155.439195 235.399539 
L 155.476258 235.352893 
L 155.754231 235.230747 
L 155.883952 235.291922 
L 155.921015 235.245243 
L 156.198989 235.122604 
L 156.32871 235.183523 
L 156.365773 235.136812 
L 156.662278 235.024257 
L 156.847594 235.04389 
L 157.570325 234.910192 
L 157.718578 234.894315 
L 157.978019 234.808302 
L 158.10774 234.88103 
L 158.144804 234.834294 
L 158.422777 234.733585 
L 158.552498 234.80626 
L 158.589561 234.759479 
L 158.867535 234.658507 
L 159.05285 234.666939 
L 159.330824 234.599307 
L 159.51614 234.578379 
L 159.719987 234.474007 
L 159.738518 234.493339 
L 159.99796 234.542877 
L 160.665097 234.48783 
L 160.850413 234.503004 
L 161.072791 234.458634 
L 161.276639 234.524363 
L 161.536081 234.487506 
L 161.665802 234.585563 
L 161.721396 234.533737 
L 161.980838 234.493759 
L 162.110559 234.594452 
L 162.147622 234.552996 
L 162.425596 234.505054 
L 162.555317 234.602797 
L 162.610912 234.550839 
L 162.870354 234.510236 
L 163.129795 234.654646 
L 163.667211 234.847178 
L 163.741337 234.822041 
L 163.7784 234.865466 
L 163.982248 234.937575 
L 164.186095 234.978218 
L 164.445537 235.091203 
L 166.354288 235.75936 
L 166.446946 235.786967 
L 166.650793 235.898342 
L 166.891704 235.931318 
L 167.095551 235.988009 
L 167.31793 236.036579 
L 167.521777 236.125696 
L 167.762688 236.167577 
L 167.948003 236.265033 
L 168.170382 236.256438 
L 168.411292 236.387111 
L 168.652203 236.431308 
L 168.85605 236.519992 
L 169.078429 236.537631 
L 169.337871 236.701019 
L 173.618663 238.419681 
L 173.766916 238.436938 
L 173.952231 238.468701 
L 174.193142 238.628104 
L 174.434052 238.705951 
L 174.656431 238.82646 
L 174.841747 238.86604 
L 175.101189 239.035294 
L 175.286504 239.074768 
L 175.657136 239.371267 
L 175.82392 239.45616 
L 176.101893 239.630714 
L 176.268677 239.71609 
L 176.435462 239.7826 
L 176.620777 239.843082 
L 176.917282 240.044796 
L 177.417635 240.349383 
L 177.640013 240.519998 
L 177.788266 240.534812 
L 180.308559 242.260565 
L 180.54947 242.374211 
L 180.679191 242.455017 
L 180.90157 242.591498 
L 181.476048 242.961724 
L 181.550174 243.028391 
L 181.883743 243.305472 
L 182.050527 243.398362 
L 182.309969 243.591073 
L 185.923625 245.660067 
L 186.016282 245.742162 
L 186.22013 245.837796 
L 186.442508 245.92945 
L 186.646356 246.055062 
L 186.887266 246.146187 
L 187.109645 246.269136 
L 187.294961 246.311486 
L 187.554403 246.48124 
L 187.776781 246.574611 
L 188.091818 246.806535 
L 188.721891 247.141483 
L 188.888675 247.197762 
L 189.111054 247.303268 
L 189.333433 247.437266 
L 189.53728 247.514141 
L 189.778191 247.674433 
L 189.907912 247.73374 
L 190.056164 247.96793 
L 190.222948 248.025943 
L 190.426796 248.104584 
L 190.667706 248.262538 
L 190.871553 248.33906 
L 191.18659 248.6024 
L 191.705474 248.88035 
L 191.7796 248.914417 
L 191.798132 248.943095 
L 192.094637 249.130475 
L 192.37261 249.363177 
L 192.650584 249.658252 
L 193.039747 250.138723 
L 193.132405 250.27271 
L 193.688352 251.002729 
L 193.836604 251.140531 
L 194.392551 251.735322 
L 196.301303 253.560588 
L 196.597808 253.787323 
L 196.690466 253.889655 
L 197.042566 254.195752 
L 197.135223 254.296022 
L 197.505855 254.663408 
L 198.098865 255.326668 
L 198.599217 255.824519 
L 198.895722 256.087804 
L 199.229291 256.443362 
L 199.433138 256.681885 
L 199.93349 257.181588 
L 200.248527 257.471666 
L 200.619158 257.832258 
L 201.212168 258.48463 
L 201.693989 258.968929 
L 201.842242 259.069277 
L 202.361126 259.575732 
L 202.472315 259.687528 
L 202.842946 260.015712 
L 204.177219 261.401263 
L 204.77023 262.073636 
L 205.270582 262.585003 
L 205.567087 262.856091 
L 205.900655 263.220447 
L 206.104502 263.465415 
L 206.623386 263.997193 
L 211.404531 269.33979 
L 211.719568 269.681045 
L 211.812225 269.816209 
L 212.368173 270.541375 
L 212.534957 270.70207 
L 213.480067 271.824282 
L 213.591256 271.939933 
L 214.147203 272.629233 
L 214.313987 272.781251 
L 214.999655 273.515235 
L 215.240566 273.503541 
L 215.425881 273.549171 
L 215.64826 273.543616 
L 220.61472 274.71025 
L 220.72591 274.754391 
L 220.929757 274.775787 
L 221.504236 274.794132 
L 221.615425 274.823939 
L 221.800741 274.82152 
L 222.060183 274.840282 
L 222.338156 274.913017 
L 225.636775 275.487682 
L 225.914749 275.56625 
L 226.100065 275.619907 
L 226.303912 275.644611 
L 226.804264 275.76565 
L 226.98958 275.852856 
L 227.211959 275.890358 
L 227.712311 276.03546 
L 227.842032 276.091541 
L 228.101474 276.181212 
L 228.601826 276.329669 
L 229.065116 275.819697 
L 229.361621 275.470862 
L 230.510578 274.014865 
L 230.807083 273.637826 
L 231.400093 272.890286 
L 231.696598 272.51219 
L 232.30814 271.730305 
L 232.808492 271.091417 
L 236.162706 266.781388 
L 236.551869 266.282109 
L 237.812016 264.640177 
L 238.201179 264.230051 
L 238.21971 264.330606 
L 238.312368 264.248084 
L 239.27601 263.429811 
L 239.665173 263.106961 
L 240.925319 262.037986 
L 242.500503 260.139244 
L 243.945965 256.296331 
L 244.520444 254.641457 
L 246.262411 249.530281 
L 247.003674 247.514493 
L 248.356478 244.299706 
L 249.801941 240.671522 
L 249.839004 240.715395 
L 249.857535 240.81595 
L 249.931662 240.614773 
L 250.543203 239.043508 
L 251.506845 236.732236 
L 251.525376 236.832791 
L 251.580971 236.654074 
L 251.80335 236.137471 
L 251.840413 236.19223 
L 252.025729 235.970919 
L 252.04426 236.071474 
L 252.099855 235.908452 
L 253.211749 233.113012 
L 253.230281 233.213567 
L 253.285875 233.063372 
L 253.508254 232.373266 
L 253.545317 232.405323 
L 253.563849 232.505878 
L 253.637975 232.320936 
L 254.786932 229.719731 
L 254.805464 229.820286 
L 254.861059 229.645508 
L 255.250222 228.595817 
L 255.268753 228.696372 
L 255.324348 228.486069 
L 255.806169 227.223913 
L 255.8247 227.324468 
L 255.880295 227.163906 
L 256.473305 225.709344 
L 256.5289 225.845079 
L 256.565963 225.729693 
L 256.603026 225.771587 
L 256.992189 224.631353 
L 257.010721 224.731908 
L 257.066315 224.535423 
L 257.418415 223.479614 
L 257.622262 223.110975 
L 257.640794 223.21153 
L 257.696389 223.040235 
L 257.955831 222.431636 
L 257.974362 222.532191 
L 258.029957 222.336691 
L 258.326462 221.656958 
L 258.344994 221.757513 
L 258.400588 221.559151 
L 258.77122 220.425108 
L 258.789751 220.525663 
L 258.845346 220.327066 
L 258.863877 220.427621 
L 258.900941 220.449168 
L 259.067725 219.92665 
L 259.123319 220.055197 
L 259.160383 219.916459 
L 259.438356 219.121917 
L 259.456888 219.222472 
L 260.068429 217.561449 
L 260.124024 217.70095 
L 260.161087 217.574519 
L 260.772629 215.608572 
L 260.791161 215.709127 
L 260.846755 215.527334 
L 260.957945 215.265265 
L 260.995008 215.304762 
L 261.013539 215.405317 
L 261.069134 215.205664 
L 261.087666 215.306219 
L 261.124729 215.327363 
L 261.291513 214.801454 
L 261.310044 214.902009 
L 261.365639 214.69041 
L 261.662144 214.000642 
L 261.84746 213.498122 
L 261.884523 213.537526 
L 261.903055 213.638081 
L 261.958649 213.438127 
L 261.977181 213.538682 
L 262.106902 213.270054 
L 262.143965 213.311885 
L 262.736975 211.713488 
L 262.755507 211.814043 
L 262.811101 211.630796 
L 263.329985 210.140786 
L 263.38558 210.28052 
L 263.422643 210.165067 
L 263.885932 209.065955 
L 263.904464 209.16651 
L 263.960059 208.986175 
L 264.219501 208.186228 
L 264.238032 208.286783 
L 264.293627 208.117036 
L 264.960763 206.273131 
L 264.979295 206.373686 
L 265.03489 206.190314 
L 266.183847 202.456203 
L 266.202379 202.556758 
L 266.257973 202.363873 
L 266.628605 201.242498 
L 266.665668 201.276201 
L 266.684199 201.376756 
L 266.739794 201.179184 
L 266.999236 200.598268 
L 267.017768 200.698823 
L 267.073362 200.516536 
L 267.091894 200.617091 
L 267.128957 200.644858 
L 267.40693 199.81833 
L 268.148193 197.725189 
L 268.166725 197.825744 
L 268.222319 197.593202 
L 268.833861 195.926835 
L 269.037708 195.595076 
L 269.05624 195.695631 
L 269.111835 195.563543 
L 269.148898 195.624968 
L 269.630719 194.79732 
L 269.64925 194.897874 
L 269.704845 194.776291 
L 269.741908 194.832769 
L 270.00135 194.358135 
L 270.019882 194.45869 
L 270.094008 194.291073 
L 270.520234 193.595264 
L 270.538765 193.695819 
L 270.59436 193.569255 
L 270.631423 193.62564 
L 271.261497 192.297076 
L 271.280028 192.397631 
L 271.354154 192.223264 
L 273.707664 187.354018 
L 273.726195 187.454573 
L 273.800322 187.260013 
L 274.078295 186.733965 
L 274.096827 186.83452 
L 275.079 184.479287 
L 275.690541 183.005157 
L 275.727605 183.063707 
L 278.85944 175.56557 
L 279.211539 174.704119 
L 282.120996 167.709249 
L 282.139527 167.809804 
L 283.640584 166.364548 
L 285.01192 165.035956 
L 285.030452 165.136511 
L 285.104578 165.037287 
L 285.697588 164.380523 
L 286.401788 163.59576 
L 287.180114 162.731827 
L 287.198645 162.832382 
L 287.291303 162.744475 
L 289.218586 160.427821 
L 289.756002 159.781599 
L 290.126633 159.317033 
L 291.405311 157.931426 
L 292.109511 157.032157 
L 296.11233 151.94387 
L 296.520024 151.657955 
L 296.612682 151.600465 
L 296.631214 151.70102 
L 296.723872 151.596623 
L 296.909187 151.528001 
L 297.242755 151.275577 
L 297.391008 151.176268 
L 297.946955 150.72881 
L 299.466544 149.498459 
L 299.577733 149.40847 
L 299.78158 149.170615 
L 299.818643 149.261738 
L 300.003959 149.217784 
L 300.281933 148.906027 
L 300.430185 148.828958 
L 300.819348 148.347274 
L 300.949069 148.190665 
L 301.653269 147.298141 
L 301.690332 147.395746 
L 301.764458 147.347856 
L 302.079495 146.867117 
L 302.227747 146.761819 
L 302.524252 146.323529 
L 302.672505 146.218029 
L 302.96901 145.779365 
L 303.117263 145.673665 
L 303.413768 145.234631 
L 303.636147 145.024473 
L 303.951183 144.673733 
L 304.192094 144.359814 
L 304.562725 143.873242 
L 305.081609 143.259581 
L 305.285456 143.078701 
L 305.396646 142.890737 
L 305.693151 142.553934 
L 305.80434 142.420817 
L 306.137908 142.014672 
L 306.249098 141.881414 
L 306.601197 141.453427 
L 306.74945 141.252054 
L 307.064487 140.870517 
L 307.305397 140.526676 
L 307.713092 139.972478 
L 308.213444 139.295209 
L 308.39876 139.138211 
L 308.509949 138.940609 
L 308.806454 138.572492 
L 308.936175 138.394042 
L 309.251212 138.000526 
L 309.362401 137.883348 
L 309.695969 137.506531 
L 309.844222 137.351756 
L 310.381637 136.73905 
L 311.308216 135.668563 
L 311.493531 135.512483 
L 311.604721 135.362645 
L 311.901226 135.013903 
L 312.012415 134.92983 
L 312.327452 134.515213 
L 312.494236 134.350971 
L 312.809273 133.991307 
L 312.957525 133.830317 
L 313.25403 133.48222 
L 313.272562 133.582775 
L 313.346688 133.501441 
L 313.735851 133.073165 
L 313.847041 132.892384 
L 314.125014 132.569123 
L 314.254735 132.442087 
L 314.588303 132.046518 
L 314.699493 131.92157 
L 315.033061 131.525382 
L 315.14425 131.400229 
L 315.477819 131.003419 
L 315.589008 130.87806 
L 315.922576 130.486037 
L 316.070829 130.358501 
L 316.608244 129.829997 
L 317.97958 128.578875 
L 318.164896 128.446639 
L 318.257554 128.339777 
L 318.591122 128.008801 
L 318.702312 127.899831 
L 319.03588 127.566401 
L 319.184132 127.450577 
L 319.721548 126.959442 
L 320.2219 126.456275 
L 320.370153 126.372583 
L 320.481342 126.271245 
L 320.81491 125.966559 
L 320.9261 125.865065 
L 321.259668 125.559907 
L 321.370857 125.458258 
L 321.704426 125.152644 
L 321.815615 125.050837 
L 322.149183 124.744363 
L 322.297436 124.644933 
L 322.834851 124.210654 
L 324.24325 123.2092 
L 324.372971 123.200134 
L 324.484161 123.128084 
L 324.799198 122.905652 
L 324.928919 122.840983 
L 325.243955 122.626328 
L 325.429271 122.600761 
L 325.707244 122.503789 
L 325.985218 122.532164 
L 326.170534 122.482517 
L 326.281723 122.423428 
L 326.559697 122.3154 
L 326.652354 122.451705 
L 326.689418 122.418143 
L 326.948859 122.237329 
L 327.115644 122.297103 
L 327.152707 122.233189 
L 327.467743 122.095114 
L 327.615996 122.042315 
L 327.912501 121.910147 
L 328.042222 121.877659 
L 328.320196 121.71564 
L 328.524043 121.688906 
L 328.839079 121.537508 
L 328.9688 121.486863 
L 329.302369 121.345537 
L 329.395026 121.262725 
L 329.691532 121.117769 
L 329.821253 121.077274 
L 329.969505 120.982386 
L 329.988037 121.08294 
L 330.080695 121.002779 
L 330.26601 120.983218 
L 330.562515 120.811494 
L 330.747831 120.729298 
L 331.007273 120.600244 
L 331.174057 120.545531 
L 331.433499 120.379462 
L 331.655878 120.357235 
L 331.933851 120.238365 
L 332.119167 120.172818 
L 332.786303 119.883933 
L 332.953088 119.838508 
L 333.21253 119.698418 
L 333.379314 119.683583 
L 333.657287 119.525776 
L 333.842603 119.491787 
L 334.102045 119.349364 
L 334.305892 119.298487 
L 334.565334 119.182445 
L 334.898902 119.213731 
L 335.047155 119.164469 
L 335.195407 119.137377 
L 335.491912 119.02418 
L 335.640165 118.950261 
L 335.899607 118.854537 
L 336.084923 118.801913 
L 336.344365 118.700287 
L 336.511149 118.66642 
L 336.789122 118.551398 
L 336.955906 118.53405 
L 337.196817 118.425037 
L 337.400664 118.432556 
L 337.660106 118.334724 
L 337.901016 118.351068 
L 338.623748 118.278109 
L 338.772 118.213919 
L 338.994379 118.169146 
L 339.198226 118.166458 
L 339.439137 118.106329 
L 339.624452 118.118128 
L 339.902426 118.059653 
L 340.087741 118.043736 
L 340.328652 117.983263 
L 340.513967 117.993111 
L 340.736346 117.896863 
L 340.866067 118.066988 
L 341.069915 118.057159 
L 345.14686 117.853345 
L 345.258049 117.890598 
L 345.424833 117.876306 
L 345.665743 117.837699 
L 345.869591 117.84692 
L 346.129033 117.822302 
L 346.314348 117.818578 
L 346.57379 117.795948 
L 346.759106 117.792128 
L 347.018548 117.759153 
L 347.203864 117.773326 
L 347.704216 117.649369 
L 348.056316 117.578896 
L 348.352821 117.4792 
L 348.519605 117.465128 
L 348.797579 117.37725 
L 349.038489 117.402132 
L 349.390589 117.366135 
L 349.631499 117.233154 
L 349.76122 117.398074 
L 349.872409 117.320838 
L 350.131851 117.254359 
L 350.335699 117.328796 
L 350.595141 117.335707 
L 350.798988 117.381588 
L 351.521719 117.482669 
L 351.65144 117.46574 
L 351.89235 117.467482 
L 352.114729 117.508073 
L 352.337108 117.517111 
L 352.522424 117.577784 
L 352.781866 117.570795 
L 352.985713 117.619081 
L 353.226623 117.61826 
L 353.486065 117.712605 
L 354.042012 117.899604 
L 354.153202 117.938264 
L 354.319986 117.967047 
L 354.523833 117.946422 
L 354.746212 118.051546 
L 355.024185 118.086324 
L 355.228033 118.122067 
L 355.450412 118.14653 
L 355.654259 118.210657 
L 355.895169 118.22954 
L 356.099016 118.291539 
L 356.339927 118.310296 
L 356.599369 118.313636 
L 357.600073 118.285911 
L 357.711263 118.322786 
L 357.859515 118.304461 
L 358.156021 118.208558 
L 358.285742 118.179562 
L 358.582247 118.038576 
L 358.749031 117.999315 
L 359.027004 117.875421 
L 359.193788 117.836036 
L 359.471762 117.70908 
L 359.675609 117.710831 
L 359.935051 117.630237 
L 360.120367 117.619828 
L 360.379809 117.540813 
L 360.528061 117.515151 
L 360.787503 117.416254 
L 360.972819 117.413301 
L 361.232261 117.314254 
L 361.417577 117.311212 
L 361.677019 117.212014 
L 361.862334 117.20888 
L 362.121776 117.109526 
L 362.307092 117.106262 
L 362.585065 117.014849 
L 362.770381 117.016932 
L 363.122481 116.94646 
L 363.493112 116.801824 
L 363.567238 116.9291 
L 363.604302 116.896186 
L 363.863744 116.720754 
L 364.086122 116.746296 
L 364.345564 116.653014 
L 364.53088 116.655261 
L 364.790322 116.561732 
L 364.975638 116.563824 
L 365.23508 116.470085 
L 365.420395 116.472031 
L 365.679837 116.378087 
L 365.920748 116.400066 
L 366.606416 116.316522 
L 366.754668 116.30636 
L 367.01411 116.23524 
L 367.199426 116.251354 
L 367.458868 116.180076 
L 367.644184 116.196125 
L 367.903625 116.124709 
L 368.088941 116.140642 
L 368.348383 116.069062 
L 368.533699 116.084876 
L 368.793141 116.013114 
L 369.034051 116.034169 
L 369.719719 115.94768 
L 369.867972 115.936871 
L 370.127414 115.864566 
L 370.312729 115.879915 
L 370.572171 115.807445 
L 370.757487 115.822671 
L 370.924271 115.766922 
L 371.053992 115.903605 
L 371.202245 115.89249 
L 371.461687 115.819646 
L 371.647002 115.834613 
L 371.906444 115.761533 
L 372.202949 115.84485 
L 373.537222 116.359308 
L 373.907854 116.494283 
L 374.111701 116.546224 
L 374.352611 116.665036 
L 374.556458 116.716916 
L 374.797369 116.835654 
L 375.001216 116.887465 
L 375.27919 117.031536 
L 375.816605 117.196616 
L 375.890731 117.166008 
L 375.927795 117.205575 
L 376.131642 117.264021 
L 376.335489 117.294626 
L 376.576399 117.39392 
L 376.780247 117.42441 
L 377.021157 117.523605 
L 377.225004 117.553995 
L 377.447383 117.643517 
L 377.669762 117.651201 
L 377.892141 117.7392 
L 378.11452 117.746744 
L 378.429556 117.909054 
L 378.929909 118.051469 
L 379.004035 118.022018 
L 379.041098 118.060142 
L 379.244945 118.116905 
L 379.448793 118.148669 
L 379.689703 118.244834 
L 379.89355 118.276563 
L 380.134461 118.372639 
L 380.338308 118.404283 
L 380.579218 118.500254 
L 380.783065 118.531859 
L 381.023976 118.627822 
L 381.227823 118.659417 
L 381.468733 118.750751 
L 381.728175 118.735937 
L 381.913491 118.776827 
L 382.172933 118.763681 
L 382.321186 118.779006 
L 382.580628 118.751453 
L 382.765943 118.800098 
L 383.025385 118.772573 
L 383.210701 118.821197 
L 383.451611 118.779444 
L 383.599864 118.99615 
L 383.748116 119.014325 
L 384.229937 119.237188 
L 384.6191 119.464623 
L 385.601273 120.044756 
L 385.712463 120.119093 
L 386.046031 120.316773 
L 386.15722 120.391233 
L 386.490788 120.589339 
L 386.601978 120.663921 
L 386.935546 120.862369 
L 387.046736 120.937073 
L 387.380304 121.135831 
L 387.491493 121.199089 
L 387.80653 121.442577 
L 388.010377 121.595708 
L 388.584856 121.958668 
L 388.844298 122.142661 
L 389.10374 122.315054 
L 390.215634 123.279544 
L 391.031023 127.703961 
L 391.031023 127.703961 
" clip-path="url(#p5b2181bda1)" style="fill: none; stroke: #1f77b4; stroke-width: 1.5; stroke-linecap: square"/>
   </g>
   <g id="line2d_20">
    <path clip-path="url(#p5b2181bda1)" style="fill: none; stroke: #000000; stroke-width: 1.5; stroke-linecap: square"/>
   </g>
   <g id="line2d_21">
    <path d="M 50.14375 34.414125 
L 407.26375 34.414125 
" clip-path="url(#p5b2181bda1)" style="fill: none; stroke: #ff0000; stroke-width: 1.5; stroke-linecap: square"/>
   </g>
   <g id="line2d_22">
    <path d="M 50.14375 66.362699 
L 407.26375 66.362699 
" clip-path="url(#p5b2181bda1)" style="fill: none; stroke-dasharray: 5.55,2.4; stroke-dashoffset: 0; stroke: #ff00ff; stroke-width: 1.5"/>
   </g>
   <g id="patch_3">
    <path d="M 50.14375 288.430125 
L 50.14375 22.318125 
" style="fill: none; stroke: #000000; stroke-width: 0.8; stroke-linejoin: miter; stroke-linecap: square"/>
   </g>
   <g id="patch_4">
    <path d="M 407.26375 288.430125 
L 407.26375 22.318125 
" style="fill: none; stroke: #000000; stroke-width: 0.8; stroke-linejoin: miter; stroke-linecap: square"/>
   </g>
   <g id="patch_5">
    <path d="M 50.14375 288.430125 
L 407.26375 288.430125 
" style="fill: none; stroke: #000000; stroke-width: 0.8; stroke-linejoin: miter; stroke-linecap: square"/>
   </g>
   <g id="patch_6">
    <path d="M 50.14375 22.318125 
L 407.26375 22.318125 
" style="fill: none; stroke: #000000; stroke-width: 0.8; stroke-linejoin: miter; stroke-linecap: square"/>
   </g>
   <g id="text_22">
    <!-- loc_techs_store = Moz-North-Center::storageD -->
    <g transform="translate(89.127813 16.318125)scale(0.12 -0.12)">
     <defs>
      <path id="DejaVuSans-6c" d="M 603 4863 
L 1178 4863 
L 1178 0 
L 603 0 
L 603 4863 
z
" transform="scale(0.015625)"/>
      <path id="DejaVuSans-63" d="M 3122 3366 
L 3122 2828 
Q 2878 2963 2633 3030 
Q 2388 3097 2138 3097 
Q 1578 3097 1268 2742 
Q 959 2388 959 1747 
Q 959 1106 1268 751 
Q 1578 397 2138 397 
Q 2388 397 2633 464 
Q 2878 531 3122 666 
L 3122 134 
Q 2881 22 2623 -34 
Q 2366 -91 2075 -91 
Q 1284 -91 818 406 
Q 353 903 353 1747 
Q 353 2603 823 3093 
Q 1294 3584 2113 3584 
Q 2378 3584 2631 3529 
Q 2884 3475 3122 3366 
z
" transform="scale(0.015625)"/>
      <path id="DejaVuSans-5f" d="M 3263 -1063 
L 3263 -1509 
L -63 -1509 
L -63 -1063 
L 3263 -1063 
z
" transform="scale(0.015625)"/>
      <path id="DejaVuSans-68" d="M 3513 2113 
L 3513 0 
L 2938 0 
L 2938 2094 
Q 2938 2591 2744 2837 
Q 2550 3084 2163 3084 
Q 1697 3084 1428 2787 
Q 1159 2491 1159 1978 
L 1159 0 
L 581 0 
L 581 4863 
L 1159 4863 
L 1159 2956 
Q 1366 3272 1645 3428 
Q 1925 3584 2291 3584 
Q 2894 3584 3203 3211 
Q 3513 2838 3513 2113 
z
" transform="scale(0.015625)"/>
      <path id="DejaVuSans-20" transform="scale(0.015625)"/>
      <path id="DejaVuSans-3d" d="M 678 2906 
L 4684 2906 
L 4684 2381 
L 678 2381 
L 678 2906 
z
M 678 1631 
L 4684 1631 
L 4684 1100 
L 678 1100 
L 678 1631 
z
" transform="scale(0.015625)"/>
      <path id="DejaVuSans-4d" d="M 628 4666 
L 1569 4666 
L 2759 1491 
L 3956 4666 
L 4897 4666 
L 4897 0 
L 4281 0 
L 4281 4097 
L 3078 897 
L 2444 897 
L 1241 4097 
L 1241 0 
L 628 0 
L 628 4666 
z
" transform="scale(0.015625)"/>
      <path id="DejaVuSans-7a" d="M 353 3500 
L 3084 3500 
L 3084 2975 
L 922 459 
L 3084 459 
L 3084 0 
L 275 0 
L 275 525 
L 2438 3041 
L 353 3041 
L 353 3500 
z
" transform="scale(0.015625)"/>
      <path id="DejaVuSans-4e" d="M 628 4666 
L 1478 4666 
L 3547 763 
L 3547 4666 
L 4159 4666 
L 4159 0 
L 3309 0 
L 1241 3903 
L 1241 0 
L 628 0 
L 628 4666 
z
" transform="scale(0.015625)"/>
      <path id="DejaVuSans-43" d="M 4122 4306 
L 4122 3641 
Q 3803 3938 3442 4084 
Q 3081 4231 2675 4231 
Q 1875 4231 1450 3742 
Q 1025 3253 1025 2328 
Q 1025 1406 1450 917 
Q 1875 428 2675 428 
Q 3081 428 3442 575 
Q 3803 722 4122 1019 
L 4122 359 
Q 3791 134 3420 21 
Q 3050 -91 2638 -91 
Q 1578 -91 968 557 
Q 359 1206 359 2328 
Q 359 3453 968 4101 
Q 1578 4750 2638 4750 
Q 3056 4750 3426 4639 
Q 3797 4528 4122 4306 
z
" transform="scale(0.015625)"/>
      <path id="DejaVuSans-6e" d="M 3513 2113 
L 3513 0 
L 2938 0 
L 2938 2094 
Q 2938 2591 2744 2837 
Q 2550 3084 2163 3084 
Q 1697 3084 1428 2787 
Q 1159 2491 1159 1978 
L 1159 0 
L 581 0 
L 581 3500 
L 1159 3500 
L 1159 2956 
Q 1366 3272 1645 3428 
Q 1925 3584 2291 3584 
Q 2894 3584 3203 3211 
Q 3513 2838 3513 2113 
z
" transform="scale(0.015625)"/>
      <path id="DejaVuSans-3a" d="M 750 794 
L 1409 794 
L 1409 0 
L 750 0 
L 750 794 
z
M 750 3309 
L 1409 3309 
L 1409 2516 
L 750 2516 
L 750 3309 
z
" transform="scale(0.015625)"/>
      <path id="DejaVuSans-44" d="M 1259 4147 
L 1259 519 
L 2022 519 
Q 2988 519 3436 956 
Q 3884 1394 3884 2338 
Q 3884 3275 3436 3711 
Q 2988 4147 2022 4147 
L 1259 4147 
z
M 628 4666 
L 1925 4666 
Q 3281 4666 3915 4102 
Q 4550 3538 4550 2338 
Q 4550 1131 3912 565 
Q 3275 0 1925 0 
L 628 0 
L 628 4666 
z
" transform="scale(0.015625)"/>
     </defs>
     <use xlink:href="#DejaVuSans-6c"/>
     <use xlink:href="#DejaVuSans-6f" x="27.783203"/>
     <use xlink:href="#DejaVuSans-63" x="88.964844"/>
     <use xlink:href="#DejaVuSans-5f" x="143.945312"/>
     <use xlink:href="#DejaVuSans-74" x="193.945312"/>
     <use xlink:href="#DejaVuSans-65" x="233.154297"/>
     <use xlink:href="#DejaVuSans-63" x="294.677734"/>
     <use xlink:href="#DejaVuSans-68" x="349.658203"/>
     <use xlink:href="#DejaVuSans-73" x="413.037109"/>
     <use xlink:href="#DejaVuSans-5f" x="465.136719"/>
     <use xlink:href="#DejaVuSans-73" x="515.136719"/>
     <use xlink:href="#DejaVuSans-74" x="567.236328"/>
     <use xlink:href="#DejaVuSans-6f" x="606.445312"/>
     <use xlink:href="#DejaVuSans-72" x="667.626953"/>
     <use xlink:href="#DejaVuSans-65" x="706.490234"/>
     <use xlink:href="#DejaVuSans-20" x="768.013672"/>
     <use xlink:href="#DejaVuSans-3d" x="799.800781"/>
     <use xlink:href="#DejaVuSans-20" x="883.589844"/>
     <use xlink:href="#DejaVuSans-4d" x="915.376953"/>
     <use xlink:href="#DejaVuSans-6f" x="1001.65625"/>
     <use xlink:href="#DejaVuSans-7a" x="1062.837891"/>
     <use xlink:href="#DejaVuSans-2d" x="1115.328125"/>
     <use xlink:href="#DejaVuSans-4e" x="1151.412109"/>
     <use xlink:href="#DejaVuSans-6f" x="1226.216797"/>
     <use xlink:href="#DejaVuSans-72" x="1287.398438"/>
     <use xlink:href="#DejaVuSans-74" x="1328.511719"/>
     <use xlink:href="#DejaVuSans-68" x="1367.720703"/>
     <use xlink:href="#DejaVuSans-2d" x="1431.099609"/>
     <use xlink:href="#DejaVuSans-43" x="1467.183594"/>
     <use xlink:href="#DejaVuSans-65" x="1537.007812"/>
     <use xlink:href="#DejaVuSans-6e" x="1598.53125"/>
     <use xlink:href="#DejaVuSans-74" x="1661.910156"/>
     <use xlink:href="#DejaVuSans-65" x="1701.119141"/>
     <use xlink:href="#DejaVuSans-72" x="1762.642578"/>
     <use xlink:href="#DejaVuSans-3a" x="1802.005859"/>
     <use xlink:href="#DejaVuSans-3a" x="1835.697266"/>
     <use xlink:href="#DejaVuSans-73" x="1869.388672"/>
     <use xlink:href="#DejaVuSans-74" x="1921.488281"/>
     <use xlink:href="#DejaVuSans-6f" x="1960.697266"/>
     <use xlink:href="#DejaVuSans-72" x="2021.878906"/>
     <use xlink:href="#DejaVuSans-61" x="2062.992188"/>
     <use xlink:href="#DejaVuSans-67" x="2124.271484"/>
     <use xlink:href="#DejaVuSans-65" x="2187.748047"/>
     <use xlink:href="#DejaVuSans-44" x="2249.271484"/>
    </g>
   </g>
   <g id="legend_1">
    <g id="patch_7">
     <path d="M 428.54855 89.865 
L 552.29855 89.865 
Q 554.29855 89.865 554.29855 87.865 
L 554.29855 29.318125 
Q 554.29855 27.318125 552.29855 27.318125 
L 428.54855 27.318125 
Q 426.54855 27.318125 426.54855 29.318125 
L 426.54855 87.865 
Q 426.54855 89.865 428.54855 89.865 
z
" style="fill: #ffffff; opacity: 0.8; stroke: #cccccc; stroke-linejoin: miter"/>
    </g>
    <g id="line2d_23">
     <path d="M 430.54855 35.416562 
L 440.54855 35.416562 
L 450.54855 35.416562 
" style="fill: none; stroke: #1f77b4; stroke-width: 1.5; stroke-linecap: square"/>
    </g>
    <g id="text_23">
     <!-- Storage -->
     <g transform="translate(458.54855 38.916562)scale(0.1 -0.1)">
      <defs>
       <path id="DejaVuSans-53" d="M 3425 4513 
L 3425 3897 
Q 3066 4069 2747 4153 
Q 2428 4238 2131 4238 
Q 1616 4238 1336 4038 
Q 1056 3838 1056 3469 
Q 1056 3159 1242 3001 
Q 1428 2844 1947 2747 
L 2328 2669 
Q 3034 2534 3370 2195 
Q 3706 1856 3706 1288 
Q 3706 609 3251 259 
Q 2797 -91 1919 -91 
Q 1588 -91 1214 -16 
Q 841 59 441 206 
L 441 856 
Q 825 641 1194 531 
Q 1563 422 1919 422 
Q 2459 422 2753 634 
Q 3047 847 3047 1241 
Q 3047 1584 2836 1778 
Q 2625 1972 2144 2069 
L 1759 2144 
Q 1053 2284 737 2584 
Q 422 2884 422 3419 
Q 422 4038 858 4394 
Q 1294 4750 2059 4750 
Q 2388 4750 2728 4690 
Q 3069 4631 3425 4513 
z
" transform="scale(0.015625)"/>
      </defs>
      <use xlink:href="#DejaVuSans-53"/>
      <use xlink:href="#DejaVuSans-74" x="63.476562"/>
      <use xlink:href="#DejaVuSans-6f" x="102.685547"/>
      <use xlink:href="#DejaVuSans-72" x="163.867188"/>
      <use xlink:href="#DejaVuSans-61" x="204.980469"/>
      <use xlink:href="#DejaVuSans-67" x="266.259766"/>
      <use xlink:href="#DejaVuSans-65" x="329.736328"/>
     </g>
    </g>
    <g id="line2d_24">
     <path d="M 430.54855 50.094687 
L 440.54855 50.094687 
L 450.54855 50.094687 
" style="fill: none; stroke: #000000; stroke-width: 1.5; stroke-linecap: square"/>
    </g>
    <g id="text_24">
     <!-- Storage_cap_max -->
     <g transform="translate(458.54855 53.594687)scale(0.1 -0.1)">
      <defs>
       <path id="DejaVuSans-78" d="M 3513 3500 
L 2247 1797 
L 3578 0 
L 2900 0 
L 1881 1375 
L 863 0 
L 184 0 
L 1544 1831 
L 300 3500 
L 978 3500 
L 1906 2253 
L 2834 3500 
L 3513 3500 
z
" transform="scale(0.015625)"/>
      </defs>
      <use xlink:href="#DejaVuSans-53"/>
      <use xlink:href="#DejaVuSans-74" x="63.476562"/>
      <use xlink:href="#DejaVuSans-6f" x="102.685547"/>
      <use xlink:href="#DejaVuSans-72" x="163.867188"/>
      <use xlink:href="#DejaVuSans-61" x="204.980469"/>
      <use xlink:href="#DejaVuSans-67" x="266.259766"/>
      <use xlink:href="#DejaVuSans-65" x="329.736328"/>
      <use xlink:href="#DejaVuSans-5f" x="391.259766"/>
      <use xlink:href="#DejaVuSans-63" x="441.259766"/>
      <use xlink:href="#DejaVuSans-61" x="496.240234"/>
      <use xlink:href="#DejaVuSans-70" x="557.519531"/>
      <use xlink:href="#DejaVuSans-5f" x="620.996094"/>
      <use xlink:href="#DejaVuSans-6d" x="670.996094"/>
      <use xlink:href="#DejaVuSans-61" x="768.408203"/>
      <use xlink:href="#DejaVuSans-78" x="829.6875"/>
     </g>
    </g>
    <g id="line2d_25">
     <path d="M 430.54855 65.050937 
L 440.54855 65.050937 
L 450.54855 65.050937 
" style="fill: none; stroke: #ff0000; stroke-width: 1.5; stroke-linecap: square"/>
    </g>
    <g id="text_25">
     <!-- Storage_cap -->
     <g transform="translate(458.54855 68.550937)scale(0.1 -0.1)">
      <use xlink:href="#DejaVuSans-53"/>
      <use xlink:href="#DejaVuSans-74" x="63.476562"/>
      <use xlink:href="#DejaVuSans-6f" x="102.685547"/>
      <use xlink:href="#DejaVuSans-72" x="163.867188"/>
      <use xlink:href="#DejaVuSans-61" x="204.980469"/>
      <use xlink:href="#DejaVuSans-67" x="266.259766"/>
      <use xlink:href="#DejaVuSans-65" x="329.736328"/>
      <use xlink:href="#DejaVuSans-5f" x="391.259766"/>
      <use xlink:href="#DejaVuSans-63" x="441.259766"/>
      <use xlink:href="#DejaVuSans-61" x="496.240234"/>
      <use xlink:href="#DejaVuSans-70" x="557.519531"/>
     </g>
    </g>
    <g id="line2d_26">
     <path d="M 430.54855 80.007187 
L 440.54855 80.007187 
L 450.54855 80.007187 
" style="fill: none; stroke-dasharray: 5.55,2.4; stroke-dashoffset: 0; stroke: #ff00ff; stroke-width: 1.5"/>
    </g>
    <g id="text_26">
     <!-- Spillage_threshold -->
     <g transform="translate(458.54855 83.507187)scale(0.1 -0.1)">
      <defs>
       <path id="DejaVuSans-64" d="M 2906 2969 
L 2906 4863 
L 3481 4863 
L 3481 0 
L 2906 0 
L 2906 525 
Q 2725 213 2448 61 
Q 2172 -91 1784 -91 
Q 1150 -91 751 415 
Q 353 922 353 1747 
Q 353 2572 751 3078 
Q 1150 3584 1784 3584 
Q 2172 3584 2448 3432 
Q 2725 3281 2906 2969 
z
M 947 1747 
Q 947 1113 1208 752 
Q 1469 391 1925 391 
Q 2381 391 2643 752 
Q 2906 1113 2906 1747 
Q 2906 2381 2643 2742 
Q 2381 3103 1925 3103 
Q 1469 3103 1208 2742 
Q 947 2381 947 1747 
z
" transform="scale(0.015625)"/>
      </defs>
      <use xlink:href="#DejaVuSans-53"/>
      <use xlink:href="#DejaVuSans-70" x="63.476562"/>
      <use xlink:href="#DejaVuSans-69" x="126.953125"/>
      <use xlink:href="#DejaVuSans-6c" x="154.736328"/>
      <use xlink:href="#DejaVuSans-6c" x="182.519531"/>
      <use xlink:href="#DejaVuSans-61" x="210.302734"/>
      <use xlink:href="#DejaVuSans-67" x="271.582031"/>
      <use xlink:href="#DejaVuSans-65" x="335.058594"/>
      <use xlink:href="#DejaVuSans-5f" x="396.582031"/>
      <use xlink:href="#DejaVuSans-74" x="446.582031"/>
      <use xlink:href="#DejaVuSans-68" x="485.791016"/>
      <use xlink:href="#DejaVuSans-72" x="549.169922"/>
      <use xlink:href="#DejaVuSans-65" x="588.033203"/>
      <use xlink:href="#DejaVuSans-73" x="649.556641"/>
      <use xlink:href="#DejaVuSans-68" x="701.65625"/>
      <use xlink:href="#DejaVuSans-6f" x="765.035156"/>
      <use xlink:href="#DejaVuSans-6c" x="826.216797"/>
      <use xlink:href="#DejaVuSans-64" x="854"/>
     </g>
    </g>
   </g>
  </g>
 </g>
 <defs>
  <clipPath id="p5b2181bda1">
   <rect x="50.14375" y="22.318125" width="357.12" height="266.112"/>
  </clipPath>
 </defs>
</svg>
