<?xml version="1.0" encoding="utf-8" standalone="no"?>
<!DOCTYPE svg PUBLIC "-//W3C//DTD SVG 1.1//EN"
  "http://www.w3.org/Graphics/SVG/1.1/DTD/svg11.dtd">
<svg xmlns:xlink="http://www.w3.org/1999/xlink" width="561.49855pt" height="345.581158pt" viewBox="0 0 561.49855 345.581158" xmlns="http://www.w3.org/2000/svg" version="1.1">
 <metadata>
  <rdf:RDF xmlns:dc="http://purl.org/dc/elements/1.1/" xmlns:cc="http://creativecommons.org/ns#" xmlns:rdf="http://www.w3.org/1999/02/22-rdf-syntax-ns#">
   <cc:Work>
    <dc:type rdf:resource="http://purl.org/dc/dcmitype/StillImage"/>
    <dc:date>2022-05-09T18:48:05.491137</dc:date>
    <dc:format>image/svg+xml</dc:format>
    <dc:creator>
     <cc:Agent>
      <dc:title>Matplotlib v3.5.1, https://matplotlib.org/</dc:title>
     </cc:Agent>
    </dc:creator>
   </cc:Work>
  </rdf:RDF>
 </metadata>
 <defs>
  <style type="text/css">*{stroke-linejoin: round; stroke-linecap: butt}</style>
 </defs>
 <g id="figure_1">
  <g id="patch_1">
   <path d="M 0 345.581158 
L 561.49855 345.581158 
L 561.49855 0 
L 0 0 
z
" style="fill: #ffffff"/>
  </g>
  <g id="axes_1">
   <g id="patch_2">
    <path d="M 50.14375 288.430125 
L 407.26375 288.430125 
L 407.26375 22.318125 
L 50.14375 22.318125 
z
" style="fill: #ffffff"/>
   </g>
   <g id="matplotlib.axis_1">
    <g id="xtick_1">
     <g id="line2d_1">
      <defs>
       <path id="md2e948abe3" d="M 0 0 
L 0 3.5 
" style="stroke: #000000; stroke-width: 0.8"/>
      </defs>
      <g>
       <use xlink:href="#md2e948abe3" x="66.376477" y="288.430125" style="stroke: #000000; stroke-width: 0.8"/>
      </g>
     </g>
     <g id="text_1">
      <!-- 2005-01 -->
      <g transform="translate(29.151656 322.901971)rotate(-30)scale(0.1 -0.1)">
       <defs>
        <path id="DejaVuSans-32" d="M 1228 531 
L 3431 531 
L 3431 0 
L 469 0 
L 469 531 
Q 828 903 1448 1529 
Q 2069 2156 2228 2338 
Q 2531 2678 2651 2914 
Q 2772 3150 2772 3378 
Q 2772 3750 2511 3984 
Q 2250 4219 1831 4219 
Q 1534 4219 1204 4116 
Q 875 4013 500 3803 
L 500 4441 
Q 881 4594 1212 4672 
Q 1544 4750 1819 4750 
Q 2544 4750 2975 4387 
Q 3406 4025 3406 3419 
Q 3406 3131 3298 2873 
Q 3191 2616 2906 2266 
Q 2828 2175 2409 1742 
Q 1991 1309 1228 531 
z
" transform="scale(0.015625)"/>
        <path id="DejaVuSans-30" d="M 2034 4250 
Q 1547 4250 1301 3770 
Q 1056 3291 1056 2328 
Q 1056 1369 1301 889 
Q 1547 409 2034 409 
Q 2525 409 2770 889 
Q 3016 1369 3016 2328 
Q 3016 3291 2770 3770 
Q 2525 4250 2034 4250 
z
M 2034 4750 
Q 2819 4750 3233 4129 
Q 3647 3509 3647 2328 
Q 3647 1150 3233 529 
Q 2819 -91 2034 -91 
Q 1250 -91 836 529 
Q 422 1150 422 2328 
Q 422 3509 836 4129 
Q 1250 4750 2034 4750 
z
" transform="scale(0.015625)"/>
        <path id="DejaVuSans-35" d="M 691 4666 
L 3169 4666 
L 3169 4134 
L 1269 4134 
L 1269 2991 
Q 1406 3038 1543 3061 
Q 1681 3084 1819 3084 
Q 2600 3084 3056 2656 
Q 3513 2228 3513 1497 
Q 3513 744 3044 326 
Q 2575 -91 1722 -91 
Q 1428 -91 1123 -41 
Q 819 9 494 109 
L 494 744 
Q 775 591 1075 516 
Q 1375 441 1709 441 
Q 2250 441 2565 725 
Q 2881 1009 2881 1497 
Q 2881 1984 2565 2268 
Q 2250 2553 1709 2553 
Q 1456 2553 1204 2497 
Q 953 2441 691 2322 
L 691 4666 
z
" transform="scale(0.015625)"/>
        <path id="DejaVuSans-2d" d="M 313 2009 
L 1997 2009 
L 1997 1497 
L 313 1497 
L 313 2009 
z
" transform="scale(0.015625)"/>
        <path id="DejaVuSans-31" d="M 794 531 
L 1825 531 
L 1825 4091 
L 703 3866 
L 703 4441 
L 1819 4666 
L 2450 4666 
L 2450 531 
L 3481 531 
L 3481 0 
L 794 0 
L 794 531 
z
" transform="scale(0.015625)"/>
       </defs>
       <use xlink:href="#DejaVuSans-32"/>
       <use xlink:href="#DejaVuSans-30" x="63.623047"/>
       <use xlink:href="#DejaVuSans-30" x="127.246094"/>
       <use xlink:href="#DejaVuSans-35" x="190.869141"/>
       <use xlink:href="#DejaVuSans-2d" x="254.492188"/>
       <use xlink:href="#DejaVuSans-30" x="290.576172"/>
       <use xlink:href="#DejaVuSans-31" x="354.199219"/>
      </g>
     </g>
    </g>
    <g id="xtick_2">
     <g id="line2d_2">
      <g>
       <use xlink:href="#md2e948abe3" x="106.404665" y="288.430125" style="stroke: #000000; stroke-width: 0.8"/>
      </g>
     </g>
     <g id="text_2">
      <!-- 2005-04 -->
      <g transform="translate(69.179844 322.901971)rotate(-30)scale(0.1 -0.1)">
       <defs>
        <path id="DejaVuSans-34" d="M 2419 4116 
L 825 1625 
L 2419 1625 
L 2419 4116 
z
M 2253 4666 
L 3047 4666 
L 3047 1625 
L 3713 1625 
L 3713 1100 
L 3047 1100 
L 3047 0 
L 2419 0 
L 2419 1100 
L 313 1100 
L 313 1709 
L 2253 4666 
z
" transform="scale(0.015625)"/>
       </defs>
       <use xlink:href="#DejaVuSans-32"/>
       <use xlink:href="#DejaVuSans-30" x="63.623047"/>
       <use xlink:href="#DejaVuSans-30" x="127.246094"/>
       <use xlink:href="#DejaVuSans-35" x="190.869141"/>
       <use xlink:href="#DejaVuSans-2d" x="254.492188"/>
       <use xlink:href="#DejaVuSans-30" x="290.576172"/>
       <use xlink:href="#DejaVuSans-34" x="354.199219"/>
      </g>
     </g>
    </g>
    <g id="xtick_3">
     <g id="line2d_3">
      <g>
       <use xlink:href="#md2e948abe3" x="146.87761" y="288.430125" style="stroke: #000000; stroke-width: 0.8"/>
      </g>
     </g>
     <g id="text_3">
      <!-- 2005-07 -->
      <g transform="translate(109.652789 322.901971)rotate(-30)scale(0.1 -0.1)">
       <defs>
        <path id="DejaVuSans-37" d="M 525 4666 
L 3525 4666 
L 3525 4397 
L 1831 0 
L 1172 0 
L 2766 4134 
L 525 4134 
L 525 4666 
z
" transform="scale(0.015625)"/>
       </defs>
       <use xlink:href="#DejaVuSans-32"/>
       <use xlink:href="#DejaVuSans-30" x="63.623047"/>
       <use xlink:href="#DejaVuSans-30" x="127.246094"/>
       <use xlink:href="#DejaVuSans-35" x="190.869141"/>
       <use xlink:href="#DejaVuSans-2d" x="254.492188"/>
       <use xlink:href="#DejaVuSans-30" x="290.576172"/>
       <use xlink:href="#DejaVuSans-37" x="354.199219"/>
      </g>
     </g>
    </g>
    <g id="xtick_4">
     <g id="line2d_4">
      <g>
       <use xlink:href="#md2e948abe3" x="187.795313" y="288.430125" style="stroke: #000000; stroke-width: 0.8"/>
      </g>
     </g>
     <g id="text_4">
      <!-- 2005-10 -->
      <g transform="translate(150.570492 322.901971)rotate(-30)scale(0.1 -0.1)">
       <use xlink:href="#DejaVuSans-32"/>
       <use xlink:href="#DejaVuSans-30" x="63.623047"/>
       <use xlink:href="#DejaVuSans-30" x="127.246094"/>
       <use xlink:href="#DejaVuSans-35" x="190.869141"/>
       <use xlink:href="#DejaVuSans-2d" x="254.492188"/>
       <use xlink:href="#DejaVuSans-31" x="290.576172"/>
       <use xlink:href="#DejaVuSans-30" x="354.199219"/>
      </g>
     </g>
    </g>
    <g id="xtick_5">
     <g id="line2d_5">
      <g>
       <use xlink:href="#md2e948abe3" x="228.713016" y="288.430125" style="stroke: #000000; stroke-width: 0.8"/>
      </g>
     </g>
     <g id="text_5">
      <!-- 2006-01 -->
      <g transform="translate(191.488195 322.901971)rotate(-30)scale(0.1 -0.1)">
       <defs>
        <path id="DejaVuSans-36" d="M 2113 2584 
Q 1688 2584 1439 2293 
Q 1191 2003 1191 1497 
Q 1191 994 1439 701 
Q 1688 409 2113 409 
Q 2538 409 2786 701 
Q 3034 994 3034 1497 
Q 3034 2003 2786 2293 
Q 2538 2584 2113 2584 
z
M 3366 4563 
L 3366 3988 
Q 3128 4100 2886 4159 
Q 2644 4219 2406 4219 
Q 1781 4219 1451 3797 
Q 1122 3375 1075 2522 
Q 1259 2794 1537 2939 
Q 1816 3084 2150 3084 
Q 2853 3084 3261 2657 
Q 3669 2231 3669 1497 
Q 3669 778 3244 343 
Q 2819 -91 2113 -91 
Q 1303 -91 875 529 
Q 447 1150 447 2328 
Q 447 3434 972 4092 
Q 1497 4750 2381 4750 
Q 2619 4750 2861 4703 
Q 3103 4656 3366 4563 
z
" transform="scale(0.015625)"/>
       </defs>
       <use xlink:href="#DejaVuSans-32"/>
       <use xlink:href="#DejaVuSans-30" x="63.623047"/>
       <use xlink:href="#DejaVuSans-30" x="127.246094"/>
       <use xlink:href="#DejaVuSans-36" x="190.869141"/>
       <use xlink:href="#DejaVuSans-2d" x="254.492188"/>
       <use xlink:href="#DejaVuSans-30" x="290.576172"/>
       <use xlink:href="#DejaVuSans-31" x="354.199219"/>
      </g>
     </g>
    </g>
    <g id="xtick_6">
     <g id="line2d_6">
      <g>
       <use xlink:href="#md2e948abe3" x="268.741203" y="288.430125" style="stroke: #000000; stroke-width: 0.8"/>
      </g>
     </g>
     <g id="text_6">
      <!-- 2006-04 -->
      <g transform="translate(231.516383 322.901971)rotate(-30)scale(0.1 -0.1)">
       <use xlink:href="#DejaVuSans-32"/>
       <use xlink:href="#DejaVuSans-30" x="63.623047"/>
       <use xlink:href="#DejaVuSans-30" x="127.246094"/>
       <use xlink:href="#DejaVuSans-36" x="190.869141"/>
       <use xlink:href="#DejaVuSans-2d" x="254.492188"/>
       <use xlink:href="#DejaVuSans-30" x="290.576172"/>
       <use xlink:href="#DejaVuSans-34" x="354.199219"/>
      </g>
     </g>
    </g>
    <g id="xtick_7">
     <g id="line2d_7">
      <g>
       <use xlink:href="#md2e948abe3" x="309.214149" y="288.430125" style="stroke: #000000; stroke-width: 0.8"/>
      </g>
     </g>
     <g id="text_7">
      <!-- 2006-07 -->
      <g transform="translate(271.989328 322.901971)rotate(-30)scale(0.1 -0.1)">
       <use xlink:href="#DejaVuSans-32"/>
       <use xlink:href="#DejaVuSans-30" x="63.623047"/>
       <use xlink:href="#DejaVuSans-30" x="127.246094"/>
       <use xlink:href="#DejaVuSans-36" x="190.869141"/>
       <use xlink:href="#DejaVuSans-2d" x="254.492188"/>
       <use xlink:href="#DejaVuSans-30" x="290.576172"/>
       <use xlink:href="#DejaVuSans-37" x="354.199219"/>
      </g>
     </g>
    </g>
    <g id="xtick_8">
     <g id="line2d_8">
      <g>
       <use xlink:href="#md2e948abe3" x="350.131851" y="288.430125" style="stroke: #000000; stroke-width: 0.8"/>
      </g>
     </g>
     <g id="text_8">
      <!-- 2006-10 -->
      <g transform="translate(312.907031 322.901971)rotate(-30)scale(0.1 -0.1)">
       <use xlink:href="#DejaVuSans-32"/>
       <use xlink:href="#DejaVuSans-30" x="63.623047"/>
       <use xlink:href="#DejaVuSans-30" x="127.246094"/>
       <use xlink:href="#DejaVuSans-36" x="190.869141"/>
       <use xlink:href="#DejaVuSans-2d" x="254.492188"/>
       <use xlink:href="#DejaVuSans-31" x="290.576172"/>
       <use xlink:href="#DejaVuSans-30" x="354.199219"/>
      </g>
     </g>
    </g>
    <g id="xtick_9">
     <g id="line2d_9">
      <g>
       <use xlink:href="#md2e948abe3" x="391.049554" y="288.430125" style="stroke: #000000; stroke-width: 0.8"/>
      </g>
     </g>
     <g id="text_9">
      <!-- 2007-01 -->
      <g transform="translate(353.824733 322.901971)rotate(-30)scale(0.1 -0.1)">
       <use xlink:href="#DejaVuSans-32"/>
       <use xlink:href="#DejaVuSans-30" x="63.623047"/>
       <use xlink:href="#DejaVuSans-30" x="127.246094"/>
       <use xlink:href="#DejaVuSans-37" x="190.869141"/>
       <use xlink:href="#DejaVuSans-2d" x="254.492188"/>
       <use xlink:href="#DejaVuSans-30" x="290.576172"/>
       <use xlink:href="#DejaVuSans-31" x="354.199219"/>
      </g>
     </g>
    </g>
    <g id="text_10">
     <!-- timesteps -->
     <g transform="translate(203.987344 336.301471)scale(0.1 -0.1)">
      <defs>
       <path id="DejaVuSans-74" d="M 1172 4494 
L 1172 3500 
L 2356 3500 
L 2356 3053 
L 1172 3053 
L 1172 1153 
Q 1172 725 1289 603 
Q 1406 481 1766 481 
L 2356 481 
L 2356 0 
L 1766 0 
Q 1100 0 847 248 
Q 594 497 594 1153 
L 594 3053 
L 172 3053 
L 172 3500 
L 594 3500 
L 594 4494 
L 1172 4494 
z
" transform="scale(0.015625)"/>
       <path id="DejaVuSans-69" d="M 603 3500 
L 1178 3500 
L 1178 0 
L 603 0 
L 603 3500 
z
M 603 4863 
L 1178 4863 
L 1178 4134 
L 603 4134 
L 603 4863 
z
" transform="scale(0.015625)"/>
       <path id="DejaVuSans-6d" d="M 3328 2828 
Q 3544 3216 3844 3400 
Q 4144 3584 4550 3584 
Q 5097 3584 5394 3201 
Q 5691 2819 5691 2113 
L 5691 0 
L 5113 0 
L 5113 2094 
Q 5113 2597 4934 2840 
Q 4756 3084 4391 3084 
Q 3944 3084 3684 2787 
Q 3425 2491 3425 1978 
L 3425 0 
L 2847 0 
L 2847 2094 
Q 2847 2600 2669 2842 
Q 2491 3084 2119 3084 
Q 1678 3084 1418 2786 
Q 1159 2488 1159 1978 
L 1159 0 
L 581 0 
L 581 3500 
L 1159 3500 
L 1159 2956 
Q 1356 3278 1631 3431 
Q 1906 3584 2284 3584 
Q 2666 3584 2933 3390 
Q 3200 3197 3328 2828 
z
" transform="scale(0.015625)"/>
       <path id="DejaVuSans-65" d="M 3597 1894 
L 3597 1613 
L 953 1613 
Q 991 1019 1311 708 
Q 1631 397 2203 397 
Q 2534 397 2845 478 
Q 3156 559 3463 722 
L 3463 178 
Q 3153 47 2828 -22 
Q 2503 -91 2169 -91 
Q 1331 -91 842 396 
Q 353 884 353 1716 
Q 353 2575 817 3079 
Q 1281 3584 2069 3584 
Q 2775 3584 3186 3129 
Q 3597 2675 3597 1894 
z
M 3022 2063 
Q 3016 2534 2758 2815 
Q 2500 3097 2075 3097 
Q 1594 3097 1305 2825 
Q 1016 2553 972 2059 
L 3022 2063 
z
" transform="scale(0.015625)"/>
       <path id="DejaVuSans-73" d="M 2834 3397 
L 2834 2853 
Q 2591 2978 2328 3040 
Q 2066 3103 1784 3103 
Q 1356 3103 1142 2972 
Q 928 2841 928 2578 
Q 928 2378 1081 2264 
Q 1234 2150 1697 2047 
L 1894 2003 
Q 2506 1872 2764 1633 
Q 3022 1394 3022 966 
Q 3022 478 2636 193 
Q 2250 -91 1575 -91 
Q 1294 -91 989 -36 
Q 684 19 347 128 
L 347 722 
Q 666 556 975 473 
Q 1284 391 1588 391 
Q 1994 391 2212 530 
Q 2431 669 2431 922 
Q 2431 1156 2273 1281 
Q 2116 1406 1581 1522 
L 1381 1569 
Q 847 1681 609 1914 
Q 372 2147 372 2553 
Q 372 3047 722 3315 
Q 1072 3584 1716 3584 
Q 2034 3584 2315 3537 
Q 2597 3491 2834 3397 
z
" transform="scale(0.015625)"/>
       <path id="DejaVuSans-70" d="M 1159 525 
L 1159 -1331 
L 581 -1331 
L 581 3500 
L 1159 3500 
L 1159 2969 
Q 1341 3281 1617 3432 
Q 1894 3584 2278 3584 
Q 2916 3584 3314 3078 
Q 3713 2572 3713 1747 
Q 3713 922 3314 415 
Q 2916 -91 2278 -91 
Q 1894 -91 1617 61 
Q 1341 213 1159 525 
z
M 3116 1747 
Q 3116 2381 2855 2742 
Q 2594 3103 2138 3103 
Q 1681 3103 1420 2742 
Q 1159 2381 1159 1747 
Q 1159 1113 1420 752 
Q 1681 391 2138 391 
Q 2594 391 2855 752 
Q 3116 1113 3116 1747 
z
" transform="scale(0.015625)"/>
      </defs>
      <use xlink:href="#DejaVuSans-74"/>
      <use xlink:href="#DejaVuSans-69" x="39.208984"/>
      <use xlink:href="#DejaVuSans-6d" x="66.992188"/>
      <use xlink:href="#DejaVuSans-65" x="164.404297"/>
      <use xlink:href="#DejaVuSans-73" x="225.927734"/>
      <use xlink:href="#DejaVuSans-74" x="278.027344"/>
      <use xlink:href="#DejaVuSans-65" x="317.236328"/>
      <use xlink:href="#DejaVuSans-70" x="378.759766"/>
      <use xlink:href="#DejaVuSans-73" x="442.236328"/>
     </g>
    </g>
   </g>
   <g id="matplotlib.axis_2">
    <g id="ytick_1">
     <g id="line2d_10">
      <defs>
       <path id="m2a84728fda" d="M 0 0 
L -3.5 0 
" style="stroke: #000000; stroke-width: 0.8"/>
      </defs>
      <g>
       <use xlink:href="#m2a84728fda" x="50.14375" y="267.464298" style="stroke: #000000; stroke-width: 0.8"/>
      </g>
     </g>
     <g id="text_11">
      <!-- 4.50 -->
      <g transform="translate(20.878125 271.263516)scale(0.1 -0.1)">
       <defs>
        <path id="DejaVuSans-2e" d="M 684 794 
L 1344 794 
L 1344 0 
L 684 0 
L 684 794 
z
" transform="scale(0.015625)"/>
       </defs>
       <use xlink:href="#DejaVuSans-34"/>
       <use xlink:href="#DejaVuSans-2e" x="63.623047"/>
       <use xlink:href="#DejaVuSans-35" x="95.410156"/>
       <use xlink:href="#DejaVuSans-30" x="159.033203"/>
      </g>
     </g>
    </g>
    <g id="ytick_2">
     <g id="line2d_11">
      <g>
       <use xlink:href="#m2a84728fda" x="50.14375" y="237.889403" style="stroke: #000000; stroke-width: 0.8"/>
      </g>
     </g>
     <g id="text_12">
      <!-- 4.75 -->
      <g transform="translate(20.878125 241.688621)scale(0.1 -0.1)">
       <use xlink:href="#DejaVuSans-34"/>
       <use xlink:href="#DejaVuSans-2e" x="63.623047"/>
       <use xlink:href="#DejaVuSans-37" x="95.410156"/>
       <use xlink:href="#DejaVuSans-35" x="159.033203"/>
      </g>
     </g>
    </g>
    <g id="ytick_3">
     <g id="line2d_12">
      <g>
       <use xlink:href="#m2a84728fda" x="50.14375" y="208.314508" style="stroke: #000000; stroke-width: 0.8"/>
      </g>
     </g>
     <g id="text_13">
      <!-- 5.00 -->
      <g transform="translate(20.878125 212.113726)scale(0.1 -0.1)">
       <use xlink:href="#DejaVuSans-35"/>
       <use xlink:href="#DejaVuSans-2e" x="63.623047"/>
       <use xlink:href="#DejaVuSans-30" x="95.410156"/>
       <use xlink:href="#DejaVuSans-30" x="159.033203"/>
      </g>
     </g>
    </g>
    <g id="ytick_4">
     <g id="line2d_13">
      <g>
       <use xlink:href="#m2a84728fda" x="50.14375" y="178.739613" style="stroke: #000000; stroke-width: 0.8"/>
      </g>
     </g>
     <g id="text_14">
      <!-- 5.25 -->
      <g transform="translate(20.878125 182.538831)scale(0.1 -0.1)">
       <use xlink:href="#DejaVuSans-35"/>
       <use xlink:href="#DejaVuSans-2e" x="63.623047"/>
       <use xlink:href="#DejaVuSans-32" x="95.410156"/>
       <use xlink:href="#DejaVuSans-35" x="159.033203"/>
      </g>
     </g>
    </g>
    <g id="ytick_5">
     <g id="line2d_14">
      <g>
       <use xlink:href="#m2a84728fda" x="50.14375" y="149.164718" style="stroke: #000000; stroke-width: 0.8"/>
      </g>
     </g>
     <g id="text_15">
      <!-- 5.50 -->
      <g transform="translate(20.878125 152.963936)scale(0.1 -0.1)">
       <use xlink:href="#DejaVuSans-35"/>
       <use xlink:href="#DejaVuSans-2e" x="63.623047"/>
       <use xlink:href="#DejaVuSans-35" x="95.410156"/>
       <use xlink:href="#DejaVuSans-30" x="159.033203"/>
      </g>
     </g>
    </g>
    <g id="ytick_6">
     <g id="line2d_15">
      <g>
       <use xlink:href="#m2a84728fda" x="50.14375" y="119.589823" style="stroke: #000000; stroke-width: 0.8"/>
      </g>
     </g>
     <g id="text_16">
      <!-- 5.75 -->
      <g transform="translate(20.878125 123.389041)scale(0.1 -0.1)">
       <use xlink:href="#DejaVuSans-35"/>
       <use xlink:href="#DejaVuSans-2e" x="63.623047"/>
       <use xlink:href="#DejaVuSans-37" x="95.410156"/>
       <use xlink:href="#DejaVuSans-35" x="159.033203"/>
      </g>
     </g>
    </g>
    <g id="ytick_7">
     <g id="line2d_16">
      <g>
       <use xlink:href="#m2a84728fda" x="50.14375" y="90.014928" style="stroke: #000000; stroke-width: 0.8"/>
      </g>
     </g>
     <g id="text_17">
      <!-- 6.00 -->
      <g transform="translate(20.878125 93.814146)scale(0.1 -0.1)">
       <use xlink:href="#DejaVuSans-36"/>
       <use xlink:href="#DejaVuSans-2e" x="63.623047"/>
       <use xlink:href="#DejaVuSans-30" x="95.410156"/>
       <use xlink:href="#DejaVuSans-30" x="159.033203"/>
      </g>
     </g>
    </g>
    <g id="ytick_8">
     <g id="line2d_17">
      <g>
       <use xlink:href="#m2a84728fda" x="50.14375" y="60.440033" style="stroke: #000000; stroke-width: 0.8"/>
      </g>
     </g>
     <g id="text_18">
      <!-- 6.25 -->
      <g transform="translate(20.878125 64.239251)scale(0.1 -0.1)">
       <use xlink:href="#DejaVuSans-36"/>
       <use xlink:href="#DejaVuSans-2e" x="63.623047"/>
       <use xlink:href="#DejaVuSans-32" x="95.410156"/>
       <use xlink:href="#DejaVuSans-35" x="159.033203"/>
      </g>
     </g>
    </g>
    <g id="ytick_9">
     <g id="line2d_18">
      <g>
       <use xlink:href="#m2a84728fda" x="50.14375" y="30.865138" style="stroke: #000000; stroke-width: 0.8"/>
      </g>
     </g>
     <g id="text_19">
      <!-- 6.50 -->
      <g transform="translate(20.878125 34.664356)scale(0.1 -0.1)">
       <use xlink:href="#DejaVuSans-36"/>
       <use xlink:href="#DejaVuSans-2e" x="63.623047"/>
       <use xlink:href="#DejaVuSans-35" x="95.410156"/>
       <use xlink:href="#DejaVuSans-30" x="159.033203"/>
      </g>
     </g>
    </g>
    <g id="text_20">
     <!-- storage -->
     <g transform="translate(14.798438 174.368656)rotate(-90)scale(0.1 -0.1)">
      <defs>
       <path id="DejaVuSans-6f" d="M 1959 3097 
Q 1497 3097 1228 2736 
Q 959 2375 959 1747 
Q 959 1119 1226 758 
Q 1494 397 1959 397 
Q 2419 397 2687 759 
Q 2956 1122 2956 1747 
Q 2956 2369 2687 2733 
Q 2419 3097 1959 3097 
z
M 1959 3584 
Q 2709 3584 3137 3096 
Q 3566 2609 3566 1747 
Q 3566 888 3137 398 
Q 2709 -91 1959 -91 
Q 1206 -91 779 398 
Q 353 888 353 1747 
Q 353 2609 779 3096 
Q 1206 3584 1959 3584 
z
" transform="scale(0.015625)"/>
       <path id="DejaVuSans-72" d="M 2631 2963 
Q 2534 3019 2420 3045 
Q 2306 3072 2169 3072 
Q 1681 3072 1420 2755 
Q 1159 2438 1159 1844 
L 1159 0 
L 581 0 
L 581 3500 
L 1159 3500 
L 1159 2956 
Q 1341 3275 1631 3429 
Q 1922 3584 2338 3584 
Q 2397 3584 2469 3576 
Q 2541 3569 2628 3553 
L 2631 2963 
z
" transform="scale(0.015625)"/>
       <path id="DejaVuSans-61" d="M 2194 1759 
Q 1497 1759 1228 1600 
Q 959 1441 959 1056 
Q 959 750 1161 570 
Q 1363 391 1709 391 
Q 2188 391 2477 730 
Q 2766 1069 2766 1631 
L 2766 1759 
L 2194 1759 
z
M 3341 1997 
L 3341 0 
L 2766 0 
L 2766 531 
Q 2569 213 2275 61 
Q 1981 -91 1556 -91 
Q 1019 -91 701 211 
Q 384 513 384 1019 
Q 384 1609 779 1909 
Q 1175 2209 1959 2209 
L 2766 2209 
L 2766 2266 
Q 2766 2663 2505 2880 
Q 2244 3097 1772 3097 
Q 1472 3097 1187 3025 
Q 903 2953 641 2809 
L 641 3341 
Q 956 3463 1253 3523 
Q 1550 3584 1831 3584 
Q 2591 3584 2966 3190 
Q 3341 2797 3341 1997 
z
" transform="scale(0.015625)"/>
       <path id="DejaVuSans-67" d="M 2906 1791 
Q 2906 2416 2648 2759 
Q 2391 3103 1925 3103 
Q 1463 3103 1205 2759 
Q 947 2416 947 1791 
Q 947 1169 1205 825 
Q 1463 481 1925 481 
Q 2391 481 2648 825 
Q 2906 1169 2906 1791 
z
M 3481 434 
Q 3481 -459 3084 -895 
Q 2688 -1331 1869 -1331 
Q 1566 -1331 1297 -1286 
Q 1028 -1241 775 -1147 
L 775 -588 
Q 1028 -725 1275 -790 
Q 1522 -856 1778 -856 
Q 2344 -856 2625 -561 
Q 2906 -266 2906 331 
L 2906 616 
Q 2728 306 2450 153 
Q 2172 0 1784 0 
Q 1141 0 747 490 
Q 353 981 353 1791 
Q 353 2603 747 3093 
Q 1141 3584 1784 3584 
Q 2172 3584 2450 3431 
Q 2728 3278 2906 2969 
L 2906 3500 
L 3481 3500 
L 3481 434 
z
" transform="scale(0.015625)"/>
      </defs>
      <use xlink:href="#DejaVuSans-73"/>
      <use xlink:href="#DejaVuSans-74" x="52.099609"/>
      <use xlink:href="#DejaVuSans-6f" x="91.308594"/>
      <use xlink:href="#DejaVuSans-72" x="152.490234"/>
      <use xlink:href="#DejaVuSans-61" x="193.603516"/>
      <use xlink:href="#DejaVuSans-67" x="254.882812"/>
      <use xlink:href="#DejaVuSans-65" x="318.359375"/>
     </g>
    </g>
    <g id="text_21">
     <!-- 1e10 -->
     <g transform="translate(50.14375 19.318125)scale(0.1 -0.1)">
      <use xlink:href="#DejaVuSans-31"/>
      <use xlink:href="#DejaVuSans-65" x="63.623047"/>
      <use xlink:href="#DejaVuSans-31" x="125.146484"/>
      <use xlink:href="#DejaVuSans-30" x="188.769531"/>
     </g>
    </g>
   </g>
   <g id="line2d_19">
    <path d="M 66.376477 209.315929 
L 66.710046 209.539172 
L 66.950956 209.704515 
L 68.65586 210.955159 
L 68.933834 211.182652 
L 69.24887 211.412729 
L 69.95307 211.939645 
L 70.286638 212.199581 
L 70.601675 212.448053 
L 72.047137 213.584351 
L 72.343642 213.812604 
L 72.881058 214.204692 
L 74.697151 215.56301 
L 75.234567 215.982348 
L 75.605198 216.247643 
L 75.790514 216.324939 
L 76.476182 216.544691 
L 76.995066 216.736976 
L 77.347166 216.824992 
L 78.366402 217.150762 
L 78.681439 217.239359 
L 79.181791 217.565086 
L 79.459765 217.754486 
L 80.404874 218.402104 
L 81.368516 218.735132 
L 81.776211 218.880201 
L 82.295094 219.099783 
L 82.517473 219.174214 
L 83.759088 219.749353 
L 84.037062 219.886997 
L 84.444756 220.079513 
L 84.945109 220.317408 
L 85.130424 220.367481 
L 85.816092 220.572709 
L 86.334976 220.776484 
L 86.631481 220.852499 
L 87.595123 221.151982 
L 88.002818 221.282733 
L 88.558765 221.504154 
L 89.411217 221.841014 
L 89.578001 221.871032 
L 89.837443 222.006204 
L 90.022758 222.056521 
L 90.2822 222.19172 
L 90.467516 222.242046 
L 90.726958 222.37722 
L 90.912274 222.427556 
L 91.171716 222.562843 
L 91.357031 222.606156 
L 92.042699 222.793658 
L 92.561583 222.981837 
L 92.839557 222.838379 
L 95.044813 221.650333 
L 95.71195 221.405272 
L 96.045518 221.258664 
L 96.267897 221.144655 
L 97.398323 220.729454 
L 97.546575 220.659292 
L 97.898675 220.536371 
L 98.714064 220.179415 
L 98.936443 220.066494 
L 100.066868 219.656838 
L 100.196589 219.599935 
L 100.493095 219.483561 
L 100.734005 219.362746 
L 101.493799 219.037045 
L 101.845899 218.875306 
L 101.97562 218.81274 
L 102.290657 218.681226 
L 102.420378 218.618653 
L 102.735414 218.487071 
L 102.865135 218.42449 
L 103.180172 218.29289 
L 103.309893 218.230302 
L 103.62493 218.098699 
L 103.791714 218.037236 
L 104.273534 217.806529 
L 106.404665 216.841728 
L 109.629158 202.244797 
L 110.648394 197.864426 
L 112.093856 191.903614 
L 112.575677 189.911999 
L 113.835824 184.528657 
L 114.50296 181.709457 
L 116.967659 171.416459 
L 117.152974 170.635955 
L 118.061021 166.909855 
L 120.377467 157.638271 
L 121.100199 154.95123 
L 121.859993 152.146238 
L 122.100903 151.210019 
L 122.508598 149.695456 
L 124.695323 142.04154 
L 125.325396 139.885512 
L 126.19638 136.998825 
L 128.271915 130.338507 
L 128.864926 128.51588 
L 130.884867 122.419752 
L 131.385219 120.859982 
L 132.089419 118.705131 
L 132.21914 118.298756 
L 132.793618 116.432562 
L 133.497818 114.238829 
L 133.64607 113.959887 
L 133.664602 113.965624 
L 133.812854 113.880148 
L 134.313207 113.452414 
L 134.405865 113.3742 
L 134.646775 113.155081 
L 136.092237 111.950699 
L 136.184895 111.87889 
L 136.407274 111.680056 
L 136.611121 111.545559 
L 136.889095 111.297227 
L 137.42651 110.859891 
L 137.519168 110.788037 
L 137.741547 110.589099 
L 137.945394 110.454487 
L 138.167773 110.276191 
L 138.48281 110.133459 
L 138.686657 110.062206 
L 139.057288 109.908236 
L 139.279667 109.858712 
L 139.520577 109.723305 
L 139.724425 109.668745 
L 139.965335 109.533318 
L 140.169182 109.478748 
L 140.410093 109.343305 
L 140.61394 109.288711 
L 140.85485 109.153241 
L 141.058698 109.098628 
L 141.336671 108.918217 
L 141.892618 108.682134 
L 141.985276 108.630968 
L 142.189123 108.541762 
L 142.392971 108.483211 
L 142.633881 108.343113 
L 142.837728 108.284546 
L 143.078639 108.144444 
L 143.282486 108.085882 
L 143.523396 107.945746 
L 143.727243 107.887152 
L 143.968154 107.74699 
L 144.172001 107.688364 
L 144.412911 107.533286 
L 144.63529 107.497444 
L 144.931795 107.345639 
L 145.432148 107.206584 
L 145.543337 107.14539 
L 145.747184 107.073947 
L 145.951032 107.033298 
L 146.191942 106.914565 
L 146.395789 106.873892 
L 146.6367 106.755138 
L 146.840547 106.714452 
L 146.87761 106.708268 
L 146.933205 106.763853 
L 147.081457 107.088835 
L 147.433557 107.690742 
L 148.008036 108.812175 
L 149.00874 110.756036 
L 149.323777 111.329444 
L 157.607388 126.960217 
L 157.737109 127.231697 
L 158.070677 127.78019 
L 158.311588 128.281503 
L 158.700751 128.986061 
L 159.201103 129.884442 
L 159.590266 130.589647 
L 160.146213 131.565229 
L 161.88818 135.357408 
L 162.221749 136.149673 
L 163.796932 139.577797 
L 164.000779 140.024152 
L 167.243804 146.820354 
L 167.595903 147.536653 
L 168.114787 148.650904 
L 168.429824 149.307439 
L 168.893113 150.308759 
L 171.228091 155.107911 
L 171.543128 155.741893 
L 171.876696 156.357465 
L 175.23091 163.395838 
L 175.508883 163.958033 
L 181.605769 177.019801 
L 181.902274 177.642506 
L 182.143185 178.133587 
L 183.829557 181.733707 
L 184.070468 182.268648 
L 185.015578 184.315439 
L 185.27502 184.886266 
L 188.165944 191.649441 
L 189.129586 194.019702 
L 189.463154 194.86525 
L 189.815254 195.743657 
L 191.260716 199.325679 
L 191.594284 200.10072 
L 193.558631 204.165102 
L 193.892199 204.763889 
L 198.080333 213.529414 
L 198.599217 214.602318 
L 199.321948 216.138616 
L 199.914959 217.302534 
L 200.322653 218.159854 
L 201.267763 220.126105 
L 202.027557 221.773622 
L 202.620568 223.039876 
L 203.639804 225.220369 
L 205.492961 229.165761 
L 205.863592 229.926516 
L 207.271991 232.900259 
L 207.753812 233.944408 
L 208.124443 234.692833 
L 208.773048 236.033866 
L 209.347527 237.28338 
L 210.014663 238.636935 
L 210.626205 239.805248 
L 211.62691 241.793625 
L 212.534957 243.574875 
L 213.776572 246.077236 
L 214.554898 247.629889 
L 218.557716 254.317412 
L 218.854221 254.82698 
L 219.688142 256.114473 
L 220.299684 257.120529 
L 220.596189 257.62649 
L 220.948289 258.207333 
L 221.504236 259.198277 
L 221.837804 259.779543 
L 228.787142 270.770523 
L 229.046584 270.948126 
L 229.2319 271.034509 
L 229.787847 271.313683 
L 230.454983 271.654633 
L 230.807083 271.807695 
L 231.233309 272.012805 
L 234.55046 273.732901 
L 234.828433 273.903284 
L 235.032281 273.980629 
L 238.127052 275.457574 
L 238.794189 275.499424 
L 241.555393 275.858813 
L 242.741413 276.237403 
L 243.723586 275.890912 
L 243.871839 275.824004 
L 244.168344 275.734611 
L 244.335128 275.664998 
L 244.650165 275.609793 
L 245.243175 275.410875 
L 245.521148 275.385573 
L 245.650869 275.327074 
L 245.947374 275.271082 
L 246.095627 275.221359 
L 246.392132 275.165401 
L 246.540385 275.115674 
L 246.83689 275.059687 
L 246.985142 275.009956 
L 247.281647 274.953957 
L 247.411368 274.913243 
L 247.763468 274.785612 
L 248.764173 274.360304 
L 249.079209 274.264652 
L 249.20893 274.187812 
L 249.523967 274.09209 
L 249.653688 274.015245 
L 249.968725 273.919575 
L 250.098446 273.842724 
L 250.413482 273.746993 
L 250.543203 273.677297 
L 250.876771 273.592913 
L 251.858945 273.27317 
L 252.15545 273.18715 
L 252.50755 273.095817 
L 253.526786 272.80972 
L 253.637975 272.756101 
L 254.008607 272.612102 
L 254.99078 271.968617 
L 256.399179 266.404028 
L 256.992189 264.121982 
L 259.271572 255.530579 
L 260.327871 251.534952 
L 261.736271 246.198821 
L 262.19956 244.469555 
L 263.107607 241.040129 
L 268.185256 221.691024 
L 268.667077 219.886128 
L 269.334214 216.789392 
L 279.619234 169.102592 
L 296.149393 93.335719 
L 297.094503 91.086698 
L 297.205692 90.812789 
L 297.594855 89.932642 
L 298.855002 86.957171 
L 299.021786 86.539329 
L 299.355354 85.851127 
L 300.504311 83.155136 
L 301.208511 81.811649 
L 301.560611 81.166953 
L 301.653269 80.948436 
L 302.005369 80.30358 
L 302.098026 80.085029 
L 302.450126 79.44003 
L 302.542784 79.221444 
L 302.894884 78.576293 
L 302.987542 78.357673 
L 303.339641 77.712364 
L 303.432299 77.499269 
L 303.784399 76.802372 
L 303.895588 76.563728 
L 304.247688 75.903025 
L 304.748041 74.910432 
L 305.081609 74.237868 
L 305.229861 73.932191 
L 305.526366 73.364689 
L 305.674619 73.058952 
L 305.971124 72.491299 
L 306.119377 72.1855 
L 306.415882 71.617706 
L 306.564134 71.318326 
L 306.897703 70.705372 
L 307.008892 70.475904 
L 307.34246 69.862799 
L 307.45365 69.630431 
L 307.750155 69.090435 
L 307.879876 68.843707 
L 308.231975 68.221919 
L 308.324633 68.00868 
L 308.676733 67.386736 
L 308.769391 67.173463 
L 309.121491 66.551368 
L 309.325338 66.418574 
L 309.34387 66.453388 
L 309.640375 66.794645 
L 309.862753 66.954721 
L 310.159259 67.216873 
L 310.28898 67.341348 
L 310.956116 68.032763 
L 311.159963 68.16672 
L 311.456468 68.457539 
L 311.586189 68.556682 
L 311.901226 68.876835 
L 312.030947 68.976005 
L 312.345984 69.29623 
L 312.475705 69.395425 
L 312.809273 69.722396 
L 312.957525 69.854487 
L 313.476409 70.367038 
L 313.865572 70.752958 
L 314.125014 70.988353 
L 314.254735 71.090115 
L 314.588303 71.417403 
L 314.699493 71.519823 
L 315.033061 71.847186 
L 315.14425 71.949631 
L 315.477819 72.277069 
L 315.589008 72.379538 
L 315.904045 72.702844 
L 316.070829 72.800355 
L 316.589713 73.211942 
L 316.941813 73.481923 
L 317.238318 73.722145 
L 317.368039 73.803494 
L 317.683075 74.069054 
L 317.812796 74.150423 
L 318.127833 74.416037 
L 318.257554 74.497428 
L 318.572591 74.763092 
L 318.702312 74.844503 
L 319.017348 75.110126 
L 319.184132 75.193673 
L 319.703016 75.566299 
L 320.036584 75.790005 
L 320.351621 76.030099 
L 320.481342 76.102366 
L 320.796379 76.342513 
L 320.9261 76.414799 
L 321.241136 76.654998 
L 321.370857 76.727301 
L 321.685894 76.967536 
L 321.815615 77.039859 
L 322.130652 77.279079 
L 322.297436 77.343935 
L 322.81632 77.660354 
L 323.001635 77.817925 
L 323.205483 78.200611 
L 323.539051 78.749453 
L 326.152002 83.367719 
L 326.281723 83.577124 
L 326.652354 84.102304 
L 327.78278 86.008444 
L 327.986627 86.259387 
L 328.709358 87.556952 
L 329.265306 88.435897 
L 329.395026 88.667904 
L 329.950974 89.628599 
L 330.432794 90.44232 
L 330.766363 91.016382 
L 331.266715 91.869043 
L 331.674409 92.501597 
L 332.786303 94.322234 
L 332.971619 94.617314 
L 333.490503 95.467209 
L 333.879666 96.092396 
L 334.213234 96.564762 
L 335.788418 99.117824 
L 335.973733 99.340768 
L 336.214644 99.77275 
L 336.603807 100.392534 
L 336.88178 100.796997 
L 341.477609 109.393572 
L 342.015025 110.370644 
L 342.274466 110.795269 
L 342.978666 112.093198 
L 343.219576 112.493541 
L 343.719929 113.38084 
L 344.109092 114.029493 
L 344.776228 115.262798 
L 344.980075 115.610217 
L 345.647212 116.841147 
L 345.888122 117.247053 
L 346.388475 118.148694 
L 346.740574 118.760957 
L 347.500369 120.186555 
L 347.741279 120.639024 
L 348.686389 122.527543 
L 348.945831 122.993646 
L 349.650031 124.427634 
L 349.890941 124.871183 
L 350.632204 126.402076 
L 350.873114 126.927406 
L 357.414758 141.448635 
L 358.118957 143.265991 
L 358.341336 143.843857 
L 358.989941 145.607344 
L 359.323509 146.458257 
L 359.990646 148.112636 
L 360.528061 149.500561 
L 361.213729 151.294368 
L 361.528766 152.058916 
L 362.455344 154.413147 
L 362.88157 155.470208 
L 366.143126 163.866963 
L 366.458163 164.607391 
L 367.01411 166.045811 
L 367.255021 166.643436 
L 373.314843 181.19118 
L 373.555754 181.704426 
L 374.593522 183.803777 
L 374.890027 184.389713 
L 376.001921 186.653678 
L 376.2243 187.16481 
L 377.243536 189.332333 
L 377.447383 189.644017 
L 377.799483 190.168736 
L 382.339717 197.652346 
L 382.84007 198.581375 
L 383.396017 199.61416 
L 383.581332 199.825403 
L 385.267705 202.140374 
L 385.601273 202.572904 
L 385.897778 202.938698 
L 386.583446 203.834885 
L 386.787294 204.076081 
L 387.472962 204.980028 
L 387.843593 205.42166 
L 388.140098 205.751839 
L 388.862829 206.63282 
L 389.066676 206.905276 
L 390.382418 208.50612 
L 391.031023 209.307633 
L 391.031023 209.307633 
" clip-path="url(#p570f796418)" style="fill: none; stroke: #1f77b4; stroke-width: 1.5; stroke-linecap: square"/>
   </g>
   <g id="line2d_20">
    <path clip-path="url(#p570f796418)" style="fill: none; stroke: #000000; stroke-width: 1.5; stroke-linecap: square"/>
   </g>
   <g id="line2d_21">
    <path d="M 50.14375 34.414125 
L 407.26375 34.414125 
" clip-path="url(#p570f796418)" style="fill: none; stroke: #ff0000; stroke-width: 1.5; stroke-linecap: square"/>
   </g>
   <g id="line2d_22">
    <path d="M 50.14375 72.684039 
L 407.26375 72.684039 
" clip-path="url(#p570f796418)" style="fill: none; stroke-dasharray: 5.55,2.4; stroke-dashoffset: 0; stroke: #ff00ff; stroke-width: 1.5"/>
   </g>
   <g id="patch_3">
    <path d="M 50.14375 288.430125 
L 50.14375 22.318125 
" style="fill: none; stroke: #000000; stroke-width: 0.8; stroke-linejoin: miter; stroke-linecap: square"/>
   </g>
   <g id="patch_4">
    <path d="M 407.26375 288.430125 
L 407.26375 22.318125 
" style="fill: none; stroke: #000000; stroke-width: 0.8; stroke-linejoin: miter; stroke-linecap: square"/>
   </g>
   <g id="patch_5">
    <path d="M 50.14375 288.430125 
L 407.26375 288.430125 
" style="fill: none; stroke: #000000; stroke-width: 0.8; stroke-linejoin: miter; stroke-linecap: square"/>
   </g>
   <g id="patch_6">
    <path d="M 50.14375 22.318125 
L 407.26375 22.318125 
" style="fill: none; stroke: #000000; stroke-width: 0.8; stroke-linejoin: miter; stroke-linecap: square"/>
   </g>
   <g id="text_22">
    <!-- loc_techs_store = Zambia::storageC -->
    <g transform="translate(119.971563 16.318125)scale(0.12 -0.12)">
     <defs>
      <path id="DejaVuSans-6c" d="M 603 4863 
L 1178 4863 
L 1178 0 
L 603 0 
L 603 4863 
z
" transform="scale(0.015625)"/>
      <path id="DejaVuSans-63" d="M 3122 3366 
L 3122 2828 
Q 2878 2963 2633 3030 
Q 2388 3097 2138 3097 
Q 1578 3097 1268 2742 
Q 959 2388 959 1747 
Q 959 1106 1268 751 
Q 1578 397 2138 397 
Q 2388 397 2633 464 
Q 2878 531 3122 666 
L 3122 134 
Q 2881 22 2623 -34 
Q 2366 -91 2075 -91 
Q 1284 -91 818 406 
Q 353 903 353 1747 
Q 353 2603 823 3093 
Q 1294 3584 2113 3584 
Q 2378 3584 2631 3529 
Q 2884 3475 3122 3366 
z
" transform="scale(0.015625)"/>
      <path id="DejaVuSans-5f" d="M 3263 -1063 
L 3263 -1509 
L -63 -1509 
L -63 -1063 
L 3263 -1063 
z
" transform="scale(0.015625)"/>
      <path id="DejaVuSans-68" d="M 3513 2113 
L 3513 0 
L 2938 0 
L 2938 2094 
Q 2938 2591 2744 2837 
Q 2550 3084 2163 3084 
Q 1697 3084 1428 2787 
Q 1159 2491 1159 1978 
L 1159 0 
L 581 0 
L 581 4863 
L 1159 4863 
L 1159 2956 
Q 1366 3272 1645 3428 
Q 1925 3584 2291 3584 
Q 2894 3584 3203 3211 
Q 3513 2838 3513 2113 
z
" transform="scale(0.015625)"/>
      <path id="DejaVuSans-20" transform="scale(0.015625)"/>
      <path id="DejaVuSans-3d" d="M 678 2906 
L 4684 2906 
L 4684 2381 
L 678 2381 
L 678 2906 
z
M 678 1631 
L 4684 1631 
L 4684 1100 
L 678 1100 
L 678 1631 
z
" transform="scale(0.015625)"/>
      <path id="DejaVuSans-5a" d="M 359 4666 
L 4025 4666 
L 4025 4184 
L 1075 531 
L 4097 531 
L 4097 0 
L 288 0 
L 288 481 
L 3238 4134 
L 359 4134 
L 359 4666 
z
" transform="scale(0.015625)"/>
      <path id="DejaVuSans-62" d="M 3116 1747 
Q 3116 2381 2855 2742 
Q 2594 3103 2138 3103 
Q 1681 3103 1420 2742 
Q 1159 2381 1159 1747 
Q 1159 1113 1420 752 
Q 1681 391 2138 391 
Q 2594 391 2855 752 
Q 3116 1113 3116 1747 
z
M 1159 2969 
Q 1341 3281 1617 3432 
Q 1894 3584 2278 3584 
Q 2916 3584 3314 3078 
Q 3713 2572 3713 1747 
Q 3713 922 3314 415 
Q 2916 -91 2278 -91 
Q 1894 -91 1617 61 
Q 1341 213 1159 525 
L 1159 0 
L 581 0 
L 581 4863 
L 1159 4863 
L 1159 2969 
z
" transform="scale(0.015625)"/>
      <path id="DejaVuSans-3a" d="M 750 794 
L 1409 794 
L 1409 0 
L 750 0 
L 750 794 
z
M 750 3309 
L 1409 3309 
L 1409 2516 
L 750 2516 
L 750 3309 
z
" transform="scale(0.015625)"/>
      <path id="DejaVuSans-43" d="M 4122 4306 
L 4122 3641 
Q 3803 3938 3442 4084 
Q 3081 4231 2675 4231 
Q 1875 4231 1450 3742 
Q 1025 3253 1025 2328 
Q 1025 1406 1450 917 
Q 1875 428 2675 428 
Q 3081 428 3442 575 
Q 3803 722 4122 1019 
L 4122 359 
Q 3791 134 3420 21 
Q 3050 -91 2638 -91 
Q 1578 -91 968 557 
Q 359 1206 359 2328 
Q 359 3453 968 4101 
Q 1578 4750 2638 4750 
Q 3056 4750 3426 4639 
Q 3797 4528 4122 4306 
z
" transform="scale(0.015625)"/>
     </defs>
     <use xlink:href="#DejaVuSans-6c"/>
     <use xlink:href="#DejaVuSans-6f" x="27.783203"/>
     <use xlink:href="#DejaVuSans-63" x="88.964844"/>
     <use xlink:href="#DejaVuSans-5f" x="143.945312"/>
     <use xlink:href="#DejaVuSans-74" x="193.945312"/>
     <use xlink:href="#DejaVuSans-65" x="233.154297"/>
     <use xlink:href="#DejaVuSans-63" x="294.677734"/>
     <use xlink:href="#DejaVuSans-68" x="349.658203"/>
     <use xlink:href="#DejaVuSans-73" x="413.037109"/>
     <use xlink:href="#DejaVuSans-5f" x="465.136719"/>
     <use xlink:href="#DejaVuSans-73" x="515.136719"/>
     <use xlink:href="#DejaVuSans-74" x="567.236328"/>
     <use xlink:href="#DejaVuSans-6f" x="606.445312"/>
     <use xlink:href="#DejaVuSans-72" x="667.626953"/>
     <use xlink:href="#DejaVuSans-65" x="706.490234"/>
     <use xlink:href="#DejaVuSans-20" x="768.013672"/>
     <use xlink:href="#DejaVuSans-3d" x="799.800781"/>
     <use xlink:href="#DejaVuSans-20" x="883.589844"/>
     <use xlink:href="#DejaVuSans-5a" x="915.376953"/>
     <use xlink:href="#DejaVuSans-61" x="983.882812"/>
     <use xlink:href="#DejaVuSans-6d" x="1045.162109"/>
     <use xlink:href="#DejaVuSans-62" x="1142.574219"/>
     <use xlink:href="#DejaVuSans-69" x="1206.050781"/>
     <use xlink:href="#DejaVuSans-61" x="1233.833984"/>
     <use xlink:href="#DejaVuSans-3a" x="1295.113281"/>
     <use xlink:href="#DejaVuSans-3a" x="1328.804688"/>
     <use xlink:href="#DejaVuSans-73" x="1362.496094"/>
     <use xlink:href="#DejaVuSans-74" x="1414.595703"/>
     <use xlink:href="#DejaVuSans-6f" x="1453.804688"/>
     <use xlink:href="#DejaVuSans-72" x="1514.986328"/>
     <use xlink:href="#DejaVuSans-61" x="1556.099609"/>
     <use xlink:href="#DejaVuSans-67" x="1617.378906"/>
     <use xlink:href="#DejaVuSans-65" x="1680.855469"/>
     <use xlink:href="#DejaVuSans-43" x="1742.378906"/>
    </g>
   </g>
   <g id="legend_1">
    <g id="patch_7">
     <path d="M 428.54855 89.865 
L 552.29855 89.865 
Q 554.29855 89.865 554.29855 87.865 
L 554.29855 29.318125 
Q 554.29855 27.318125 552.29855 27.318125 
L 428.54855 27.318125 
Q 426.54855 27.318125 426.54855 29.318125 
L 426.54855 87.865 
Q 426.54855 89.865 428.54855 89.865 
z
" style="fill: #ffffff; opacity: 0.8; stroke: #cccccc; stroke-linejoin: miter"/>
    </g>
    <g id="line2d_23">
     <path d="M 430.54855 35.416562 
L 440.54855 35.416562 
L 450.54855 35.416562 
" style="fill: none; stroke: #1f77b4; stroke-width: 1.5; stroke-linecap: square"/>
    </g>
    <g id="text_23">
     <!-- Storage -->
     <g transform="translate(458.54855 38.916562)scale(0.1 -0.1)">
      <defs>
       <path id="DejaVuSans-53" d="M 3425 4513 
L 3425 3897 
Q 3066 4069 2747 4153 
Q 2428 4238 2131 4238 
Q 1616 4238 1336 4038 
Q 1056 3838 1056 3469 
Q 1056 3159 1242 3001 
Q 1428 2844 1947 2747 
L 2328 2669 
Q 3034 2534 3370 2195 
Q 3706 1856 3706 1288 
Q 3706 609 3251 259 
Q 2797 -91 1919 -91 
Q 1588 -91 1214 -16 
Q 841 59 441 206 
L 441 856 
Q 825 641 1194 531 
Q 1563 422 1919 422 
Q 2459 422 2753 634 
Q 3047 847 3047 1241 
Q 3047 1584 2836 1778 
Q 2625 1972 2144 2069 
L 1759 2144 
Q 1053 2284 737 2584 
Q 422 2884 422 3419 
Q 422 4038 858 4394 
Q 1294 4750 2059 4750 
Q 2388 4750 2728 4690 
Q 3069 4631 3425 4513 
z
" transform="scale(0.015625)"/>
      </defs>
      <use xlink:href="#DejaVuSans-53"/>
      <use xlink:href="#DejaVuSans-74" x="63.476562"/>
      <use xlink:href="#DejaVuSans-6f" x="102.685547"/>
      <use xlink:href="#DejaVuSans-72" x="163.867188"/>
      <use xlink:href="#DejaVuSans-61" x="204.980469"/>
      <use xlink:href="#DejaVuSans-67" x="266.259766"/>
      <use xlink:href="#DejaVuSans-65" x="329.736328"/>
     </g>
    </g>
    <g id="line2d_24">
     <path d="M 430.54855 50.094687 
L 440.54855 50.094687 
L 450.54855 50.094687 
" style="fill: none; stroke: #000000; stroke-width: 1.5; stroke-linecap: square"/>
    </g>
    <g id="text_24">
     <!-- Storage_cap_max -->
     <g transform="translate(458.54855 53.594687)scale(0.1 -0.1)">
      <defs>
       <path id="DejaVuSans-78" d="M 3513 3500 
L 2247 1797 
L 3578 0 
L 2900 0 
L 1881 1375 
L 863 0 
L 184 0 
L 1544 1831 
L 300 3500 
L 978 3500 
L 1906 2253 
L 2834 3500 
L 3513 3500 
z
" transform="scale(0.015625)"/>
      </defs>
      <use xlink:href="#DejaVuSans-53"/>
      <use xlink:href="#DejaVuSans-74" x="63.476562"/>
      <use xlink:href="#DejaVuSans-6f" x="102.685547"/>
      <use xlink:href="#DejaVuSans-72" x="163.867188"/>
      <use xlink:href="#DejaVuSans-61" x="204.980469"/>
      <use xlink:href="#DejaVuSans-67" x="266.259766"/>
      <use xlink:href="#DejaVuSans-65" x="329.736328"/>
      <use xlink:href="#DejaVuSans-5f" x="391.259766"/>
      <use xlink:href="#DejaVuSans-63" x="441.259766"/>
      <use xlink:href="#DejaVuSans-61" x="496.240234"/>
      <use xlink:href="#DejaVuSans-70" x="557.519531"/>
      <use xlink:href="#DejaVuSans-5f" x="620.996094"/>
      <use xlink:href="#DejaVuSans-6d" x="670.996094"/>
      <use xlink:href="#DejaVuSans-61" x="768.408203"/>
      <use xlink:href="#DejaVuSans-78" x="829.6875"/>
     </g>
    </g>
    <g id="line2d_25">
     <path d="M 430.54855 65.050937 
L 440.54855 65.050937 
L 450.54855 65.050937 
" style="fill: none; stroke: #ff0000; stroke-width: 1.5; stroke-linecap: square"/>
    </g>
    <g id="text_25">
     <!-- Storage_cap -->
     <g transform="translate(458.54855 68.550937)scale(0.1 -0.1)">
      <use xlink:href="#DejaVuSans-53"/>
      <use xlink:href="#DejaVuSans-74" x="63.476562"/>
      <use xlink:href="#DejaVuSans-6f" x="102.685547"/>
      <use xlink:href="#DejaVuSans-72" x="163.867188"/>
      <use xlink:href="#DejaVuSans-61" x="204.980469"/>
      <use xlink:href="#DejaVuSans-67" x="266.259766"/>
      <use xlink:href="#DejaVuSans-65" x="329.736328"/>
      <use xlink:href="#DejaVuSans-5f" x="391.259766"/>
      <use xlink:href="#DejaVuSans-63" x="441.259766"/>
      <use xlink:href="#DejaVuSans-61" x="496.240234"/>
      <use xlink:href="#DejaVuSans-70" x="557.519531"/>
     </g>
    </g>
    <g id="line2d_26">
     <path d="M 430.54855 80.007187 
L 440.54855 80.007187 
L 450.54855 80.007187 
" style="fill: none; stroke-dasharray: 5.55,2.4; stroke-dashoffset: 0; stroke: #ff00ff; stroke-width: 1.5"/>
    </g>
    <g id="text_26">
     <!-- Spillage_threshold -->
     <g transform="translate(458.54855 83.507187)scale(0.1 -0.1)">
      <defs>
       <path id="DejaVuSans-64" d="M 2906 2969 
L 2906 4863 
L 3481 4863 
L 3481 0 
L 2906 0 
L 2906 525 
Q 2725 213 2448 61 
Q 2172 -91 1784 -91 
Q 1150 -91 751 415 
Q 353 922 353 1747 
Q 353 2572 751 3078 
Q 1150 3584 1784 3584 
Q 2172 3584 2448 3432 
Q 2725 3281 2906 2969 
z
M 947 1747 
Q 947 1113 1208 752 
Q 1469 391 1925 391 
Q 2381 391 2643 752 
Q 2906 1113 2906 1747 
Q 2906 2381 2643 2742 
Q 2381 3103 1925 3103 
Q 1469 3103 1208 2742 
Q 947 2381 947 1747 
z
" transform="scale(0.015625)"/>
      </defs>
      <use xlink:href="#DejaVuSans-53"/>
      <use xlink:href="#DejaVuSans-70" x="63.476562"/>
      <use xlink:href="#DejaVuSans-69" x="126.953125"/>
      <use xlink:href="#DejaVuSans-6c" x="154.736328"/>
      <use xlink:href="#DejaVuSans-6c" x="182.519531"/>
      <use xlink:href="#DejaVuSans-61" x="210.302734"/>
      <use xlink:href="#DejaVuSans-67" x="271.582031"/>
      <use xlink:href="#DejaVuSans-65" x="335.058594"/>
      <use xlink:href="#DejaVuSans-5f" x="396.582031"/>
      <use xlink:href="#DejaVuSans-74" x="446.582031"/>
      <use xlink:href="#DejaVuSans-68" x="485.791016"/>
      <use xlink:href="#DejaVuSans-72" x="549.169922"/>
      <use xlink:href="#DejaVuSans-65" x="588.033203"/>
      <use xlink:href="#DejaVuSans-73" x="649.556641"/>
      <use xlink:href="#DejaVuSans-68" x="701.65625"/>
      <use xlink:href="#DejaVuSans-6f" x="765.035156"/>
      <use xlink:href="#DejaVuSans-6c" x="826.216797"/>
      <use xlink:href="#DejaVuSans-64" x="854"/>
     </g>
    </g>
   </g>
  </g>
 </g>
 <defs>
  <clipPath id="p570f796418">
   <rect x="50.14375" y="22.318125" width="357.12" height="266.112"/>
  </clipPath>
 </defs>
</svg>
