<?xml version="1.0" encoding="utf-8" standalone="no"?>
<!DOCTYPE svg PUBLIC "-//W3C//DTD SVG 1.1//EN"
  "http://www.w3.org/Graphics/SVG/1.1/DTD/svg11.dtd">
<svg xmlns:xlink="http://www.w3.org/1999/xlink" width="545.595425pt" height="345.581158pt" viewBox="0 0 545.595425 345.581158" xmlns="http://www.w3.org/2000/svg" version="1.1">
 <metadata>
  <rdf:RDF xmlns:dc="http://purl.org/dc/elements/1.1/" xmlns:cc="http://creativecommons.org/ns#" xmlns:rdf="http://www.w3.org/1999/02/22-rdf-syntax-ns#">
   <cc:Work>
    <dc:type rdf:resource="http://purl.org/dc/dcmitype/StillImage"/>
    <dc:date>2022-05-09T18:48:05.935058</dc:date>
    <dc:format>image/svg+xml</dc:format>
    <dc:creator>
     <cc:Agent>
      <dc:title>Matplotlib v3.5.1, https://matplotlib.org/</dc:title>
     </cc:Agent>
    </dc:creator>
   </cc:Work>
  </rdf:RDF>
 </metadata>
 <defs>
  <style type="text/css">*{stroke-linejoin: round; stroke-linecap: butt}</style>
 </defs>
 <g id="figure_1">
  <g id="patch_1">
   <path d="M 0 345.581158 
L 545.595425 345.581158 
L 545.595425 0 
L 0 0 
z
" style="fill: #ffffff"/>
  </g>
  <g id="axes_1">
   <g id="patch_2">
    <path d="M 34.240625 288.430125 
L 391.360625 288.430125 
L 391.360625 22.318125 
L 34.240625 22.318125 
z
" style="fill: #ffffff"/>
   </g>
   <g id="matplotlib.axis_1">
    <g id="xtick_1">
     <g id="line2d_1">
      <defs>
       <path id="maf25aaeb71" d="M 0 0 
L 0 3.5 
" style="stroke: #000000; stroke-width: 0.8"/>
      </defs>
      <g>
       <use xlink:href="#maf25aaeb71" x="50.473352" y="288.430125" style="stroke: #000000; stroke-width: 0.8"/>
      </g>
     </g>
     <g id="text_1">
      <!-- 2005-01 -->
      <g transform="translate(13.248531 322.901971)rotate(-30)scale(0.1 -0.1)">
       <defs>
        <path id="DejaVuSans-32" d="M 1228 531 
L 3431 531 
L 3431 0 
L 469 0 
L 469 531 
Q 828 903 1448 1529 
Q 2069 2156 2228 2338 
Q 2531 2678 2651 2914 
Q 2772 3150 2772 3378 
Q 2772 3750 2511 3984 
Q 2250 4219 1831 4219 
Q 1534 4219 1204 4116 
Q 875 4013 500 3803 
L 500 4441 
Q 881 4594 1212 4672 
Q 1544 4750 1819 4750 
Q 2544 4750 2975 4387 
Q 3406 4025 3406 3419 
Q 3406 3131 3298 2873 
Q 3191 2616 2906 2266 
Q 2828 2175 2409 1742 
Q 1991 1309 1228 531 
z
" transform="scale(0.015625)"/>
        <path id="DejaVuSans-30" d="M 2034 4250 
Q 1547 4250 1301 3770 
Q 1056 3291 1056 2328 
Q 1056 1369 1301 889 
Q 1547 409 2034 409 
Q 2525 409 2770 889 
Q 3016 1369 3016 2328 
Q 3016 3291 2770 3770 
Q 2525 4250 2034 4250 
z
M 2034 4750 
Q 2819 4750 3233 4129 
Q 3647 3509 3647 2328 
Q 3647 1150 3233 529 
Q 2819 -91 2034 -91 
Q 1250 -91 836 529 
Q 422 1150 422 2328 
Q 422 3509 836 4129 
Q 1250 4750 2034 4750 
z
" transform="scale(0.015625)"/>
        <path id="DejaVuSans-35" d="M 691 4666 
L 3169 4666 
L 3169 4134 
L 1269 4134 
L 1269 2991 
Q 1406 3038 1543 3061 
Q 1681 3084 1819 3084 
Q 2600 3084 3056 2656 
Q 3513 2228 3513 1497 
Q 3513 744 3044 326 
Q 2575 -91 1722 -91 
Q 1428 -91 1123 -41 
Q 819 9 494 109 
L 494 744 
Q 775 591 1075 516 
Q 1375 441 1709 441 
Q 2250 441 2565 725 
Q 2881 1009 2881 1497 
Q 2881 1984 2565 2268 
Q 2250 2553 1709 2553 
Q 1456 2553 1204 2497 
Q 953 2441 691 2322 
L 691 4666 
z
" transform="scale(0.015625)"/>
        <path id="DejaVuSans-2d" d="M 313 2009 
L 1997 2009 
L 1997 1497 
L 313 1497 
L 313 2009 
z
" transform="scale(0.015625)"/>
        <path id="DejaVuSans-31" d="M 794 531 
L 1825 531 
L 1825 4091 
L 703 3866 
L 703 4441 
L 1819 4666 
L 2450 4666 
L 2450 531 
L 3481 531 
L 3481 0 
L 794 0 
L 794 531 
z
" transform="scale(0.015625)"/>
       </defs>
       <use xlink:href="#DejaVuSans-32"/>
       <use xlink:href="#DejaVuSans-30" x="63.623047"/>
       <use xlink:href="#DejaVuSans-30" x="127.246094"/>
       <use xlink:href="#DejaVuSans-35" x="190.869141"/>
       <use xlink:href="#DejaVuSans-2d" x="254.492188"/>
       <use xlink:href="#DejaVuSans-30" x="290.576172"/>
       <use xlink:href="#DejaVuSans-31" x="354.199219"/>
      </g>
     </g>
    </g>
    <g id="xtick_2">
     <g id="line2d_2">
      <g>
       <use xlink:href="#maf25aaeb71" x="90.50154" y="288.430125" style="stroke: #000000; stroke-width: 0.8"/>
      </g>
     </g>
     <g id="text_2">
      <!-- 2005-04 -->
      <g transform="translate(53.276719 322.901971)rotate(-30)scale(0.1 -0.1)">
       <defs>
        <path id="DejaVuSans-34" d="M 2419 4116 
L 825 1625 
L 2419 1625 
L 2419 4116 
z
M 2253 4666 
L 3047 4666 
L 3047 1625 
L 3713 1625 
L 3713 1100 
L 3047 1100 
L 3047 0 
L 2419 0 
L 2419 1100 
L 313 1100 
L 313 1709 
L 2253 4666 
z
" transform="scale(0.015625)"/>
       </defs>
       <use xlink:href="#DejaVuSans-32"/>
       <use xlink:href="#DejaVuSans-30" x="63.623047"/>
       <use xlink:href="#DejaVuSans-30" x="127.246094"/>
       <use xlink:href="#DejaVuSans-35" x="190.869141"/>
       <use xlink:href="#DejaVuSans-2d" x="254.492188"/>
       <use xlink:href="#DejaVuSans-30" x="290.576172"/>
       <use xlink:href="#DejaVuSans-34" x="354.199219"/>
      </g>
     </g>
    </g>
    <g id="xtick_3">
     <g id="line2d_3">
      <g>
       <use xlink:href="#maf25aaeb71" x="130.974485" y="288.430125" style="stroke: #000000; stroke-width: 0.8"/>
      </g>
     </g>
     <g id="text_3">
      <!-- 2005-07 -->
      <g transform="translate(93.749664 322.901971)rotate(-30)scale(0.1 -0.1)">
       <defs>
        <path id="DejaVuSans-37" d="M 525 4666 
L 3525 4666 
L 3525 4397 
L 1831 0 
L 1172 0 
L 2766 4134 
L 525 4134 
L 525 4666 
z
" transform="scale(0.015625)"/>
       </defs>
       <use xlink:href="#DejaVuSans-32"/>
       <use xlink:href="#DejaVuSans-30" x="63.623047"/>
       <use xlink:href="#DejaVuSans-30" x="127.246094"/>
       <use xlink:href="#DejaVuSans-35" x="190.869141"/>
       <use xlink:href="#DejaVuSans-2d" x="254.492188"/>
       <use xlink:href="#DejaVuSans-30" x="290.576172"/>
       <use xlink:href="#DejaVuSans-37" x="354.199219"/>
      </g>
     </g>
    </g>
    <g id="xtick_4">
     <g id="line2d_4">
      <g>
       <use xlink:href="#maf25aaeb71" x="171.892188" y="288.430125" style="stroke: #000000; stroke-width: 0.8"/>
      </g>
     </g>
     <g id="text_4">
      <!-- 2005-10 -->
      <g transform="translate(134.667367 322.901971)rotate(-30)scale(0.1 -0.1)">
       <use xlink:href="#DejaVuSans-32"/>
       <use xlink:href="#DejaVuSans-30" x="63.623047"/>
       <use xlink:href="#DejaVuSans-30" x="127.246094"/>
       <use xlink:href="#DejaVuSans-35" x="190.869141"/>
       <use xlink:href="#DejaVuSans-2d" x="254.492188"/>
       <use xlink:href="#DejaVuSans-31" x="290.576172"/>
       <use xlink:href="#DejaVuSans-30" x="354.199219"/>
      </g>
     </g>
    </g>
    <g id="xtick_5">
     <g id="line2d_5">
      <g>
       <use xlink:href="#maf25aaeb71" x="212.809891" y="288.430125" style="stroke: #000000; stroke-width: 0.8"/>
      </g>
     </g>
     <g id="text_5">
      <!-- 2006-01 -->
      <g transform="translate(175.58507 322.901971)rotate(-30)scale(0.1 -0.1)">
       <defs>
        <path id="DejaVuSans-36" d="M 2113 2584 
Q 1688 2584 1439 2293 
Q 1191 2003 1191 1497 
Q 1191 994 1439 701 
Q 1688 409 2113 409 
Q 2538 409 2786 701 
Q 3034 994 3034 1497 
Q 3034 2003 2786 2293 
Q 2538 2584 2113 2584 
z
M 3366 4563 
L 3366 3988 
Q 3128 4100 2886 4159 
Q 2644 4219 2406 4219 
Q 1781 4219 1451 3797 
Q 1122 3375 1075 2522 
Q 1259 2794 1537 2939 
Q 1816 3084 2150 3084 
Q 2853 3084 3261 2657 
Q 3669 2231 3669 1497 
Q 3669 778 3244 343 
Q 2819 -91 2113 -91 
Q 1303 -91 875 529 
Q 447 1150 447 2328 
Q 447 3434 972 4092 
Q 1497 4750 2381 4750 
Q 2619 4750 2861 4703 
Q 3103 4656 3366 4563 
z
" transform="scale(0.015625)"/>
       </defs>
       <use xlink:href="#DejaVuSans-32"/>
       <use xlink:href="#DejaVuSans-30" x="63.623047"/>
       <use xlink:href="#DejaVuSans-30" x="127.246094"/>
       <use xlink:href="#DejaVuSans-36" x="190.869141"/>
       <use xlink:href="#DejaVuSans-2d" x="254.492188"/>
       <use xlink:href="#DejaVuSans-30" x="290.576172"/>
       <use xlink:href="#DejaVuSans-31" x="354.199219"/>
      </g>
     </g>
    </g>
    <g id="xtick_6">
     <g id="line2d_6">
      <g>
       <use xlink:href="#maf25aaeb71" x="252.838078" y="288.430125" style="stroke: #000000; stroke-width: 0.8"/>
      </g>
     </g>
     <g id="text_6">
      <!-- 2006-04 -->
      <g transform="translate(215.613258 322.901971)rotate(-30)scale(0.1 -0.1)">
       <use xlink:href="#DejaVuSans-32"/>
       <use xlink:href="#DejaVuSans-30" x="63.623047"/>
       <use xlink:href="#DejaVuSans-30" x="127.246094"/>
       <use xlink:href="#DejaVuSans-36" x="190.869141"/>
       <use xlink:href="#DejaVuSans-2d" x="254.492188"/>
       <use xlink:href="#DejaVuSans-30" x="290.576172"/>
       <use xlink:href="#DejaVuSans-34" x="354.199219"/>
      </g>
     </g>
    </g>
    <g id="xtick_7">
     <g id="line2d_7">
      <g>
       <use xlink:href="#maf25aaeb71" x="293.311024" y="288.430125" style="stroke: #000000; stroke-width: 0.8"/>
      </g>
     </g>
     <g id="text_7">
      <!-- 2006-07 -->
      <g transform="translate(256.086203 322.901971)rotate(-30)scale(0.1 -0.1)">
       <use xlink:href="#DejaVuSans-32"/>
       <use xlink:href="#DejaVuSans-30" x="63.623047"/>
       <use xlink:href="#DejaVuSans-30" x="127.246094"/>
       <use xlink:href="#DejaVuSans-36" x="190.869141"/>
       <use xlink:href="#DejaVuSans-2d" x="254.492188"/>
       <use xlink:href="#DejaVuSans-30" x="290.576172"/>
       <use xlink:href="#DejaVuSans-37" x="354.199219"/>
      </g>
     </g>
    </g>
    <g id="xtick_8">
     <g id="line2d_8">
      <g>
       <use xlink:href="#maf25aaeb71" x="334.228726" y="288.430125" style="stroke: #000000; stroke-width: 0.8"/>
      </g>
     </g>
     <g id="text_8">
      <!-- 2006-10 -->
      <g transform="translate(297.003906 322.901971)rotate(-30)scale(0.1 -0.1)">
       <use xlink:href="#DejaVuSans-32"/>
       <use xlink:href="#DejaVuSans-30" x="63.623047"/>
       <use xlink:href="#DejaVuSans-30" x="127.246094"/>
       <use xlink:href="#DejaVuSans-36" x="190.869141"/>
       <use xlink:href="#DejaVuSans-2d" x="254.492188"/>
       <use xlink:href="#DejaVuSans-31" x="290.576172"/>
       <use xlink:href="#DejaVuSans-30" x="354.199219"/>
      </g>
     </g>
    </g>
    <g id="xtick_9">
     <g id="line2d_9">
      <g>
       <use xlink:href="#maf25aaeb71" x="375.146429" y="288.430125" style="stroke: #000000; stroke-width: 0.8"/>
      </g>
     </g>
     <g id="text_9">
      <!-- 2007-01 -->
      <g transform="translate(337.921608 322.901971)rotate(-30)scale(0.1 -0.1)">
       <use xlink:href="#DejaVuSans-32"/>
       <use xlink:href="#DejaVuSans-30" x="63.623047"/>
       <use xlink:href="#DejaVuSans-30" x="127.246094"/>
       <use xlink:href="#DejaVuSans-37" x="190.869141"/>
       <use xlink:href="#DejaVuSans-2d" x="254.492188"/>
       <use xlink:href="#DejaVuSans-30" x="290.576172"/>
       <use xlink:href="#DejaVuSans-31" x="354.199219"/>
      </g>
     </g>
    </g>
    <g id="text_10">
     <!-- timesteps -->
     <g transform="translate(188.084219 336.301471)scale(0.1 -0.1)">
      <defs>
       <path id="DejaVuSans-74" d="M 1172 4494 
L 1172 3500 
L 2356 3500 
L 2356 3053 
L 1172 3053 
L 1172 1153 
Q 1172 725 1289 603 
Q 1406 481 1766 481 
L 2356 481 
L 2356 0 
L 1766 0 
Q 1100 0 847 248 
Q 594 497 594 1153 
L 594 3053 
L 172 3053 
L 172 3500 
L 594 3500 
L 594 4494 
L 1172 4494 
z
" transform="scale(0.015625)"/>
       <path id="DejaVuSans-69" d="M 603 3500 
L 1178 3500 
L 1178 0 
L 603 0 
L 603 3500 
z
M 603 4863 
L 1178 4863 
L 1178 4134 
L 603 4134 
L 603 4863 
z
" transform="scale(0.015625)"/>
       <path id="DejaVuSans-6d" d="M 3328 2828 
Q 3544 3216 3844 3400 
Q 4144 3584 4550 3584 
Q 5097 3584 5394 3201 
Q 5691 2819 5691 2113 
L 5691 0 
L 5113 0 
L 5113 2094 
Q 5113 2597 4934 2840 
Q 4756 3084 4391 3084 
Q 3944 3084 3684 2787 
Q 3425 2491 3425 1978 
L 3425 0 
L 2847 0 
L 2847 2094 
Q 2847 2600 2669 2842 
Q 2491 3084 2119 3084 
Q 1678 3084 1418 2786 
Q 1159 2488 1159 1978 
L 1159 0 
L 581 0 
L 581 3500 
L 1159 3500 
L 1159 2956 
Q 1356 3278 1631 3431 
Q 1906 3584 2284 3584 
Q 2666 3584 2933 3390 
Q 3200 3197 3328 2828 
z
" transform="scale(0.015625)"/>
       <path id="DejaVuSans-65" d="M 3597 1894 
L 3597 1613 
L 953 1613 
Q 991 1019 1311 708 
Q 1631 397 2203 397 
Q 2534 397 2845 478 
Q 3156 559 3463 722 
L 3463 178 
Q 3153 47 2828 -22 
Q 2503 -91 2169 -91 
Q 1331 -91 842 396 
Q 353 884 353 1716 
Q 353 2575 817 3079 
Q 1281 3584 2069 3584 
Q 2775 3584 3186 3129 
Q 3597 2675 3597 1894 
z
M 3022 2063 
Q 3016 2534 2758 2815 
Q 2500 3097 2075 3097 
Q 1594 3097 1305 2825 
Q 1016 2553 972 2059 
L 3022 2063 
z
" transform="scale(0.015625)"/>
       <path id="DejaVuSans-73" d="M 2834 3397 
L 2834 2853 
Q 2591 2978 2328 3040 
Q 2066 3103 1784 3103 
Q 1356 3103 1142 2972 
Q 928 2841 928 2578 
Q 928 2378 1081 2264 
Q 1234 2150 1697 2047 
L 1894 2003 
Q 2506 1872 2764 1633 
Q 3022 1394 3022 966 
Q 3022 478 2636 193 
Q 2250 -91 1575 -91 
Q 1294 -91 989 -36 
Q 684 19 347 128 
L 347 722 
Q 666 556 975 473 
Q 1284 391 1588 391 
Q 1994 391 2212 530 
Q 2431 669 2431 922 
Q 2431 1156 2273 1281 
Q 2116 1406 1581 1522 
L 1381 1569 
Q 847 1681 609 1914 
Q 372 2147 372 2553 
Q 372 3047 722 3315 
Q 1072 3584 1716 3584 
Q 2034 3584 2315 3537 
Q 2597 3491 2834 3397 
z
" transform="scale(0.015625)"/>
       <path id="DejaVuSans-70" d="M 1159 525 
L 1159 -1331 
L 581 -1331 
L 581 3500 
L 1159 3500 
L 1159 2969 
Q 1341 3281 1617 3432 
Q 1894 3584 2278 3584 
Q 2916 3584 3314 3078 
Q 3713 2572 3713 1747 
Q 3713 922 3314 415 
Q 2916 -91 2278 -91 
Q 1894 -91 1617 61 
Q 1341 213 1159 525 
z
M 3116 1747 
Q 3116 2381 2855 2742 
Q 2594 3103 2138 3103 
Q 1681 3103 1420 2742 
Q 1159 2381 1159 1747 
Q 1159 1113 1420 752 
Q 1681 391 2138 391 
Q 2594 391 2855 752 
Q 3116 1113 3116 1747 
z
" transform="scale(0.015625)"/>
      </defs>
      <use xlink:href="#DejaVuSans-74"/>
      <use xlink:href="#DejaVuSans-69" x="39.208984"/>
      <use xlink:href="#DejaVuSans-6d" x="66.992188"/>
      <use xlink:href="#DejaVuSans-65" x="164.404297"/>
      <use xlink:href="#DejaVuSans-73" x="225.927734"/>
      <use xlink:href="#DejaVuSans-74" x="278.027344"/>
      <use xlink:href="#DejaVuSans-65" x="317.236328"/>
      <use xlink:href="#DejaVuSans-70" x="378.759766"/>
      <use xlink:href="#DejaVuSans-73" x="442.236328"/>
     </g>
    </g>
   </g>
   <g id="matplotlib.axis_2">
    <g id="ytick_1">
     <g id="line2d_10">
      <defs>
       <path id="mc924ceb339" d="M 0 0 
L -3.5 0 
" style="stroke: #000000; stroke-width: 0.8"/>
      </defs>
      <g>
       <use xlink:href="#mc924ceb339" x="34.240625" y="276.334125" style="stroke: #000000; stroke-width: 0.8"/>
      </g>
     </g>
     <g id="text_11">
      <!-- 0 -->
      <g transform="translate(20.878125 280.133344)scale(0.1 -0.1)">
       <use xlink:href="#DejaVuSans-30"/>
      </g>
     </g>
    </g>
    <g id="ytick_2">
     <g id="line2d_11">
      <g>
       <use xlink:href="#mc924ceb339" x="34.240625" y="229.667458" style="stroke: #000000; stroke-width: 0.8"/>
      </g>
     </g>
     <g id="text_12">
      <!-- 1 -->
      <g transform="translate(20.878125 233.466677)scale(0.1 -0.1)">
       <use xlink:href="#DejaVuSans-31"/>
      </g>
     </g>
    </g>
    <g id="ytick_3">
     <g id="line2d_12">
      <g>
       <use xlink:href="#mc924ceb339" x="34.240625" y="183.000792" style="stroke: #000000; stroke-width: 0.8"/>
      </g>
     </g>
     <g id="text_13">
      <!-- 2 -->
      <g transform="translate(20.878125 186.80001)scale(0.1 -0.1)">
       <use xlink:href="#DejaVuSans-32"/>
      </g>
     </g>
    </g>
    <g id="ytick_4">
     <g id="line2d_13">
      <g>
       <use xlink:href="#mc924ceb339" x="34.240625" y="136.334125" style="stroke: #000000; stroke-width: 0.8"/>
      </g>
     </g>
     <g id="text_14">
      <!-- 3 -->
      <g transform="translate(20.878125 140.133344)scale(0.1 -0.1)">
       <defs>
        <path id="DejaVuSans-33" d="M 2597 2516 
Q 3050 2419 3304 2112 
Q 3559 1806 3559 1356 
Q 3559 666 3084 287 
Q 2609 -91 1734 -91 
Q 1441 -91 1130 -33 
Q 819 25 488 141 
L 488 750 
Q 750 597 1062 519 
Q 1375 441 1716 441 
Q 2309 441 2620 675 
Q 2931 909 2931 1356 
Q 2931 1769 2642 2001 
Q 2353 2234 1838 2234 
L 1294 2234 
L 1294 2753 
L 1863 2753 
Q 2328 2753 2575 2939 
Q 2822 3125 2822 3475 
Q 2822 3834 2567 4026 
Q 2313 4219 1838 4219 
Q 1578 4219 1281 4162 
Q 984 4106 628 3988 
L 628 4550 
Q 988 4650 1302 4700 
Q 1616 4750 1894 4750 
Q 2613 4750 3031 4423 
Q 3450 4097 3450 3541 
Q 3450 3153 3228 2886 
Q 3006 2619 2597 2516 
z
" transform="scale(0.015625)"/>
       </defs>
       <use xlink:href="#DejaVuSans-33"/>
      </g>
     </g>
    </g>
    <g id="ytick_5">
     <g id="line2d_14">
      <g>
       <use xlink:href="#mc924ceb339" x="34.240625" y="89.667458" style="stroke: #000000; stroke-width: 0.8"/>
      </g>
     </g>
     <g id="text_15">
      <!-- 4 -->
      <g transform="translate(20.878125 93.466677)scale(0.1 -0.1)">
       <use xlink:href="#DejaVuSans-34"/>
      </g>
     </g>
    </g>
    <g id="ytick_6">
     <g id="line2d_15">
      <g>
       <use xlink:href="#mc924ceb339" x="34.240625" y="43.000792" style="stroke: #000000; stroke-width: 0.8"/>
      </g>
     </g>
     <g id="text_16">
      <!-- 5 -->
      <g transform="translate(20.878125 46.80001)scale(0.1 -0.1)">
       <use xlink:href="#DejaVuSans-35"/>
      </g>
     </g>
    </g>
    <g id="text_17">
     <!-- storage -->
     <g transform="translate(14.798438 174.368656)rotate(-90)scale(0.1 -0.1)">
      <defs>
       <path id="DejaVuSans-6f" d="M 1959 3097 
Q 1497 3097 1228 2736 
Q 959 2375 959 1747 
Q 959 1119 1226 758 
Q 1494 397 1959 397 
Q 2419 397 2687 759 
Q 2956 1122 2956 1747 
Q 2956 2369 2687 2733 
Q 2419 3097 1959 3097 
z
M 1959 3584 
Q 2709 3584 3137 3096 
Q 3566 2609 3566 1747 
Q 3566 888 3137 398 
Q 2709 -91 1959 -91 
Q 1206 -91 779 398 
Q 353 888 353 1747 
Q 353 2609 779 3096 
Q 1206 3584 1959 3584 
z
" transform="scale(0.015625)"/>
       <path id="DejaVuSans-72" d="M 2631 2963 
Q 2534 3019 2420 3045 
Q 2306 3072 2169 3072 
Q 1681 3072 1420 2755 
Q 1159 2438 1159 1844 
L 1159 0 
L 581 0 
L 581 3500 
L 1159 3500 
L 1159 2956 
Q 1341 3275 1631 3429 
Q 1922 3584 2338 3584 
Q 2397 3584 2469 3576 
Q 2541 3569 2628 3553 
L 2631 2963 
z
" transform="scale(0.015625)"/>
       <path id="DejaVuSans-61" d="M 2194 1759 
Q 1497 1759 1228 1600 
Q 959 1441 959 1056 
Q 959 750 1161 570 
Q 1363 391 1709 391 
Q 2188 391 2477 730 
Q 2766 1069 2766 1631 
L 2766 1759 
L 2194 1759 
z
M 3341 1997 
L 3341 0 
L 2766 0 
L 2766 531 
Q 2569 213 2275 61 
Q 1981 -91 1556 -91 
Q 1019 -91 701 211 
Q 384 513 384 1019 
Q 384 1609 779 1909 
Q 1175 2209 1959 2209 
L 2766 2209 
L 2766 2266 
Q 2766 2663 2505 2880 
Q 2244 3097 1772 3097 
Q 1472 3097 1187 3025 
Q 903 2953 641 2809 
L 641 3341 
Q 956 3463 1253 3523 
Q 1550 3584 1831 3584 
Q 2591 3584 2966 3190 
Q 3341 2797 3341 1997 
z
" transform="scale(0.015625)"/>
       <path id="DejaVuSans-67" d="M 2906 1791 
Q 2906 2416 2648 2759 
Q 2391 3103 1925 3103 
Q 1463 3103 1205 2759 
Q 947 2416 947 1791 
Q 947 1169 1205 825 
Q 1463 481 1925 481 
Q 2391 481 2648 825 
Q 2906 1169 2906 1791 
z
M 3481 434 
Q 3481 -459 3084 -895 
Q 2688 -1331 1869 -1331 
Q 1566 -1331 1297 -1286 
Q 1028 -1241 775 -1147 
L 775 -588 
Q 1028 -725 1275 -790 
Q 1522 -856 1778 -856 
Q 2344 -856 2625 -561 
Q 2906 -266 2906 331 
L 2906 616 
Q 2728 306 2450 153 
Q 2172 0 1784 0 
Q 1141 0 747 490 
Q 353 981 353 1791 
Q 353 2603 747 3093 
Q 1141 3584 1784 3584 
Q 2172 3584 2450 3431 
Q 2728 3278 2906 2969 
L 2906 3500 
L 3481 3500 
L 3481 434 
z
" transform="scale(0.015625)"/>
      </defs>
      <use xlink:href="#DejaVuSans-73"/>
      <use xlink:href="#DejaVuSans-74" x="52.099609"/>
      <use xlink:href="#DejaVuSans-6f" x="91.308594"/>
      <use xlink:href="#DejaVuSans-72" x="152.490234"/>
      <use xlink:href="#DejaVuSans-61" x="193.603516"/>
      <use xlink:href="#DejaVuSans-67" x="254.882812"/>
      <use xlink:href="#DejaVuSans-65" x="318.359375"/>
     </g>
    </g>
    <g id="text_18">
     <!-- 1e9 -->
     <g transform="translate(34.240625 19.318125)scale(0.1 -0.1)">
      <defs>
       <path id="DejaVuSans-39" d="M 703 97 
L 703 672 
Q 941 559 1184 500 
Q 1428 441 1663 441 
Q 2288 441 2617 861 
Q 2947 1281 2994 2138 
Q 2813 1869 2534 1725 
Q 2256 1581 1919 1581 
Q 1219 1581 811 2004 
Q 403 2428 403 3163 
Q 403 3881 828 4315 
Q 1253 4750 1959 4750 
Q 2769 4750 3195 4129 
Q 3622 3509 3622 2328 
Q 3622 1225 3098 567 
Q 2575 -91 1691 -91 
Q 1453 -91 1209 -44 
Q 966 3 703 97 
z
M 1959 2075 
Q 2384 2075 2632 2365 
Q 2881 2656 2881 3163 
Q 2881 3666 2632 3958 
Q 2384 4250 1959 4250 
Q 1534 4250 1286 3958 
Q 1038 3666 1038 3163 
Q 1038 2656 1286 2365 
Q 1534 2075 1959 2075 
z
" transform="scale(0.015625)"/>
      </defs>
      <use xlink:href="#DejaVuSans-31"/>
      <use xlink:href="#DejaVuSans-65" x="63.623047"/>
      <use xlink:href="#DejaVuSans-39" x="125.146484"/>
     </g>
    </g>
   </g>
   <g id="line2d_16">
    <path d="M 50.473352 130.031588 
L 50.603073 130.26023 
L 51.770562 132.857967 
L 52.030004 133.338486 
L 52.678609 134.689844 
L 52.789798 134.824212 
L 53.605187 136.585747 
L 53.920224 137.355554 
L 55.328623 140.649817 
L 55.958696 142.034763 
L 57.144717 144.829441 
L 57.292969 145.13027 
L 58.071295 146.875797 
L 58.238079 147.276414 
L 58.923747 148.788723 
L 59.66501 150.471669 
L 59.794731 150.754985 
L 59.850326 150.690998 
L 59.905921 150.627011 
L 59.942984 150.700249 
L 60.054173 150.830892 
L 60.091236 150.793246 
L 60.128299 150.793448 
L 60.146831 150.843403 
L 60.202426 150.978049 
L 60.276552 150.892733 
L 60.350678 150.807416 
L 60.387741 150.880706 
L 60.498931 151.011625 
L 60.535994 150.974111 
L 60.573057 150.97443 
L 60.591589 151.024424 
L 60.647183 151.159182 
L 60.72131 151.073865 
L 60.813967 150.990895 
L 60.851031 151.090903 
L 61.073409 151.41242 
L 61.258725 151.222821 
L 61.295788 151.32293 
L 61.518167 151.644802 
L 61.703483 151.455214 
L 61.740546 151.555426 
L 61.962925 151.877675 
L 62.14824 151.688113 
L 62.185303 151.788429 
L 62.407682 152.111155 
L 62.592998 151.921604 
L 62.630061 152.022023 
L 62.85244 152.345199 
L 62.908035 152.281212 
L 62.945098 152.357851 
L 63.260134 153.179667 
L 64.279371 155.67711 
L 64.372029 155.758174 
L 65.131823 156.715236 
L 65.243012 156.785155 
L 67.392674 159.875236 
L 67.689179 160.3317 
L 69.597931 163.158176 
L 69.70912 163.246276 
L 70.431851 164.268444 
L 70.450383 164.254508 
L 70.672762 164.449733 
L 71.321367 165.299936 
L 71.451088 165.302021 
L 72.210882 166.342517 
L 72.247945 166.335749 
L 72.285008 166.387409 
L 76.32489 172.41537 
L 76.436079 172.578471 
L 76.695521 172.948892 
L 76.714053 172.846076 
L 77.492379 170.145882 
L 78.029794 168.198957 
L 78.344831 167.069344 
L 81.031908 158.57084 
L 84.256401 148.056653 
L 85.238574 144.777022 
L 87.647678 136.405926 
L 90.445945 126.486666 
L 90.649792 126.066246 
L 90.946297 125.830424 
L 91.150145 125.638283 
L 91.79875 125.214842 
L 96.320452 120.58873 
L 96.505768 120.423575 
L 96.709615 120.23324 
L 96.913462 119.933478 
L 97.172904 119.685409 
L 97.35822 119.42837 
L 97.636194 119.181665 
L 97.821509 118.970856 
L 98.080951 118.717838 
L 98.247735 118.474678 
L 98.488646 118.235347 
L 98.692493 117.881087 
L 98.933403 117.640376 
L 99.137251 117.284703 
L 99.378161 117.042513 
L 99.582008 116.685432 
L 99.822919 116.441802 
L 100.026766 116.083315 
L 100.286208 115.817519 
L 100.490055 115.612889 
L 101.157192 115.120449 
L 101.361039 114.862408 
L 101.639012 114.58279 
L 101.805797 114.400992 
L 102.08377 114.119957 
L 102.269086 113.926532 
L 102.528528 113.654688 
L 102.713843 113.460171 
L 102.973285 113.186985 
L 103.158601 112.991377 
L 103.399511 112.758483 
L 103.603359 112.485677 
L 103.899864 112.416671 
L 105.567705 114.430443 
L 105.715957 114.560109 
L 113.07299 124.464794 
L 117.668819 131.070514 
L 122.727937 144.105246 
L 127.472019 156.939219 
L 131.233927 167.704548 
L 135.422061 181.67054 
L 136.904587 186.393583 
L 145.651487 200.591316 
L 159.550163 226.210343 
L 159.772542 226.709724 
L 172.837298 253.813895 
L 178.804463 267.389284 
L 188.45941 267.819288 
L 199.115062 268.484134 
L 201.820671 265.565744 
L 201.857734 265.660682 
L 202.52487 267.600753 
L 202.63606 267.639628 
L 205.249011 276.334125 
L 207.750773 276.23418 
L 209.381551 274.582548 
L 209.400082 274.646747 
L 209.474208 274.566791 
L 209.84484 274.292505 
L 209.956029 274.340985 
L 210.178408 274.246337 
L 210.586103 274.227676 
L 210.845545 274.020298 
L 210.882608 274.064148 
L 211.104986 274.369282 
L 211.123518 274.349293 
L 211.160581 274.435513 
L 211.179113 274.415524 
L 211.846249 275.333209 
L 211.938907 275.393364 
L 211.957439 275.373375 
L 212.013033 275.45363 
L 212.253944 276.291153 
L 212.32807 276.211197 
L 212.439259 276.205151 
L 212.550449 276.334125 
L 212.56898 276.314136 
L 212.717233 276.274158 
L 212.791359 276.334125 
L 212.809891 276.271934 
L 213.347306 274.553077 
L 213.384369 274.664975 
L 213.643811 275.186441 
L 213.662343 275.166495 
L 213.792064 274.572115 
L 213.847659 274.718547 
L 214.070037 275.078817 
L 214.125632 274.88672 
L 214.199758 274.547074 
L 214.273885 274.721065 
L 214.514795 275.134112 
L 214.57039 274.941906 
L 214.644516 274.712421 
L 214.700111 274.83632 
L 214.959553 275.304868 
L 215.089274 275.073745 
L 215.144868 275.197354 
L 215.40431 275.868742 
L 215.441373 275.761317 
L 215.534031 275.637575 
L 215.552563 275.658605 
L 215.849068 276.229451 
L 215.8676 276.207031 
L 216.015852 275.582795 
L 216.071447 275.750172 
L 216.330889 276.334125 
L 216.34942 276.252775 
L 216.46061 275.798659 
L 216.516204 275.968332 
L 216.738583 276.334125 
L 216.794178 276.248821 
L 216.905367 275.754435 
L 216.960962 275.924846 
L 217.201872 276.324977 
L 217.350125 275.660763 
L 217.40572 275.831042 
L 217.64663 276.299259 
L 217.794883 275.635043 
L 217.850477 275.805255 
L 218.091388 276.27318 
L 218.23964 275.608959 
L 218.295235 275.779037 
L 218.536145 276.246972 
L 218.684398 275.582746 
L 218.739993 275.752695 
L 218.980903 276.220192 
L 219.129156 275.577517 
L 219.18475 275.747426 
L 219.425661 276.241488 
L 219.462724 276.141298 
L 219.573913 275.668477 
L 219.629508 275.838755 
L 219.870418 276.334125 
L 219.907481 276.233998 
L 220.018671 275.724529 
L 220.074266 275.878881 
L 220.296644 276.267979 
L 220.352239 276.080598 
L 220.444897 275.656041 
L 220.500492 275.796466 
L 220.741402 276.24064 
L 220.796997 276.053188 
L 220.871123 275.713542 
L 220.945249 275.889965 
L 221.18616 276.334125 
L 221.241754 276.146672 
L 221.352944 275.789717 
L 221.390007 275.887332 
L 221.630917 276.334125 
L 221.686512 276.146786 
L 221.77917 275.722229 
L 221.834765 275.886705 
L 222.094207 276.334125 
L 222.186864 276.069933 
L 222.242459 275.815199 
L 222.316585 275.938358 
L 222.464838 275.837967 
L 222.37218 275.99166 
L 222.483369 275.894882 
L 222.538964 276.035623 
L 222.576027 275.8658 
L 222.687217 275.475687 
L 222.742811 275.56508 
L 222.909596 275.444198 
L 222.928127 275.500322 
L 222.983722 275.638851 
L 223.020785 275.469029 
L 223.150506 274.939309 
L 223.206101 275.106324 
L 223.261695 275.274016 
L 223.298758 275.16885 
L 223.335822 275.063683 
L 223.391416 275.201013 
L 223.409948 275.257039 
L 223.447011 275.087216 
L 223.595264 274.472581 
L 223.650858 274.63816 
L 223.706453 274.804402 
L 223.743516 274.677354 
L 223.780579 274.507532 
L 223.836174 274.67 
L 223.854706 274.725345 
L 223.891769 274.555522 
L 224.040021 274.005545 
L 224.077084 274.114315 
L 224.151211 274.332715 
L 224.188274 274.205337 
L 224.225337 274.035514 
L 224.280932 274.168988 
L 224.299463 274.22363 
L 224.336526 274.053807 
L 224.484779 273.439174 
L 224.540374 273.600648 
L 224.595968 273.762755 
L 224.633031 273.635297 
L 224.670095 273.465474 
L 224.725689 273.59715 
L 224.744221 273.651137 
L 224.781284 273.481314 
L 224.929536 272.931337 
L 224.9666 273.037477 
L 225.040726 273.250578 
L 225.077789 273.122961 
L 225.114852 272.953138 
L 225.170447 273.082698 
L 225.188978 273.135927 
L 225.226042 272.966105 
L 225.244573 272.881193 
L 225.318699 272.996417 
L 225.596673 273.78395 
L 226.578846 276.334125 
L 226.838288 275.481123 
L 227.431298 273.577185 
L 227.746335 272.425401 
L 228.376408 270.218858 
L 230.007186 264.804392 
L 231.47118 259.389247 
L 233.194616 252.027228 
L 234.121194 247.783076 
L 234.788331 244.694283 
L 236.734145 235.655302 
L 243.275789 205.238313 
L 243.294321 205.341129 
L 243.349915 205.032681 
L 244.091178 201.536937 
L 244.10971 201.639753 
L 244.165304 201.331305 
L 244.183836 201.434121 
L 244.758315 198.863721 
L 244.776846 198.966537 
L 244.832441 198.658089 
L 244.850972 198.760905 
L 245.499577 195.779241 
L 245.518109 195.882057 
L 245.573704 195.573609 
L 246.537345 190.844073 
L 246.555877 190.946889 
L 246.611471 190.638441 
L 246.630003 190.741257 
L 247.204482 188.170857 
L 247.223013 188.273673 
L 247.278608 187.965225 
L 247.297139 188.068041 
L 247.945744 185.086377 
L 247.964276 185.189193 
L 248.019871 184.880745 
L 248.612881 182.207529 
L 248.631412 182.310345 
L 248.687007 182.001897 
L 249.42827 178.506153 
L 249.446801 178.608969 
L 249.502396 178.300521 
L 249.520928 178.403337 
L 250.391911 174.187881 
L 250.410443 174.290697 
L 250.466038 173.982249 
L 251.503805 168.841449 
L 251.522337 168.944265 
L 251.577932 168.635817 
L 252.319194 165.140073 
L 252.337726 165.242889 
L 252.393321 164.934441 
L 252.912205 162.672489 
L 252.930736 162.775305 
L 252.986331 162.473827 
L 253.282836 161.249784 
L 253.301368 161.3526 
L 253.356962 161.044152 
L 254.246478 156.534795 
L 254.265009 156.637611 
L 254.320604 156.332948 
L 254.98774 153.063896 
L 255.006272 153.166712 
L 255.061867 152.858264 
L 255.821661 149.269004 
L 256.618518 145.466049 
L 256.63705 145.568865 
L 256.692645 145.260417 
L 257.211528 142.998465 
L 257.23006 143.101281 
L 257.285655 142.792833 
L 258.545801 136.418241 
L 258.564333 136.521057 
L 258.619928 136.212609 
L 259.583569 131.483073 
L 259.602101 131.585889 
L 259.657696 131.277441 
L 260.917842 124.902849 
L 260.936374 125.005665 
L 260.991968 124.697217 
L 262.103863 119.145153 
L 262.122394 119.247969 
L 262.177989 118.939521 
L 264.475903 106.807233 
L 264.494435 106.910049 
L 264.55003 106.601601 
L 265.661924 101.049537 
L 265.680455 101.152353 
L 265.73605 100.843905 
L 267.62627 90.953903 
L 267.755991 90.345021 
L 269.609148 80.677404 
L 269.7574 80.025056 
L 270.535726 76.32309 
L 270.646916 75.761606 
L 271.425241 72.016767 
L 271.536431 71.45528 
L 272.518604 66.62394 
L 272.648325 66.015043 
L 273.204272 63.543186 
L 273.315461 62.982052 
L 273.852877 60.592451 
L 274.112319 59.651231 
L 274.779455 56.553307 
L 275.53925 53.086288 
L 276.113728 50.502704 
L 276.354639 49.604098 
L 276.96618 46.790683 
L 277.244154 45.793165 
L 277.855696 43.002919 
L 278.133669 42.002675 
L 278.837869 38.671197 
L 279.078779 37.722752 
L 279.949763 34.414125 
L 280.023889 34.448218 
L 292.254724 40.196534 
L 293.403681 40.860828 
L 301.668761 53.314828 
L 307.302358 62.14356 
L 311.379303 69.955784 
L 311.416366 69.911517 
L 311.453429 69.985833 
L 311.731402 70.312472 
L 321.201034 80.051336 
L 321.794044 80.93211 
L 334.673484 100.090237 
L 342.160238 113.975329 
L 343.902205 113.344044 
L 343.920737 113.399478 
L 344.013395 113.362561 
L 348.850134 111.316556 
L 356.577798 107.165872 
L 356.596329 107.219089 
L 362.174331 122.904435 
L 367.733802 136.960588 
L 367.807928 136.890794 
L 375.127898 129.996717 
L 375.127898 129.996717 
" clip-path="url(#p79b5611e67)" style="fill: none; stroke: #1f77b4; stroke-width: 1.5; stroke-linecap: square"/>
   </g>
   <g id="line2d_17">
    <path clip-path="url(#p79b5611e67)" style="fill: none; stroke: #000000; stroke-width: 1.5; stroke-linecap: square"/>
   </g>
   <g id="line2d_18">
    <path d="M 34.240625 34.414125 
L 391.360625 34.414125 
" clip-path="url(#p79b5611e67)" style="fill: none; stroke: #ff0000; stroke-width: 1.5; stroke-linecap: square"/>
   </g>
   <g id="line2d_19">
    <path d="M 34.240625 46.510125 
L 391.360625 46.510125 
" clip-path="url(#p79b5611e67)" style="fill: none; stroke-dasharray: 5.55,2.4; stroke-dashoffset: 0; stroke: #ff00ff; stroke-width: 1.5"/>
   </g>
   <g id="patch_3">
    <path d="M 34.240625 288.430125 
L 34.240625 22.318125 
" style="fill: none; stroke: #000000; stroke-width: 0.8; stroke-linejoin: miter; stroke-linecap: square"/>
   </g>
   <g id="patch_4">
    <path d="M 391.360625 288.430125 
L 391.360625 22.318125 
" style="fill: none; stroke: #000000; stroke-width: 0.8; stroke-linejoin: miter; stroke-linecap: square"/>
   </g>
   <g id="patch_5">
    <path d="M 34.240625 288.430125 
L 391.360625 288.430125 
" style="fill: none; stroke: #000000; stroke-width: 0.8; stroke-linejoin: miter; stroke-linecap: square"/>
   </g>
   <g id="patch_6">
    <path d="M 34.240625 22.318125 
L 391.360625 22.318125 
" style="fill: none; stroke: #000000; stroke-width: 0.8; stroke-linejoin: miter; stroke-linecap: square"/>
   </g>
   <g id="text_19">
    <!-- loc_techs_store = Zambia::storageA -->
    <g transform="translate(104.15375 16.318125)scale(0.12 -0.12)">
     <defs>
      <path id="DejaVuSans-6c" d="M 603 4863 
L 1178 4863 
L 1178 0 
L 603 0 
L 603 4863 
z
" transform="scale(0.015625)"/>
      <path id="DejaVuSans-63" d="M 3122 3366 
L 3122 2828 
Q 2878 2963 2633 3030 
Q 2388 3097 2138 3097 
Q 1578 3097 1268 2742 
Q 959 2388 959 1747 
Q 959 1106 1268 751 
Q 1578 397 2138 397 
Q 2388 397 2633 464 
Q 2878 531 3122 666 
L 3122 134 
Q 2881 22 2623 -34 
Q 2366 -91 2075 -91 
Q 1284 -91 818 406 
Q 353 903 353 1747 
Q 353 2603 823 3093 
Q 1294 3584 2113 3584 
Q 2378 3584 2631 3529 
Q 2884 3475 3122 3366 
z
" transform="scale(0.015625)"/>
      <path id="DejaVuSans-5f" d="M 3263 -1063 
L 3263 -1509 
L -63 -1509 
L -63 -1063 
L 3263 -1063 
z
" transform="scale(0.015625)"/>
      <path id="DejaVuSans-68" d="M 3513 2113 
L 3513 0 
L 2938 0 
L 2938 2094 
Q 2938 2591 2744 2837 
Q 2550 3084 2163 3084 
Q 1697 3084 1428 2787 
Q 1159 2491 1159 1978 
L 1159 0 
L 581 0 
L 581 4863 
L 1159 4863 
L 1159 2956 
Q 1366 3272 1645 3428 
Q 1925 3584 2291 3584 
Q 2894 3584 3203 3211 
Q 3513 2838 3513 2113 
z
" transform="scale(0.015625)"/>
      <path id="DejaVuSans-20" transform="scale(0.015625)"/>
      <path id="DejaVuSans-3d" d="M 678 2906 
L 4684 2906 
L 4684 2381 
L 678 2381 
L 678 2906 
z
M 678 1631 
L 4684 1631 
L 4684 1100 
L 678 1100 
L 678 1631 
z
" transform="scale(0.015625)"/>
      <path id="DejaVuSans-5a" d="M 359 4666 
L 4025 4666 
L 4025 4184 
L 1075 531 
L 4097 531 
L 4097 0 
L 288 0 
L 288 481 
L 3238 4134 
L 359 4134 
L 359 4666 
z
" transform="scale(0.015625)"/>
      <path id="DejaVuSans-62" d="M 3116 1747 
Q 3116 2381 2855 2742 
Q 2594 3103 2138 3103 
Q 1681 3103 1420 2742 
Q 1159 2381 1159 1747 
Q 1159 1113 1420 752 
Q 1681 391 2138 391 
Q 2594 391 2855 752 
Q 3116 1113 3116 1747 
z
M 1159 2969 
Q 1341 3281 1617 3432 
Q 1894 3584 2278 3584 
Q 2916 3584 3314 3078 
Q 3713 2572 3713 1747 
Q 3713 922 3314 415 
Q 2916 -91 2278 -91 
Q 1894 -91 1617 61 
Q 1341 213 1159 525 
L 1159 0 
L 581 0 
L 581 4863 
L 1159 4863 
L 1159 2969 
z
" transform="scale(0.015625)"/>
      <path id="DejaVuSans-3a" d="M 750 794 
L 1409 794 
L 1409 0 
L 750 0 
L 750 794 
z
M 750 3309 
L 1409 3309 
L 1409 2516 
L 750 2516 
L 750 3309 
z
" transform="scale(0.015625)"/>
      <path id="DejaVuSans-41" d="M 2188 4044 
L 1331 1722 
L 3047 1722 
L 2188 4044 
z
M 1831 4666 
L 2547 4666 
L 4325 0 
L 3669 0 
L 3244 1197 
L 1141 1197 
L 716 0 
L 50 0 
L 1831 4666 
z
" transform="scale(0.015625)"/>
     </defs>
     <use xlink:href="#DejaVuSans-6c"/>
     <use xlink:href="#DejaVuSans-6f" x="27.783203"/>
     <use xlink:href="#DejaVuSans-63" x="88.964844"/>
     <use xlink:href="#DejaVuSans-5f" x="143.945312"/>
     <use xlink:href="#DejaVuSans-74" x="193.945312"/>
     <use xlink:href="#DejaVuSans-65" x="233.154297"/>
     <use xlink:href="#DejaVuSans-63" x="294.677734"/>
     <use xlink:href="#DejaVuSans-68" x="349.658203"/>
     <use xlink:href="#DejaVuSans-73" x="413.037109"/>
     <use xlink:href="#DejaVuSans-5f" x="465.136719"/>
     <use xlink:href="#DejaVuSans-73" x="515.136719"/>
     <use xlink:href="#DejaVuSans-74" x="567.236328"/>
     <use xlink:href="#DejaVuSans-6f" x="606.445312"/>
     <use xlink:href="#DejaVuSans-72" x="667.626953"/>
     <use xlink:href="#DejaVuSans-65" x="706.490234"/>
     <use xlink:href="#DejaVuSans-20" x="768.013672"/>
     <use xlink:href="#DejaVuSans-3d" x="799.800781"/>
     <use xlink:href="#DejaVuSans-20" x="883.589844"/>
     <use xlink:href="#DejaVuSans-5a" x="915.376953"/>
     <use xlink:href="#DejaVuSans-61" x="983.882812"/>
     <use xlink:href="#DejaVuSans-6d" x="1045.162109"/>
     <use xlink:href="#DejaVuSans-62" x="1142.574219"/>
     <use xlink:href="#DejaVuSans-69" x="1206.050781"/>
     <use xlink:href="#DejaVuSans-61" x="1233.833984"/>
     <use xlink:href="#DejaVuSans-3a" x="1295.113281"/>
     <use xlink:href="#DejaVuSans-3a" x="1328.804688"/>
     <use xlink:href="#DejaVuSans-73" x="1362.496094"/>
     <use xlink:href="#DejaVuSans-74" x="1414.595703"/>
     <use xlink:href="#DejaVuSans-6f" x="1453.804688"/>
     <use xlink:href="#DejaVuSans-72" x="1514.986328"/>
     <use xlink:href="#DejaVuSans-61" x="1556.099609"/>
     <use xlink:href="#DejaVuSans-67" x="1617.378906"/>
     <use xlink:href="#DejaVuSans-65" x="1680.855469"/>
     <use xlink:href="#DejaVuSans-41" x="1742.378906"/>
    </g>
   </g>
   <g id="legend_1">
    <g id="patch_7">
     <path d="M 412.645425 89.865 
L 536.395425 89.865 
Q 538.395425 89.865 538.395425 87.865 
L 538.395425 29.318125 
Q 538.395425 27.318125 536.395425 27.318125 
L 412.645425 27.318125 
Q 410.645425 27.318125 410.645425 29.318125 
L 410.645425 87.865 
Q 410.645425 89.865 412.645425 89.865 
z
" style="fill: #ffffff; opacity: 0.8; stroke: #cccccc; stroke-linejoin: miter"/>
    </g>
    <g id="line2d_20">
     <path d="M 414.645425 35.416562 
L 424.645425 35.416562 
L 434.645425 35.416562 
" style="fill: none; stroke: #1f77b4; stroke-width: 1.5; stroke-linecap: square"/>
    </g>
    <g id="text_20">
     <!-- Storage -->
     <g transform="translate(442.645425 38.916562)scale(0.1 -0.1)">
      <defs>
       <path id="DejaVuSans-53" d="M 3425 4513 
L 3425 3897 
Q 3066 4069 2747 4153 
Q 2428 4238 2131 4238 
Q 1616 4238 1336 4038 
Q 1056 3838 1056 3469 
Q 1056 3159 1242 3001 
Q 1428 2844 1947 2747 
L 2328 2669 
Q 3034 2534 3370 2195 
Q 3706 1856 3706 1288 
Q 3706 609 3251 259 
Q 2797 -91 1919 -91 
Q 1588 -91 1214 -16 
Q 841 59 441 206 
L 441 856 
Q 825 641 1194 531 
Q 1563 422 1919 422 
Q 2459 422 2753 634 
Q 3047 847 3047 1241 
Q 3047 1584 2836 1778 
Q 2625 1972 2144 2069 
L 1759 2144 
Q 1053 2284 737 2584 
Q 422 2884 422 3419 
Q 422 4038 858 4394 
Q 1294 4750 2059 4750 
Q 2388 4750 2728 4690 
Q 3069 4631 3425 4513 
z
" transform="scale(0.015625)"/>
      </defs>
      <use xlink:href="#DejaVuSans-53"/>
      <use xlink:href="#DejaVuSans-74" x="63.476562"/>
      <use xlink:href="#DejaVuSans-6f" x="102.685547"/>
      <use xlink:href="#DejaVuSans-72" x="163.867188"/>
      <use xlink:href="#DejaVuSans-61" x="204.980469"/>
      <use xlink:href="#DejaVuSans-67" x="266.259766"/>
      <use xlink:href="#DejaVuSans-65" x="329.736328"/>
     </g>
    </g>
    <g id="line2d_21">
     <path d="M 414.645425 50.094687 
L 424.645425 50.094687 
L 434.645425 50.094687 
" style="fill: none; stroke: #000000; stroke-width: 1.5; stroke-linecap: square"/>
    </g>
    <g id="text_21">
     <!-- Storage_cap_max -->
     <g transform="translate(442.645425 53.594687)scale(0.1 -0.1)">
      <defs>
       <path id="DejaVuSans-78" d="M 3513 3500 
L 2247 1797 
L 3578 0 
L 2900 0 
L 1881 1375 
L 863 0 
L 184 0 
L 1544 1831 
L 300 3500 
L 978 3500 
L 1906 2253 
L 2834 3500 
L 3513 3500 
z
" transform="scale(0.015625)"/>
      </defs>
      <use xlink:href="#DejaVuSans-53"/>
      <use xlink:href="#DejaVuSans-74" x="63.476562"/>
      <use xlink:href="#DejaVuSans-6f" x="102.685547"/>
      <use xlink:href="#DejaVuSans-72" x="163.867188"/>
      <use xlink:href="#DejaVuSans-61" x="204.980469"/>
      <use xlink:href="#DejaVuSans-67" x="266.259766"/>
      <use xlink:href="#DejaVuSans-65" x="329.736328"/>
      <use xlink:href="#DejaVuSans-5f" x="391.259766"/>
      <use xlink:href="#DejaVuSans-63" x="441.259766"/>
      <use xlink:href="#DejaVuSans-61" x="496.240234"/>
      <use xlink:href="#DejaVuSans-70" x="557.519531"/>
      <use xlink:href="#DejaVuSans-5f" x="620.996094"/>
      <use xlink:href="#DejaVuSans-6d" x="670.996094"/>
      <use xlink:href="#DejaVuSans-61" x="768.408203"/>
      <use xlink:href="#DejaVuSans-78" x="829.6875"/>
     </g>
    </g>
    <g id="line2d_22">
     <path d="M 414.645425 65.050937 
L 424.645425 65.050937 
L 434.645425 65.050937 
" style="fill: none; stroke: #ff0000; stroke-width: 1.5; stroke-linecap: square"/>
    </g>
    <g id="text_22">
     <!-- Storage_cap -->
     <g transform="translate(442.645425 68.550937)scale(0.1 -0.1)">
      <use xlink:href="#DejaVuSans-53"/>
      <use xlink:href="#DejaVuSans-74" x="63.476562"/>
      <use xlink:href="#DejaVuSans-6f" x="102.685547"/>
      <use xlink:href="#DejaVuSans-72" x="163.867188"/>
      <use xlink:href="#DejaVuSans-61" x="204.980469"/>
      <use xlink:href="#DejaVuSans-67" x="266.259766"/>
      <use xlink:href="#DejaVuSans-65" x="329.736328"/>
      <use xlink:href="#DejaVuSans-5f" x="391.259766"/>
      <use xlink:href="#DejaVuSans-63" x="441.259766"/>
      <use xlink:href="#DejaVuSans-61" x="496.240234"/>
      <use xlink:href="#DejaVuSans-70" x="557.519531"/>
     </g>
    </g>
    <g id="line2d_23">
     <path d="M 414.645425 80.007187 
L 424.645425 80.007187 
L 434.645425 80.007187 
" style="fill: none; stroke-dasharray: 5.55,2.4; stroke-dashoffset: 0; stroke: #ff00ff; stroke-width: 1.5"/>
    </g>
    <g id="text_23">
     <!-- Spillage_threshold -->
     <g transform="translate(442.645425 83.507187)scale(0.1 -0.1)">
      <defs>
       <path id="DejaVuSans-64" d="M 2906 2969 
L 2906 4863 
L 3481 4863 
L 3481 0 
L 2906 0 
L 2906 525 
Q 2725 213 2448 61 
Q 2172 -91 1784 -91 
Q 1150 -91 751 415 
Q 353 922 353 1747 
Q 353 2572 751 3078 
Q 1150 3584 1784 3584 
Q 2172 3584 2448 3432 
Q 2725 3281 2906 2969 
z
M 947 1747 
Q 947 1113 1208 752 
Q 1469 391 1925 391 
Q 2381 391 2643 752 
Q 2906 1113 2906 1747 
Q 2906 2381 2643 2742 
Q 2381 3103 1925 3103 
Q 1469 3103 1208 2742 
Q 947 2381 947 1747 
z
" transform="scale(0.015625)"/>
      </defs>
      <use xlink:href="#DejaVuSans-53"/>
      <use xlink:href="#DejaVuSans-70" x="63.476562"/>
      <use xlink:href="#DejaVuSans-69" x="126.953125"/>
      <use xlink:href="#DejaVuSans-6c" x="154.736328"/>
      <use xlink:href="#DejaVuSans-6c" x="182.519531"/>
      <use xlink:href="#DejaVuSans-61" x="210.302734"/>
      <use xlink:href="#DejaVuSans-67" x="271.582031"/>
      <use xlink:href="#DejaVuSans-65" x="335.058594"/>
      <use xlink:href="#DejaVuSans-5f" x="396.582031"/>
      <use xlink:href="#DejaVuSans-74" x="446.582031"/>
      <use xlink:href="#DejaVuSans-68" x="485.791016"/>
      <use xlink:href="#DejaVuSans-72" x="549.169922"/>
      <use xlink:href="#DejaVuSans-65" x="588.033203"/>
      <use xlink:href="#DejaVuSans-73" x="649.556641"/>
      <use xlink:href="#DejaVuSans-68" x="701.65625"/>
      <use xlink:href="#DejaVuSans-6f" x="765.035156"/>
      <use xlink:href="#DejaVuSans-6c" x="826.216797"/>
      <use xlink:href="#DejaVuSans-64" x="854"/>
     </g>
    </g>
   </g>
  </g>
 </g>
 <defs>
  <clipPath id="p79b5611e67">
   <rect x="34.240625" y="22.318125" width="357.12" height="266.112"/>
  </clipPath>
 </defs>
</svg>
