<?xml version="1.0" encoding="utf-8" standalone="no"?>
<!DOCTYPE svg PUBLIC "-//W3C//DTD SVG 1.1//EN"
  "http://www.w3.org/Graphics/SVG/1.1/DTD/svg11.dtd">
<svg xmlns:xlink="http://www.w3.org/1999/xlink" width="561.49855pt" height="345.581158pt" viewBox="0 0 561.49855 345.581158" xmlns="http://www.w3.org/2000/svg" version="1.1">
 <metadata>
  <rdf:RDF xmlns:dc="http://purl.org/dc/elements/1.1/" xmlns:cc="http://creativecommons.org/ns#" xmlns:rdf="http://www.w3.org/1999/02/22-rdf-syntax-ns#">
   <cc:Work>
    <dc:type rdf:resource="http://purl.org/dc/dcmitype/StillImage"/>
    <dc:date>2022-05-09T17:37:07.990856</dc:date>
    <dc:format>image/svg+xml</dc:format>
    <dc:creator>
     <cc:Agent>
      <dc:title>Matplotlib v3.5.1, https://matplotlib.org/</dc:title>
     </cc:Agent>
    </dc:creator>
   </cc:Work>
  </rdf:RDF>
 </metadata>
 <defs>
  <style type="text/css">*{stroke-linejoin: round; stroke-linecap: butt}</style>
 </defs>
 <g id="figure_1">
  <g id="patch_1">
   <path d="M 0 345.581158 
L 561.49855 345.581158 
L 561.49855 0 
L 0 0 
z
" style="fill: #ffffff"/>
  </g>
  <g id="axes_1">
   <g id="patch_2">
    <path d="M 50.14375 288.430125 
L 407.26375 288.430125 
L 407.26375 22.318125 
L 50.14375 22.318125 
z
" style="fill: #ffffff"/>
   </g>
   <g id="matplotlib.axis_1">
    <g id="xtick_1">
     <g id="line2d_1">
      <defs>
       <path id="mb55079d6ad" d="M 0 0 
L 0 3.5 
" style="stroke: #000000; stroke-width: 0.8"/>
      </defs>
      <g>
       <use xlink:href="#mb55079d6ad" x="66.376477" y="288.430125" style="stroke: #000000; stroke-width: 0.8"/>
      </g>
     </g>
     <g id="text_1">
      <!-- 2005-01 -->
      <g transform="translate(29.151656 322.901971)rotate(-30)scale(0.1 -0.1)">
       <defs>
        <path id="DejaVuSans-32" d="M 1228 531 
L 3431 531 
L 3431 0 
L 469 0 
L 469 531 
Q 828 903 1448 1529 
Q 2069 2156 2228 2338 
Q 2531 2678 2651 2914 
Q 2772 3150 2772 3378 
Q 2772 3750 2511 3984 
Q 2250 4219 1831 4219 
Q 1534 4219 1204 4116 
Q 875 4013 500 3803 
L 500 4441 
Q 881 4594 1212 4672 
Q 1544 4750 1819 4750 
Q 2544 4750 2975 4387 
Q 3406 4025 3406 3419 
Q 3406 3131 3298 2873 
Q 3191 2616 2906 2266 
Q 2828 2175 2409 1742 
Q 1991 1309 1228 531 
z
" transform="scale(0.015625)"/>
        <path id="DejaVuSans-30" d="M 2034 4250 
Q 1547 4250 1301 3770 
Q 1056 3291 1056 2328 
Q 1056 1369 1301 889 
Q 1547 409 2034 409 
Q 2525 409 2770 889 
Q 3016 1369 3016 2328 
Q 3016 3291 2770 3770 
Q 2525 4250 2034 4250 
z
M 2034 4750 
Q 2819 4750 3233 4129 
Q 3647 3509 3647 2328 
Q 3647 1150 3233 529 
Q 2819 -91 2034 -91 
Q 1250 -91 836 529 
Q 422 1150 422 2328 
Q 422 3509 836 4129 
Q 1250 4750 2034 4750 
z
" transform="scale(0.015625)"/>
        <path id="DejaVuSans-35" d="M 691 4666 
L 3169 4666 
L 3169 4134 
L 1269 4134 
L 1269 2991 
Q 1406 3038 1543 3061 
Q 1681 3084 1819 3084 
Q 2600 3084 3056 2656 
Q 3513 2228 3513 1497 
Q 3513 744 3044 326 
Q 2575 -91 1722 -91 
Q 1428 -91 1123 -41 
Q 819 9 494 109 
L 494 744 
Q 775 591 1075 516 
Q 1375 441 1709 441 
Q 2250 441 2565 725 
Q 2881 1009 2881 1497 
Q 2881 1984 2565 2268 
Q 2250 2553 1709 2553 
Q 1456 2553 1204 2497 
Q 953 2441 691 2322 
L 691 4666 
z
" transform="scale(0.015625)"/>
        <path id="DejaVuSans-2d" d="M 313 2009 
L 1997 2009 
L 1997 1497 
L 313 1497 
L 313 2009 
z
" transform="scale(0.015625)"/>
        <path id="DejaVuSans-31" d="M 794 531 
L 1825 531 
L 1825 4091 
L 703 3866 
L 703 4441 
L 1819 4666 
L 2450 4666 
L 2450 531 
L 3481 531 
L 3481 0 
L 794 0 
L 794 531 
z
" transform="scale(0.015625)"/>
       </defs>
       <use xlink:href="#DejaVuSans-32"/>
       <use xlink:href="#DejaVuSans-30" x="63.623047"/>
       <use xlink:href="#DejaVuSans-30" x="127.246094"/>
       <use xlink:href="#DejaVuSans-35" x="190.869141"/>
       <use xlink:href="#DejaVuSans-2d" x="254.492188"/>
       <use xlink:href="#DejaVuSans-30" x="290.576172"/>
       <use xlink:href="#DejaVuSans-31" x="354.199219"/>
      </g>
     </g>
    </g>
    <g id="xtick_2">
     <g id="line2d_2">
      <g>
       <use xlink:href="#mb55079d6ad" x="106.404665" y="288.430125" style="stroke: #000000; stroke-width: 0.8"/>
      </g>
     </g>
     <g id="text_2">
      <!-- 2005-04 -->
      <g transform="translate(69.179844 322.901971)rotate(-30)scale(0.1 -0.1)">
       <defs>
        <path id="DejaVuSans-34" d="M 2419 4116 
L 825 1625 
L 2419 1625 
L 2419 4116 
z
M 2253 4666 
L 3047 4666 
L 3047 1625 
L 3713 1625 
L 3713 1100 
L 3047 1100 
L 3047 0 
L 2419 0 
L 2419 1100 
L 313 1100 
L 313 1709 
L 2253 4666 
z
" transform="scale(0.015625)"/>
       </defs>
       <use xlink:href="#DejaVuSans-32"/>
       <use xlink:href="#DejaVuSans-30" x="63.623047"/>
       <use xlink:href="#DejaVuSans-30" x="127.246094"/>
       <use xlink:href="#DejaVuSans-35" x="190.869141"/>
       <use xlink:href="#DejaVuSans-2d" x="254.492188"/>
       <use xlink:href="#DejaVuSans-30" x="290.576172"/>
       <use xlink:href="#DejaVuSans-34" x="354.199219"/>
      </g>
     </g>
    </g>
    <g id="xtick_3">
     <g id="line2d_3">
      <g>
       <use xlink:href="#mb55079d6ad" x="146.87761" y="288.430125" style="stroke: #000000; stroke-width: 0.8"/>
      </g>
     </g>
     <g id="text_3">
      <!-- 2005-07 -->
      <g transform="translate(109.652789 322.901971)rotate(-30)scale(0.1 -0.1)">
       <defs>
        <path id="DejaVuSans-37" d="M 525 4666 
L 3525 4666 
L 3525 4397 
L 1831 0 
L 1172 0 
L 2766 4134 
L 525 4134 
L 525 4666 
z
" transform="scale(0.015625)"/>
       </defs>
       <use xlink:href="#DejaVuSans-32"/>
       <use xlink:href="#DejaVuSans-30" x="63.623047"/>
       <use xlink:href="#DejaVuSans-30" x="127.246094"/>
       <use xlink:href="#DejaVuSans-35" x="190.869141"/>
       <use xlink:href="#DejaVuSans-2d" x="254.492188"/>
       <use xlink:href="#DejaVuSans-30" x="290.576172"/>
       <use xlink:href="#DejaVuSans-37" x="354.199219"/>
      </g>
     </g>
    </g>
    <g id="xtick_4">
     <g id="line2d_4">
      <g>
       <use xlink:href="#mb55079d6ad" x="187.795313" y="288.430125" style="stroke: #000000; stroke-width: 0.8"/>
      </g>
     </g>
     <g id="text_4">
      <!-- 2005-10 -->
      <g transform="translate(150.570492 322.901971)rotate(-30)scale(0.1 -0.1)">
       <use xlink:href="#DejaVuSans-32"/>
       <use xlink:href="#DejaVuSans-30" x="63.623047"/>
       <use xlink:href="#DejaVuSans-30" x="127.246094"/>
       <use xlink:href="#DejaVuSans-35" x="190.869141"/>
       <use xlink:href="#DejaVuSans-2d" x="254.492188"/>
       <use xlink:href="#DejaVuSans-31" x="290.576172"/>
       <use xlink:href="#DejaVuSans-30" x="354.199219"/>
      </g>
     </g>
    </g>
    <g id="xtick_5">
     <g id="line2d_5">
      <g>
       <use xlink:href="#mb55079d6ad" x="228.713016" y="288.430125" style="stroke: #000000; stroke-width: 0.8"/>
      </g>
     </g>
     <g id="text_5">
      <!-- 2006-01 -->
      <g transform="translate(191.488195 322.901971)rotate(-30)scale(0.1 -0.1)">
       <defs>
        <path id="DejaVuSans-36" d="M 2113 2584 
Q 1688 2584 1439 2293 
Q 1191 2003 1191 1497 
Q 1191 994 1439 701 
Q 1688 409 2113 409 
Q 2538 409 2786 701 
Q 3034 994 3034 1497 
Q 3034 2003 2786 2293 
Q 2538 2584 2113 2584 
z
M 3366 4563 
L 3366 3988 
Q 3128 4100 2886 4159 
Q 2644 4219 2406 4219 
Q 1781 4219 1451 3797 
Q 1122 3375 1075 2522 
Q 1259 2794 1537 2939 
Q 1816 3084 2150 3084 
Q 2853 3084 3261 2657 
Q 3669 2231 3669 1497 
Q 3669 778 3244 343 
Q 2819 -91 2113 -91 
Q 1303 -91 875 529 
Q 447 1150 447 2328 
Q 447 3434 972 4092 
Q 1497 4750 2381 4750 
Q 2619 4750 2861 4703 
Q 3103 4656 3366 4563 
z
" transform="scale(0.015625)"/>
       </defs>
       <use xlink:href="#DejaVuSans-32"/>
       <use xlink:href="#DejaVuSans-30" x="63.623047"/>
       <use xlink:href="#DejaVuSans-30" x="127.246094"/>
       <use xlink:href="#DejaVuSans-36" x="190.869141"/>
       <use xlink:href="#DejaVuSans-2d" x="254.492188"/>
       <use xlink:href="#DejaVuSans-30" x="290.576172"/>
       <use xlink:href="#DejaVuSans-31" x="354.199219"/>
      </g>
     </g>
    </g>
    <g id="xtick_6">
     <g id="line2d_6">
      <g>
       <use xlink:href="#mb55079d6ad" x="268.741203" y="288.430125" style="stroke: #000000; stroke-width: 0.8"/>
      </g>
     </g>
     <g id="text_6">
      <!-- 2006-04 -->
      <g transform="translate(231.516383 322.901971)rotate(-30)scale(0.1 -0.1)">
       <use xlink:href="#DejaVuSans-32"/>
       <use xlink:href="#DejaVuSans-30" x="63.623047"/>
       <use xlink:href="#DejaVuSans-30" x="127.246094"/>
       <use xlink:href="#DejaVuSans-36" x="190.869141"/>
       <use xlink:href="#DejaVuSans-2d" x="254.492188"/>
       <use xlink:href="#DejaVuSans-30" x="290.576172"/>
       <use xlink:href="#DejaVuSans-34" x="354.199219"/>
      </g>
     </g>
    </g>
    <g id="xtick_7">
     <g id="line2d_7">
      <g>
       <use xlink:href="#mb55079d6ad" x="309.214149" y="288.430125" style="stroke: #000000; stroke-width: 0.8"/>
      </g>
     </g>
     <g id="text_7">
      <!-- 2006-07 -->
      <g transform="translate(271.989328 322.901971)rotate(-30)scale(0.1 -0.1)">
       <use xlink:href="#DejaVuSans-32"/>
       <use xlink:href="#DejaVuSans-30" x="63.623047"/>
       <use xlink:href="#DejaVuSans-30" x="127.246094"/>
       <use xlink:href="#DejaVuSans-36" x="190.869141"/>
       <use xlink:href="#DejaVuSans-2d" x="254.492188"/>
       <use xlink:href="#DejaVuSans-30" x="290.576172"/>
       <use xlink:href="#DejaVuSans-37" x="354.199219"/>
      </g>
     </g>
    </g>
    <g id="xtick_8">
     <g id="line2d_8">
      <g>
       <use xlink:href="#mb55079d6ad" x="350.131851" y="288.430125" style="stroke: #000000; stroke-width: 0.8"/>
      </g>
     </g>
     <g id="text_8">
      <!-- 2006-10 -->
      <g transform="translate(312.907031 322.901971)rotate(-30)scale(0.1 -0.1)">
       <use xlink:href="#DejaVuSans-32"/>
       <use xlink:href="#DejaVuSans-30" x="63.623047"/>
       <use xlink:href="#DejaVuSans-30" x="127.246094"/>
       <use xlink:href="#DejaVuSans-36" x="190.869141"/>
       <use xlink:href="#DejaVuSans-2d" x="254.492188"/>
       <use xlink:href="#DejaVuSans-31" x="290.576172"/>
       <use xlink:href="#DejaVuSans-30" x="354.199219"/>
      </g>
     </g>
    </g>
    <g id="xtick_9">
     <g id="line2d_9">
      <g>
       <use xlink:href="#mb55079d6ad" x="391.049554" y="288.430125" style="stroke: #000000; stroke-width: 0.8"/>
      </g>
     </g>
     <g id="text_9">
      <!-- 2007-01 -->
      <g transform="translate(353.824733 322.901971)rotate(-30)scale(0.1 -0.1)">
       <use xlink:href="#DejaVuSans-32"/>
       <use xlink:href="#DejaVuSans-30" x="63.623047"/>
       <use xlink:href="#DejaVuSans-30" x="127.246094"/>
       <use xlink:href="#DejaVuSans-37" x="190.869141"/>
       <use xlink:href="#DejaVuSans-2d" x="254.492188"/>
       <use xlink:href="#DejaVuSans-30" x="290.576172"/>
       <use xlink:href="#DejaVuSans-31" x="354.199219"/>
      </g>
     </g>
    </g>
    <g id="text_10">
     <!-- timesteps -->
     <g transform="translate(203.987344 336.301471)scale(0.1 -0.1)">
      <defs>
       <path id="DejaVuSans-74" d="M 1172 4494 
L 1172 3500 
L 2356 3500 
L 2356 3053 
L 1172 3053 
L 1172 1153 
Q 1172 725 1289 603 
Q 1406 481 1766 481 
L 2356 481 
L 2356 0 
L 1766 0 
Q 1100 0 847 248 
Q 594 497 594 1153 
L 594 3053 
L 172 3053 
L 172 3500 
L 594 3500 
L 594 4494 
L 1172 4494 
z
" transform="scale(0.015625)"/>
       <path id="DejaVuSans-69" d="M 603 3500 
L 1178 3500 
L 1178 0 
L 603 0 
L 603 3500 
z
M 603 4863 
L 1178 4863 
L 1178 4134 
L 603 4134 
L 603 4863 
z
" transform="scale(0.015625)"/>
       <path id="DejaVuSans-6d" d="M 3328 2828 
Q 3544 3216 3844 3400 
Q 4144 3584 4550 3584 
Q 5097 3584 5394 3201 
Q 5691 2819 5691 2113 
L 5691 0 
L 5113 0 
L 5113 2094 
Q 5113 2597 4934 2840 
Q 4756 3084 4391 3084 
Q 3944 3084 3684 2787 
Q 3425 2491 3425 1978 
L 3425 0 
L 2847 0 
L 2847 2094 
Q 2847 2600 2669 2842 
Q 2491 3084 2119 3084 
Q 1678 3084 1418 2786 
Q 1159 2488 1159 1978 
L 1159 0 
L 581 0 
L 581 3500 
L 1159 3500 
L 1159 2956 
Q 1356 3278 1631 3431 
Q 1906 3584 2284 3584 
Q 2666 3584 2933 3390 
Q 3200 3197 3328 2828 
z
" transform="scale(0.015625)"/>
       <path id="DejaVuSans-65" d="M 3597 1894 
L 3597 1613 
L 953 1613 
Q 991 1019 1311 708 
Q 1631 397 2203 397 
Q 2534 397 2845 478 
Q 3156 559 3463 722 
L 3463 178 
Q 3153 47 2828 -22 
Q 2503 -91 2169 -91 
Q 1331 -91 842 396 
Q 353 884 353 1716 
Q 353 2575 817 3079 
Q 1281 3584 2069 3584 
Q 2775 3584 3186 3129 
Q 3597 2675 3597 1894 
z
M 3022 2063 
Q 3016 2534 2758 2815 
Q 2500 3097 2075 3097 
Q 1594 3097 1305 2825 
Q 1016 2553 972 2059 
L 3022 2063 
z
" transform="scale(0.015625)"/>
       <path id="DejaVuSans-73" d="M 2834 3397 
L 2834 2853 
Q 2591 2978 2328 3040 
Q 2066 3103 1784 3103 
Q 1356 3103 1142 2972 
Q 928 2841 928 2578 
Q 928 2378 1081 2264 
Q 1234 2150 1697 2047 
L 1894 2003 
Q 2506 1872 2764 1633 
Q 3022 1394 3022 966 
Q 3022 478 2636 193 
Q 2250 -91 1575 -91 
Q 1294 -91 989 -36 
Q 684 19 347 128 
L 347 722 
Q 666 556 975 473 
Q 1284 391 1588 391 
Q 1994 391 2212 530 
Q 2431 669 2431 922 
Q 2431 1156 2273 1281 
Q 2116 1406 1581 1522 
L 1381 1569 
Q 847 1681 609 1914 
Q 372 2147 372 2553 
Q 372 3047 722 3315 
Q 1072 3584 1716 3584 
Q 2034 3584 2315 3537 
Q 2597 3491 2834 3397 
z
" transform="scale(0.015625)"/>
       <path id="DejaVuSans-70" d="M 1159 525 
L 1159 -1331 
L 581 -1331 
L 581 3500 
L 1159 3500 
L 1159 2969 
Q 1341 3281 1617 3432 
Q 1894 3584 2278 3584 
Q 2916 3584 3314 3078 
Q 3713 2572 3713 1747 
Q 3713 922 3314 415 
Q 2916 -91 2278 -91 
Q 1894 -91 1617 61 
Q 1341 213 1159 525 
z
M 3116 1747 
Q 3116 2381 2855 2742 
Q 2594 3103 2138 3103 
Q 1681 3103 1420 2742 
Q 1159 2381 1159 1747 
Q 1159 1113 1420 752 
Q 1681 391 2138 391 
Q 2594 391 2855 752 
Q 3116 1113 3116 1747 
z
" transform="scale(0.015625)"/>
      </defs>
      <use xlink:href="#DejaVuSans-74"/>
      <use xlink:href="#DejaVuSans-69" x="39.208984"/>
      <use xlink:href="#DejaVuSans-6d" x="66.992188"/>
      <use xlink:href="#DejaVuSans-65" x="164.404297"/>
      <use xlink:href="#DejaVuSans-73" x="225.927734"/>
      <use xlink:href="#DejaVuSans-74" x="278.027344"/>
      <use xlink:href="#DejaVuSans-65" x="317.236328"/>
      <use xlink:href="#DejaVuSans-70" x="378.759766"/>
      <use xlink:href="#DejaVuSans-73" x="442.236328"/>
     </g>
    </g>
   </g>
   <g id="matplotlib.axis_2">
    <g id="ytick_1">
     <g id="line2d_10">
      <defs>
       <path id="m7146d11658" d="M 0 0 
L -3.5 0 
" style="stroke: #000000; stroke-width: 0.8"/>
      </defs>
      <g>
       <use xlink:href="#m7146d11658" x="50.14375" y="264.482838" style="stroke: #000000; stroke-width: 0.8"/>
      </g>
     </g>
     <g id="text_11">
      <!-- 3.25 -->
      <g transform="translate(20.878125 268.282057)scale(0.1 -0.1)">
       <defs>
        <path id="DejaVuSans-33" d="M 2597 2516 
Q 3050 2419 3304 2112 
Q 3559 1806 3559 1356 
Q 3559 666 3084 287 
Q 2609 -91 1734 -91 
Q 1441 -91 1130 -33 
Q 819 25 488 141 
L 488 750 
Q 750 597 1062 519 
Q 1375 441 1716 441 
Q 2309 441 2620 675 
Q 2931 909 2931 1356 
Q 2931 1769 2642 2001 
Q 2353 2234 1838 2234 
L 1294 2234 
L 1294 2753 
L 1863 2753 
Q 2328 2753 2575 2939 
Q 2822 3125 2822 3475 
Q 2822 3834 2567 4026 
Q 2313 4219 1838 4219 
Q 1578 4219 1281 4162 
Q 984 4106 628 3988 
L 628 4550 
Q 988 4650 1302 4700 
Q 1616 4750 1894 4750 
Q 2613 4750 3031 4423 
Q 3450 4097 3450 3541 
Q 3450 3153 3228 2886 
Q 3006 2619 2597 2516 
z
" transform="scale(0.015625)"/>
        <path id="DejaVuSans-2e" d="M 684 794 
L 1344 794 
L 1344 0 
L 684 0 
L 684 794 
z
" transform="scale(0.015625)"/>
       </defs>
       <use xlink:href="#DejaVuSans-33"/>
       <use xlink:href="#DejaVuSans-2e" x="63.623047"/>
       <use xlink:href="#DejaVuSans-32" x="95.410156"/>
       <use xlink:href="#DejaVuSans-35" x="159.033203"/>
      </g>
     </g>
    </g>
    <g id="ytick_2">
     <g id="line2d_11">
      <g>
       <use xlink:href="#m7146d11658" x="50.14375" y="234.525974" style="stroke: #000000; stroke-width: 0.8"/>
      </g>
     </g>
     <g id="text_12">
      <!-- 3.50 -->
      <g transform="translate(20.878125 238.325193)scale(0.1 -0.1)">
       <use xlink:href="#DejaVuSans-33"/>
       <use xlink:href="#DejaVuSans-2e" x="63.623047"/>
       <use xlink:href="#DejaVuSans-35" x="95.410156"/>
       <use xlink:href="#DejaVuSans-30" x="159.033203"/>
      </g>
     </g>
    </g>
    <g id="ytick_3">
     <g id="line2d_12">
      <g>
       <use xlink:href="#m7146d11658" x="50.14375" y="204.569111" style="stroke: #000000; stroke-width: 0.8"/>
      </g>
     </g>
     <g id="text_13">
      <!-- 3.75 -->
      <g transform="translate(20.878125 208.368329)scale(0.1 -0.1)">
       <use xlink:href="#DejaVuSans-33"/>
       <use xlink:href="#DejaVuSans-2e" x="63.623047"/>
       <use xlink:href="#DejaVuSans-37" x="95.410156"/>
       <use xlink:href="#DejaVuSans-35" x="159.033203"/>
      </g>
     </g>
    </g>
    <g id="ytick_4">
     <g id="line2d_13">
      <g>
       <use xlink:href="#m7146d11658" x="50.14375" y="174.612247" style="stroke: #000000; stroke-width: 0.8"/>
      </g>
     </g>
     <g id="text_14">
      <!-- 4.00 -->
      <g transform="translate(20.878125 178.411466)scale(0.1 -0.1)">
       <use xlink:href="#DejaVuSans-34"/>
       <use xlink:href="#DejaVuSans-2e" x="63.623047"/>
       <use xlink:href="#DejaVuSans-30" x="95.410156"/>
       <use xlink:href="#DejaVuSans-30" x="159.033203"/>
      </g>
     </g>
    </g>
    <g id="ytick_5">
     <g id="line2d_14">
      <g>
       <use xlink:href="#m7146d11658" x="50.14375" y="144.655383" style="stroke: #000000; stroke-width: 0.8"/>
      </g>
     </g>
     <g id="text_15">
      <!-- 4.25 -->
      <g transform="translate(20.878125 148.454602)scale(0.1 -0.1)">
       <use xlink:href="#DejaVuSans-34"/>
       <use xlink:href="#DejaVuSans-2e" x="63.623047"/>
       <use xlink:href="#DejaVuSans-32" x="95.410156"/>
       <use xlink:href="#DejaVuSans-35" x="159.033203"/>
      </g>
     </g>
    </g>
    <g id="ytick_6">
     <g id="line2d_15">
      <g>
       <use xlink:href="#m7146d11658" x="50.14375" y="114.69852" style="stroke: #000000; stroke-width: 0.8"/>
      </g>
     </g>
     <g id="text_16">
      <!-- 4.50 -->
      <g transform="translate(20.878125 118.497738)scale(0.1 -0.1)">
       <use xlink:href="#DejaVuSans-34"/>
       <use xlink:href="#DejaVuSans-2e" x="63.623047"/>
       <use xlink:href="#DejaVuSans-35" x="95.410156"/>
       <use xlink:href="#DejaVuSans-30" x="159.033203"/>
      </g>
     </g>
    </g>
    <g id="ytick_7">
     <g id="line2d_16">
      <g>
       <use xlink:href="#m7146d11658" x="50.14375" y="84.741656" style="stroke: #000000; stroke-width: 0.8"/>
      </g>
     </g>
     <g id="text_17">
      <!-- 4.75 -->
      <g transform="translate(20.878125 88.540875)scale(0.1 -0.1)">
       <use xlink:href="#DejaVuSans-34"/>
       <use xlink:href="#DejaVuSans-2e" x="63.623047"/>
       <use xlink:href="#DejaVuSans-37" x="95.410156"/>
       <use xlink:href="#DejaVuSans-35" x="159.033203"/>
      </g>
     </g>
    </g>
    <g id="ytick_8">
     <g id="line2d_17">
      <g>
       <use xlink:href="#m7146d11658" x="50.14375" y="54.784792" style="stroke: #000000; stroke-width: 0.8"/>
      </g>
     </g>
     <g id="text_18">
      <!-- 5.00 -->
      <g transform="translate(20.878125 58.584011)scale(0.1 -0.1)">
       <use xlink:href="#DejaVuSans-35"/>
       <use xlink:href="#DejaVuSans-2e" x="63.623047"/>
       <use xlink:href="#DejaVuSans-30" x="95.410156"/>
       <use xlink:href="#DejaVuSans-30" x="159.033203"/>
      </g>
     </g>
    </g>
    <g id="ytick_9">
     <g id="line2d_18">
      <g>
       <use xlink:href="#m7146d11658" x="50.14375" y="24.827929" style="stroke: #000000; stroke-width: 0.8"/>
      </g>
     </g>
     <g id="text_19">
      <!-- 5.25 -->
      <g transform="translate(20.878125 28.627147)scale(0.1 -0.1)">
       <use xlink:href="#DejaVuSans-35"/>
       <use xlink:href="#DejaVuSans-2e" x="63.623047"/>
       <use xlink:href="#DejaVuSans-32" x="95.410156"/>
       <use xlink:href="#DejaVuSans-35" x="159.033203"/>
      </g>
     </g>
    </g>
    <g id="text_20">
     <!-- storage -->
     <g transform="translate(14.798438 174.368656)rotate(-90)scale(0.1 -0.1)">
      <defs>
       <path id="DejaVuSans-6f" d="M 1959 3097 
Q 1497 3097 1228 2736 
Q 959 2375 959 1747 
Q 959 1119 1226 758 
Q 1494 397 1959 397 
Q 2419 397 2687 759 
Q 2956 1122 2956 1747 
Q 2956 2369 2687 2733 
Q 2419 3097 1959 3097 
z
M 1959 3584 
Q 2709 3584 3137 3096 
Q 3566 2609 3566 1747 
Q 3566 888 3137 398 
Q 2709 -91 1959 -91 
Q 1206 -91 779 398 
Q 353 888 353 1747 
Q 353 2609 779 3096 
Q 1206 3584 1959 3584 
z
" transform="scale(0.015625)"/>
       <path id="DejaVuSans-72" d="M 2631 2963 
Q 2534 3019 2420 3045 
Q 2306 3072 2169 3072 
Q 1681 3072 1420 2755 
Q 1159 2438 1159 1844 
L 1159 0 
L 581 0 
L 581 3500 
L 1159 3500 
L 1159 2956 
Q 1341 3275 1631 3429 
Q 1922 3584 2338 3584 
Q 2397 3584 2469 3576 
Q 2541 3569 2628 3553 
L 2631 2963 
z
" transform="scale(0.015625)"/>
       <path id="DejaVuSans-61" d="M 2194 1759 
Q 1497 1759 1228 1600 
Q 959 1441 959 1056 
Q 959 750 1161 570 
Q 1363 391 1709 391 
Q 2188 391 2477 730 
Q 2766 1069 2766 1631 
L 2766 1759 
L 2194 1759 
z
M 3341 1997 
L 3341 0 
L 2766 0 
L 2766 531 
Q 2569 213 2275 61 
Q 1981 -91 1556 -91 
Q 1019 -91 701 211 
Q 384 513 384 1019 
Q 384 1609 779 1909 
Q 1175 2209 1959 2209 
L 2766 2209 
L 2766 2266 
Q 2766 2663 2505 2880 
Q 2244 3097 1772 3097 
Q 1472 3097 1187 3025 
Q 903 2953 641 2809 
L 641 3341 
Q 956 3463 1253 3523 
Q 1550 3584 1831 3584 
Q 2591 3584 2966 3190 
Q 3341 2797 3341 1997 
z
" transform="scale(0.015625)"/>
       <path id="DejaVuSans-67" d="M 2906 1791 
Q 2906 2416 2648 2759 
Q 2391 3103 1925 3103 
Q 1463 3103 1205 2759 
Q 947 2416 947 1791 
Q 947 1169 1205 825 
Q 1463 481 1925 481 
Q 2391 481 2648 825 
Q 2906 1169 2906 1791 
z
M 3481 434 
Q 3481 -459 3084 -895 
Q 2688 -1331 1869 -1331 
Q 1566 -1331 1297 -1286 
Q 1028 -1241 775 -1147 
L 775 -588 
Q 1028 -725 1275 -790 
Q 1522 -856 1778 -856 
Q 2344 -856 2625 -561 
Q 2906 -266 2906 331 
L 2906 616 
Q 2728 306 2450 153 
Q 2172 0 1784 0 
Q 1141 0 747 490 
Q 353 981 353 1791 
Q 353 2603 747 3093 
Q 1141 3584 1784 3584 
Q 2172 3584 2450 3431 
Q 2728 3278 2906 2969 
L 2906 3500 
L 3481 3500 
L 3481 434 
z
" transform="scale(0.015625)"/>
      </defs>
      <use xlink:href="#DejaVuSans-73"/>
      <use xlink:href="#DejaVuSans-74" x="52.099609"/>
      <use xlink:href="#DejaVuSans-6f" x="91.308594"/>
      <use xlink:href="#DejaVuSans-72" x="152.490234"/>
      <use xlink:href="#DejaVuSans-61" x="193.603516"/>
      <use xlink:href="#DejaVuSans-67" x="254.882812"/>
      <use xlink:href="#DejaVuSans-65" x="318.359375"/>
     </g>
    </g>
    <g id="text_21">
     <!-- 1e10 -->
     <g transform="translate(50.14375 19.318125)scale(0.1 -0.1)">
      <use xlink:href="#DejaVuSans-31"/>
      <use xlink:href="#DejaVuSans-65" x="63.623047"/>
      <use xlink:href="#DejaVuSans-31" x="125.146484"/>
      <use xlink:href="#DejaVuSans-30" x="188.769531"/>
     </g>
    </g>
   </g>
   <g id="line2d_19">
    <path d="M 66.376477 124.877952 
L 66.598856 125.183033 
L 66.784172 125.589691 
L 66.858298 125.734424 
L 67.025082 126.08452 
L 67.154803 126.136598 
L 67.303056 126.386794 
L 67.488371 126.631722 
L 67.673687 127.060574 
L 67.747813 127.205774 
L 67.896066 127.437619 
L 67.951661 127.534192 
L 68.007255 127.660721 
L 68.285229 128.563383 
L 68.30376 128.55695 
L 68.322292 128.654442 
L 68.600265 129.598099 
L 68.692923 129.760335 
L 68.859707 130.072353 
L 69.878944 131.029128 
L 70.045728 131.339349 
L 70.175449 131.522748 
L 70.30517 131.683568 
L 70.360764 131.815037 
L 70.527549 132.13446 
L 70.65727 132.318346 
L 70.861117 132.837611 
L 71.454127 133.667317 
L 71.620911 133.963114 
L 71.695037 134.029218 
L 71.861821 134.336397 
L 71.973011 134.503429 
L 72.158327 134.885657 
L 72.325111 135.198749 
L 72.491895 135.495168 
L 72.566021 135.623628 
L 73.344347 136.688969 
L 73.529663 137.08218 
L 73.937357 137.741981 
L 74.104141 138.052724 
L 74.289457 138.279877 
L 74.474773 138.661735 
L 74.771278 139.058964 
L 74.938062 139.41407 
L 75.012188 139.542344 
L 75.27163 139.780412 
L 75.419883 140.004953 
L 75.771982 140.371081 
L 75.97583 140.858083 
L 76.161145 141.337421 
L 76.624435 142.343822 
L 76.828282 142.827149 
L 76.958003 143.139535 
L 77.143318 143.586447 
L 77.606608 144.37375 
L 77.903113 145.340542 
L 78.403465 146.421409 
L 78.625844 147.017579 
L 79.070602 147.86592 
L 79.255917 148.270447 
L 79.700675 148.953976 
L 79.867459 149.280832 
L 79.941585 149.420293 
L 80.108369 149.717784 
L 80.256622 149.761303 
L 80.34928 149.804294 
L 80.479001 149.966763 
L 80.534595 149.913442 
L 80.59019 150.010115 
L 80.664316 150.107309 
L 80.756974 150.272139 
L 80.794037 150.249296 
L 80.831101 150.33476 
L 80.886695 150.320206 
L 81.072011 150.771718 
L 81.238795 150.815066 
L 81.368516 151.189031 
L 81.405579 151.156366 
L 81.424111 151.136578 
L 81.442642 151.23407 
L 81.479705 151.233834 
L 81.64649 151.812973 
L 81.683553 151.790706 
L 81.942995 151.679475 
L 82.017121 151.869086 
L 82.072716 151.84129 
L 82.220968 151.881398 
L 82.2395 151.97889 
L 82.332158 151.897472 
L 82.443347 151.978962 
L 82.536005 152.146581 
L 82.573068 152.132001 
L 82.610131 152.108977 
L 82.647194 152.200552 
L 82.851042 152.732716 
L 83.240204 152.756545 
L 83.369925 152.94277 
L 83.406989 152.911838 
L 83.42552 153.00933 
L 83.444052 153.106822 
L 83.53671 153.054035 
L 83.722025 153.0685 
L 83.796151 153.161164 
L 83.833215 153.150272 
L 83.925872 153.07143 
L 83.962936 153.161855 
L 83.981467 153.156955 
L 83.999999 153.254447 
L 84.148251 153.514322 
L 84.277972 153.5965 
L 84.463288 154.034211 
L 84.555946 154.079327 
L 84.704198 154.560398 
L 84.741261 154.530341 
L 84.908046 154.442746 
L 85.056298 154.674732 
L 85.42693 154.773656 
L 85.593714 155.164817 
L 85.612245 155.159018 
L 85.649308 155.144144 
L 85.66784 155.241636 
L 85.797561 155.410397 
L 85.816092 155.405774 
L 85.834624 155.503266 
L 85.964345 155.679166 
L 86.112598 155.737295 
L 86.242319 156.006822 
L 86.26085 156.000322 
L 86.279382 155.989039 
L 86.297913 156.086531 
L 86.446166 156.287668 
L 86.50176 156.38188 
L 86.520292 156.479372 
L 86.61295 156.430845 
L 86.724139 156.506804 
L 86.872392 156.786654 
L 87.187428 156.874109 
L 87.354213 157.17395 
L 87.502465 157.21144 
L 87.576591 157.403378 
L 87.632186 157.371042 
L 87.743376 157.361641 
L 87.817502 157.55979 
L 87.873097 157.526245 
L 87.91016 157.615592 
L 87.965754 157.594123 
L 88.095475 157.754454 
L 88.169602 157.852369 
L 88.262259 157.947527 
L 88.280791 157.940687 
L 88.410512 157.996581 
L 88.466107 158.087243 
L 88.521701 158.047109 
L 88.558765 158.022318 
L 88.577296 158.11981 
L 88.707017 158.313021 
L 88.725549 158.306317 
L 88.799675 158.28112 
L 88.836738 158.369112 
L 88.929396 158.554212 
L 88.966459 158.51997 
L 89.003522 158.49543 
L 89.022054 158.592922 
L 89.151775 158.694417 
L 89.466811 158.644598 
L 89.633596 159.033803 
L 89.670659 159.010993 
L 89.68919 159.108485 
L 89.818911 159.281502 
L 90.004227 159.238131 
L 90.133948 159.483987 
L 90.152479 159.47373 
L 90.411921 159.399163 
L 90.560174 159.675813 
L 90.671363 159.739328 
L 90.838147 159.779065 
L 91.004932 160.140295 
L 91.041995 160.228194 
L 91.097589 160.211875 
L 91.190247 160.275793 
L 91.3385 160.482568 
L 91.523815 160.556789 
L 91.597942 160.650076 
L 91.635005 160.623982 
L 91.6906 160.606148 
L 91.709131 160.70364 
L 91.912978 161.194487 
L 92.190952 161.244835 
L 92.746899 161.431898 
L 92.765431 161.52939 
L 92.858088 161.463187 
L 92.969278 161.507402 
L 93.098999 161.682103 
L 93.488162 161.661648 
L 93.617883 161.937405 
L 93.636414 161.914189 
L 93.692009 161.981512 
L 93.766135 161.93639 
L 93.858793 161.989774 
L 93.988514 162.165935 
L 94.118235 162.198506 
L 94.136767 162.295998 
L 94.229424 162.245957 
L 94.303551 162.305531 
L 94.433272 162.47557 
L 94.711245 162.417822 
L 94.729777 162.515314 
L 94.822435 162.431749 
L 95.044813 162.421257 
L 95.063345 162.518749 
L 95.156003 162.465982 
L 95.193066 162.417967 
L 95.230129 162.501278 
L 95.248661 162.59877 
L 95.341319 162.57127 
L 96.230834 162.299234 
L 96.323492 162.449655 
L 96.360555 162.417141 
L 96.786781 162.143041 
L 96.805312 162.240533 
L 96.89797 162.180788 
L 97.157412 162.143278 
L 97.213007 162.311787 
L 97.287133 162.246608 
L 97.416854 162.261588 
L 97.472449 162.448554 
L 97.546575 162.428112 
L 97.750422 162.411497 
L 97.806017 162.598585 
L 97.880143 162.517997 
L 97.935738 162.490649 
L 97.972801 162.583859 
L 98.287838 162.407302 
L 98.306369 162.379268 
L 98.324901 162.47676 
L 98.343433 162.46359 
L 98.361964 162.561082 
L 98.454622 162.538765 
L 98.677001 162.50036 
L 98.695532 162.597852 
L 98.78819 162.509226 
L 99.084695 162.563427 
L 99.14029 162.751552 
L 99.214416 162.671108 
L 99.325606 162.745962 
L 99.455327 162.77774 
L 99.585048 162.917405 
L 99.7333 162.943219 
L 99.788895 163.031694 
L 99.807427 163.129186 
L 99.900084 163.054687 
L 100.029805 163.091167 
L 100.233653 162.984597 
L 100.252184 163.082089 
L 100.344842 163.008412 
L 100.530158 162.983266 
L 100.67841 163.256669 
L 100.826663 163.293847 
L 100.919321 163.465626 
L 100.956384 163.440613 
L 101.141699 163.356485 
L 101.97562 163.134552 
L 102.105341 163.393673 
L 102.123873 163.380669 
L 102.309188 163.266072 
L 102.32772 163.363564 
L 102.420378 163.448269 
L 102.642756 163.32963 
L 103.309893 163.125363 
L 103.439614 163.281725 
L 103.643461 163.262893 
L 103.699056 163.354207 
L 103.754651 163.2914 
L 103.977029 163.303519 
L 103.995561 163.401011 
L 104.088219 163.341314 
L 104.310598 163.266394 
L 104.477382 163.299776 
L 104.755355 163.277105 
L 104.885076 163.415262 
L 105.014797 163.432899 
L 105.144518 163.522805 
L 105.311302 163.528468 
L 105.366897 163.719597 
L 105.441023 163.649654 
L 106.015502 163.546649 
L 106.052565 163.641298 
L 106.126691 163.585595 
L 106.46026 163.492597 
L 106.682638 163.655718 
L 106.830891 163.8825 
L 106.905017 164.007972 
L 107.071801 164.348898 
L 107.423901 164.569677 
L 107.553622 164.716908 
L 108.313416 165.148568 
L 108.443137 165.284748 
L 109.647689 165.807956 
L 109.870068 165.877835 
L 109.999789 166.038381 
L 110.611331 166.431061 
L 110.741052 166.586292 
L 110.889304 166.642801 
L 111.630567 166.954769 
L 111.797351 167.025818 
L 112.520082 167.340872 
L 112.686867 167.415105 
L 112.946308 167.457412 
L 113.113093 167.480249 
L 113.409598 167.550011 
L 113.539319 167.556997 
L 113.854355 167.641647 
L 113.984076 167.649923 
L 114.26205 167.699602 
L 114.892123 167.81113 
L 115.151565 167.853908 
L 115.781638 167.978007 
L 116.04108 168.025986 
L 116.912064 168.176842 
L 117.264164 168.190921 
L 117.505074 168.200263 
L 117.727453 168.234937 
L 117.949832 168.253962 
L 118.172211 168.290875 
L 118.39459 168.312187 
L 118.616968 168.351333 
L 118.839347 168.374921 
L 119.061726 168.416305 
L 119.284105 168.442178 
L 119.636205 168.5908 
L 119.728862 168.585189 
L 119.747394 168.61836 
L 120.099494 169.062326 
L 120.192152 169.181663 
L 120.52572 169.587382 
L 120.618378 169.695238 
L 120.970478 170.138016 
L 121.063135 170.246605 
L 121.415235 170.69209 
L 121.507893 170.801413 
L 121.859993 171.249082 
L 121.952651 171.358812 
L 122.30475 171.80812 
L 122.397408 171.91827 
L 122.749508 172.331818 
L 122.842166 172.391022 
L 123.194266 172.805465 
L 123.286924 172.864699 
L 123.60196 173.220507 
L 124.176439 173.79576 
L 124.491476 174.151558 
L 125.065954 174.727044 
L 125.380991 175.08297 
L 128.549889 177.393967 
L 128.624015 177.467943 
L 128.957584 177.709216 
L 129.105836 177.768679 
L 129.346746 177.920766 
L 129.717378 178.109061 
L 129.939757 178.184605 
L 130.180667 178.348995 
L 130.384514 178.42644 
L 130.625425 178.590483 
L 130.829272 178.667874 
L 131.070182 178.831766 
L 131.27403 178.909089 
L 131.51494 179.07274 
L 131.718787 179.149741 
L 132.089419 179.475157 
L 132.163545 179.477484 
L 132.182076 179.503468 
L 132.515645 179.80482 
L 132.663897 179.890061 
L 132.849213 180.009997 
L 133.05306 180.125803 
L 133.312502 180.33443 
L 134.053765 181.034063 
L 134.276144 181.179569 
L 134.498522 181.429352 
L 134.720901 181.574733 
L 135.035938 181.876827 
L 135.981048 182.598995 
L 138.204836 184.346457 
L 138.705188 184.567961 
L 139.205541 184.730719 
L 139.298199 184.768962 
L 139.502046 184.882547 
L 139.724425 184.926693 
L 139.965335 185.057535 
L 140.169182 185.107027 
L 140.410093 185.237438 
L 140.61394 185.286556 
L 140.85485 185.416648 
L 141.058698 185.465492 
L 141.336671 185.639737 
L 141.892618 185.860293 
L 141.985276 185.908932 
L 142.189123 185.992137 
L 142.392971 186.04401 
L 142.633881 186.177254 
L 142.837728 186.228701 
L 143.078639 186.361452 
L 143.282486 186.412609 
L 143.523396 186.545029 
L 143.727243 186.595834 
L 143.968154 186.727844 
L 144.172001 186.778438 
L 144.412911 186.925217 
L 144.63529 186.951335 
L 144.913264 187.079793 
L 145.283895 187.195637 
L 145.506274 187.219043 
L 145.747184 187.327552 
L 145.951032 187.358325 
L 146.191942 187.466377 
L 146.395789 187.496869 
L 146.6367 187.60452 
L 146.840547 187.634582 
L 147.081457 187.764821 
L 147.285305 187.815621 
L 147.544747 187.967235 
L 147.841252 188.12152 
L 148.082162 188.181398 
L 148.248946 188.259174 
L 148.397199 188.293537 
L 148.601046 188.30353 
L 148.841956 188.4578 
L 149.045804 188.467441 
L 149.286714 188.621298 
L 149.490561 188.63056 
L 149.731472 188.783981 
L 149.935319 188.792849 
L 150.176229 188.94582 
L 150.380076 188.954288 
L 150.639518 189.12665 
L 150.861897 189.161146 
L 151.139871 189.290521 
L 151.529034 189.410649 
L 151.714349 189.421344 
L 151.95526 189.566768 
L 152.159107 189.569144 
L 152.400017 189.714071 
L 152.603865 189.716008 
L 152.844775 189.860437 
L 153.048622 189.861933 
L 153.289533 190.005859 
L 153.49338 190.006913 
L 153.789885 190.230329 
L 154.345832 190.501866 
L 154.43849 190.558815 
L 154.642337 190.661468 
L 154.846184 190.732814 
L 155.087095 190.889025 
L 155.290942 190.960012 
L 155.531852 191.11581 
L 155.7357 191.186439 
L 155.97661 191.34182 
L 156.180457 191.412091 
L 156.421368 191.567057 
L 156.625215 191.636969 
L 156.958783 191.904744 
L 157.644451 192.354888 
L 157.903893 192.39062 
L 157.978019 192.454277 
L 158.181867 192.602317 
L 158.404246 192.685709 
L 158.645156 192.857963 
L 158.849003 192.942867 
L 159.089914 193.114741 
L 159.293761 193.199323 
L 159.534671 193.37081 
L 159.738518 193.455037 
L 160.090618 193.768141 
L 160.238871 193.848264 
L 160.498313 194.052375 
L 161.017197 194.364236 
L 161.091323 194.4415 
L 161.313702 194.627705 
L 161.517549 194.749124 
L 161.776991 194.966475 
L 163.352174 196.343631 
L 163.648679 196.696546 
L 163.796932 196.832643 
L 164.056374 197.104581 
L 164.556726 197.630489 
L 164.630853 197.691138 
L 164.964421 198.094184 
L 165.205331 198.416632 
L 166.799046 200.026735 
L 166.873172 200.092455 
L 167.132614 200.363833 
L 167.67003 200.91219 
L 167.744156 200.968357 
L 168.077724 201.351295 
L 168.300103 201.629813 
L 168.541013 201.818592 
L 168.670734 201.947721 
L 168.96724 202.259604 
L 169.189618 202.539628 
L 169.467592 202.788915 
L 169.541718 202.861064 
L 169.893818 203.294949 
L 169.967944 203.323683 
L 169.986476 203.356633 
L 170.282981 203.704388 
L 170.783333 204.239243 
L 170.857459 204.301198 
L 171.191028 204.709969 
L 171.431938 205.03598 
L 173.470411 207.193213 
L 173.544537 207.287982 
L 173.841042 207.614424 
L 174.341394 208.113478 
L 174.434052 208.203635 
L 174.730557 208.542045 
L 175.23091 209.061259 
L 175.323567 209.155141 
L 175.675667 209.610293 
L 175.768325 209.679789 
L 176.120425 210.134575 
L 176.213083 210.203968 
L 176.528119 210.59567 
L 177.102598 211.235183 
L 177.417635 211.62619 
L 177.992113 212.264403 
L 178.30715 212.654632 
L 178.622187 213.06847 
L 179.659954 214.360685 
L 179.789675 214.517796 
L 180.123244 214.929312 
L 180.215901 215.040123 
L 180.54947 215.480506 
L 180.679191 215.637378 
L 181.012759 216.048296 
L 181.105417 216.158934 
L 181.438985 216.598708 
L 181.568706 216.752347 
L 181.902274 217.197301 
L 181.994932 217.27405 
L 182.365563 217.746798 
L 182.458221 217.867281 
L 182.791789 218.268197 
L 182.884447 218.376168 
L 183.218016 218.806296 
L 183.347737 218.959241 
L 183.681305 219.359472 
L 183.773963 219.467252 
L 184.107531 219.896715 
L 184.237252 220.049392 
L 184.57082 220.448949 
L 184.663478 220.556536 
L 185.015578 220.978185 
L 185.108236 221.037949 
L 185.460335 221.459409 
L 185.552993 221.519059 
L 185.849498 221.855759 
L 187.628529 224.477366 
L 189.463154 227.683478 
L 189.611407 227.963507 
L 190.148822 228.908521 
L 190.519453 229.555628 
L 191.112464 230.600688 
L 191.853726 231.940091 
L 192.428205 232.948978 
L 193.095341 234.110151 
L 193.725415 235.273906 
L 195.856545 238.686311 
L 196.393961 239.509922 
L 197.135223 240.638034 
L 197.709702 241.616294 
L 208.773048 258.261799 
L 209.347527 259.089592 
L 209.681095 259.643903 
L 211.423063 262.522042 
L 212.108731 263.701802 
L 213.609788 266.125359 
L 213.943356 266.624384 
L 214.054545 266.828412 
L 214.388113 267.327116 
L 214.499303 267.531051 
L 214.832871 268.029475 
L 216.167144 268.869125 
L 216.278333 268.946369 
L 216.59337 269.143292 
L 216.70456 269.196555 
L 217.038128 269.387285 
L 217.149317 269.459263 
L 217.482885 269.649625 
L 217.594075 269.721477 
L 217.927643 269.911482 
L 218.038832 269.983209 
L 218.372401 270.172835 
L 218.48359 270.244436 
L 218.817158 270.433659 
L 218.946879 270.51371 
L 219.261916 270.659923 
L 219.391637 270.705983 
L 219.706674 270.851705 
L 219.836395 270.899936 
L 220.077305 270.990457 
L 220.559126 271.19799 
L 221.207731 271.484784 
L 221.430109 271.555342 
L 225.210549 273.892805 
L 225.507054 274.075815 
L 225.636775 274.190849 
L 225.951812 274.395774 
L 226.081533 274.515668 
L 226.378038 274.704097 
L 226.507759 274.812461 
L 226.822796 275.043287 
L 226.952517 275.151458 
L 227.267553 275.381806 
L 227.397274 275.489683 
L 227.675248 275.68141 
L 228.305321 276.105693 
L 228.601826 276.298604 
L 229.065116 276.038458 
L 229.306026 275.865297 
L 231.288904 274.204944 
L 231.585409 273.971139 
L 232.289608 273.374965 
L 232.623177 273.080602 
L 232.956745 272.783913 
L 233.938918 271.902035 
L 234.253955 271.618274 
L 234.939623 270.993226 
L 235.643822 270.53082 
L 236.459211 269.807388 
L 237.163411 269.181717 
L 237.515511 268.856161 
L 237.812016 268.605215 
L 238.164116 268.369882 
L 238.960973 267.99807 
L 239.238947 267.87087 
L 240.276714 267.397793 
L 240.628814 267.224679 
L 240.980914 267.074219 
L 241.295951 266.884746 
L 242.667287 265.322383 
L 244.131281 261.863325 
L 252.563144 241.513092 
L 252.581676 241.610584 
L 252.63727 241.448022 
L 253.137623 240.167565 
L 253.174686 240.224503 
L 253.378533 239.855425 
L 253.397065 239.952917 
L 253.471191 239.775053 
L 254.212454 238.127634 
L 254.546022 237.611909 
L 256.5289 233.218098 
L 257.807578 229.318628 
L 259.401293 224.331098 
L 260.476124 220.987621 
L 268.370572 195.847771 
L 268.389104 195.945263 
L 268.444698 195.745304 
L 268.982114 194.293144 
L 281.527986 167.772003 
L 282.009806 166.686925 
L 282.232185 166.44167 
L 284.493036 164.442867 
L 285.47521 163.525489 
L 287.309835 161.784936 
L 287.791656 161.309003 
L 289.070334 159.883931 
L 289.904254 158.928177 
L 290.867896 157.840267 
L 291.182933 157.494647 
L 295.908483 151.874888 
L 296.019672 151.807251 
L 296.334709 151.596308 
L 296.46443 151.535162 
L 296.779466 151.324017 
L 296.909187 151.262783 
L 297.224224 151.046878 
L 297.391008 150.967337 
L 297.928423 150.595347 
L 298.410244 150.233205 
L 298.577028 150.148547 
L 298.688218 150.071891 
L 299.003254 149.836433 
L 299.132975 149.765535 
L 299.448012 149.529857 
L 299.577733 149.458847 
L 299.89277 149.222923 
L 300.022491 149.151825 
L 300.37459 148.88907 
L 300.504311 148.749253 
L 301.189979 147.95989 
L 301.338232 147.872191 
L 301.634737 147.474818 
L 301.78299 147.386941 
L 302.079495 146.989257 
L 302.227747 146.901202 
L 302.524252 146.503187 
L 302.672505 146.414953 
L 302.96901 146.016617 
L 303.117263 145.928204 
L 303.413768 145.52955 
L 303.636147 145.346662 
L 303.932652 145.041492 
L 304.062373 144.903606 
L 304.748041 144.111446 
L 304.896293 144.025129 
L 305.192798 143.630987 
L 305.341051 143.544491 
L 305.637556 143.149984 
L 305.785808 143.063309 
L 306.082314 142.668505 
L 306.230566 142.58165 
L 306.527071 142.186539 
L 306.74945 141.977769 
L 307.064487 141.637199 
L 307.305397 141.326049 
L 307.69456 140.838611 
L 308.028128 140.492563 
L 308.361696 140.095444 
L 308.472886 139.968191 
L 308.806454 139.570661 
L 308.917643 139.443268 
L 309.251212 139.057462 
L 309.362401 138.954209 
L 309.695969 138.619871 
L 309.844222 138.483649 
L 310.363106 137.952244 
L 310.752269 137.549617 
L 311.011711 137.304203 
L 311.141432 137.197281 
L 311.475 136.856847 
L 311.586189 136.749468 
L 311.919758 136.408484 
L 312.030947 136.300922 
L 312.364515 135.959389 
L 312.475705 135.851646 
L 312.809273 135.501642 
L 312.957525 135.359447 
L 313.216967 135.056164 
L 313.235499 135.153656 
L 313.402283 135.007325 
L 314.069419 134.252381 
L 314.273267 134.099684 
L 314.569772 133.77936 
L 314.699493 133.668242 
L 315.033061 133.315475 
L 315.14425 133.204609 
L 315.477819 132.851279 
L 315.589008 132.740226 
L 315.922576 132.391596 
L 316.070829 132.282099 
L 316.608244 131.820802 
L 317.108597 131.348096 
L 317.256849 131.271925 
L 317.368039 131.1773 
L 317.683075 130.885816 
L 317.794265 130.830031 
L 318.072238 130.501641 
L 318.257554 130.410264 
L 318.572591 130.117715 
L 318.68378 130.061555 
L 318.961754 129.732226 
L 319.202664 129.615149 
L 319.499169 129.390731 
L 319.62889 129.292031 
L 320.314558 128.693205 
L 320.462811 128.647388 
L 320.740784 128.339961 
L 320.9261 128.260539 
L 321.241136 127.991134 
L 321.352326 127.941421 
L 321.630299 127.633096 
L 321.815615 127.553074 
L 322.130652 127.283735 
L 322.297436 127.203839 
L 322.81632 126.838197 
L 323.186951 126.601317 
L 323.446393 126.453035 
L 323.613177 126.386282 
L 323.891151 126.216292 
L 324.057935 126.149287 
L 324.335908 125.97887 
L 324.502692 125.911614 
L 324.780666 125.740775 
L 324.94745 125.673263 
L 325.225424 125.501921 
L 325.429271 125.505856 
L 325.707244 125.436894 
L 325.874029 125.417548 
L 326.13347 125.338708 
L 326.281723 125.315421 
L 326.559697 125.222616 
L 326.763544 125.160028 
L 327.004454 125.087529 
L 327.171238 125.055576 
L 327.467743 124.9596 
L 327.615996 124.922168 
L 327.893969 124.815599 
L 328.060754 124.783609 
L 328.301664 124.658383 
L 328.524043 124.656265 
L 329.265306 124.376712 
L 329.395026 124.323365 
L 329.673 124.199618 
L 329.839784 124.159758 
L 330.099226 124.025491 
L 330.284542 123.995171 
L 330.562515 123.869571 
L 330.729299 123.826872 
L 331.025804 123.71261 
L 331.174057 123.664861 
L 331.452031 123.537208 
L 331.674409 123.50878 
L 332.397141 123.319571 
L 332.50833 123.262928 
L 332.786303 123.160053 
L 332.990151 123.097423 
L 333.231061 123.028508 
L 333.434908 122.967079 
L 333.675819 122.894642 
L 333.842603 122.867938 
L 334.083513 122.741696 
L 334.287361 122.734999 
L 334.528271 122.610168 
L 334.769181 122.620621 
L 335.065686 122.545707 
L 335.213939 122.518633 
L 335.473381 122.427586 
L 335.621633 122.39942 
L 335.918139 122.319891 
L 336.066391 122.286285 
L 336.362896 122.208126 
L 336.511149 122.178289 
L 336.789122 122.08912 
L 336.974438 122.073363 
L 337.215348 122.012536 
L 337.400664 122.021394 
L 337.678638 121.957915 
L 337.882485 121.993952 
L 338.160458 121.966877 
L 338.327242 121.978535 
L 338.568153 121.93205 
L 338.772 121.919911 
L 338.994379 121.892362 
L 339.179695 121.918484 
L 339.439137 121.869496 
L 339.624452 121.893185 
L 339.902426 121.855758 
L 340.087741 121.857474 
L 340.328652 121.818957 
L 340.513967 121.842812 
L 340.754878 121.772753 
L 341.032851 121.849219 
L 341.551735 121.897621 
L 341.737051 121.907082 
L 341.866772 121.884064 
L 342.107682 121.869844 
L 342.31153 121.903643 
L 342.55244 121.892163 
L 342.756287 121.922751 
L 342.997198 121.908796 
L 343.201045 121.941406 
L 343.441955 121.929428 
L 343.664334 121.948508 
L 343.923776 121.957046 
L 344.220281 122.007557 
L 344.387065 121.993218 
L 344.590913 122.010808 
L 344.980075 122.002815 
L 345.220986 121.978895 
L 345.406302 122.014043 
L 345.702807 122.009764 
L 345.869591 122.010877 
L 346.129033 122.003591 
L 346.314348 122.015017 
L 346.57379 122.001149 
L 346.759106 122.016989 
L 347.018548 121.999603 
L 347.222395 122.025177 
L 347.500369 121.970988 
L 347.667153 121.965984 
L 347.945126 121.915532 
L 348.074847 121.888368 
L 348.352821 121.823497 
L 348.519605 121.823157 
L 348.797579 121.755138 
L 348.964363 121.751901 
L 349.242336 121.692421 
L 349.427652 121.672301 
L 349.687094 121.623956 
L 349.872409 121.6036 
L 350.131851 121.555966 
L 350.35423 121.634011 
L 351.05843 121.770732 
L 351.206682 121.778529 
L 351.41053 121.755922 
L 351.65144 121.857672 
L 351.89235 121.870989 
L 352.096198 121.936379 
L 352.337108 121.953161 
L 352.559487 122.006957 
L 352.781866 122.031182 
L 352.985713 122.090382 
L 353.226623 122.105066 
L 353.486065 122.212804 
L 353.912291 122.328913 
L 354.190265 122.412203 
L 354.338517 122.404722 
L 354.560896 122.44292 
L 354.764744 122.515319 
L 355.005654 122.546713 
L 355.209501 122.622971 
L 355.450412 122.65412 
L 355.654259 122.728179 
L 355.895169 122.75909 
L 356.099016 122.832968 
L 356.339927 122.865318 
L 356.636432 122.892466 
L 357.136784 122.829268 
L 357.229442 122.782997 
L 357.266505 122.812692 
L 357.414758 122.8019 
L 357.692731 122.754535 
L 357.878047 122.742104 
L 358.118957 122.691246 
L 358.304273 122.711607 
L 358.563715 122.643703 
L 358.749031 122.663814 
L 359.008473 122.595542 
L 359.193788 122.615397 
L 359.45323 122.546752 
L 359.786799 122.616382 
L 359.953583 122.610068 
L 360.138898 122.619514 
L 361.769676 122.69467 
L 361.880866 122.648403 
L 362.121776 122.626335 
L 362.307092 122.668832 
L 362.566534 122.6325 
L 362.788913 122.687055 
L 363.048355 122.658579 
L 363.23367 122.677482 
L 363.511644 122.668972 
L 363.641365 122.658136 
L 363.900807 122.612106 
L 364.252907 122.751673 
L 364.308501 122.70981 
L 364.364096 122.767794 
L 364.549412 122.78879 
L 364.77179 122.751791 
L 364.975638 122.818524 
L 365.216548 122.774666 
L 365.438927 122.827491 
L 365.679837 122.806552 
L 365.976342 122.90444 
L 366.476695 122.957172 
L 366.550821 122.907808 
L 366.606416 122.962884 
L 366.754668 122.99073 
L 366.995579 122.963416 
L 367.217957 123.034273 
L 367.458868 123.034493 
L 367.662715 123.083836 
L 367.903625 123.089185 
L 368.033346 123.185046 
L 368.088941 123.131518 
L 368.348383 123.075668 
L 368.533699 123.100701 
L 368.793141 123.044658 
L 369.034051 123.077663 
L 369.738251 123.044746 
L 369.867972 123.026769 
L 370.127414 122.970146 
L 370.312729 122.994669 
L 370.572171 122.937872 
L 370.757487 122.962263 
L 371.016929 122.905263 
L 371.202245 122.929521 
L 371.461687 122.87233 
L 371.647002 122.896443 
L 371.906444 122.839008 
L 372.202949 122.935102 
L 372.703302 123.000244 
L 372.777428 122.961232 
L 372.833023 123.007084 
L 372.999807 123.025399 
L 373.240717 123.034333 
L 373.444564 123.084259 
L 373.685475 123.09304 
L 373.889322 123.142883 
L 374.130232 123.151603 
L 374.33408 123.201365 
L 374.57499 123.209981 
L 374.778837 123.259652 
L 375.019748 123.268146 
L 375.27919 123.325358 
L 375.798074 123.370407 
L 375.964858 123.3706 
L 376.11311 123.358122 
L 376.354021 123.342852 
L 376.557868 123.376322 
L 376.798778 123.360857 
L 377.002626 123.394187 
L 377.243536 123.378548 
L 377.428852 123.406297 
L 377.688294 123.360083 
L 377.873609 123.387683 
L 378.133051 123.341242 
L 378.411025 123.399124 
L 378.781656 123.428998 
L 379.133756 123.466323 
L 379.393198 123.377561 
L 379.504387 123.424543 
L 379.671171 123.425392 
L 379.912082 123.408441 
L 380.115929 123.437286 
L 380.356839 123.420178 
L 380.560687 123.448883 
L 380.801597 123.431605 
L 381.005444 123.460166 
L 381.246355 123.4427 
L 381.487265 123.442744 
L 382.172933 123.300573 
L 382.321186 123.277504 
L 382.599159 123.197379 
L 382.784475 123.169083 
L 383.025385 123.090427 
L 383.210701 123.089781 
L 383.488674 123.00913 
L 383.67399 122.980474 
L 383.9149 122.901344 
L 384.100216 122.900302 
L 384.37819 122.818311 
L 384.600569 122.855125 
L 385.3233 122.885427 
L 385.453021 122.854272 
L 385.693931 122.831844 
L 385.897778 122.856617 
L 386.138689 122.834015 
L 386.342536 122.858668 
L 386.583446 122.835926 
L 386.787294 122.877152 
L 387.028204 122.926638 
L 387.250583 123.007272 
L 387.472962 123.061203 
L 387.732404 123.210728 
L 388.269819 123.432347 
L 388.343945 123.413443 
L 388.381008 123.452637 
L 388.603387 123.525425 
L 389.622624 123.899133 
L 389.715281 123.964205 
L 389.93766 124.036617 
L 390.975428 124.569808 
L 391.031023 124.862284 
L 391.031023 124.862284 
" clip-path="url(#p41b9d8f8f5)" style="fill: none; stroke: #1f77b4; stroke-width: 1.5; stroke-linecap: square"/>
   </g>
   <g id="line2d_20">
    <path clip-path="url(#p41b9d8f8f5)" style="fill: none; stroke: #000000; stroke-width: 1.5; stroke-linecap: square"/>
   </g>
   <g id="line2d_21">
    <path d="M 50.14375 34.414125 
L 407.26375 34.414125 
" clip-path="url(#p41b9d8f8f5)" style="fill: none; stroke: #ff0000; stroke-width: 1.5; stroke-linecap: square"/>
   </g>
   <g id="line2d_22">
    <path d="M 50.14375 65.389522 
L 407.26375 65.389522 
" clip-path="url(#p41b9d8f8f5)" style="fill: none; stroke-dasharray: 5.55,2.4; stroke-dashoffset: 0; stroke: #ff00ff; stroke-width: 1.5"/>
   </g>
   <g id="patch_3">
    <path d="M 50.14375 288.430125 
L 50.14375 22.318125 
" style="fill: none; stroke: #000000; stroke-width: 0.8; stroke-linejoin: miter; stroke-linecap: square"/>
   </g>
   <g id="patch_4">
    <path d="M 407.26375 288.430125 
L 407.26375 22.318125 
" style="fill: none; stroke: #000000; stroke-width: 0.8; stroke-linejoin: miter; stroke-linecap: square"/>
   </g>
   <g id="patch_5">
    <path d="M 50.14375 288.430125 
L 407.26375 288.430125 
" style="fill: none; stroke: #000000; stroke-width: 0.8; stroke-linejoin: miter; stroke-linecap: square"/>
   </g>
   <g id="patch_6">
    <path d="M 50.14375 22.318125 
L 407.26375 22.318125 
" style="fill: none; stroke: #000000; stroke-width: 0.8; stroke-linejoin: miter; stroke-linecap: square"/>
   </g>
   <g id="text_22">
    <!-- loc_techs_store = Moz-North-Center::storageD -->
    <g transform="translate(89.127813 16.318125)scale(0.12 -0.12)">
     <defs>
      <path id="DejaVuSans-6c" d="M 603 4863 
L 1178 4863 
L 1178 0 
L 603 0 
L 603 4863 
z
" transform="scale(0.015625)"/>
      <path id="DejaVuSans-63" d="M 3122 3366 
L 3122 2828 
Q 2878 2963 2633 3030 
Q 2388 3097 2138 3097 
Q 1578 3097 1268 2742 
Q 959 2388 959 1747 
Q 959 1106 1268 751 
Q 1578 397 2138 397 
Q 2388 397 2633 464 
Q 2878 531 3122 666 
L 3122 134 
Q 2881 22 2623 -34 
Q 2366 -91 2075 -91 
Q 1284 -91 818 406 
Q 353 903 353 1747 
Q 353 2603 823 3093 
Q 1294 3584 2113 3584 
Q 2378 3584 2631 3529 
Q 2884 3475 3122 3366 
z
" transform="scale(0.015625)"/>
      <path id="DejaVuSans-5f" d="M 3263 -1063 
L 3263 -1509 
L -63 -1509 
L -63 -1063 
L 3263 -1063 
z
" transform="scale(0.015625)"/>
      <path id="DejaVuSans-68" d="M 3513 2113 
L 3513 0 
L 2938 0 
L 2938 2094 
Q 2938 2591 2744 2837 
Q 2550 3084 2163 3084 
Q 1697 3084 1428 2787 
Q 1159 2491 1159 1978 
L 1159 0 
L 581 0 
L 581 4863 
L 1159 4863 
L 1159 2956 
Q 1366 3272 1645 3428 
Q 1925 3584 2291 3584 
Q 2894 3584 3203 3211 
Q 3513 2838 3513 2113 
z
" transform="scale(0.015625)"/>
      <path id="DejaVuSans-20" transform="scale(0.015625)"/>
      <path id="DejaVuSans-3d" d="M 678 2906 
L 4684 2906 
L 4684 2381 
L 678 2381 
L 678 2906 
z
M 678 1631 
L 4684 1631 
L 4684 1100 
L 678 1100 
L 678 1631 
z
" transform="scale(0.015625)"/>
      <path id="DejaVuSans-4d" d="M 628 4666 
L 1569 4666 
L 2759 1491 
L 3956 4666 
L 4897 4666 
L 4897 0 
L 4281 0 
L 4281 4097 
L 3078 897 
L 2444 897 
L 1241 4097 
L 1241 0 
L 628 0 
L 628 4666 
z
" transform="scale(0.015625)"/>
      <path id="DejaVuSans-7a" d="M 353 3500 
L 3084 3500 
L 3084 2975 
L 922 459 
L 3084 459 
L 3084 0 
L 275 0 
L 275 525 
L 2438 3041 
L 353 3041 
L 353 3500 
z
" transform="scale(0.015625)"/>
      <path id="DejaVuSans-4e" d="M 628 4666 
L 1478 4666 
L 3547 763 
L 3547 4666 
L 4159 4666 
L 4159 0 
L 3309 0 
L 1241 3903 
L 1241 0 
L 628 0 
L 628 4666 
z
" transform="scale(0.015625)"/>
      <path id="DejaVuSans-43" d="M 4122 4306 
L 4122 3641 
Q 3803 3938 3442 4084 
Q 3081 4231 2675 4231 
Q 1875 4231 1450 3742 
Q 1025 3253 1025 2328 
Q 1025 1406 1450 917 
Q 1875 428 2675 428 
Q 3081 428 3442 575 
Q 3803 722 4122 1019 
L 4122 359 
Q 3791 134 3420 21 
Q 3050 -91 2638 -91 
Q 1578 -91 968 557 
Q 359 1206 359 2328 
Q 359 3453 968 4101 
Q 1578 4750 2638 4750 
Q 3056 4750 3426 4639 
Q 3797 4528 4122 4306 
z
" transform="scale(0.015625)"/>
      <path id="DejaVuSans-6e" d="M 3513 2113 
L 3513 0 
L 2938 0 
L 2938 2094 
Q 2938 2591 2744 2837 
Q 2550 3084 2163 3084 
Q 1697 3084 1428 2787 
Q 1159 2491 1159 1978 
L 1159 0 
L 581 0 
L 581 3500 
L 1159 3500 
L 1159 2956 
Q 1366 3272 1645 3428 
Q 1925 3584 2291 3584 
Q 2894 3584 3203 3211 
Q 3513 2838 3513 2113 
z
" transform="scale(0.015625)"/>
      <path id="DejaVuSans-3a" d="M 750 794 
L 1409 794 
L 1409 0 
L 750 0 
L 750 794 
z
M 750 3309 
L 1409 3309 
L 1409 2516 
L 750 2516 
L 750 3309 
z
" transform="scale(0.015625)"/>
      <path id="DejaVuSans-44" d="M 1259 4147 
L 1259 519 
L 2022 519 
Q 2988 519 3436 956 
Q 3884 1394 3884 2338 
Q 3884 3275 3436 3711 
Q 2988 4147 2022 4147 
L 1259 4147 
z
M 628 4666 
L 1925 4666 
Q 3281 4666 3915 4102 
Q 4550 3538 4550 2338 
Q 4550 1131 3912 565 
Q 3275 0 1925 0 
L 628 0 
L 628 4666 
z
" transform="scale(0.015625)"/>
     </defs>
     <use xlink:href="#DejaVuSans-6c"/>
     <use xlink:href="#DejaVuSans-6f" x="27.783203"/>
     <use xlink:href="#DejaVuSans-63" x="88.964844"/>
     <use xlink:href="#DejaVuSans-5f" x="143.945312"/>
     <use xlink:href="#DejaVuSans-74" x="193.945312"/>
     <use xlink:href="#DejaVuSans-65" x="233.154297"/>
     <use xlink:href="#DejaVuSans-63" x="294.677734"/>
     <use xlink:href="#DejaVuSans-68" x="349.658203"/>
     <use xlink:href="#DejaVuSans-73" x="413.037109"/>
     <use xlink:href="#DejaVuSans-5f" x="465.136719"/>
     <use xlink:href="#DejaVuSans-73" x="515.136719"/>
     <use xlink:href="#DejaVuSans-74" x="567.236328"/>
     <use xlink:href="#DejaVuSans-6f" x="606.445312"/>
     <use xlink:href="#DejaVuSans-72" x="667.626953"/>
     <use xlink:href="#DejaVuSans-65" x="706.490234"/>
     <use xlink:href="#DejaVuSans-20" x="768.013672"/>
     <use xlink:href="#DejaVuSans-3d" x="799.800781"/>
     <use xlink:href="#DejaVuSans-20" x="883.589844"/>
     <use xlink:href="#DejaVuSans-4d" x="915.376953"/>
     <use xlink:href="#DejaVuSans-6f" x="1001.65625"/>
     <use xlink:href="#DejaVuSans-7a" x="1062.837891"/>
     <use xlink:href="#DejaVuSans-2d" x="1115.328125"/>
     <use xlink:href="#DejaVuSans-4e" x="1151.412109"/>
     <use xlink:href="#DejaVuSans-6f" x="1226.216797"/>
     <use xlink:href="#DejaVuSans-72" x="1287.398438"/>
     <use xlink:href="#DejaVuSans-74" x="1328.511719"/>
     <use xlink:href="#DejaVuSans-68" x="1367.720703"/>
     <use xlink:href="#DejaVuSans-2d" x="1431.099609"/>
     <use xlink:href="#DejaVuSans-43" x="1467.183594"/>
     <use xlink:href="#DejaVuSans-65" x="1537.007812"/>
     <use xlink:href="#DejaVuSans-6e" x="1598.53125"/>
     <use xlink:href="#DejaVuSans-74" x="1661.910156"/>
     <use xlink:href="#DejaVuSans-65" x="1701.119141"/>
     <use xlink:href="#DejaVuSans-72" x="1762.642578"/>
     <use xlink:href="#DejaVuSans-3a" x="1802.005859"/>
     <use xlink:href="#DejaVuSans-3a" x="1835.697266"/>
     <use xlink:href="#DejaVuSans-73" x="1869.388672"/>
     <use xlink:href="#DejaVuSans-74" x="1921.488281"/>
     <use xlink:href="#DejaVuSans-6f" x="1960.697266"/>
     <use xlink:href="#DejaVuSans-72" x="2021.878906"/>
     <use xlink:href="#DejaVuSans-61" x="2062.992188"/>
     <use xlink:href="#DejaVuSans-67" x="2124.271484"/>
     <use xlink:href="#DejaVuSans-65" x="2187.748047"/>
     <use xlink:href="#DejaVuSans-44" x="2249.271484"/>
    </g>
   </g>
   <g id="legend_1">
    <g id="patch_7">
     <path d="M 428.54855 89.865 
L 552.29855 89.865 
Q 554.29855 89.865 554.29855 87.865 
L 554.29855 29.318125 
Q 554.29855 27.318125 552.29855 27.318125 
L 428.54855 27.318125 
Q 426.54855 27.318125 426.54855 29.318125 
L 426.54855 87.865 
Q 426.54855 89.865 428.54855 89.865 
z
" style="fill: #ffffff; opacity: 0.8; stroke: #cccccc; stroke-linejoin: miter"/>
    </g>
    <g id="line2d_23">
     <path d="M 430.54855 35.416562 
L 440.54855 35.416562 
L 450.54855 35.416562 
" style="fill: none; stroke: #1f77b4; stroke-width: 1.5; stroke-linecap: square"/>
    </g>
    <g id="text_23">
     <!-- Storage -->
     <g transform="translate(458.54855 38.916562)scale(0.1 -0.1)">
      <defs>
       <path id="DejaVuSans-53" d="M 3425 4513 
L 3425 3897 
Q 3066 4069 2747 4153 
Q 2428 4238 2131 4238 
Q 1616 4238 1336 4038 
Q 1056 3838 1056 3469 
Q 1056 3159 1242 3001 
Q 1428 2844 1947 2747 
L 2328 2669 
Q 3034 2534 3370 2195 
Q 3706 1856 3706 1288 
Q 3706 609 3251 259 
Q 2797 -91 1919 -91 
Q 1588 -91 1214 -16 
Q 841 59 441 206 
L 441 856 
Q 825 641 1194 531 
Q 1563 422 1919 422 
Q 2459 422 2753 634 
Q 3047 847 3047 1241 
Q 3047 1584 2836 1778 
Q 2625 1972 2144 2069 
L 1759 2144 
Q 1053 2284 737 2584 
Q 422 2884 422 3419 
Q 422 4038 858 4394 
Q 1294 4750 2059 4750 
Q 2388 4750 2728 4690 
Q 3069 4631 3425 4513 
z
" transform="scale(0.015625)"/>
      </defs>
      <use xlink:href="#DejaVuSans-53"/>
      <use xlink:href="#DejaVuSans-74" x="63.476562"/>
      <use xlink:href="#DejaVuSans-6f" x="102.685547"/>
      <use xlink:href="#DejaVuSans-72" x="163.867188"/>
      <use xlink:href="#DejaVuSans-61" x="204.980469"/>
      <use xlink:href="#DejaVuSans-67" x="266.259766"/>
      <use xlink:href="#DejaVuSans-65" x="329.736328"/>
     </g>
    </g>
    <g id="line2d_24">
     <path d="M 430.54855 50.094687 
L 440.54855 50.094687 
L 450.54855 50.094687 
" style="fill: none; stroke: #000000; stroke-width: 1.5; stroke-linecap: square"/>
    </g>
    <g id="text_24">
     <!-- Storage_cap_max -->
     <g transform="translate(458.54855 53.594687)scale(0.1 -0.1)">
      <defs>
       <path id="DejaVuSans-78" d="M 3513 3500 
L 2247 1797 
L 3578 0 
L 2900 0 
L 1881 1375 
L 863 0 
L 184 0 
L 1544 1831 
L 300 3500 
L 978 3500 
L 1906 2253 
L 2834 3500 
L 3513 3500 
z
" transform="scale(0.015625)"/>
      </defs>
      <use xlink:href="#DejaVuSans-53"/>
      <use xlink:href="#DejaVuSans-74" x="63.476562"/>
      <use xlink:href="#DejaVuSans-6f" x="102.685547"/>
      <use xlink:href="#DejaVuSans-72" x="163.867188"/>
      <use xlink:href="#DejaVuSans-61" x="204.980469"/>
      <use xlink:href="#DejaVuSans-67" x="266.259766"/>
      <use xlink:href="#DejaVuSans-65" x="329.736328"/>
      <use xlink:href="#DejaVuSans-5f" x="391.259766"/>
      <use xlink:href="#DejaVuSans-63" x="441.259766"/>
      <use xlink:href="#DejaVuSans-61" x="496.240234"/>
      <use xlink:href="#DejaVuSans-70" x="557.519531"/>
      <use xlink:href="#DejaVuSans-5f" x="620.996094"/>
      <use xlink:href="#DejaVuSans-6d" x="670.996094"/>
      <use xlink:href="#DejaVuSans-61" x="768.408203"/>
      <use xlink:href="#DejaVuSans-78" x="829.6875"/>
     </g>
    </g>
    <g id="line2d_25">
     <path d="M 430.54855 65.050937 
L 440.54855 65.050937 
L 450.54855 65.050937 
" style="fill: none; stroke: #ff0000; stroke-width: 1.5; stroke-linecap: square"/>
    </g>
    <g id="text_25">
     <!-- Storage_cap -->
     <g transform="translate(458.54855 68.550937)scale(0.1 -0.1)">
      <use xlink:href="#DejaVuSans-53"/>
      <use xlink:href="#DejaVuSans-74" x="63.476562"/>
      <use xlink:href="#DejaVuSans-6f" x="102.685547"/>
      <use xlink:href="#DejaVuSans-72" x="163.867188"/>
      <use xlink:href="#DejaVuSans-61" x="204.980469"/>
      <use xlink:href="#DejaVuSans-67" x="266.259766"/>
      <use xlink:href="#DejaVuSans-65" x="329.736328"/>
      <use xlink:href="#DejaVuSans-5f" x="391.259766"/>
      <use xlink:href="#DejaVuSans-63" x="441.259766"/>
      <use xlink:href="#DejaVuSans-61" x="496.240234"/>
      <use xlink:href="#DejaVuSans-70" x="557.519531"/>
     </g>
    </g>
    <g id="line2d_26">
     <path d="M 430.54855 80.007187 
L 440.54855 80.007187 
L 450.54855 80.007187 
" style="fill: none; stroke-dasharray: 5.55,2.4; stroke-dashoffset: 0; stroke: #ff00ff; stroke-width: 1.5"/>
    </g>
    <g id="text_26">
     <!-- Spillage_threshold -->
     <g transform="translate(458.54855 83.507187)scale(0.1 -0.1)">
      <defs>
       <path id="DejaVuSans-64" d="M 2906 2969 
L 2906 4863 
L 3481 4863 
L 3481 0 
L 2906 0 
L 2906 525 
Q 2725 213 2448 61 
Q 2172 -91 1784 -91 
Q 1150 -91 751 415 
Q 353 922 353 1747 
Q 353 2572 751 3078 
Q 1150 3584 1784 3584 
Q 2172 3584 2448 3432 
Q 2725 3281 2906 2969 
z
M 947 1747 
Q 947 1113 1208 752 
Q 1469 391 1925 391 
Q 2381 391 2643 752 
Q 2906 1113 2906 1747 
Q 2906 2381 2643 2742 
Q 2381 3103 1925 3103 
Q 1469 3103 1208 2742 
Q 947 2381 947 1747 
z
" transform="scale(0.015625)"/>
      </defs>
      <use xlink:href="#DejaVuSans-53"/>
      <use xlink:href="#DejaVuSans-70" x="63.476562"/>
      <use xlink:href="#DejaVuSans-69" x="126.953125"/>
      <use xlink:href="#DejaVuSans-6c" x="154.736328"/>
      <use xlink:href="#DejaVuSans-6c" x="182.519531"/>
      <use xlink:href="#DejaVuSans-61" x="210.302734"/>
      <use xlink:href="#DejaVuSans-67" x="271.582031"/>
      <use xlink:href="#DejaVuSans-65" x="335.058594"/>
      <use xlink:href="#DejaVuSans-5f" x="396.582031"/>
      <use xlink:href="#DejaVuSans-74" x="446.582031"/>
      <use xlink:href="#DejaVuSans-68" x="485.791016"/>
      <use xlink:href="#DejaVuSans-72" x="549.169922"/>
      <use xlink:href="#DejaVuSans-65" x="588.033203"/>
      <use xlink:href="#DejaVuSans-73" x="649.556641"/>
      <use xlink:href="#DejaVuSans-68" x="701.65625"/>
      <use xlink:href="#DejaVuSans-6f" x="765.035156"/>
      <use xlink:href="#DejaVuSans-6c" x="826.216797"/>
      <use xlink:href="#DejaVuSans-64" x="854"/>
     </g>
    </g>
   </g>
  </g>
 </g>
 <defs>
  <clipPath id="p41b9d8f8f5">
   <rect x="50.14375" y="22.318125" width="357.12" height="266.112"/>
  </clipPath>
 </defs>
</svg>
