<?xml version="1.0" encoding="utf-8" standalone="no"?>
<!DOCTYPE svg PUBLIC "-//W3C//DTD SVG 1.1//EN"
  "http://www.w3.org/Graphics/SVG/1.1/DTD/svg11.dtd">
<svg xmlns:xlink="http://www.w3.org/1999/xlink" width="555.13605pt" height="345.581158pt" viewBox="0 0 555.13605 345.581158" xmlns="http://www.w3.org/2000/svg" version="1.1">
 <metadata>
  <rdf:RDF xmlns:dc="http://purl.org/dc/elements/1.1/" xmlns:cc="http://creativecommons.org/ns#" xmlns:rdf="http://www.w3.org/1999/02/22-rdf-syntax-ns#">
   <cc:Work>
    <dc:type rdf:resource="http://purl.org/dc/dcmitype/StillImage"/>
    <dc:date>2022-04-29T16:01:28.520287</dc:date>
    <dc:format>image/svg+xml</dc:format>
    <dc:creator>
     <cc:Agent>
      <dc:title>Matplotlib v3.5.1, https://matplotlib.org/</dc:title>
     </cc:Agent>
    </dc:creator>
   </cc:Work>
  </rdf:RDF>
 </metadata>
 <defs>
  <style type="text/css">*{stroke-linejoin: round; stroke-linecap: butt}</style>
 </defs>
 <g id="figure_1">
  <g id="patch_1">
   <path d="M 0 345.581158 
L 555.13605 345.581158 
L 555.13605 0 
L 0 0 
z
" style="fill: #ffffff"/>
  </g>
  <g id="axes_1">
   <g id="patch_2">
    <path d="M 43.78125 288.430125 
L 400.90125 288.430125 
L 400.90125 22.318125 
L 43.78125 22.318125 
z
" style="fill: #ffffff"/>
   </g>
   <g id="matplotlib.axis_1">
    <g id="xtick_1">
     <g id="line2d_1">
      <defs>
       <path id="m5d3dbf9370" d="M 0 0 
L 0 3.5 
" style="stroke: #000000; stroke-width: 0.8"/>
      </defs>
      <g>
       <use xlink:href="#m5d3dbf9370" x="60.013977" y="288.430125" style="stroke: #000000; stroke-width: 0.8"/>
      </g>
     </g>
     <g id="text_1">
      <!-- 2005-01 -->
      <g transform="translate(22.789156 322.901971)rotate(-30)scale(0.1 -0.1)">
       <defs>
        <path id="DejaVuSans-32" d="M 1228 531 
L 3431 531 
L 3431 0 
L 469 0 
L 469 531 
Q 828 903 1448 1529 
Q 2069 2156 2228 2338 
Q 2531 2678 2651 2914 
Q 2772 3150 2772 3378 
Q 2772 3750 2511 3984 
Q 2250 4219 1831 4219 
Q 1534 4219 1204 4116 
Q 875 4013 500 3803 
L 500 4441 
Q 881 4594 1212 4672 
Q 1544 4750 1819 4750 
Q 2544 4750 2975 4387 
Q 3406 4025 3406 3419 
Q 3406 3131 3298 2873 
Q 3191 2616 2906 2266 
Q 2828 2175 2409 1742 
Q 1991 1309 1228 531 
z
" transform="scale(0.015625)"/>
        <path id="DejaVuSans-30" d="M 2034 4250 
Q 1547 4250 1301 3770 
Q 1056 3291 1056 2328 
Q 1056 1369 1301 889 
Q 1547 409 2034 409 
Q 2525 409 2770 889 
Q 3016 1369 3016 2328 
Q 3016 3291 2770 3770 
Q 2525 4250 2034 4250 
z
M 2034 4750 
Q 2819 4750 3233 4129 
Q 3647 3509 3647 2328 
Q 3647 1150 3233 529 
Q 2819 -91 2034 -91 
Q 1250 -91 836 529 
Q 422 1150 422 2328 
Q 422 3509 836 4129 
Q 1250 4750 2034 4750 
z
" transform="scale(0.015625)"/>
        <path id="DejaVuSans-35" d="M 691 4666 
L 3169 4666 
L 3169 4134 
L 1269 4134 
L 1269 2991 
Q 1406 3038 1543 3061 
Q 1681 3084 1819 3084 
Q 2600 3084 3056 2656 
Q 3513 2228 3513 1497 
Q 3513 744 3044 326 
Q 2575 -91 1722 -91 
Q 1428 -91 1123 -41 
Q 819 9 494 109 
L 494 744 
Q 775 591 1075 516 
Q 1375 441 1709 441 
Q 2250 441 2565 725 
Q 2881 1009 2881 1497 
Q 2881 1984 2565 2268 
Q 2250 2553 1709 2553 
Q 1456 2553 1204 2497 
Q 953 2441 691 2322 
L 691 4666 
z
" transform="scale(0.015625)"/>
        <path id="DejaVuSans-2d" d="M 313 2009 
L 1997 2009 
L 1997 1497 
L 313 1497 
L 313 2009 
z
" transform="scale(0.015625)"/>
        <path id="DejaVuSans-31" d="M 794 531 
L 1825 531 
L 1825 4091 
L 703 3866 
L 703 4441 
L 1819 4666 
L 2450 4666 
L 2450 531 
L 3481 531 
L 3481 0 
L 794 0 
L 794 531 
z
" transform="scale(0.015625)"/>
       </defs>
       <use xlink:href="#DejaVuSans-32"/>
       <use xlink:href="#DejaVuSans-30" x="63.623047"/>
       <use xlink:href="#DejaVuSans-30" x="127.246094"/>
       <use xlink:href="#DejaVuSans-35" x="190.869141"/>
       <use xlink:href="#DejaVuSans-2d" x="254.492188"/>
       <use xlink:href="#DejaVuSans-30" x="290.576172"/>
       <use xlink:href="#DejaVuSans-31" x="354.199219"/>
      </g>
     </g>
    </g>
    <g id="xtick_2">
     <g id="line2d_2">
      <g>
       <use xlink:href="#m5d3dbf9370" x="100.042165" y="288.430125" style="stroke: #000000; stroke-width: 0.8"/>
      </g>
     </g>
     <g id="text_2">
      <!-- 2005-04 -->
      <g transform="translate(62.817344 322.901971)rotate(-30)scale(0.1 -0.1)">
       <defs>
        <path id="DejaVuSans-34" d="M 2419 4116 
L 825 1625 
L 2419 1625 
L 2419 4116 
z
M 2253 4666 
L 3047 4666 
L 3047 1625 
L 3713 1625 
L 3713 1100 
L 3047 1100 
L 3047 0 
L 2419 0 
L 2419 1100 
L 313 1100 
L 313 1709 
L 2253 4666 
z
" transform="scale(0.015625)"/>
       </defs>
       <use xlink:href="#DejaVuSans-32"/>
       <use xlink:href="#DejaVuSans-30" x="63.623047"/>
       <use xlink:href="#DejaVuSans-30" x="127.246094"/>
       <use xlink:href="#DejaVuSans-35" x="190.869141"/>
       <use xlink:href="#DejaVuSans-2d" x="254.492188"/>
       <use xlink:href="#DejaVuSans-30" x="290.576172"/>
       <use xlink:href="#DejaVuSans-34" x="354.199219"/>
      </g>
     </g>
    </g>
    <g id="xtick_3">
     <g id="line2d_3">
      <g>
       <use xlink:href="#m5d3dbf9370" x="140.51511" y="288.430125" style="stroke: #000000; stroke-width: 0.8"/>
      </g>
     </g>
     <g id="text_3">
      <!-- 2005-07 -->
      <g transform="translate(103.290289 322.901971)rotate(-30)scale(0.1 -0.1)">
       <defs>
        <path id="DejaVuSans-37" d="M 525 4666 
L 3525 4666 
L 3525 4397 
L 1831 0 
L 1172 0 
L 2766 4134 
L 525 4134 
L 525 4666 
z
" transform="scale(0.015625)"/>
       </defs>
       <use xlink:href="#DejaVuSans-32"/>
       <use xlink:href="#DejaVuSans-30" x="63.623047"/>
       <use xlink:href="#DejaVuSans-30" x="127.246094"/>
       <use xlink:href="#DejaVuSans-35" x="190.869141"/>
       <use xlink:href="#DejaVuSans-2d" x="254.492188"/>
       <use xlink:href="#DejaVuSans-30" x="290.576172"/>
       <use xlink:href="#DejaVuSans-37" x="354.199219"/>
      </g>
     </g>
    </g>
    <g id="xtick_4">
     <g id="line2d_4">
      <g>
       <use xlink:href="#m5d3dbf9370" x="181.432813" y="288.430125" style="stroke: #000000; stroke-width: 0.8"/>
      </g>
     </g>
     <g id="text_4">
      <!-- 2005-10 -->
      <g transform="translate(144.207992 322.901971)rotate(-30)scale(0.1 -0.1)">
       <use xlink:href="#DejaVuSans-32"/>
       <use xlink:href="#DejaVuSans-30" x="63.623047"/>
       <use xlink:href="#DejaVuSans-30" x="127.246094"/>
       <use xlink:href="#DejaVuSans-35" x="190.869141"/>
       <use xlink:href="#DejaVuSans-2d" x="254.492188"/>
       <use xlink:href="#DejaVuSans-31" x="290.576172"/>
       <use xlink:href="#DejaVuSans-30" x="354.199219"/>
      </g>
     </g>
    </g>
    <g id="xtick_5">
     <g id="line2d_5">
      <g>
       <use xlink:href="#m5d3dbf9370" x="222.350516" y="288.430125" style="stroke: #000000; stroke-width: 0.8"/>
      </g>
     </g>
     <g id="text_5">
      <!-- 2006-01 -->
      <g transform="translate(185.125695 322.901971)rotate(-30)scale(0.1 -0.1)">
       <defs>
        <path id="DejaVuSans-36" d="M 2113 2584 
Q 1688 2584 1439 2293 
Q 1191 2003 1191 1497 
Q 1191 994 1439 701 
Q 1688 409 2113 409 
Q 2538 409 2786 701 
Q 3034 994 3034 1497 
Q 3034 2003 2786 2293 
Q 2538 2584 2113 2584 
z
M 3366 4563 
L 3366 3988 
Q 3128 4100 2886 4159 
Q 2644 4219 2406 4219 
Q 1781 4219 1451 3797 
Q 1122 3375 1075 2522 
Q 1259 2794 1537 2939 
Q 1816 3084 2150 3084 
Q 2853 3084 3261 2657 
Q 3669 2231 3669 1497 
Q 3669 778 3244 343 
Q 2819 -91 2113 -91 
Q 1303 -91 875 529 
Q 447 1150 447 2328 
Q 447 3434 972 4092 
Q 1497 4750 2381 4750 
Q 2619 4750 2861 4703 
Q 3103 4656 3366 4563 
z
" transform="scale(0.015625)"/>
       </defs>
       <use xlink:href="#DejaVuSans-32"/>
       <use xlink:href="#DejaVuSans-30" x="63.623047"/>
       <use xlink:href="#DejaVuSans-30" x="127.246094"/>
       <use xlink:href="#DejaVuSans-36" x="190.869141"/>
       <use xlink:href="#DejaVuSans-2d" x="254.492188"/>
       <use xlink:href="#DejaVuSans-30" x="290.576172"/>
       <use xlink:href="#DejaVuSans-31" x="354.199219"/>
      </g>
     </g>
    </g>
    <g id="xtick_6">
     <g id="line2d_6">
      <g>
       <use xlink:href="#m5d3dbf9370" x="262.378703" y="288.430125" style="stroke: #000000; stroke-width: 0.8"/>
      </g>
     </g>
     <g id="text_6">
      <!-- 2006-04 -->
      <g transform="translate(225.153883 322.901971)rotate(-30)scale(0.1 -0.1)">
       <use xlink:href="#DejaVuSans-32"/>
       <use xlink:href="#DejaVuSans-30" x="63.623047"/>
       <use xlink:href="#DejaVuSans-30" x="127.246094"/>
       <use xlink:href="#DejaVuSans-36" x="190.869141"/>
       <use xlink:href="#DejaVuSans-2d" x="254.492188"/>
       <use xlink:href="#DejaVuSans-30" x="290.576172"/>
       <use xlink:href="#DejaVuSans-34" x="354.199219"/>
      </g>
     </g>
    </g>
    <g id="xtick_7">
     <g id="line2d_7">
      <g>
       <use xlink:href="#m5d3dbf9370" x="302.851649" y="288.430125" style="stroke: #000000; stroke-width: 0.8"/>
      </g>
     </g>
     <g id="text_7">
      <!-- 2006-07 -->
      <g transform="translate(265.626828 322.901971)rotate(-30)scale(0.1 -0.1)">
       <use xlink:href="#DejaVuSans-32"/>
       <use xlink:href="#DejaVuSans-30" x="63.623047"/>
       <use xlink:href="#DejaVuSans-30" x="127.246094"/>
       <use xlink:href="#DejaVuSans-36" x="190.869141"/>
       <use xlink:href="#DejaVuSans-2d" x="254.492188"/>
       <use xlink:href="#DejaVuSans-30" x="290.576172"/>
       <use xlink:href="#DejaVuSans-37" x="354.199219"/>
      </g>
     </g>
    </g>
    <g id="xtick_8">
     <g id="line2d_8">
      <g>
       <use xlink:href="#m5d3dbf9370" x="343.769351" y="288.430125" style="stroke: #000000; stroke-width: 0.8"/>
      </g>
     </g>
     <g id="text_8">
      <!-- 2006-10 -->
      <g transform="translate(306.544531 322.901971)rotate(-30)scale(0.1 -0.1)">
       <use xlink:href="#DejaVuSans-32"/>
       <use xlink:href="#DejaVuSans-30" x="63.623047"/>
       <use xlink:href="#DejaVuSans-30" x="127.246094"/>
       <use xlink:href="#DejaVuSans-36" x="190.869141"/>
       <use xlink:href="#DejaVuSans-2d" x="254.492188"/>
       <use xlink:href="#DejaVuSans-31" x="290.576172"/>
       <use xlink:href="#DejaVuSans-30" x="354.199219"/>
      </g>
     </g>
    </g>
    <g id="xtick_9">
     <g id="line2d_9">
      <g>
       <use xlink:href="#m5d3dbf9370" x="384.687054" y="288.430125" style="stroke: #000000; stroke-width: 0.8"/>
      </g>
     </g>
     <g id="text_9">
      <!-- 2007-01 -->
      <g transform="translate(347.462233 322.901971)rotate(-30)scale(0.1 -0.1)">
       <use xlink:href="#DejaVuSans-32"/>
       <use xlink:href="#DejaVuSans-30" x="63.623047"/>
       <use xlink:href="#DejaVuSans-30" x="127.246094"/>
       <use xlink:href="#DejaVuSans-37" x="190.869141"/>
       <use xlink:href="#DejaVuSans-2d" x="254.492188"/>
       <use xlink:href="#DejaVuSans-30" x="290.576172"/>
       <use xlink:href="#DejaVuSans-31" x="354.199219"/>
      </g>
     </g>
    </g>
    <g id="text_10">
     <!-- timesteps -->
     <g transform="translate(197.624844 336.301471)scale(0.1 -0.1)">
      <defs>
       <path id="DejaVuSans-74" d="M 1172 4494 
L 1172 3500 
L 2356 3500 
L 2356 3053 
L 1172 3053 
L 1172 1153 
Q 1172 725 1289 603 
Q 1406 481 1766 481 
L 2356 481 
L 2356 0 
L 1766 0 
Q 1100 0 847 248 
Q 594 497 594 1153 
L 594 3053 
L 172 3053 
L 172 3500 
L 594 3500 
L 594 4494 
L 1172 4494 
z
" transform="scale(0.015625)"/>
       <path id="DejaVuSans-69" d="M 603 3500 
L 1178 3500 
L 1178 0 
L 603 0 
L 603 3500 
z
M 603 4863 
L 1178 4863 
L 1178 4134 
L 603 4134 
L 603 4863 
z
" transform="scale(0.015625)"/>
       <path id="DejaVuSans-6d" d="M 3328 2828 
Q 3544 3216 3844 3400 
Q 4144 3584 4550 3584 
Q 5097 3584 5394 3201 
Q 5691 2819 5691 2113 
L 5691 0 
L 5113 0 
L 5113 2094 
Q 5113 2597 4934 2840 
Q 4756 3084 4391 3084 
Q 3944 3084 3684 2787 
Q 3425 2491 3425 1978 
L 3425 0 
L 2847 0 
L 2847 2094 
Q 2847 2600 2669 2842 
Q 2491 3084 2119 3084 
Q 1678 3084 1418 2786 
Q 1159 2488 1159 1978 
L 1159 0 
L 581 0 
L 581 3500 
L 1159 3500 
L 1159 2956 
Q 1356 3278 1631 3431 
Q 1906 3584 2284 3584 
Q 2666 3584 2933 3390 
Q 3200 3197 3328 2828 
z
" transform="scale(0.015625)"/>
       <path id="DejaVuSans-65" d="M 3597 1894 
L 3597 1613 
L 953 1613 
Q 991 1019 1311 708 
Q 1631 397 2203 397 
Q 2534 397 2845 478 
Q 3156 559 3463 722 
L 3463 178 
Q 3153 47 2828 -22 
Q 2503 -91 2169 -91 
Q 1331 -91 842 396 
Q 353 884 353 1716 
Q 353 2575 817 3079 
Q 1281 3584 2069 3584 
Q 2775 3584 3186 3129 
Q 3597 2675 3597 1894 
z
M 3022 2063 
Q 3016 2534 2758 2815 
Q 2500 3097 2075 3097 
Q 1594 3097 1305 2825 
Q 1016 2553 972 2059 
L 3022 2063 
z
" transform="scale(0.015625)"/>
       <path id="DejaVuSans-73" d="M 2834 3397 
L 2834 2853 
Q 2591 2978 2328 3040 
Q 2066 3103 1784 3103 
Q 1356 3103 1142 2972 
Q 928 2841 928 2578 
Q 928 2378 1081 2264 
Q 1234 2150 1697 2047 
L 1894 2003 
Q 2506 1872 2764 1633 
Q 3022 1394 3022 966 
Q 3022 478 2636 193 
Q 2250 -91 1575 -91 
Q 1294 -91 989 -36 
Q 684 19 347 128 
L 347 722 
Q 666 556 975 473 
Q 1284 391 1588 391 
Q 1994 391 2212 530 
Q 2431 669 2431 922 
Q 2431 1156 2273 1281 
Q 2116 1406 1581 1522 
L 1381 1569 
Q 847 1681 609 1914 
Q 372 2147 372 2553 
Q 372 3047 722 3315 
Q 1072 3584 1716 3584 
Q 2034 3584 2315 3537 
Q 2597 3491 2834 3397 
z
" transform="scale(0.015625)"/>
       <path id="DejaVuSans-70" d="M 1159 525 
L 1159 -1331 
L 581 -1331 
L 581 3500 
L 1159 3500 
L 1159 2969 
Q 1341 3281 1617 3432 
Q 1894 3584 2278 3584 
Q 2916 3584 3314 3078 
Q 3713 2572 3713 1747 
Q 3713 922 3314 415 
Q 2916 -91 2278 -91 
Q 1894 -91 1617 61 
Q 1341 213 1159 525 
z
M 3116 1747 
Q 3116 2381 2855 2742 
Q 2594 3103 2138 3103 
Q 1681 3103 1420 2742 
Q 1159 2381 1159 1747 
Q 1159 1113 1420 752 
Q 1681 391 2138 391 
Q 2594 391 2855 752 
Q 3116 1113 3116 1747 
z
" transform="scale(0.015625)"/>
      </defs>
      <use xlink:href="#DejaVuSans-74"/>
      <use xlink:href="#DejaVuSans-69" x="39.208984"/>
      <use xlink:href="#DejaVuSans-6d" x="66.992188"/>
      <use xlink:href="#DejaVuSans-65" x="164.404297"/>
      <use xlink:href="#DejaVuSans-73" x="225.927734"/>
      <use xlink:href="#DejaVuSans-74" x="278.027344"/>
      <use xlink:href="#DejaVuSans-65" x="317.236328"/>
      <use xlink:href="#DejaVuSans-70" x="378.759766"/>
      <use xlink:href="#DejaVuSans-73" x="442.236328"/>
     </g>
    </g>
   </g>
   <g id="matplotlib.axis_2">
    <g id="ytick_1">
     <g id="line2d_10">
      <defs>
       <path id="m9bb1d6b85a" d="M 0 0 
L -3.5 0 
" style="stroke: #000000; stroke-width: 0.8"/>
      </defs>
      <g>
       <use xlink:href="#m9bb1d6b85a" x="43.78125" y="277.874795" style="stroke: #000000; stroke-width: 0.8"/>
      </g>
     </g>
     <g id="text_11">
      <!-- 2.0 -->
      <g transform="translate(20.878125 281.674014)scale(0.1 -0.1)">
       <defs>
        <path id="DejaVuSans-2e" d="M 684 794 
L 1344 794 
L 1344 0 
L 684 0 
L 684 794 
z
" transform="scale(0.015625)"/>
       </defs>
       <use xlink:href="#DejaVuSans-32"/>
       <use xlink:href="#DejaVuSans-2e" x="63.623047"/>
       <use xlink:href="#DejaVuSans-30" x="95.410156"/>
      </g>
     </g>
    </g>
    <g id="ytick_2">
     <g id="line2d_11">
      <g>
       <use xlink:href="#m9bb1d6b85a" x="43.78125" y="239.474058" style="stroke: #000000; stroke-width: 0.8"/>
      </g>
     </g>
     <g id="text_12">
      <!-- 2.5 -->
      <g transform="translate(20.878125 243.273277)scale(0.1 -0.1)">
       <use xlink:href="#DejaVuSans-32"/>
       <use xlink:href="#DejaVuSans-2e" x="63.623047"/>
       <use xlink:href="#DejaVuSans-35" x="95.410156"/>
      </g>
     </g>
    </g>
    <g id="ytick_3">
     <g id="line2d_12">
      <g>
       <use xlink:href="#m9bb1d6b85a" x="43.78125" y="201.073322" style="stroke: #000000; stroke-width: 0.8"/>
      </g>
     </g>
     <g id="text_13">
      <!-- 3.0 -->
      <g transform="translate(20.878125 204.87254)scale(0.1 -0.1)">
       <defs>
        <path id="DejaVuSans-33" d="M 2597 2516 
Q 3050 2419 3304 2112 
Q 3559 1806 3559 1356 
Q 3559 666 3084 287 
Q 2609 -91 1734 -91 
Q 1441 -91 1130 -33 
Q 819 25 488 141 
L 488 750 
Q 750 597 1062 519 
Q 1375 441 1716 441 
Q 2309 441 2620 675 
Q 2931 909 2931 1356 
Q 2931 1769 2642 2001 
Q 2353 2234 1838 2234 
L 1294 2234 
L 1294 2753 
L 1863 2753 
Q 2328 2753 2575 2939 
Q 2822 3125 2822 3475 
Q 2822 3834 2567 4026 
Q 2313 4219 1838 4219 
Q 1578 4219 1281 4162 
Q 984 4106 628 3988 
L 628 4550 
Q 988 4650 1302 4700 
Q 1616 4750 1894 4750 
Q 2613 4750 3031 4423 
Q 3450 4097 3450 3541 
Q 3450 3153 3228 2886 
Q 3006 2619 2597 2516 
z
" transform="scale(0.015625)"/>
       </defs>
       <use xlink:href="#DejaVuSans-33"/>
       <use xlink:href="#DejaVuSans-2e" x="63.623047"/>
       <use xlink:href="#DejaVuSans-30" x="95.410156"/>
      </g>
     </g>
    </g>
    <g id="ytick_4">
     <g id="line2d_13">
      <g>
       <use xlink:href="#m9bb1d6b85a" x="43.78125" y="162.672585" style="stroke: #000000; stroke-width: 0.8"/>
      </g>
     </g>
     <g id="text_14">
      <!-- 3.5 -->
      <g transform="translate(20.878125 166.471804)scale(0.1 -0.1)">
       <use xlink:href="#DejaVuSans-33"/>
       <use xlink:href="#DejaVuSans-2e" x="63.623047"/>
       <use xlink:href="#DejaVuSans-35" x="95.410156"/>
      </g>
     </g>
    </g>
    <g id="ytick_5">
     <g id="line2d_14">
      <g>
       <use xlink:href="#m9bb1d6b85a" x="43.78125" y="124.271849" style="stroke: #000000; stroke-width: 0.8"/>
      </g>
     </g>
     <g id="text_15">
      <!-- 4.0 -->
      <g transform="translate(20.878125 128.071067)scale(0.1 -0.1)">
       <use xlink:href="#DejaVuSans-34"/>
       <use xlink:href="#DejaVuSans-2e" x="63.623047"/>
       <use xlink:href="#DejaVuSans-30" x="95.410156"/>
      </g>
     </g>
    </g>
    <g id="ytick_6">
     <g id="line2d_15">
      <g>
       <use xlink:href="#m9bb1d6b85a" x="43.78125" y="85.871112" style="stroke: #000000; stroke-width: 0.8"/>
      </g>
     </g>
     <g id="text_16">
      <!-- 4.5 -->
      <g transform="translate(20.878125 89.670331)scale(0.1 -0.1)">
       <use xlink:href="#DejaVuSans-34"/>
       <use xlink:href="#DejaVuSans-2e" x="63.623047"/>
       <use xlink:href="#DejaVuSans-35" x="95.410156"/>
      </g>
     </g>
    </g>
    <g id="ytick_7">
     <g id="line2d_16">
      <g>
       <use xlink:href="#m9bb1d6b85a" x="43.78125" y="47.470375" style="stroke: #000000; stroke-width: 0.8"/>
      </g>
     </g>
     <g id="text_17">
      <!-- 5.0 -->
      <g transform="translate(20.878125 51.269594)scale(0.1 -0.1)">
       <use xlink:href="#DejaVuSans-35"/>
       <use xlink:href="#DejaVuSans-2e" x="63.623047"/>
       <use xlink:href="#DejaVuSans-30" x="95.410156"/>
      </g>
     </g>
    </g>
    <g id="text_18">
     <!-- storage -->
     <g transform="translate(14.798438 174.368656)rotate(-90)scale(0.1 -0.1)">
      <defs>
       <path id="DejaVuSans-6f" d="M 1959 3097 
Q 1497 3097 1228 2736 
Q 959 2375 959 1747 
Q 959 1119 1226 758 
Q 1494 397 1959 397 
Q 2419 397 2687 759 
Q 2956 1122 2956 1747 
Q 2956 2369 2687 2733 
Q 2419 3097 1959 3097 
z
M 1959 3584 
Q 2709 3584 3137 3096 
Q 3566 2609 3566 1747 
Q 3566 888 3137 398 
Q 2709 -91 1959 -91 
Q 1206 -91 779 398 
Q 353 888 353 1747 
Q 353 2609 779 3096 
Q 1206 3584 1959 3584 
z
" transform="scale(0.015625)"/>
       <path id="DejaVuSans-72" d="M 2631 2963 
Q 2534 3019 2420 3045 
Q 2306 3072 2169 3072 
Q 1681 3072 1420 2755 
Q 1159 2438 1159 1844 
L 1159 0 
L 581 0 
L 581 3500 
L 1159 3500 
L 1159 2956 
Q 1341 3275 1631 3429 
Q 1922 3584 2338 3584 
Q 2397 3584 2469 3576 
Q 2541 3569 2628 3553 
L 2631 2963 
z
" transform="scale(0.015625)"/>
       <path id="DejaVuSans-61" d="M 2194 1759 
Q 1497 1759 1228 1600 
Q 959 1441 959 1056 
Q 959 750 1161 570 
Q 1363 391 1709 391 
Q 2188 391 2477 730 
Q 2766 1069 2766 1631 
L 2766 1759 
L 2194 1759 
z
M 3341 1997 
L 3341 0 
L 2766 0 
L 2766 531 
Q 2569 213 2275 61 
Q 1981 -91 1556 -91 
Q 1019 -91 701 211 
Q 384 513 384 1019 
Q 384 1609 779 1909 
Q 1175 2209 1959 2209 
L 2766 2209 
L 2766 2266 
Q 2766 2663 2505 2880 
Q 2244 3097 1772 3097 
Q 1472 3097 1187 3025 
Q 903 2953 641 2809 
L 641 3341 
Q 956 3463 1253 3523 
Q 1550 3584 1831 3584 
Q 2591 3584 2966 3190 
Q 3341 2797 3341 1997 
z
" transform="scale(0.015625)"/>
       <path id="DejaVuSans-67" d="M 2906 1791 
Q 2906 2416 2648 2759 
Q 2391 3103 1925 3103 
Q 1463 3103 1205 2759 
Q 947 2416 947 1791 
Q 947 1169 1205 825 
Q 1463 481 1925 481 
Q 2391 481 2648 825 
Q 2906 1169 2906 1791 
z
M 3481 434 
Q 3481 -459 3084 -895 
Q 2688 -1331 1869 -1331 
Q 1566 -1331 1297 -1286 
Q 1028 -1241 775 -1147 
L 775 -588 
Q 1028 -725 1275 -790 
Q 1522 -856 1778 -856 
Q 2344 -856 2625 -561 
Q 2906 -266 2906 331 
L 2906 616 
Q 2728 306 2450 153 
Q 2172 0 1784 0 
Q 1141 0 747 490 
Q 353 981 353 1791 
Q 353 2603 747 3093 
Q 1141 3584 1784 3584 
Q 2172 3584 2450 3431 
Q 2728 3278 2906 2969 
L 2906 3500 
L 3481 3500 
L 3481 434 
z
" transform="scale(0.015625)"/>
      </defs>
      <use xlink:href="#DejaVuSans-73"/>
      <use xlink:href="#DejaVuSans-74" x="52.099609"/>
      <use xlink:href="#DejaVuSans-6f" x="91.308594"/>
      <use xlink:href="#DejaVuSans-72" x="152.490234"/>
      <use xlink:href="#DejaVuSans-61" x="193.603516"/>
      <use xlink:href="#DejaVuSans-67" x="254.882812"/>
      <use xlink:href="#DejaVuSans-65" x="318.359375"/>
     </g>
    </g>
    <g id="text_19">
     <!-- 1e10 -->
     <g transform="translate(43.78125 19.318125)scale(0.1 -0.1)">
      <use xlink:href="#DejaVuSans-31"/>
      <use xlink:href="#DejaVuSans-65" x="63.623047"/>
      <use xlink:href="#DejaVuSans-31" x="125.146484"/>
      <use xlink:href="#DejaVuSans-30" x="188.769531"/>
     </g>
    </g>
   </g>
   <g id="line2d_17">
    <path d="M 60.013977 92.400141 
L 60.291951 92.975127 
L 60.421672 93.188282 
L 60.644051 93.577372 
L 60.75524 93.737161 
L 61.014682 94.24417 
L 61.144403 94.286964 
L 113.514615 270.525604 
L 113.551678 270.585395 
L 113.996436 271.713662 
L 114.014967 271.708145 
L 114.033499 271.770631 
L 114.570914 273.238938 
L 114.626509 273.290115 
L 115.071267 274.478175 
L 115.089798 274.468108 
L 115.163925 274.550231 
L 115.404835 274.987754 
L 115.478961 275.06523 
L 115.719872 275.503104 
L 115.868124 275.464137 
L 116.127566 275.980039 
L 116.238756 276.089126 
L 116.387008 276.334125 
L 116.40554 276.312113 
L 116.553792 276.320419 
L 116.813234 276.28824 
L 117.035613 276.275734 
L 118.18457 276.04795 
L 118.332823 276.074642 
L 118.499607 276.015765 
L 119.500312 275.824582 
L 119.667096 275.778958 
L 119.870943 275.70098 
L 120.260106 275.543803 
L 120.538079 275.466394 
L 120.686332 275.399889 
L 120.982837 275.307955 
L 121.13109 275.241356 
L 121.427595 275.149231 
L 121.575847 275.082535 
L 121.872352 274.99021 
L 122.020605 274.923411 
L 122.31711 274.821789 
L 122.520957 274.725216 
L 123.095436 274.422012 
L 123.595788 274.190747 
L 123.781104 274.129433 
L 124.096141 273.986085 
L 124.244393 273.900835 
L 124.540898 273.773784 
L 124.689151 273.688505 
L 124.985656 273.561355 
L 125.133908 273.476017 
L 125.430413 273.350916 
L 125.652792 273.27557 
L 126.153145 273.105657 
L 126.375523 273.050205 
L 129.007006 272.258926 
L 129.210853 272.190734 
L 129.600016 272.053926 
L 129.859458 271.984542 
L 130.026242 271.931625 
L 130.304216 271.848509 
L 130.471 271.795453 
L 130.748974 271.712109 
L 130.915758 271.6589 
L 131.193731 271.575319 
L 131.360515 271.521981 
L 131.675552 271.426068 
L 131.860868 271.307361 
L 132.71332 270.817424 
L 132.991293 270.681072 
L 133.139546 270.581837 
L 133.436051 270.425965 
L 133.584304 270.326589 
L 133.880809 270.170415 
L 134.029061 270.07088 
L 134.325566 269.914384 
L 134.473819 269.814688 
L 134.770324 269.654455 
L 134.974171 269.536699 
L 135.826623 269.051265 
L 136.104597 268.916473 
L 136.252849 268.817835 
L 136.549354 268.663673 
L 136.697607 268.564884 
L 136.994112 268.410418 
L 137.142365 268.311493 
L 137.43887 268.156748 
L 137.587122 268.057683 
L 137.883627 267.894791 
L 138.068943 267.774802 
L 138.791674 267.345996 
L 138.939927 267.219103 
L 139.2179 267.065479 
L 139.366153 266.957774 
L 139.662658 266.783131 
L 139.81091 266.675258 
L 140.107416 266.50028 
L 140.255668 266.392237 
L 140.552173 266.22059 
L 140.700426 266.12218 
L 140.996931 265.960408 
L 141.182247 265.845555 
L 141.904978 265.443905 
L 142.05323 265.322249 
L 142.331204 265.178496 
L 142.479456 265.076141 
L 142.775961 264.911825 
L 142.924214 264.809269 
L 143.220719 264.644442 
L 143.368972 264.541497 
L 143.665477 264.376042 
L 143.813729 264.272971 
L 144.110234 264.102077 
L 144.29555 263.98207 
L 144.99975 263.566127 
L 145.148002 263.460646 
L 145.444507 263.289933 
L 145.59276 263.18435 
L 145.889265 263.013438 
L 146.037517 262.907752 
L 146.334023 262.736639 
L 146.482275 262.630852 
L 146.77878 262.459538 
L 146.927033 262.353647 
L 147.223538 262.185615 
L 147.427385 262.08213 
L 148.261306 261.669777 
L 148.557811 261.536195 
L 148.706063 261.447433 
L 149.002568 261.313638 
L 149.150821 261.224769 
L 149.447326 261.090763 
L 149.595579 261.001785 
L 149.892084 260.867568 
L 150.040336 260.778483 
L 150.336841 260.642794 
L 150.540689 260.550238 
L 151.356078 260.189812 
L 151.671114 260.054548 
L 151.819367 259.972619 
L 152.115872 259.853313 
L 152.264124 259.771273 
L 152.560629 259.651749 
L 152.708882 259.569601 
L 153.005387 259.449868 
L 153.15364 259.367609 
L 153.450145 259.247441 
L 153.653992 259.169776 
L 154.228471 258.920793 
L 154.710291 258.754775 
L 154.951202 258.696267 
L 155.210644 258.620156 
L 155.377428 258.562517 
L 155.655401 258.472332 
L 155.822186 258.414779 
L 156.100159 258.324737 
L 156.266943 258.267264 
L 156.544917 258.182635 
L 156.785827 258.170407 
L 157.286179 258.122865 
L 157.490027 258.114086 
L 157.656811 258.048825 
L 158.194226 257.98827 
L 158.342479 257.999935 
L 158.509263 257.960961 
L 158.768705 257.941639 
L 158.954021 257.911775 
L 159.213463 257.89257 
L 159.398778 257.862782 
L 159.65822 257.841613 
L 159.899131 257.820837 
L 160.399483 257.75653 
L 160.60333 257.742151 
L 160.751583 257.672609 
L 166.348116 257.125687 
L 166.607558 257.125027 
L 168.590436 257.04004 
L 168.75722 256.998677 
L 171.277513 257.126404 
L 171.499892 257.105074 
L 172.092902 257.116766 
L 172.407939 257.181207 
L 172.630318 257.217919 
L 173.890465 257.32443 
L 174.112843 257.332079 
L 174.650259 257.388751 
L 174.77998 257.415167 
L 175.002359 257.42273 
L 175.539774 257.500341 
L 175.669495 257.503779 
L 175.966 257.551886 
L 176.169848 257.579873 
L 176.392226 257.572076 
L 177.003768 257.624996 
L 177.207615 257.626131 
L 178.671609 257.721776 
L 178.80133 257.74153 
L 179.060772 257.749644 
L 181.488408 257.710033 
L 181.74785 257.716937 
L 181.951697 257.730606 
L 182.211139 257.719411 
L 182.34086 257.714964 
L 182.526175 257.708519 
L 182.785617 257.721904 
L 182.970933 257.71554 
L 183.230375 257.729044 
L 183.415691 257.722761 
L 183.675133 257.736377 
L 183.860448 257.730179 
L 184.11989 257.743913 
L 184.305206 257.737794 
L 184.564648 257.751632 
L 184.861153 257.792024 
L 185.065 257.814192 
L 185.342974 257.798842 
L 185.472695 257.829838 
L 185.676542 257.817249 
L 186.213958 257.852189 
L 186.343679 257.875042 
L 186.547526 257.87172 
L 187.974457 257.926672 
L 188.178304 257.907972 
L 188.437746 257.847328 
L 188.585998 257.831692 
L 188.752782 257.783667 
L 189.012224 257.752908 
L 189.179008 257.724961 
L 189.456982 257.683634 
L 189.623766 257.655801 
L 189.90174 257.614686 
L 190.068524 257.586959 
L 190.346497 257.546015 
L 190.513281 257.51839 
L 190.791255 257.47897 
L 191.050697 257.482706 
L 191.847554 257.421294 
L 192.125528 257.406753 
L 192.310844 257.386377 
L 192.570285 257.380675 
L 192.755601 257.360399 
L 193.015043 257.354833 
L 193.200359 257.334657 
L 193.459801 257.329235 
L 193.645116 257.309161 
L 193.904558 257.30199 
L 194.145469 257.295885 
L 194.645821 257.261705 
L 194.849668 257.259499 
L 195.016453 257.197542 
L 195.553868 257.147202 
L 195.683589 257.152429 
L 195.868905 257.125252 
L 196.128347 257.11019 
L 196.313662 257.083122 
L 196.573104 257.068229 
L 196.75842 257.041276 
L 197.017862 257.026935 
L 197.277304 257.036691 
L 198.074161 256.993325 
L 198.352135 256.984895 
L 198.53745 256.968644 
L 198.796892 256.9686 
L 198.982208 256.95246 
L 199.24165 256.952556 
L 199.426966 256.936528 
L 199.686408 256.936791 
L 199.871723 256.920874 
L 200.131165 256.920194 
L 200.390607 256.930992 
L 201.187465 256.890799 
L 201.465438 256.883498 
L 201.650754 256.868001 
L 201.947259 256.854435 
L 202.095512 256.791835 
L 202.354954 256.744932 
L 202.521738 256.70686 
L 202.799711 256.648545 
L 202.966495 256.610548 
L 203.244469 256.554431 
L 203.540974 256.554128 
L 203.763353 256.551225 
L 205.004968 256.425134 
L 205.282941 256.407899 
L 205.764762 256.373092 
L 205.950078 256.382017 
L 206.135394 256.334654 
L 206.672809 256.303379 
L 206.821062 256.286799 
L 207.080503 256.266423 
L 208.766876 255.887698 
L 209.081913 255.690826 
L 209.248697 255.522763 
L 210.212339 254.884976 
L 210.58297 254.615346 
L 212.82529 253.951221 
L 214.103968 253.437749 
L 214.734041 253.166306 
L 215.049078 253.060436 
L 216.031251 252.707435 
L 216.309225 252.642352 
L 217.513776 252.238095 
L 217.79175 252.12012 
L 217.995597 252.084118 
L 221.053306 251.171526 
L 221.386874 251.093032 
L 222.331984 250.972044 
L 223.165905 249.978251 
L 229.522233 242.208229 
L 230.207901 241.355035 
L 231.986931 239.258338 
L 235.544992 235.6624 
L 236.286255 234.566208 
L 241.178589 223.616453 
L 244.940498 215.217876 
L 245.755887 213.336684 
L 248.758001 206.414531 
L 254.465724 191.379894 
L 261.377999 172.850892 
L 262.063667 171.021174 
L 262.619614 169.713198 
L 273.831213 148.049101 
L 275.851154 144.20448 
L 278.816204 140.702511 
L 281.410624 137.590513 
L 289.712767 127.388603 
L 290.398435 127.013075 
L 290.750534 126.811545 
L 290.991445 126.705957 
L 293.400549 125.316214 
L 293.641459 125.190348 
L 294.215938 124.818805 
L 294.994264 124.254167 
L 295.809653 123.658572 
L 296.087626 123.412188 
L 296.328537 123.256008 
L 297.143926 122.655117 
L 297.829594 122.164657 
L 298.404072 121.718948 
L 298.73764 121.47116 
L 298.997082 121.287869 
L 299.812471 120.689573 
L 300.090445 120.442591 
L 300.331355 120.289302 
L 302.295702 118.717109 
L 302.555143 118.519815 
L 303.240812 117.986687 
L 303.611443 117.787676 
L 304.037669 117.507729 
L 307.632793 115.008104 
L 307.83664 114.895699 
L 309.411824 113.739394 
L 309.615671 113.630553 
L 317.954877 108.12825 
L 318.269913 107.973397 
L 319.159429 107.542381 
L 331.501453 102.513766 
L 332.724537 102.170315 
L 333.00251 102.053889 
L 333.169294 102.041088 
L 333.447268 101.924299 
L 333.614052 101.91143 
L 333.873494 101.811122 
L 334.05881 101.78138 
L 334.318252 101.680791 
L 334.503567 101.652216 
L 335.022451 101.530969 
L 340.56339 100.106027 
L 340.767237 100.064224 
L 342.082979 99.659706 
L 342.787178 99.384392 
L 342.953962 99.36429 
L 343.213404 99.25106 
L 343.417252 99.212096 
L 345.159219 98.915123 
L 345.437193 98.857372 
L 345.622508 98.860667 
L 345.900482 98.78487 
L 346.067266 98.802424 
L 346.623213 98.70923 
L 346.956781 98.684725 
L 347.623918 98.616627 
L 351.219042 98.05169 
L 351.404358 98.027497 
L 351.682331 97.9193 
L 351.849115 97.910832 
L 352.127089 97.802483 
L 352.293873 97.79391 
L 352.831288 97.636973 
L 353.350172 97.518398 
L 357.445649 96.667796 
L 357.630965 96.65382 
L 357.890407 96.585306 
L 358.075722 96.574446 
L 358.335164 96.507088 
L 358.52048 96.498734 
L 359.076427 96.382552 
L 359.558248 96.314341 
L 360.688673 96.152236 
L 360.985178 96.11187 
L 361.392873 96.052452 
L 361.911757 95.963368 
L 362.060009 95.971684 
L 362.337983 95.914369 
L 362.523299 95.906336 
L 363.023651 95.841801 
L 363.783445 95.714995 
L 364.394987 95.638747 
L 365.080655 95.514766 
L 365.48835 95.446913 
L 366.91528 95.416459 
L 367.193254 95.403019 
L 371.196073 94.935189 
L 372.067056 94.782167 
L 373.475455 94.522165 
L 373.64224 94.535061 
L 373.920213 94.448053 
L 374.086997 94.460887 
L 374.364971 94.373762 
L 374.531755 94.386535 
L 374.809728 94.299276 
L 375.013576 94.285697 
L 375.828965 94.056473 
L 376.12547 93.957506 
L 376.310785 93.93114 
L 376.588759 93.815807 
L 376.755543 93.805167 
L 377.033517 93.689751 
L 377.200301 93.679053 
L 377.478274 93.563523 
L 377.645058 93.552765 
L 377.923032 93.437069 
L 378.089816 93.434761 
L 378.794016 93.301682 
L 378.979331 93.286384 
L 379.257305 93.196684 
L 379.424089 93.20772 
L 379.702062 93.117887 
L 379.868847 93.128856 
L 380.14682 93.038937 
L 380.313604 93.049838 
L 380.591578 92.959774 
L 380.758362 92.970605 
L 381.036335 92.880375 
L 381.203119 92.887237 
L 381.907319 92.780759 
L 382.092635 92.773985 
L 382.370608 92.694693 
L 382.518861 92.710103 
L 382.778303 92.654968 
L 383.167466 92.599015 
L 383.704881 92.511827 
L 383.853134 92.526965 
L 384.112576 92.471319 
L 384.464675 92.434691 
L 384.668523 92.385413 
L 384.668523 92.385413 
" clip-path="url(#pb3c90f064b)" style="fill: none; stroke: #1f77b4; stroke-width: 1.5; stroke-linecap: square"/>
   </g>
   <g id="line2d_18">
    <path clip-path="url(#pb3c90f064b)" style="fill: none; stroke: #000000; stroke-width: 1.5; stroke-linecap: square"/>
   </g>
   <g id="line2d_19">
    <path d="M 43.78125 34.414125 
L 400.90125 34.414125 
" clip-path="url(#pb3c90f064b)" style="fill: none; stroke: #ff0000; stroke-width: 1.5; stroke-linecap: square"/>
   </g>
   <g id="line2d_20">
    <path d="M 43.78125 54.267306 
L 400.90125 54.267306 
" clip-path="url(#pb3c90f064b)" style="fill: none; stroke-dasharray: 5.55,2.4; stroke-dashoffset: 0; stroke: #ff00ff; stroke-width: 1.5"/>
   </g>
   <g id="patch_3">
    <path d="M 43.78125 288.430125 
L 43.78125 22.318125 
" style="fill: none; stroke: #000000; stroke-width: 0.8; stroke-linejoin: miter; stroke-linecap: square"/>
   </g>
   <g id="patch_4">
    <path d="M 400.90125 288.430125 
L 400.90125 22.318125 
" style="fill: none; stroke: #000000; stroke-width: 0.8; stroke-linejoin: miter; stroke-linecap: square"/>
   </g>
   <g id="patch_5">
    <path d="M 43.78125 288.430125 
L 400.90125 288.430125 
" style="fill: none; stroke: #000000; stroke-width: 0.8; stroke-linejoin: miter; stroke-linecap: square"/>
   </g>
   <g id="patch_6">
    <path d="M 43.78125 22.318125 
L 400.90125 22.318125 
" style="fill: none; stroke: #000000; stroke-width: 0.8; stroke-linejoin: miter; stroke-linecap: square"/>
   </g>
   <g id="text_20">
    <!-- loc_techs_store = Moz-North-Center::storageD -->
    <g transform="translate(82.765313 16.318125)scale(0.12 -0.12)">
     <defs>
      <path id="DejaVuSans-6c" d="M 603 4863 
L 1178 4863 
L 1178 0 
L 603 0 
L 603 4863 
z
" transform="scale(0.015625)"/>
      <path id="DejaVuSans-63" d="M 3122 3366 
L 3122 2828 
Q 2878 2963 2633 3030 
Q 2388 3097 2138 3097 
Q 1578 3097 1268 2742 
Q 959 2388 959 1747 
Q 959 1106 1268 751 
Q 1578 397 2138 397 
Q 2388 397 2633 464 
Q 2878 531 3122 666 
L 3122 134 
Q 2881 22 2623 -34 
Q 2366 -91 2075 -91 
Q 1284 -91 818 406 
Q 353 903 353 1747 
Q 353 2603 823 3093 
Q 1294 3584 2113 3584 
Q 2378 3584 2631 3529 
Q 2884 3475 3122 3366 
z
" transform="scale(0.015625)"/>
      <path id="DejaVuSans-5f" d="M 3263 -1063 
L 3263 -1509 
L -63 -1509 
L -63 -1063 
L 3263 -1063 
z
" transform="scale(0.015625)"/>
      <path id="DejaVuSans-68" d="M 3513 2113 
L 3513 0 
L 2938 0 
L 2938 2094 
Q 2938 2591 2744 2837 
Q 2550 3084 2163 3084 
Q 1697 3084 1428 2787 
Q 1159 2491 1159 1978 
L 1159 0 
L 581 0 
L 581 4863 
L 1159 4863 
L 1159 2956 
Q 1366 3272 1645 3428 
Q 1925 3584 2291 3584 
Q 2894 3584 3203 3211 
Q 3513 2838 3513 2113 
z
" transform="scale(0.015625)"/>
      <path id="DejaVuSans-20" transform="scale(0.015625)"/>
      <path id="DejaVuSans-3d" d="M 678 2906 
L 4684 2906 
L 4684 2381 
L 678 2381 
L 678 2906 
z
M 678 1631 
L 4684 1631 
L 4684 1100 
L 678 1100 
L 678 1631 
z
" transform="scale(0.015625)"/>
      <path id="DejaVuSans-4d" d="M 628 4666 
L 1569 4666 
L 2759 1491 
L 3956 4666 
L 4897 4666 
L 4897 0 
L 4281 0 
L 4281 4097 
L 3078 897 
L 2444 897 
L 1241 4097 
L 1241 0 
L 628 0 
L 628 4666 
z
" transform="scale(0.015625)"/>
      <path id="DejaVuSans-7a" d="M 353 3500 
L 3084 3500 
L 3084 2975 
L 922 459 
L 3084 459 
L 3084 0 
L 275 0 
L 275 525 
L 2438 3041 
L 353 3041 
L 353 3500 
z
" transform="scale(0.015625)"/>
      <path id="DejaVuSans-4e" d="M 628 4666 
L 1478 4666 
L 3547 763 
L 3547 4666 
L 4159 4666 
L 4159 0 
L 3309 0 
L 1241 3903 
L 1241 0 
L 628 0 
L 628 4666 
z
" transform="scale(0.015625)"/>
      <path id="DejaVuSans-43" d="M 4122 4306 
L 4122 3641 
Q 3803 3938 3442 4084 
Q 3081 4231 2675 4231 
Q 1875 4231 1450 3742 
Q 1025 3253 1025 2328 
Q 1025 1406 1450 917 
Q 1875 428 2675 428 
Q 3081 428 3442 575 
Q 3803 722 4122 1019 
L 4122 359 
Q 3791 134 3420 21 
Q 3050 -91 2638 -91 
Q 1578 -91 968 557 
Q 359 1206 359 2328 
Q 359 3453 968 4101 
Q 1578 4750 2638 4750 
Q 3056 4750 3426 4639 
Q 3797 4528 4122 4306 
z
" transform="scale(0.015625)"/>
      <path id="DejaVuSans-6e" d="M 3513 2113 
L 3513 0 
L 2938 0 
L 2938 2094 
Q 2938 2591 2744 2837 
Q 2550 3084 2163 3084 
Q 1697 3084 1428 2787 
Q 1159 2491 1159 1978 
L 1159 0 
L 581 0 
L 581 3500 
L 1159 3500 
L 1159 2956 
Q 1366 3272 1645 3428 
Q 1925 3584 2291 3584 
Q 2894 3584 3203 3211 
Q 3513 2838 3513 2113 
z
" transform="scale(0.015625)"/>
      <path id="DejaVuSans-3a" d="M 750 794 
L 1409 794 
L 1409 0 
L 750 0 
L 750 794 
z
M 750 3309 
L 1409 3309 
L 1409 2516 
L 750 2516 
L 750 3309 
z
" transform="scale(0.015625)"/>
      <path id="DejaVuSans-44" d="M 1259 4147 
L 1259 519 
L 2022 519 
Q 2988 519 3436 956 
Q 3884 1394 3884 2338 
Q 3884 3275 3436 3711 
Q 2988 4147 2022 4147 
L 1259 4147 
z
M 628 4666 
L 1925 4666 
Q 3281 4666 3915 4102 
Q 4550 3538 4550 2338 
Q 4550 1131 3912 565 
Q 3275 0 1925 0 
L 628 0 
L 628 4666 
z
" transform="scale(0.015625)"/>
     </defs>
     <use xlink:href="#DejaVuSans-6c"/>
     <use xlink:href="#DejaVuSans-6f" x="27.783203"/>
     <use xlink:href="#DejaVuSans-63" x="88.964844"/>
     <use xlink:href="#DejaVuSans-5f" x="143.945312"/>
     <use xlink:href="#DejaVuSans-74" x="193.945312"/>
     <use xlink:href="#DejaVuSans-65" x="233.154297"/>
     <use xlink:href="#DejaVuSans-63" x="294.677734"/>
     <use xlink:href="#DejaVuSans-68" x="349.658203"/>
     <use xlink:href="#DejaVuSans-73" x="413.037109"/>
     <use xlink:href="#DejaVuSans-5f" x="465.136719"/>
     <use xlink:href="#DejaVuSans-73" x="515.136719"/>
     <use xlink:href="#DejaVuSans-74" x="567.236328"/>
     <use xlink:href="#DejaVuSans-6f" x="606.445312"/>
     <use xlink:href="#DejaVuSans-72" x="667.626953"/>
     <use xlink:href="#DejaVuSans-65" x="706.490234"/>
     <use xlink:href="#DejaVuSans-20" x="768.013672"/>
     <use xlink:href="#DejaVuSans-3d" x="799.800781"/>
     <use xlink:href="#DejaVuSans-20" x="883.589844"/>
     <use xlink:href="#DejaVuSans-4d" x="915.376953"/>
     <use xlink:href="#DejaVuSans-6f" x="1001.65625"/>
     <use xlink:href="#DejaVuSans-7a" x="1062.837891"/>
     <use xlink:href="#DejaVuSans-2d" x="1115.328125"/>
     <use xlink:href="#DejaVuSans-4e" x="1151.412109"/>
     <use xlink:href="#DejaVuSans-6f" x="1226.216797"/>
     <use xlink:href="#DejaVuSans-72" x="1287.398438"/>
     <use xlink:href="#DejaVuSans-74" x="1328.511719"/>
     <use xlink:href="#DejaVuSans-68" x="1367.720703"/>
     <use xlink:href="#DejaVuSans-2d" x="1431.099609"/>
     <use xlink:href="#DejaVuSans-43" x="1467.183594"/>
     <use xlink:href="#DejaVuSans-65" x="1537.007812"/>
     <use xlink:href="#DejaVuSans-6e" x="1598.53125"/>
     <use xlink:href="#DejaVuSans-74" x="1661.910156"/>
     <use xlink:href="#DejaVuSans-65" x="1701.119141"/>
     <use xlink:href="#DejaVuSans-72" x="1762.642578"/>
     <use xlink:href="#DejaVuSans-3a" x="1802.005859"/>
     <use xlink:href="#DejaVuSans-3a" x="1835.697266"/>
     <use xlink:href="#DejaVuSans-73" x="1869.388672"/>
     <use xlink:href="#DejaVuSans-74" x="1921.488281"/>
     <use xlink:href="#DejaVuSans-6f" x="1960.697266"/>
     <use xlink:href="#DejaVuSans-72" x="2021.878906"/>
     <use xlink:href="#DejaVuSans-61" x="2062.992188"/>
     <use xlink:href="#DejaVuSans-67" x="2124.271484"/>
     <use xlink:href="#DejaVuSans-65" x="2187.748047"/>
     <use xlink:href="#DejaVuSans-44" x="2249.271484"/>
    </g>
   </g>
   <g id="legend_1">
    <g id="patch_7">
     <path d="M 422.18605 89.865 
L 545.93605 89.865 
Q 547.93605 89.865 547.93605 87.865 
L 547.93605 29.318125 
Q 547.93605 27.318125 545.93605 27.318125 
L 422.18605 27.318125 
Q 420.18605 27.318125 420.18605 29.318125 
L 420.18605 87.865 
Q 420.18605 89.865 422.18605 89.865 
z
" style="fill: #ffffff; opacity: 0.8; stroke: #cccccc; stroke-linejoin: miter"/>
    </g>
    <g id="line2d_21">
     <path d="M 424.18605 35.416562 
L 434.18605 35.416562 
L 444.18605 35.416562 
" style="fill: none; stroke: #1f77b4; stroke-width: 1.5; stroke-linecap: square"/>
    </g>
    <g id="text_21">
     <!-- Storage -->
     <g transform="translate(452.18605 38.916562)scale(0.1 -0.1)">
      <defs>
       <path id="DejaVuSans-53" d="M 3425 4513 
L 3425 3897 
Q 3066 4069 2747 4153 
Q 2428 4238 2131 4238 
Q 1616 4238 1336 4038 
Q 1056 3838 1056 3469 
Q 1056 3159 1242 3001 
Q 1428 2844 1947 2747 
L 2328 2669 
Q 3034 2534 3370 2195 
Q 3706 1856 3706 1288 
Q 3706 609 3251 259 
Q 2797 -91 1919 -91 
Q 1588 -91 1214 -16 
Q 841 59 441 206 
L 441 856 
Q 825 641 1194 531 
Q 1563 422 1919 422 
Q 2459 422 2753 634 
Q 3047 847 3047 1241 
Q 3047 1584 2836 1778 
Q 2625 1972 2144 2069 
L 1759 2144 
Q 1053 2284 737 2584 
Q 422 2884 422 3419 
Q 422 4038 858 4394 
Q 1294 4750 2059 4750 
Q 2388 4750 2728 4690 
Q 3069 4631 3425 4513 
z
" transform="scale(0.015625)"/>
      </defs>
      <use xlink:href="#DejaVuSans-53"/>
      <use xlink:href="#DejaVuSans-74" x="63.476562"/>
      <use xlink:href="#DejaVuSans-6f" x="102.685547"/>
      <use xlink:href="#DejaVuSans-72" x="163.867188"/>
      <use xlink:href="#DejaVuSans-61" x="204.980469"/>
      <use xlink:href="#DejaVuSans-67" x="266.259766"/>
      <use xlink:href="#DejaVuSans-65" x="329.736328"/>
     </g>
    </g>
    <g id="line2d_22">
     <path d="M 424.18605 50.094687 
L 434.18605 50.094687 
L 444.18605 50.094687 
" style="fill: none; stroke: #000000; stroke-width: 1.5; stroke-linecap: square"/>
    </g>
    <g id="text_22">
     <!-- Storage_cap_max -->
     <g transform="translate(452.18605 53.594687)scale(0.1 -0.1)">
      <defs>
       <path id="DejaVuSans-78" d="M 3513 3500 
L 2247 1797 
L 3578 0 
L 2900 0 
L 1881 1375 
L 863 0 
L 184 0 
L 1544 1831 
L 300 3500 
L 978 3500 
L 1906 2253 
L 2834 3500 
L 3513 3500 
z
" transform="scale(0.015625)"/>
      </defs>
      <use xlink:href="#DejaVuSans-53"/>
      <use xlink:href="#DejaVuSans-74" x="63.476562"/>
      <use xlink:href="#DejaVuSans-6f" x="102.685547"/>
      <use xlink:href="#DejaVuSans-72" x="163.867188"/>
      <use xlink:href="#DejaVuSans-61" x="204.980469"/>
      <use xlink:href="#DejaVuSans-67" x="266.259766"/>
      <use xlink:href="#DejaVuSans-65" x="329.736328"/>
      <use xlink:href="#DejaVuSans-5f" x="391.259766"/>
      <use xlink:href="#DejaVuSans-63" x="441.259766"/>
      <use xlink:href="#DejaVuSans-61" x="496.240234"/>
      <use xlink:href="#DejaVuSans-70" x="557.519531"/>
      <use xlink:href="#DejaVuSans-5f" x="620.996094"/>
      <use xlink:href="#DejaVuSans-6d" x="670.996094"/>
      <use xlink:href="#DejaVuSans-61" x="768.408203"/>
      <use xlink:href="#DejaVuSans-78" x="829.6875"/>
     </g>
    </g>
    <g id="line2d_23">
     <path d="M 424.18605 65.050937 
L 434.18605 65.050937 
L 444.18605 65.050937 
" style="fill: none; stroke: #ff0000; stroke-width: 1.5; stroke-linecap: square"/>
    </g>
    <g id="text_23">
     <!-- Storage_cap -->
     <g transform="translate(452.18605 68.550937)scale(0.1 -0.1)">
      <use xlink:href="#DejaVuSans-53"/>
      <use xlink:href="#DejaVuSans-74" x="63.476562"/>
      <use xlink:href="#DejaVuSans-6f" x="102.685547"/>
      <use xlink:href="#DejaVuSans-72" x="163.867188"/>
      <use xlink:href="#DejaVuSans-61" x="204.980469"/>
      <use xlink:href="#DejaVuSans-67" x="266.259766"/>
      <use xlink:href="#DejaVuSans-65" x="329.736328"/>
      <use xlink:href="#DejaVuSans-5f" x="391.259766"/>
      <use xlink:href="#DejaVuSans-63" x="441.259766"/>
      <use xlink:href="#DejaVuSans-61" x="496.240234"/>
      <use xlink:href="#DejaVuSans-70" x="557.519531"/>
     </g>
    </g>
    <g id="line2d_24">
     <path d="M 424.18605 80.007187 
L 434.18605 80.007187 
L 444.18605 80.007187 
" style="fill: none; stroke-dasharray: 5.55,2.4; stroke-dashoffset: 0; stroke: #ff00ff; stroke-width: 1.5"/>
    </g>
    <g id="text_24">
     <!-- Spillage_threshold -->
     <g transform="translate(452.18605 83.507187)scale(0.1 -0.1)">
      <defs>
       <path id="DejaVuSans-64" d="M 2906 2969 
L 2906 4863 
L 3481 4863 
L 3481 0 
L 2906 0 
L 2906 525 
Q 2725 213 2448 61 
Q 2172 -91 1784 -91 
Q 1150 -91 751 415 
Q 353 922 353 1747 
Q 353 2572 751 3078 
Q 1150 3584 1784 3584 
Q 2172 3584 2448 3432 
Q 2725 3281 2906 2969 
z
M 947 1747 
Q 947 1113 1208 752 
Q 1469 391 1925 391 
Q 2381 391 2643 752 
Q 2906 1113 2906 1747 
Q 2906 2381 2643 2742 
Q 2381 3103 1925 3103 
Q 1469 3103 1208 2742 
Q 947 2381 947 1747 
z
" transform="scale(0.015625)"/>
      </defs>
      <use xlink:href="#DejaVuSans-53"/>
      <use xlink:href="#DejaVuSans-70" x="63.476562"/>
      <use xlink:href="#DejaVuSans-69" x="126.953125"/>
      <use xlink:href="#DejaVuSans-6c" x="154.736328"/>
      <use xlink:href="#DejaVuSans-6c" x="182.519531"/>
      <use xlink:href="#DejaVuSans-61" x="210.302734"/>
      <use xlink:href="#DejaVuSans-67" x="271.582031"/>
      <use xlink:href="#DejaVuSans-65" x="335.058594"/>
      <use xlink:href="#DejaVuSans-5f" x="396.582031"/>
      <use xlink:href="#DejaVuSans-74" x="446.582031"/>
      <use xlink:href="#DejaVuSans-68" x="485.791016"/>
      <use xlink:href="#DejaVuSans-72" x="549.169922"/>
      <use xlink:href="#DejaVuSans-65" x="588.033203"/>
      <use xlink:href="#DejaVuSans-73" x="649.556641"/>
      <use xlink:href="#DejaVuSans-68" x="701.65625"/>
      <use xlink:href="#DejaVuSans-6f" x="765.035156"/>
      <use xlink:href="#DejaVuSans-6c" x="826.216797"/>
      <use xlink:href="#DejaVuSans-64" x="854"/>
     </g>
    </g>
   </g>
  </g>
 </g>
 <defs>
  <clipPath id="pb3c90f064b">
   <rect x="43.78125" y="22.318125" width="357.12" height="266.112"/>
  </clipPath>
 </defs>
</svg>
