<?xml version="1.0" encoding="utf-8" standalone="no"?>
<!DOCTYPE svg PUBLIC "-//W3C//DTD SVG 1.1//EN"
  "http://www.w3.org/Graphics/SVG/1.1/DTD/svg11.dtd">
<svg xmlns:xlink="http://www.w3.org/1999/xlink" width="563.68605pt" height="345.581158pt" viewBox="0 0 563.68605 345.581158" xmlns="http://www.w3.org/2000/svg" version="1.1">
 <metadata>
  <rdf:RDF xmlns:dc="http://purl.org/dc/elements/1.1/" xmlns:cc="http://creativecommons.org/ns#" xmlns:rdf="http://www.w3.org/1999/02/22-rdf-syntax-ns#">
   <cc:Work>
    <dc:type rdf:resource="http://purl.org/dc/dcmitype/StillImage"/>
    <dc:date>2022-04-27T16:06:09.680323</dc:date>
    <dc:format>image/svg+xml</dc:format>
    <dc:creator>
     <cc:Agent>
      <dc:title>Matplotlib v3.5.1, https://matplotlib.org/</dc:title>
     </cc:Agent>
    </dc:creator>
   </cc:Work>
  </rdf:RDF>
 </metadata>
 <defs>
  <style type="text/css">*{stroke-linejoin: round; stroke-linecap: butt}</style>
 </defs>
 <g id="figure_1">
  <g id="patch_1">
   <path d="M 0 345.581158 
L 563.68605 345.581158 
L 563.68605 0 
L 0 0 
z
" style="fill: #ffffff"/>
  </g>
  <g id="axes_1">
   <g id="patch_2">
    <path d="M 50.14375 288.430125 
L 407.26375 288.430125 
L 407.26375 22.318125 
L 50.14375 22.318125 
z
" style="fill: #ffffff"/>
   </g>
   <g id="matplotlib.axis_1">
    <g id="xtick_1">
     <g id="line2d_1">
      <defs>
       <path id="m3536dfa662" d="M 0 0 
L 0 3.5 
" style="stroke: #000000; stroke-width: 0.8"/>
      </defs>
      <g>
       <use xlink:href="#m3536dfa662" x="66.376477" y="288.430125" style="stroke: #000000; stroke-width: 0.8"/>
      </g>
     </g>
     <g id="text_1">
      <!-- 2005-01 -->
      <g transform="translate(29.151656 322.901971)rotate(-30)scale(0.1 -0.1)">
       <defs>
        <path id="DejaVuSans-32" d="M 1228 531 
L 3431 531 
L 3431 0 
L 469 0 
L 469 531 
Q 828 903 1448 1529 
Q 2069 2156 2228 2338 
Q 2531 2678 2651 2914 
Q 2772 3150 2772 3378 
Q 2772 3750 2511 3984 
Q 2250 4219 1831 4219 
Q 1534 4219 1204 4116 
Q 875 4013 500 3803 
L 500 4441 
Q 881 4594 1212 4672 
Q 1544 4750 1819 4750 
Q 2544 4750 2975 4387 
Q 3406 4025 3406 3419 
Q 3406 3131 3298 2873 
Q 3191 2616 2906 2266 
Q 2828 2175 2409 1742 
Q 1991 1309 1228 531 
z
" transform="scale(0.015625)"/>
        <path id="DejaVuSans-30" d="M 2034 4250 
Q 1547 4250 1301 3770 
Q 1056 3291 1056 2328 
Q 1056 1369 1301 889 
Q 1547 409 2034 409 
Q 2525 409 2770 889 
Q 3016 1369 3016 2328 
Q 3016 3291 2770 3770 
Q 2525 4250 2034 4250 
z
M 2034 4750 
Q 2819 4750 3233 4129 
Q 3647 3509 3647 2328 
Q 3647 1150 3233 529 
Q 2819 -91 2034 -91 
Q 1250 -91 836 529 
Q 422 1150 422 2328 
Q 422 3509 836 4129 
Q 1250 4750 2034 4750 
z
" transform="scale(0.015625)"/>
        <path id="DejaVuSans-35" d="M 691 4666 
L 3169 4666 
L 3169 4134 
L 1269 4134 
L 1269 2991 
Q 1406 3038 1543 3061 
Q 1681 3084 1819 3084 
Q 2600 3084 3056 2656 
Q 3513 2228 3513 1497 
Q 3513 744 3044 326 
Q 2575 -91 1722 -91 
Q 1428 -91 1123 -41 
Q 819 9 494 109 
L 494 744 
Q 775 591 1075 516 
Q 1375 441 1709 441 
Q 2250 441 2565 725 
Q 2881 1009 2881 1497 
Q 2881 1984 2565 2268 
Q 2250 2553 1709 2553 
Q 1456 2553 1204 2497 
Q 953 2441 691 2322 
L 691 4666 
z
" transform="scale(0.015625)"/>
        <path id="DejaVuSans-2d" d="M 313 2009 
L 1997 2009 
L 1997 1497 
L 313 1497 
L 313 2009 
z
" transform="scale(0.015625)"/>
        <path id="DejaVuSans-31" d="M 794 531 
L 1825 531 
L 1825 4091 
L 703 3866 
L 703 4441 
L 1819 4666 
L 2450 4666 
L 2450 531 
L 3481 531 
L 3481 0 
L 794 0 
L 794 531 
z
" transform="scale(0.015625)"/>
       </defs>
       <use xlink:href="#DejaVuSans-32"/>
       <use xlink:href="#DejaVuSans-30" x="63.623047"/>
       <use xlink:href="#DejaVuSans-30" x="127.246094"/>
       <use xlink:href="#DejaVuSans-35" x="190.869141"/>
       <use xlink:href="#DejaVuSans-2d" x="254.492188"/>
       <use xlink:href="#DejaVuSans-30" x="290.576172"/>
       <use xlink:href="#DejaVuSans-31" x="354.199219"/>
      </g>
     </g>
    </g>
    <g id="xtick_2">
     <g id="line2d_2">
      <g>
       <use xlink:href="#m3536dfa662" x="106.404665" y="288.430125" style="stroke: #000000; stroke-width: 0.8"/>
      </g>
     </g>
     <g id="text_2">
      <!-- 2005-04 -->
      <g transform="translate(69.179844 322.901971)rotate(-30)scale(0.1 -0.1)">
       <defs>
        <path id="DejaVuSans-34" d="M 2419 4116 
L 825 1625 
L 2419 1625 
L 2419 4116 
z
M 2253 4666 
L 3047 4666 
L 3047 1625 
L 3713 1625 
L 3713 1100 
L 3047 1100 
L 3047 0 
L 2419 0 
L 2419 1100 
L 313 1100 
L 313 1709 
L 2253 4666 
z
" transform="scale(0.015625)"/>
       </defs>
       <use xlink:href="#DejaVuSans-32"/>
       <use xlink:href="#DejaVuSans-30" x="63.623047"/>
       <use xlink:href="#DejaVuSans-30" x="127.246094"/>
       <use xlink:href="#DejaVuSans-35" x="190.869141"/>
       <use xlink:href="#DejaVuSans-2d" x="254.492188"/>
       <use xlink:href="#DejaVuSans-30" x="290.576172"/>
       <use xlink:href="#DejaVuSans-34" x="354.199219"/>
      </g>
     </g>
    </g>
    <g id="xtick_3">
     <g id="line2d_3">
      <g>
       <use xlink:href="#m3536dfa662" x="146.87761" y="288.430125" style="stroke: #000000; stroke-width: 0.8"/>
      </g>
     </g>
     <g id="text_3">
      <!-- 2005-07 -->
      <g transform="translate(109.652789 322.901971)rotate(-30)scale(0.1 -0.1)">
       <defs>
        <path id="DejaVuSans-37" d="M 525 4666 
L 3525 4666 
L 3525 4397 
L 1831 0 
L 1172 0 
L 2766 4134 
L 525 4134 
L 525 4666 
z
" transform="scale(0.015625)"/>
       </defs>
       <use xlink:href="#DejaVuSans-32"/>
       <use xlink:href="#DejaVuSans-30" x="63.623047"/>
       <use xlink:href="#DejaVuSans-30" x="127.246094"/>
       <use xlink:href="#DejaVuSans-35" x="190.869141"/>
       <use xlink:href="#DejaVuSans-2d" x="254.492188"/>
       <use xlink:href="#DejaVuSans-30" x="290.576172"/>
       <use xlink:href="#DejaVuSans-37" x="354.199219"/>
      </g>
     </g>
    </g>
    <g id="xtick_4">
     <g id="line2d_4">
      <g>
       <use xlink:href="#m3536dfa662" x="187.795313" y="288.430125" style="stroke: #000000; stroke-width: 0.8"/>
      </g>
     </g>
     <g id="text_4">
      <!-- 2005-10 -->
      <g transform="translate(150.570492 322.901971)rotate(-30)scale(0.1 -0.1)">
       <use xlink:href="#DejaVuSans-32"/>
       <use xlink:href="#DejaVuSans-30" x="63.623047"/>
       <use xlink:href="#DejaVuSans-30" x="127.246094"/>
       <use xlink:href="#DejaVuSans-35" x="190.869141"/>
       <use xlink:href="#DejaVuSans-2d" x="254.492188"/>
       <use xlink:href="#DejaVuSans-31" x="290.576172"/>
       <use xlink:href="#DejaVuSans-30" x="354.199219"/>
      </g>
     </g>
    </g>
    <g id="xtick_5">
     <g id="line2d_5">
      <g>
       <use xlink:href="#m3536dfa662" x="228.713016" y="288.430125" style="stroke: #000000; stroke-width: 0.8"/>
      </g>
     </g>
     <g id="text_5">
      <!-- 2006-01 -->
      <g transform="translate(191.488195 322.901971)rotate(-30)scale(0.1 -0.1)">
       <defs>
        <path id="DejaVuSans-36" d="M 2113 2584 
Q 1688 2584 1439 2293 
Q 1191 2003 1191 1497 
Q 1191 994 1439 701 
Q 1688 409 2113 409 
Q 2538 409 2786 701 
Q 3034 994 3034 1497 
Q 3034 2003 2786 2293 
Q 2538 2584 2113 2584 
z
M 3366 4563 
L 3366 3988 
Q 3128 4100 2886 4159 
Q 2644 4219 2406 4219 
Q 1781 4219 1451 3797 
Q 1122 3375 1075 2522 
Q 1259 2794 1537 2939 
Q 1816 3084 2150 3084 
Q 2853 3084 3261 2657 
Q 3669 2231 3669 1497 
Q 3669 778 3244 343 
Q 2819 -91 2113 -91 
Q 1303 -91 875 529 
Q 447 1150 447 2328 
Q 447 3434 972 4092 
Q 1497 4750 2381 4750 
Q 2619 4750 2861 4703 
Q 3103 4656 3366 4563 
z
" transform="scale(0.015625)"/>
       </defs>
       <use xlink:href="#DejaVuSans-32"/>
       <use xlink:href="#DejaVuSans-30" x="63.623047"/>
       <use xlink:href="#DejaVuSans-30" x="127.246094"/>
       <use xlink:href="#DejaVuSans-36" x="190.869141"/>
       <use xlink:href="#DejaVuSans-2d" x="254.492188"/>
       <use xlink:href="#DejaVuSans-30" x="290.576172"/>
       <use xlink:href="#DejaVuSans-31" x="354.199219"/>
      </g>
     </g>
    </g>
    <g id="xtick_6">
     <g id="line2d_6">
      <g>
       <use xlink:href="#m3536dfa662" x="268.741203" y="288.430125" style="stroke: #000000; stroke-width: 0.8"/>
      </g>
     </g>
     <g id="text_6">
      <!-- 2006-04 -->
      <g transform="translate(231.516383 322.901971)rotate(-30)scale(0.1 -0.1)">
       <use xlink:href="#DejaVuSans-32"/>
       <use xlink:href="#DejaVuSans-30" x="63.623047"/>
       <use xlink:href="#DejaVuSans-30" x="127.246094"/>
       <use xlink:href="#DejaVuSans-36" x="190.869141"/>
       <use xlink:href="#DejaVuSans-2d" x="254.492188"/>
       <use xlink:href="#DejaVuSans-30" x="290.576172"/>
       <use xlink:href="#DejaVuSans-34" x="354.199219"/>
      </g>
     </g>
    </g>
    <g id="xtick_7">
     <g id="line2d_7">
      <g>
       <use xlink:href="#m3536dfa662" x="309.214149" y="288.430125" style="stroke: #000000; stroke-width: 0.8"/>
      </g>
     </g>
     <g id="text_7">
      <!-- 2006-07 -->
      <g transform="translate(271.989328 322.901971)rotate(-30)scale(0.1 -0.1)">
       <use xlink:href="#DejaVuSans-32"/>
       <use xlink:href="#DejaVuSans-30" x="63.623047"/>
       <use xlink:href="#DejaVuSans-30" x="127.246094"/>
       <use xlink:href="#DejaVuSans-36" x="190.869141"/>
       <use xlink:href="#DejaVuSans-2d" x="254.492188"/>
       <use xlink:href="#DejaVuSans-30" x="290.576172"/>
       <use xlink:href="#DejaVuSans-37" x="354.199219"/>
      </g>
     </g>
    </g>
    <g id="xtick_8">
     <g id="line2d_8">
      <g>
       <use xlink:href="#m3536dfa662" x="350.131851" y="288.430125" style="stroke: #000000; stroke-width: 0.8"/>
      </g>
     </g>
     <g id="text_8">
      <!-- 2006-10 -->
      <g transform="translate(312.907031 322.901971)rotate(-30)scale(0.1 -0.1)">
       <use xlink:href="#DejaVuSans-32"/>
       <use xlink:href="#DejaVuSans-30" x="63.623047"/>
       <use xlink:href="#DejaVuSans-30" x="127.246094"/>
       <use xlink:href="#DejaVuSans-36" x="190.869141"/>
       <use xlink:href="#DejaVuSans-2d" x="254.492188"/>
       <use xlink:href="#DejaVuSans-31" x="290.576172"/>
       <use xlink:href="#DejaVuSans-30" x="354.199219"/>
      </g>
     </g>
    </g>
    <g id="xtick_9">
     <g id="line2d_9">
      <g>
       <use xlink:href="#m3536dfa662" x="391.049554" y="288.430125" style="stroke: #000000; stroke-width: 0.8"/>
      </g>
     </g>
     <g id="text_9">
      <!-- 2007-01 -->
      <g transform="translate(353.824733 322.901971)rotate(-30)scale(0.1 -0.1)">
       <use xlink:href="#DejaVuSans-32"/>
       <use xlink:href="#DejaVuSans-30" x="63.623047"/>
       <use xlink:href="#DejaVuSans-30" x="127.246094"/>
       <use xlink:href="#DejaVuSans-37" x="190.869141"/>
       <use xlink:href="#DejaVuSans-2d" x="254.492188"/>
       <use xlink:href="#DejaVuSans-30" x="290.576172"/>
       <use xlink:href="#DejaVuSans-31" x="354.199219"/>
      </g>
     </g>
    </g>
    <g id="text_10">
     <!-- timesteps -->
     <g transform="translate(203.987344 336.301471)scale(0.1 -0.1)">
      <defs>
       <path id="DejaVuSans-74" d="M 1172 4494 
L 1172 3500 
L 2356 3500 
L 2356 3053 
L 1172 3053 
L 1172 1153 
Q 1172 725 1289 603 
Q 1406 481 1766 481 
L 2356 481 
L 2356 0 
L 1766 0 
Q 1100 0 847 248 
Q 594 497 594 1153 
L 594 3053 
L 172 3053 
L 172 3500 
L 594 3500 
L 594 4494 
L 1172 4494 
z
" transform="scale(0.015625)"/>
       <path id="DejaVuSans-69" d="M 603 3500 
L 1178 3500 
L 1178 0 
L 603 0 
L 603 3500 
z
M 603 4863 
L 1178 4863 
L 1178 4134 
L 603 4134 
L 603 4863 
z
" transform="scale(0.015625)"/>
       <path id="DejaVuSans-6d" d="M 3328 2828 
Q 3544 3216 3844 3400 
Q 4144 3584 4550 3584 
Q 5097 3584 5394 3201 
Q 5691 2819 5691 2113 
L 5691 0 
L 5113 0 
L 5113 2094 
Q 5113 2597 4934 2840 
Q 4756 3084 4391 3084 
Q 3944 3084 3684 2787 
Q 3425 2491 3425 1978 
L 3425 0 
L 2847 0 
L 2847 2094 
Q 2847 2600 2669 2842 
Q 2491 3084 2119 3084 
Q 1678 3084 1418 2786 
Q 1159 2488 1159 1978 
L 1159 0 
L 581 0 
L 581 3500 
L 1159 3500 
L 1159 2956 
Q 1356 3278 1631 3431 
Q 1906 3584 2284 3584 
Q 2666 3584 2933 3390 
Q 3200 3197 3328 2828 
z
" transform="scale(0.015625)"/>
       <path id="DejaVuSans-65" d="M 3597 1894 
L 3597 1613 
L 953 1613 
Q 991 1019 1311 708 
Q 1631 397 2203 397 
Q 2534 397 2845 478 
Q 3156 559 3463 722 
L 3463 178 
Q 3153 47 2828 -22 
Q 2503 -91 2169 -91 
Q 1331 -91 842 396 
Q 353 884 353 1716 
Q 353 2575 817 3079 
Q 1281 3584 2069 3584 
Q 2775 3584 3186 3129 
Q 3597 2675 3597 1894 
z
M 3022 2063 
Q 3016 2534 2758 2815 
Q 2500 3097 2075 3097 
Q 1594 3097 1305 2825 
Q 1016 2553 972 2059 
L 3022 2063 
z
" transform="scale(0.015625)"/>
       <path id="DejaVuSans-73" d="M 2834 3397 
L 2834 2853 
Q 2591 2978 2328 3040 
Q 2066 3103 1784 3103 
Q 1356 3103 1142 2972 
Q 928 2841 928 2578 
Q 928 2378 1081 2264 
Q 1234 2150 1697 2047 
L 1894 2003 
Q 2506 1872 2764 1633 
Q 3022 1394 3022 966 
Q 3022 478 2636 193 
Q 2250 -91 1575 -91 
Q 1294 -91 989 -36 
Q 684 19 347 128 
L 347 722 
Q 666 556 975 473 
Q 1284 391 1588 391 
Q 1994 391 2212 530 
Q 2431 669 2431 922 
Q 2431 1156 2273 1281 
Q 2116 1406 1581 1522 
L 1381 1569 
Q 847 1681 609 1914 
Q 372 2147 372 2553 
Q 372 3047 722 3315 
Q 1072 3584 1716 3584 
Q 2034 3584 2315 3537 
Q 2597 3491 2834 3397 
z
" transform="scale(0.015625)"/>
       <path id="DejaVuSans-70" d="M 1159 525 
L 1159 -1331 
L 581 -1331 
L 581 3500 
L 1159 3500 
L 1159 2969 
Q 1341 3281 1617 3432 
Q 1894 3584 2278 3584 
Q 2916 3584 3314 3078 
Q 3713 2572 3713 1747 
Q 3713 922 3314 415 
Q 2916 -91 2278 -91 
Q 1894 -91 1617 61 
Q 1341 213 1159 525 
z
M 3116 1747 
Q 3116 2381 2855 2742 
Q 2594 3103 2138 3103 
Q 1681 3103 1420 2742 
Q 1159 2381 1159 1747 
Q 1159 1113 1420 752 
Q 1681 391 2138 391 
Q 2594 391 2855 752 
Q 3116 1113 3116 1747 
z
" transform="scale(0.015625)"/>
      </defs>
      <use xlink:href="#DejaVuSans-74"/>
      <use xlink:href="#DejaVuSans-69" x="39.208984"/>
      <use xlink:href="#DejaVuSans-6d" x="66.992188"/>
      <use xlink:href="#DejaVuSans-65" x="164.404297"/>
      <use xlink:href="#DejaVuSans-73" x="225.927734"/>
      <use xlink:href="#DejaVuSans-74" x="278.027344"/>
      <use xlink:href="#DejaVuSans-65" x="317.236328"/>
      <use xlink:href="#DejaVuSans-70" x="378.759766"/>
      <use xlink:href="#DejaVuSans-73" x="442.236328"/>
     </g>
    </g>
   </g>
   <g id="matplotlib.axis_2">
    <g id="ytick_1">
     <g id="line2d_10">
      <defs>
       <path id="m42f7198e15" d="M 0 0 
L -3.5 0 
" style="stroke: #000000; stroke-width: 0.8"/>
      </defs>
      <g>
       <use xlink:href="#m42f7198e15" x="50.14375" y="265.284943" style="stroke: #000000; stroke-width: 0.8"/>
      </g>
     </g>
     <g id="text_11">
      <!-- 3.25 -->
      <g transform="translate(20.878125 269.084162)scale(0.1 -0.1)">
       <defs>
        <path id="DejaVuSans-33" d="M 2597 2516 
Q 3050 2419 3304 2112 
Q 3559 1806 3559 1356 
Q 3559 666 3084 287 
Q 2609 -91 1734 -91 
Q 1441 -91 1130 -33 
Q 819 25 488 141 
L 488 750 
Q 750 597 1062 519 
Q 1375 441 1716 441 
Q 2309 441 2620 675 
Q 2931 909 2931 1356 
Q 2931 1769 2642 2001 
Q 2353 2234 1838 2234 
L 1294 2234 
L 1294 2753 
L 1863 2753 
Q 2328 2753 2575 2939 
Q 2822 3125 2822 3475 
Q 2822 3834 2567 4026 
Q 2313 4219 1838 4219 
Q 1578 4219 1281 4162 
Q 984 4106 628 3988 
L 628 4550 
Q 988 4650 1302 4700 
Q 1616 4750 1894 4750 
Q 2613 4750 3031 4423 
Q 3450 4097 3450 3541 
Q 3450 3153 3228 2886 
Q 3006 2619 2597 2516 
z
" transform="scale(0.015625)"/>
        <path id="DejaVuSans-2e" d="M 684 794 
L 1344 794 
L 1344 0 
L 684 0 
L 684 794 
z
" transform="scale(0.015625)"/>
       </defs>
       <use xlink:href="#DejaVuSans-33"/>
       <use xlink:href="#DejaVuSans-2e" x="63.623047"/>
       <use xlink:href="#DejaVuSans-32" x="95.410156"/>
       <use xlink:href="#DejaVuSans-35" x="159.033203"/>
      </g>
     </g>
    </g>
    <g id="ytick_2">
     <g id="line2d_11">
      <g>
       <use xlink:href="#m42f7198e15" x="50.14375" y="235.223638" style="stroke: #000000; stroke-width: 0.8"/>
      </g>
     </g>
     <g id="text_12">
      <!-- 3.50 -->
      <g transform="translate(20.878125 239.022857)scale(0.1 -0.1)">
       <use xlink:href="#DejaVuSans-33"/>
       <use xlink:href="#DejaVuSans-2e" x="63.623047"/>
       <use xlink:href="#DejaVuSans-35" x="95.410156"/>
       <use xlink:href="#DejaVuSans-30" x="159.033203"/>
      </g>
     </g>
    </g>
    <g id="ytick_3">
     <g id="line2d_12">
      <g>
       <use xlink:href="#m42f7198e15" x="50.14375" y="205.162334" style="stroke: #000000; stroke-width: 0.8"/>
      </g>
     </g>
     <g id="text_13">
      <!-- 3.75 -->
      <g transform="translate(20.878125 208.961553)scale(0.1 -0.1)">
       <use xlink:href="#DejaVuSans-33"/>
       <use xlink:href="#DejaVuSans-2e" x="63.623047"/>
       <use xlink:href="#DejaVuSans-37" x="95.410156"/>
       <use xlink:href="#DejaVuSans-35" x="159.033203"/>
      </g>
     </g>
    </g>
    <g id="ytick_4">
     <g id="line2d_13">
      <g>
       <use xlink:href="#m42f7198e15" x="50.14375" y="175.10103" style="stroke: #000000; stroke-width: 0.8"/>
      </g>
     </g>
     <g id="text_14">
      <!-- 4.00 -->
      <g transform="translate(20.878125 178.900248)scale(0.1 -0.1)">
       <use xlink:href="#DejaVuSans-34"/>
       <use xlink:href="#DejaVuSans-2e" x="63.623047"/>
       <use xlink:href="#DejaVuSans-30" x="95.410156"/>
       <use xlink:href="#DejaVuSans-30" x="159.033203"/>
      </g>
     </g>
    </g>
    <g id="ytick_5">
     <g id="line2d_14">
      <g>
       <use xlink:href="#m42f7198e15" x="50.14375" y="145.039725" style="stroke: #000000; stroke-width: 0.8"/>
      </g>
     </g>
     <g id="text_15">
      <!-- 4.25 -->
      <g transform="translate(20.878125 148.838944)scale(0.1 -0.1)">
       <use xlink:href="#DejaVuSans-34"/>
       <use xlink:href="#DejaVuSans-2e" x="63.623047"/>
       <use xlink:href="#DejaVuSans-32" x="95.410156"/>
       <use xlink:href="#DejaVuSans-35" x="159.033203"/>
      </g>
     </g>
    </g>
    <g id="ytick_6">
     <g id="line2d_15">
      <g>
       <use xlink:href="#m42f7198e15" x="50.14375" y="114.978421" style="stroke: #000000; stroke-width: 0.8"/>
      </g>
     </g>
     <g id="text_16">
      <!-- 4.50 -->
      <g transform="translate(20.878125 118.77764)scale(0.1 -0.1)">
       <use xlink:href="#DejaVuSans-34"/>
       <use xlink:href="#DejaVuSans-2e" x="63.623047"/>
       <use xlink:href="#DejaVuSans-35" x="95.410156"/>
       <use xlink:href="#DejaVuSans-30" x="159.033203"/>
      </g>
     </g>
    </g>
    <g id="ytick_7">
     <g id="line2d_16">
      <g>
       <use xlink:href="#m42f7198e15" x="50.14375" y="84.917116" style="stroke: #000000; stroke-width: 0.8"/>
      </g>
     </g>
     <g id="text_17">
      <!-- 4.75 -->
      <g transform="translate(20.878125 88.716335)scale(0.1 -0.1)">
       <use xlink:href="#DejaVuSans-34"/>
       <use xlink:href="#DejaVuSans-2e" x="63.623047"/>
       <use xlink:href="#DejaVuSans-37" x="95.410156"/>
       <use xlink:href="#DejaVuSans-35" x="159.033203"/>
      </g>
     </g>
    </g>
    <g id="ytick_8">
     <g id="line2d_17">
      <g>
       <use xlink:href="#m42f7198e15" x="50.14375" y="54.855812" style="stroke: #000000; stroke-width: 0.8"/>
      </g>
     </g>
     <g id="text_18">
      <!-- 5.00 -->
      <g transform="translate(20.878125 58.655031)scale(0.1 -0.1)">
       <use xlink:href="#DejaVuSans-35"/>
       <use xlink:href="#DejaVuSans-2e" x="63.623047"/>
       <use xlink:href="#DejaVuSans-30" x="95.410156"/>
       <use xlink:href="#DejaVuSans-30" x="159.033203"/>
      </g>
     </g>
    </g>
    <g id="ytick_9">
     <g id="line2d_18">
      <g>
       <use xlink:href="#m42f7198e15" x="50.14375" y="24.794508" style="stroke: #000000; stroke-width: 0.8"/>
      </g>
     </g>
     <g id="text_19">
      <!-- 5.25 -->
      <g transform="translate(20.878125 28.593726)scale(0.1 -0.1)">
       <use xlink:href="#DejaVuSans-35"/>
       <use xlink:href="#DejaVuSans-2e" x="63.623047"/>
       <use xlink:href="#DejaVuSans-32" x="95.410156"/>
       <use xlink:href="#DejaVuSans-35" x="159.033203"/>
      </g>
     </g>
    </g>
    <g id="text_20">
     <!-- storage -->
     <g transform="translate(14.798438 174.368656)rotate(-90)scale(0.1 -0.1)">
      <defs>
       <path id="DejaVuSans-6f" d="M 1959 3097 
Q 1497 3097 1228 2736 
Q 959 2375 959 1747 
Q 959 1119 1226 758 
Q 1494 397 1959 397 
Q 2419 397 2687 759 
Q 2956 1122 2956 1747 
Q 2956 2369 2687 2733 
Q 2419 3097 1959 3097 
z
M 1959 3584 
Q 2709 3584 3137 3096 
Q 3566 2609 3566 1747 
Q 3566 888 3137 398 
Q 2709 -91 1959 -91 
Q 1206 -91 779 398 
Q 353 888 353 1747 
Q 353 2609 779 3096 
Q 1206 3584 1959 3584 
z
" transform="scale(0.015625)"/>
       <path id="DejaVuSans-72" d="M 2631 2963 
Q 2534 3019 2420 3045 
Q 2306 3072 2169 3072 
Q 1681 3072 1420 2755 
Q 1159 2438 1159 1844 
L 1159 0 
L 581 0 
L 581 3500 
L 1159 3500 
L 1159 2956 
Q 1341 3275 1631 3429 
Q 1922 3584 2338 3584 
Q 2397 3584 2469 3576 
Q 2541 3569 2628 3553 
L 2631 2963 
z
" transform="scale(0.015625)"/>
       <path id="DejaVuSans-61" d="M 2194 1759 
Q 1497 1759 1228 1600 
Q 959 1441 959 1056 
Q 959 750 1161 570 
Q 1363 391 1709 391 
Q 2188 391 2477 730 
Q 2766 1069 2766 1631 
L 2766 1759 
L 2194 1759 
z
M 3341 1997 
L 3341 0 
L 2766 0 
L 2766 531 
Q 2569 213 2275 61 
Q 1981 -91 1556 -91 
Q 1019 -91 701 211 
Q 384 513 384 1019 
Q 384 1609 779 1909 
Q 1175 2209 1959 2209 
L 2766 2209 
L 2766 2266 
Q 2766 2663 2505 2880 
Q 2244 3097 1772 3097 
Q 1472 3097 1187 3025 
Q 903 2953 641 2809 
L 641 3341 
Q 956 3463 1253 3523 
Q 1550 3584 1831 3584 
Q 2591 3584 2966 3190 
Q 3341 2797 3341 1997 
z
" transform="scale(0.015625)"/>
       <path id="DejaVuSans-67" d="M 2906 1791 
Q 2906 2416 2648 2759 
Q 2391 3103 1925 3103 
Q 1463 3103 1205 2759 
Q 947 2416 947 1791 
Q 947 1169 1205 825 
Q 1463 481 1925 481 
Q 2391 481 2648 825 
Q 2906 1169 2906 1791 
z
M 3481 434 
Q 3481 -459 3084 -895 
Q 2688 -1331 1869 -1331 
Q 1566 -1331 1297 -1286 
Q 1028 -1241 775 -1147 
L 775 -588 
Q 1028 -725 1275 -790 
Q 1522 -856 1778 -856 
Q 2344 -856 2625 -561 
Q 2906 -266 2906 331 
L 2906 616 
Q 2728 306 2450 153 
Q 2172 0 1784 0 
Q 1141 0 747 490 
Q 353 981 353 1791 
Q 353 2603 747 3093 
Q 1141 3584 1784 3584 
Q 2172 3584 2450 3431 
Q 2728 3278 2906 2969 
L 2906 3500 
L 3481 3500 
L 3481 434 
z
" transform="scale(0.015625)"/>
      </defs>
      <use xlink:href="#DejaVuSans-73"/>
      <use xlink:href="#DejaVuSans-74" x="52.099609"/>
      <use xlink:href="#DejaVuSans-6f" x="91.308594"/>
      <use xlink:href="#DejaVuSans-72" x="152.490234"/>
      <use xlink:href="#DejaVuSans-61" x="193.603516"/>
      <use xlink:href="#DejaVuSans-67" x="254.882812"/>
      <use xlink:href="#DejaVuSans-65" x="318.359375"/>
     </g>
    </g>
    <g id="text_21">
     <!-- 1e10 -->
     <g transform="translate(50.14375 19.318125)scale(0.1 -0.1)">
      <use xlink:href="#DejaVuSans-31"/>
      <use xlink:href="#DejaVuSans-65" x="63.623047"/>
      <use xlink:href="#DejaVuSans-31" x="125.146484"/>
      <use xlink:href="#DejaVuSans-30" x="188.769531"/>
     </g>
    </g>
   </g>
   <g id="line2d_19">
    <path d="M 66.376477 125.193342 
L 66.691514 125.53365 
L 66.821235 125.652149 
L 67.914597 126.650136 
L 68.025787 126.806254 
L 68.044318 126.801539 
L 68.118445 126.812948 
L 68.266697 127.181458 
L 68.285229 127.17133 
L 68.359355 127.26265 
L 68.396418 127.36016 
L 68.452013 127.485398 
L 68.600265 127.732496 
L 68.692923 127.895297 
L 68.841176 128.086735 
L 69.156213 128.434332 
L 69.341528 128.849416 
L 69.452718 128.967288 
L 69.60097 129.167134 
L 69.675096 129.279179 
L 69.897475 129.418022 
L 70.064259 129.740609 
L 70.471954 130.171053 
L 70.601675 130.322126 
L 70.879648 130.652653 
L 71.046432 131.012321 
L 71.60238 131.632313 
L 71.806227 132.155419 
L 72.010074 132.483988 
L 72.232453 133.079176 
L 73.548194 134.647383 
L 73.714978 134.937242 
L 73.992952 135.289147 
L 74.159736 135.577225 
L 74.252394 135.749319 
L 74.419178 136.092195 
L 74.882467 136.850854 
L 75.067783 137.241622 
L 75.290162 137.610144 
L 75.438414 137.824091 
L 75.697856 138.137718 
L 75.883172 138.632615 
L 76.105551 139.278329 
L 76.402056 139.853822 
L 76.605903 140.336833 
L 77.124787 141.378248 
L 77.291571 141.730829 
L 77.551013 142.320332 
L 77.791923 143.00819 
L 78.014302 143.476463 
L 78.366402 144.248301 
L 78.570249 144.746855 
L 78.662907 145.02359 
L 78.848223 145.424939 
L 79.107665 145.9383 
L 79.311512 146.469044 
L 79.737738 147.200911 
L 79.941585 147.711085 
L 80.34928 148.010803 
L 80.404874 147.980318 
L 80.460469 148.069213 
L 80.497532 148.157912 
L 80.534595 148.118383 
L 80.719911 148.502987 
L 80.756974 148.466646 
L 80.775506 148.564478 
L 80.812569 148.540727 
L 80.94229 148.810643 
L 80.960822 148.791405 
L 80.979353 148.771403 
L 80.997885 148.869235 
L 81.146137 149.253755 
L 81.164669 149.247817 
L 81.1832 149.226494 
L 81.201732 149.324326 
L 81.331453 149.795757 
L 81.387048 149.768107 
L 81.424111 149.729157 
L 81.442642 149.826989 
L 81.479705 149.826753 
L 81.64649 150.187932 
L 81.739147 150.136415 
L 81.757679 150.234247 
L 81.905932 150.470465 
L 82.035653 150.549989 
L 82.202437 150.894144 
L 82.369221 150.895655 
L 82.536005 151.262461 
L 82.610131 151.224726 
L 82.647194 151.31662 
L 82.776915 151.653308 
L 82.813978 151.644478 
L 82.999294 151.68462 
L 83.017826 151.782452 
L 83.110483 151.737537 
L 83.258736 151.773667 
L 83.351394 151.961773 
L 83.388457 151.95055 
L 83.42552 152.024802 
L 83.518178 151.964106 
L 83.592304 152.041948 
L 83.759088 152.378592 
L 83.888809 152.415921 
L 83.907341 152.513752 
L 83.999999 152.470279 
L 84.148251 152.508461 
L 84.259441 152.595831 
L 84.407693 152.601184 
L 84.611541 153.127784 
L 84.685667 153.221485 
L 84.704198 153.319316 
L 84.796856 153.24788 
L 85.037767 153.125945 
L 85.148956 153.322001 
L 85.167488 153.316034 
L 85.186019 153.307859 
L 85.204551 153.405691 
L 85.223082 153.503523 
L 85.31574 153.474718 
L 85.445461 153.517726 
L 85.593714 153.7143 
L 85.741966 153.766994 
L 85.90875 154.108376 
L 86.01994 154.211356 
L 86.057003 154.40702 
L 86.149661 154.348324 
L 86.223787 154.330672 
L 86.390571 154.700811 
L 86.50176 154.80029 
L 86.520292 154.898122 
L 86.61295 154.849426 
L 86.85386 154.889383 
L 86.927987 154.989739 
L 86.96505 154.967267 
L 87.002113 155.05304 
L 87.039176 155.034872 
L 87.187428 155.312292 
L 87.261555 155.29798 
L 87.428339 155.869301 
L 87.465402 155.852214 
L 87.502465 155.940899 
L 87.539528 155.93468 
L 87.576591 156.030052 
L 87.650718 155.981306 
L 87.706312 156.078486 
L 87.817502 156.375381 
L 87.854565 156.353489 
L 87.928691 156.315943 
L 87.965754 156.410171 
L 88.132538 156.45246 
L 88.262259 156.646737 
L 88.280791 156.639873 
L 88.373449 156.606653 
L 88.410512 156.698244 
L 88.595828 157.144962 
L 88.632891 157.242281 
L 88.707017 157.337753 
L 88.74408 157.322022 
L 88.873801 157.386893 
L 89.114712 157.426995 
L 89.244433 157.6759 
L 89.262964 157.665283 
L 89.300027 157.650317 
L 89.33709 157.7465 
L 89.429748 157.795368 
L 89.615064 158.190258 
L 89.707722 158.126781 
L 89.726253 158.224613 
L 90.004227 158.257618 
L 90.133948 158.507881 
L 90.152479 158.497588 
L 90.226606 158.479029 
L 90.2822 158.667513 
L 90.356327 158.629445 
L 90.411921 158.728687 
L 90.504579 158.925576 
L 90.541642 158.89268 
L 90.597237 158.86343 
L 90.615769 158.961262 
L 90.726958 159.143204 
L 90.74549 159.124808 
L 90.782553 159.103042 
L 90.801084 159.200873 
L 90.819616 159.2021 
L 90.930805 159.306912 
L 90.9864 159.48286 
L 91.060526 159.443956 
L 91.357031 159.496247 
L 91.672068 159.51718 
L 91.857384 159.917768 
L 92.005636 159.99569 
L 92.209484 160.079999 
L 92.28361 160.181019 
L 92.320673 160.15532 
L 92.357736 160.142692 
L 92.376268 160.240524 
L 92.468925 160.337085 
L 92.487457 160.333211 
L 92.654241 160.298111 
L 92.728367 160.483976 
L 92.783962 160.42944 
L 93.006341 160.392183 
L 93.599351 160.333264 
L 93.710541 160.461572 
L 93.729072 160.447451 
L 93.877325 160.463357 
L 93.988514 160.547903 
L 94.266488 160.599912 
L 94.396209 160.844059 
L 94.41474 160.838564 
L 94.581524 160.744546 
L 94.600056 160.842378 
L 94.729777 160.98429 
L 94.933624 160.860678 
L 95.026282 160.795546 
L 95.044813 160.893378 
L 95.063345 160.991209 
L 95.156003 160.938258 
L 95.304255 160.937418 
L 95.693418 160.872969 
L 95.71195 160.9708 
L 95.804608 160.944661 
L 96.379086 160.764652 
L 96.397618 160.862483 
L 96.490276 160.813606 
L 96.545871 160.743294 
L 96.619997 160.828285 
L 97.138881 160.740845 
L 97.175944 160.936509 
L 97.268602 160.841759 
L 97.546575 160.676357 
L 97.565107 160.774189 
L 97.657765 160.719672 
L 97.880143 160.659601 
L 97.898675 160.757433 
L 97.991333 160.728307 
L 98.139585 160.649871 
L 98.158117 160.747702 
L 98.287838 160.895611 
L 98.473154 160.795889 
L 98.565811 160.936081 
L 98.602875 160.903964 
L 98.825253 160.75891 
L 98.843785 160.856742 
L 98.936443 160.83267 
L 99.158822 160.784178 
L 99.288543 161.020488 
L 99.307074 161.015339 
L 99.659174 160.992471 
L 99.7333 161.080607 
L 99.770363 161.072916 
L 99.992742 161.039543 
L 100.066868 161.215527 
L 100.122463 161.159235 
L 100.215121 161.243057 
L 100.289247 161.42837 
L 100.344842 161.369547 
L 100.511626 161.36793 
L 100.530158 161.465762 
L 100.622816 161.423672 
L 101.086105 161.403878 
L 101.141699 161.49507 
L 101.197294 161.466294 
L 101.345547 161.501644 
L 101.679115 161.423222 
L 101.697646 161.521053 
L 101.790304 161.473633 
L 102.420378 161.35589 
L 102.475972 161.448439 
L 102.531567 161.413296 
L 102.587162 161.48165 
L 102.661288 161.440642 
L 103.180172 161.403438 
L 103.198704 161.501269 
L 103.291361 161.46951 
L 103.384019 161.556161 
L 103.402551 161.653993 
L 103.495209 161.575665 
L 103.532272 161.555152 
L 103.550803 161.652984 
L 103.587866 161.642819 
L 103.62493 161.7304 
L 103.939966 161.549873 
L 103.977029 161.745536 
L 104.069687 161.705305 
L 104.10675 161.660274 
L 104.125282 161.758106 
L 104.162345 161.749411 
L 104.329129 161.805451 
L 104.347661 161.903283 
L 104.440319 161.861208 
L 104.922139 161.746614 
L 105.05186 161.879658 
L 105.311302 161.769082 
L 105.496618 161.678405 
L 105.51515 161.776237 
L 105.607807 161.968782 
L 105.644871 161.939642 
L 105.885781 161.785682 
L 106.034033 161.977984 
L 106.645575 161.985256 
L 106.979143 162.199541 
L 107.145928 162.542954 
L 107.312712 162.683524 
L 107.460964 162.932138 
L 110.500141 164.616786 
L 110.648394 164.867589 
L 110.778115 164.995394 
L 110.926368 165.256465 
L 111.556441 165.69001 
L 111.704693 165.914057 
L 111.964135 166.118016 
L 112.075325 166.263644 
L 112.093856 166.259846 
L 112.242109 166.336537 
L 112.37183 166.472063 
L 112.501551 166.632414 
L 112.760993 166.743152 
L 112.909245 166.938422 
L 113.391066 167.046567 
L 113.446661 166.999161 
L 113.483724 167.107319 
L 113.854355 167.228087 
L 113.984076 167.236392 
L 114.26205 167.286244 
L 114.892123 167.398161 
L 115.151565 167.441088 
L 115.781638 167.56562 
L 116.04108 167.613766 
L 116.912064 167.765148 
L 117.264164 167.779276 
L 117.505074 167.78865 
L 117.727453 167.823446 
L 117.949832 167.842537 
L 118.172211 167.879578 
L 118.39459 167.900965 
L 118.616968 167.940247 
L 118.839347 167.963917 
L 119.061726 168.005445 
L 119.284105 168.031409 
L 119.636205 168.180549 
L 119.728862 168.174918 
L 119.747394 168.208205 
L 120.099494 168.653719 
L 120.192152 168.773472 
L 120.52572 169.180606 
L 120.618378 169.288837 
L 120.970478 169.733159 
L 121.063135 169.842127 
L 121.415235 170.289165 
L 121.507893 170.398869 
L 121.859993 170.848099 
L 121.952651 170.958212 
L 122.30475 171.409085 
L 122.397408 171.51962 
L 122.749508 171.934609 
L 122.842166 171.99402 
L 123.194266 172.409907 
L 123.286924 172.469348 
L 123.60196 172.826396 
L 124.176439 173.403656 
L 124.491476 173.760694 
L 125.065954 174.338186 
L 125.380991 174.695353 
L 128.549889 177.014407 
L 128.624015 177.088641 
L 128.957584 177.330755 
L 129.105836 177.390425 
L 129.346746 177.543043 
L 129.717378 177.731994 
L 129.939757 177.807802 
L 130.180667 177.972765 
L 130.384514 178.050479 
L 130.625425 178.215094 
L 130.829272 178.292755 
L 131.070182 178.457219 
L 131.27403 178.534811 
L 131.51494 178.699032 
L 131.718787 178.776302 
L 132.089419 179.102853 
L 132.163545 179.105188 
L 132.182076 179.131262 
L 132.515645 179.433665 
L 132.663897 179.519203 
L 132.849213 179.639558 
L 133.05306 179.755767 
L 133.312502 179.965122 
L 134.053765 180.667194 
L 134.276144 180.813207 
L 134.498522 181.06386 
L 134.720901 181.209749 
L 135.035938 181.512896 
L 135.981048 182.237582 
L 138.204836 183.991136 
L 138.705188 184.213412 
L 139.205541 184.376737 
L 139.298199 184.415114 
L 139.502046 184.529095 
L 139.724425 184.573395 
L 139.965335 184.704693 
L 140.169182 184.754357 
L 140.410093 184.885223 
L 140.61394 184.934513 
L 140.85485 185.065058 
L 141.058698 185.114072 
L 141.336671 185.288924 
L 141.892618 185.510249 
L 141.985276 185.559059 
L 142.189123 185.642553 
L 142.392971 185.694608 
L 142.633881 185.828315 
L 142.837728 185.879942 
L 143.078639 186.013156 
L 143.282486 186.064491 
L 143.523396 186.197373 
L 143.727243 186.248355 
L 143.968154 186.380825 
L 144.172001 186.431595 
L 144.412911 186.578886 
L 144.63529 186.605096 
L 144.913264 186.734001 
L 145.283895 186.850249 
L 145.506274 186.873737 
L 145.747184 186.982624 
L 145.951032 187.013505 
L 146.191942 187.121933 
L 146.395789 187.152531 
L 146.6367 187.260558 
L 146.840547 187.290724 
L 147.081457 187.421418 
L 147.266773 187.445591 
L 147.526215 187.62969 
L 147.748594 187.670681 
L 148.026567 187.812167 
L 148.397199 187.951977 
L 148.601046 187.962005 
L 148.841956 188.116813 
L 149.045804 188.126487 
L 149.286714 188.280881 
L 149.490561 188.290175 
L 149.731472 188.444131 
L 149.935319 188.453029 
L 150.176229 188.606534 
L 150.380076 188.615032 
L 150.639518 188.787995 
L 150.861897 188.822611 
L 151.139871 188.952437 
L 151.529034 189.072984 
L 151.714349 189.083716 
L 151.95526 189.229647 
L 152.159107 189.232031 
L 152.400017 189.377464 
L 152.603865 189.379408 
L 152.844775 189.52434 
L 153.048622 189.525841 
L 153.289533 189.670269 
L 153.49338 189.671326 
L 153.789885 189.895521 
L 154.345832 190.168005 
L 154.43849 190.225153 
L 154.642337 190.328163 
L 154.846184 190.399758 
L 155.087095 190.556514 
L 155.290942 190.627749 
L 155.531852 190.784089 
L 155.7357 190.854964 
L 155.97661 191.010887 
L 156.180457 191.081403 
L 156.421368 191.23691 
L 156.625215 191.307065 
L 156.958783 191.575774 
L 157.644451 192.027488 
L 157.903893 192.063344 
L 157.978019 192.127223 
L 158.181867 192.275779 
L 158.404246 192.359462 
L 158.645156 192.532316 
L 158.849003 192.617516 
L 159.089914 192.789989 
L 159.293761 192.874866 
L 159.534671 193.046951 
L 159.738518 193.131472 
L 160.090618 193.445667 
L 160.238871 193.52607 
L 160.498313 193.730892 
L 161.017197 194.043841 
L 161.091323 194.121374 
L 161.313702 194.308228 
L 161.517549 194.430071 
L 161.776991 194.64818 
L 163.352174 196.030137 
L 163.648679 196.384282 
L 163.796932 196.520853 
L 164.056374 196.79374 
L 164.556726 197.321481 
L 164.630853 197.382341 
L 164.964421 197.786793 
L 165.205331 198.110365 
L 166.799046 199.726081 
L 166.873172 199.792031 
L 167.132614 200.064355 
L 167.67003 200.614623 
L 167.744156 200.670986 
L 168.077724 201.055259 
L 168.300103 201.334748 
L 168.541013 201.524186 
L 168.670734 201.653765 
L 168.96724 201.966735 
L 169.189618 202.247735 
L 169.467592 202.497891 
L 169.541718 202.570292 
L 169.893818 203.005689 
L 169.967944 203.034524 
L 169.986476 203.067588 
L 170.282981 203.416556 
L 170.783333 203.953276 
L 170.857459 204.015446 
L 171.191028 204.425642 
L 171.431938 204.75279 
L 174.804684 208.418185 
L 174.87881 208.516198 
L 175.175315 208.855419 
L 176.120425 209.976179 
L 176.213083 210.045814 
L 176.583714 210.546915 
L 176.65784 210.650576 
L 176.972877 211.043285 
L 177.547356 211.684393 
L 177.862392 212.07639 
L 178.436871 212.716122 
L 178.807502 213.203034 
L 178.90016 213.324134 
L 179.233728 213.781347 
L 179.326386 213.861608 
L 179.659954 214.304126 
L 179.789675 214.461785 
L 180.123244 214.874736 
L 180.215901 214.985933 
L 180.54947 215.427851 
L 180.679191 215.585271 
L 181.012759 215.997621 
L 181.105417 216.108645 
L 181.438985 216.549952 
L 181.568706 216.704127 
L 181.902274 217.150632 
L 181.994932 217.227648 
L 182.365563 217.702044 
L 182.458221 217.822948 
L 182.791789 218.225261 
L 182.884447 218.333608 
L 183.218016 218.765236 
L 183.347737 218.918714 
L 183.681305 219.320341 
L 183.773963 219.428497 
L 184.107531 219.859457 
L 184.237252 220.012666 
L 184.57082 220.413616 
L 184.663478 220.521578 
L 185.015578 220.944697 
L 185.108236 221.004669 
L 185.460335 221.427599 
L 185.552993 221.487457 
L 185.849498 221.825331 
L 186.349851 222.343615 
L 186.442508 222.437158 
L 187.091113 223.450966 
L 187.75825 224.564852 
L 188.462449 225.849299 
L 191.798132 231.730629 
L 192.428205 232.869231 
L 193.095341 234.035484 
L 193.725415 235.204411 
L 194.318425 236.208033 
L 195.708293 238.353488 
L 195.819482 238.551365 
L 196.301303 239.321085 
L 196.838718 240.14643 
L 197.394665 241.03979 
L 198.265649 242.415367 
L 199.544327 244.364797 
L 200.081743 245.176242 
L 201.286295 246.997757 
L 202.027557 248.072762 
L 202.620568 248.958168 
L 203.343299 249.988186 
L 204.084561 251.155265 
L 205.492961 253.249848 
L 205.60415 253.44474 
L 205.937718 253.922798 
L 206.048908 254.117616 
L 206.382476 254.595435 
L 206.493665 254.787835 
L 207.068144 255.681993 
L 212.275515 263.936888 
L 212.609083 264.459504 
L 212.738804 264.70591 
L 213.313283 265.633548 
L 215.018187 268.242828 
L 220.02171 270.950911 
L 220.281152 271.065427 
L 220.503531 271.144953 
L 221.059478 271.360292 
L 221.152136 271.417327 
L 221.485704 271.557672 
L 221.615425 271.621564 
L 221.856336 271.714281 
L 223.264735 272.582745 
L 223.375924 272.662227 
L 223.709492 272.874337 
L 223.820682 272.953729 
L 224.15425 273.165559 
L 224.265439 273.24486 
L 224.599008 273.456319 
L 224.710197 273.535526 
L 225.043765 273.748286 
L 225.154955 273.816172 
L 225.488523 274.073058 
L 225.599712 274.137584 
L 225.933281 274.394152 
L 226.04447 274.463457 
L 226.378038 274.700168 
L 226.507759 274.80891 
L 226.822796 275.04054 
L 226.952517 275.149089 
L 227.267553 275.38024 
L 227.397274 275.488494 
L 227.675248 275.679134 
L 228.305321 276.104897 
L 228.601826 276.29848 
L 229.065116 276.037427 
L 229.306026 275.863642 
L 231.288904 274.197521 
L 231.585409 273.962901 
L 232.289608 273.364648 
L 232.623177 273.069259 
L 232.956745 272.771536 
L 233.938918 271.886583 
L 234.253955 271.601833 
L 234.939623 270.974606 
L 235.273191 270.707115 
L 235.514101 270.508888 
L 237.6267 268.632827 
L 237.904674 268.383686 
L 238.293837 268.156195 
L 240.184057 267.403149 
L 240.517625 267.262412 
L 241.295951 266.87065 
L 241.851898 266.451853 
L 242.537566 265.718231 
L 243.149108 264.259875 
L 244.520444 260.994742 
L 245.965906 257.358801 
L 246.466258 256.093846 
L 247.726405 253.128193 
L 248.152631 252.123136 
L 249.20893 249.579674 
L 250.654393 246.366113 
L 251.655097 244.11055 
L 251.673629 244.208382 
L 251.729224 244.061818 
L 252.025729 243.310864 
L 252.04426 243.408696 
L 252.74846 241.765733 
L 252.785523 241.824478 
L 253.304407 240.76743 
L 253.322939 240.865262 
L 253.378533 240.709927 
L 253.415596 240.755484 
L 253.749165 239.942358 
L 253.767696 240.04019 
L 253.841822 239.856181 
L 254.101264 239.511896 
L 255.157564 237.430697 
L 255.176095 237.528529 
L 255.23169 237.373729 
L 255.250222 237.471561 
L 260.66144 220.998041 
L 264.756916 208.018725 
L 265.461116 205.770838 
L 267.258678 199.972295 
L 268.963582 194.711215 
L 275.468163 181.213096 
L 276.932157 178.123202 
L 282.306311 166.579832 
L 285.975562 163.255085 
L 286.401788 162.857153 
L 287.36543 161.945594 
L 287.95844 161.409656 
L 296.316177 152.144721 
L 296.482961 152.064115 
L 296.779466 151.873695 
L 296.909187 151.812247 
L 297.224224 151.59559 
L 297.391008 151.515772 
L 297.928423 151.142484 
L 298.410244 150.77908 
L 298.577028 150.694127 
L 298.688218 150.617204 
L 299.003254 150.380925 
L 299.132975 150.30978 
L 299.448012 150.073279 
L 299.577733 150.002022 
L 299.89277 149.765276 
L 300.022491 149.693929 
L 300.37459 149.430259 
L 300.504311 149.289954 
L 301.189979 148.49784 
L 301.338232 148.409834 
L 301.634737 148.011076 
L 301.78299 147.922893 
L 302.079495 147.523823 
L 302.227747 147.435461 
L 302.524252 147.036058 
L 302.672505 146.947516 
L 302.96901 146.547792 
L 303.117263 146.45907 
L 303.413768 146.059027 
L 303.636147 145.875501 
L 303.932652 145.569267 
L 304.062373 145.4309 
L 304.748041 144.635979 
L 304.896293 144.54936 
L 305.192798 144.153845 
L 305.341051 144.067047 
L 305.637556 143.671165 
L 305.785808 143.584187 
L 306.082314 143.188007 
L 306.230566 143.100849 
L 306.527071 142.70436 
L 306.74945 142.494862 
L 307.064487 142.153105 
L 307.305397 141.84087 
L 307.69456 141.351733 
L 308.028128 141.004478 
L 308.361696 140.605975 
L 308.472886 140.478279 
L 308.806454 140.079362 
L 308.917643 139.951525 
L 309.251212 139.564375 
L 309.362401 139.460761 
L 309.695969 139.125258 
L 309.844222 138.988561 
L 310.363106 138.455303 
L 310.733737 138.083817 
L 311.011711 137.805002 
L 311.141432 137.697708 
L 311.475 137.356087 
L 311.586189 137.248333 
L 311.919758 136.906161 
L 312.030947 136.798224 
L 312.364515 136.4555 
L 312.475705 136.347381 
L 312.809273 135.996157 
L 312.957525 135.853467 
L 313.476409 135.302221 
L 313.865572 134.886694 
L 314.125014 134.63172 
L 314.254735 134.520433 
L 314.588303 134.167 
L 314.699493 134.055936 
L 315.033061 133.701938 
L 315.14425 133.590686 
L 315.477819 133.236123 
L 315.589008 133.124684 
L 315.922576 132.774838 
L 316.070829 132.664959 
L 316.608244 132.202055 
L 317.108597 131.7277 
L 317.256849 131.651263 
L 317.368039 131.556308 
L 317.683075 131.263808 
L 317.794265 131.207829 
L 318.072238 130.878294 
L 318.257554 130.786598 
L 318.572591 130.49303 
L 318.68378 130.436674 
L 318.961754 130.106196 
L 319.202664 129.988712 
L 319.499169 129.763511 
L 319.62889 129.664467 
L 320.314558 129.063553 
L 320.462811 129.017577 
L 320.740784 128.709078 
L 320.9261 128.629379 
L 321.241136 128.359034 
L 321.352326 128.309148 
L 321.630299 127.999749 
L 321.815615 127.919447 
L 322.130652 127.649169 
L 322.297436 127.568995 
L 322.81632 127.202078 
L 323.76143 126.768105 
L 323.928214 126.710201 
L 324.039403 126.650326 
L 324.35444 126.462815 
L 324.484161 126.411853 
L 324.799198 126.223864 
L 324.928919 126.172702 
L 325.225424 125.980329 
L 325.429271 125.984278 
L 325.707244 125.915075 
L 325.874029 125.895662 
L 326.13347 125.816547 
L 326.281723 125.793179 
L 326.559697 125.70005 
L 326.726481 125.669895 
L 327.004454 125.564492 
L 327.171238 125.534918 
L 327.449212 125.428345 
L 327.653059 125.365003 
L 327.893969 125.291614 
L 328.060754 125.259513 
L 328.301664 125.133851 
L 328.524043 125.130008 
L 329.246774 124.844469 
L 329.376495 124.814749 
L 329.654468 124.661263 
L 329.839784 124.633829 
L 330.117758 124.509227 
L 330.303073 124.451204 
L 330.543984 124.333569 
L 330.729299 124.303552 
L 331.007273 124.176145 
L 331.174057 124.137182 
L 331.452031 124.00672 
L 331.692941 123.972572 
L 332.211825 123.838033 
L 332.397141 123.790371 
L 332.50833 123.726268 
L 332.786303 123.630297 
L 332.953088 123.598693 
L 333.249593 123.504502 
L 333.379314 123.482865 
L 333.69435 123.369607 
L 333.842603 123.337163 
L 334.102045 123.219796 
L 334.268829 123.219011 
L 334.583866 123.100699 
L 334.769181 123.089478 
L 335.065686 123.015569 
L 335.213939 122.98288 
L 335.491912 122.910201 
L 335.621633 122.867472 
L 335.918139 122.787205 
L 336.066391 122.753703 
L 336.362896 122.675049 
L 336.511149 122.644897 
L 336.789122 122.555629 
L 336.974438 122.539816 
L 337.215348 122.476496 
L 337.400664 122.487666 
L 337.678638 122.423966 
L 337.882485 122.456255 
L 338.160458 122.436829 
L 338.345774 122.432972 
L 339.105568 122.43502 
L 339.1241 122.532851 
L 339.216758 122.459484 
L 339.420605 122.418426 
L 339.680047 122.420656 
L 340.254526 122.369519 
L 340.365715 122.406598 
L 340.513967 122.406402 
L 340.773409 122.356243 
L 341.069915 122.425689 
L 341.551735 122.461402 
L 341.737051 122.469799 
L 341.866772 122.447797 
L 342.107682 122.43654 
L 342.330061 122.458049 
L 342.55244 122.446572 
L 342.756287 122.484449 
L 343.015729 122.489076 
L 343.201045 122.505339 
L 343.441955 122.49077 
L 343.664334 122.510316 
L 343.905244 122.509724 
L 344.127623 122.556332 
L 347.815405 122.463152 
L 347.926595 122.468676 
L 348.074847 122.45006 
L 348.352821 122.387683 
L 348.519605 122.386676 
L 348.797579 122.320146 
L 348.964363 122.318936 
L 349.242336 122.255486 
L 349.427652 122.235295 
L 349.687094 122.185047 
L 349.853878 122.177928 
L 350.131851 122.120722 
L 350.35423 122.196872 
L 351.05843 122.33407 
L 351.206682 122.341894 
L 351.447593 122.357617 
L 351.65144 122.421315 
L 351.89235 122.438405 
L 352.096198 122.500296 
L 352.337108 122.517137 
L 352.540955 122.578831 
L 352.781866 122.59497 
L 352.985713 122.65529 
L 353.245155 122.686339 
L 353.467534 122.777356 
L 356.747621 123.378248 
L 357.173847 123.345591 
L 357.303568 123.409812 
L 357.414758 123.37249 
L 357.6742 123.304969 
L 357.859515 123.325645 
L 358.118957 123.257804 
L 358.304273 123.278237 
L 358.563715 123.208371 
L 358.693436 123.288011 
L 358.730499 123.24247 
L 359.027004 123.17804 
L 359.21232 123.168452 
L 359.45323 123.112808 
L 359.712672 123.166161 
L 360.120367 123.196869 
L 360.342746 123.146257 
L 360.528061 123.191568 
L 360.787503 123.160024 
L 360.99135 123.189402 
L 361.232261 123.169593 
L 361.417577 123.214569 
L 361.677019 123.180568 
L 361.862334 123.225218 
L 362.121776 123.192669 
L 362.307092 123.233531 
L 362.585065 123.214966 
L 362.788913 123.251769 
L 363.066886 123.239941 
L 363.23367 123.245691 
L 363.511644 123.2372 
L 363.641365 123.224581 
L 363.882275 123.160147 
L 364.104654 123.216034 
L 364.327033 123.175856 
L 364.53088 123.246411 
L 364.790322 123.218792 
L 364.975638 123.266111 
L 365.216548 123.222101 
L 365.438927 123.273479 
L 365.679837 123.257077 
L 366.013405 123.358955 
L 366.18019 123.368181 
L 366.365505 123.395783 
L 368.700483 123.509966 
L 368.811672 123.510329 
L 369.01552 123.542822 
L 369.274962 123.50337 
L 369.460277 123.521488 
L 369.719719 123.483504 
L 369.867972 123.480724 
L 370.127414 123.423904 
L 370.312729 123.448512 
L 370.572171 123.391517 
L 370.757487 123.415993 
L 371.016929 123.358795 
L 371.202245 123.383138 
L 371.461687 123.325747 
L 371.647002 123.349944 
L 371.906444 123.292309 
L 372.202949 123.388738 
L 372.703302 123.454107 
L 372.777428 123.414959 
L 372.833023 123.460971 
L 372.999807 123.479349 
L 373.240717 123.488314 
L 373.444564 123.538415 
L 373.685475 123.547226 
L 373.889322 123.597244 
L 374.130232 123.605994 
L 374.33408 123.655929 
L 374.57499 123.664575 
L 374.778837 123.714419 
L 375.019748 123.722943 
L 375.27919 123.780354 
L 375.798074 123.825561 
L 375.964858 123.825754 
L 376.11311 123.813232 
L 376.354021 123.797909 
L 376.557868 123.831496 
L 376.798778 123.815977 
L 377.002626 123.849423 
L 377.243536 123.833729 
L 377.428852 123.861575 
L 377.688294 123.8152 
L 377.873609 123.842897 
L 378.133051 123.796293 
L 378.411025 123.854377 
L 378.781656 123.884356 
L 379.133756 123.921811 
L 379.374666 123.854831 
L 379.485856 123.867002 
L 379.671171 123.880737 
L 379.912082 123.863727 
L 380.115929 123.892672 
L 380.356839 123.875505 
L 380.560687 123.90431 
L 380.801597 123.886972 
L 381.005444 123.915633 
L 381.246355 123.898105 
L 381.487265 123.898149 
L 382.172933 123.755482 
L 382.321186 123.732334 
L 382.599159 123.65193 
L 382.765943 123.638364 
L 383.043917 123.557683 
L 383.210701 123.543956 
L 383.488674 123.463024 
L 383.655459 123.449129 
L 383.933432 123.367907 
L 384.100216 123.353816 
L 384.37819 123.271539 
L 384.600569 123.308482 
L 385.3233 123.338889 
L 385.453021 123.307626 
L 385.693931 123.28512 
L 385.897778 123.309979 
L 386.138689 123.287299 
L 386.342536 123.312037 
L 386.583446 123.289216 
L 386.787294 123.324945 
L 387.028204 123.374603 
L 387.232051 123.460524 
L 387.472962 123.509637 
L 387.732404 123.659683 
L 388.269819 123.882075 
L 388.343945 123.863105 
L 388.381008 123.902436 
L 388.603387 123.975478 
L 389.622624 124.350489 
L 389.715281 124.415787 
L 389.93766 124.488453 
L 391.012491 125.079788 
L 391.031023 125.17762 
L 391.031023 125.17762 
" clip-path="url(#pd9005acf1b)" style="fill: none; stroke: #1f77b4; stroke-width: 1.5; stroke-linecap: square"/>
   </g>
   <g id="line2d_20">
    <path clip-path="url(#pd9005acf1b)" style="fill: none; stroke: #000000; stroke-width: 1.5; stroke-linecap: square"/>
   </g>
   <g id="line2d_21">
    <path d="M 50.14375 34.414125 
L 407.26375 34.414125 
" clip-path="url(#pd9005acf1b)" style="fill: none; stroke: #ff0000; stroke-width: 1.5; stroke-linecap: square"/>
   </g>
   <g id="line2d_22">
    <path d="M 50.14375 65.497514 
L 407.26375 65.497514 
" clip-path="url(#pd9005acf1b)" style="fill: none; stroke-dasharray: 5.55,2.4; stroke-dashoffset: 0; stroke: #ff00ff; stroke-width: 1.5"/>
   </g>
   <g id="patch_3">
    <path d="M 50.14375 288.430125 
L 50.14375 22.318125 
" style="fill: none; stroke: #000000; stroke-width: 0.8; stroke-linejoin: miter; stroke-linecap: square"/>
   </g>
   <g id="patch_4">
    <path d="M 407.26375 288.430125 
L 407.26375 22.318125 
" style="fill: none; stroke: #000000; stroke-width: 0.8; stroke-linejoin: miter; stroke-linecap: square"/>
   </g>
   <g id="patch_5">
    <path d="M 50.14375 288.430125 
L 407.26375 288.430125 
" style="fill: none; stroke: #000000; stroke-width: 0.8; stroke-linejoin: miter; stroke-linecap: square"/>
   </g>
   <g id="patch_6">
    <path d="M 50.14375 22.318125 
L 407.26375 22.318125 
" style="fill: none; stroke: #000000; stroke-width: 0.8; stroke-linejoin: miter; stroke-linecap: square"/>
   </g>
   <g id="text_22">
    <!-- loc_techs_store = Moz-North-Center::storageD -->
    <g transform="translate(89.127813 16.318125)scale(0.12 -0.12)">
     <defs>
      <path id="DejaVuSans-6c" d="M 603 4863 
L 1178 4863 
L 1178 0 
L 603 0 
L 603 4863 
z
" transform="scale(0.015625)"/>
      <path id="DejaVuSans-63" d="M 3122 3366 
L 3122 2828 
Q 2878 2963 2633 3030 
Q 2388 3097 2138 3097 
Q 1578 3097 1268 2742 
Q 959 2388 959 1747 
Q 959 1106 1268 751 
Q 1578 397 2138 397 
Q 2388 397 2633 464 
Q 2878 531 3122 666 
L 3122 134 
Q 2881 22 2623 -34 
Q 2366 -91 2075 -91 
Q 1284 -91 818 406 
Q 353 903 353 1747 
Q 353 2603 823 3093 
Q 1294 3584 2113 3584 
Q 2378 3584 2631 3529 
Q 2884 3475 3122 3366 
z
" transform="scale(0.015625)"/>
      <path id="DejaVuSans-5f" d="M 3263 -1063 
L 3263 -1509 
L -63 -1509 
L -63 -1063 
L 3263 -1063 
z
" transform="scale(0.015625)"/>
      <path id="DejaVuSans-68" d="M 3513 2113 
L 3513 0 
L 2938 0 
L 2938 2094 
Q 2938 2591 2744 2837 
Q 2550 3084 2163 3084 
Q 1697 3084 1428 2787 
Q 1159 2491 1159 1978 
L 1159 0 
L 581 0 
L 581 4863 
L 1159 4863 
L 1159 2956 
Q 1366 3272 1645 3428 
Q 1925 3584 2291 3584 
Q 2894 3584 3203 3211 
Q 3513 2838 3513 2113 
z
" transform="scale(0.015625)"/>
      <path id="DejaVuSans-20" transform="scale(0.015625)"/>
      <path id="DejaVuSans-3d" d="M 678 2906 
L 4684 2906 
L 4684 2381 
L 678 2381 
L 678 2906 
z
M 678 1631 
L 4684 1631 
L 4684 1100 
L 678 1100 
L 678 1631 
z
" transform="scale(0.015625)"/>
      <path id="DejaVuSans-4d" d="M 628 4666 
L 1569 4666 
L 2759 1491 
L 3956 4666 
L 4897 4666 
L 4897 0 
L 4281 0 
L 4281 4097 
L 3078 897 
L 2444 897 
L 1241 4097 
L 1241 0 
L 628 0 
L 628 4666 
z
" transform="scale(0.015625)"/>
      <path id="DejaVuSans-7a" d="M 353 3500 
L 3084 3500 
L 3084 2975 
L 922 459 
L 3084 459 
L 3084 0 
L 275 0 
L 275 525 
L 2438 3041 
L 353 3041 
L 353 3500 
z
" transform="scale(0.015625)"/>
      <path id="DejaVuSans-4e" d="M 628 4666 
L 1478 4666 
L 3547 763 
L 3547 4666 
L 4159 4666 
L 4159 0 
L 3309 0 
L 1241 3903 
L 1241 0 
L 628 0 
L 628 4666 
z
" transform="scale(0.015625)"/>
      <path id="DejaVuSans-43" d="M 4122 4306 
L 4122 3641 
Q 3803 3938 3442 4084 
Q 3081 4231 2675 4231 
Q 1875 4231 1450 3742 
Q 1025 3253 1025 2328 
Q 1025 1406 1450 917 
Q 1875 428 2675 428 
Q 3081 428 3442 575 
Q 3803 722 4122 1019 
L 4122 359 
Q 3791 134 3420 21 
Q 3050 -91 2638 -91 
Q 1578 -91 968 557 
Q 359 1206 359 2328 
Q 359 3453 968 4101 
Q 1578 4750 2638 4750 
Q 3056 4750 3426 4639 
Q 3797 4528 4122 4306 
z
" transform="scale(0.015625)"/>
      <path id="DejaVuSans-6e" d="M 3513 2113 
L 3513 0 
L 2938 0 
L 2938 2094 
Q 2938 2591 2744 2837 
Q 2550 3084 2163 3084 
Q 1697 3084 1428 2787 
Q 1159 2491 1159 1978 
L 1159 0 
L 581 0 
L 581 3500 
L 1159 3500 
L 1159 2956 
Q 1366 3272 1645 3428 
Q 1925 3584 2291 3584 
Q 2894 3584 3203 3211 
Q 3513 2838 3513 2113 
z
" transform="scale(0.015625)"/>
      <path id="DejaVuSans-3a" d="M 750 794 
L 1409 794 
L 1409 0 
L 750 0 
L 750 794 
z
M 750 3309 
L 1409 3309 
L 1409 2516 
L 750 2516 
L 750 3309 
z
" transform="scale(0.015625)"/>
      <path id="DejaVuSans-44" d="M 1259 4147 
L 1259 519 
L 2022 519 
Q 2988 519 3436 956 
Q 3884 1394 3884 2338 
Q 3884 3275 3436 3711 
Q 2988 4147 2022 4147 
L 1259 4147 
z
M 628 4666 
L 1925 4666 
Q 3281 4666 3915 4102 
Q 4550 3538 4550 2338 
Q 4550 1131 3912 565 
Q 3275 0 1925 0 
L 628 0 
L 628 4666 
z
" transform="scale(0.015625)"/>
     </defs>
     <use xlink:href="#DejaVuSans-6c"/>
     <use xlink:href="#DejaVuSans-6f" x="27.783203"/>
     <use xlink:href="#DejaVuSans-63" x="88.964844"/>
     <use xlink:href="#DejaVuSans-5f" x="143.945312"/>
     <use xlink:href="#DejaVuSans-74" x="193.945312"/>
     <use xlink:href="#DejaVuSans-65" x="233.154297"/>
     <use xlink:href="#DejaVuSans-63" x="294.677734"/>
     <use xlink:href="#DejaVuSans-68" x="349.658203"/>
     <use xlink:href="#DejaVuSans-73" x="413.037109"/>
     <use xlink:href="#DejaVuSans-5f" x="465.136719"/>
     <use xlink:href="#DejaVuSans-73" x="515.136719"/>
     <use xlink:href="#DejaVuSans-74" x="567.236328"/>
     <use xlink:href="#DejaVuSans-6f" x="606.445312"/>
     <use xlink:href="#DejaVuSans-72" x="667.626953"/>
     <use xlink:href="#DejaVuSans-65" x="706.490234"/>
     <use xlink:href="#DejaVuSans-20" x="768.013672"/>
     <use xlink:href="#DejaVuSans-3d" x="799.800781"/>
     <use xlink:href="#DejaVuSans-20" x="883.589844"/>
     <use xlink:href="#DejaVuSans-4d" x="915.376953"/>
     <use xlink:href="#DejaVuSans-6f" x="1001.65625"/>
     <use xlink:href="#DejaVuSans-7a" x="1062.837891"/>
     <use xlink:href="#DejaVuSans-2d" x="1115.328125"/>
     <use xlink:href="#DejaVuSans-4e" x="1151.412109"/>
     <use xlink:href="#DejaVuSans-6f" x="1226.216797"/>
     <use xlink:href="#DejaVuSans-72" x="1287.398438"/>
     <use xlink:href="#DejaVuSans-74" x="1328.511719"/>
     <use xlink:href="#DejaVuSans-68" x="1367.720703"/>
     <use xlink:href="#DejaVuSans-2d" x="1431.099609"/>
     <use xlink:href="#DejaVuSans-43" x="1467.183594"/>
     <use xlink:href="#DejaVuSans-65" x="1537.007812"/>
     <use xlink:href="#DejaVuSans-6e" x="1598.53125"/>
     <use xlink:href="#DejaVuSans-74" x="1661.910156"/>
     <use xlink:href="#DejaVuSans-65" x="1701.119141"/>
     <use xlink:href="#DejaVuSans-72" x="1762.642578"/>
     <use xlink:href="#DejaVuSans-3a" x="1802.005859"/>
     <use xlink:href="#DejaVuSans-3a" x="1835.697266"/>
     <use xlink:href="#DejaVuSans-73" x="1869.388672"/>
     <use xlink:href="#DejaVuSans-74" x="1921.488281"/>
     <use xlink:href="#DejaVuSans-6f" x="1960.697266"/>
     <use xlink:href="#DejaVuSans-72" x="2021.878906"/>
     <use xlink:href="#DejaVuSans-61" x="2062.992188"/>
     <use xlink:href="#DejaVuSans-67" x="2124.271484"/>
     <use xlink:href="#DejaVuSans-65" x="2187.748047"/>
     <use xlink:href="#DejaVuSans-44" x="2249.271484"/>
    </g>
   </g>
   <g id="legend_1">
    <g id="patch_7">
     <path d="M 428.54855 89.865 
L 554.48605 89.865 
Q 556.48605 89.865 556.48605 87.865 
L 556.48605 29.318125 
Q 556.48605 27.318125 554.48605 27.318125 
L 428.54855 27.318125 
Q 426.54855 27.318125 426.54855 29.318125 
L 426.54855 87.865 
Q 426.54855 89.865 428.54855 89.865 
z
" style="fill: #ffffff; opacity: 0.8; stroke: #cccccc; stroke-linejoin: miter"/>
    </g>
    <g id="line2d_23">
     <path d="M 430.54855 35.416562 
L 440.54855 35.416562 
L 450.54855 35.416562 
" style="fill: none; stroke: #1f77b4; stroke-width: 1.5; stroke-linecap: square"/>
    </g>
    <g id="text_23">
     <!-- Storage -->
     <g transform="translate(458.54855 38.916562)scale(0.1 -0.1)">
      <defs>
       <path id="DejaVuSans-53" d="M 3425 4513 
L 3425 3897 
Q 3066 4069 2747 4153 
Q 2428 4238 2131 4238 
Q 1616 4238 1336 4038 
Q 1056 3838 1056 3469 
Q 1056 3159 1242 3001 
Q 1428 2844 1947 2747 
L 2328 2669 
Q 3034 2534 3370 2195 
Q 3706 1856 3706 1288 
Q 3706 609 3251 259 
Q 2797 -91 1919 -91 
Q 1588 -91 1214 -16 
Q 841 59 441 206 
L 441 856 
Q 825 641 1194 531 
Q 1563 422 1919 422 
Q 2459 422 2753 634 
Q 3047 847 3047 1241 
Q 3047 1584 2836 1778 
Q 2625 1972 2144 2069 
L 1759 2144 
Q 1053 2284 737 2584 
Q 422 2884 422 3419 
Q 422 4038 858 4394 
Q 1294 4750 2059 4750 
Q 2388 4750 2728 4690 
Q 3069 4631 3425 4513 
z
" transform="scale(0.015625)"/>
      </defs>
      <use xlink:href="#DejaVuSans-53"/>
      <use xlink:href="#DejaVuSans-74" x="63.476562"/>
      <use xlink:href="#DejaVuSans-6f" x="102.685547"/>
      <use xlink:href="#DejaVuSans-72" x="163.867188"/>
      <use xlink:href="#DejaVuSans-61" x="204.980469"/>
      <use xlink:href="#DejaVuSans-67" x="266.259766"/>
      <use xlink:href="#DejaVuSans-65" x="329.736328"/>
     </g>
    </g>
    <g id="line2d_24">
     <path d="M 430.54855 50.094687 
L 440.54855 50.094687 
L 450.54855 50.094687 
" style="fill: none; stroke: #000000; stroke-width: 1.5; stroke-linecap: square"/>
    </g>
    <g id="text_24">
     <!-- Storage_cap_max -->
     <g transform="translate(458.54855 53.594687)scale(0.1 -0.1)">
      <defs>
       <path id="DejaVuSans-78" d="M 3513 3500 
L 2247 1797 
L 3578 0 
L 2900 0 
L 1881 1375 
L 863 0 
L 184 0 
L 1544 1831 
L 300 3500 
L 978 3500 
L 1906 2253 
L 2834 3500 
L 3513 3500 
z
" transform="scale(0.015625)"/>
      </defs>
      <use xlink:href="#DejaVuSans-53"/>
      <use xlink:href="#DejaVuSans-74" x="63.476562"/>
      <use xlink:href="#DejaVuSans-6f" x="102.685547"/>
      <use xlink:href="#DejaVuSans-72" x="163.867188"/>
      <use xlink:href="#DejaVuSans-61" x="204.980469"/>
      <use xlink:href="#DejaVuSans-67" x="266.259766"/>
      <use xlink:href="#DejaVuSans-65" x="329.736328"/>
      <use xlink:href="#DejaVuSans-5f" x="391.259766"/>
      <use xlink:href="#DejaVuSans-63" x="441.259766"/>
      <use xlink:href="#DejaVuSans-61" x="496.240234"/>
      <use xlink:href="#DejaVuSans-70" x="557.519531"/>
      <use xlink:href="#DejaVuSans-5f" x="620.996094"/>
      <use xlink:href="#DejaVuSans-6d" x="670.996094"/>
      <use xlink:href="#DejaVuSans-61" x="768.408203"/>
      <use xlink:href="#DejaVuSans-78" x="829.6875"/>
     </g>
    </g>
    <g id="line2d_25">
     <path d="M 430.54855 65.050937 
L 440.54855 65.050937 
L 450.54855 65.050937 
" style="fill: none; stroke: #ff0000; stroke-width: 1.5; stroke-linecap: square"/>
    </g>
    <g id="text_25">
     <!-- Storage_cap -->
     <g transform="translate(458.54855 68.550937)scale(0.1 -0.1)">
      <use xlink:href="#DejaVuSans-53"/>
      <use xlink:href="#DejaVuSans-74" x="63.476562"/>
      <use xlink:href="#DejaVuSans-6f" x="102.685547"/>
      <use xlink:href="#DejaVuSans-72" x="163.867188"/>
      <use xlink:href="#DejaVuSans-61" x="204.980469"/>
      <use xlink:href="#DejaVuSans-67" x="266.259766"/>
      <use xlink:href="#DejaVuSans-65" x="329.736328"/>
      <use xlink:href="#DejaVuSans-5f" x="391.259766"/>
      <use xlink:href="#DejaVuSans-63" x="441.259766"/>
      <use xlink:href="#DejaVuSans-61" x="496.240234"/>
      <use xlink:href="#DejaVuSans-70" x="557.519531"/>
     </g>
    </g>
    <g id="line2d_26">
     <path d="M 430.54855 80.007187 
L 440.54855 80.007187 
L 450.54855 80.007187 
" style="fill: none; stroke-dasharray: 5.55,2.4; stroke-dashoffset: 0; stroke: #ff00ff; stroke-width: 1.5"/>
    </g>
    <g id="text_26">
     <!-- Spillage_Threshold -->
     <g transform="translate(458.54855 83.507187)scale(0.1 -0.1)">
      <defs>
       <path id="DejaVuSans-54" d="M -19 4666 
L 3928 4666 
L 3928 4134 
L 2272 4134 
L 2272 0 
L 1638 0 
L 1638 4134 
L -19 4134 
L -19 4666 
z
" transform="scale(0.015625)"/>
       <path id="DejaVuSans-64" d="M 2906 2969 
L 2906 4863 
L 3481 4863 
L 3481 0 
L 2906 0 
L 2906 525 
Q 2725 213 2448 61 
Q 2172 -91 1784 -91 
Q 1150 -91 751 415 
Q 353 922 353 1747 
Q 353 2572 751 3078 
Q 1150 3584 1784 3584 
Q 2172 3584 2448 3432 
Q 2725 3281 2906 2969 
z
M 947 1747 
Q 947 1113 1208 752 
Q 1469 391 1925 391 
Q 2381 391 2643 752 
Q 2906 1113 2906 1747 
Q 2906 2381 2643 2742 
Q 2381 3103 1925 3103 
Q 1469 3103 1208 2742 
Q 947 2381 947 1747 
z
" transform="scale(0.015625)"/>
      </defs>
      <use xlink:href="#DejaVuSans-53"/>
      <use xlink:href="#DejaVuSans-70" x="63.476562"/>
      <use xlink:href="#DejaVuSans-69" x="126.953125"/>
      <use xlink:href="#DejaVuSans-6c" x="154.736328"/>
      <use xlink:href="#DejaVuSans-6c" x="182.519531"/>
      <use xlink:href="#DejaVuSans-61" x="210.302734"/>
      <use xlink:href="#DejaVuSans-67" x="271.582031"/>
      <use xlink:href="#DejaVuSans-65" x="335.058594"/>
      <use xlink:href="#DejaVuSans-5f" x="396.582031"/>
      <use xlink:href="#DejaVuSans-54" x="446.582031"/>
      <use xlink:href="#DejaVuSans-68" x="507.666016"/>
      <use xlink:href="#DejaVuSans-72" x="571.044922"/>
      <use xlink:href="#DejaVuSans-65" x="609.908203"/>
      <use xlink:href="#DejaVuSans-73" x="671.431641"/>
      <use xlink:href="#DejaVuSans-68" x="723.53125"/>
      <use xlink:href="#DejaVuSans-6f" x="786.910156"/>
      <use xlink:href="#DejaVuSans-6c" x="848.091797"/>
      <use xlink:href="#DejaVuSans-64" x="875.875"/>
     </g>
    </g>
   </g>
  </g>
 </g>
 <defs>
  <clipPath id="pd9005acf1b">
   <rect x="50.14375" y="22.318125" width="357.12" height="266.112"/>
  </clipPath>
 </defs>
</svg>
